<svg width="50" height="50" viewBox="0 0 50 50" fill="none" xmlns="http://www.w3.org/2000/svg">
<g clip-path="url(#clip0_761_8501)">
<path d="M6.68367 42.705C6.60349 42.717 6.51941 42.7114 6.43695 42.6846C6.15215 42.5923 5.99583 42.2866 6.08797 42.0016L10.0401 29.782C10.1321 29.497 10.4375 29.34 10.7231 29.433C11.0079 29.5254 11.1643 29.8311 11.0721 30.1161L7.12 42.3357C7.0544 42.5381 6.88089 42.6755 6.68367 42.705Z" fill="#E7F2FF"/>
<path d="M10.7228 29.4329C10.4626 29.3481 10.1879 29.4723 10.0712 29.7103L9.79739 30.5571C9.70536 30.8421 9.86169 31.1478 10.1464 31.2401C10.2288 31.2669 10.3129 31.2725 10.3931 31.2605C10.5728 31.2336 10.7287 31.114 10.8053 30.9403L11.0719 30.1159C11.1639 29.8308 11.0076 29.5251 10.7228 29.4329Z" fill="#C2F2FF"/>
<path d="M8.25521 38.8132C8.1894 39.0164 8.01524 39.1542 7.81725 39.1838C7.73686 39.1959 7.65244 39.1902 7.56966 39.1634C7.30891 39.0788 7.1578 38.8162 7.20317 38.5537L6.08792 42.0021C5.99589 42.2871 6.15221 42.5928 6.4369 42.6851C6.51936 42.7119 6.60344 42.7175 6.68361 42.7055C6.88084 42.676 7.05435 42.5386 7.11994 42.336L11.0721 30.1165C11.0738 30.1112 11.0739 30.1059 11.0754 30.1006L8.25521 38.8132Z" fill="#C2F2FF"/>
<path d="M10.7227 29.433C10.4371 29.34 10.1318 29.4971 10.0397 29.7821L6.95118 39.3316C6.5031 40.7171 5.13036 41.6039 3.68778 41.4063C2.28414 41.2141 1.29421 41.3111 1.16704 41.7261C0.96264 42.3933 3.06565 43.6292 5.86422 44.4866C8.66279 45.3441 11.0972 45.4982 11.3017 44.831C11.4245 44.43 10.7134 43.8235 9.51858 43.2172C8.19077 42.5434 7.55156 41.0006 8.00975 39.5839L11.0718 30.1163C11.1638 29.8311 11.0075 29.5254 10.7227 29.433Z" fill="#D6DFFF"/>
<path d="M7.39141 42.6697C8.49556 43.2553 9.73221 44.7591 9.72209 45.1888C10.9945 45.3371 11.1821 45.2211 11.3017 44.8308C11.4247 44.4297 10.7134 43.8233 9.51867 43.217C8.19096 42.5432 7.55153 41.0003 8.00984 39.5836L11.0719 30.1161C11.1639 29.8311 11.0076 29.5254 10.7229 29.433C10.4372 29.34 10.132 29.4971 10.0398 29.7821L6.95137 39.3316C6.64602 40.2758 5.91075 40.9875 5.01709 41.2831C5.32168 42.042 5.91021 41.8842 7.39141 42.6697Z" fill="#C2F2FF"/>
<path d="M11.072 30.116C11.164 29.831 11.0077 29.5253 10.723 29.4329C10.5047 29.3619 10.2758 29.4375 10.1384 29.6039C10.2496 29.5617 10.3745 29.5534 10.4967 29.5933C10.7815 29.6856 10.9378 29.9913 10.8457 30.2763L7.78366 39.7439C7.32546 41.1605 7.96478 42.7034 9.29248 43.3772C10.4873 43.9835 11.1984 44.59 11.0756 44.991C11.0642 45.028 11.0435 45.0616 11.0188 45.0936C11.1673 45.0276 11.2678 44.9416 11.3017 44.8307C11.4246 44.4296 10.7134 43.8231 9.51864 43.2169C8.19094 42.5431 7.55151 41.0002 8.00981 39.5835L11.072 30.116Z" fill="#B1C2FF"/>
<path d="M10.0401 29.7824L9.79297 30.5466C9.9581 30.851 10.2294 31.1507 10.677 31.3382L11.0722 30.1164C11.1336 29.9261 11.0826 29.7281 10.9584 29.5891L10.2047 29.5381C10.131 29.6011 10.0721 29.6834 10.0401 29.7824Z" fill="#B1C2FF"/>
<g opacity="0.96">
<path opacity="0.51" d="M11.0691 44.2653C10.7767 43.9452 10.2379 43.5813 9.51918 43.2166C9.31924 43.1151 9.13704 42.992 8.96973 42.8545C9.20154 43.0984 9.47578 43.3079 9.79028 43.4675C10.3273 43.7399 10.7593 44.0114 11.0691 44.2653Z" fill="#FFF2FF"/>
<path opacity="0.82" d="M1.43831 41.977C1.56548 41.562 2.55541 41.4649 3.95905 41.6572C5.40174 41.8547 6.77437 40.968 7.22256 39.5824L10.311 30.033C10.4031 29.748 10.7083 29.5909 10.9941 29.6839C11.0102 29.6891 11.0242 29.6973 11.0394 29.7038C10.9763 29.5796 10.8659 29.4794 10.723 29.433C10.4373 29.34 10.1321 29.4971 10.0399 29.7821L6.95146 39.3316C6.50338 40.7171 5.13064 41.6039 3.68806 41.4062C2.28442 41.214 1.29449 41.311 1.16732 41.726C1.09944 41.9475 1.29026 42.2322 1.67187 42.5443C1.47639 42.3313 1.38914 42.1374 1.43831 41.977Z" fill="white"/>
</g>
<path d="M23.1482 14.0067L19.3515 25.7458C18.1542 29.4476 14.1452 31.4985 10.4418 30.3008C6.73836 29.1029 4.68964 25.0927 5.8868 21.3911L9.68346 9.65199C10.4331 8.63182 13.5893 8.67033 17.0731 9.79711C20.5568 10.9237 23.1379 12.7408 23.1482 14.0067Z" fill="#D6DFFF"/>
<path d="M19.45 25.4071C18.2528 29.1089 14.2438 31.1598 10.5403 29.9621C6.96234 28.8048 4.92961 25.0225 5.87559 21.4295C4.70486 25.1206 6.75129 29.1072 10.4419 30.3008C14.1453 31.4987 18.1544 29.4477 19.3516 25.7459L23.1483 14.0069C23.1483 13.999 23.1453 13.9905 23.1451 13.9824L19.45 25.4071Z" fill="#C2F2FF"/>
<path d="M18.5069 25.6396C18.5069 25.6396 16.7856 30.9706 9.90625 30.0972C10.0817 30.1701 10.2581 30.2417 10.4419 30.3011C14.1453 31.4989 18.1544 29.4479 19.3516 25.7461L23.1483 14.0071C23.1477 13.9446 23.1361 13.8796 23.1232 13.8145L21.8458 14.7947L18.5069 25.6396Z" fill="#C2F2FF"/>
<path d="M21.5202 15.2603L18.3045 25.2033C17.2904 28.3386 13.9148 30.0823 10.8025 29.0758C7.69024 28.0692 5.97495 24.679 6.98903 21.5437L10.2048 11.6007C10.8371 10.7358 13.4916 10.7624 16.4193 11.7092C19.347 12.6561 21.5141 14.1889 21.5202 15.2603Z" fill="#D4E0FF"/>
<path d="M14.0084 21.4127C10.7158 21.6202 7.95563 21.0116 7.55063 20.0288C7.52332 19.9623 7.50679 19.8936 7.50168 19.8226L6.93262 21.5578C5.93693 24.6363 7.64266 27.9702 10.7212 28.9659L10.8575 29.01C13.9361 30.0057 17.2695 28.3016 18.2652 25.223L20.2002 19.3223C19.791 20.3117 17.2003 21.2114 14.0084 21.4127Z" fill="#AB1333"/>
<path opacity="0.31" d="M19.5346 20.0195L18.0754 24.4693C17.0797 27.5478 13.7463 29.2519 10.6677 28.2563L10.5314 28.2123C8.6596 27.6069 7.30025 26.1352 6.74219 24.384C7.11314 26.4591 8.58563 28.2753 10.7212 28.9659L10.8575 29.01C13.936 30.0057 17.2694 28.3016 18.2651 25.2229L20.2001 19.3223C20.1004 19.5629 19.8697 19.7981 19.5346 20.0195Z" fill="#AB1333"/>
<path d="M20.2391 19.2286C20.2445 19.2089 20.2469 19.1889 20.2505 19.1689L20.2002 19.322C20.2131 19.2909 20.2307 19.2599 20.2391 19.2286Z" fill="#C22742"/>
<path d="M20.2124 18.7998C19.8077 17.8187 17.0492 17.2099 13.7567 17.4175C10.7683 17.6059 8.30586 18.4068 7.66708 19.3188L7.50195 19.8225C7.50707 19.8935 7.5237 19.9624 7.5509 20.0287C7.95579 21.0115 10.7161 21.6202 14.0086 21.4126C17.2006 21.2113 19.7913 20.3116 20.2006 19.3221L20.2508 19.169C20.2602 19.117 20.2657 19.0648 20.2624 19.0118C20.2577 18.9388 20.2405 18.8681 20.2124 18.7998Z" fill="#C22742"/>
<path opacity="0.35" d="M19.158 18.8246C18.8004 17.9761 16.3213 17.4673 13.3557 17.6707C10.6639 17.8554 8.44127 18.5678 7.85982 19.3639L7.70752 19.8022C7.71165 19.8638 7.72612 19.9234 7.75016 19.9808C8.10773 20.8309 10.5885 21.3395 13.5542 21.136C16.4294 20.9387 18.7681 20.1395 19.1436 19.278L19.19 19.1447C19.1988 19.0996 19.2041 19.0541 19.2015 19.0082C19.1977 18.9449 19.1827 18.8836 19.158 18.8246Z" fill="#FCA6B3"/>
<path opacity="0.26" d="M20.2122 18.7998C19.8074 17.8187 17.0489 17.2099 13.7564 17.4175C13.4155 17.439 13.0826 17.4694 12.7573 17.506C12.8999 17.4941 13.0428 17.4822 13.188 17.4731C16.4806 17.2654 19.2389 17.8743 19.6438 18.8554C19.6718 18.9237 19.689 18.9943 19.6937 19.0676C19.6971 19.1206 19.6915 19.1728 19.6822 19.2248L19.6319 19.3779L17.6969 25.2785C16.9869 27.4736 15.0872 28.9634 12.9402 29.2805C15.3147 29.164 17.4931 27.6101 18.2653 25.2229L20.2003 19.3223L20.2506 19.1692C20.2599 19.1172 20.2655 19.065 20.2621 19.0121C20.2574 18.9388 20.2402 18.8681 20.2122 18.7998Z" fill="#AB1333"/>
<path d="M23.1085 14.2818C23.0799 14.3704 23.0364 14.4523 22.9799 14.5281C22.2298 15.55 19.074 15.5098 15.5903 14.383C12.1066 13.2563 9.52482 11.4409 9.51524 10.1733C9.51383 10.0787 9.52656 9.98693 9.55528 9.89828C9.58389 9.80973 9.6274 9.72781 9.68386 9.65199C10.4335 8.63182 13.5897 8.67033 17.0735 9.79711C20.5572 10.9238 23.1383 12.7409 23.1486 14.0068C23.15 14.1015 23.1372 14.1933 23.1085 14.2818Z" fill="#E7F2FF"/>
<path d="M22.2822 14.0141C22.2601 14.0824 22.2251 14.1448 22.1784 14.2021C21.5599 14.9752 18.82 14.8435 15.7611 13.8542C12.7023 12.8649 10.4042 11.3672 10.3556 10.3784C10.3513 10.3046 10.3595 10.2334 10.3816 10.1652C10.4037 10.097 10.4387 10.0345 10.4854 9.97718C11.1035 9.20536 13.8437 9.33569 16.9026 10.3251C19.9615 11.3145 22.2591 12.8134 22.3082 13.8009C22.3124 13.8748 22.3043 13.946 22.2822 14.0141Z" fill="#BFE0FF"/>
<path d="M16.6631 11.0656C13.7336 10.1181 11.1093 9.9933 10.5174 10.7325C10.5037 10.7493 10.4985 10.77 10.4868 10.788C11.0157 11.7484 13.0996 12.9939 15.7611 13.8547C18.4227 14.7155 20.8411 14.9262 21.8323 14.4573C21.8334 14.436 21.8412 14.4162 21.8399 14.3945C21.793 13.4486 19.5927 12.0131 16.6631 11.0656Z" fill="#ABD6FF"/>
<path d="M9.70802 10.461C9.70704 10.3666 9.71998 10.2748 9.74859 10.1862C9.7772 10.0976 9.82049 10.0156 9.87662 9.93968C10.6211 8.91788 13.7398 8.94421 17.1775 10.0561C20.475 11.1226 22.943 12.8253 23.1441 14.0784C23.1456 14.0545 23.1489 14.031 23.1486 14.0068C23.1383 12.7409 20.5572 10.9237 17.0735 9.79707C13.5899 8.6704 10.4335 8.63178 9.68386 9.65195C9.6274 9.72777 9.58389 9.80969 9.55528 9.89824C9.52656 9.98679 9.51383 10.0787 9.51524 10.1732C9.51742 10.4612 9.6583 10.7781 9.90633 11.108C9.78145 10.8822 9.70878 10.6642 9.70802 10.461Z" fill="#FFF2FF"/>
<path opacity="0.56" d="M8.52813 21.5905C7.63491 24.3435 8.81978 27.2298 11.1633 28.0521C10.9344 28.0189 10.7071 27.9648 10.4813 27.8933C8.07254 27.1121 6.80499 24.3034 7.66602 21.6472L10.3755 13.2673L10.389 13.2278C10.3917 13.2206 10.3982 13.2165 10.4045 13.209L11.1308 13.5371L11.0695 13.727L8.52813 21.5905Z" fill="#E7F2FF"/>
<path opacity="0.86" d="M15.686 29.9304C14.101 30.6928 12.239 30.879 10.4416 30.3005C6.73828 29.104 4.68978 25.0917 5.88672 21.3921L9.51606 10.1738C9.51628 10.4137 9.61114 10.6713 9.78454 10.9406L6.48797 21.1322C5.29146 24.8355 7.33953 28.844 11.0433 30.0444C12.6134 30.5523 14.2417 30.4703 15.686 29.9304Z" fill="#FFF2FF"/>
<path d="M22.7347 13.0429C22.876 13.2831 22.9571 13.5143 22.9589 13.7289C22.9603 13.8234 22.9476 13.9152 22.9188 14.0039C22.8902 14.0924 22.8467 14.1743 22.7903 14.2502C22.0401 15.2721 18.8844 15.2318 15.4006 14.105C12.7331 13.2423 10.5993 11.9765 9.73926 10.8613C10.432 12.0387 12.6973 13.4482 15.59 14.3837C19.0737 15.5104 22.2295 15.5508 22.9796 14.5289C23.0362 14.453 23.0796 14.3711 23.1082 14.2826C23.1368 14.194 23.1496 14.1021 23.1483 14.0076C23.1459 13.7111 22.9976 13.3838 22.7347 13.0429Z" fill="#D9F2FF"/>
<path opacity="0.61" d="M10.5556 27.9916C8.0801 27.2015 6.8354 24.1199 7.78617 21.1443L10.478 12.7285C11.7386 13.906 14.8271 16.1936 19.3932 15.8506L16.779 24.022C15.8283 26.9976 13.0285 28.7845 10.5556 27.9916Z" fill="#D4E0FF"/>
<path d="M43.8122 40.8067C43.8932 40.8074 43.9757 40.7901 44.0537 40.7522C44.3228 40.6211 44.4352 40.2967 44.3043 40.0272L38.6919 28.4757C38.5611 28.2062 38.2369 28.0932 37.9669 28.225C37.6978 28.356 37.5854 28.6804 37.7162 28.9499L43.3287 40.5014C43.4219 40.693 43.6129 40.8048 43.8122 40.8067Z" fill="#E7F2FF"/>
<path d="M37.9664 28.2256C38.2124 28.1055 38.5015 28.1903 38.6502 28.4097L39.0391 29.2101C39.1699 29.4796 39.0576 29.804 38.7884 29.935C38.7105 29.973 38.6279 29.9903 38.5469 29.9896C38.3651 29.9879 38.1942 29.8912 38.0943 29.7298L37.7156 28.9505C37.585 28.6811 37.6973 28.3566 37.9664 28.2256Z" fill="#C2F2FF"/>
<path d="M41.7141 37.1713C41.8075 37.3635 41.9992 37.4756 42.1992 37.4775C42.2806 37.4782 42.3634 37.4609 42.4416 37.4228C42.6881 37.303 42.8011 37.0219 42.7198 36.7682L44.3036 40.028C44.4343 40.2975 44.322 40.6219 44.0529 40.7529C43.975 40.7909 43.8925 40.8082 43.8114 40.8074C43.612 40.8057 43.4211 40.6938 43.328 40.5023L37.7155 28.9508C37.7131 28.9458 37.7121 28.9406 37.71 28.9355L41.7141 37.1713Z" fill="#C2F2FF"/>
<path d="M37.9663 28.225C38.2363 28.0932 38.5605 28.2063 38.6913 28.4758L43.0773 37.5031C43.7137 38.8128 45.1963 39.5001 46.5975 39.1039C47.9607 38.7184 48.9546 38.6769 49.1382 39.0702C49.4333 39.7025 47.5226 41.2188 44.8704 42.4569C42.2182 43.6949 39.8288 44.1861 39.5337 43.5538C39.3563 43.1737 39.9762 42.4743 41.0751 41.7078C42.2963 40.856 42.7149 39.2391 42.0642 37.8999L37.7157 28.9499C37.585 28.6805 37.6972 28.356 37.9663 28.225Z" fill="#D6DFFF"/>
<path d="M43.1056 40.8701C42.0936 41.6035 41.078 43.2647 41.1477 43.6888C39.9082 44.0125 39.7063 43.9238 39.5337 43.5538C39.3563 43.1737 39.9762 42.4742 41.0751 41.7078C42.2963 40.856 42.7149 39.2391 42.0642 37.8999L37.7157 28.9499C37.585 28.6805 37.6972 28.3561 37.9663 28.225C38.2363 28.0932 38.5605 28.2063 38.6913 28.4758L43.0773 37.5031C43.511 38.3956 44.338 38.9983 45.2642 39.1667C45.068 39.9608 44.4632 39.8863 43.1056 40.8701Z" fill="#C2F2FF"/>
<path d="M37.7157 28.9507C37.585 28.6812 37.6972 28.3568 37.9663 28.2257C38.1726 28.125 38.4099 28.1681 38.569 28.3138C38.453 28.2875 38.3282 28.2967 38.2126 28.3531C37.9435 28.4842 37.8311 28.8086 37.962 29.0781L42.3104 38.028C42.9611 39.3673 42.5426 40.9841 41.3213 41.8359C40.2225 42.6024 39.6026 43.3018 39.78 43.6819C39.7964 43.7171 39.8215 43.7473 39.8505 43.7756C39.6943 43.7309 39.5826 43.6596 39.5337 43.5546C39.3563 43.1745 39.9762 42.475 41.0751 41.7085C42.2963 40.8567 42.7149 39.2399 42.0642 37.9006L37.7157 28.9507Z" fill="#B1C2FF"/>
<path d="M38.6916 28.4758L39.0425 29.1982C38.9213 29.5226 38.6943 29.8572 38.2771 30.1051L37.7159 28.9501C37.6287 28.7703 37.6516 28.5671 37.7553 28.4122L38.4946 28.2568C38.5764 28.3089 38.6461 28.3823 38.6916 28.4758Z" fill="#B1C2FF"/>
<g opacity="0.96">
<path opacity="0.51" d="M39.6865 42.9615C39.9316 42.6039 40.4146 42.1686 41.0756 41.7075C41.2594 41.5792 41.4227 41.4318 41.5693 41.2725C41.3738 41.5462 41.1312 41.7918 40.8419 41.9936C40.3481 42.3381 39.958 42.6671 39.6865 42.9615Z" fill="#FFF2FF"/>
<path opacity="0.82" d="M48.9049 39.3563C48.7213 38.963 47.7275 39.0045 46.3641 39.39C44.9629 39.7862 43.4803 39.0989 42.844 37.7892L38.4579 28.7619C38.3272 28.4924 38.003 28.3794 37.733 28.5111C37.7179 28.5185 37.7051 28.5285 37.6909 28.5371C37.7361 28.4053 37.8315 28.2907 37.9666 28.225C38.2366 28.0932 38.5608 28.2063 38.6915 28.4758L43.0776 37.5031C43.7139 38.8128 45.1966 39.5001 46.5977 39.1039C47.961 38.7184 48.9548 38.6769 49.1384 39.0702C49.2364 39.28 49.0871 39.5886 48.7526 39.9507C48.9164 39.7125 48.9758 39.5084 48.9049 39.3563Z" fill="white"/>
</g>
<path d="M23.5172 14.6763L28.909 25.7735C30.6091 29.2728 34.8644 30.7466 38.3654 29.0456C41.8664 27.3445 43.3377 23.0885 41.6375 19.5891L36.2458 8.4919C35.3617 7.58584 32.2413 8.06275 28.948 9.66285C25.6547 11.2629 23.3513 13.4212 23.5172 14.6763Z" fill="#D6DFFF"/>
<path d="M28.7642 25.4515C30.4643 28.9509 34.7196 30.4247 38.2206 28.7236C41.603 27.0802 43.0902 23.0521 41.6539 19.6254C43.3264 23.1178 41.8541 27.3502 38.3652 29.0453C34.8642 30.7462 30.6089 29.2725 28.9087 25.7732L23.517 14.676C23.5159 14.6681 23.5175 14.6593 23.5168 14.6514L28.7642 25.4515Z" fill="#C2F2FF"/>
<path d="M29.7305 25.5501C29.7305 25.5501 32.1763 30.5901 38.8674 28.7688C38.7038 28.8654 38.5391 28.9608 38.3654 29.0451C34.8644 30.7461 30.6092 29.2723 28.9089 25.773L23.5171 14.6757C23.509 14.6137 23.5115 14.5478 23.5152 14.4814L24.9165 15.2746L29.7305 25.5501Z" fill="#C2F2FF"/>
<path d="M25.3033 15.6914L29.8701 25.0907C31.3101 28.0546 34.8953 29.3122 37.8375 27.8826C40.7796 26.4531 42.0069 22.8575 40.5669 19.8936L36.0001 10.4942C35.2536 9.72567 32.6287 10.1209 29.861 11.4656C27.0934 12.8102 25.1605 14.6295 25.3033 15.6914Z" fill="#D4E0FF"/>
<path d="M33.5983 20.7389C36.8877 20.4868 39.5365 19.5003 39.8009 18.4708C39.8186 18.4013 39.8255 18.3308 39.8207 18.2598L40.6254 19.899C42.0393 22.8093 40.8137 26.3479 37.9034 27.7619L37.7745 27.8246C34.8642 29.2385 31.3263 28.0144 29.9123 25.1041L27.1758 19.5297C27.7187 20.4525 30.4094 20.9834 33.5983 20.7389Z" fill="#AB1333"/>
<path opacity="0.31" d="M27.9316 20.1283L29.9954 24.332C31.4093 27.2423 34.9472 28.4664 37.8575 27.0524L37.9863 26.9898C39.7558 26.1301 40.8973 24.4836 41.2066 22.6718C41.1277 24.7784 39.922 26.7817 37.9033 27.7625L37.7745 27.8251C34.8642 29.2391 31.3263 28.015 29.9123 25.1047L27.1758 19.5303C27.3078 19.7548 27.569 19.9556 27.9316 20.1283Z" fill="#AB1333"/>
<path d="M27.124 19.4432C27.1159 19.4244 27.1108 19.4049 27.1045 19.3857L27.1755 19.5304C27.1584 19.5013 27.1367 19.4731 27.124 19.4432Z" fill="#C22742"/>
<path d="M27.0911 19.0142C27.3556 17.9863 30.0026 16.9999 33.292 16.7479C36.2775 16.519 38.8274 16.9698 39.5867 17.7843L39.8203 18.2601C39.8251 18.3311 39.8182 18.4016 39.8005 18.4711C39.5361 19.5007 36.8873 20.4872 33.5979 20.7393C30.409 20.9837 27.7183 20.4528 27.1755 19.5299L27.1045 19.3852C27.0879 19.3351 27.0752 19.2841 27.0712 19.2312C27.0656 19.1581 27.0728 19.0856 27.0911 19.0142Z" fill="#C22742"/>
<path opacity="0.35" d="M28.1388 18.8928C28.3749 18.0028 30.7592 17.1543 33.7244 16.9435C36.4157 16.7521 38.7158 17.1488 39.4024 17.8562L39.6141 18.269C39.6185 18.3306 39.6126 18.3916 39.5967 18.4519C39.3607 19.3434 36.9748 20.192 34.0096 20.4027C31.135 20.607 28.7078 20.1407 28.2162 19.3398L28.1518 19.2142C28.1368 19.1707 28.1251 19.1266 28.1214 19.0806C28.1162 19.0174 28.1225 18.9547 28.1388 18.8928Z" fill="#FCA6B3"/>
<path opacity="0.26" d="M27.0911 19.0137C27.3557 17.9858 30.0026 16.9995 33.292 16.7474C33.6326 16.7213 33.9665 16.7051 34.2937 16.6963C34.1508 16.7042 34.0077 16.7124 33.8626 16.7235C30.5732 16.9756 27.9261 17.962 27.6617 18.9898C27.6434 19.0612 27.6362 19.1337 27.6418 19.2068C27.6458 19.2597 27.6585 19.3107 27.6751 19.3608L27.7461 19.5055L30.4827 25.0799C31.4909 27.155 33.5792 28.3662 35.7494 28.3817C33.3819 28.5965 31.0084 27.3605 29.912 25.1039L27.1754 19.5295L27.1044 19.3848C27.0879 19.3346 27.0751 19.2836 27.0711 19.2307C27.0657 19.1576 27.0728 19.0852 27.0911 19.0137Z" fill="#AB1333"/>
<path d="M23.5946 14.943C23.6353 15.0267 23.6897 15.1018 23.7562 15.169C24.6411 16.0767 27.7606 15.5982 31.0539 13.9981C34.3472 12.398 36.6514 10.2414 36.4847 8.98469C36.473 8.89092 36.4475 8.80171 36.4068 8.71795C36.3661 8.63419 36.3117 8.55913 36.2453 8.4919C35.3612 7.58584 32.2408 8.06275 28.9475 9.66285C25.6542 11.2629 23.3508 13.4212 23.5167 14.6763C23.5286 14.7701 23.5539 14.8592 23.5946 14.943Z" fill="#E7F2FF"/>
<path d="M24.3755 14.5633C24.4068 14.6277 24.4502 14.6848 24.5044 14.7351C25.2243 15.4146 27.9194 14.9035 30.811 13.4984C33.7027 12.0935 35.7703 10.2908 35.681 9.3048C35.6749 9.23115 35.6569 9.16175 35.6256 9.09735C35.5943 9.03295 35.5509 8.97583 35.4967 8.92558C34.7773 8.2472 32.0817 8.75718 29.1901 10.1622C26.2984 11.5673 24.2315 13.371 24.3201 14.3558C24.3262 14.4295 24.3443 14.4989 24.3755 14.5633Z" fill="#BFE0FF"/>
<path d="M29.5302 10.8619C32.2995 9.51636 34.881 9.02792 35.57 9.67769C35.586 9.69248 35.594 9.71228 35.6079 9.72838C35.2176 10.7531 33.3273 12.2761 30.8112 13.4985C28.2952 14.7209 25.9295 15.2658 24.8827 14.9393C24.8788 14.9184 24.8683 14.8998 24.8664 14.8781C24.7814 13.9349 26.7609 12.2074 29.5302 10.8619Z" fill="#ABD6FF"/>
<path d="M36.3342 9.29646C36.3221 9.2028 36.2965 9.11371 36.2558 9.03005C36.2151 8.94629 36.1609 8.87112 36.0948 8.80367C35.2154 7.89533 32.1308 8.35494 28.881 9.93383C25.7638 11.4484 23.5565 13.4777 23.5316 14.7465C23.5268 14.7231 23.5203 14.7003 23.5172 14.6763C23.3513 13.4212 25.6548 11.2629 28.948 9.66285C32.2412 8.06275 35.3616 7.58584 36.2458 8.4919C36.3122 8.55913 36.3666 8.63419 36.4073 8.71795C36.448 8.80171 36.4734 8.89081 36.4852 8.98469C36.5231 9.27014 36.4277 9.60356 36.2278 9.96483C36.3201 9.72388 36.3617 9.49782 36.3342 9.29646Z" fill="#FFF2FF"/>
<path opacity="0.56" d="M39.0493 20.1536C40.3166 22.7557 39.5444 25.7786 37.3381 26.9186C37.5601 26.854 37.7778 26.7688 37.9913 26.6666C40.2681 25.5582 41.133 22.6005 39.911 20.0898L36.0629 12.168L36.0441 12.1308C36.0404 12.1241 36.0333 12.1209 36.0261 12.1143L35.3525 12.5402L35.4396 12.7198L39.0493 20.1536Z" fill="#E7F2FF"/>
<path opacity="0.86" d="M33.1211 29.4077C34.7967 29.9425 36.6665 29.868 38.3661 29.0453C41.8671 27.3455 43.338 23.0873 41.6383 19.5901L36.4847 8.98535C36.5178 9.22294 36.4597 9.4912 36.3254 9.78197L41.0067 19.4162C42.7065 22.9172 41.2355 27.1716 37.7346 28.8751C36.2504 29.5965 34.6264 29.7416 33.1211 29.4077Z" fill="#FFF2FF"/>
<path d="M23.7924 13.6632C23.6858 13.9207 23.6376 14.161 23.6658 14.3738C23.6775 14.4675 23.7028 14.5567 23.7436 14.6405C23.7843 14.7243 23.8387 14.7993 23.9052 14.8666C24.7901 15.7743 27.9096 15.2957 31.2029 13.6956C33.7246 12.4705 35.6617 10.9202 36.3583 9.69629C35.8359 10.9585 33.7886 12.6692 31.0541 13.9978C27.7609 15.5979 24.6413 16.0764 23.7565 15.1688C23.69 15.1015 23.6356 15.0265 23.5948 14.9427C23.5542 14.8589 23.5288 14.7697 23.5169 14.676C23.4781 14.382 23.5794 14.0374 23.7924 13.6632Z" fill="#D9F2FF"/>
<path opacity="0.61" d="M37.9314 26.7751C40.2731 25.6486 41.0773 22.4238 39.722 19.6093L35.8863 11.6494C34.8016 12.9906 32.0612 15.6854 27.4917 15.9806L31.2165 23.7092C32.5717 26.5236 35.5928 27.9041 37.9314 26.7751Z" fill="#D4E0FF"/>
<path d="M22.7584 7.02126C21.7048 7.13853 21.6135 8.14564 21.6133 8.14749C21.6117 8.14662 20.7358 7.64132 20.0332 8.43523C20.0332 8.43523 18.6616 10.1137 23.0983 11.0097C24.9205 6.86624 22.7584 7.02126 22.7584 7.02126Z" fill="#CC094F"/>
<path opacity="0.57" d="M23.6197 8.1761C23.6234 7.71681 23.4056 7.32878 23.109 7.07466C22.9153 7.01004 22.7583 7.02125 22.7583 7.02125C21.7047 7.13852 21.6135 8.14564 21.6133 8.14749C21.6127 8.14716 21.5085 8.08711 21.3434 8.04077C21.3072 8.04523 21.2668 8.03686 21.2274 8.01336C20.9077 7.95135 20.4412 7.97419 20.0332 8.43522C20.0332 8.43522 19.0054 9.69309 21.6078 10.6123C21.6826 10.5933 21.7554 10.5677 21.8254 10.5346C22.7803 10.0828 23.6119 9.12937 23.6197 8.1761Z" fill="#FF7483"/>
<path opacity="0.32" d="M22.9419 7.31182C22.8963 7.28321 22.8461 7.26189 22.7938 7.24938C22.7011 7.22719 22.5954 7.24546 22.5037 7.26613C22.3721 7.29594 22.1626 7.41941 22.0828 7.49055C21.9296 7.6274 21.7904 7.80907 21.6902 7.98813C21.6633 8.0361 21.6397 8.08582 21.6195 8.13684C21.5816 8.23235 21.4785 8.28402 21.3785 8.2602C21.3772 8.25987 21.376 8.25954 21.3747 8.25933C21.3583 8.25541 21.3413 8.25247 21.3245 8.25345C21.3032 8.25465 21.281 8.25138 21.2593 8.24301C21.2408 8.23594 21.2211 8.233 21.2014 8.23126C20.936 8.20744 20.563 8.26117 20.2149 8.61668C20.2103 8.62125 20.2061 8.62604 20.2019 8.63104C20.1274 8.72079 19.5385 9.49478 20.8832 10.0599C21.0684 10.1166 21.7097 10.2396 22.5119 9.56865L22.5135 9.57648C22.9341 9.18605 23.3372 8.67597 23.3693 8.21494C23.3787 8.07885 23.3722 7.89751 23.3264 7.76904C23.2835 7.64894 23.1137 7.4602 23.02 7.37209C22.996 7.34957 22.9698 7.32933 22.9419 7.31182Z" fill="#FF9FFF"/>
<g opacity="0.48">
<path d="M21.7368 8.18666C21.737 8.18481 21.8282 7.17768 22.8818 7.06042C22.8818 7.06042 22.9985 7.05204 23.1548 7.0912C22.9406 7.0082 22.7582 7.02126 22.7582 7.02126C21.7854 7.12949 21.633 7.99639 21.6152 8.13009C21.6918 8.16076 21.7363 8.18644 21.7368 8.18666Z" fill="#FFCAF4"/>
<path d="M20.1568 8.47448C20.6104 7.96178 21.1364 7.99094 21.4525 8.07611C21.1671 7.97157 20.5528 7.84821 20.0332 8.43532C20.0332 8.43532 18.9245 9.79217 21.9254 10.7173C19.0791 9.79348 20.1568 8.47448 20.1568 8.47448Z" fill="#FFCAF4"/>
</g>
<path opacity="0.21" d="M23.1764 10.8285C23.1982 10.7772 23.2193 10.7266 23.2398 10.6765C23.243 10.6689 23.2461 10.6613 23.2492 10.6537C23.2691 10.605 23.2883 10.557 23.3071 10.5096C23.3102 10.5015 23.3135 10.4934 23.3166 10.4853C23.3351 10.4382 23.3531 10.3918 23.3705 10.346C23.3733 10.3386 23.376 10.3313 23.3787 10.324C23.3962 10.2775 23.4132 10.2316 23.4295 10.1866C23.4315 10.1811 23.4333 10.1759 23.4353 10.1705C23.4522 10.1236 23.4686 10.0773 23.4842 10.0317C23.4848 10.0302 23.4853 10.0286 23.4858 10.027C23.5014 9.98131 23.5165 9.93649 23.5309 9.89221C23.532 9.88873 23.5332 9.88515 23.5344 9.88166C23.5484 9.83859 23.5617 9.79627 23.5747 9.7545C23.5764 9.74873 23.5782 9.74296 23.58 9.73731C23.5924 9.69684 23.6041 9.65714 23.6156 9.61787C23.6174 9.61145 23.6193 9.60492 23.6211 9.5985C23.6322 9.55977 23.6429 9.52159 23.653 9.48395C23.6546 9.47786 23.6562 9.47187 23.6578 9.46589C23.6679 9.42803 23.6776 9.39062 23.6866 9.35385C23.6878 9.34906 23.6889 9.34438 23.6901 9.33959C23.6994 9.30173 23.7082 9.26431 23.7165 9.22765C23.7169 9.2257 23.7174 9.22363 23.7178 9.22167C23.7262 9.18425 23.7341 9.14748 23.7415 9.11137C23.7418 9.10974 23.7422 9.10799 23.7426 9.10636C23.7498 9.07079 23.7564 9.03598 23.7627 9.00171C23.7635 8.99758 23.7643 8.99344 23.765 8.98942C23.7709 8.95646 23.7763 8.92404 23.7815 8.89217C23.7822 8.88738 23.783 8.88249 23.7837 8.8777C23.7886 8.84626 23.793 8.81547 23.797 8.78512C23.7977 8.78045 23.7982 8.77577 23.7989 8.77109C23.8028 8.74063 23.8064 8.7106 23.8094 8.68123C23.8098 8.67753 23.8102 8.67384 23.8105 8.67003C23.8136 8.63979 23.8164 8.60998 23.8186 8.58093C23.8188 8.57909 23.8189 8.57735 23.8191 8.5755C23.8214 8.54504 23.8233 8.51512 23.8247 8.48586V8.48554C23.8262 8.4566 23.827 8.42832 23.8277 8.40058C23.8277 8.39818 23.8278 8.39578 23.8279 8.39339C23.8284 8.36685 23.8284 8.34085 23.8282 8.3154C23.8282 8.31213 23.8282 8.30887 23.8281 8.3056C23.8278 8.28058 23.827 8.25611 23.8261 8.23217C23.8259 8.22891 23.8257 8.22565 23.8256 8.22239C23.8245 8.19835 23.8231 8.17484 23.8213 8.15178C23.821 8.14906 23.8208 8.14645 23.8206 8.14373C23.8188 8.12013 23.8165 8.09696 23.814 8.07444C23.8139 8.07313 23.8136 8.07183 23.8134 8.07041C23.8102 8.04224 23.8063 8.01493 23.802 7.98828C23.8873 8.89456 23.5011 10.4218 21.9531 10.7256C22.0348 10.7505 22.1197 10.7751 22.2076 10.7994C22.2092 10.7998 22.2108 10.8002 22.2125 10.8007C22.2984 10.8244 22.3873 10.8477 22.4792 10.8706C22.483 10.8716 22.4867 10.8725 22.4905 10.8734C22.5347 10.8844 22.5797 10.8953 22.6253 10.9062C22.6313 10.9076 22.6373 10.909 22.6432 10.9104C22.6856 10.9204 22.7285 10.9303 22.772 10.9401C22.7767 10.9412 22.7813 10.9422 22.7859 10.9433C22.8311 10.9534 22.8772 10.9635 22.9239 10.9735C22.9339 10.9757 22.944 10.9778 22.9542 10.9799C23.0016 10.99 23.0493 11 23.0982 11.0099C23.1227 10.9541 23.1464 10.8992 23.1694 10.8451C23.1717 10.8395 23.1741 10.834 23.1764 10.8285Z" fill="#880000"/>
<path opacity="0.45" d="M23.6738 7.57031C23.6755 7.57597 23.6779 7.58141 23.6818 7.58652C23.6971 7.6185 23.7116 7.65234 23.725 7.68813C23.7093 7.64624 23.6922 7.60708 23.6738 7.57031Z" fill="#BD0911"/>
<path opacity="0.45" d="M23.793 7.93359C23.7963 7.95111 23.7993 7.96906 23.8022 7.98722C23.8021 7.98657 23.8021 7.98581 23.802 7.98516C23.7992 7.96764 23.7961 7.95046 23.793 7.93359Z" fill="#BD0911"/>
<path opacity="0.45" d="M23.7922 7.93213C23.7882 7.91124 23.7839 7.891 23.7793 7.87109C23.7839 7.89089 23.7882 7.91124 23.7922 7.93213Z" fill="#BD0911"/>
<path d="M21.0999 8.2677C21.0999 8.2677 21.7681 8.38072 21.8435 8.24072C21.9189 8.10061 21.7511 7.26449 22.9602 7.4144C22.9602 7.4144 22.3276 7.45574 22.1737 8.06732C22.0199 8.67879 21.8798 8.7891 21.4121 8.77876C21.2574 8.77528 21.1531 8.81314 21.0835 8.877C20.8053 9.13242 21.1194 9.82178 20.9197 9.9397C20.7407 10.0452 20.1412 9.6536 20.0882 9.12534C20.0815 9.05855 20.0665 8.81879 20.2253 8.59611C20.4085 8.33917 20.7462 8.21265 21.0999 8.2677Z" fill="#FFB392"/>
<path opacity="0.83" d="M20.2113 9.30423C20.1974 9.25418 20.0874 8.8333 20.3419 8.53371C20.6605 8.15873 21.3524 8.28024 21.3999 8.42297C21.4351 8.52903 20.924 8.54002 20.692 8.92566C20.4398 9.34491 20.7453 9.74904 20.623 9.77319C20.5628 9.78494 20.3989 9.72652 20.2113 9.30423Z" fill="#FF829A"/>
<path opacity="0.8" d="M20.2158 8.91574C20.2213 8.85221 20.25 8.60342 20.452 8.44417C20.7067 8.24335 21.0736 8.31385 21.0818 8.36128C21.0878 8.39609 20.8993 8.41436 20.6492 8.59886C20.5547 8.66848 20.4749 8.72852 20.4096 8.83513C20.3037 9.00766 20.3137 9.1753 20.2828 9.1753C20.2663 9.17541 20.2435 9.12722 20.2158 8.91574Z" fill="#FFCAF4"/>
<path opacity="0.8" d="M21.9827 7.81356C22.0008 7.76287 22.0824 7.55226 22.2829 7.46664C22.4154 7.40997 22.5729 7.41943 22.5812 7.45925C22.5894 7.49863 22.4422 7.52593 22.2856 7.67682C22.1021 7.85359 22.0359 8.07453 21.9884 8.06213C21.985 8.06126 21.9798 8.05865 21.9715 8.03798C21.9363 7.95247 21.9661 7.85675 21.9827 7.81356Z" fill="#FFCAF4"/>
<path opacity="0.32" d="M22.9295 10.842C22.8561 10.8824 22.7889 10.9103 22.728 10.9302C22.8468 10.9574 22.9701 10.984 23.0984 11.01C23.3587 10.418 23.5376 9.91385 23.6532 9.48438C23.6532 9.48438 23.2868 10.6456 22.9295 10.842Z" fill="#FF9FFF"/>
<path d="M26.7 5.39635C26.155 4.88942 25.5772 5.30204 25.5763 5.3028C25.576 5.3015 25.4437 4.60398 24.6995 4.59375C24.6995 4.59375 23.178 4.63259 24.7334 7.40407C27.7727 6.47593 26.7 5.39635 26.7 5.39635Z" fill="#CC094F"/>
<path opacity="0.57" d="M26.4801 6.38368C26.7263 6.17525 26.833 5.88164 26.8323 5.60751C26.7779 5.47479 26.7 5.39635 26.7 5.39635C26.155 4.88942 25.5773 5.30204 25.5763 5.3028C25.5762 5.30237 25.5604 5.21937 25.5094 5.11037C25.4905 5.09318 25.4764 5.06783 25.4709 5.03607C25.3574 4.83754 25.1316 4.59973 24.6994 4.59375C24.6994 4.59375 23.5592 4.62291 24.2621 6.42882C24.3065 6.45994 24.3535 6.48691 24.4031 6.509C25.081 6.81033 25.9693 6.8162 26.4801 6.38368Z" fill="#FF7483"/>
<path opacity="0.32" d="M26.6295 5.62732C26.6239 5.59001 26.6122 5.55346 26.5949 5.51995C26.5643 5.46045 26.5062 5.41258 26.4532 5.37331C26.377 5.31696 26.2154 5.26202 26.141 5.25212C25.998 5.2333 25.8376 5.24244 25.6964 5.27105C25.6586 5.27878 25.6213 5.2889 25.5849 5.30151C25.5167 5.32512 25.4419 5.2939 25.4089 5.22983C25.4084 5.22896 25.408 5.22819 25.4076 5.22732C25.4021 5.21677 25.3959 5.20644 25.3877 5.19795C25.3773 5.18729 25.3688 5.17391 25.3634 5.15846C25.3587 5.14541 25.3512 5.13355 25.3431 5.12224C25.2342 4.97005 25.0348 4.79621 24.6861 4.7738C24.6815 4.77348 24.6771 4.77337 24.6726 4.77348C24.5907 4.77489 23.9091 4.81601 24.2243 5.7905C24.2789 5.91495 24.5073 6.31255 25.2317 6.43221L25.2282 6.43656C25.6286 6.4816 26.0846 6.46245 26.3446 6.26838C26.4214 6.21106 26.5149 6.12457 26.5623 6.04135C26.6066 5.96357 26.6292 5.78669 26.6332 5.69651C26.6343 5.67344 26.633 5.65017 26.6295 5.62732Z" fill="#FF9FFF"/>
<g opacity="0.48">
<path d="M25.6121 5.38628C25.6132 5.38552 26.1909 4.9728 26.7358 5.47984C26.7358 5.47984 26.7937 5.53815 26.8445 5.63921C26.7905 5.48724 26.7 5.39618 26.7 5.39618C26.1969 4.92809 25.6657 5.24399 25.5864 5.29577C25.6054 5.35049 25.6121 5.38596 25.6121 5.38628Z" fill="#FFCAF4"/>
<path d="M24.7353 4.67752C25.2159 4.68415 25.4413 4.97732 25.5407 5.18456C25.4655 4.98483 25.2498 4.60136 24.6995 4.59375C24.6995 4.59375 23.4696 4.62519 24.3518 6.64585C23.5397 4.70819 24.7353 4.67752 24.7353 4.67752Z" fill="#FFCAF4"/>
</g>
<path opacity="0.21" d="M24.8651 7.36358C24.9024 7.35161 24.939 7.33975 24.975 7.32778C24.9804 7.32594 24.986 7.3242 24.9914 7.32235C25.0264 7.3106 25.0608 7.29896 25.0946 7.28721C25.1004 7.28525 25.1062 7.28319 25.1119 7.28123C25.1454 7.26948 25.1784 7.25773 25.2107 7.24598C25.2159 7.24413 25.2211 7.24218 25.2262 7.24033C25.2589 7.22836 25.2911 7.21639 25.3225 7.20443C25.3264 7.20301 25.3299 7.2016 25.3338 7.20018C25.3665 7.18767 25.3986 7.17516 25.43 7.16265C25.4311 7.16222 25.4321 7.16178 25.4332 7.16135C25.4646 7.14873 25.4954 7.13622 25.5255 7.1236C25.5279 7.12262 25.5303 7.12164 25.5327 7.12066C25.5621 7.10837 25.5907 7.09608 25.6188 7.08378C25.6227 7.08204 25.6265 7.08041 25.6304 7.07878C25.6576 7.06681 25.6841 7.05496 25.7102 7.04299C25.7146 7.04103 25.7188 7.03907 25.7231 7.03712C25.7488 7.02526 25.774 7.0134 25.7986 7.00155C25.8025 6.9997 25.8064 6.99774 25.8104 6.99589C25.8352 6.98392 25.8595 6.97196 25.8832 6.95999C25.8863 6.95847 25.8893 6.95683 25.8924 6.95531C25.9167 6.94291 25.9408 6.93051 25.964 6.91811C25.9653 6.91745 25.9665 6.91669 25.9679 6.91604C25.9916 6.90342 26.0147 6.8908 26.0374 6.87808C26.0385 6.87753 26.0394 6.87688 26.0405 6.87634C26.0627 6.86394 26.0843 6.85142 26.1055 6.83902C26.108 6.8375 26.1106 6.83608 26.1131 6.83456C26.1333 6.82259 26.1531 6.81063 26.1724 6.79866C26.1753 6.79681 26.1782 6.79507 26.1812 6.79322C26.2001 6.78147 26.2186 6.76961 26.2365 6.75787C26.2394 6.75602 26.2421 6.75428 26.2448 6.75243C26.2629 6.74057 26.2804 6.72872 26.2975 6.71686C26.2996 6.71534 26.3017 6.71381 26.3039 6.7124C26.3214 6.70021 26.3385 6.68803 26.355 6.67595C26.356 6.67519 26.3571 6.67443 26.3581 6.67367C26.3754 6.66094 26.3921 6.64832 26.4083 6.6356L26.4085 6.63548C26.4245 6.62297 26.4401 6.61057 26.4551 6.59806C26.4564 6.59698 26.4577 6.59589 26.459 6.59491C26.4734 6.58305 26.4872 6.5712 26.5007 6.55934C26.5024 6.55782 26.5042 6.5563 26.5059 6.55477C26.5191 6.54313 26.5318 6.5316 26.5441 6.52007C26.5458 6.51844 26.5475 6.51692 26.5491 6.51539C26.5614 6.50375 26.5732 6.49222 26.5847 6.48069C26.586 6.47938 26.5873 6.47797 26.5886 6.47666C26.6002 6.46481 26.6115 6.45306 26.6224 6.44131C26.6231 6.44066 26.6237 6.4399 26.6244 6.43924C26.6379 6.42456 26.6506 6.40998 26.6629 6.39551C26.2197 6.85599 25.2301 7.34998 24.3594 6.6654C24.3835 6.72034 24.4093 6.77669 24.4366 6.83456C24.4372 6.83565 24.4376 6.83674 24.4381 6.83783C24.4649 6.89439 24.4932 6.95238 24.5231 7.01177C24.5243 7.01416 24.5255 7.01666 24.5268 7.01906C24.5412 7.04767 24.5559 7.0765 24.5712 7.10576C24.5731 7.10957 24.5752 7.11337 24.5772 7.11729C24.5913 7.14438 24.6057 7.17179 24.6204 7.19942C24.6219 7.20236 24.6234 7.20529 24.625 7.20823C24.6404 7.23695 24.6561 7.2661 24.6721 7.29548C24.6756 7.30179 24.6791 7.30809 24.6826 7.31451C24.6989 7.34432 24.7155 7.37434 24.7326 7.4048C24.7735 7.39229 24.8135 7.37979 24.8529 7.36728C24.8572 7.36608 24.8612 7.36488 24.8651 7.36358Z" fill="#880000"/>
<path opacity="0.45" d="M26.8264 6.13574C26.8241 6.13922 26.8224 6.14303 26.8214 6.14738C26.8114 6.17023 26.7999 6.1934 26.7871 6.2169C26.8022 6.18948 26.8153 6.16239 26.8264 6.13574Z" fill="#BD0911"/>
<path opacity="0.45" d="M26.6872 6.36621C26.6795 6.37593 26.6713 6.38566 26.6631 6.39549C26.6634 6.39516 26.6637 6.39484 26.6641 6.39441C26.6721 6.38501 26.6797 6.37561 26.6872 6.36621Z" fill="#BD0911"/>
<path opacity="0.45" d="M26.7437 6.28891C26.751 6.27779 26.7581 6.26677 26.7648 6.25586C26.758 6.26677 26.751 6.27789 26.7437 6.28891Z" fill="#BD0911"/>
<path d="M25.2767 5.08488C25.2767 5.08488 25.5226 5.49217 25.6317 5.46813C25.7408 5.44409 26.0366 5.04398 26.4733 5.56342C26.4733 5.56342 26.2711 5.3662 25.8752 5.5644C25.4794 5.76261 25.3564 5.73856 25.1478 5.48499C25.0788 5.40111 25.0108 5.36282 24.945 5.3551C24.6817 5.32399 24.4587 5.80699 24.3045 5.75466C24.1664 5.70777 24.1002 5.20933 24.3571 4.93922C24.3896 4.90506 24.5102 4.78725 24.7015 4.76974C24.922 4.74961 25.144 4.87134 25.2767 5.08488Z" fill="#FFB392"/>
<path opacity="0.83" d="M24.3021 5.13331C24.3211 5.1022 24.4841 4.84384 24.7598 4.83057C25.1049 4.81392 25.3744 5.22708 25.3242 5.31987C25.2867 5.38884 25.0359 5.13212 24.7269 5.19815C24.391 5.26995 24.3304 5.62056 24.2594 5.56932C24.2244 5.54419 24.1757 5.43214 24.3021 5.13331Z" fill="#FF829A"/>
<path opacity="0.8" d="M24.3501 5.10137C24.3699 5.06123 24.4523 4.90589 24.6252 4.85345C24.8431 4.78731 25.065 4.92743 25.0582 4.9605C25.0532 4.98487 24.9252 4.94853 24.7145 5.0051C24.6349 5.02642 24.5673 5.04524 24.4974 5.09822C24.384 5.18394 24.3476 5.2961 24.3275 5.28826C24.3166 5.28402 24.314 5.24671 24.3501 5.10137Z" fill="#FFCAF4"/>
<path opacity="0.58" d="M25.7769 5.41839C25.8068 5.39522 25.9346 5.30145 26.0856 5.32647C26.1855 5.34301 26.2751 5.40817 26.2649 5.43482C26.2548 5.46125 26.1574 5.42176 26.0079 5.4519C25.8325 5.48714 25.7098 5.59288 25.6864 5.56764C25.6847 5.56579 25.6827 5.56231 25.6854 5.54698C25.6971 5.48312 25.7508 5.43765 25.7769 5.41839Z" fill="#FFCAF4"/>
<path opacity="0.32" d="M24.7457 7.23769C24.6906 7.21713 24.645 7.19418 24.6064 7.1709C24.6464 7.24661 24.6887 7.32439 24.7337 7.40457C25.168 7.27196 25.5182 7.13619 25.7997 7.00098C25.7997 7.00098 25.0138 7.33788 24.7457 7.23769Z" fill="#FF9FFF"/>
</g>
<defs>
<clipPath id="clip0_761_8501">
<rect width="50" height="50" fill="white"/>
</clipPath>
</defs>
</svg>
