<svg width="50" height="50" viewBox="0 0 50 50" fill="none" xmlns="http://www.w3.org/2000/svg">
<path d="M43.6396 15.5747C41.3418 10.7441 36.3885 11.9709 36.3796 11.973C36.3813 11.964 37.3449 6.95285 32.3998 4.9132C32.3998 4.9132 22.1322 1.14267 25.1817 23.7783V23.7785L25.1818 23.7784C47.9469 25.6288 43.6396 15.5747 43.6396 15.5747Z" fill="#8D0F0C"/>
<path opacity="0.57" d="M39.5546 21.588C41.7511 20.8474 43.242 19.1685 43.9642 17.3353C43.9526 16.3048 43.6401 15.5745 43.6401 15.5745C41.3422 10.744 36.389 11.9708 36.38 11.9729C36.3807 11.9698 36.4952 11.3735 36.4434 10.5099C36.3625 10.3448 36.3357 10.1383 36.3829 9.91155C36.151 8.28434 35.2722 6.09771 32.4002 4.91308C32.4002 4.91308 24.7055 2.08786 24.6172 16.0147C24.8313 16.3401 25.0737 16.6452 25.3466 16.9239C29.0775 20.7322 34.9961 23.1248 39.5546 21.588Z" fill="#FF7483"/>
<path opacity="0.32" d="M42.5554 16.9291C42.6164 16.6645 42.6355 16.3902 42.6088 16.1197C42.5616 15.641 42.3001 15.1669 42.0501 14.7642C41.6909 14.1859 40.7565 13.3907 40.2852 13.128C39.3799 12.6234 38.2837 12.2594 37.2648 12.077C36.9919 12.0282 36.7157 11.9974 36.4387 11.9851C35.9207 11.9622 35.5043 11.5557 35.4531 11.0398C35.4524 11.0332 35.4518 11.0266 35.4511 11.02C35.4424 10.9353 35.4285 10.8495 35.396 10.7709C35.355 10.672 35.3341 10.5608 35.3382 10.4429C35.3416 10.3431 35.3226 10.2443 35.2986 10.1474C34.9739 8.8425 34.1024 7.15222 31.8326 6.07904C31.8031 6.06511 31.7736 6.05259 31.7431 6.04103C31.1919 5.83368 26.529 4.30258 26.0537 11.6483C26.0888 12.6246 26.5607 15.8858 31.0841 18.604L31.0495 18.6239C33.6057 19.9855 36.7031 21.0654 38.9543 20.4576C39.6191 20.2781 40.473 19.9478 41.0098 19.5176C41.512 19.1152 42.1316 17.9936 42.397 17.4012C42.4649 17.2496 42.518 17.0911 42.5554 16.9291Z" fill="#FF9FFF"/>
<g opacity="0.54">
<path d="M36.3975 12.6269C36.4064 12.6246 41.3596 11.398 43.6575 16.2285C43.6575 16.2285 43.8898 16.7711 43.9613 17.5808C44.0034 16.4226 43.6402 15.5744 43.6402 15.5744C41.5185 11.1141 37.133 11.8181 36.4663 11.954C36.4466 12.3701 36.3979 12.6248 36.3975 12.6269Z" fill="#FF2C90"/>
<path d="M32.4174 5.56728C35.6107 6.88442 36.3399 9.44042 36.4555 11.0886C36.4827 9.555 36.0574 6.42165 32.4001 4.91314C32.4001 4.91314 24.1001 1.86543 24.6416 17.7024C24.3488 2.60511 32.4174 5.56728 32.4174 5.56728Z" fill="#FF2C90"/>
</g>
<path opacity="0.21" d="M26.1748 23.8526C26.4558 23.8718 26.7317 23.8887 27.0041 23.9043C27.0454 23.9067 27.0871 23.909 27.1283 23.9113C27.3933 23.9259 27.654 23.9386 27.911 23.9497C27.9549 23.9516 27.9986 23.9534 28.0423 23.9553C28.2974 23.9657 28.5487 23.9747 28.7959 23.9818C28.8355 23.983 28.8748 23.984 28.9143 23.9851C29.1646 23.9918 29.4115 23.9971 29.6536 24.0004C29.6825 24.0008 29.7109 24.001 29.7398 24.0014C29.9913 24.0044 30.2395 24.006 30.4824 24.0056C30.4907 24.0056 30.4988 24.0055 30.5071 24.0055C30.7506 24.0048 30.9894 24.0023 31.2243 23.9982C31.2429 23.9979 31.2618 23.9977 31.2803 23.9974C31.5088 23.9931 31.7326 23.9869 31.953 23.9795C31.9832 23.9784 32.0138 23.9775 32.0439 23.9764C32.2571 23.9688 32.4661 23.9595 32.6719 23.9488C32.7058 23.9471 32.7399 23.9453 32.7735 23.9435C32.9767 23.9325 33.1763 23.9201 33.3723 23.9064C33.4037 23.9041 33.4349 23.9018 33.4662 23.8996C33.6637 23.8851 33.8578 23.8695 34.048 23.8523C34.0728 23.85 34.0971 23.8476 34.1218 23.8453C34.3178 23.8272 34.5107 23.8078 34.6993 23.7868C34.7096 23.7857 34.7197 23.7844 34.7299 23.7832C34.9221 23.7616 35.1105 23.7385 35.295 23.7141C35.3034 23.713 35.312 23.712 35.3205 23.7109C35.5018 23.6866 35.6788 23.6608 35.8529 23.6339C35.8736 23.6306 35.8946 23.6276 35.9152 23.6244C36.0824 23.5981 36.2458 23.5705 36.4062 23.5419C36.4305 23.5375 36.4549 23.5332 36.4791 23.5288C36.6367 23.5001 36.7912 23.4703 36.9425 23.4394C36.9658 23.4346 36.9891 23.4298 37.0124 23.4249C37.1641 23.3934 37.313 23.3609 37.4585 23.3271C37.477 23.3227 37.4951 23.3184 37.5136 23.3141C37.6628 23.279 37.8094 23.243 37.9519 23.2058C37.9608 23.2035 37.9694 23.201 37.9783 23.1988C38.1273 23.1596 38.2731 23.1194 38.415 23.0779C38.4156 23.0778 38.4161 23.0776 38.4168 23.0775C38.557 23.0364 38.6933 22.9942 38.8268 22.9511C38.8383 22.9474 38.8498 22.9438 38.8612 22.9401C38.9885 22.8986 39.1125 22.8561 39.2338 22.8127C39.2493 22.8071 39.265 22.8016 39.2804 22.796C39.399 22.7532 39.5146 22.7094 39.6273 22.6649C39.6428 22.6589 39.6581 22.6527 39.6734 22.6467C39.7861 22.6017 39.896 22.5559 40.003 22.5094C40.0156 22.5039 40.0279 22.4985 40.0403 22.493C40.1496 22.4449 40.2564 22.3962 40.3599 22.3466C40.366 22.3437 40.372 22.3407 40.3781 22.3377C40.5072 22.2756 40.6307 22.212 40.7511 22.1475C36.5703 24.0496 28.6503 24.729 24.6465 17.8486C24.6626 18.2797 24.6853 18.7246 24.7146 19.1836C24.7152 19.1921 24.7157 19.2007 24.7163 19.2092C24.7452 19.6578 24.7808 20.1205 24.823 20.5967C24.8248 20.6162 24.8264 20.6356 24.8281 20.6552C24.8486 20.8841 24.8709 21.1165 24.8946 21.352C24.8977 21.3826 24.9009 21.4138 24.904 21.4446C24.9263 21.663 24.95 21.884 24.9751 22.108C24.9778 22.1318 24.9803 22.1554 24.983 22.1792C25.0094 22.412 25.0374 22.6485 25.0668 22.8874C25.0731 22.9387 25.0796 22.9904 25.086 23.042C25.1164 23.2846 25.1477 23.5292 25.1813 23.7782V23.7784L25.1814 23.7783C25.4878 23.8032 25.7883 23.8255 26.0851 23.8461C26.1149 23.8484 26.1452 23.8506 26.1748 23.8526Z" fill="#880000"/>
<path opacity="0.45" d="M42.5308 20.8467C42.5064 20.8636 42.4846 20.8844 42.4668 20.9115C42.3396 21.0375 42.2019 21.1621 42.0537 21.2848C42.2273 21.1412 42.3859 20.995 42.5308 20.8467Z" fill="#BD0911"/>
<path opacity="0.45" d="M40.9914 22.0156C40.9136 22.0603 40.8327 22.1043 40.751 22.1479C40.7541 22.1465 40.7573 22.145 40.7605 22.1436C40.8392 22.1014 40.9163 22.0588 40.9914 22.0156Z" fill="#BD0911"/>
<path d="M34.9575 9.72406C34.9575 9.72406 35.521 13.0967 36.3134 13.2251C37.1058 13.3535 40.1425 11.4639 41.6836 16.0913C41.6836 16.0913 40.8553 14.2382 37.6854 14.5138C34.5154 14.7894 33.7583 14.3034 33.036 12.0565C32.7971 11.3135 32.4447 10.878 32.0251 10.6515C30.3482 9.74652 27.5791 12.3821 26.6873 11.624C25.8888 10.9451 26.7669 7.4398 29.1986 6.31511C29.5063 6.17276 30.6243 5.70535 31.9483 6.09511C33.4756 6.5446 34.6363 7.94608 34.9575 9.72406Z" fill="#FFB392"/>
<path opacity="0.83" d="M28.3166 7.46475C28.5258 7.30718 30.2992 6.01326 32.1763 6.65487C34.5254 7.45795 35.2326 10.932 34.6503 11.4185C34.2174 11.7801 33.222 9.40007 30.9825 9.02305C28.5479 8.61309 27.2145 10.7943 26.8751 10.2644C26.7082 10.0037 26.6802 9.12619 28.3166 7.46475Z" fill="#FF829A"/>
<path opacity="0.58" d="M29.6004 6.77437C29.8955 6.64574 31.0682 6.17433 32.2602 6.68678C33.7637 7.33315 34.3339 9.13035 34.1433 9.28068C34.0033 9.39116 33.4685 8.59911 32.0485 7.9333C31.5121 7.68178 31.0539 7.47236 30.4238 7.43899C29.4037 7.38499 28.6844 7.83231 28.6101 7.6958C28.5702 7.62269 28.7289 7.40572 29.6004 6.77437Z" fill="#FFCAF4"/>
<path opacity="0.42" d="M37.4154 13.2747C37.6768 13.1995 38.7792 12.9114 39.7217 13.4787C40.3446 13.8537 40.7712 14.5263 40.6328 14.6773C40.4956 14.8268 39.9494 14.3055 38.87 14.1103C37.605 13.8813 36.5051 14.2625 36.4158 14.0322C36.4092 14.0153 36.4049 13.9868 36.4643 13.8915C36.7105 13.4953 37.1901 13.3346 37.4154 13.2747Z" fill="#FFCAF4"/>
<path opacity="0.32" d="M25.7034 22.6952C25.39 22.4118 25.1456 22.1379 24.9502 21.8799C25.0167 22.4913 25.0933 23.1231 25.1815 23.778V23.7782L25.1816 23.7781C28.4343 24.0424 31.1334 24.0635 33.3722 23.9058C33.3723 23.9059 27.2294 24.0752 25.7034 22.6952Z" fill="#FF9FFF"/>
<path d="M41.5022 7.58265C37.8358 3.68749 33.4959 6.37157 33.488 6.37643C33.487 6.36725 32.8702 1.30181 27.5381 0.873816C27.5381 0.873816 16.6093 0.427356 26.4415 21.0429L26.4414 21.0431L26.4415 21.0432L26.4416 21.0431C48.6805 15.8356 41.5022 7.58265 41.5022 7.58265Z" fill="#AB0F0F"/>
<path opacity="0.57" d="M39.4541 14.5581C41.3185 13.1808 42.2239 11.1261 42.3502 9.15975C42.0239 8.18226 41.5027 7.58265 41.5027 7.58265C37.8363 3.68748 33.4964 6.37157 33.4885 6.37643C33.4881 6.37329 33.4148 5.77055 33.101 4.96424C32.9735 4.83194 32.8848 4.6436 32.8603 4.41313C32.1415 2.93507 30.6355 1.12232 27.5387 0.873813C27.5387 0.873813 19.3486 0.539777 23.5278 13.825C23.8313 14.0692 24.1554 14.2856 24.5005 14.4672C29.2181 16.9507 35.585 17.4166 39.4541 14.5581Z" fill="#FF7483"/>
<path opacity="0.32" d="M40.8849 9.20348C40.862 8.93284 40.7962 8.66587 40.688 8.41661C40.4965 7.97533 40.1023 7.60392 39.7411 7.29721C39.2221 6.85658 38.0891 6.38559 37.5599 6.27976C36.5437 6.0765 35.3887 6.0657 34.3628 6.20383C34.088 6.24088 33.8156 6.29617 33.5482 6.36928C33.0481 6.50601 32.5272 6.2466 32.3205 5.77109C32.3178 5.76504 32.3152 5.75888 32.3125 5.75283C32.2783 5.67486 32.2389 5.59754 32.1839 5.53263C32.1147 5.45098 32.0607 5.35162 32.0285 5.23811C32.0013 5.14199 31.9529 5.05377 31.9003 4.96899C31.1917 3.82605 29.8447 2.48363 27.3553 2.15694C27.3229 2.15273 27.2911 2.14981 27.2584 2.14819C26.6703 2.11946 21.7625 2.08922 23.5586 9.22778C23.8909 10.1465 25.3384 13.1067 30.4769 14.3096L30.4499 14.3392C33.3003 14.853 36.5794 14.9329 38.5366 13.6651C39.1146 13.2907 39.8263 12.7149 40.2057 12.141C40.5605 11.6042 40.807 10.3469 40.8785 9.70168C40.8969 9.53644 40.8989 9.36926 40.8849 9.20348Z" fill="#FF9FFF"/>
<g opacity="0.54">
<path d="M33.7054 6.99409C33.7133 6.98923 38.0532 4.30515 41.7195 8.20031C41.7195 8.20031 42.1068 8.6458 42.4227 9.39466C42.1082 8.27915 41.5028 7.58289 41.5028 7.58289C38.1175 3.98623 34.1582 5.99888 33.5649 6.33238C33.6736 6.73456 33.7051 6.99204 33.7054 6.99409Z" fill="#FF2C90"/>
<path d="M27.7555 1.49124C31.1988 1.76761 32.6754 3.97757 33.29 5.51136C32.8465 4.04313 31.4824 1.19036 27.5389 0.873814C27.5389 0.873814 18.7044 0.513216 24.0678 15.4241C19.1675 1.14133 27.7555 1.49124 27.7555 1.49124Z" fill="#FF2C90"/>
</g>
<path opacity="0.21" d="M27.4102 20.8098C27.6835 20.7421 27.9514 20.6738 28.2155 20.6051C28.2556 20.5946 28.2961 20.5843 28.3359 20.5738C28.5927 20.5065 28.8448 20.4388 29.0928 20.3707C29.1351 20.3591 29.1773 20.3475 29.2193 20.3359C29.4654 20.2678 29.7074 20.1993 29.9449 20.1305C29.983 20.1194 30.0207 20.1083 30.0586 20.0972C30.2989 20.027 30.5355 19.9565 30.7671 19.8855C30.7947 19.877 30.8218 19.8686 30.8494 19.86C31.0898 19.7859 31.3265 19.7115 31.5576 19.6367C31.5655 19.6341 31.5732 19.6315 31.581 19.629C31.8127 19.5538 32.0392 19.4784 32.2617 19.4026C32.2793 19.3966 32.2972 19.3906 32.3147 19.3846C32.5309 19.3106 32.742 19.2362 32.9496 19.1616C32.9781 19.1513 33.0069 19.1412 33.0352 19.1309C33.2358 19.0584 33.4319 18.9855 33.6246 18.9124C33.6563 18.9004 33.6882 18.8884 33.7197 18.8763C33.9097 18.8036 34.096 18.7307 34.2784 18.6576C34.3077 18.6458 34.3367 18.634 34.3658 18.6224C34.5493 18.5482 34.7293 18.4739 34.9051 18.3992C34.928 18.3895 34.9504 18.3798 34.9732 18.3701C35.1542 18.2928 35.3319 18.2153 35.5049 18.1377C35.5144 18.1335 35.5236 18.1291 35.5331 18.1248C35.7095 18.0454 35.8817 17.9659 36.0499 17.886C36.0576 17.8824 36.0656 17.8787 36.0732 17.8751C36.2385 17.7965 36.399 17.7178 36.5565 17.6388C36.5752 17.6294 36.5943 17.62 36.6129 17.6107C36.764 17.5346 36.9111 17.4583 37.055 17.3819C37.0768 17.3703 37.0988 17.3588 37.1205 17.3471C37.2619 17.2715 37.3998 17.1959 37.5343 17.1201C37.5552 17.1085 37.5758 17.0967 37.5964 17.085C37.7313 17.0086 37.8631 16.932 37.9912 16.8554C38.0075 16.8457 38.0235 16.8359 38.0396 16.8261C38.171 16.7471 38.2995 16.6679 38.4238 16.5889C38.4316 16.5839 38.439 16.579 38.4467 16.5741C38.5766 16.4911 38.7031 16.4083 38.8255 16.3254C38.826 16.325 38.8265 16.3247 38.8269 16.3244C38.9479 16.2424 39.0648 16.1604 39.1786 16.0786C39.1883 16.0716 39.1983 16.0645 39.208 16.0576C39.3165 15.9791 39.4215 15.9007 39.5238 15.8223C39.5368 15.8123 39.5501 15.8022 39.5631 15.7922C39.6627 15.7151 39.7594 15.6381 39.8533 15.5612C39.8661 15.5507 39.8789 15.5401 39.8915 15.5296C39.9849 15.4523 40.0756 15.3752 40.1632 15.2981C40.1735 15.289 40.1835 15.2801 40.1937 15.271C40.283 15.1918 40.3697 15.1128 40.4531 15.0339C40.458 15.0292 40.4628 15.0245 40.4678 15.0199C40.5717 14.9212 40.6698 14.8228 40.7646 14.7246C37.3668 17.8152 30.0349 20.8865 24.1172 15.562C24.2645 15.9673 24.4222 16.3841 24.5907 16.812C24.5938 16.82 24.5969 16.8279 24.6001 16.8359C24.765 17.2541 24.9405 17.6837 25.1264 18.1241C25.1341 18.1422 25.1416 18.1601 25.1492 18.1783C25.2389 18.39 25.3311 18.6044 25.4258 18.8213C25.4381 18.8496 25.4507 18.8782 25.4633 18.9065C25.5514 19.1075 25.6415 19.3108 25.7339 19.5163C25.7438 19.5382 25.7534 19.5598 25.7632 19.5817C25.8595 19.7952 25.9587 20.0118 26.0598 20.2301C26.0815 20.2771 26.1035 20.3243 26.1254 20.3715C26.2286 20.5931 26.3333 20.8165 26.4414 21.0431L26.4413 21.0434C26.4413 21.0434 26.4414 21.0435 26.4415 21.0435L26.4416 21.0433C26.741 20.9732 27.0339 20.9024 27.3227 20.8313C27.3519 20.8239 27.3813 20.8169 27.4102 20.8098Z" fill="#880000"/>
<path opacity="0.45" d="M42.0607 12.9414C42.0427 12.9649 42.0282 12.9915 42.0197 13.0226C41.9372 13.1816 41.8442 13.3424 41.7407 13.5046C41.8619 13.3148 41.9681 13.1269 42.0607 12.9414Z" fill="#BD0911"/>
<path opacity="0.45" d="M40.953 14.5254C40.8926 14.5917 40.829 14.6583 40.7646 14.725C40.7672 14.7226 40.7698 14.7203 40.7723 14.7179C40.8343 14.6537 40.8947 14.5894 40.953 14.5254Z" fill="#BD0911"/>
<path opacity="0.45" d="M41.189 14.255C41.2533 14.1779 41.315 14.1011 41.3742 14.0244C41.3149 14.1011 41.2533 14.1779 41.189 14.255Z" fill="#BD0911"/>
<path d="M31.4455 4.67053C31.4455 4.67053 33.0145 7.70883 33.8081 7.58842C34.6017 7.468 36.9142 4.73955 39.798 8.67305C39.798 8.67305 38.4422 7.16237 35.5089 8.39517C32.5755 9.62797 31.7058 9.39706 30.3304 7.47913C29.8755 6.84485 29.4068 6.53815 28.9379 6.4511C27.0645 6.10281 25.2351 9.45959 24.1541 9.01075C23.1861 8.60889 22.9489 5.00316 24.9197 3.18804C25.169 2.95843 26.0901 2.17114 27.47 2.1369C29.0616 2.09727 30.5956 3.07626 31.4455 4.67053Z" fill="#FFB392"/>
<path opacity="0.83" d="M24.4322 4.55267C24.5831 4.33861 25.8753 2.56387 27.8588 2.60016C30.341 2.64552 32.0776 5.73642 31.6723 6.37772C31.3709 6.85464 29.6947 4.8935 27.4472 5.22009C25.004 5.57508 24.4023 8.05978 23.9171 7.65922C23.6783 7.46212 23.3829 6.63541 24.4322 4.55267Z" fill="#FF829A"/>
<path opacity="0.58" d="M24.636 4.68679C24.7779 4.3979 25.3679 3.28012 26.6086 2.9004C28.1735 2.42153 29.7704 3.42398 29.7223 3.66189C29.6868 3.83674 28.7668 3.57819 27.253 3.98826C26.6812 4.14313 26.1962 4.27953 25.6939 4.66152C24.8808 5.27981 24.6212 6.08612 24.4763 6.03007C24.3984 6.00005 24.3792 5.73189 24.636 4.68679Z" fill="#FFCAF4"/>
<path opacity="0.42" d="M34.4341 7.34715C34.6599 7.19552 35.6212 6.58382 36.6921 6.83535C37.4 7.00166 38.0119 7.5113 37.9264 7.69748C37.8416 7.88194 37.162 7.55288 36.0747 7.69727C34.8003 7.86661 33.8699 8.56622 33.7144 8.3742C33.7029 8.36016 33.6902 8.33435 33.7174 8.22538C33.8306 7.77298 34.2379 7.47318 34.4341 7.34715Z" fill="#FFCAF4"/>
<path opacity="0.32" d="M26.6072 19.852C26.2222 19.6781 25.9055 19.4923 25.6406 19.3065C25.8911 19.8682 26.1574 20.4462 26.4419 21.0427L26.4418 21.0429L26.4419 21.043L26.442 21.0429C29.6194 20.2989 32.1954 19.4927 34.2784 18.6572C34.2785 18.657 28.4824 20.6986 26.6072 19.852Z" fill="#FF9FFF"/>
<path d="M20.7777 4.27722C14.3793 4.0271 12.9254 9.96008 12.9227 9.97077C12.914 9.96386 8.13761 6.15606 3.22575 10.2641C3.22575 10.2641 -6.48056 19.0519 19.2108 28.4058L19.2109 28.406L19.211 28.4059H19.2112L19.2111 28.4057C33.831 5.30179 20.7777 4.27722 20.7777 4.27722Z" fill="#BA0F37"/>
<path opacity="0.57" d="M24.8805 11.952C25.3168 9.21176 24.366 6.69766 22.8243 4.91278C21.7254 4.35195 20.7774 4.27722 20.7774 4.27722C14.379 4.0271 12.9251 9.96008 12.9224 9.97077C12.9194 9.96839 12.3511 9.51534 11.4067 9.09004C11.1868 9.084 10.953 8.99759 10.7388 8.82145C8.88491 8.16255 6.07815 7.87819 3.22538 10.2641C3.22538 10.2641 -4.04818 16.8501 10.6663 24.6878C11.1304 24.6416 11.5885 24.5545 12.0356 24.42C18.1475 22.5827 23.9749 17.6388 24.8805 11.952Z" fill="#FF7483"/>
<path opacity="0.32" d="M21.6104 6.17985C21.3639 5.96796 21.0836 5.79516 20.7823 5.67313C20.2486 5.45702 19.6005 5.47064 19.0347 5.51179C18.2219 5.57097 16.8594 6.11927 16.3187 6.47285C15.2804 7.15184 14.2851 8.11162 13.5251 9.09041C13.3216 9.35252 13.1355 9.62824 12.9684 9.91497C12.6561 10.4513 11.9936 10.6667 11.4182 10.4341C11.4109 10.4312 11.4035 10.4282 11.3961 10.4252C11.3015 10.3872 11.2029 10.3543 11.1015 10.345C10.9738 10.3334 10.8443 10.2938 10.7216 10.224C10.6177 10.1648 10.5025 10.13 10.3863 10.1017C8.82236 9.72025 6.54599 9.70416 4.14627 11.5138C4.11506 11.5373 4.08536 11.5616 4.0562 11.5876C3.52982 12.0566 -0.685992 16.1483 6.83672 20.7367C7.89121 21.2423 11.6108 22.5556 17.0075 19.2718L17.0093 19.3196C19.874 17.3669 22.7412 14.684 23.3486 11.9595C23.528 11.1549 23.6528 10.0662 23.4952 9.2578C23.3478 8.5017 22.5034 7.22129 22.0231 6.61045C21.9 6.45407 21.7615 6.30967 21.6104 6.17985Z" fill="#FF9FFF"/>
<g opacity="0.54">
<path opacity="0.62" d="M13.6254 10.3163C13.628 10.3056 15.0819 4.37258 21.4803 4.6227C21.4803 4.6227 22.1847 4.67821 23.0828 5.05253C21.8784 4.36383 20.7772 4.27722 20.7772 4.27722C14.8692 4.04632 13.1769 9.08658 12.9502 9.86914C13.3805 10.1213 13.6235 10.3146 13.6254 10.3163Z" fill="#FF2C90"/>
<path opacity="0.62" d="M3.92854 10.6097C7.10055 7.9568 10.2154 8.60512 12.027 9.39901C10.4164 8.51742 6.85831 7.22598 3.22558 10.2642C3.22558 10.2642 -4.62047 17.3681 12.469 25.6002C-3.69806 17.5159 3.92854 10.6097 3.92854 10.6097Z" fill="#FF2C90"/>
</g>
<path opacity="0.21" d="M19.8423 27.3945C20.0189 27.1073 20.1904 26.8243 20.3582 26.5441C20.3837 26.5016 20.4095 26.4588 20.4348 26.4164C20.5976 26.1435 20.7561 25.8741 20.9107 25.608C20.9371 25.5625 20.9634 25.5172 20.9896 25.4719C21.1426 25.2073 21.2918 24.9459 21.4367 24.6879C21.46 24.6464 21.4829 24.6054 21.5059 24.5641C21.6521 24.3025 21.795 24.0439 21.9333 23.789C21.9498 23.7585 21.9658 23.7285 21.9822 23.6982C22.1253 23.4331 22.265 23.171 22.3996 22.9132C22.4042 22.9044 22.4086 22.8957 22.4132 22.887C22.548 22.6286 22.678 22.374 22.8043 22.1226C22.8142 22.1027 22.8246 22.0826 22.8345 22.0628C22.957 21.8181 23.0749 21.5775 23.1896 21.3396C23.2054 21.307 23.2214 21.274 23.2369 21.2415C23.3473 21.0113 23.4537 20.7845 23.5568 20.5605C23.5739 20.5236 23.5908 20.4866 23.6077 20.4498C23.709 20.2283 23.8068 20.0098 23.9012 19.7944C23.9163 19.7598 23.9312 19.7254 23.9462 19.691C24.0407 19.4737 24.1321 19.2592 24.2197 19.048C24.231 19.0205 24.242 18.9933 24.2534 18.966C24.3431 18.7482 24.43 18.5328 24.5125 18.3214C24.517 18.3097 24.5212 18.2984 24.5257 18.2868C24.6097 18.071 24.69 17.8586 24.7666 17.6494C24.77 17.6398 24.7738 17.6301 24.7773 17.6206C24.8524 17.4148 24.9235 17.2128 24.9918 17.0133C24.9999 16.9897 25.0083 16.9656 25.0163 16.942C25.0814 16.7502 25.143 16.5617 25.2018 16.3757C25.2108 16.3475 25.2198 16.3192 25.2285 16.2911C25.2857 16.1081 25.3401 15.9277 25.3915 15.7502C25.3995 15.7227 25.4072 15.6954 25.415 15.6681C25.466 15.4897 25.5143 15.3137 25.5594 15.1408C25.5651 15.1188 25.5706 15.0971 25.5763 15.0752C25.622 14.8974 25.6653 14.7221 25.7052 14.5502C25.7077 14.5395 25.71 14.529 25.7123 14.5183C25.7537 14.3386 25.7921 14.1616 25.8271 13.9881C25.8272 13.9874 25.8275 13.9867 25.8276 13.986C25.8621 13.8145 25.8931 13.6466 25.9216 13.481C25.9241 13.4669 25.9267 13.4525 25.9291 13.4385C25.956 13.2804 25.9797 13.1253 26.0012 12.9726C26.004 12.953 26.0068 12.9334 26.0095 12.9139C26.0301 12.7644 26.048 12.6176 26.0635 12.4733C26.0657 12.4535 26.0677 12.4339 26.0698 12.4142C26.0847 12.2698 26.0975 12.1278 26.1076 11.9885C26.1088 11.9722 26.1098 11.9561 26.1109 11.9398C26.1208 11.7972 26.1286 11.6569 26.1335 11.5197C26.1338 11.5115 26.134 11.5035 26.1343 11.4954C26.1402 11.324 26.1414 11.1576 26.1401 10.9941C25.8318 16.4838 22.148 25.2575 12.6279 25.6759C13.0937 25.8985 13.5781 26.122 14.0809 26.3461C14.0903 26.3503 14.0996 26.3544 14.109 26.3586C14.6007 26.5774 15.1109 26.7968 15.6392 27.0168C15.661 27.0259 15.6824 27.0349 15.7041 27.0439C15.9583 27.1496 16.217 27.2552 16.4798 27.361C16.514 27.3748 16.5489 27.3887 16.5833 27.4024C16.8271 27.5001 17.0745 27.598 17.3259 27.6959C17.3527 27.7064 17.379 27.7168 17.406 27.7273C17.6673 27.8288 17.9337 27.9304 18.2032 28.0321C18.2611 28.054 18.3195 28.0759 18.3778 28.0977C18.6518 28.2004 18.9286 28.3032 19.2112 28.406L19.2113 28.4062L19.2114 28.4061H19.2116L19.2115 28.4059C19.4083 28.0949 19.5991 27.7887 19.7859 27.4857C19.8045 27.4555 19.8237 27.4247 19.8423 27.3945Z" fill="#880000"/>
<path opacity="0.45" d="M25.7505 8.38477C25.7549 8.42008 25.7647 8.45475 25.7835 8.48866C25.8465 8.69364 25.902 8.90887 25.9496 9.13427C25.8939 8.87032 25.827 8.62085 25.7505 8.38477Z" fill="#BD0911"/>
<path opacity="0.45" d="M26.1333 10.666C26.1374 10.7734 26.139 10.8835 26.1399 10.9944C26.1401 10.9903 26.1403 10.9861 26.1405 10.982C26.1397 10.875 26.1373 10.7696 26.1333 10.666Z" fill="#BD0911"/>
<path opacity="0.45" d="M26.0681 9.84726C26.0539 9.73278 26.0379 9.62058 26.02 9.51074C26.0379 9.62047 26.0539 9.73267 26.0681 9.84726Z" fill="#BD0911"/>
<path opacity="0.45" d="M26.1076 10.2379C26.0979 10.1182 26.086 10.0008 26.0723 9.88574C26.0861 10.0008 26.0979 10.1181 26.1076 10.2379Z" fill="#BD0911"/>
<path d="M9.74749 10.2286C9.74749 10.2286 13.6362 11.5065 14.2129 10.7379C14.7896 9.96928 15.7838 4.48437 20.7883 6.36646C20.7883 6.36646 17.8123 6.48634 16.3419 10.0001C14.8716 13.5138 13.9352 14.0462 11.1517 13.5625C10.2311 13.4025 9.57361 13.534 9.10025 13.8529C7.20845 15.1273 8.46252 19.5283 7.16298 20.0521C5.99931 20.521 2.77167 17.6411 2.93151 14.4379C2.95171 14.0326 3.07785 12.5876 4.22738 11.4006C5.55306 10.0315 7.68419 9.58048 9.74749 10.2286Z" fill="#FFB392"/>
<path opacity="0.83" d="M3.6607 16.0114C3.60994 15.7021 3.22438 13.1026 4.94846 11.4695C7.10594 9.42572 11.1821 10.608 11.3739 11.4955C11.5166 12.1556 8.44004 11.8874 6.79502 14.0517C5.00668 16.4047 6.57751 19.0311 5.82703 19.0961C5.45778 19.1283 4.51205 18.6701 3.6607 16.0114Z" fill="#FF829A"/>
<path opacity="0.8" d="M3.98926 13.5764C4.06918 13.1995 4.42536 11.729 5.75352 10.924C7.42889 9.9085 9.57654 10.6027 9.59047 10.893C9.60073 11.1064 8.45703 11.0765 6.82086 11.9972C6.20278 12.3449 5.68009 12.6457 5.20943 13.2365C4.4475 14.1928 4.38302 15.2047 4.19835 15.1823C4.09942 15.1702 3.99833 14.8646 3.98926 13.5764Z" fill="#FFCAF4"/>
<path opacity="0.58" d="M16.1162 7.47775C16.3024 7.21078 17.11 6.11146 18.414 5.92797C19.2759 5.80669 20.1797 6.11028 20.165 6.355C20.1503 6.59757 19.2494 6.52488 18.0986 7.15742C16.7501 7.89872 16.015 9.0826 15.7583 8.93583C15.7395 8.92514 15.714 8.90191 15.6972 8.76843C15.6274 8.2145 15.9522 7.70336 16.1162 7.47775Z" fill="#FFCAF4"/>
<path opacity="0.32" d="M18.3533 27.2513C17.8787 27.4259 17.4524 27.5328 17.0703 27.5965C17.7555 27.8659 18.4678 28.136 19.2111 28.4067L19.2112 28.4069L19.2113 28.4068H19.2114L19.2113 28.4066C21.3002 25.1055 22.8233 22.256 23.9011 19.7949C23.9011 19.7949 20.6647 26.4009 18.3533 27.2513Z" fill="#FF9FFF"/>
<path d="M36.1222 12.9592C29.5449 8.89537 24.4922 14.2682 24.483 14.2779C24.4781 14.2655 21.7193 7.42541 14.1157 8.82571C14.1157 8.82571 -1.30775 12.2971 20.1415 37.3916V37.3918L20.1417 37.3917L20.1418 37.3919V37.3916C49.2348 21.7906 36.1222 12.9592 36.1222 12.9592Z" fill="#D41636"/>
<path opacity="0.57" d="M35.8759 23.4642C37.9624 20.843 38.4564 17.6355 37.8961 14.8433C37.0742 13.601 36.122 12.9592 36.122 12.9592C29.5447 8.89528 24.492 14.2682 24.4828 14.2779C24.4811 14.2736 24.1528 13.4598 23.4128 12.4517C23.1852 12.3147 22.9908 12.085 22.8703 11.7726C21.313 9.97862 18.5316 8.01241 14.1156 8.82574C14.1156 8.82574 2.5574 11.4278 13.3689 28.4078C13.884 28.6351 14.4174 28.8155 14.9673 28.9398C22.4833 30.6392 31.5457 28.9041 35.8759 23.4642Z" fill="#FF7483"/>
<path opacity="0.32" d="M35.8678 15.4533C35.7344 15.084 35.5426 14.7359 35.2982 14.4287C34.8656 13.8844 34.1762 13.5137 33.557 13.2209C32.6674 12.8003 30.9094 12.5673 30.1311 12.6178C28.6364 12.7148 27.02 13.1324 25.6396 13.7096C25.27 13.8643 24.9106 14.0434 24.5646 14.2457C23.9177 14.6239 23.0934 14.457 22.6267 13.8705C22.6208 13.8631 22.6147 13.8555 22.6088 13.8481C22.5319 13.7521 22.4478 13.6589 22.3467 13.5889C22.2195 13.5009 22.1068 13.3824 22.0193 13.2359C21.9452 13.1121 21.8447 13.007 21.7395 12.9083C20.3222 11.5783 17.9388 10.2091 14.3413 10.6857C14.2946 10.6918 14.2489 10.6997 14.2028 10.7098C13.3709 10.89 6.50866 12.6867 11.6905 21.9788C12.4986 23.1368 15.6283 26.7268 23.2519 26.4808L23.2253 26.5321C27.3968 26.1813 32.0043 25.0643 34.2614 22.5612C34.928 21.8221 35.7058 20.7516 36.0204 19.8084C36.3146 18.926 36.1877 17.0784 36.0457 16.151C36.0092 15.9134 35.9495 15.6794 35.8678 15.4533Z" fill="#FF9FFF"/>
<g opacity="0.75">
<path opacity="0.81" d="M25.017 15.0584C25.0261 15.0487 30.0788 9.6758 36.6561 13.7398C36.6561 13.7398 37.3636 14.2166 38.0853 15.1436C37.2283 13.7042 36.1223 12.959 36.1223 12.959C30.0491 9.20666 25.276 13.4996 24.5728 14.1874C24.8754 14.708 25.0159 15.0556 25.017 15.0584Z" fill="#FFCAF4"/>
<path opacity="0.81" d="M14.6497 9.60636C19.5599 8.70209 22.4491 11.2339 23.8817 13.1447C22.7124 11.2613 19.7394 7.79005 14.1158 8.82575C14.1158 8.82575 1.64824 11.6323 14.7219 30.4375C2.53015 12.3354 14.6497 9.60636 14.6497 9.60636Z" fill="#FFCAF4"/>
</g>
<path opacity="0.21" d="M21.4056 36.7033C21.7619 36.5063 22.1103 36.3108 22.4531 36.1159C22.5051 36.0863 22.5577 36.0566 22.6094 36.0272C22.9427 35.8371 23.2692 35.6481 23.59 35.4602C23.6447 35.4281 23.6993 35.396 23.7537 35.364C24.0716 35.1768 24.3837 34.9906 24.6895 34.8055C24.7385 34.7758 24.7871 34.7461 24.8358 34.7165C25.1449 34.5285 25.4488 34.3413 25.7455 34.1555C25.7809 34.1333 25.8156 34.1113 25.8508 34.0891C26.1587 33.8956 26.4612 33.703 26.7558 33.512C26.766 33.5054 26.7757 33.4989 26.7857 33.4924C27.0809 33.3009 27.3688 33.1104 27.6509 32.9213C27.6731 32.9064 27.696 32.8913 27.7182 32.8764C27.9923 32.6921 28.2591 32.5092 28.5209 32.3272C28.5569 32.3023 28.5933 32.2772 28.6289 32.2523C28.8818 32.0758 29.1282 31.9007 29.3698 31.7265C29.4096 31.6977 29.4495 31.669 29.489 31.6403C29.7271 31.4676 29.9597 31.2961 30.1869 31.1257C30.2234 31.0983 30.2595 31.071 30.2957 31.0437C30.524 30.8714 30.7475 30.7003 30.965 30.5303C30.9933 30.5081 31.021 30.4861 31.0492 30.4641C31.2729 30.2884 31.4921 30.1136 31.7045 29.9404C31.7162 29.9309 31.7274 29.9215 31.739 29.912C31.9554 29.7351 32.166 29.5594 32.3708 29.3851C32.3802 29.3771 32.39 29.3691 32.3993 29.3611C32.6005 29.1895 32.7952 29.0193 32.9855 28.8501C33.0081 28.83 33.0311 28.8099 33.0536 28.7898C33.2359 28.6268 33.4127 28.4652 33.5851 28.3046C33.6112 28.2802 33.6374 28.2559 33.6634 28.2316C33.8324 28.0732 33.9965 27.9159 34.1561 27.7598C34.1807 27.7357 34.2051 27.7116 34.2295 27.6876C34.3891 27.5302 34.5444 27.374 34.6945 27.219C34.7136 27.1993 34.7322 27.1797 34.7512 27.1601C34.905 27.0005 35.0547 26.8419 35.1987 26.6849C35.2076 26.675 35.2162 26.6654 35.2251 26.6556C35.3754 26.4912 35.5209 26.3281 35.6608 26.1664C35.6613 26.1658 35.6619 26.1651 35.6624 26.1645C35.8005 26.0047 35.9329 25.8465 36.0612 25.6895C36.0722 25.6761 36.0835 25.6626 36.0944 25.6492C36.2165 25.499 36.3336 25.3502 36.447 25.2024C36.4615 25.1835 36.4762 25.1645 36.4905 25.1457C36.6009 25.0008 36.707 24.857 36.809 24.7146C36.823 24.6951 36.8369 24.6757 36.8506 24.6561C36.9521 24.5133 37.0498 24.3716 37.1433 24.2311C37.1542 24.2146 37.1649 24.1983 37.1757 24.1818C37.2707 24.0378 37.3622 23.895 37.449 23.7536C37.4542 23.7452 37.4591 23.7369 37.4642 23.7284C37.5722 23.5517 37.6725 23.3777 37.7681 23.2051C34.1827 28.7925 25.0985 35.8268 14.8428 30.6112C15.2002 31.1219 15.5766 31.6444 15.9721 32.1787C15.9794 32.1887 15.9868 32.1986 15.9941 32.2085C16.381 32.7306 16.7869 33.2645 17.2116 33.8095C17.2291 33.832 17.2463 33.8542 17.2638 33.8766C17.4682 34.1385 17.6773 34.4033 17.8908 34.6706C17.9187 34.7055 17.947 34.7406 17.975 34.7756C18.1733 35.0232 18.3753 35.273 18.5813 35.5253C18.6033 35.5522 18.6248 35.5787 18.6468 35.6057C18.8613 35.8677 19.0808 36.1328 19.3037 36.3998C19.3517 36.4572 19.4 36.5149 19.4484 36.5725C19.6754 36.8433 19.9053 37.1158 20.1411 37.3917V37.3919L20.1414 37.3918L20.1415 37.392V37.3917C20.5331 37.1817 20.9155 36.9732 21.292 36.7656C21.3297 36.745 21.3681 36.7241 21.4056 36.7033Z" fill="#880000"/>
<path opacity="0.45" d="M38.9086 20.2305C38.8923 20.2701 38.8819 20.3125 38.8817 20.3593C38.826 20.6122 38.7566 20.8714 38.6729 21.1366C38.7709 20.8261 38.8488 20.5241 38.9086 20.2305Z" fill="#BD0911"/>
<path opacity="0.45" d="M37.9567 22.8564C37.8973 22.9717 37.8335 23.0884 37.7686 23.2056C37.7713 23.2014 37.7739 23.1972 37.7766 23.193C37.8392 23.0799 37.8993 22.9677 37.9567 22.8564Z" fill="#BD0911"/>
<path opacity="0.45" d="M38.5371 21.537C38.5839 21.4084 38.6276 21.2811 38.6677 21.1553C38.6275 21.2812 38.5839 21.4085 38.5371 21.537Z" fill="#BD0911"/>
<path d="M20.9925 12.6625C20.9925 12.6625 24.321 16.316 25.3837 15.8507C26.4464 15.3853 28.6524 10.7101 34.1517 15.1206C34.1517 15.1206 31.693 13.5197 28.06 16.3397C24.4271 19.1596 23.1266 19.1632 20.4879 17.001C19.6152 16.2861 18.846 16.0336 18.1589 16.0876C15.4132 16.3034 14.1171 21.6747 12.4398 21.4532C10.938 21.2549 9.25606 16.3102 11.3269 13.0381C11.5889 12.6241 12.5799 11.18 14.4933 10.6151C16.7006 9.96357 19.2087 10.7555 20.9925 12.6625Z" fill="#FFB392"/>
<path opacity="0.83" d="M11.1587 15.1261C11.2892 14.7708 12.4281 11.8093 15.2105 11.1168C18.6925 10.2501 22.2749 13.9143 21.9493 14.9612C21.7071 15.7399 18.6324 13.6303 15.6175 14.9281C12.3399 16.3391 12.4309 20.033 11.6035 19.6557C11.1963 19.4699 10.4743 18.4265 11.1587 15.1261Z" fill="#FF829A"/>
<path opacity="0.8" d="M12.1757 13.2807C12.4332 12.8932 13.4876 11.4014 15.3366 11.0891C17.669 10.6951 19.7704 12.4303 19.6569 12.7624C19.5734 13.0065 18.3031 12.4639 16.0569 12.7688C15.2083 12.8839 14.4879 12.9888 13.6966 13.4424C12.4157 14.1765 11.8929 15.2836 11.6956 15.1762C11.5899 15.1184 11.6124 14.7305 12.1757 13.2807Z" fill="#FFCAF4"/>
<path opacity="0.58" d="M26.7615 15.0464C27.0199 14.7501 28.1326 13.536 29.7218 13.486C30.7723 13.4528 31.8175 13.9352 31.7678 14.2271C31.7186 14.5163 30.6466 14.3115 29.1828 14.9206C27.4673 15.6344 26.4306 16.9596 26.1416 16.7499C26.1204 16.7346 26.0929 16.7034 26.0901 16.541C26.0786 15.8668 26.535 15.2957 26.7615 15.0464Z" fill="#FFCAF4"/>
<path opacity="0.32" d="M19.9262 35.6682C19.3236 35.5699 18.8119 35.4289 18.3726 35.2689C18.9326 35.9591 19.521 36.6663 20.1416 37.3922V37.3924L20.1418 37.3923L20.1419 37.3926V37.3922C24.2986 35.1632 27.5926 33.0726 30.1874 31.126C30.1874 31.126 22.8611 36.1474 19.9262 35.6682Z" fill="#FF9FFF"/>
<path d="M37.1389 24.1611H9.07324V48.8471H37.1389V24.1611Z" fill="#FBD1E2"/>
<path d="M37.1381 43.6722C37.0314 43.592 36.9447 43.5536 36.936 43.5499C36.9347 43.5494 36.9333 43.5489 36.932 43.5483C36.6009 43.4252 36.2816 43.4145 35.983 43.5167C35.6642 43.6258 35.4469 43.8373 35.3343 43.9714C35.1292 43.7427 34.5994 43.286 33.8124 43.5551C33.7847 43.5645 33.7568 43.575 33.729 43.586C33.7277 43.5865 33.7263 43.5871 33.725 43.5877C33.703 43.5976 33.1851 43.8346 33.1097 44.4419C33.0084 45.2568 33.7481 46.2918 35.3083 47.5179C35.3382 47.5414 35.3774 47.5473 35.4118 47.5355C35.424 47.5313 35.4357 47.5249 35.4461 47.5164C36.22 46.878 36.7837 46.2939 37.1381 45.767V43.6722Z" fill="#FB95AC"/>
<path d="M30.7891 43.5499C30.7878 43.5494 30.7864 43.5489 30.7851 43.5483C30.454 43.4252 30.1348 43.4145 29.8362 43.5167C29.5174 43.6258 29.3001 43.8373 29.1874 43.9714C28.9824 43.7427 28.4525 43.286 27.6655 43.5551C27.638 43.5645 27.6099 43.575 27.5821 43.586C27.5808 43.5865 27.5794 43.5871 27.5781 43.5876C27.5561 43.5975 27.0383 43.8346 26.9628 44.4418C26.8615 45.2567 27.6011 46.2917 29.1613 47.5178C29.1912 47.5413 29.2304 47.5472 29.2649 47.5354C29.2771 47.5312 29.2887 47.5248 29.2991 47.5162C30.8298 46.2537 31.5449 45.2015 31.4244 44.3892C31.3347 43.7841 30.8114 43.5592 30.7891 43.5499Z" fill="#FB95AC"/>
<path d="M24.6421 43.5499C24.6408 43.5494 24.6394 43.5489 24.6381 43.5483C24.307 43.4252 23.9877 43.4145 23.6891 43.5167C23.3703 43.6258 23.153 43.8373 23.0403 43.9714C22.8354 43.7427 22.3054 43.286 21.5184 43.5551C21.4909 43.5645 21.4628 43.575 21.4351 43.586C21.4338 43.5865 21.4324 43.5871 21.4311 43.5876C21.409 43.5975 20.8912 43.8346 20.8158 44.4418C20.7145 45.2567 21.4542 46.2917 23.0143 47.5178C23.0442 47.5413 23.0834 47.5472 23.1179 47.5354C23.1301 47.5312 23.1418 47.5248 23.1522 47.5162C24.6829 46.2537 25.398 45.2015 25.2775 44.3892C25.1876 43.7841 24.6643 43.5592 24.6421 43.5499Z" fill="#FB95AC"/>
<path d="M18.4946 43.5499C18.4933 43.5494 18.4919 43.5489 18.4906 43.5483C18.1595 43.4252 17.8402 43.4145 17.5416 43.5167C17.2228 43.6258 17.0055 43.8373 16.8929 43.9714C16.6879 43.7427 16.158 43.286 15.371 43.5551C15.3434 43.5645 15.3154 43.575 15.2876 43.586C15.2863 43.5865 15.2849 43.5871 15.2836 43.5876C15.2616 43.5975 14.7437 43.8346 14.6683 44.4418C14.567 45.2567 15.3067 46.2917 16.8668 47.5178C16.8968 47.5413 16.9359 47.5472 16.9703 47.5354C16.9825 47.5312 16.9942 47.5248 17.0047 47.5162C18.5353 46.2537 19.2505 45.2015 19.13 44.3892C19.0401 43.7841 18.5169 43.5592 18.4946 43.5499Z" fill="#FB95AC"/>
<path d="M12.3469 43.5499C12.3456 43.5494 12.3442 43.5489 12.3429 43.5483C12.0118 43.4252 11.6926 43.4145 11.394 43.5167C11.0751 43.6258 10.8578 43.8373 10.7452 43.9714C10.5401 43.7427 10.0103 43.286 9.22331 43.5551C9.19577 43.5645 9.16758 43.575 9.13994 43.586C9.13864 43.5865 9.13722 43.5871 9.13593 43.5877C9.13172 43.5896 9.10613 43.6025 9.07275 43.6216V45.9211C9.44146 46.4098 9.9861 46.9418 10.7191 47.5179C10.749 47.5414 10.7882 47.5473 10.8226 47.5355C10.8348 47.5313 10.8465 47.5249 10.857 47.5164C12.3876 46.2538 13.1027 45.2018 12.9823 44.3894C12.8924 43.7841 12.3692 43.5592 12.3469 43.5499Z" fill="#FB95AC"/>
<path d="M37.1381 31.1995C37.0314 31.1193 36.9447 31.0809 36.936 31.0772C36.9347 31.0767 36.9333 31.0762 36.932 31.0756C36.6009 30.9525 36.2816 30.9419 35.983 31.044C35.6642 31.1531 35.4469 31.3646 35.3343 31.4989C35.1292 31.27 34.5994 30.8134 33.8124 31.0825C33.7847 31.0919 33.7568 31.1024 33.729 31.1134C33.7277 31.114 33.7263 31.1145 33.725 31.1151C33.703 31.125 33.1851 31.362 33.1097 31.9693C33.0084 32.7842 33.7481 33.8192 35.3083 35.0453C35.3382 35.0688 35.3774 35.0747 35.4118 35.0629C35.424 35.0587 35.4357 35.0523 35.4461 35.0437C36.22 34.4053 36.7837 33.8212 37.1381 33.2943V31.1995Z" fill="#FB95AC"/>
<path d="M30.7891 31.0773C30.7878 31.0767 30.7864 31.0762 30.7851 31.0757C30.454 30.9525 30.1348 30.9419 29.8362 31.044C29.5174 31.1531 29.3001 31.3647 29.1874 31.4988C28.9824 31.27 28.4525 30.8133 27.6655 31.0825C27.638 31.0919 27.6099 31.1023 27.5821 31.1133C27.5808 31.1139 27.5794 31.1144 27.5781 31.1151C27.5561 31.1249 27.0383 31.362 26.9628 31.9692C26.8615 32.7842 27.6011 33.8191 29.1613 35.0452C29.1912 35.0688 29.2304 35.0746 29.2649 35.0628C29.2771 35.0586 29.2887 35.0522 29.2991 35.0437C30.8298 33.7811 31.5449 32.7291 31.4244 31.9168C31.3347 31.3114 30.8114 31.0866 30.7891 31.0773Z" fill="#FB95AC"/>
<path d="M24.6421 31.0773C24.6408 31.0767 24.6394 31.0762 24.6381 31.0757C24.307 30.9525 23.9877 30.9419 23.6891 31.044C23.3703 31.1531 23.153 31.3647 23.0403 31.4988C22.8354 31.27 22.3054 30.8133 21.5184 31.0825C21.4909 31.0919 21.4628 31.1023 21.4351 31.1133C21.4338 31.1139 21.4324 31.1144 21.4311 31.1151C21.409 31.1249 20.8912 31.362 20.8158 31.9692C20.7145 32.7842 21.4542 33.8191 23.0143 35.0452C23.0442 35.0688 23.0834 35.0746 23.1179 35.0628C23.1301 35.0586 23.1418 35.0522 23.1522 35.0437C24.6829 33.7811 25.398 32.7291 25.2775 31.9168C25.1876 31.3114 24.6643 31.0866 24.6421 31.0773Z" fill="#FB95AC"/>
<path d="M18.4946 31.0773C18.4933 31.0767 18.4919 31.0762 18.4906 31.0757C18.1595 30.9525 17.8402 30.9419 17.5416 31.044C17.2228 31.1531 17.0055 31.3647 16.8929 31.4988C16.6879 31.27 16.158 30.8133 15.371 31.0825C15.3434 31.0919 15.3154 31.1023 15.2876 31.1133C15.2863 31.1139 15.2849 31.1144 15.2836 31.1151C15.2616 31.1249 14.7437 31.362 14.6683 31.9692C14.567 32.7842 15.3067 33.8191 16.8668 35.0452C16.8968 35.0688 16.9359 35.0746 16.9703 35.0628C16.9825 35.0586 16.9942 35.0522 17.0047 35.0437C18.5353 33.7811 19.2505 32.7291 19.13 31.9168C19.0401 31.3114 18.5169 31.0866 18.4946 31.0773Z" fill="#FB95AC"/>
<path d="M12.3469 31.0772C12.3456 31.0767 12.3442 31.0762 12.3429 31.0756C12.0118 30.9525 11.6926 30.9419 11.394 31.044C11.0751 31.1531 10.8578 31.3646 10.7452 31.4989C10.5401 31.27 10.0103 30.8134 9.22331 31.0825C9.19577 31.0919 9.16758 31.1024 9.13994 31.1134C9.13864 31.114 9.13722 31.1145 9.13593 31.1151C9.13172 31.117 9.10613 31.1299 9.07275 31.149V33.4484C9.44146 33.9371 9.9861 34.4691 10.7191 35.0452C10.749 35.0687 10.7882 35.0746 10.8226 35.0628C10.8348 35.0586 10.8465 35.0522 10.857 35.0436C12.3876 33.7811 13.1027 32.729 12.9823 31.9166C12.8924 31.3114 12.3692 31.0865 12.3469 31.0772Z" fill="#FB95AC"/>
<path d="M34.9531 24.841C34.9518 24.8404 34.9504 24.8399 34.9491 24.8393C34.618 24.7162 34.2987 24.7055 34.0002 24.8077C33.6813 24.9168 33.4641 25.1283 33.3515 25.2625C33.1465 25.0337 32.6167 24.577 31.8296 24.8461C31.802 24.8555 31.774 24.866 31.7462 24.877C31.7449 24.8776 31.7435 24.8781 31.7422 24.8788C31.7202 24.8886 31.2023 25.1256 31.1268 25.7329C31.0255 26.5479 31.7652 27.5828 33.3254 28.8089C33.3553 28.8324 33.3945 28.8383 33.4289 28.8265C33.4411 28.8223 33.4528 28.8159 33.4632 28.8074C34.9939 27.5448 35.709 26.4928 35.5884 25.6804C35.4987 25.075 34.9753 24.8501 34.9531 24.841Z" fill="#FB95AC"/>
<path d="M28.6904 24.841C28.6891 24.8404 28.6877 24.8399 28.6864 24.8393C28.3553 24.7162 28.036 24.7055 27.7374 24.8077C27.4185 24.9168 27.2013 25.1283 27.0887 25.2625C26.8837 25.0337 26.3538 24.577 25.5668 24.8461C25.5392 24.8555 25.5112 24.866 25.4834 24.877C25.4821 24.8776 25.4807 24.8781 25.4794 24.8788C25.4574 24.8886 24.9395 25.1256 24.8641 25.7329C24.7628 26.5479 25.5025 27.5828 27.0625 28.8089C27.0926 28.8324 27.1317 28.8383 27.1661 28.8265C27.1783 28.8223 27.19 28.8159 27.2003 28.8074C28.7311 27.5448 29.4462 26.4928 29.3256 25.6804C29.2359 25.075 28.7126 24.8501 28.6904 24.841Z" fill="#FB95AC"/>
<path d="M22.4272 24.841C22.4259 24.8404 22.4245 24.8399 22.4232 24.8393C22.0921 24.7162 21.7729 24.7055 21.4742 24.8077C21.1554 24.9168 20.9381 25.1283 20.8255 25.2625C20.6205 25.0337 20.0906 24.577 19.3036 24.8461C19.276 24.8555 19.248 24.866 19.2202 24.877C19.2189 24.8776 19.2175 24.8781 19.2162 24.8788C19.1942 24.8886 18.6763 25.1256 18.601 25.7329C18.4997 26.5479 19.2393 27.5828 20.7994 28.8089C20.8294 28.8324 20.8685 28.8383 20.9029 28.8265C20.9151 28.8223 20.9268 28.8159 20.9373 28.8074C22.4679 27.5448 23.1831 26.4928 23.0626 25.6804C22.9728 25.075 22.4495 24.8501 22.4272 24.841Z" fill="#FB95AC"/>
<path d="M16.1646 24.841C16.1633 24.8404 16.1619 24.8399 16.1606 24.8393C15.8295 24.7162 15.5103 24.7055 15.2116 24.8077C14.8928 24.9168 14.6756 25.1283 14.5629 25.2625C14.3579 25.0337 13.828 24.577 13.041 24.8461C13.0135 24.8555 12.9854 24.866 12.9576 24.877C12.9563 24.8776 12.9549 24.8781 12.9536 24.8788C12.9316 24.8886 12.4137 25.1256 12.3383 25.7329C12.237 26.5479 12.9766 27.5828 14.5368 28.8089C14.5667 28.8324 14.6059 28.8383 14.6403 28.8265C14.6526 28.8223 14.6642 28.8159 14.6746 28.8074C16.2053 27.5448 16.9204 26.4928 16.7999 25.6804C16.7101 25.075 16.1869 24.8501 16.1646 24.841Z" fill="#FB95AC"/>
<path d="M34.9531 37.3136C34.9518 37.3131 34.9504 37.3125 34.9491 37.312C34.618 37.1889 34.2987 37.1782 34.0002 37.2803C33.6813 37.3894 33.4641 37.601 33.3515 37.7351C33.1465 37.5064 32.6167 37.0497 31.8296 37.3188C31.802 37.3282 31.774 37.3387 31.7462 37.3497C31.7449 37.3502 31.7435 37.3508 31.7422 37.3513C31.7202 37.3611 31.2023 37.5983 31.1268 38.2055C31.0255 39.0204 31.7652 40.0554 33.3254 41.2815C33.3553 41.305 33.3945 41.3108 33.4289 41.2991C33.4411 41.2949 33.4528 41.2885 33.4632 41.2799C34.9939 40.0174 35.709 38.9652 35.5884 38.1529C35.4987 37.5478 34.9753 37.3228 34.9531 37.3136Z" fill="#FB95AC"/>
<path d="M28.6904 37.3136C28.6891 37.3131 28.6877 37.3125 28.6864 37.312C28.3553 37.1889 28.036 37.1782 27.7374 37.2803C27.4185 37.3894 27.2013 37.601 27.0887 37.7351C26.8837 37.5064 26.3538 37.0497 25.5668 37.3188C25.5392 37.3282 25.5112 37.3387 25.4834 37.3497C25.4821 37.3502 25.4807 37.3508 25.4794 37.3513C25.4574 37.3611 24.9395 37.5983 24.8641 38.2055C24.7628 39.0204 25.5025 40.0554 27.0625 41.2815C27.0926 41.305 27.1317 41.3108 27.1661 41.2991C27.1783 41.2949 27.19 41.2885 27.2003 41.2799C28.7311 40.0174 29.4462 38.9652 29.3256 38.1529C29.2359 37.5478 28.7126 37.3228 28.6904 37.3136Z" fill="#FB95AC"/>
<path d="M22.4272 37.3136C22.4259 37.3131 22.4245 37.3125 22.4232 37.312C22.0921 37.1889 21.7729 37.1782 21.4742 37.2803C21.1554 37.3894 20.9381 37.601 20.8255 37.7351C20.6205 37.5064 20.0906 37.0497 19.3036 37.3188C19.276 37.3282 19.248 37.3387 19.2202 37.3497C19.2189 37.3502 19.2175 37.3508 19.2162 37.3513C19.1942 37.3611 18.6763 37.5983 18.601 38.2055C18.4997 39.0204 19.2393 40.0554 20.7994 41.2815C20.8294 41.305 20.8685 41.3108 20.9029 41.2991C20.9151 41.2949 20.9268 41.2885 20.9373 41.2799C22.4679 40.0174 23.1831 38.9652 23.0626 38.1529C22.9728 37.5478 22.4495 37.3228 22.4272 37.3136Z" fill="#FB95AC"/>
<path d="M16.1646 37.3136C16.1633 37.3131 16.1619 37.3125 16.1606 37.312C15.8295 37.1889 15.5103 37.1782 15.2116 37.2803C14.8928 37.3894 14.6756 37.601 14.5629 37.7351C14.3579 37.5064 13.828 37.0497 13.041 37.3188C13.0135 37.3282 12.9854 37.3387 12.9576 37.3497C12.9563 37.3502 12.9549 37.3508 12.9536 37.3513C12.9316 37.3611 12.4137 37.5983 12.3383 38.2055C12.237 39.0204 12.9766 40.0554 14.5368 41.2815C14.5667 41.305 14.6059 41.3108 14.6403 41.2991C14.6526 41.2949 14.6642 41.2885 14.6746 41.2799C16.2053 40.0174 16.9204 38.9652 16.7999 38.1529C16.7101 37.5478 16.1869 37.3228 16.1646 37.3136Z" fill="#FB95AC"/>
<path d="M9.90131 37.3139C9.90002 37.3134 9.89862 37.3128 9.89732 37.3123C9.61145 37.206 9.3353 37.1887 9.07275 37.2504V40.6953C10.141 39.6907 10.6379 38.8364 10.5366 38.1533C10.4468 37.548 9.92356 37.3231 9.90131 37.3139Z" fill="#FB95AC"/>
<path d="M9.90131 24.8413C9.90002 24.8407 9.89862 24.8402 9.89732 24.8396C9.61145 24.7334 9.3353 24.7161 9.07275 24.7777V28.2227C10.141 27.2181 10.6379 26.3637 10.5366 25.6806C10.4468 25.0754 9.92356 24.8505 9.90131 24.8413Z" fill="#FB95AC"/>
<path opacity="0.46" d="M37.139 37.5341V24.1611H35.0195L37.139 37.5341Z" fill="#C72477"/>
<path opacity="0.2" d="M9.07324 48.8472H37.1389V38.1299C36.0207 43.8898 32.5199 47.7089 9.07324 48.8472Z" fill="#C72477"/>
<path d="M25.7294 49.2492H21.0015V24.1611H26.1934L25.7294 49.2492Z" fill="#C9134C"/>
<path d="M25.7294 24.0312H21.0015V49.2496H25.7294V24.0312Z" fill="#FF6D90"/>
<path opacity="0.2" d="M25.7294 46.9844C24.3419 47.2686 22.7749 47.5395 21.0015 47.7979V49.2494H25.7294V46.9844Z" fill="#C72477"/>
<path opacity="0.5" d="M25.7297 49.2496V24.0312H25.2525V48.5444L21.0859 49.2496H25.7297Z" fill="#C72477"/>
<path d="M21.4426 24.3212L25.7294 24.0986V24.0312H21.0015V46.507L21.4426 24.3212Z" fill="#F6B3CE"/>
<path d="M37.1388 24.1611H9.07324V43.571C10.4859 36.5375 14.5079 26.0504 25.9463 25.6559C30.5712 25.4964 34.2378 25.3532 37.1388 25.2286V24.1611Z" fill="#F6D5FF"/>
<path d="M43.1026 33.4424C43.2368 33.0109 46.3609 22.8499 44.1014 20.3524C43.4668 19.6495 43.0144 19.7852 42.7469 20.0228C41.6512 20.9968 41.4957 25.5308 42.2722 30.5945C42.4124 31.5087 42.5833 32.4413 42.7843 33.3723C42.8058 33.4713 42.8671 33.5474 42.9384 33.5632C43.0097 33.5789 43.0754 33.5305 43.1026 33.4424ZM43.4787 22.7112C43.4787 22.7114 43.4787 22.7114 43.4788 22.7116C43.6987 22.9791 43.8387 23.3936 43.9176 23.9081C44.2483 26.0648 43.4988 29.9723 42.9762 32.1252C42.0615 27.3114 42.1427 23.044 42.8618 22.4524C42.9219 22.4033 43.1042 22.2535 43.4787 22.7112Z" fill="#FF6D90"/>
<path d="M42.8613 33.1448C42.8003 33.1848 42.77 33.2778 42.7851 33.3779C42.9281 34.3197 43.0998 35.252 43.2938 36.1564C44.3677 41.1655 46.1244 45.3481 47.4947 45.8692C47.8292 45.9962 48.3003 45.9624 48.6437 45.0797C49.868 41.9423 43.3365 33.555 43.0578 33.1994C43.0011 33.1266 42.9225 33.1048 42.8613 33.1448ZM46.7387 43.5573C45.8561 43.26 44.2637 39.3 43.4078 34.4755C44.6613 36.3021 46.7508 39.6881 47.2081 41.8214C47.3172 42.3303 47.3336 42.7676 47.2233 43.0957C47.2233 43.0959 47.2233 43.0959 47.2234 43.0961C47.0359 43.6571 46.8122 43.582 46.7387 43.5573Z" fill="#FF6D90"/>
<path d="M45.776 47.9696L40.2671 17.9863L34.7836 18.9938L40.2925 48.9771L45.776 47.9696Z" fill="#FBAFB1"/>
<path d="M37.9876 36.66L37.1333 32.0098L42.6462 31.001L43.5842 36.1074L37.9876 36.66Z" fill="#C9134C"/>
<path d="M40.2547 17.9863L34.771 18.9936L39.8534 18.564L44.5418 41.3234L40.2547 17.9863Z" fill="#F6B3CE"/>
<path d="M43.8021 35.5933L42.9478 30.9434L37.1462 32.0093L38.0006 36.6592L43.8021 35.5933Z" fill="#FF6D90"/>
<path opacity="0.2" d="M38.1499 37.3877L40.2792 48.9785L45.7629 47.9711C45.7629 47.9711 40.1056 46.2095 38.1499 37.3877Z" fill="#C72477"/>
<path d="M43.7693 35.4861L42.9351 30.9443L37.1333 32.0102L37.2112 32.4342L42.4219 31.5875L43.7693 35.4861Z" fill="#F6B3CE"/>
<path opacity="0.5" d="M38.0946 36.2606L37.1462 32.0078L37.1333 32.0102L37.9876 36.6603L40.6181 36.1772L38.0946 36.2606Z" fill="#C72477"/>
<path d="M45.6572 47.3952L40.2547 17.9863L34.771 18.9937L34.8905 19.6447C36.7188 20.995 40.2554 24.7811 42.5939 34.7455C44.1824 41.5134 45.1158 45.2924 45.6572 47.3952Z" fill="#F6B3CE"/>
</svg>
