<svg width="50" height="50" viewBox="0 0 50 50" fill="none" xmlns="http://www.w3.org/2000/svg">
<path d="M47.7041 24.8059C47.7041 24.8059 47.7041 24.8059 47.7027 24.8076C47.6955 24.8331 47.6074 25.1151 47.4254 25.5893C47.5633 25.3479 47.6997 25.1015 47.8377 24.8534C47.7937 24.8364 47.7496 24.8212 47.7041 24.8059ZM17.8111 41.2536C19.5117 41.8076 20.7131 41.8076 21.2193 41.7703C18.9244 41.4592 16.8783 40.8441 15.0569 40.0249C16.075 40.5994 16.9993 40.9902 17.8111 41.2536ZM1.81395 24.7906C1.8182 24.7974 1.82245 24.8041 1.82536 24.8109H1.85376C1.83956 24.8024 1.8267 24.7956 1.8125 24.7871C1.8125 24.7871 1.8125 24.7889 1.81395 24.7906Z" fill="#920911"/>
<path d="M1.8125 24.7872C1.8267 24.7957 1.83956 24.8025 1.85376 24.811H1.81966C1.99318 25.3718 5.27049 35.6249 15.0528 40.0232C15.0542 40.0232 15.0557 40.0248 15.0571 40.0248C16.8785 40.844 18.9245 41.4592 21.2194 41.7702H21.2208C22.3143 41.9198 23.466 41.9996 24.6745 41.9996C25.7963 41.9996 26.8684 41.9317 27.8935 41.8007C31.1553 41.3929 33.9307 40.3732 36.2767 39.0272C43.3461 34.9688 46.5283 27.9312 47.4254 25.5892C47.6074 25.1151 47.6955 24.833 47.7027 24.8075C47.7041 24.8058 47.7041 24.8058 47.7041 24.8058C24.2763 9.25532 1.8125 24.7872 1.8125 24.7872ZM9.40657 34.5627C9.40657 34.6425 9.37103 34.7071 9.32698 34.7071C9.28148 34.7071 9.24591 34.6426 9.24591 34.5627C9.24591 34.4827 9.28148 34.4182 9.32698 34.4182C9.37103 34.4182 9.40657 34.4828 9.40657 34.5627Z" fill="#BD0911"/>
<path d="M47.4255 25.5893C47.6075 25.1152 47.6956 24.8331 47.7028 24.8076C47.7041 24.8059 47.7041 24.8059 47.7041 24.8059C46.9551 24.3088 46.2073 23.8444 45.461 23.4093L44.2978 23.8176C44.2978 23.8176 40.0152 39.296 25.434 39.296C10.8529 39.296 6.67228 23.33 6.67228 23.33L6.53847 22.1978C3.54223 23.5924 1.8125 24.7871 1.8125 24.7871C1.8267 24.7956 1.83955 24.8025 1.85375 24.811H1.81965C1.99306 25.3718 5.27049 35.6249 15.0528 40.0231C15.0542 40.0231 15.0556 40.0248 15.0571 40.0248C16.8785 40.844 18.9245 41.4592 21.2194 41.7702H21.2208C22.3141 41.9198 23.466 41.9996 24.6744 41.9996C25.7963 41.9996 26.8684 41.9316 27.8935 41.8007C31.1553 41.3929 33.9307 40.3732 36.2767 39.0272C43.3462 34.9689 46.5284 27.9313 47.4255 25.5893ZM9.32709 34.7072C9.28158 34.7072 9.24602 34.6427 9.24602 34.5627C9.24602 34.4828 9.28158 34.4183 9.32709 34.4183C9.37114 34.4183 9.40668 34.4829 9.40668 34.5627C9.40668 34.6426 9.37114 34.7072 9.32709 34.7072Z" fill="#D9243D"/>
<path d="M31.8403 8.3459C30.7881 8.00266 29.9279 7.87174 29.3052 7.83272C29.3037 7.83272 29.3037 7.83272 29.3024 7.83272C29.2996 7.83104 29.2967 7.83104 29.2939 7.83104C28.5431 7.72394 27.8137 7.81237 27.1156 8.0996C25.9198 8.5874 25.1051 9.53572 24.6828 10.1373C24.1539 9.43208 23.0462 8.24237 21.4453 7.96196L21.4866 7.9263C21.4866 7.9263 20.1017 7.66625 17.8111 8.41243C14.147 9.60549 8.16533 13.3698 1.8125 24.8788C1.85655 24.8958 1.90071 24.9111 1.94611 24.9265C4.55662 25.8442 7.81124 26.1722 11.282 25.7167C15.0385 25.2239 18.3827 23.8999 20.8255 22.1273C20.8255 22.1273 20.8255 22.1273 20.8269 22.129C21.3104 22.695 21.8336 23.2728 22.3937 23.8591C23.0421 24.3672 23.8625 24.7904 24.7981 24.7904C25.7635 24.7904 26.6081 24.3231 27.2664 23.7741C27.8024 23.181 28.3044 22.6032 28.7707 22.0339C28.7722 22.0305 28.7735 22.0287 28.775 22.027C28.7764 22.0254 28.7764 22.0254 28.7764 22.0254C31.2235 23.8149 34.5861 25.1541 38.3682 25.6504C41.839 26.1059 45.095 25.7779 47.7041 24.8602C47.7496 24.8449 47.7937 24.8295 47.8377 24.8125C41.4847 13.3034 35.503 9.53896 31.8403 8.3459ZM9.32675 15.2476C9.28125 15.2476 9.24569 15.1829 9.24569 15.1031C9.24569 15.0233 9.28125 14.9587 9.32675 14.9587C9.37081 14.9587 9.40635 15.0232 9.40635 15.1031C9.40635 15.1829 9.37081 15.2476 9.32675 15.2476Z" fill="#BD0911"/>
<path opacity="0.44" d="M27.6768 12.7261C31.3965 10.6581 40.3968 15.7812 43.0417 17.383C38.5607 11.54 34.5605 9.23195 31.8401 8.3459C30.7879 8.00266 29.9277 7.87174 29.3049 7.83272C29.3035 7.83272 29.3035 7.83272 29.3021 7.83272C29.2992 7.83104 29.2964 7.83104 29.2936 7.83104C28.5429 7.72394 27.8134 7.81237 27.1153 8.0996C25.9196 8.5874 25.1049 9.53572 24.6826 10.1373C24.1536 9.43208 23.046 8.24237 21.4451 7.96196L21.4863 7.9263C21.4863 7.9263 20.1014 7.66625 17.8109 8.41243C15.2369 9.25051 11.5185 11.362 7.33203 16.5313C8.02376 16.0586 8.68687 15.6302 9.32181 15.2442C9.2791 15.239 9.24568 15.1798 9.24568 15.1033C9.24568 15.0235 9.28123 14.9589 9.32674 14.9589C9.37079 14.9589 9.40635 15.0234 9.40635 15.1033C9.40635 15.1512 9.3917 15.1875 9.37202 15.2139C18.8206 9.49033 22.069 12.9701 22.069 12.9701C22.069 12.9701 23.2923 15.1636 27.6768 12.7261Z" fill="#E57E92"/>
<g opacity="0.75">
<path d="M9.26593 15.0158C9.27678 14.9915 9.29187 14.9795 9.30943 14.9716C12.6221 11.6383 15.5337 10.1112 17.6711 9.42872C20.0072 8.68265 21.4195 8.9426 21.4195 8.9426L21.3775 8.97827C23.0102 9.25867 24.1398 10.4484 24.6793 11.1536C25.1099 10.552 25.9409 9.6037 27.1603 9.11601C27.8723 8.82878 28.6162 8.74046 29.3819 8.84746C29.3848 8.84746 29.3877 8.84746 29.3906 8.84914C29.392 8.84914 29.392 8.84914 29.3935 8.84914C30.0286 8.88827 30.9059 9.01907 31.979 9.36231C35.6061 10.5208 41.4635 14.1055 47.7319 24.8501C47.7676 24.8379 47.8029 24.8258 47.8378 24.8124C41.485 13.3034 35.5032 9.53896 31.8405 8.3459C30.7884 8.00266 29.9281 7.87174 29.3054 7.83272C29.3039 7.83272 29.3039 7.83272 29.3025 7.83272C29.2997 7.83105 29.2968 7.83104 29.294 7.83104C28.5432 7.72394 27.8138 7.81237 27.1157 8.0996C25.9198 8.5874 25.1052 9.53561 24.6828 10.1372C24.1539 9.43197 23.0464 8.24226 21.4453 7.96185L21.4866 7.92619C21.4866 7.92619 20.1017 7.66613 17.8111 8.41231C14.147 9.60537 8.16533 13.3697 1.8125 24.8787C1.84694 24.892 1.88182 24.9039 1.91704 24.916C4.47657 20.5285 6.96701 17.3375 9.26593 15.0158Z" fill="#E59FD1"/>
<path d="M9.09935 16.12C9.09935 16.0402 9.06312 15.9756 9.01817 15.9756C8.97177 15.9756 8.93555 16.0401 8.93555 16.12C8.93555 16.1999 8.97177 16.2645 9.01817 16.2645C9.06301 16.2645 9.09935 16.1999 9.09935 16.12Z" fill="#E57E92"/>
</g>
<path d="M24.3857 24.7597C24.5208 24.7776 24.6578 24.79 24.7983 24.79C25.0718 24.79 25.3342 24.7493 25.5866 24.6831L24.3857 24.7597Z" fill="#D9243D"/>
<path opacity="0.75" d="M1.8125 24.8784C1.85655 24.8954 1.9006 24.9107 1.94622 24.9261C4.55673 25.8438 7.81135 26.1718 11.2821 25.7163C11.7018 25.6612 12.1143 25.5922 12.523 25.517L8.60975 25.7667C8.60975 25.7667 3.75454 23.728 7.10733 16.8091C5.40231 18.9506 3.62261 21.5992 1.8125 24.8784Z" fill="#D9243D"/>
<path opacity="0.75" d="M33.7773 24.5685C35.2068 25.061 36.7454 25.4368 38.3685 25.6498C41.8392 26.1053 45.0953 25.7773 47.7044 24.8596C47.7499 24.8443 47.794 24.8291 47.8381 24.8121C46.2034 21.8506 44.5937 19.4053 43.0415 17.3813C44.8475 20.4733 45.0668 24.537 33.7773 24.5685Z" fill="#D9243D"/>
<path d="M29.1333 19.1539C24.2217 23.2468 19.7569 19.1539 19.7569 19.1539C19.7569 19.1539 19.7778 19.1004 9.23828 25.8889C9.90955 25.8588 10.5894 25.8076 11.2812 25.7168C15.0377 25.224 18.3819 23.9 20.8247 22.1275C20.8247 22.1275 20.8247 22.1275 20.826 22.1291C21.3094 22.6951 21.8327 23.2729 22.3929 23.8592C23.0413 24.3673 23.8617 24.7905 24.7973 24.7905C25.7627 24.7905 26.6073 24.3232 27.2656 23.7742C27.8016 23.1811 28.3035 22.6033 28.7699 22.034C28.7714 22.0306 28.7727 22.0289 28.7742 22.0272C28.7756 22.0255 28.7756 22.0255 28.7756 22.0255C31.0509 23.6895 34.1231 24.9547 37.5828 25.5243C35.3759 22.585 30.9627 17.6292 29.1333 19.1539Z" fill="#D9243D"/>
<path opacity="0.25" d="M38.8927 27.5955C39.483 30.1369 32.6749 38.4297 25.2293 38.5645C17.5536 38.7035 10.3723 30.2582 10.954 27.5955C11.4503 25.3239 18.14 23.535 21.6604 26.0112C22.2116 26.3989 23.2831 27.3117 24.8213 27.3518C26.3947 27.3928 27.5355 26.4967 28.0842 26.133C31.7037 23.7334 38.3801 25.3879 38.8927 27.5955Z" fill="#D98B9F"/>
<g opacity="0.87">
<path d="M17.5479 26.006C17.8705 25.943 18.2026 25.9326 18.5323 25.944C18.6979 25.9465 18.8619 25.9672 19.0269 25.9827C19.1899 26.0097 19.3557 26.0265 19.5171 26.0647C20.1665 26.2001 20.7986 26.43 21.3861 26.7445C21.5373 26.8157 21.6753 26.9094 21.8199 26.9926C21.9656 27.0745 22.0998 27.1731 22.236 27.2692L22.6358 27.5519C22.6993 27.5999 22.7683 27.6387 22.8351 27.6812C22.9013 27.7247 22.9705 27.7626 23.0404 27.7993C23.593 28.1022 24.2163 28.2663 24.8425 28.2475C25.4686 28.2343 26.0899 28.0528 26.6495 27.7579C26.7897 27.6848 26.9268 27.6046 27.0564 27.5165C27.0888 27.4947 27.1205 27.472 27.1511 27.4495C27.1732 27.434 27.212 27.3997 27.2441 27.3752C27.3108 27.3226 27.3782 27.2724 27.4467 27.2238C27.7197 27.0288 28.0068 26.8566 28.3054 26.7069C28.9003 26.4049 29.5439 26.1905 30.2067 26.111C30.8679 26.0324 31.5483 26.0963 32.1628 26.331C31.5264 26.168 30.8643 26.1536 30.2311 26.2739C29.5962 26.3885 28.9902 26.6282 28.4279 26.9384C28.147 27.0947 27.8769 27.2704 27.6201 27.4612C27.556 27.509 27.4932 27.5582 27.4325 27.6085C27.3999 27.6345 27.3787 27.656 27.3354 27.6898C27.3007 27.7169 27.2663 27.7426 27.2313 27.7673C27.0922 27.8668 26.948 27.9558 26.7996 28.0378C26.2057 28.3619 25.5366 28.5624 24.8502 28.5827C24.1642 28.5973 23.4768 28.4135 22.887 28.0764C22.8126 28.0351 22.7393 27.9923 22.6694 27.9443C22.5991 27.8971 22.5262 27.8534 22.4598 27.801L22.064 27.5067C21.9349 27.4103 21.8065 27.3129 21.6691 27.2289C21.5329 27.1434 21.4028 27.0468 21.2596 26.9727C20.7024 26.6496 20.1044 26.3935 19.4793 26.2243C19.3243 26.1757 19.1645 26.1483 19.0065 26.1104C18.8466 26.0838 18.6867 26.0535 18.5249 26.0362C18.4442 26.0247 18.3632 26.017 18.282 26.0116C18.2008 26.0039 18.1194 25.9995 18.0379 25.9976C17.875 25.9901 17.7112 25.9905 17.5479 26.006Z" fill="#FF89B3"/>
</g>
<path opacity="0.64" d="M28.6939 36.5868C31.0376 36.0311 32.7016 34.5857 32.4106 33.3584C32.1196 32.1311 29.9838 31.5866 27.6401 32.1423C25.2964 32.698 23.6324 34.1434 23.9234 35.3707C24.2144 36.598 26.3502 37.1425 28.6939 36.5868Z" fill="#D9B3ED"/>
<path opacity="0.64" d="M34.2621 33.448C34.805 33.3486 35.1416 32.7026 35.0138 32.0051C34.886 31.3077 34.3423 30.823 33.7994 30.9224C33.2565 31.0219 32.92 31.6679 33.0478 32.3653C33.1755 33.0628 33.7192 33.5475 34.2621 33.448Z" fill="#D9B3ED"/>
<path opacity="0.4" d="M29.468 30.1082C30.8014 29.4317 31.6984 28.5209 31.4715 28.0738C31.2447 27.6268 29.98 27.8129 28.6466 28.4894C27.3133 29.1659 26.4163 30.0767 26.6431 30.5238C26.8699 30.9708 28.1347 30.7848 29.468 30.1082Z" fill="#FF84BA"/>
<path d="M19.3688 11.4538C20.4488 11.2637 21.2561 10.7219 21.1719 10.2437C21.0877 9.76548 20.144 9.53197 19.064 9.72211C17.9839 9.91226 17.1766 10.4541 17.2608 10.9323C17.345 11.4104 18.2888 11.6439 19.3688 11.4538Z" fill="#E59FB3"/>
<path d="M28.2692 11.5128C29.2977 11.1323 29.9949 10.4547 29.8264 9.9993C29.6579 9.54393 28.6876 9.48324 27.6591 9.86375C26.6306 10.2443 25.9335 10.9219 26.1019 11.3773C26.2704 11.8326 27.2407 11.8933 28.2692 11.5128Z" fill="#E59FB3"/>
<path opacity="0.4" d="M32.7273 29.1641C32.9681 28.8615 33.005 28.4901 32.8097 28.3347C32.6144 28.1793 32.2608 28.2987 32.02 28.6014C31.7792 28.9041 31.7423 29.2754 31.9376 29.4308C32.1329 29.5862 32.4865 29.4668 32.7273 29.1641Z" fill="#FF84BA"/>
<path d="M24.0273 23.7377C25.0829 23.6766 26.1399 23.6223 27.198 23.6245C27.7271 23.6152 28.2559 23.6347 28.7851 23.6431C29.3136 23.668 29.8427 23.6864 30.3703 23.7304C31.4261 23.8084 32.4791 23.9314 33.5244 24.1037C34.57 24.2748 35.6068 24.4968 36.637 24.7393C37.6676 24.9804 38.692 25.243 39.726 25.444C40.7586 25.6511 41.8053 25.7737 42.8535 25.7775C43.9019 25.784 44.9471 25.6525 45.9737 25.4398C47.0009 25.2252 48.0097 24.924 49.0026 24.5777L49.0038 24.5772C49.0913 24.5467 49.187 24.5929 49.2174 24.6803C49.2479 24.7677 49.2017 24.8634 49.1143 24.8938C49.1139 24.894 49.1126 24.8944 49.1122 24.8945C48.1038 25.2314 47.078 25.5231 46.0316 25.7273C44.9861 25.9298 43.9191 26.0497 42.8515 26.029C41.7842 26.0111 40.7224 25.8718 39.6846 25.6494C38.6448 25.4328 37.623 25.1562 36.5976 24.9022C35.5725 24.6466 34.5429 24.4119 33.5032 24.2276C32.4639 24.0421 31.4158 23.9056 30.3636 23.8139C29.8378 23.7629 29.3101 23.7378 28.7826 23.7059C28.2545 23.6906 27.7265 23.6642 27.1979 23.6664C26.1408 23.6502 25.0838 23.6905 24.0273 23.7377Z" fill="#470002"/>
<path d="M0.922266 24.9788C1.81681 25.3335 2.76469 25.552 3.72531 25.6639C4.68671 25.7763 5.66109 25.7848 6.63189 25.7295C8.57594 25.6165 10.5026 25.2593 12.4172 24.8694C14.3331 24.4799 16.2444 24.045 18.1829 23.7584C19.1518 23.6166 20.128 23.5133 21.1074 23.4917C22.0859 23.4707 23.0698 23.5326 24.0275 23.7371C23.067 23.5463 22.0843 23.4987 21.1086 23.5336C20.132 23.569 19.1601 23.686 18.1957 23.8413C16.2659 24.1548 14.3642 24.6162 12.4519 25.0336C10.5406 25.4512 8.61227 25.838 6.64798 25.9807C5.66701 26.0505 4.67732 26.0565 3.69311 25.9557C2.70991 25.8554 1.73139 25.6454 0.800512 25.2915C0.713976 25.2586 0.670482 25.1617 0.703352 25.0752C0.736223 24.9886 0.833157 24.9451 0.919693 24.978C0.920252 24.978 0.921819 24.9786 0.922266 24.9788Z" fill="#470002"/>
<path d="M31.5513 23.9574C31.5513 23.9574 26.708 24.8715 24.7706 26.9434C24.7706 26.9434 24.0569 25.1153 18.8057 23.7136C18.8057 23.7136 19.8589 21.6679 24.6571 21.6072C29.6494 21.544 31.5513 23.9574 31.5513 23.9574Z" fill="#470002"/>
<g opacity="0.28">
<path d="M34.8251 20.9072C34.3731 20.3697 33.9075 19.8439 33.4098 19.3507C32.9111 18.8596 32.3848 18.3939 31.8072 18.0047C31.5185 17.811 31.2177 17.6349 30.9006 17.4982C30.5841 17.3617 30.2503 17.2662 29.9127 17.2382C29.5763 17.2141 29.2337 17.2689 28.9459 17.4293C28.875 17.4699 28.8068 17.5158 28.7471 17.5682C28.6941 17.6144 28.6301 17.692 28.567 17.7519C28.4403 17.8783 28.3076 17.9976 28.1707 18.1117C27.6215 18.5657 26.9994 18.9354 26.3263 19.1793C25.6549 19.4241 24.9327 19.5412 24.2163 19.5043C23.5 19.4691 22.7928 19.2841 22.148 18.9749C21.5028 18.6657 20.9157 18.2405 20.4226 17.7223L20.4172 17.716C20.4065 17.7043 20.369 17.6758 20.3381 17.6596C20.3042 17.6419 20.2681 17.6261 20.2294 17.6144C20.1531 17.5893 20.0697 17.577 19.9853 17.5727C19.8158 17.5638 19.6412 17.5863 19.4695 17.6233C19.1253 17.6996 18.7891 17.8308 18.4651 17.9863C17.8159 18.2987 17.2077 18.6992 16.6183 19.121C16.0319 19.5484 15.4635 20.0022 14.9081 20.4718C14.3539 20.9429 13.814 21.4312 13.2773 21.9234C13.7911 21.4073 14.3173 20.9033 14.8583 20.4147C15.3988 19.9257 15.9566 19.4545 16.5407 19.0158C17.1264 18.58 17.7316 18.1643 18.3896 17.8321C18.7187 17.6678 19.0615 17.522 19.4284 17.4379C19.6117 17.3972 19.801 17.3708 19.9957 17.3798C20.0927 17.3842 20.1912 17.3977 20.2881 17.4286C20.3367 17.443 20.3846 17.4632 20.4314 17.4875C20.4796 17.5158 20.5195 17.5375 20.5704 17.5932L20.565 17.5869C21.5213 18.5784 22.8495 19.2253 24.2273 19.2811C24.9139 19.3208 25.6064 19.2134 26.255 18.9817C26.9047 18.7512 27.5102 18.3971 28.0456 17.9603C28.1789 17.8506 28.3084 17.7357 28.4309 17.6149C28.4958 17.5543 28.5424 17.4944 28.6209 17.4243C28.6937 17.3614 28.7722 17.3094 28.8539 17.2634C29.1844 17.0826 29.5661 17.0354 29.9269 17.0674C30.2891 17.1044 30.6368 17.2126 30.9617 17.3601C31.2872 17.5079 31.5912 17.6943 31.8812 17.8971C32.4633 18.3022 32.98 18.7873 33.464 19.2977C33.9481 19.8086 34.3988 20.3491 34.8251 20.9072Z" fill="#D9B3ED"/>
</g>
<g opacity="0.24">
<path d="M25.2257 41.4482C14.7204 41.4482 7.49978 33.5463 7.18908 33.2004C6.96715 32.9537 6.98761 32.5737 7.23492 32.3518C7.48044 32.1297 7.86158 32.1503 8.08351 32.3964C8.15864 32.4798 15.6306 40.6805 26.0589 40.2278C36.4632 39.788 42.302 31.4744 42.3596 31.3904C42.5481 31.1179 42.9221 31.048 43.1964 31.236C43.4695 31.4245 43.5387 31.7991 43.3508 32.0728C43.1006 32.4352 37.1074 40.9648 26.1094 41.4294C25.813 41.4417 25.5175 41.4482 25.2257 41.4482Z" fill="#D9B3ED"/>
</g>
</svg>
