<svg width="50" height="50" viewBox="0 0 50 50" fill="none" xmlns="http://www.w3.org/2000/svg">
<path d="M24.3012 18.5693C15.7837 18.5693 8.87891 25.4741 8.87891 33.9916C8.87891 42.5091 15.7837 49.4139 24.3012 49.4139C32.8187 49.4139 39.7235 42.5091 39.7235 33.9916C39.7235 25.474 32.8187 18.5693 24.3012 18.5693ZM24.3012 45.192C18.1153 45.192 13.1007 40.1774 13.1007 33.9915C13.1007 27.8056 18.1153 22.791 24.3012 22.791C30.4871 22.791 35.5017 27.8056 35.5017 33.9915C35.5017 40.1774 30.4871 45.192 24.3012 45.192Z" fill="#FFC556"/>
<path d="M22.0117 18.7396C22.1805 18.98 22.4587 19.1387 22.7731 19.1387H26.056C26.3554 19.1387 26.62 18.9932 26.7906 18.7721C25.9801 18.6405 25.1493 18.5693 24.3015 18.5693C23.5234 18.5693 22.759 18.6284 22.0117 18.7396Z" fill="#FFD672"/>
<g opacity="0.6">
<path d="M24.3012 48.5612C15.9268 48.5612 9.11619 41.8851 8.88967 33.5654C8.88585 33.7076 8.87891 33.8489 8.87891 33.9918C8.87891 42.5093 15.7837 49.4141 24.3012 49.4141C32.8187 49.4141 39.7235 42.5093 39.7235 33.9918C39.7235 33.8488 39.7165 33.7075 39.7127 33.5654C39.4862 41.8851 32.6756 48.5612 24.3012 48.5612Z" fill="#FF883D"/>
</g>
<path d="M24.3012 20.1577C32.5524 20.1577 39.29 26.6374 39.7034 34.7858C39.7167 34.5227 39.7235 34.258 39.7235 33.9916C39.7235 25.4741 32.8187 18.5693 24.3012 18.5693C15.7837 18.5693 8.87891 25.4741 8.87891 33.9916C8.87891 34.258 8.88561 34.5228 8.89904 34.7858C9.31237 26.6374 16.05 20.1577 24.3012 20.1577Z" fill="#FFE5BD"/>
<path d="M35.4884 34.5137C35.2156 40.4571 30.3119 45.1922 24.3011 45.1922C18.2903 45.1922 13.3866 40.4571 13.1138 34.5137C13.1097 34.6259 13.1006 34.7369 13.1006 34.8503C13.1006 41.0361 18.1152 46.0508 24.3011 46.0508C30.487 46.0508 35.5016 41.0361 35.5016 34.8503C35.5016 34.7371 35.4925 34.6259 35.4884 34.5137Z" fill="#FFD672"/>
<path d="M39.7234 33.9918C39.7234 32.83 39.5907 31.6997 39.3472 30.6113C38.7072 31.4367 37.5427 32.5337 35.4888 33.4792C35.4964 33.6492 35.5017 33.82 35.5017 33.9918C35.5017 40.1777 30.4871 45.1924 24.3012 45.1924C18.1155 45.1924 13.101 40.178 13.1007 33.9924C11.4317 33.4729 10.0691 32.8728 8.97568 32.2798C8.91352 32.8422 8.87891 33.4129 8.87891 33.9918C8.87891 42.5093 15.7837 49.4141 24.3012 49.4141C32.8186 49.4141 39.7234 42.5093 39.7234 33.9918Z" fill="#FFE5BD"/>
<path d="M26.8313 3.30957L26.3269 4.38591H22.2354L21.7764 3.30957H26.8313Z" fill="#FF899A"/>
<path d="M26.8316 3.30957L26.3271 4.38591L30.1458 8.66462L34.5965 6.8504L26.8316 3.30957Z" fill="#EB2345"/>
<path d="M26.3275 4.38574H24.2598L24.3297 9.54402L30.1461 8.66446L26.3275 4.38574Z" fill="#FF1D4E"/>
<path d="M34.5968 6.85059L30.146 8.66481L24.3037 18.9907L34.5968 6.85059Z" fill="#CE1134"/>
<path d="M30.1461 8.66455L24.2363 9.5433L24.3038 18.9905L30.1461 8.66455Z" fill="#EE1144"/>
<path d="M21.7718 3.30957L22.2762 4.38591L18.4576 8.66462L14.0068 6.8504L21.7718 3.30957Z" fill="#FF688B"/>
<path d="M22.2756 4.38574L24.3619 4.39072L24.353 9.5424L18.457 8.66446L22.2756 4.38574Z" fill="#FF4761"/>
<path d="M14.0068 6.85059L18.4576 8.66481L24.2999 18.9907L14.0068 6.85059Z" fill="#FF4968"/>
<path d="M18.457 8.66455L24.3669 9.5433L24.2994 18.9905L18.457 8.66455Z" fill="#FF2455"/>
<path d="M21.6436 3.22021L22.2428 4.38186L22.2351 4.37711L24.2808 4.37132L26.3266 4.37734L26.3191 4.38209L26.831 3.30922L26.3341 4.38915C26.3327 4.39216 26.3297 4.39389 26.3266 4.39389L24.2808 4.39991L22.2351 4.39424C22.2318 4.39424 22.2289 4.39227 22.2275 4.38949L21.6436 3.22021Z" fill="#FF869C"/>
<path d="M14.0068 6.85059C14.7533 7.14146 15.494 7.4468 16.2376 7.74439C16.9775 8.05146 17.7205 8.3509 18.4576 8.66493C17.7111 8.37405 16.9704 8.06883 16.2268 7.77113C15.4869 7.46393 14.7439 7.16449 14.0068 6.85059Z" fill="#FFFBEF"/>
<path d="M18.458 8.66504L19.2008 9.96338L19.9358 11.266L21.4052 13.8716L22.8578 16.4867L23.5839 17.7943L24.302 19.1064L23.5591 17.8082L22.8242 16.5054L21.3548 13.8998L19.9023 11.2847L19.1762 9.97715L18.458 8.66504Z" fill="#FFF0FF"/>
<path d="M34.5959 6.85059L32.2924 7.75712L29.9856 8.65486L29.9813 8.65601L27.1769 9.11669L24.3707 9.56671C24.3683 9.56706 24.3657 9.56706 24.3634 9.56671L21.4095 9.12039L18.457 8.66469L21.4144 9.08775L24.3703 9.52018H24.3632L27.1681 9.06194L29.9747 8.61434L29.9705 8.6155L32.2816 7.72865L34.5959 6.85059Z" fill="#FFF0FF"/>
<path d="M22.2361 4.38574C21.6157 5.10708 20.9837 5.81812 20.3579 6.53459C19.7244 7.24435 19.097 7.95956 18.458 8.66434C19.0783 7.94301 19.7104 7.23197 20.3362 6.51549C20.9697 5.80585 21.5971 5.09064 22.2361 4.38574Z" fill="#FFC9D1"/>
<path d="M26.7641 18.9858H22.0648C21.9422 18.9858 21.8418 18.8855 21.8418 18.7628V17.0854C21.8418 16.9627 21.9422 16.8623 22.0648 16.8623H26.7641C26.8868 16.8623 26.9871 16.9627 26.9871 17.0854V18.7628C26.9871 18.8855 26.8868 18.9858 26.7641 18.9858Z" fill="#FFC556"/>
<path d="M26.6434 18.6801H22.533C22.3221 18.6801 22.1257 18.6149 21.9629 18.5039C22.1223 18.7897 22.4243 18.9863 22.7731 18.9863H26.0561C26.3324 18.9863 26.5788 18.862 26.7498 18.6693C26.7142 18.673 26.6797 18.6801 26.6434 18.6801Z" fill="#FFD672"/>
<path d="M26.0559 16.8623H22.773C22.2608 16.8623 21.8418 17.2813 21.8418 17.7935V18.0546C21.8418 18.0728 21.8462 18.0898 21.8473 18.1079C21.8756 17.6208 22.2791 17.2299 22.7731 17.2299H26.056C26.55 17.2299 26.9535 17.6208 26.9819 18.1079C26.9829 18.0899 26.9874 18.0729 26.9874 18.0546V17.7935C26.9871 17.2814 26.5681 16.8623 26.0559 16.8623Z" fill="#FFE5BD"/>
<path d="M35.763 2.72826C35.799 3.2019 36.1755 3.5782 36.6491 3.61431L39.2123 3.80934L36.6785 4.00218C36.1922 4.03922 35.8106 4.43427 35.7905 4.92156L35.568 10.3237L35.3456 4.92156C35.3255 4.43427 34.9439 4.03922 34.4576 4.00218L31.9238 3.80934L34.4871 3.61431C34.9607 3.57831 35.337 3.2019 35.3731 2.72826L35.5681 0.165039L35.763 2.72826Z" fill="#FFF1FF"/>
<path d="M18.871 7.56985C18.9047 8.01305 19.257 8.36527 19.7001 8.39895L21.0605 8.50243L19.7277 8.60382C19.2726 8.63843 18.9155 9.00824 18.8968 9.46417L18.7676 12.6013L18.6384 9.46417C18.6196 9.00813 18.2624 8.63843 17.8074 8.60382L16.4746 8.50243L17.835 8.39895C18.2782 8.36527 18.6304 8.01305 18.6641 7.56985L18.7676 6.20947L18.871 7.56985Z" fill="#FFF1FF"/>
<path d="M39.3202 6.80967C39.3494 7.19314 39.6542 7.49791 40.0376 7.52708L41.2492 7.61921L40.0615 7.70961C39.6677 7.73959 39.3588 8.05951 39.3426 8.45398L39.2281 11.232L39.1136 8.45398C39.0974 8.0594 38.7884 7.73959 38.3947 7.70961L37.207 7.61921L38.4186 7.52708C38.802 7.49791 39.1068 7.19314 39.136 6.80967L39.2281 5.59814L39.3202 6.80967Z" fill="#FFF1FF"/>
</svg>
