<svg width="48" height="50" viewBox="0 0 48 50" fill="none" xmlns="http://www.w3.org/2000/svg">
<g clip-path="url(#clip0_761_6932)">
<path d="M33.6127 25.4104C33.6127 25.4104 35.1515 24.0996 36.0849 24.1224C36.0849 24.1224 38.8171 23.6283 40.7295 26.6682C40.7295 26.6682 43.0519 30.6164 43.5072 31.9334L45.8067 37.7234C45.8067 37.7234 46.2992 38.8604 46.6323 39.4526C46.6323 39.4526 47.4923 41.0004 47.4923 39.6968C47.4923 39.6415 47.1952 38.6608 47.1952 38.6608L43.811 29.4696L40.1851 23.6235L36.0152 22.4482L32.1475 24.3166L33.6125 25.4104H33.6127Z" fill="#FFD81D"/>
<path d="M47.3111 40.2276C47.0564 40.2276 46.6432 39.4896 46.6251 39.4569C46.2956 38.8712 45.8041 37.7384 45.7992 37.727L43.4995 31.9366C43.0495 30.6352 40.7456 26.7122 40.7224 26.6727C40.2871 25.9806 39.7724 25.4162 39.1927 24.9954C38.7291 24.6587 38.2231 24.4127 37.6888 24.2639C36.7789 24.0107 36.0933 24.1297 36.0866 24.1308H36.0858H36.0849C36.077 24.1307 36.0692 24.1305 36.0613 24.1305C35.1393 24.1305 33.6335 25.4039 33.6184 25.4168L33.6134 25.4212L33.608 25.4172L32.1318 24.3152L32.1443 24.3091L36.0149 22.4395L36.0179 22.4403L40.191 23.6164L40.1926 23.6192L43.8191 29.466L43.8194 29.4669L47.2036 38.6581C47.2159 38.6986 47.5012 39.6411 47.5012 39.6969C47.5012 40.0191 47.4474 40.1963 47.3415 40.2236C47.3318 40.2261 47.3217 40.2273 47.3115 40.2273L47.3111 40.2276ZM36.525 24.0852C36.8137 24.0852 37.2234 24.1171 37.6925 24.2476C38.2289 24.3968 38.7368 24.6438 39.2021 24.9816C39.7837 25.4038 40.3 25.9698 40.7369 26.6641C40.7603 26.7038 43.065 30.6282 43.5153 31.931L45.8146 37.7206C45.8195 37.7317 46.3107 38.8639 46.6397 39.4489C46.6442 39.4571 47.0986 40.2692 47.3368 40.2077C47.4345 40.1825 47.4839 40.0108 47.4839 39.6971C47.4839 39.6543 47.2898 39.0023 47.1871 38.6634L43.8033 29.4736L40.1795 23.6309L36.0159 22.4574L32.1634 24.3183L33.612 25.3999C33.711 25.3168 35.1856 24.0928 36.0841 24.1141C36.0975 24.1117 36.2604 24.0851 36.5245 24.0851L36.525 24.0852Z" fill="#683C11"/>
<path d="M32.2798 23.6611C32.4137 23.3662 32.9989 23.0563 33.251 22.8866C35.3536 21.4705 38.5826 20.9396 40.5662 22.8463C40.8964 23.1636 41.1765 23.5304 41.4101 23.9232C43.1922 26.8416 44.7304 29.9116 45.8287 33.1521C46.01 33.6872 46.1805 34.2258 46.3408 34.7674C46.7055 35.9998 47.0543 37.24 47.325 38.4967C47.325 38.4967 47.66 40.2856 47.1082 38.9684C46.4112 37.3052 45.8429 35.5853 45.1985 33.9013C44.6849 32.559 44.0947 31.2383 43.551 29.9071C43.1847 29.0101 42.7826 28.1234 42.2748 27.2959C41.7949 26.5136 41.2078 25.7775 40.5982 25.0916C40.1304 24.5654 39.6061 24.077 38.9829 23.7392C38.3371 23.3891 37.6123 23.1966 36.8815 23.1379C35.4885 23.0261 33.7467 23.585 32.7597 24.6094C32.1077 25.2861 31.6938 24.952 31.6938 24.952C31.6938 24.952 32.2796 23.6616 32.2798 23.6611Z" fill="#F0DC9E"/>
<path d="M47.3846 39.4608C47.3482 39.4608 47.2774 39.3941 47.1005 38.9716C46.6641 37.9303 46.2719 36.8494 45.8927 35.804C45.6662 35.1796 45.4319 34.5341 45.1908 33.9042C44.8689 33.0631 44.5113 32.2167 44.1653 31.3984C43.9593 30.911 43.7464 30.4071 43.5434 29.9101C43.2415 29.1707 42.8236 28.2058 42.2679 27.3001C41.8443 26.6096 41.2962 25.889 40.5921 25.0969C40.0348 24.4698 39.5221 24.0407 38.979 23.7464C38.367 23.4147 37.6417 23.2071 36.881 23.1461C36.1917 23.0908 35.4068 23.2006 34.6712 23.4553C33.8976 23.7233 33.2387 24.1243 32.7659 24.6151C32.4271 24.9667 32.1529 25.0418 31.9825 25.0426C31.9813 25.0426 31.9802 25.0426 31.979 25.0426C31.7953 25.0426 31.693 24.9617 31.6886 24.9581L31.6836 24.9541L31.6863 24.9483C31.7841 24.7328 32.272 23.6577 32.2722 23.6572C32.3803 23.4191 32.7736 23.1751 33.0609 22.997C33.1334 22.9521 33.1959 22.9132 33.2465 22.8793C34.3412 22.1422 35.6922 21.6801 36.9529 21.6118C38.4032 21.5332 39.6545 21.958 40.5723 22.8399C40.888 23.1434 41.1723 23.5062 41.4175 23.9185C43.3695 27.1152 44.8151 30.1347 45.8369 33.1491C46.0157 33.6764 46.1879 34.2199 46.3491 34.7647C46.6944 35.932 47.0526 37.1917 47.3334 38.4947C47.3512 38.5902 47.5044 39.4262 47.3934 39.4594C47.3907 39.4602 47.3878 39.4608 47.3848 39.4608H47.3846ZM36.5234 23.1154C36.6452 23.1154 36.765 23.1201 36.8822 23.1295C37.645 23.1907 38.3729 23.399 38.9869 23.7318C39.5318 24.0271 40.0459 24.4574 40.6046 25.086C41.3093 25.8788 41.8579 26.6003 42.2822 27.2915C42.8385 28.1983 43.2568 29.1639 43.5589 29.9039C43.7619 30.4008 43.9748 30.9047 44.1808 31.392C44.5268 32.2106 44.8845 33.0571 45.2064 33.8985C45.4476 34.5284 45.6818 35.1741 45.9085 35.7985C46.2877 36.8437 46.6799 37.9244 47.1161 38.9652C47.2974 39.3979 47.3648 39.4507 47.3885 39.4435C47.4613 39.4219 47.3831 38.8521 47.3169 38.4982C47.0363 37.1961 46.6782 35.9367 46.3329 34.7697C46.1718 34.2251 45.9995 33.6818 45.8209 33.1546C44.7996 30.1414 43.3546 27.1231 41.403 23.9274C41.1586 23.5163 40.8751 23.1547 40.5605 22.8522C39.6463 21.9734 38.3991 21.5503 36.9537 21.6287C35.6958 21.6969 34.3481 22.1577 33.2557 22.8934C33.205 22.9276 33.1423 22.9665 33.0697 23.0114C32.7842 23.1885 32.3934 23.431 32.2873 23.6644C32.286 23.6673 31.7478 24.8531 31.7041 24.9493C31.7269 24.9652 31.8239 25.0262 31.9788 25.0262C31.9803 25.0262 31.9818 25.0262 31.9834 25.0262C32.1502 25.0248 32.4194 24.9506 32.7534 24.6037C33.2281 24.111 33.8893 23.7085 34.6655 23.4397C35.2783 23.2276 35.9254 23.1156 36.5234 23.1156V23.1154Z" fill="#683C11"/>
<g opacity="0.8">
<path d="M40.5152 23.9655C40.2441 23.6719 39.9489 23.3999 39.6291 23.1601L39.5994 23.1373C39.5893 23.1299 39.5791 23.1229 39.5688 23.1157L39.5075 23.0726L39.4462 23.0295C39.4258 23.0151 39.4053 23.0007 39.384 22.9876L39.2578 22.9069L39.2262 22.8866L39.1938 22.8677L39.1289 22.83C39.0434 22.7782 38.9538 22.7336 38.8656 22.687C38.8209 22.6647 38.7752 22.6443 38.7302 22.623C38.7075 22.6126 38.685 22.6015 38.6621 22.5915L38.5929 22.5628L38.5237 22.5342C38.5006 22.5245 38.4776 22.5149 38.4539 22.5067L38.3131 22.4556C38.2659 22.4392 38.2178 22.4253 38.1705 22.41C38.1466 22.4028 38.1229 22.3944 38.0989 22.3882L38.0265 22.3689C37.9303 22.3416 37.8324 22.3219 37.7348 22.3011L37.5872 22.2754C37.5627 22.2707 37.5378 22.2681 37.5131 22.2647L37.4389 22.255C37.2406 22.2312 37.0408 22.2203 36.8412 22.2223C36.6415 22.2255 36.4421 22.2416 36.2443 22.2691C36.0465 22.2967 35.8503 22.3349 35.657 22.3849C35.4636 22.4346 35.2729 22.4943 35.0854 22.5625C34.7102 22.6989 34.3476 22.8692 33.9996 23.0647C33.6514 23.2601 33.3175 23.4803 32.9983 23.7198C32.8385 23.8393 32.6829 23.9641 32.531 24.0935C32.3798 24.2232 32.2309 24.3571 32.0917 24.4982L32.0907 24.4992L32.0899 24.5L31.7105 24.8181L31.6782 24.7796L32.0593 24.4633L32.0575 24.4652C32.1998 24.3224 32.3492 24.1894 32.5021 24.0597C32.6553 23.9304 32.8123 23.8058 32.9734 23.6866C33.2952 23.4478 33.6316 23.2283 33.9823 23.0339C34.3328 22.8393 34.6977 22.6701 35.0755 22.535C35.2644 22.4675 35.4562 22.4085 35.6508 22.3594C35.8454 22.3103 36.0427 22.2728 36.2415 22.2461C36.4402 22.2196 36.6407 22.2044 36.8413 22.2022C37.042 22.2012 37.2426 22.2129 37.4415 22.2379L37.5161 22.248C37.541 22.2515 37.5659 22.2542 37.5906 22.259L37.7386 22.2855C37.8366 22.3069 37.9347 22.3272 38.0312 22.355L38.1037 22.3746C38.1279 22.381 38.1516 22.3896 38.1755 22.3969C38.2231 22.4125 38.2713 22.4266 38.3185 22.4434L38.4595 22.4953C38.4832 22.5035 38.5062 22.5134 38.5292 22.5231L38.5984 22.5523L38.6677 22.5814C38.6905 22.5917 38.713 22.6027 38.7357 22.6134C38.7809 22.6351 38.8265 22.6558 38.8712 22.6783C38.9595 22.7254 39.0489 22.7705 39.1343 22.8229L39.199 22.861L39.2312 22.8801L39.2628 22.9005L39.3889 22.9821C39.41 22.9954 39.4305 23.0098 39.4509 23.0244L39.512 23.0678L39.5732 23.1112C39.5833 23.1185 39.5937 23.1256 39.6038 23.1329L39.6335 23.1559C39.9526 23.3975 40.2463 23.671 40.516 23.966L40.5152 23.9655Z" fill="#A48A7B"/>
</g>
<path d="M32.0734 24.482C32.3732 23.3058 32.6518 22.1222 32.9298 20.9357C33.3862 18.8859 33.5433 16.7694 33.5882 14.6742C33.6275 12.8395 33.6618 10.9289 33.2921 9.1268C32.9525 7.47045 32.3051 5.87812 31.4149 4.44046C30.4603 2.89907 29.0717 1.39404 27.2018 1.02068C24.3725 0.455603 23.269 3.7812 23.0269 5.92739C22.7251 8.60245 22.6043 11.3067 22.5361 13.9971C22.3771 17.1987 21.3607 20.9357 21.3607 20.9357C21.3607 20.9357 19.6301 25.6357 18.2935 27.1355L27.5675 36.1345C27.4813 36.0508 29.4583 32.3331 29.5749 32.0677C30.6554 29.6086 31.4152 27.0633 32.0732 24.482H32.0734Z" fill="#F3E0B2"/>
<path d="M27.5888 36.1429L27.5678 36.1424C27.5678 36.1424 27.567 36.1424 27.5629 36.1389L27.5619 36.14C27.5604 36.1385 27.5587 36.137 27.5576 36.134C27.5167 36.0961 27.3013 35.8872 26.1128 34.7339L18.2822 27.1354L18.2876 27.1293C19.608 25.6478 21.3359 20.9794 21.3532 20.9323C21.3631 20.8956 22.3709 17.1602 22.528 13.9962C22.6358 9.7442 22.847 7.44971 23.0189 5.92592C23.1153 5.07126 23.3277 4.20237 23.6171 3.47977C23.9871 2.5554 24.4702 1.87168 25.0531 1.44721C25.6718 0.996921 26.3953 0.850289 27.2039 1.01184C28.0665 1.18411 28.8921 1.61277 29.6576 2.28577C30.2891 2.84096 30.8829 3.56423 31.4225 4.43547C32.332 5.90413 32.964 7.48172 33.3009 9.12449C33.6768 10.9575 33.6344 12.9317 33.5971 14.6737C33.5437 17.1688 33.3343 19.1591 32.9386 20.937C32.6417 22.2035 32.3723 23.3444 32.082 24.4834C31.5451 26.5901 30.7759 29.3563 29.5834 32.0704C29.5499 32.1466 29.3686 32.4967 29.1177 32.9812C28.5634 34.0518 27.5314 36.0447 27.5744 36.1283L27.5892 36.1427L27.5888 36.1429ZM18.3054 27.1347C18.5739 27.3953 27.1311 35.6988 27.5572 36.1122C27.5673 36.0484 27.6525 35.8262 28.078 34.9744C28.3944 34.3409 28.8037 33.5506 29.1025 32.9738C29.3437 32.5078 29.5343 32.1398 29.5676 32.064C30.7596 29.3511 31.5287 26.5857 32.0654 24.4797C32.3555 23.3409 32.6249 22.2 32.9218 20.9336C33.3174 19.1569 33.5266 17.1676 33.58 14.6737C33.6173 12.9327 33.6596 10.9593 33.2841 9.12818C32.9477 7.48725 32.3164 5.9115 31.4078 4.44452C30.8691 3.57462 30.2765 2.85269 29.6462 2.29851C28.883 1.62752 28.06 1.20019 27.2003 1.02843C26.3966 0.867885 25.6775 1.01334 25.0628 1.46095C24.4824 1.88341 24.0012 2.56479 23.6325 3.48614C23.3438 4.20756 23.1318 5.07478 23.0355 5.92793C22.7082 8.82838 22.6013 11.7637 22.5449 13.997C22.3877 17.1631 21.3794 20.9003 21.3691 20.9376C21.3517 20.9852 19.6272 25.6442 18.3054 27.1347Z" fill="#432918"/>
<path d="M26.0283 9.45616L26.4469 9.36081C26.4469 9.36081 26.2743 9.35578 26.0285 9.35059C26.0285 9.38578 26.0285 9.42097 26.0285 9.45599L26.0283 9.45616Z" fill="#F3E0B2"/>
<path d="M26.2354 12.8455L25.8834 12.667C25.8809 12.6962 25.8782 12.7251 25.8755 12.7541L26.2354 12.8453V12.8455Z" fill="#F3E0B2"/>
<path d="M25.9534 15.3569L25.5719 15.2207C25.5684 15.2428 25.5651 15.2649 25.5615 15.2869L25.9534 15.3569Z" fill="#F3E0B2"/>
<path d="M26.4504 26.4482L26.3342 26.4556C26.1931 26.8788 26.2564 26.8415 26.4504 26.4482Z" fill="#DCC999"/>
<path d="M29.2369 21.3087L29.2625 21.0605C29.2462 21.138 29.2297 21.2152 29.2129 21.2923L29.2369 21.3087Z" fill="#F3E0B2"/>
<path d="M30.0154 2.81641C30.5259 3.74982 31.5389 7.08816 31.6935 8.26607C32.7126 16.03 29.6273 22.8003 26.7744 28.2408L30.6966 27.7917C32.9242 20.2847 34.3844 9.55006 30.0154 2.81641Z" fill="#DCC999"/>
<path d="M25.7748 4.95808C25.7485 4.73018 25.7197 4.50093 25.6888 4.27051H25.1457C25.1323 4.48702 25.1178 4.71493 25.1021 4.95306C25.3099 4.9487 25.5614 4.95255 25.7748 4.95808Z" fill="#FFF2CE"/>
<path d="M24.4736 11.9536L25.8831 12.6677C25.9278 12.1581 25.9631 11.6364 25.9876 11.1035H24.5697C24.5388 11.3854 24.5069 11.6691 24.4736 11.9536Z" fill="#FFF2CE"/>
<path d="M24.1133 14.6993L25.572 15.2203C25.6355 14.8142 25.694 14.3981 25.746 13.9727H24.217C24.1833 14.2156 24.1487 14.458 24.1133 14.6993Z" fill="#FFF2CE"/>
<path d="M25.2766 1.79785C25.2766 1.79785 25.2587 2.26473 25.2158 3.06408H25.5085C25.4391 2.6458 25.362 2.22367 25.2768 1.79785H25.2766Z" fill="#FFF2CE"/>
<path d="M25.5371 3.24121L25.1994 3.36304C25.1858 3.60771 25.1702 3.877 25.1523 4.16809C25.3076 4.12737 25.4898 4.08128 25.6581 4.04257C25.621 3.77713 25.5805 3.51001 25.5371 3.24121Z" fill="#FFF2CE"/>
<path d="M24.2593 13.6605H25.7828C25.8168 13.3632 25.8475 13.0611 25.8751 12.7549L24.4219 12.3867C24.3705 12.8109 24.3164 13.2362 24.2593 13.6605Z" fill="#FFF2CE"/>
<path d="M21.2861 23.9051L22.2938 25.5227C22.2938 25.5227 23.0253 24.261 23.8405 22.0111L22.6383 21.4277C22.2449 22.5574 21.7964 23.4283 21.2861 23.9049V23.9051Z" fill="#FFF2CE"/>
<path d="M23.8438 16.3897L25.3365 16.5653C25.4169 16.151 25.4921 15.7245 25.5615 15.2867L24.0656 15.0195C23.9955 15.4819 23.9215 15.9397 23.8439 16.3897H23.8438Z" fill="#FFF2CE"/>
<path d="M23.0107 20.2264H24.4323C24.5912 19.7003 24.7475 19.1396 24.8964 18.5459H23.4246C23.2952 19.1358 23.1574 19.699 23.0107 20.2264Z" fill="#FFF2CE"/>
<path d="M23.5693 17.8595L24.9998 18.1243C25.0862 17.7623 25.1693 17.3889 25.2486 17.0045L23.7851 16.7236C23.7162 17.1094 23.6443 17.4888 23.5693 17.8595Z" fill="#FFF2CE"/>
<path d="M24.71 9.75636C24.6763 10.0989 24.6408 10.4459 24.6035 10.7958H26.0012C26.018 10.3568 26.0272 9.91003 26.0284 9.45605L24.71 9.75619V9.75636Z" fill="#FFF2CE"/>
<path d="M25.9481 6.88379H24.9626C24.9384 7.19364 24.9123 7.51238 24.8848 7.83882H25.998C25.9855 7.5236 25.9689 7.20521 25.9481 6.88379Z" fill="#FFF2CE"/>
<path d="M25.8363 5.52954L25.076 5.33984C25.0498 5.72276 25.0205 6.12847 24.9883 6.55311L25.9158 6.42559C25.893 6.12931 25.8666 5.83068 25.8363 5.52954Z" fill="#FFF2CE"/>
<path d="M22.6514 21.3891L23.921 21.7859C24.0598 21.3943 24.2004 20.9745 24.3397 20.5281L22.9955 20.2812C22.8858 20.672 22.7712 21.0426 22.6515 21.3893L22.6514 21.3891Z" fill="#FFF2CE"/>
<path d="M26.0284 9.35072C26.0284 9.11778 26.0262 8.88284 26.0218 8.64622L24.838 8.38379C24.8103 8.69783 24.7809 9.01774 24.75 9.34234C25.1128 9.33446 25.655 9.34284 26.0284 9.35072Z" fill="#FFF2CE"/>
<path d="M28.022 7.37614L27.9854 7.38452C28.0253 7.72152 28.064 8.10075 28.0968 8.51803L28.1751 8.48133C28.1304 8.11651 28.0796 7.74817 28.022 7.37598V7.37614Z" fill="#FFF2CE"/>
<path d="M26.6465 20.9884L27.3912 20.8602C27.5401 20.2819 27.6795 19.6737 27.8051 19.0371H27.2082C27.0462 19.6778 26.8599 20.3291 26.6465 20.9884Z" fill="#FFF2CE"/>
<path d="M27.3994 18.2354C27.5942 18.2378 27.7884 18.2306 27.9548 18.2207C28.0176 17.8534 28.0754 17.4775 28.1273 17.0934L27.6721 16.8906C27.5925 17.332 27.5017 17.7806 27.3994 18.2354Z" fill="#FFF2CE"/>
<path d="M27.7036 16.7144H28.1768C28.2477 16.1425 28.3053 15.5528 28.3477 14.9463H27.9627C27.8945 15.5197 27.8093 16.11 27.7036 16.7144Z" fill="#FFF2CE"/>
<path d="M28 14.6182L28.3574 14.8025C28.3952 14.2259 28.4187 13.634 28.4261 13.0278L28.1376 12.9707C28.1067 13.5006 28.0618 14.0506 28.0002 14.6182H28Z" fill="#FFF2CE"/>
<path d="M27.7729 5.96043C27.7264 5.70956 27.6953 5.57617 27.6953 5.57617C27.722 5.7047 27.7477 5.83274 27.7729 5.96043Z" fill="#FFF2CE"/>
<path d="M27.7729 5.95996C27.823 6.22993 27.8909 6.63597 27.9578 7.16033H27.988C27.9242 6.76417 27.8524 6.36399 27.7729 5.95996Z" fill="#FFF2CE"/>
<path d="M22.9053 28.6383L24.4204 28.1828C24.4204 28.1828 25.2545 26.9159 26.1616 24.6387L25.0413 24.9629C24.4424 26.1866 23.7362 27.4171 22.9053 28.6381V28.6383Z" fill="#FFF2CE"/>
<path d="M28.3731 10.6759L28.1934 10.7515C28.1982 11.3319 28.1881 11.9506 28.1572 12.6021L28.4286 12.5017C28.4266 11.9061 28.4089 11.2973 28.3731 10.6758V10.6759Z" fill="#FFF2CE"/>
<path d="M26.0112 22.7609C26.2971 22.7692 26.6077 22.7493 26.8497 22.7269C26.9848 22.3089 27.1172 21.8694 27.2444 21.4092L26.4493 21.5763C26.3134 21.9689 26.1673 22.3639 26.0112 22.7609Z" fill="#FFF2CE"/>
<path d="M28.2006 8.69238H28.1104C28.1475 9.19998 28.1755 9.76087 28.1878 10.3673L28.3587 10.4431C28.3217 9.86996 28.2695 9.28611 28.2006 8.69238Z" fill="#FFF2CE"/>
<path d="M25.25 24.5278C25.5514 24.5397 25.9167 24.5248 26.2143 24.5062C26.3501 24.1606 26.487 23.7928 26.6228 23.4033H25.7504C25.5933 23.777 25.4266 24.1519 25.25 24.5278Z" fill="#FFF2CE"/>
<path d="M28.0645 22.2899L28.8809 22.6456C29.0019 22.2089 29.1123 21.7556 29.2131 21.2929L28.5297 20.8242C28.3753 21.3352 28.219 21.8255 28.0645 22.2899Z" fill="#DCC999"/>
<path d="M26.4507 26.4486L27.0608 26.4102C27.5957 25.8858 28.0414 25.0722 28.413 24.0938C28.3157 24.0968 27.8205 24.1112 27.4212 24.112C27.0097 25.2107 26.6567 26.0308 26.4509 26.4486H26.4507Z" fill="#DCC999"/>
<path d="M29.4556 17.3204H29.857C29.8968 16.9826 29.9326 16.6516 29.9649 16.3311H29.6658C29.5994 16.6634 29.529 16.9935 29.4557 17.3204H29.4556Z" fill="#DCC999"/>
<path d="M30.2455 12.168C30.1961 12.8731 30.1173 13.5854 30.0156 14.2962L30.139 14.2575C30.2252 12.9945 30.2455 12.168 30.2455 12.168Z" fill="#DCC999"/>
<path d="M30.107 14.7109L29.9327 14.848C29.8647 15.2755 29.7887 15.7017 29.7065 16.1245L29.9977 15.9964C30.0411 15.5408 30.0772 15.1091 30.1071 14.7109H30.107Z" fill="#DCC999"/>
<path d="M27.6689 23.435L28.6995 23.2619C28.7591 23.0715 28.8166 22.8768 28.8719 22.6787H27.9334C27.844 22.9405 27.7556 23.1927 27.6689 23.4348V23.435Z" fill="#DCC999"/>
<path d="M28.6016 20.585H29.3117L29.2626 21.0611C29.3685 20.5558 29.4632 20.0414 29.5479 19.5274L28.9857 19.2256C28.861 19.6911 28.7321 20.1453 28.6016 20.585Z" fill="#DCC999"/>
<path d="M29.0358 19.0382H29.6258C29.6958 18.5801 29.7582 18.1249 29.8135 17.6797L29.3026 17.9793C29.2168 18.3374 29.1274 18.6909 29.0356 19.0382H29.0358Z" fill="#DCC999"/>
<g opacity="0.6">
<path d="M30.9365 22.4053L31.7826 22.0277C31.801 21.9262 31.8189 21.8255 31.8362 21.7256H31.1684C31.0914 21.9579 31.0138 22.1849 30.9367 22.4053H30.9365Z" fill="#958879"/>
</g>
<g opacity="0.6">
<path d="M32.3013 16.7998C32.273 17.2328 32.2093 17.6985 32.1201 18.1812H32.2507C32.3044 17.3213 32.3013 16.7998 32.3013 16.7998Z" fill="#958879"/>
</g>
<g opacity="0.6">
<path d="M31.6064 20.3129L32.0386 20.3799C32.0679 20.1542 32.0937 19.9355 32.1169 19.725L31.7825 19.6719C31.7266 19.8859 31.6676 20.0999 31.6064 20.313V20.3129Z" fill="#958879"/>
</g>
<g opacity="0.6">
<path d="M30.4688 23.6835H31.4312C31.5235 23.3051 31.606 22.9311 31.6798 22.5645L30.728 22.9891C30.6388 23.2338 30.5518 23.466 30.4688 23.6834V23.6835Z" fill="#958879"/>
</g>
<g opacity="0.6">
<path d="M29.7671 25.4185L30.8159 25.7979C31.0132 25.2236 31.1843 24.6461 31.3326 24.076L30.4098 23.8379C30.0413 24.7936 29.7671 25.4185 29.7671 25.4185Z" fill="#958879"/>
</g>
<g opacity="0.6">
<path d="M31.3042 21.3094H31.9052C31.9246 21.1872 31.9431 21.0664 31.9605 20.9473H31.418C31.3805 21.0688 31.3425 21.1896 31.3042 21.3094Z" fill="#958879"/>
</g>
<g opacity="0.6">
<path d="M32.2466 18.2402L32.0971 18.3024C32.0423 18.5873 31.9788 18.8775 31.9087 19.1698L32.1802 19.0952C32.2085 18.7844 32.23 18.4978 32.2466 18.2402Z" fill="#958879"/>
</g>
<path d="M22.6937 26.8253L21.8095 23.1403L20.0363 20.7087L16.8728 19.6035L13.9712 19.7843L11.7589 20.3871L8.91379 21.9144L5.12568 25.0895L1.23676 29.4704L0.636719 30.3886C0.636719 30.3886 1.07377 30.7525 1.6523 30.3581C1.6523 30.3581 3.03319 29.184 3.95299 28.266C4.40348 27.8166 4.88304 27.3974 5.38697 27.0085C7.11014 25.6788 10.7327 23.0531 12.9407 22.6632C12.9407 22.6632 17.6533 21.4264 18.6453 24.2093C18.6453 24.2093 19.2654 25.9408 17.1882 28.8473C15.7698 31.2083 14.2135 33.6015 12.3265 35.6173C10.0428 38.057 7.24305 39.9969 4.97546 42.4639C4.97546 42.4639 4.12757 43.5621 3.95736 43.7317C3.95736 43.7317 2.7882 44.89 2.31317 45.1098C2.31317 45.1098 1.59114 45.5858 1.0531 45.8621C0.799373 45.9925 0.667637 46.278 0.731152 46.5556C0.845246 47.0531 1.07965 47.8079 1.52544 48.3445C1.52544 48.3445 1.89107 48.7091 2.12834 49.0263C2.27553 49.2231 2.52607 49.3136 2.76602 49.2593L5.82234 48.5675C5.82234 48.5675 6.5348 48.4162 7.12307 48.5311C10.6129 49.2135 14.4259 48.9826 17.5708 47.1255C20.5905 45.3421 23.302 42.7262 25.3029 39.8626C25.5022 39.5776 25.6948 39.2878 25.8798 38.9932C26.6452 37.7744 27.4208 36.5593 28.242 35.3769C28.248 35.3682 28.2541 35.3596 28.2601 35.3509L28.6367 28.1772L22.6936 26.8255L22.6937 26.8253Z" fill="#FFE87E"/>
<path d="M2.62725 49.2831C2.43048 49.2831 2.24178 49.1918 2.12181 49.0313C1.88774 48.7182 1.52345 48.3541 1.51975 48.3504C1.07951 47.8205 0.843593 47.083 0.723115 46.5575C0.658422 46.2756 0.79268 45.9865 1.04943 45.8546C1.58092 45.5816 2.3016 45.1076 2.30866 45.1029C2.77814 44.8854 3.93991 43.7373 3.95151 43.7257C4.1192 43.5585 4.96037 42.4699 4.96877 42.4588C6.12768 41.1978 7.44623 40.0567 8.72108 38.9532C9.94133 37.897 11.2032 36.8049 12.3203 35.6117C14.274 33.5247 15.8737 31.019 17.1808 28.8432C17.7726 28.0152 18.514 26.7528 18.687 25.439C18.7905 24.6534 18.6388 24.2167 18.6373 24.2123C18.4118 23.5797 17.9726 23.1051 17.3319 22.8017C16.8187 22.5585 16.1758 22.4238 15.421 22.4015C14.1349 22.3633 12.9545 22.6686 12.9427 22.6718C11.9801 22.8419 10.6492 23.4539 8.9864 24.491C7.5951 25.3587 6.26379 26.3429 5.39204 27.0156C4.88358 27.4079 4.40133 27.8309 3.9589 28.2724C3.04934 29.18 1.67148 30.3531 1.65771 30.3648C1.35559 30.5708 1.09295 30.5681 0.925593 30.5297C0.744119 30.488 0.635738 30.3992 0.631201 30.3953L0.625488 30.3906L0.629521 30.3844L1.22956 29.4663L5.11916 25.0846L8.90877 21.9081L8.90961 21.9078L11.7556 20.3801L11.7564 20.3798L13.9695 19.7767H13.9704L16.8736 19.5957L16.8753 19.5962L20.0412 20.7022L20.0427 20.7044L21.8168 23.1373L21.8171 23.139L22.7001 26.819L28.6449 28.171L28.6446 28.1781L28.2679 35.3541L28.2484 35.3821C27.4127 36.5855 26.6195 37.8311 25.8865 38.9981C25.7054 39.2865 25.5113 39.5791 25.3095 39.8679C23.24 42.8295 20.493 45.4095 17.5748 47.1331C16.0809 48.0154 14.3658 48.5728 12.4771 48.7894C10.7714 48.9852 8.96943 48.9012 7.12125 48.5397C6.54154 48.4265 5.83094 48.5746 5.82388 48.5761L2.76755 49.2679C2.72067 49.2784 2.67346 49.2836 2.62674 49.2836L2.62725 49.2831ZM15.1953 22.381C15.2703 22.381 15.3456 22.382 15.4213 22.3844C16.1785 22.4068 16.8237 22.5421 17.3391 22.7862C17.984 23.0917 18.4263 23.5697 18.6533 24.2066C18.6548 24.211 18.8077 24.6505 18.704 25.4397C18.5308 26.7575 17.7877 28.0229 17.1949 28.8524C16.346 30.2654 15.6294 31.3824 14.9399 32.3669C14.0579 33.6262 13.2052 34.6914 12.3326 35.6233C11.215 36.8171 9.95275 37.9096 8.73217 38.9661C7.45748 40.0693 6.13944 41.2102 4.98154 42.4699C4.97347 42.4803 4.1318 43.5697 3.96327 43.7378C3.95151 43.7493 2.78772 44.8996 2.31673 45.1176C2.31068 45.1218 1.58915 45.5964 1.05699 45.8697C0.80713 45.9981 0.67657 46.2794 0.739414 46.5539C0.859388 47.0778 1.09446 47.8126 1.53202 48.3393C1.53521 48.3423 1.90018 48.7075 2.13508 49.0215C2.27959 49.2149 2.5266 49.3051 2.76419 49.2513L5.82069 48.5595C5.82791 48.558 6.54171 48.409 7.12495 48.5232C8.97128 48.8841 10.7716 48.9681 12.4756 48.7725C14.3619 48.556 16.0748 47.9995 17.5668 47.1183C20.4831 45.3961 23.2281 42.8176 25.2962 39.858C25.4979 39.5696 25.6918 39.2772 25.8727 38.9889C26.6057 37.8217 27.3993 36.5758 28.2351 35.3722L28.2519 35.3483L28.628 28.1841L22.6867 26.8329L22.6855 26.8279L21.8017 23.1444L20.031 20.7163L16.8716 19.6125L13.9726 19.7931L11.7619 20.3956L8.91835 21.9219L5.13092 25.0963L1.243 29.4761L0.647836 30.3869C0.672705 30.4059 0.77554 30.4781 0.93013 30.5135C1.09396 30.5508 1.35155 30.5532 1.64746 30.3514C1.66056 30.3402 3.03792 29.1675 3.94697 28.2604C4.39007 27.8183 4.87282 27.395 5.38179 27.0022C6.25387 26.3292 7.58569 25.3448 8.9775 24.4766C10.6422 23.4383 11.9752 22.8255 12.9392 22.6552C12.9496 22.6523 13.9978 22.3812 15.1952 22.3812L15.1953 22.381Z" fill="#A48A7B"/>
<path d="M27.9076 30.9588L25.9531 27.5674L25.1988 28.5209L20.4418 36.1342L10.862 43.4121L3.13205 47.158L1.59473 47.5486L2.64694 49.2747C2.68643 49.2734 2.72625 49.2688 2.76574 49.2598L5.82207 48.568C5.82207 48.568 6.53452 48.4167 7.1228 48.5317C10.6126 49.214 14.4256 48.9831 17.5705 47.126C20.5902 45.3426 23.3017 42.7267 25.3026 39.8631C25.5019 39.5781 25.6945 39.2884 25.8795 38.9937C26.6449 37.7749 27.4205 36.5598 28.2417 35.3774C28.2477 35.3687 28.2538 35.3601 28.2598 35.3514L28.2625 35.3L27.9078 30.959L27.9076 30.9588Z" fill="#D19F16"/>
<path d="M2.64216 49.2832L1.58154 47.5434L3.12911 47.1502L10.8584 43.4047L20.4357 36.1286L25.1918 28.5166L25.9544 27.5527L27.9161 30.9583L28.2708 35.2992L28.268 35.3542L28.2485 35.3822C27.4127 36.5857 26.6194 37.8313 25.8866 38.9982C25.7055 39.2866 25.5114 39.5792 25.3096 39.8679C23.2401 42.8296 20.4932 45.4096 17.575 47.1331C16.081 48.0154 14.3659 48.5728 12.4772 48.7895C10.7715 48.9852 8.96955 48.9013 7.12138 48.5398C6.5415 48.4264 5.83106 48.5747 5.824 48.5762L2.76768 49.2679C2.72937 49.2766 2.68887 49.2817 2.6472 49.283H2.64233L2.64216 49.2832ZM1.60759 47.5541L2.6514 49.2663C2.69022 49.2647 2.72802 49.2599 2.76381 49.2518L5.82031 48.5601C5.82753 48.5586 6.54133 48.4096 7.12457 48.5237C8.9709 48.8847 10.7712 48.9686 12.4752 48.7731C14.3615 48.5566 16.0744 48 17.5664 47.1189C20.4827 45.3967 23.2277 42.8182 25.2958 39.8585C25.4975 39.5701 25.6914 39.2777 25.8724 38.9895C26.6053 37.8225 27.3988 36.5767 28.2347 35.3728L28.2515 35.3488L28.254 35.2997L27.8995 30.9618L25.9522 27.5827L25.2056 28.5265L20.4485 36.1403L20.4473 36.1413L10.8675 43.4193L3.13533 47.1663H3.13449L1.60809 47.5543L1.60759 47.5541Z" fill="#A48A7B"/>
<path d="M22.6929 26.8263L21.4695 22.0909L20.9387 21.7725L20.9074 21.6116L18.7116 19.9482L16.1733 19.6045L11.9927 20.3206L7.21488 23.1498L3.48222 26.6684L0.863281 30.2158L2.43707 28.7711C6.20719 24.6761 11.1344 21.8097 11.1344 21.8097C12.6462 21.0455 14.4206 20.6343 16.1169 20.7499C17.7762 20.863 19.2444 21.8743 20.0742 23.2912C20.9931 24.8606 20.9619 26.5307 20.3037 28.174C19.6284 29.8603 18.6904 31.4414 17.6797 32.9466C16.7621 34.3132 15.7924 35.8154 14.6362 36.9925C14.6351 36.9935 8.25213 43.4912 1.23194 46.6608C1.23194 46.6608 1.07416 47.9303 2.64727 47.7214C2.64727 47.7214 23.1796 45.0644 26.4466 27.8805L22.6931 26.8266L22.6929 26.8263Z" fill="#FFD81D"/>
<path d="M22.6927 26.8262C22.58 26.4324 22.893 25.5516 22.9035 25.0919C22.9176 24.465 22.8603 23.8322 22.6899 23.2271C22.4202 22.2697 21.8606 21.4888 21.1097 20.8503C19.5074 19.4876 17.4083 18.8848 15.3197 19.0711C15.1165 19.0892 14.9141 19.1144 14.7126 19.1457C14.7126 19.1457 10.3723 19.8606 6.11172 23.5934C6.11172 23.5934 2.80671 26.8101 1.09447 29.2722C1.09447 29.2722 -0.139894 31.4961 1.33341 29.6693C1.33341 29.6693 4.63842 25.9363 5.11613 25.5393C5.11613 25.5393 8.46097 21.9652 12.1641 20.5753C12.9521 20.2795 13.7343 20.022 14.5703 19.8881C16.5105 19.5776 18.7527 20.1007 20.2539 21.4193C21.6983 22.688 22.1838 25.0485 22.6926 26.8263L22.6927 26.8262Z" fill="#FFF8D2"/>
<path d="M0.638218 30.3982C0.63032 30.3982 0.624271 30.396 0.619398 30.3928C0.508834 30.3188 1.02805 29.3756 1.08753 29.2682C2.78112 26.833 6.0732 23.6196 6.10613 23.5875C7.0787 22.7353 8.13595 21.9713 9.249 21.3164C10.1394 20.7924 11.0674 20.3368 12.0071 19.9619C13.6071 19.3236 14.7006 19.1392 14.7115 19.1374C14.916 19.1057 15.1204 19.0806 15.3193 19.0628C16.3729 18.9688 17.4093 19.0727 18.3998 19.3718C19.4129 19.6777 20.3265 20.173 21.1156 20.844C21.9114 21.5207 22.4438 22.3219 22.6982 23.225C22.8555 23.7834 22.9276 24.4114 22.9121 25.0923C22.9079 25.2763 22.8562 25.5243 22.8014 25.7868C22.7191 26.1812 22.6339 26.5893 22.7011 26.8242L22.685 26.8289C22.6204 26.6035 22.5574 26.3726 22.4906 26.1281C22.0301 24.4426 21.5082 22.5322 20.2488 21.4259C19.5287 20.7932 18.604 20.3178 17.5751 20.051C16.5841 19.7941 15.5455 19.7407 14.5721 19.8965C13.6891 20.0378 12.861 20.323 12.1674 20.5833C10.2557 21.3008 8.44211 22.6116 7.25732 23.5849C5.97339 24.6397 5.13105 25.5362 5.12264 25.5451C4.64997 25.9381 1.37302 29.6376 1.33992 29.6749C0.845737 30.2878 0.69434 30.3982 0.637882 30.3982H0.638218ZM16.0679 19.0462C15.82 19.0462 15.571 19.0573 15.321 19.0798C15.1225 19.0975 14.9184 19.1225 14.7144 19.1542C14.7036 19.156 13.6114 19.3402 12.0129 19.9778C11.0742 20.3523 10.1471 20.8077 9.2574 21.3312C8.14536 21.9856 7.08895 22.7489 6.11773 23.5999C6.08496 23.6317 2.79406 26.8438 1.10182 29.2771C0.880183 29.6764 0.55521 30.3297 0.628808 30.3789C0.658382 30.3989 0.788606 30.3323 1.32732 29.6642C1.36059 29.6265 4.63838 25.926 5.11122 25.533C5.11878 25.5248 5.96196 24.6276 7.24656 23.5722C8.43236 22.5981 10.2476 21.2861 12.1617 20.5677C12.856 20.3071 13.685 20.0215 14.5695 19.8799C15.5453 19.7238 16.5861 19.7774 17.5795 20.0348C18.611 20.3021 19.5379 20.7788 20.2601 21.4131C21.5232 22.5227 22.0458 24.4357 22.5069 26.1234C22.5601 26.3187 22.6112 26.5052 22.6623 26.6872C22.6467 26.4455 22.7169 26.1097 22.7849 25.7832C22.8396 25.5215 22.8911 25.2743 22.8953 25.0918C22.9106 24.4128 22.8389 23.7862 22.6821 23.2295C22.4286 22.3296 21.8979 21.5313 21.1046 20.8568C20.3174 20.1873 19.4058 19.6931 18.395 19.3879C17.6417 19.1605 16.8617 19.0461 16.0677 19.0461L16.0679 19.0462Z" fill="#683C11"/>
<path d="M22.6934 26.8256L24.3517 26.0771L28.5441 27.7315L30.7364 39.452L29.9172 45.1793L30.6754 47.1576C30.6754 47.1576 29.0303 46.2794 28.6363 44.7178C28.6363 44.7178 28.1819 42.9037 28.194 41.8105L28.1097 37.7257L28.0495 35.323C28.0495 35.323 27.9479 33.4964 27.7664 32.7562C27.7664 32.7562 27.6059 30.1788 25.9533 28.3143C25.0949 27.3457 23.7172 27.5264 22.6934 26.8259V26.8256Z" fill="#FFD81D"/>
<path d="M30.6912 47.1757L30.6714 47.1652C30.6672 47.163 30.254 46.9405 29.798 46.5297C29.3769 46.1505 28.8323 45.5288 28.6281 44.7199C28.6236 44.7018 28.1736 42.8921 28.1855 41.8104L28.1012 37.726L28.041 35.3232C28.04 35.3053 27.9373 33.4893 27.758 32.7581C27.7574 32.7502 27.7149 32.1029 27.4712 31.2362C27.2464 30.4366 26.7994 29.2817 25.9468 28.3198C25.46 27.7705 24.8198 27.596 24.142 27.4112C23.645 27.2756 23.131 27.1355 22.6885 26.8329L22.6763 26.8245L22.6899 26.8183L24.3515 26.0684L24.3549 26.0697L28.5517 27.7257L28.5525 27.7302L30.7451 39.452V39.4534L29.9262 45.1785L30.6915 47.1757H30.6912ZM22.7102 26.8273C23.1474 27.1226 23.6552 27.261 24.1464 27.3949C24.4722 27.4837 24.8091 27.5756 25.1178 27.7121C25.4641 27.8653 25.7393 28.0604 25.9594 28.3087C26.8142 29.2731 27.2622 30.4308 27.4875 31.2321C27.7317 32.1004 27.7742 32.7492 27.7747 32.7556C27.954 33.4867 28.0568 35.3043 28.0578 35.3226L28.1181 37.7256L28.2025 41.8104C28.1906 42.8903 28.64 44.6978 28.6446 44.7159C28.8476 45.5206 29.3901 46.1396 29.8094 46.5173C30.2069 46.8753 30.5714 47.0896 30.6594 47.1392L29.9089 45.1804L29.9092 45.1782L30.7282 39.4522L28.5369 27.7376L24.352 26.0863L22.7105 26.827L22.7102 26.8273Z" fill="#D19F16"/>
<path d="M22.6938 26.8272C25.1612 25.5358 27.8351 24.5454 30.653 24.4684C31.4999 24.4452 32.3513 24.5102 33.1794 24.6926C34.4898 24.9813 35.5783 25.3679 36.2043 26.5859C36.7683 27.6834 36.9895 28.9477 37.0915 30.165C37.3171 32.8565 36.9498 35.6978 36.4608 38.3497C36.2343 39.5781 35.9453 40.7954 35.5965 41.9948C35.3821 42.7318 35.1447 43.4624 34.8824 44.1838C34.4181 45.4611 34.0321 46.8695 32.7129 47.5259C31.43 48.1642 30.4641 47.131 29.9236 46.0373C28.7003 43.5625 28.8984 40.8777 28.9927 38.2098C29.0686 36.065 28.9414 34.0059 28.7179 31.8817C28.7179 31.8817 28.1749 26.7178 24.9522 26.4651C24.9522 26.4651 23.658 26.3224 22.6938 26.827V26.8272Z" fill="#FFF8D2"/>
<path d="M31.9374 47.7299C31.7762 47.7299 31.6175 47.7037 31.4614 47.6513C30.6792 47.3885 30.1573 46.5295 29.9158 46.0408C29.4038 45.0052 29.0966 43.8352 28.9765 42.4639C28.8695 41.2417 28.9175 39.9765 28.9639 38.7528C28.9708 38.5717 28.9777 38.3903 28.9841 38.2092C29.0521 36.2862 28.9674 34.3349 28.7095 31.8823C28.7082 31.8694 28.5689 30.5792 28.0349 29.2689C27.7225 28.5025 27.3384 27.8813 26.8932 27.4226C26.3374 26.85 25.6841 26.5305 24.9515 26.473C24.9382 26.4715 23.6484 26.3366 22.6977 26.8341L22.6899 26.8194C24.0554 26.1048 25.3144 25.5699 26.5394 25.184C27.951 24.7392 29.3351 24.4956 30.6528 24.4595C31.5437 24.4352 32.3944 24.5106 33.1812 24.6841C33.7479 24.8089 34.4017 24.9778 34.9526 25.2832C35.5092 25.5919 35.9211 26.0165 36.2116 26.5817C36.6908 27.5141 36.973 28.6525 37.0997 30.1639C37.2047 31.4166 37.1892 32.7604 37.0523 34.2726C36.9429 35.4812 36.752 36.8151 36.4689 38.3508C36.2437 39.5713 35.9528 40.798 35.6042 41.9966C35.3871 42.7429 35.1468 43.4797 34.8899 44.1862C34.8462 44.3066 34.8023 44.4302 34.7598 44.55C34.3441 45.7234 33.9141 46.9369 32.7162 47.5329C32.4529 47.664 32.1923 47.7297 31.9372 47.7297L31.9374 47.7299ZM24.5294 26.4386C24.7831 26.4386 24.9483 26.4559 24.9528 26.4564C25.6896 26.5142 26.3468 26.8356 26.9059 27.4119C27.3526 27.8724 27.7379 28.4958 28.051 29.2647C28.5905 30.5896 28.726 31.8719 28.726 31.8814C28.9839 34.3341 29.0688 36.2861 29.0007 38.2099C28.9943 38.391 28.9874 38.5722 28.9805 38.7535C28.934 39.9765 28.8859 41.2412 28.993 42.4623C29.1129 43.8315 29.4196 44.9995 29.9306 46.0333C30.1709 46.5196 30.6901 47.3744 31.4666 47.6352C31.8653 47.7692 32.2832 47.7297 32.7087 47.518C33.9005 46.925 34.3293 45.7147 34.7439 44.5445C34.7862 44.4249 34.8301 44.301 34.8739 44.1807C35.1307 43.4744 35.3709 42.738 35.5879 41.9921C35.9364 40.7939 36.2271 39.5679 36.4521 38.348C36.7352 36.8128 36.9259 35.4792 37.0353 34.2713C37.1721 32.7602 37.1875 31.4171 37.0827 30.1656C36.9562 28.6564 36.6745 27.52 36.1963 26.5896C35.9075 26.0274 35.4978 25.6049 34.944 25.2979C34.395 24.9936 33.7427 24.8252 33.1771 24.7005C32.3917 24.5274 31.5423 24.4521 30.6528 24.4764C29.3366 24.5125 27.9542 24.756 26.5441 25.2002C25.4018 25.56 24.2298 26.0495 22.9692 26.6937C23.5234 26.4807 24.1338 26.4388 24.5292 26.4388L24.5294 26.4386Z" fill="#683C11"/>
<path d="M2.64727 49.2759C2.64727 49.2759 2.0973 48.6701 2.00337 48.0866C1.98506 47.9733 1.95851 47.8615 1.92608 47.7516C1.85719 47.5175 1.75133 47.0816 1.72629 46.5474C1.71722 46.3518 1.73217 46.1559 1.76611 45.963C1.79283 45.8114 1.80812 45.5979 1.72091 45.4658L1.10054 45.6567C0.913522 45.7142 0.753892 45.8394 0.658282 46.0096C0.556455 46.1913 0.483697 46.4445 0.606192 46.7263C0.848494 47.2839 1.27714 48.1575 1.42619 48.3619C1.42619 48.3619 2.20535 49.6245 2.64744 49.2759H2.64727Z" fill="#4A2110"/>
<path d="M2.67718 49.2464C2.65147 49.2181 2.62711 49.1886 2.60291 49.1589C2.54309 49.0853 2.48848 49.0126 2.43185 48.9305C2.28096 48.7118 2.14586 48.4737 2.07495 48.2161C2.05496 48.1439 2.04437 48.0703 2.02992 47.9969C2.01295 47.9104 1.99144 47.8251 1.96674 47.7407C1.937 47.6388 1.91045 47.5357 1.88743 47.4322C1.81871 47.1238 1.77384 46.8066 1.76645 46.4905C1.76225 46.3122 1.77972 46.1361 1.80913 45.9605C1.83215 45.8227 1.84492 45.6714 1.80022 45.5364C1.78964 45.5043 1.77569 45.4732 1.75721 45.4447C1.74729 45.4294 1.72797 45.4199 1.70982 45.4254C1.5885 45.4628 1.46702 45.5002 1.3457 45.5374C1.27479 45.5591 1.20371 45.5811 1.1328 45.6029C1.06172 45.6248 0.991823 45.6491 0.926626 45.6858C0.680964 45.8236 0.522847 46.092 0.502011 46.3706C0.496298 46.4478 0.502851 46.5262 0.520494 46.6017C0.537633 46.6756 0.568383 46.7444 0.598797 46.8136C0.649542 46.9289 0.7018 47.0436 0.755066 47.1578C0.866807 47.3982 0.982413 47.6368 1.10306 47.8727C1.18724 48.0373 1.27008 48.2062 1.37359 48.3597C1.41358 48.4192 1.45223 48.4797 1.49306 48.5387C1.58481 48.6707 1.6826 48.7991 1.78846 48.9204C1.90339 49.0522 2.02975 49.18 2.17745 49.275C2.2934 49.3496 2.44429 49.4116 2.58174 49.36C2.61686 49.3468 2.64744 49.3285 2.67684 49.3055C2.69465 49.2916 2.69146 49.261 2.67684 49.2462C2.6592 49.2286 2.63534 49.2323 2.61736 49.2462C2.62576 49.2397 2.61501 49.2479 2.61333 49.2491C2.60997 49.2514 2.60661 49.2538 2.60308 49.2559C2.59636 49.2603 2.58947 49.2645 2.58241 49.2682C2.57586 49.2717 2.5693 49.2747 2.56258 49.2777C2.55737 49.2801 2.56998 49.2749 2.5646 49.2769C2.56275 49.2775 2.56107 49.2784 2.55922 49.2789C2.55519 49.2804 2.55116 49.2817 2.54712 49.2831C2.53318 49.2876 2.51889 49.2905 2.50444 49.293C2.50579 49.2928 2.511 49.2925 2.50159 49.2931C2.49823 49.2935 2.49503 49.2936 2.49167 49.294C2.48361 49.2945 2.47554 49.2946 2.46731 49.2945C2.46008 49.2945 2.45286 49.294 2.44563 49.2933C2.44177 49.293 2.4379 49.2925 2.43404 49.2921C2.44462 49.2933 2.43303 49.292 2.42916 49.2913C2.41371 49.2888 2.39825 49.2851 2.38312 49.2807C2.36682 49.276 2.35086 49.2703 2.33507 49.2641C2.32448 49.26 2.33574 49.2646 2.33003 49.262C2.32599 49.2601 2.32196 49.2584 2.31793 49.2566C2.30969 49.2529 2.30163 49.2489 2.29356 49.2449C2.26012 49.2278 2.22803 49.2082 2.19695 49.1871C2.18031 49.1757 2.16401 49.1638 2.14788 49.1515C2.14704 49.1509 2.14065 49.146 2.14452 49.149C2.14788 49.1517 2.14284 49.1477 2.14267 49.1475C2.13864 49.1443 2.13444 49.1411 2.1304 49.1378C2.12167 49.1307 2.1131 49.1237 2.10453 49.1167C2.03782 49.061 1.97565 49 1.9165 48.9365C1.85752 48.8735 1.80157 48.8078 1.74763 48.7405C1.73452 48.7242 1.72175 48.7078 1.70881 48.6914C1.70797 48.6904 1.70394 48.685 1.70831 48.6907C1.7068 48.6887 1.70528 48.6867 1.7036 48.6847C1.70092 48.6811 1.69823 48.6776 1.69554 48.6741C1.68915 48.6657 1.68277 48.6573 1.67638 48.649C1.65437 48.6196 1.63253 48.5901 1.61119 48.5603C1.56027 48.4896 1.51238 48.4172 1.46483 48.3441C1.38787 48.2257 1.31881 48.1035 1.25278 47.9785C1.13599 47.7573 1.02543 47.5325 0.917889 47.3067C0.862438 47.19 0.80766 47.073 0.754226 46.9556C0.728853 46.8999 0.703817 46.8443 0.679116 46.7883C0.650887 46.7247 0.622321 46.6615 0.605182 46.5938C0.539314 46.3344 0.635932 46.0382 0.831689 45.8571C0.91268 45.7822 1.01047 45.7279 1.11583 45.6954C1.16422 45.6805 1.21245 45.6656 1.26084 45.6508C1.40787 45.6056 1.5549 45.5603 1.70192 45.5151C1.71201 45.5119 1.72209 45.5089 1.73217 45.5057C1.71637 45.4993 1.70058 45.4928 1.68478 45.4864C1.75838 45.6002 1.752 45.7522 1.73637 45.8812C1.72662 45.9623 1.71016 46.0426 1.70041 46.1239C1.68983 46.2129 1.68361 46.3024 1.6821 46.392C1.67924 46.5688 1.6947 46.7466 1.71587 46.9219C1.73402 47.0734 1.75838 47.224 1.78913 47.3734C1.81232 47.486 1.83921 47.5979 1.87029 47.7087C1.88978 47.7779 1.91028 47.8468 1.92692 47.9168C1.94574 47.9964 1.95716 48.0772 1.97414 48.1569C2.03127 48.4262 2.16485 48.6783 2.31524 48.9067C2.37523 48.9979 2.43941 49.0862 2.50696 49.1718C2.54091 49.215 2.57518 49.2589 2.61266 49.2992C2.61434 49.301 2.61602 49.303 2.6177 49.3049C2.65399 49.3449 2.71331 49.2856 2.67718 49.2455V49.2464Z" fill="#4A2110"/>
<path d="M42.4624 40.5145C42.4624 40.5145 42.4631 40.4307 42.4624 40.4307C42.4617 40.4307 42.4617 40.5145 42.4624 40.5145Z" fill="#EBD79B"/>
<path d="M31.9138 40.2216C31.9089 40.2563 31.9045 40.291 31.9 40.3257C31.8876 40.423 31.8758 40.5204 31.8645 40.6179C31.8474 40.7661 31.8316 40.9142 31.8166 41.0627C31.7977 41.252 31.7804 41.4416 31.7649 41.6313C31.7471 41.8491 31.7315 42.0671 31.7185 42.2852C31.7044 42.5226 31.6935 42.7603 31.6863 42.998C31.6789 43.2405 31.6755 43.4834 31.6772 43.726C31.6789 43.968 31.6858 44.2098 31.7 44.4513C31.7135 44.6782 31.7333 44.9049 31.7636 45.1302C31.7909 45.3339 31.8267 45.537 31.8775 45.7363C31.8887 45.7805 31.9008 45.8244 31.9138 45.8682C31.9186 45.8849 31.9674 45.8717 31.9625 45.8551C31.9065 45.6652 31.8666 45.4708 31.8355 45.2754C31.8005 45.0556 31.777 44.8342 31.7604 44.6123C31.7425 44.3747 31.7326 44.1364 31.7283 43.8983C31.7237 43.6529 31.7249 43.4074 31.7304 43.1621C31.7358 42.9228 31.7452 42.6835 31.758 42.4445C31.7699 42.221 31.7846 41.9976 31.8017 41.7744C31.817 41.5766 31.8341 41.3791 31.8531 41.1818C31.8684 41.0228 31.8849 40.8641 31.9027 40.7054C31.9151 40.595 31.9281 40.4847 31.9418 40.3746C31.9482 40.324 31.958 40.2729 31.9617 40.2221C31.9617 40.2199 31.9622 40.2177 31.9625 40.2157C31.9652 40.197 31.9161 40.2055 31.9138 40.2219V40.2216Z" fill="#F0DC9E"/>
<path d="M34.6986 43.1517C34.6915 43.181 34.684 43.2103 34.6764 43.2395C34.6557 43.3193 34.6342 43.3989 34.6121 43.4783C34.5788 43.5976 34.5442 43.7166 34.508 43.8352C34.4635 43.9817 34.4171 44.1273 34.3684 44.2725C34.3136 44.4355 34.256 44.5977 34.195 44.7586C34.1317 44.9257 34.0644 45.0914 33.9922 45.2548C33.9209 45.416 33.845 45.575 33.7615 45.7302C33.6845 45.8733 33.6012 46.0134 33.5074 46.1463C33.4258 46.2619 33.3359 46.3734 33.2318 46.4699C33.1475 46.5482 33.0509 46.6191 32.9445 46.6601C32.9198 46.6697 32.9008 46.6755 32.8739 46.6822C32.8681 46.6837 32.8499 46.6898 32.8523 46.6987C32.8546 46.7075 32.8741 46.7034 32.8793 46.7022C32.9932 46.6744 33.0974 46.6157 33.1893 46.544C33.2965 46.4602 33.3893 46.3588 33.473 46.2521C33.5709 46.127 33.657 45.993 33.7363 45.8556C33.8233 45.7049 33.9021 45.5494 33.9756 45.3917C34.0517 45.2282 34.1221 45.0621 34.1883 44.8945C34.2531 44.7301 34.3141 44.5642 34.3721 44.3973C34.4249 44.2451 34.4751 44.092 34.523 43.9383C34.5627 43.8109 34.6008 43.6831 34.6373 43.5547C34.6633 43.4634 34.6885 43.3719 34.7127 43.2802C34.7241 43.237 34.7367 43.1937 34.7461 43.1502C34.7465 43.1483 34.747 43.1465 34.7475 43.1446C34.751 43.1301 34.7026 43.1374 34.6991 43.1519L34.6986 43.1517Z" fill="#F0DC9E"/>
<path d="M30.6543 25.4227C32.634 25.3965 35.4017 25.6429 35.8167 27.1756C35.8471 27.288 35.8802 27.3999 35.9173 27.5104C36.3213 28.7146 38.1826 35.4064 33.7296 45.6551C33.7296 45.6551 32.2551 48.658 31.6277 44.7762C31.6277 44.7762 32.1817 35.2547 31.6277 32.3251C31.3072 30.6307 30.115 29.1987 29.3028 27.9627C28.5915 26.8801 29.3565 25.4398 30.6543 25.4227Z" fill="#FEEBB4"/>
<path d="M35.5687 34.658C35.8684 34.4346 35.9696 35.3153 35.9985 35.5665C36.1417 36.8129 35.8901 38.111 35.613 39.3219C35.2959 40.7083 34.87 42.0717 34.3751 43.4048C34.1774 43.9374 34.1456 44.2023 33.9537 44.7372C33.8117 45.1329 33.5343 46.0725 33.0927 46.2624C32.7842 46.3951 32.8901 45.9615 32.9104 45.7594C32.9415 45.4499 32.9931 45.1419 33.0442 44.8352C33.2016 43.8894 33.3864 42.9481 33.5657 42.0064C33.6946 41.3295 34.8644 35.1825 35.5687 34.658Z" fill="#F0DC9E"/>
<path d="M33.2834 25.6423C33.3153 25.6389 33.3476 25.6384 33.3797 25.6384C33.4662 25.6381 33.5527 25.6439 33.6386 25.6545C33.7682 25.6703 33.8964 25.6969 34.0219 25.7328C34.1812 25.7783 34.3359 25.8393 34.4836 25.9139C34.6626 26.0042 34.831 26.1145 34.9864 26.2409C35.1726 26.3922 35.3398 26.5661 35.4875 26.755C35.6667 26.9841 35.8175 27.2344 35.9443 27.4957C36.1025 27.8211 36.2239 28.1635 36.3192 28.5122C36.4375 28.9452 36.5155 29.3888 36.5666 29.8346C36.6317 30.4035 36.6549 30.9775 36.6462 31.5498C36.6438 31.7081 36.6391 31.8665 36.6328 32.0247C36.6318 32.0498 36.6338 32.0857 36.6329 32.1055C36.6575 31.5032 36.6571 30.8985 36.6161 30.2971C36.5829 29.8091 36.5224 29.3221 36.4199 28.8435C36.3377 28.4596 36.2283 28.0805 36.0799 27.7166C35.9606 27.424 35.8156 27.1409 35.6383 26.8788C35.4947 26.6665 35.3297 26.4681 35.142 26.293C34.9854 26.1467 34.8133 26.017 34.6281 25.9089C34.4751 25.8196 34.3133 25.7452 34.1454 25.6879C34.0105 25.6418 33.8718 25.6067 33.731 25.584C33.6321 25.5679 33.5321 25.5578 33.4319 25.5553C33.4007 25.5545 33.3694 25.5545 33.3382 25.5555C33.3249 25.556 33.3019 25.5528 33.2894 25.5581C33.2878 25.5588 33.2851 25.5585 33.2834 25.5586C33.2799 25.559 33.2857 25.6423 33.2834 25.6424V25.6423Z" fill="#F0DC9E"/>
<path d="M30.9089 26.2732C30.9338 26.278 30.9585 26.2844 30.983 26.2906C31.0512 26.3082 31.1186 26.3285 31.1853 26.3506C31.2865 26.3841 31.3861 26.422 31.4841 26.4634C31.6101 26.5168 31.7336 26.5763 31.8539 26.6417C31.9952 26.7184 32.1322 26.8034 32.2634 26.8962C32.4099 26.9998 32.5494 27.1131 32.6803 27.2356C32.8251 27.3713 32.9594 27.5185 33.0807 27.6755C33.214 27.8479 33.3316 28.0323 33.4322 28.2253C33.5436 28.439 33.6342 28.6634 33.7044 28.8938C33.7841 29.1547 33.8379 29.423 33.8694 29.6938C33.8778 29.7659 33.8847 29.8381 33.8901 29.9105C33.8901 29.909 33.8899 29.9075 33.8898 29.906C33.8941 29.9644 33.8975 30.0231 33.9 30.0817C33.9014 30.1128 33.9024 30.1438 33.9032 30.1748C33.9036 30.187 33.9037 30.1997 33.9041 30.2123C33.9041 30.2155 33.9044 30.2426 33.9042 30.2242C33.9042 30.2284 33.9042 30.2326 33.9042 30.2369C33.9042 30.2426 33.9042 30.2426 33.9042 30.2369C33.9042 30.2312 33.9042 30.2312 33.9042 30.2369C33.9042 30.2175 33.9042 30.214 33.9042 30.226C33.9042 30.2123 33.9042 30.1986 33.9042 30.1848C33.9042 30.1969 33.9042 30.1934 33.9042 30.1741C33.9042 30.1969 33.9046 30.1516 33.9042 30.1744C33.9042 30.1788 33.9042 30.1831 33.9042 30.1873C33.9042 30.1784 33.9042 30.1784 33.9042 30.1872C33.9037 30.2168 33.9031 30.2465 33.9022 30.276C33.9002 30.3418 33.897 30.4079 33.893 30.4737C33.8898 30.525 33.892 30.5769 33.8921 30.6284C33.8921 30.6534 33.8921 30.6785 33.8926 30.7035C33.8926 30.7058 33.8928 30.7283 33.8936 30.7162C33.9081 30.4784 33.9093 30.2396 33.9054 30.0015C33.9027 29.8331 33.8933 29.6646 33.8757 29.4971C33.8442 29.2003 33.7866 28.9059 33.6979 28.6206C33.6206 28.3721 33.5196 28.131 33.3943 27.9026C33.2822 27.6984 33.1508 27.5051 33.0022 27.3257C32.8678 27.1635 32.7194 27.013 32.5596 26.8756C32.4163 26.7523 32.2639 26.6395 32.1044 26.5378C31.966 26.4495 31.8223 26.3694 31.6744 26.298C31.5545 26.24 31.4316 26.1876 31.3066 26.1415C31.2191 26.1091 31.1304 26.0798 31.0405 26.0545C31.0131 26.0468 30.9857 26.0394 30.958 26.0327C30.9454 26.0297 30.9274 26.0218 30.9143 26.0227C30.9126 26.0227 30.9106 26.0218 30.9089 26.0215C30.9109 26.0218 30.9076 26.1374 30.9077 26.1472C30.9077 26.1768 30.9077 26.2065 30.9081 26.236C30.9081 26.2398 30.9072 26.2725 30.9089 26.2729V26.2732Z" fill="#F0DC9E"/>
<path d="M30.5027 29.7771C30.5206 29.7895 30.5375 29.8036 30.5542 29.8177C30.6022 29.8579 30.6478 29.9012 30.6916 29.9459C30.7619 30.0176 30.8277 30.0935 30.8901 30.1723C30.9746 30.2792 31.0524 30.3913 31.1245 30.507C31.2157 30.6536 31.2974 30.8061 31.3706 30.9623C31.459 31.1506 31.535 31.3448 31.6003 31.5423C31.679 31.7795 31.7421 32.0219 31.7924 32.2667C31.851 32.5531 31.892 32.843 31.9186 33.1341C31.9502 33.4827 31.9618 33.8332 31.9537 34.1831C31.9441 34.5947 31.912 35.0056 31.8626 35.4143C31.8497 35.5221 31.8354 35.6297 31.8201 35.7371C31.8163 35.7646 31.824 35.7936 31.8201 35.8209C31.8804 35.3972 31.9236 34.9711 31.944 34.5436C31.9614 34.1759 31.9631 33.8069 31.9455 33.4392C31.9302 33.123 31.8994 32.8075 31.8494 32.4948C31.8067 32.2288 31.75 31.9651 31.6764 31.706C31.6144 31.4875 31.5403 31.2721 31.4525 31.0625C31.3797 30.8894 31.2975 30.7201 31.2044 30.5569C31.1302 30.4267 31.049 30.3003 30.9601 30.1797C30.8927 30.0883 30.821 30.0002 30.744 29.9167C30.6933 29.8618 30.6402 29.8087 30.5839 29.759C30.5673 29.7445 30.5505 29.7301 30.5332 29.7163C30.5269 29.7115 30.5145 29.6972 30.5064 29.6957C30.5054 29.6955 30.5041 29.6939 30.5031 29.6934C30.5061 29.6955 30.5027 29.7304 30.5027 29.7353C30.5027 29.7408 30.4985 29.774 30.5031 29.7771H30.5027Z" fill="#F0DC9E"/>
<path d="M30.6379 44.0771C30.6369 44.161 30.6393 44.2452 30.6441 44.3289C30.6541 44.4972 30.6729 44.6648 30.6991 44.8312C30.7371 45.0725 30.7908 45.3115 30.8614 45.5454C30.9446 45.8206 31.0516 46.089 31.1864 46.3431C31.3342 46.6219 31.5164 46.8832 31.7338 47.1128C31.7619 47.1424 31.7906 47.1714 31.8199 47.2001C31.816 47.1964 31.8202 47.1642 31.8202 47.1582C31.8202 47.1483 31.8202 47.1384 31.8202 47.1285C31.8202 47.1263 31.8212 47.1176 31.8199 47.1163C31.5964 46.8978 31.4068 46.6469 31.2512 46.3764C31.1079 46.1276 30.993 45.863 30.9024 45.5908C30.8241 45.3555 30.7638 45.1146 30.7198 44.8706C30.6873 44.6908 30.6635 44.5093 30.6497 44.3271C30.6453 44.2701 30.642 44.2131 30.6401 44.1562C30.6394 44.1361 30.6391 44.1238 30.6388 44.1059C30.6388 44.1044 30.6388 44.1027 30.6388 44.1012C30.6388 44.0952 30.6388 44.1077 30.6388 44.102C30.6388 44.0963 30.6388 44.0912 30.6388 44.1015C30.6388 44.0917 30.6388 44.1118 30.6388 44.1051C30.6388 44.1136 30.6388 44.1131 30.6388 44.1218C30.6388 44.1243 30.6388 44.1334 30.6388 44.1364C30.6389 44.1166 30.6389 44.0968 30.6388 44.0771C30.6388 44.0648 30.6384 44.061 30.6381 44.0771H30.6379Z" fill="#F0DC9E"/>
<path d="M11.3032 38.503C11.4536 38.3165 11.2215 38.0656 11.0233 38.2002C8.96639 39.5956 4.87431 42.4926 5.34615 43.1485C5.79126 43.7673 7.68464 42.3091 8.7466 41.41C9.73042 40.5771 10.4982 39.5011 11.3032 38.503Z" fill="#FFF8D2"/>
<path d="M33.6926 12.0405V12.039C33.6901 11.7471 33.6434 11.216 33.4908 10.2528C33.2724 8.51065 32.8378 7.3614 32.8378 7.3614C30.2737 -0.358289 25.7456 0.957038 25.7456 0.957038C22.9048 1.6969 22.6765 7.41821 22.6812 9.34754C22.6822 9.73381 22.659 10.1196 22.617 10.5035C22.4805 11.7466 22.7617 12.3551 23.1475 12.638C23.3622 12.7953 23.5158 13.0234 23.5701 13.2836C23.6951 13.8816 23.4415 14.3592 23.2926 14.5765C23.1886 14.7283 23.1221 14.8986 23.112 15.0754C23.0959 15.3584 23.219 15.5186 23.3607 15.6091C23.5438 15.7263 23.7866 15.7398 23.9958 15.6626C24.6777 15.4107 24.3405 14.727 24.3405 14.727C23.9797 14.0741 24.0066 13.5764 24.1267 13.2394C24.2143 12.9941 24.3931 12.7938 24.6199 12.6644C24.6695 12.6361 24.7175 12.6051 24.7641 12.5714C25.0291 12.379 25.5204 12.0779 26.2238 11.8703C26.4326 11.8086 26.6617 11.858 26.8194 12.0077C26.9125 12.096 26.9834 12.219 26.9715 12.3866C26.9715 12.3866 26.727 12.8087 27.0822 12.9384C27.1846 12.9758 27.2978 12.975 27.4005 12.9381C27.5803 12.8736 27.8034 12.6891 27.4003 12.1682C27.4003 12.1682 27.1409 11.7753 27.8814 11.6397C28.0715 11.6402 28.2559 11.6487 28.4341 11.6643C29.4434 11.7521 30.3227 12.3923 30.7006 13.3299C30.8011 13.5792 30.884 13.865 30.9364 14.1912C30.9364 14.1912 31.5848 16.138 31.1076 17.7422C31.0464 17.9477 30.9463 18.1392 30.8188 18.3117C30.5634 18.6572 30.1035 19.4127 30.4575 19.9856C30.6694 20.3285 31.1014 20.4741 31.4791 20.3313C32.6641 19.8834 31.8033 17.7811 31.7053 16.8901C31.622 16.1328 31.5601 15.3636 31.6483 14.6038C31.693 14.2191 31.7769 13.8346 31.9328 13.4785C32.083 13.1355 32.2329 12.7832 32.631 12.7313C32.6874 12.7239 32.7449 12.7147 32.8031 12.704C32.8031 12.704 33.272 12.7026 33.4199 13.141C33.5337 13.5534 33.6239 14.2345 33.5123 15.2892C33.368 16.653 33.4606 16.6164 33.5384 16.4406C33.5879 16.3285 33.6128 16.207 33.6151 16.0845L33.6906 12.1751C33.6926 12.1372 33.6936 12.0926 33.6931 12.0407L33.6926 12.0405Z" fill="url(#paint0_linear_761_6932)"/>
</g>
<defs>
<linearGradient id="paint0_linear_761_6932" x1="21.8124" y1="3.84392" x2="29.3991" y2="11.9395" gradientUnits="userSpaceOnUse">
<stop stop-color="#6E2014"/>
<stop offset="1" stop-color="#4A2215"/>
</linearGradient>
<clipPath id="clip0_761_6932">
<rect width="47.0001" height="48.5065" fill="white" transform="translate(0.5 0.87207)"/>
</clipPath>
</defs>
</svg>
