<svg width="50" height="50" viewBox="0 0 50 50" fill="none" xmlns="http://www.w3.org/2000/svg">
<path d="M16.842 46.2559C18.8808 46.2559 20.5336 44.7482 20.5336 42.8882C20.5336 41.0283 18.8808 39.5205 16.842 39.5205C14.8032 39.5205 13.1504 41.0283 13.1504 42.8882C13.1504 44.7482 14.8032 46.2559 16.842 46.2559Z" fill="#FF9A6B"/>
<path opacity="0.34" d="M15.4307 44.2726C16.58 44.2726 17.5117 43.4226 17.5117 42.3741C17.5117 41.3256 16.58 40.4756 15.4307 40.4756C14.2813 40.4756 13.3496 41.3256 13.3496 42.3741C13.3496 43.4226 14.2813 44.2726 15.4307 44.2726Z" fill="#FFE072"/>
<path opacity="0.24" d="M14.8008 43.1582C15.4925 43.1582 16.0533 42.6466 16.0533 42.0156C16.0533 41.3846 15.4925 40.873 14.8008 40.873C14.1091 40.873 13.5483 41.3846 13.5483 42.0156C13.5483 42.6466 14.1091 43.1582 14.8008 43.1582Z" fill="#FFE072"/>
<path d="M33.1536 46.9688C35.1924 46.9688 36.8452 45.461 36.8452 43.6011C36.8452 41.7412 35.1924 40.2334 33.1536 40.2334C31.1147 40.2334 29.4619 41.7412 29.4619 43.6011C29.4619 45.461 31.1147 46.9688 33.1536 46.9688Z" fill="#FF9056"/>
<path opacity="0.46" d="M14.5063 27.0279C14.5554 26.9569 14.6049 26.8863 14.6552 26.8164C14.5911 26.8858 14.5409 26.9563 14.5063 27.0279Z" fill="#FF90A1"/>
<path d="M35.7644 25.9813C35.7981 26.0618 35.8157 26.1434 35.8157 26.226C35.8157 27.5818 31.1572 28.6809 25.4107 28.6809C19.6641 28.6809 15.0057 27.5818 15.0057 26.226C15.0057 26.1405 15.0244 26.0559 15.0605 25.9727C13.6605 28.2205 12.8398 30.9462 12.8398 33.8848C12.8398 41.5836 18.4676 47.8247 25.4098 47.8247C32.352 47.8247 37.9797 41.5836 37.9797 33.8848C37.9797 30.9501 37.1612 28.2275 35.7644 25.9813Z" fill="#FF6540"/>
<path opacity="0.46" d="M13.7415 33.0195C13.9172 30.8002 14.5119 28.7341 15.4173 26.9093C15.1511 26.6923 15.0057 26.4631 15.0057 26.226C15.0057 26.1404 15.0244 26.0559 15.0605 25.9727C13.6605 28.2205 12.8398 30.9462 12.8398 33.8848C12.8398 38.1044 14.5329 41.8832 17.2039 44.4395C14.7603 41.5439 13.3912 37.446 13.7415 33.0195Z" fill="#FFBA40"/>
<path d="M29.1972 33.3013C29.194 33.2997 29.1908 33.2983 29.1875 33.297C28.3864 32.9608 27.603 32.9021 26.8591 33.1226C26.0645 33.3581 25.5091 33.8558 25.2186 34.174C24.7382 33.591 23.4828 32.4148 21.5215 32.9959C21.4528 33.0164 21.3828 33.039 21.3134 33.0633C21.31 33.0645 21.3068 33.0657 21.3035 33.067C21.2484 33.0889 19.9518 33.6188 19.7045 35.1031C19.3726 37.0952 21.0846 39.7135 24.7929 42.8853C24.8641 42.9462 24.9597 42.9645 25.0456 42.939C25.0761 42.93 25.1052 42.9154 25.1317 42.8954C29.0216 39.9492 30.8859 37.4371 30.6726 35.4286C30.5138 33.9323 29.2509 33.3264 29.1972 33.3013Z" fill="#FF3B2E"/>
<path opacity="0.34" d="M15.1445 26.624C13.9978 28.1767 13.2177 30.0649 12.9472 32.1337C12.9244 32.3356 12.8985 32.5368 12.8834 32.7414C12.8807 32.7758 12.8787 32.8104 12.8762 32.8448C12.8545 33.1711 12.8429 33.5005 12.8418 33.8327C12.8801 40.0744 17.5218 45.1218 23.2442 45.1218C28.9902 45.1218 33.6483 40.0327 33.6483 33.7551C33.6483 31.6848 33.1391 29.7456 32.254 28.0738C30.4245 28.4511 28.0318 28.6802 25.411 28.6802C20.2399 28.6803 15.9519 27.7902 15.1445 26.624Z" fill="#FFE072"/>
<path opacity="0.34" d="M35.7647 25.9805C35.7984 26.061 35.816 26.1426 35.816 26.2252C35.816 26.2666 35.8115 26.3078 35.8029 26.3487C36.5378 28.1195 36.9494 30.0893 36.9494 32.1665C36.9494 39.8652 31.3217 46.1063 24.3795 46.1063C20.3436 46.1063 16.7525 43.9967 14.4526 40.718C16.6081 44.9592 20.7071 47.8239 25.4099 47.8239C32.3522 47.8239 37.9799 41.5828 37.9799 33.884C37.98 30.9492 37.1614 28.2267 35.7647 25.9805Z" fill="#FF5B40"/>
<path d="M35.7069 25.8633C35.7069 25.8633 36.7703 28.1833 34.8647 28.4021C32.8252 28.6363 33.7705 31.2426 33.7705 31.2426C33.7705 31.2426 35.7635 34.0788 33.2339 34.2321C31.1997 34.3554 31.6081 32.422 32.066 31.3533C32.524 30.2847 31.6081 28.4529 30.8957 29.1144C30.1834 29.7759 31.6081 31.6078 29.7254 31.7096C27.8426 31.8114 30.1325 29.4707 28.9113 29.4707C27.69 29.4707 27.5882 31.099 28.3006 33.0326C29.0129 34.9662 27.3338 35.3733 27.0285 35.3733C26.7231 35.3733 25.7054 34.661 26.4178 33.4906C27.1301 32.3201 27.3338 29.6233 25.1966 29.318C23.0594 29.0126 23.3647 30.183 23.3647 30.183C23.3647 30.183 23.6191 31.4043 22.2961 31.4043C20.9731 31.4043 22.9575 29.7759 21.7363 29.318C20.5151 28.86 21.1257 28.1476 19.4974 28.6056C17.8691 29.0635 15.1167 26.9938 15.1167 26.5868L35.7069 25.8633Z" fill="#FFBD4C"/>
<path d="M25.474 28.4766C31.1981 28.9826 35.816 27.5813 35.816 26.2255C35.816 26.143 35.7984 26.0613 35.7647 25.9808C35.7139 25.8991 35.6623 25.818 35.61 25.7374C35.337 25.5064 34.9059 25.1903 34.3201 24.9568C32.9821 24.4237 31.8103 24.71 30.9729 24.8134C28.3832 25.1328 28.26 23.7926 25.4109 23.7708C23.2757 23.7544 22.9293 24.5473 19.2753 25.2226C17.5525 25.5409 16.1255 25.6811 15.202 25.7497C15.1783 25.7863 15.1546 25.8232 15.1309 25.8606C15.1073 25.8977 15.0841 25.935 15.0607 25.9723C15.0245 26.0556 15.0059 26.1401 15.0059 26.2256C15.0061 27.5813 19.4685 27.9458 25.474 28.4766Z" fill="#FFC766"/>
<path opacity="0.76" d="M26.2133 28.3335C31.1316 28.7612 35.1523 27.4741 35.1523 26.4139C35.1523 26.3494 35.1372 26.2855 35.1082 26.2225C35.0645 26.1586 35.0202 26.0952 34.9752 26.0322C34.7407 25.8516 34.3703 25.6043 33.8671 25.4218C32.7176 25.0049 31.711 25.2289 30.9915 25.3096C28.7667 25.5594 28.6608 24.5114 26.2132 24.4943C24.3789 24.4816 24.0812 25.1016 20.9421 25.6296C19.4621 25.8785 18.2361 25.9881 17.4429 26.0417C17.4225 26.0704 17.4021 26.0992 17.3818 26.1285C17.3616 26.1575 17.3415 26.1866 17.3215 26.2159C17.2904 26.281 17.2744 26.3471 17.2744 26.4139C17.2743 27.4741 21.1052 27.8893 26.2133 28.3335Z" fill="#FF8127"/>
<path opacity="0.41" d="M26.6391 27.6887C30.5258 27.6887 33.6765 27.1785 33.6765 26.549C33.6765 26.5107 33.6646 26.4728 33.6418 26.4354C33.6074 26.3975 33.5725 26.3597 33.5371 26.3223C33.3525 26.2151 33.061 26.0684 32.6647 25.96C31.7598 25.7126 30.9673 25.8454 30.4009 25.8933C28.6493 26.0417 28.5661 25.4195 26.6391 25.4093C25.1949 25.4018 24.9605 25.7698 22.4892 26.0833C21.324 26.2311 20.3588 26.2962 19.7343 26.328C19.7182 26.345 19.7022 26.3622 19.6862 26.3795C19.6703 26.3967 19.6544 26.414 19.6387 26.4314C19.6142 26.47 19.6016 26.5093 19.6016 26.549C19.6016 27.1785 22.7523 27.6887 26.6391 27.6887Z" fill="#FFE5CC"/>
<path opacity="0.46" d="M27.4758 26.5158C28.8889 26.5158 30.0345 26.4084 30.0345 26.276C30.0345 26.2679 30.0302 26.26 30.0219 26.2521C30.0094 26.2441 29.9967 26.2362 29.9838 26.2283C29.7479 26.1187 28.7147 26.0361 27.4758 26.0361C26.2324 26.0361 25.1962 26.1193 24.9652 26.2295C24.9535 26.2367 24.9419 26.2439 24.9304 26.2512C24.9216 26.2593 24.917 26.2676 24.917 26.276C24.917 26.4084 26.0626 26.5158 27.4758 26.5158Z" fill="#FFBF79"/>
<path opacity="0.41" d="M34.8648 28.4021C36.4089 28.2248 36.0038 26.6684 35.7944 26.084C35.9001 26.8169 35.8972 28.0254 34.7214 28.1311C32.4096 28.3387 33.1662 30.6655 34.0899 32.6118C34.7408 33.9836 32.9384 34.445 31.9717 33.8366C32.2036 34.1092 32.6001 34.2706 33.2341 34.2321C35.7637 34.0789 33.7707 31.2426 33.7707 31.2426C33.7707 31.2426 32.8252 28.6363 34.8648 28.4021Z" fill="#FF8BA2"/>
<path opacity="0.41" d="M28.911 29.4703C28.911 29.4703 27.4316 29.2535 27.5925 31.0237C27.7473 32.7268 27.9267 35.4225 26.5786 35.1469C26.7475 35.2942 26.927 35.3731 27.0282 35.3731C27.3336 35.3731 29.0127 34.9661 28.3004 33.0324C27.588 31.0987 27.6898 29.4703 28.911 29.4703Z" fill="#FF8BA2"/>
<path d="M25.8288 26.3904H24.993C24.8801 26.3904 24.7886 26.2989 24.7886 26.186V19.3206C24.7886 19.2078 24.88 19.1162 24.993 19.1162H25.8288C25.9416 19.1162 26.0332 19.2078 26.0332 19.3206V26.186C26.0331 26.2989 25.9416 26.3904 25.8288 26.3904Z" fill="#FF4A2A"/>
<path d="M25.8288 26.0027H24.993C24.8801 26.0027 24.7886 25.9112 24.7886 25.7983V18.9329C24.7886 18.8201 24.88 18.7285 24.993 18.7285H25.8288C25.9416 18.7285 26.0332 18.8201 26.0332 18.9329V25.7983C26.0331 25.9113 25.9416 26.0027 25.8288 26.0027Z" fill="#FF6540"/>
<path d="M25.824 22.2857H24.9947C24.8801 22.2857 24.7871 22.1928 24.7871 22.0782V14.9878C24.7871 14.8732 24.8801 14.7803 24.9947 14.7803H25.824C25.9386 14.7803 26.0316 14.8732 26.0316 14.9878V22.0782C26.0316 22.1928 25.9387 22.2857 25.824 22.2857Z" fill="#FFACB1"/>
<path opacity="0.49" d="M20.7001 9.45399C19.3927 10.8348 18.4743 12.5472 18.1193 14.4153C17.5285 17.5237 18.2462 20.9371 26.1135 20.9371C39.2257 20.9371 31.7291 -0.461146 20.8526 0.721071C20.8526 0.721071 27.0956 2.69945 20.7001 9.45399Z" fill="#FFE547"/>
<path opacity="0.49" d="M29.1187 12.3619C30.5381 12.4009 31.6895 15.0233 31.9546 16.4183C32.3958 18.7394 30.9511 20.9367 25.0764 20.9367C15.2852 20.9367 14.7433 10.7533 20.6324 6.24121C20.6324 6.24121 15.641 11.9916 29.1187 12.3619Z" fill="#FFC933"/>
<path opacity="0.49" d="M21.7701 12.3627C20.3507 12.4017 19.1994 15.024 18.9341 16.419C18.4929 18.7401 19.9376 20.9374 25.8123 20.9374C35.6035 20.9374 36.0729 8.68852 31.5574 3.78027C31.5574 3.78027 35.2478 11.9923 21.7701 12.3627Z" fill="#FFBD33"/>
<path d="M21.2547 9.79026C20.1154 10.9936 19.3151 12.4857 19.0057 14.1136C18.4909 16.8224 19.2184 20.2082 26.0741 20.2082C37.5004 20.2082 29.8829 1.47541 23.1981 2.01944C23.1981 2.01944 26.8278 3.90419 21.2547 9.79026Z" fill="#FFBD7A"/>
<path opacity="0.63" d="M25.385 2.47656C30.947 6.15736 35.0443 19.7685 25.3045 19.7685C23.2232 19.7685 21.7075 19.456 20.6191 18.9456C21.7215 19.7109 23.4478 20.2082 26.074 20.2082C36.2582 20.2082 31.3136 5.32636 25.385 2.47656Z" fill="#FF9FC7"/>
<path d="M22.7064 12.8406C21.965 13.6236 21.4443 14.5946 21.2429 15.6538C20.9079 17.4163 21.3814 19.6195 25.8424 19.6195C33.2774 19.6195 29.1073 9.69806 25.1691 7.66113C25.1691 7.66113 26.3328 9.01061 22.7064 12.8406Z" fill="#FF9540"/>
<path d="M23.7192 14.9329C23.2413 15.4375 22.9057 16.0634 22.776 16.7461C22.56 17.8822 22.8651 19.3022 25.7404 19.3022C30.5324 19.3022 27.8447 12.9076 25.3065 11.5947C25.3065 11.5947 26.0565 12.4644 23.7192 14.9329Z" fill="#FF6840"/>
<path opacity="0.41" d="M31.2407 28.959C31.2407 28.959 30.4091 28.9321 30.3824 30.3001C30.3566 31.6125 29.3684 31.7641 28.9565 31.3242C28.9975 31.5746 29.1972 31.7384 29.7255 31.7098C31.6083 31.608 30.1834 29.7763 30.8958 29.1147C31.0083 29.0103 31.1258 28.9682 31.2422 28.9753L31.2407 28.959Z" fill="#FF8BA2"/>
<path opacity="0.41" d="M24.1124 29.3026L24.1051 29.2758C24.1051 29.2758 23.33 29.0922 23.1259 30.4589C22.9257 31.8002 21.9011 31.3929 21.8244 31.0302C21.7979 31.2531 21.8935 31.4044 22.2961 31.4044C23.6192 31.4044 23.3647 30.1832 23.3647 30.1832C23.3647 30.1832 23.1791 29.4708 24.1124 29.3026Z" fill="#FF8BA2"/>
<path opacity="0.41" d="M21.5967 29.0112C21.227 28.859 20.9569 28.7246 20.7842 28.6318C20.9809 28.8109 21.1405 29.095 21.737 29.3186C21.9655 29.4044 22.0817 29.5311 22.1284 29.6804C22.143 29.6399 22.2504 29.2803 21.5967 29.0112Z" fill="#FF8BA2"/>
<path opacity="0.41" d="M18.8511 28.5289C18.5807 28.5776 18.2887 28.5608 17.9927 28.5012C18.5256 28.6675 19.0536 28.7315 19.4979 28.6066C20.0408 28.4538 20.3342 28.4318 20.5302 28.4864L20.5321 28.4815C20.5321 28.4815 20.2954 28.2684 18.8511 28.5289Z" fill="#FF8BA2"/>
<path opacity="0.4" d="M23.1984 2.01944C23.1984 2.01944 23.6217 2.23946 23.9572 2.76339C25.5555 4.61471 31.0903 11.6914 26.9746 16.6188C23.6218 20.6327 20.6009 18.5406 19.1011 16.9421C19.6883 18.728 21.5416 20.2082 26.0744 20.2082C37.5007 20.2082 29.8832 1.47531 23.1984 2.01944Z" fill="#FFC866"/>
<path opacity="0.52" d="M24.921 4.53027C24.921 4.53027 25.4366 7.28044 21.827 10.088C19.5739 11.8404 18.3893 17.1354 21.5979 18.052C24.8064 18.9689 29.7911 13.1247 24.921 4.53027Z" fill="#FFC866"/>
<path d="M24.2695 25.9692C24.2695 25.9692 24.3255 25.4547 24.7742 25.5537C25.2228 25.6526 25.1293 26.1275 25.3723 26.1077C25.6152 26.088 25.6899 25.8109 26.0824 25.89C26.4749 25.9691 26.3067 26.642 25.0918 26.4639C23.877 26.2858 24.2695 25.9692 24.2695 25.9692Z" fill="#FFE84A"/>
<path d="M11.639 45.1457C11.639 45.1457 14.0353 41.2246 21.0785 44.8552C28.1219 48.4857 35.3105 42.8221 35.3105 42.8221C35.3105 42.8221 37.0531 41.8055 38.0697 43.766C39.0863 45.7266 38.7958 48.1227 31.6073 47.9775C27.5637 47.8958 24.9217 48.2506 23.3838 48.5768C21.2311 49.0334 19.0236 49.2 16.834 48.9806C13.8009 48.6766 10.636 47.7536 11.639 45.1457Z" fill="#FFB586"/>
<path opacity="0.79" d="M38.0697 43.7663C37.8786 43.398 37.662 43.1348 37.4361 42.9502C38.2931 45.0659 37.7347 47.4955 30.8524 47.3413C26.8088 47.2506 24.1668 47.6442 22.6288 48.006C20.4762 48.5124 18.2687 48.6972 16.0792 48.4539C14.502 48.2787 12.8906 47.9168 11.8467 47.204C12.6985 48.2916 14.7951 48.7767 16.834 48.9809C19.0235 49.2003 21.231 49.0337 23.3837 48.5771C24.9216 48.2511 27.5637 47.8962 31.6073 47.9778C38.7958 48.123 39.0863 45.7268 38.0697 43.7663Z" fill="#FFB586"/>
<path opacity="0.34" d="M23.3562 46.7293C23.2478 47.9928 14.2377 48.8997 12.4941 46.4251C12.3964 46.2862 12.1128 45.8838 12.1899 45.421C12.3565 44.4217 14.0896 43.8353 15.3237 43.7172C15.7606 43.6754 16.7167 43.6366 19.6746 44.8429C22.1503 45.8525 23.3881 46.3574 23.3562 46.7293Z" fill="#FFE072"/>
<path opacity="0.56" d="M20.2818 46.1691C20.2053 47.0602 13.8509 47.6998 12.6213 45.9546C12.5523 45.8567 12.3523 45.5728 12.4067 45.2464C12.5242 44.5416 13.7465 44.128 14.6169 44.0448C14.925 44.0153 15.5993 43.988 17.6854 44.8388C19.4313 45.5508 20.3043 45.9068 20.2818 46.1691Z" fill="#FFE072"/>
<path opacity="0.34" d="M37.2522 43.8906C37.0198 43.35 36.35 43.177 36.277 43.1593C35.1959 42.8959 34.4597 43.9092 32.411 45.0749C30.5263 46.1473 29.6604 46.1369 29.6943 46.3984C29.7806 47.0661 35.4844 47.609 36.904 45.458C37.0344 45.2603 37.5229 44.52 37.2522 43.8906Z" fill="#FFE072"/>
<path opacity="0.41" d="M33.5412 32.9028C33.5557 33.1291 33.569 33.3983 33.3927 33.6119C33.1167 33.9459 32.4971 33.9977 32.1273 33.714C31.7929 33.4575 31.78 33.0166 31.7741 32.816C31.7542 32.13 32.1623 31.2938 32.6142 31.2843C33.0999 31.2742 33.4978 32.2214 33.5412 32.9028Z" fill="#FFE5CC"/>
<path opacity="0.41" d="M27.1423 34.1755C27.2184 33.7725 27.0823 33.4085 26.8382 33.3624C26.5941 33.3162 26.3346 33.6056 26.2584 34.0086C26.1823 34.4116 26.3185 34.7757 26.5625 34.8218C26.8066 34.8679 27.0662 34.5785 27.1423 34.1755Z" fill="#FFE5CC"/>
<path opacity="0.41" d="M30.06 30.7739C30.1983 30.3877 30.1207 30.0068 29.8869 29.9231C29.653 29.8394 29.3514 30.0846 29.2132 30.4707C29.0749 30.8569 29.1525 31.2378 29.3863 31.3215C29.6202 31.4052 29.9218 31.16 30.06 30.7739Z" fill="#FFE5CC"/>
<path opacity="0.41" d="M22.7718 30.8258C22.884 30.5122 22.8211 30.2028 22.6312 30.1348C22.4413 30.0669 22.1964 30.266 22.0841 30.5796C21.9719 30.8932 22.0348 31.2026 22.2247 31.2705C22.4146 31.3385 22.6595 31.1394 22.7718 30.8258Z" fill="#FFE5CC"/>
</svg>
