<svg width="50" height="50" viewBox="0 0 50 50" fill="none" xmlns="http://www.w3.org/2000/svg">
<path d="M45.5892 10.5945L32.4216 3.41812C31.2648 2.79029 29.8234 3.15708 29.1073 4.26229L7.17613 38.0843C6.90429 38.502 6.7803 38.971 6.77956 39.4366L5.79102 38.0472C5.79102 38.0472 5.82999 40.6177 8.55849 41.9368L8.53516 41.9041L21.0438 48.6956C21.5304 48.957 22.0611 49.0472 22.5679 48.9776C22.587 48.9782 22.5988 48.9772 22.6079 48.9716L21.6006 47.2016C21.6006 47.2016 42.0871 17.0848 46.2798 11.155C46.0923 10.9331 45.8628 10.7439 45.5892 10.5945Z" fill="#CC1A45"/>
<path d="M44.8787 9.00586L45.7702 11.8799C40.654 19.1915 21.6006 47.2015 21.6006 47.2015L22.6079 48.9715C23.291 48.8738 23.9275 48.4988 24.3377 47.8891L24.9084 47.0238L46.4845 14.1836C46.8949 13.5597 46.987 12.8261 46.811 12.1625C46.4915 10.421 44.8787 9.00586 44.8787 9.00586Z" fill="#A61A45"/>
<g opacity="0.5">
<path d="M23.5109 43.6152C23.2639 43.9779 23.0362 44.3126 22.8267 44.6204C23.0362 44.3126 23.2641 43.9778 23.5109 43.6152Z" fill="#FF9CBA"/>
<path d="M46.5585 11.7536C46.7345 12.4173 46.6424 13.1508 46.2321 13.7747L24.6559 46.6149L24.0852 47.4803C23.6751 48.0901 23.0386 48.4651 22.3554 48.5626C22.3464 48.5682 22.3346 48.5694 22.3155 48.5686C21.8088 48.6384 21.278 48.548 20.7913 48.2866L8.28271 41.4951L8.30604 41.5278C7.3622 41.0715 6.74543 40.4657 6.33545 39.8681C6.72669 40.5882 7.39782 41.3755 8.55888 41.9367L8.53555 41.9041L21.0442 48.6956C21.5307 48.957 22.0615 49.0472 22.5683 48.9776C22.5874 48.9782 22.5992 48.9772 22.6083 48.9716C23.2914 48.8739 23.928 48.499 24.3381 47.8893L24.9088 47.0239L46.4849 14.1837C46.8953 13.5598 46.9874 12.8263 46.8114 12.1626C46.6863 11.4811 46.3629 10.8512 46.0159 10.335C46.2588 10.7619 46.4648 11.243 46.5585 11.7536Z" fill="#FF4C45"/>
<path d="M41.7061 16.9824C43.1428 14.893 44.3752 13.1083 45.2621 11.8369C44.3751 13.1087 43.1429 14.8929 41.7061 16.9824Z" fill="#FF9CBA"/>
</g>
<g opacity="0.76">
<path d="M43.6867 8.27665L44.6408 9.34127L31.7354 2.30776C30.5786 1.67994 29.1371 2.04673 28.4211 3.15194L6.48992 36.974C6.21809 37.3916 6.0941 37.8607 6.09335 38.3263L5.8261 36.7308C5.8261 36.7308 5.02674 39.5844 7.87217 40.8265L7.84883 40.7937L20.3575 47.5852C20.844 47.8466 21.3748 47.9369 21.8816 47.8672C21.9007 47.8678 21.9126 47.8668 21.9215 47.8611C22.6047 47.7636 23.2412 47.3885 23.6513 46.7788L24.2221 45.9134L45.7982 13.0732C46.2087 12.4493 46.3007 11.7158 46.1247 11.0521C45.8052 9.31086 43.6867 8.27665 43.6867 8.27665ZM39.613 18.6964C39.5019 18.8584 39.3892 19.0227 39.2765 19.1869C39.3894 19.0225 39.5018 18.8587 39.613 18.6964ZM39.0802 19.4733C38.9899 19.6051 38.8988 19.738 38.8075 19.8711C38.8988 19.738 38.9899 19.605 39.0802 19.4733ZM21.044 45.9003C21.0471 45.8957 21.0511 45.8898 21.0544 45.8851C21.0512 45.8898 21.0471 45.8959 21.044 45.9003ZM21.3363 45.4707C21.3734 45.4161 21.4115 45.3601 21.4534 45.2988C21.412 45.3595 21.373 45.4167 21.3363 45.4707ZM21.7056 44.9282C22.2885 44.0718 23.1659 42.7827 24.2501 41.1908C23.1666 42.7816 22.2885 44.0718 21.7056 44.9282ZM38.6228 20.1404C38.5001 20.3194 38.3766 20.4997 38.2525 20.6809C38.3766 20.4998 38.5002 20.3194 38.6228 20.1404ZM37.6804 21.5161C37.5461 21.7122 37.4109 21.9096 37.2754 22.1076C37.411 21.9095 37.5461 21.7124 37.6804 21.5161ZM36.6832 22.9729C36.5502 23.1671 36.4167 23.3623 36.2827 23.558C36.4167 23.3622 36.5501 23.1674 36.6832 22.9729ZM32.9749 28.3973C32.8565 28.5707 32.7381 28.7441 32.6198 28.9173C32.7381 28.744 32.8565 28.5707 32.9749 28.3973ZM32.5874 28.9647C32.44 29.1807 32.2927 29.3963 32.1458 29.6115C32.2926 29.3963 32.44 29.1805 32.5874 28.9647ZM26.7928 37.4589C26.6745 37.6324 26.5581 37.8032 26.4422 37.9735C26.5581 37.8034 26.6746 37.6323 26.7928 37.4589ZM40.095 17.9942C42.039 15.1623 43.7067 12.7431 44.8283 11.1354C43.7068 12.7429 42.0385 15.1629 40.095 17.9942ZM39.6187 18.6882C39.7676 18.471 39.9154 18.2559 40.0613 18.0431C39.9152 18.256 39.7676 18.471 39.6187 18.6882ZM45.0813 10.7732C45.0026 10.8856 44.9207 11.0029 44.8355 11.1249C44.9208 11.0027 45.0025 10.8858 45.0813 10.7732Z" fill="#FFB8FF"/>
</g>
<path d="M6.78733 39.7185C6.78944 39.7422 6.79167 39.7658 6.79378 39.7895L6.72949 39.6855L6.78733 39.7185Z" fill="#CC1A45"/>
<path d="M21.0439 48.6952L7.90357 41.5831L7.86719 41.5244C7.9362 41.5754 8.01441 41.6209 8.08963 41.6618L21.0439 48.6952Z" fill="#CC1A45"/>
<path d="M45.3669 12.7126L23.7246 46.0717C22.9103 47.3267 21.2641 47.7381 19.9553 47.0134L7.19732 39.95C5.75251 39.1502 5.28854 37.2932 6.18744 35.9077L27.8298 2.54853C28.644 1.2935 30.2903 0.882167 31.599 1.6068L44.357 8.67022C45.8017 9.47008 46.2657 11.3271 45.3669 12.7126Z" fill="#FF79A4"/>
<path d="M6.37766 36.3435L28.02 2.98434C28.8342 1.72932 30.4805 1.31797 31.7892 2.0426L44.5472 9.10602C45.0456 9.38195 45.4239 9.7851 45.6733 10.2498C45.4547 9.60251 45.0056 9.02944 44.3567 8.67022L31.5987 1.6068C30.29 0.882167 28.6436 1.2935 27.8294 2.54853L6.18712 35.9077C5.59828 36.8153 5.59753 37.9236 6.07106 38.8062C5.80295 38.0123 5.88253 37.1066 6.37766 36.3435Z" fill="#FCC7EF"/>
<path d="M6.45696 35.4917L6.18736 35.9074C5.28858 37.2929 5.75255 39.1499 7.19723 39.9497L19.9552 47.0131C21.264 47.7378 22.9104 47.3264 23.7245 46.0714L38.4175 23.4238C31.8422 28.4844 17.4308 38.1698 6.45696 35.4917Z" fill="#FFB4BA"/>
<path d="M42.8613 14.0267L23.882 43.2812C23.136 44.431 21.6278 44.8078 20.4287 44.144L9.349 38.0098C8.02533 37.2769 7.60034 35.5757 8.42378 34.3064L27.4031 5.05194C28.1491 3.90218 29.6574 3.52533 30.8564 4.18915L41.9361 10.3234C43.2598 11.0562 43.6848 12.7574 42.8613 14.0267Z" fill="#FFD1F4"/>
<path d="M8.61098 34.9669L27.5903 5.7124C28.3363 4.56264 29.8445 4.18579 31.0436 4.84961L42.1233 10.9838C42.6421 11.2711 43.0171 11.7092 43.2388 12.2097C43.1196 11.4425 42.6739 10.7316 41.9365 10.3234L30.8568 4.18915C29.6577 3.52534 28.1495 3.90217 27.4035 5.05193L8.42417 34.3064C7.92358 35.0781 7.89018 36.0075 8.23388 36.7838C8.1393 36.1739 8.24631 35.529 8.61098 34.9669Z" fill="#CC1A45"/>
<path d="M16.4409 29.7571C15.4481 29.233 14.0582 29.5726 13.3364 30.5157C12.9774 30.9849 12.8514 31.5149 12.9374 31.9936C12.8178 32.0923 12.3659 32.4401 12.0996 32.2994C12.0996 32.2994 12.3026 32.503 13.1932 32.6163C13.3453 32.8385 13.5573 33.0302 13.8268 33.1724C14.8195 33.6966 16.2095 33.357 16.9313 32.4139C17.6532 31.4709 17.4336 30.2814 16.4409 29.7571Z" fill="#FFA9BF"/>
<path d="M15.1919 32.2533C15.2057 32.2497 15.2186 32.2461 15.2322 32.2424C15.2686 32.2326 15.3042 32.2226 15.3384 32.2126C15.3533 32.2083 15.368 32.2038 15.3825 32.1994C15.4166 32.189 15.4494 32.1785 15.4813 32.1678C15.4916 32.1643 15.5024 32.161 15.5124 32.1575C15.5531 32.1435 15.5921 32.1292 15.6292 32.1149C15.6368 32.1121 15.6436 32.1091 15.6511 32.1061C15.6804 32.0944 15.7085 32.0828 15.7356 32.071C15.7462 32.0664 15.7565 32.0617 15.7668 32.0571C15.7906 32.0463 15.8134 32.0354 15.8355 32.0244C15.844 32.0202 15.8528 32.016 15.861 32.0118C15.89 31.9969 15.9178 31.9819 15.9436 31.9668C15.9453 31.9658 15.9467 31.9649 15.9484 31.964C15.9724 31.9498 15.9949 31.9357 16.0164 31.9215C16.0233 31.9169 16.0298 31.9125 16.0364 31.9079C16.0524 31.8968 16.0676 31.8859 16.0822 31.8749C16.0882 31.8703 16.0943 31.8657 16.1002 31.8611C16.1168 31.8479 16.1324 31.8348 16.1471 31.8216C16.1492 31.8198 16.1517 31.8178 16.1537 31.8159C16.17 31.8009 16.1851 31.7859 16.199 31.771C16.2028 31.7669 16.2063 31.7628 16.21 31.7586C16.2198 31.7476 16.2291 31.7366 16.2378 31.7258C16.2415 31.7211 16.2451 31.7165 16.2486 31.7118C16.2572 31.7003 16.265 31.6892 16.2722 31.678C16.2743 31.6747 16.2767 31.6714 16.2788 31.6682C16.2876 31.6539 16.2954 31.6398 16.3024 31.6259C16.304 31.6225 16.3053 31.6194 16.3068 31.6161C16.3119 31.6053 16.3165 31.5946 16.3206 31.584C16.3223 31.5796 16.324 31.5751 16.3254 31.5708C16.3288 31.561 16.3319 31.5513 16.3345 31.5417C16.3355 31.538 16.3367 31.5342 16.3376 31.5304C16.3407 31.5175 16.3433 31.505 16.3452 31.4925C16.3454 31.4906 16.3456 31.4887 16.3458 31.4867C16.3472 31.4763 16.3482 31.466 16.3488 31.4559C16.349 31.452 16.3492 31.448 16.3492 31.4442C16.3494 31.4361 16.3494 31.4281 16.3492 31.4205C16.349 31.4166 16.349 31.4129 16.3488 31.4092C16.3483 31.4 16.3474 31.391 16.3463 31.3823C16.3461 31.3807 16.3461 31.379 16.3458 31.3772C16.3444 31.3672 16.3427 31.3578 16.3407 31.3485C16.34 31.345 16.3392 31.3417 16.3384 31.3383C16.3376 31.3349 16.3369 31.3314 16.336 31.3282L16.3359 31.3287C16.3168 31.2552 16.2841 31.2101 16.2841 31.2101C15.9683 30.8179 15.4521 31.0492 15.4511 31.0496C15.4511 31.0487 15.4843 30.5623 14.9227 30.4911C14.9227 30.4911 14.2059 30.4271 14.2152 31.3833C14.2151 31.3822 14.215 31.3811 14.2148 31.3801C14.215 31.3991 14.2161 31.4194 14.2168 31.4392C14.2178 31.4646 14.2192 31.4907 14.2212 31.5175C14.223 31.5433 14.225 31.5692 14.2279 31.5962C14.2297 31.6137 14.2323 31.6322 14.2346 31.6503C14.2377 31.6748 14.2408 31.6992 14.2446 31.7246C14.2475 31.7438 14.251 31.7636 14.2544 31.7835C14.2589 31.8096 14.2636 31.836 14.269 31.8632C14.2729 31.8834 14.2772 31.904 14.2815 31.9249C14.2877 31.9539 14.2944 31.9837 14.3016 32.0139C14.3064 32.0344 14.3112 32.0547 14.3165 32.0757C14.3252 32.1101 14.3347 32.1457 14.3447 32.1817C14.3498 32.2001 14.3544 32.2178 14.3597 32.2366C14.3756 32.292 14.3927 32.3489 14.4116 32.408C14.4818 32.3975 14.5487 32.3865 14.614 32.3753C14.6339 32.372 14.6529 32.3685 14.6722 32.365C14.7184 32.3568 14.7633 32.3484 14.807 32.3398C14.8263 32.3361 14.8455 32.3323 14.8643 32.3285C14.913 32.3186 14.9601 32.3084 15.0058 32.2981C15.0156 32.2959 15.026 32.2938 15.0355 32.2915C15.0899 32.2792 15.1418 32.2664 15.1919 32.2533Z" fill="#FF639C"/>
<path d="M29.4892 20.0432L23.6409 16.955C22.9079 16.568 22.7443 15.6815 23.2772 14.9851C23.8102 14.2886 24.8461 14.0355 25.579 14.4226L31.4272 17.5108C32.1603 17.8979 32.3239 18.7844 31.7909 19.4808C31.2581 20.1772 30.2222 20.4303 29.4892 20.0432Z" fill="#FFA9BF"/>
<path d="M23.4818 16.8145C23.4818 16.8145 22.9172 17.1318 22.1387 17.0634C22.1387 17.0634 23.1878 17.6964 25.2057 17.7248L23.4818 16.8145Z" fill="#FFA9BF"/>
<path d="M31.049 18.6096C31.0167 18.6296 30.9752 18.6323 30.9394 18.6136L24.6166 15.2748C24.5629 15.2461 24.5419 15.1794 24.5703 15.1254C24.5985 15.0709 24.6653 15.051 24.7196 15.0791L31.0424 18.4179C31.0962 18.4466 31.1171 18.5133 31.0887 18.5673C31.0791 18.5854 31.0651 18.5997 31.049 18.6096Z" fill="#FFDDDB"/>
<path d="M30.5407 19.2738C30.5084 19.2938 30.4671 19.2965 30.4311 19.2778L24.1083 15.939C24.0546 15.9103 24.0336 15.8436 24.062 15.7896C24.0906 15.7349 24.1573 15.7149 24.2113 15.7434L30.5341 19.0822C30.5878 19.1108 30.6088 19.1775 30.5804 19.2316C30.5708 19.2496 30.5568 19.2639 30.5407 19.2738Z" fill="#FFDDDB"/>
<path d="M25.2521 24.9465L30.3818 27.6553C31.3123 28.1467 32.6274 27.8254 33.304 26.9413L33.9672 26.0748C34.6438 25.1907 34.4361 24.0652 33.5055 23.5738L28.3758 20.865C27.4453 20.3736 26.1302 20.695 25.4536 21.579L24.7904 22.4457C24.1138 23.3297 24.3215 24.4551 25.2521 24.9465Z" fill="#FFA9BF"/>
<path d="M30.9621 27.9054C30.9621 27.9054 30.8559 28.4649 31.2608 29.0213C31.2608 29.0213 30.1256 28.5007 29.2383 26.9951L30.9621 27.9054Z" fill="#FFA9BF"/>
<path d="M33.3355 25.0602C33.3033 25.0802 33.2619 25.0829 33.2259 25.064L26.9032 21.7252C26.8494 21.6965 26.8286 21.6299 26.8569 21.5758C26.8854 21.5212 26.9522 21.501 27.0062 21.5295L33.329 24.8683C33.3827 24.8969 33.4037 24.9636 33.3753 25.0177C33.3657 25.036 33.3517 25.0503 33.3355 25.0602Z" fill="#FFDDDB"/>
<path d="M32.6278 25.9851C32.5956 26.0051 32.5542 26.0079 32.5182 25.989L26.1952 22.6498C26.1415 22.6211 26.1205 22.5545 26.1489 22.5004C26.1774 22.4462 26.2439 22.4259 26.2982 22.4541L32.6213 25.7932C32.675 25.8219 32.696 25.8886 32.6676 25.9427C32.658 25.9608 32.644 25.9751 32.6278 25.9851Z" fill="#FFDDDB"/>
<path d="M31.9201 26.9086C31.8878 26.9286 31.8463 26.9313 31.8105 26.9124L25.4877 23.5736C25.434 23.545 25.413 23.4783 25.4414 23.4242C25.4698 23.3701 25.5364 23.3497 25.5909 23.3779L31.9136 26.7167C31.9674 26.7454 31.9883 26.812 31.9599 26.8661C31.9502 26.8844 31.9362 26.8985 31.9201 26.9086Z" fill="#FFDDDB"/>
<path d="M22.241 30.5872L17.0022 27.8207C16.1017 27.3452 15.9006 26.256 16.5553 25.4004L17.0998 24.6892C17.7546 23.8336 19.0272 23.5227 19.9278 23.9982L25.1666 26.7647C26.0671 27.2402 26.2682 28.3294 25.6135 29.185L25.069 29.8962C24.4142 30.7518 23.1415 31.0628 22.241 30.5872Z" fill="#FFA9BF"/>
<path d="M16.5385 27.5195C16.5385 27.5195 15.9738 27.8369 15.1953 27.7685C15.1953 27.7685 16.2444 28.4014 18.2623 28.4299L16.5385 27.5195Z" fill="#FFA9BF"/>
<path d="M25.0002 28.0727C24.9679 28.0927 24.9264 28.0955 24.8905 28.0766L18.5678 24.7378C18.514 24.7091 18.4931 24.6424 18.5215 24.5883C18.5497 24.5338 18.6164 24.5138 18.6708 24.542L24.9936 27.8809C25.0473 27.9095 25.0683 27.9762 25.0399 28.0303C25.0303 28.0484 25.0163 28.0627 25.0002 28.0727Z" fill="#FFDDDB"/>
<path d="M24.2924 28.9969C24.2601 29.0169 24.2188 29.0196 24.1828 29.0007L17.8598 25.6615C17.806 25.6328 17.7851 25.5662 17.8135 25.5121C17.8419 25.458 17.9084 25.4376 17.9628 25.4658L24.2858 28.805C24.3396 28.8336 24.3605 28.9003 24.3321 28.9544C24.3226 28.9727 24.3085 28.9868 24.2924 28.9969Z" fill="#FFDDDB"/>
<path d="M23.5851 29.9205C23.5528 29.9404 23.5115 29.9432 23.4755 29.9243L17.1527 26.5855C17.099 26.5568 17.078 26.4902 17.1064 26.436C17.1352 26.3817 17.2018 26.3613 17.2558 26.3898L23.5785 29.7286C23.6323 29.7573 23.6533 29.8239 23.6248 29.878C23.6153 29.8963 23.6012 29.9105 23.5851 29.9205Z" fill="#FFDDDB"/>
<path d="M31.9696 15.4582L26.7308 12.6919C25.8302 12.2163 25.6291 11.1271 26.284 10.2716L26.8284 9.56032C27.4832 8.70473 28.7558 8.3938 29.6564 8.86932L34.8952 11.6357C35.7957 12.1112 35.9968 13.2004 35.342 14.056L34.7976 14.7672C34.1428 15.6228 32.8701 15.9339 31.9696 15.4582Z" fill="#FFA9BF"/>
<path d="M26.267 12.3906C26.267 12.3906 25.7023 12.7079 24.9238 12.6395C24.9238 12.6395 25.9729 13.2724 27.9908 13.3008L26.267 12.3906Z" fill="#FFA9BF"/>
<path d="M34.7282 12.942C34.6959 12.9619 34.6544 12.9647 34.6186 12.9458L28.2958 9.60699C28.2421 9.57832 28.2211 9.51165 28.2495 9.45754C28.2781 9.40292 28.3448 9.38295 28.399 9.41125L34.7217 12.7501C34.7755 12.7787 34.7964 12.8454 34.768 12.8994C34.7583 12.9177 34.7443 12.932 34.7282 12.942Z" fill="#FFDDDB"/>
<path d="M34.0212 13.8655C33.9889 13.8854 33.9474 13.8882 33.9115 13.8694L27.5888 10.5306C27.535 10.5019 27.5141 10.4353 27.5425 10.3813C27.5707 10.3268 27.6374 10.3068 27.6918 10.335L34.0146 13.6738C34.0683 13.7025 34.0893 13.7691 34.0609 13.8231C34.0512 13.8411 34.0373 13.8554 34.0212 13.8655Z" fill="#FFDDDB"/>
<path d="M33.3144 14.7906C33.2821 14.8106 33.2408 14.8134 33.2048 14.7946L26.8817 11.4554C26.828 11.4268 26.807 11.3601 26.8354 11.3061C26.8636 11.2516 26.9304 11.2316 26.9848 11.2598L33.3078 14.599C33.3615 14.6277 33.3824 14.6943 33.3541 14.7483C33.3445 14.7664 33.3305 14.7806 33.3144 14.7906Z" fill="#FFDDDB"/>
<path d="M21.9492 44.0362L8.87517 36.7729C8.6757 36.662 8.6032 36.4082 8.71405 36.2089L9.74465 34.3537C9.85549 34.1542 10.1093 34.0817 10.3087 34.1926L23.3827 41.456C23.5821 41.5668 23.6546 41.8206 23.5438 42.02L22.5132 43.8751C22.4025 44.0745 22.1486 44.1471 21.9492 44.0362Z" fill="#FFA9BF"/>
<path d="M41.7251 13.9666L28.4374 6.58459C28.2967 6.50639 28.2456 6.32729 28.3238 6.18665L29.0509 4.87788C29.1291 4.73712 29.3082 4.68598 29.4488 4.76418L42.7364 12.1462C42.8772 12.2244 42.9283 12.4035 42.8501 12.5442L42.123 13.8529C42.0449 13.9936 41.8658 14.0447 41.7251 13.9666Z" fill="#FFA9BF"/>
<path opacity="0.35" d="M42.9153 10.4648L29.9065 3.47143C29.7838 3.40552 29.7375 3.25136 29.8035 3.12873L30.4165 1.98852C30.4824 1.86588 30.6366 1.81957 30.7592 1.88548L43.7681 8.8789C43.8907 8.94481 43.937 9.09897 43.8711 9.2216L43.258 10.3618C43.1921 10.4843 43.0378 10.5307 42.9153 10.4648Z" fill="#FCC7EF"/>
<path opacity="0.21" d="M20.8582 46.8966L7.84934 39.903C7.72671 39.8371 7.68042 39.683 7.74633 39.5603L8.35937 38.4202C8.42528 38.2975 8.57944 38.2512 8.70208 38.3171L21.7109 45.3105C21.8336 45.3764 21.8799 45.5306 21.8139 45.6532L21.201 46.7936C21.135 46.9161 20.9808 46.9624 20.8582 46.8966Z" fill="#FCC7EF"/>
<path opacity="0.63" d="M34.885 5.20736C35.1576 5.10386 35.3091 4.8367 35.2232 4.61066C35.1374 4.38462 34.8469 4.28528 34.5742 4.38877C34.3016 4.49227 34.1501 4.75941 34.2359 4.98546C34.3217 5.2115 34.6123 5.31085 34.885 5.20736Z" fill="#FCC7EF"/>
<path d="M34.843 5.22262C35.0923 5.12798 35.2308 4.88371 35.1523 4.67702C35.0739 4.47033 34.8081 4.37951 34.5588 4.47415C34.3095 4.56879 34.171 4.81306 34.2495 5.01975C34.3279 5.22643 34.5937 5.31726 34.843 5.22262Z" fill="#FF4FA4"/>
<path d="M35.0733 5.06578C35.0773 5.06082 35.0798 5.05547 35.0835 5.05051C35.1417 4.90541 35.0944 4.74988 34.9515 4.67094C34.7748 4.57338 34.5221 4.6296 34.3869 4.79667C34.2889 4.91781 34.2808 5.06342 34.3504 5.17178C34.3687 5.18693 34.3879 5.20144 34.41 5.2136C34.6174 5.32817 34.9145 5.26202 35.0733 5.06578Z" fill="#BD1D38"/>
<path opacity="0.63" d="M39.399 7.91678L35.6825 5.88921C35.4893 5.78383 35.4582 5.53893 35.6136 5.34505C35.769 5.15116 36.0543 5.0788 36.2475 5.18418L39.9641 7.21174C40.1573 7.31713 40.1884 7.56203 40.033 7.75591C39.8776 7.94979 39.5923 8.02216 39.399 7.91678Z" fill="#FCC7EF"/>
<path d="M39.369 7.90471L35.7794 5.92084C35.5927 5.81769 35.557 5.58892 35.6999 5.41242C35.8427 5.23591 36.1123 5.17584 36.299 5.27899L39.8886 7.26286C40.0753 7.36601 40.111 7.59477 39.9681 7.77128C39.8253 7.94791 39.5557 8.00785 39.369 7.90471Z" fill="#FF4FA4"/>
<path d="M39.4119 7.92899L35.9288 6.00394C35.7706 5.91656 35.7402 5.72255 35.8613 5.57286C35.9825 5.42316 36.211 5.3724 36.3692 5.45978L39.8523 7.38483C40.0106 7.47233 40.0408 7.66622 39.9198 7.81591C39.7987 7.96561 39.5702 8.0165 39.4119 7.92899Z" fill="#BD1D38"/>
<path d="M43.2927 13.4501L40.883 17.2568L38.4457 21.0455L33.5694 28.6217L28.634 36.1596L26.1655 39.928L23.6695 43.6787L23.6592 43.6719L43.2822 13.4434L43.2927 13.4501Z" fill="#FCB3EA"/>
<path d="M15.7925 1.86701C14.1027 1.75579 13.6765 3.31405 13.6758 3.31691C13.6736 3.31505 12.4377 2.27476 11.1101 3.32621C11.1101 3.32621 8.48218 5.58118 15.2084 8.23496C19.2362 2.2297 15.7925 1.86701 15.7925 1.86701Z" fill="#BD0923"/>
<path opacity="0.57" d="M16.8233 3.92486C16.958 3.20345 16.7243 2.53219 16.3293 2.04947C16.0427 1.89344 15.7927 1.86701 15.7927 1.86701C14.1029 1.75579 13.6768 3.31405 13.676 3.31691C13.6753 3.31629 13.5282 3.19253 13.2816 3.07337C13.2235 3.07027 13.1623 3.0457 13.1069 2.99766C12.6215 2.81036 11.8814 2.71552 11.1105 3.32609C11.1105 3.32609 9.14127 5.01604 12.9761 7.19169C13.0991 7.18275 13.2209 7.1629 13.34 7.1305C14.9685 6.68788 16.5439 5.42193 16.8233 3.92486Z" fill="#FF7483"/>
<path opacity="0.32" d="M15.9995 2.37634C15.9358 2.31862 15.863 2.27094 15.7841 2.23656C15.6445 2.17561 15.4731 2.17475 15.3233 2.18157C15.108 2.1915 14.7438 2.32693 14.5985 2.41655C14.3192 2.58871 14.0494 2.83547 13.8415 3.08893C13.7859 3.15682 13.7346 3.22832 13.6884 3.30304C13.602 3.44268 13.4254 3.49494 13.275 3.42941C13.273 3.42854 13.2711 3.42767 13.2691 3.42692C13.2444 3.41625 13.2186 3.40681 13.1918 3.40371C13.1582 3.39974 13.1242 3.38831 13.0923 3.36895C13.0652 3.35257 13.0349 3.34251 13.0045 3.33431C12.5938 3.22248 11.992 3.20225 11.3448 3.66375C11.3364 3.6697 11.3285 3.67591 11.3205 3.68261C11.178 3.80289 10.0347 4.85497 11.9911 6.12091C12.2663 6.26204 13.2405 6.63541 14.6904 5.80527L14.6905 5.81792C15.4617 5.3218 16.2384 4.63278 16.4183 3.91671C16.4714 3.70532 16.512 3.41823 16.476 3.20349C16.4424 3.00254 16.2281 2.65808 16.1055 2.49325C16.0741 2.45092 16.0385 2.41171 15.9995 2.37634Z" fill="#FF9FFF"/>
<g opacity="0.54">
<path d="M13.859 3.41321C13.8597 3.41036 14.2859 1.85211 15.9757 1.96333C15.9757 1.96333 16.1615 1.98294 16.3963 2.08819C16.0828 1.89766 15.7922 1.86701 15.7922 1.86701C14.232 1.76436 13.749 3.08491 13.6836 3.29021C13.7956 3.35997 13.8585 3.41284 13.859 3.41321Z" fill="#FF2C90"/>
<path d="M11.2935 3.42289C12.1507 2.74393 12.9697 2.93719 13.443 3.15987C13.0235 2.91547 12.0919 2.54893 11.1101 3.32669C11.1101 3.32669 8.98581 5.14958 13.4458 7.44613C9.2286 5.19501 11.2935 3.42289 11.2935 3.42289Z" fill="#FF2C90"/>
</g>
<path opacity="0.21" d="M15.3825 7.97251C15.4312 7.89779 15.4786 7.82419 15.5249 7.75133C15.532 7.74028 15.5391 7.7291 15.546 7.71805C15.591 7.64705 15.6348 7.57705 15.6775 7.50767C15.6848 7.49588 15.692 7.48408 15.6993 7.47229C15.7416 7.4034 15.7829 7.33538 15.8231 7.2681C15.8295 7.2573 15.8359 7.24663 15.8423 7.23583C15.8828 7.16768 15.9224 7.10029 15.9607 7.03388C15.9653 7.02594 15.9698 7.01812 15.9743 7.01017C16.014 6.94116 16.0527 6.87277 16.0901 6.80562C16.0913 6.80326 16.0926 6.80102 16.0938 6.79879C16.1313 6.73139 16.1674 6.66499 16.2025 6.59945C16.2053 6.59424 16.2082 6.58903 16.211 6.58381C16.2451 6.52001 16.2779 6.4572 16.3099 6.39514C16.3142 6.38658 16.3187 6.378 16.323 6.36956C16.3538 6.30949 16.3836 6.25028 16.4124 6.19182C16.4171 6.18214 16.422 6.17247 16.4267 6.16291C16.455 6.10507 16.4824 6.04797 16.5089 5.99174C16.5131 5.98268 16.5173 5.97374 16.5215 5.96468C16.5481 5.90795 16.5737 5.85185 16.5984 5.79661C16.6016 5.78941 16.6047 5.78234 16.6078 5.77514C16.633 5.71817 16.6576 5.66181 16.6808 5.60658C16.682 5.6036 16.6832 5.60062 16.6845 5.59751C16.7082 5.54104 16.7309 5.48543 16.7526 5.43069C16.7536 5.42821 16.7547 5.4256 16.7557 5.42312C16.7771 5.36925 16.7972 5.31637 16.8167 5.26411C16.819 5.25791 16.8214 5.25158 16.8236 5.24537C16.8422 5.1951 16.8598 5.14571 16.8766 5.09693C16.8792 5.08948 16.8817 5.08215 16.8843 5.0747C16.9007 5.02666 16.9164 4.97938 16.9313 4.93283C16.9335 4.92563 16.9359 4.91844 16.9381 4.91136C16.9529 4.86457 16.9669 4.81839 16.98 4.77296C16.9816 4.76713 16.9833 4.76142 16.985 4.75571C16.9984 4.70904 17.0111 4.66299 17.0227 4.61781C17.0235 4.61495 17.0241 4.61222 17.0248 4.60937C17.037 4.5622 17.0484 4.51565 17.059 4.46997L17.0591 4.46947C17.0694 4.42441 17.0788 4.38023 17.0875 4.33667C17.0883 4.33294 17.089 4.32922 17.0898 4.3255C17.0979 4.28392 17.1054 4.24308 17.1121 4.20286C17.113 4.19777 17.1138 4.19255 17.1147 4.18746C17.1212 4.14812 17.127 4.10939 17.1321 4.07128C17.1328 4.06607 17.1335 4.06085 17.1342 4.05576C17.1392 4.01766 17.1435 3.98031 17.1472 3.94344C17.1476 3.9391 17.148 3.93488 17.1485 3.93053C17.1521 3.89292 17.1551 3.85593 17.1574 3.81956C17.1575 3.81745 17.1577 3.81534 17.1578 3.81311C17.1605 3.7678 17.162 3.72386 17.1629 3.68066C17.0427 5.12982 16.007 7.42339 13.4873 7.46696C13.6088 7.52914 13.7353 7.59158 13.8668 7.65438C13.8692 7.65563 13.8716 7.65674 13.8741 7.65785C14.0025 7.71917 14.1359 7.78074 14.274 7.84268C14.2797 7.84528 14.2853 7.84777 14.291 7.85037C14.3574 7.88004 14.4251 7.90983 14.4938 7.93962C14.5028 7.94347 14.5119 7.94744 14.5209 7.95129C14.5847 7.97884 14.6494 8.0064 14.7151 8.03408C14.7222 8.03705 14.729 8.03992 14.7361 8.04289C14.8045 8.07157 14.8741 8.10036 14.9448 8.12903C14.9599 8.13524 14.9752 8.14145 14.9904 8.14765C15.0622 8.1767 15.1346 8.20587 15.2085 8.23503C15.2628 8.15423 15.3153 8.07467 15.3669 7.99585C15.3721 7.9884 15.3775 7.98046 15.3825 7.97251Z" fill="#880000"/>
<path opacity="0.45" d="M17.0781 2.98828C17.079 2.99759 17.0814 3.0069 17.0862 3.01596C17.1013 3.07058 17.1145 3.12793 17.1256 3.18776C17.1126 3.11775 17.0967 3.05121 17.0781 2.98828Z" fill="#BD0911"/>
<path opacity="0.45" d="M17.1637 3.59375C17.1641 3.62217 17.1637 3.65134 17.1631 3.68063C17.1632 3.67951 17.1632 3.6784 17.1633 3.6774C17.164 3.64898 17.1641 3.62118 17.1637 3.59375Z" fill="#BD0911"/>
<path opacity="0.45" d="M17.1409 3.27867C17.1368 3.249 17.132 3.21983 17.127 3.19141C17.132 3.21995 17.1366 3.249 17.1409 3.27867Z" fill="#BD0911"/>
<path opacity="0.45" d="M17.1519 3.37733C17.1489 3.34692 17.1456 3.31713 17.1416 3.28809C17.1454 3.31713 17.1489 3.34692 17.1519 3.37733Z" fill="#BD0911"/>
<path d="M12.8348 3.36255C12.8348 3.36255 13.8539 3.72785 14.0117 3.52863C14.1696 3.32954 14.1165 2.19851 15.6333 2.48735C15.6333 2.48735 14.9933 2.43 14.5797 3.34852C14.1663 4.26704 13.9149 4.40123 13.1825 4.25377C12.9402 4.20499 12.7655 4.23515 12.6381 4.31608C12.1289 4.63967 12.4295 5.81202 12.0822 5.94136C11.7713 6.05717 10.9383 5.27308 11.0031 4.42729C11.0113 4.3203 11.0548 3.93911 11.367 3.63339C11.7274 3.28088 12.294 3.17662 12.8348 3.36255Z" fill="#FFB392"/>
<path opacity="0.83" d="M11.1847 4.84924C11.1735 4.76707 11.0899 4.0772 11.5571 3.65753C12.1418 3.13249 13.2111 3.47369 13.2556 3.70965C13.2886 3.88517 12.4772 3.79258 12.0271 4.35325C11.5377 4.9627 11.9345 5.66809 11.7357 5.68001C11.6379 5.68584 11.3911 5.55812 11.1847 4.84924Z" fill="#FF829A"/>
<path opacity="0.58" d="M11.1924 4.38692C11.2024 4.28551 11.2533 3.88868 11.579 3.63832C11.9899 3.32267 12.5746 3.4427 12.5868 3.51867C12.5957 3.5744 12.2942 3.59985 11.8908 3.88943C11.7385 3.99879 11.6098 4.09312 11.5033 4.26205C11.3308 4.53562 11.3433 4.80348 11.2942 4.80299C11.2677 4.80262 11.2322 4.72528 11.1924 4.38692Z" fill="#FFCAF4"/>
<path opacity="0.42" d="M14.1957 3.23191C14.2154 3.14813 14.3061 2.79896 14.6083 2.62618C14.8082 2.51199 15.0599 2.49797 15.0803 2.55953C15.1004 2.6206 14.872 2.69098 14.6513 2.95909C14.3926 3.27324 14.3281 3.63618 14.2506 3.62525C14.2449 3.62451 14.2363 3.62129 14.2192 3.59013C14.1478 3.46079 14.1775 3.30341 14.1957 3.23191Z" fill="#FFCAF4"/>
<path opacity="0.32" d="M14.99 7.92346C14.8633 7.96628 14.7498 7.99147 14.6484 8.00562C14.8277 8.08171 15.0141 8.15818 15.2087 8.23489C15.7842 7.37694 16.2069 6.6343 16.5092 5.99121C16.5092 5.99121 15.607 7.71493 14.99 7.92346Z" fill="#FF9FFF"/>
<path d="M7.84588 11.1158C6.25387 13.3188 8.00934 15.2269 8.01257 15.2304C8.0081 15.2319 5.53965 16.0254 5.83743 18.7271C5.83743 18.7271 6.66272 24.2233 16.0068 17.34C11.2757 6.74243 7.84588 11.1158 7.84588 11.1158Z" fill="#BD0923"/>
<path opacity="0.57" d="M11.5226 11.4686C10.6564 10.6703 9.54439 10.4156 8.55103 10.5411C8.09462 10.7978 7.84539 11.1153 7.84539 11.1153C6.25337 13.3183 8.00885 15.2264 8.01207 15.2299C8.01058 15.2304 7.71691 15.3249 7.34454 15.5587C7.29079 15.635 7.20527 15.6974 7.09269 15.7316C6.42415 16.2321 5.66402 17.1574 5.83693 18.7265C5.83693 18.7265 6.45568 22.8453 12.6841 19.4858C12.7768 19.3109 12.8537 19.1284 12.9113 18.9389C13.6981 16.3469 13.32 13.1251 11.5226 11.4686Z" fill="#FF7483"/>
<path opacity="0.32" d="M8.71353 11.268C8.58072 11.3053 8.45374 11.3638 8.33979 11.4416C8.13797 11.5795 7.99051 11.8117 7.8721 12.0215C7.70205 12.3228 7.57569 12.9332 7.57358 13.2074C7.5696 13.7339 7.67499 14.3114 7.84231 14.81C7.88712 14.9435 7.94086 15.0741 8.00292 15.2006C8.1191 15.437 8.03953 15.7218 7.82219 15.8706C7.81946 15.8725 7.81662 15.8745 7.81388 15.8763C7.77826 15.9009 7.74338 15.928 7.71632 15.9616C7.68219 16.0039 7.63774 16.0404 7.58424 16.0675C7.53894 16.0903 7.4996 16.1228 7.46224 16.1572C6.95991 16.6204 6.41921 17.4213 6.49493 18.6948C6.49592 18.7114 6.49754 18.7276 6.4999 18.744C6.54198 19.0402 6.99763 21.492 10.3873 19.9111C10.814 19.6571 12.1523 18.651 12.2596 15.9716L12.277 15.9822C12.26 14.5107 11.9854 12.8667 11.1651 12.0117C10.9228 11.7592 10.5673 11.4592 10.2445 11.3251C9.94261 11.1994 9.29158 11.1971 8.96278 11.2233C8.8785 11.2301 8.79495 11.245 8.71353 11.268Z" fill="#FF9FFF"/>
<g opacity="0.54">
<path d="M8.29924 15.0625C8.29602 15.059 6.54052 13.1508 8.13254 10.9479C8.13254 10.9479 8.31773 10.7119 8.66106 10.4824C8.13464 10.7463 7.84519 11.1152 7.84519 11.1152C6.37518 13.1494 7.75918 14.932 7.98248 15.1961C8.17288 15.1032 8.29825 15.0627 8.29924 15.0625Z" fill="#FF2C90"/>
<path d="M6.12427 18.5593C5.93201 16.8146 6.8931 15.8659 7.59949 15.4121C6.90936 15.7743 5.61674 16.7284 5.83693 18.7266C5.83693 18.7266 6.50422 23.1695 13.4302 19.0632C6.77319 22.8782 6.12427 18.5593 6.12427 18.5593Z" fill="#FF2C90"/>
</g>
<path opacity="0.21" d="M15.7975 16.8782C15.7374 16.7483 15.6777 16.6211 15.6181 16.496C15.6091 16.477 15.6 16.4579 15.591 16.4389C15.5328 16.3173 15.4748 16.1979 15.4171 16.0807C15.4073 16.0607 15.3973 16.0407 15.3875 16.0209C15.3299 15.9046 15.2726 15.7905 15.2155 15.6785C15.2063 15.6605 15.1971 15.6428 15.1879 15.6249C15.1298 15.5117 15.072 15.4005 15.0144 15.2918C15.0075 15.2787 15.0006 15.2661 14.9938 15.2532C14.9337 15.1403 14.8739 15.0294 14.8144 14.9211C14.8125 14.9174 14.8103 14.9138 14.8084 14.9101C14.7487 14.8017 14.6892 14.696 14.6301 14.5922C14.6254 14.584 14.6208 14.5756 14.6161 14.5675C14.5584 14.4667 14.501 14.3685 14.4439 14.2721C14.4361 14.2588 14.4283 14.2454 14.4203 14.2322C14.3649 14.1391 14.3098 14.0482 14.2548 13.9592C14.2457 13.9445 14.2366 13.9298 14.2276 13.9152C14.1731 13.8274 14.1188 13.7415 14.0649 13.6574C14.0562 13.6439 14.0475 13.6306 14.0389 13.6172C13.9843 13.5328 13.9299 13.45 13.8759 13.3695C13.8689 13.359 13.8619 13.3487 13.8548 13.3383C13.7989 13.2554 13.7432 13.1741 13.6879 13.0953C13.6849 13.0909 13.6818 13.0868 13.6788 13.0825C13.6223 13.0022 13.566 12.9238 13.5101 12.8475C13.5075 12.844 13.505 12.8404 13.5024 12.837C13.4473 12.762 13.3926 12.6895 13.3382 12.6185C13.3318 12.6101 13.3252 12.6015 13.3187 12.5931C13.2662 12.525 13.2141 12.4589 13.1621 12.3943C13.1543 12.3845 13.1463 12.3747 13.1385 12.365C13.0872 12.3017 13.0362 12.2402 12.9856 12.1803C12.9778 12.171 12.97 12.162 12.9621 12.1528C12.911 12.0928 12.8602 12.0344 12.8097 11.9778C12.8033 11.9706 12.7969 11.9635 12.7905 11.9564C12.7385 11.8985 12.6866 11.842 12.6352 11.7875C12.632 11.7841 12.6289 11.7809 12.6256 11.7774C12.5718 11.7206 12.5183 11.6653 12.4651 11.6122C12.4649 11.612 12.4648 11.6119 12.4645 11.6116C12.412 11.5591 12.3599 11.5087 12.3081 11.4597C12.3037 11.4555 12.2992 11.4512 12.2948 11.447C12.2453 11.4003 12.196 11.3555 12.1471 11.312C12.1409 11.3064 12.1346 11.3008 12.1284 11.2952C12.0804 11.2529 12.0327 11.212 11.9853 11.1726C11.9788 11.1672 11.9724 11.1618 11.9659 11.1564C11.9184 11.1172 11.8712 11.0794 11.8243 11.043C11.8188 11.0388 11.8134 11.0345 11.8079 11.0303C11.7599 10.9933 11.7121 10.9576 11.6647 10.9236C11.6618 10.9216 11.6591 10.9196 11.6562 10.9176C11.597 10.8753 11.5386 10.8357 11.4805 10.7979C13.3485 12.197 15.5843 15.561 13.4949 19.0244C13.6831 18.9121 13.8758 18.7934 14.0732 18.6683C14.0769 18.666 14.0805 18.6636 14.0842 18.6614C14.2771 18.539 14.4746 18.4103 14.6765 18.2752C14.6848 18.2696 14.6931 18.2642 14.7014 18.2586C14.7984 18.1935 14.8966 18.1269 14.9957 18.0589C15.0086 18.0501 15.0216 18.041 15.0346 18.0321C15.1265 17.9689 15.2192 17.9043 15.3129 17.8385C15.323 17.8315 15.3328 17.8246 15.3428 17.8177C15.4402 17.7492 15.5387 17.6789 15.638 17.6076C15.6594 17.5922 15.6808 17.5767 15.7022 17.5613C15.8028 17.4885 15.9043 17.4149 16.007 17.3392C15.9434 17.1966 15.8799 17.0572 15.8167 16.9199C15.8102 16.9059 15.8038 16.8919 15.7975 16.8782Z" fill="#880000"/>
<path opacity="0.45" d="M10.4663 10.3223C10.4798 10.329 10.4943 10.3337 10.5107 10.3349C10.598 10.3609 10.6871 10.3918 10.778 10.4279C10.6717 10.3857 10.5677 10.3508 10.4663 10.3223Z" fill="#BD0911"/>
<path opacity="0.45" d="M11.3628 10.7227C11.4016 10.7464 11.441 10.7718 11.4805 10.7975C11.4791 10.7964 11.4776 10.7954 11.4763 10.7943C11.4381 10.7696 11.4004 10.7456 11.3628 10.7227Z" fill="#BD0911"/>
<path d="M7.60385 16.0376C7.60385 16.0376 8.55216 15.3676 8.44889 14.973C8.34562 14.5784 6.9589 13.3506 8.79272 11.6836C8.79272 11.6836 8.19394 12.4723 8.97331 13.8888C9.75269 15.3053 9.97835 15.654 9.08254 16.4513C8.78626 16.715 8.65629 16.9682 8.6373 17.2097C8.56122 18.1749 10.3551 18.9203 10.186 19.4905C10.0346 20.0011 8.22523 20.3132 7.20281 19.4143C7.07348 19.3006 6.6265 18.8771 6.53565 18.1816C6.43076 17.3795 6.84372 16.5521 7.60385 16.0376Z" fill="#FFB392"/>
<path opacity="0.83" d="M7.91835 19.5877C7.80217 19.5229 6.83636 18.9646 6.74898 17.9604C6.6395 16.7037 8.10876 15.6613 8.45432 15.8318C8.71138 15.9587 7.80986 16.9103 8.09472 18.0286C8.40441 19.2442 9.69208 19.4158 9.51557 19.6823C9.42881 19.8135 9.02678 20.0067 7.91835 19.5877Z" fill="#FF829A"/>
<path opacity="0.58" d="M7.2095 18.8746C7.1097 18.7451 6.73235 18.2253 6.83773 17.5745C6.97055 16.7535 7.78592 16.2504 7.88361 16.3258C7.95535 16.3812 7.63101 16.7426 7.47834 17.5248C7.42062 17.8202 7.37408 18.072 7.4354 18.3866C7.53482 18.896 7.84413 19.1953 7.78604 19.2489C7.75489 19.2776 7.6283 19.2261 7.2095 18.8746Z" fill="#FFCAF4"/>
<path opacity="0.58" d="M8.12179 14.0422C8.06705 13.9204 7.84872 13.4035 8.00884 12.8748C8.11472 12.5254 8.36434 12.2418 8.44067 12.2944C8.51639 12.3465 8.34149 12.6735 8.35179 13.2305C8.36383 13.8833 8.62164 14.389 8.53128 14.458C8.5247 14.4631 8.51291 14.4682 8.46711 14.4489C8.27683 14.3689 8.16684 14.1477 8.12179 14.0422Z" fill="#FFCAF4"/>
<path opacity="0.32" d="M15.3964 17.3715C15.3467 17.5803 15.2842 17.7562 15.217 17.9061C15.4731 17.7272 15.736 17.539 16.0064 17.3397C15.3304 15.8257 14.6811 14.6176 14.0645 13.6582C14.0645 13.6581 15.639 16.3545 15.3964 17.3715Z" fill="#FF9FFF"/>
<path d="M4.87179 3.94329C4.05803 4.57769 4.49582 5.45936 4.49657 5.46097C4.49483 5.46097 3.51089 5.48877 3.33314 6.50522C3.33314 6.50522 3.05163 8.59634 7.18733 7.07705C6.58545 2.71235 4.87179 3.94329 4.87179 3.94329Z" fill="#BD0923"/>
<path opacity="0.57" d="M6.17485 4.46149C5.94373 4.07869 5.56526 3.86805 5.18991 3.80859C4.99628 3.85377 4.87178 3.94314 4.87178 3.94314C4.05802 4.57754 4.49582 5.4592 4.49656 5.46082C4.49594 5.46082 4.37888 5.46417 4.21839 5.50997C4.19071 5.53206 4.15298 5.54571 4.10829 5.54633C3.81151 5.65792 3.43641 5.91473 3.33314 6.50507C3.33314 6.50507 3.12226 8.07213 5.74885 7.50737C5.80123 7.4535 5.84853 7.39504 5.88961 7.33211C6.45103 6.47031 6.65459 5.25576 6.17485 4.46149Z" fill="#FF7483"/>
<path opacity="0.32" d="M5.1721 4.09182C5.11972 4.09132 5.06721 4.09926 5.01743 4.11552C4.9293 4.14444 4.85087 4.21346 4.78546 4.27738C4.69149 4.36924 4.58077 4.57837 4.55098 4.67805C4.49376 4.86957 4.47092 5.09126 4.47911 5.29073C4.48135 5.3441 4.48705 5.39748 4.49636 5.45011C4.51361 5.54866 4.45454 5.64399 4.35946 5.67515C4.35822 5.67552 4.35697 5.67589 4.35585 5.67639C4.34034 5.6816 4.3247 5.68768 4.31129 5.69712C4.29441 5.70891 4.2743 5.7176 4.25196 5.72169C4.23297 5.72517 4.21522 5.73285 4.19797 5.74154C3.96573 5.85723 3.68384 6.09183 3.57647 6.56412C3.57511 6.5702 3.57399 6.57628 3.57312 6.58261C3.55711 6.69506 3.4634 7.63718 4.86662 7.41996C5.04896 7.37255 5.64353 7.14763 5.96662 6.18219L5.97183 6.1879C6.12153 5.6497 6.19562 5.02126 5.98721 4.6227C5.92565 4.50503 5.82784 4.35794 5.72445 4.27478C5.62763 4.19708 5.39056 4.12719 5.26792 4.10186C5.23627 4.09541 5.20425 4.09207 5.1721 4.09182Z" fill="#FF9FFF"/>
<g opacity="0.54">
<path d="M4.61862 5.43019C4.61788 5.42857 4.1801 4.54693 4.99386 3.91253C4.99386 3.91253 5.08633 3.84612 5.2359 3.79883C5.01607 3.83929 4.87146 3.94306 4.87146 3.94306C4.12001 4.5288 4.43567 5.32531 4.48917 5.44522C4.56823 5.43156 4.61825 5.43019 4.61862 5.43019Z" fill="#FF2C90"/>
<path d="M3.45566 6.47439C3.57035 5.81802 4.02128 5.57401 4.32688 5.4834C4.03692 5.54223 3.46459 5.75324 3.33314 6.50494C3.33314 6.50494 3.10563 8.19526 6.06562 7.43214C3.23459 8.11768 3.45566 6.47439 3.45566 6.47439Z" fill="#FF2C90"/>
</g>
<path opacity="0.21" d="M7.16023 6.88763C7.15216 6.83388 7.14384 6.78126 7.1354 6.72925C7.13416 6.7213 7.13279 6.71335 7.13155 6.70553C7.12323 6.65502 7.1148 6.60537 7.10611 6.55659C7.10462 6.54828 7.10313 6.53995 7.10164 6.53164C7.09295 6.4831 7.08414 6.43544 7.0752 6.38865C7.07371 6.38108 7.07234 6.37364 7.07085 6.36619C7.06166 6.31878 7.05236 6.2721 7.04293 6.2263C7.04181 6.22083 7.04069 6.2155 7.03958 6.21004C7.02965 6.1625 7.01959 6.1157 7.00941 6.07002C7.00904 6.06841 7.00868 6.06692 7.0083 6.06543C6.998 6.01963 6.98756 5.9747 6.97701 5.93064C6.97615 5.92716 6.9754 5.92355 6.97453 5.92008C6.96423 5.87725 6.95369 5.83531 6.94313 5.7941C6.94165 5.78839 6.94028 5.78267 6.93879 5.77709C6.92848 5.73724 6.91793 5.69827 6.90738 5.66004C6.90564 5.65371 6.9039 5.64738 6.90216 5.64118C6.89161 5.60332 6.88095 5.56633 6.87015 5.52996C6.86841 5.52413 6.86667 5.51829 6.86494 5.51258C6.85401 5.47596 6.84295 5.4401 6.83178 5.40497C6.83029 5.40038 6.82882 5.39591 6.82745 5.39144C6.81591 5.35532 6.8041 5.31969 6.79231 5.28518C6.79169 5.28332 6.79107 5.28147 6.79033 5.27961C6.77829 5.24435 6.76601 5.20985 6.75372 5.17609C6.7531 5.1746 6.7526 5.17297 6.75198 5.17136C6.73981 5.13822 6.72752 5.10595 6.71524 5.0743C6.71375 5.07057 6.71225 5.06673 6.71089 5.06301C6.69897 5.0326 6.68694 5.00305 6.6749 4.97401C6.67304 4.96966 6.67129 4.9652 6.66943 4.96086C6.65739 4.93231 6.64535 4.90449 6.63319 4.87731C6.63133 4.87309 6.62947 4.86887 6.62761 4.86478C6.61532 4.83747 6.60302 4.81078 6.59061 4.78484C6.589 4.78148 6.58739 4.77826 6.5859 4.77503C6.57311 4.74835 6.5602 4.72229 6.54717 4.69697C6.5463 4.69536 6.54555 4.69386 6.54469 4.69224C6.53116 4.6658 6.51738 4.63999 6.50373 4.61504L6.50361 4.61479C6.49008 4.59009 6.47642 4.56613 6.46264 4.5428C6.4614 4.54081 6.46029 4.53883 6.45917 4.53684C6.44601 4.51463 6.43286 4.49302 6.41958 4.47192C6.41784 4.46919 6.41622 4.46646 6.41449 4.46386C6.40145 4.44338 6.38841 4.42339 6.37526 4.40402C6.37352 4.40142 6.37166 4.39869 6.36992 4.39608C6.35677 4.37672 6.34349 4.35798 6.33033 4.33973C6.32884 4.33762 6.32723 4.33551 6.32574 4.3334C6.31209 4.31478 6.29856 4.29678 6.28491 4.27928C6.28416 4.27828 6.28329 4.2773 6.28242 4.27619C6.26529 4.25447 6.24816 4.23385 6.23103 4.21387C6.76377 4.92187 7.22241 6.38505 6.09375 7.42633C6.17418 7.40535 6.25709 7.38251 6.34236 7.35781C6.34398 7.35731 6.3456 7.35694 6.34709 7.35645C6.43038 7.33224 6.51602 7.30631 6.6039 7.27838C6.6075 7.27727 6.6111 7.27614 6.6147 7.27502C6.65703 7.26161 6.69984 7.24772 6.74316 7.23344C6.74887 7.23158 6.75459 7.22972 6.76018 7.22773C6.80039 7.21445 6.84097 7.20068 6.88206 7.18665C6.8864 7.18516 6.89076 7.18367 6.89522 7.18218C6.93792 7.16754 6.98135 7.15239 7.02505 7.13688C7.03448 7.13353 7.04392 7.13017 7.05335 7.12682C7.09779 7.11093 7.14261 7.09492 7.18803 7.07817C7.17997 7.01945 7.17164 6.96186 7.16308 6.90513C7.16184 6.89905 7.1611 6.89334 7.16023 6.88763Z" fill="#880000"/>
<path opacity="0.45" d="M5.91113 3.93262C5.91535 3.93647 5.92019 3.93981 5.92603 3.94192C5.95507 3.96066 5.98424 3.98139 6.01353 4.0041C5.97927 3.97754 5.94514 3.95372 5.91113 3.93262Z" fill="#BD0911"/>
<path opacity="0.45" d="M6.19531 4.17383C6.20698 4.18661 6.21866 4.20003 6.23033 4.21356C6.22996 4.21306 6.22958 4.21243 6.22909 4.21194C6.21779 4.1989 6.20648 4.18624 6.19531 4.17383Z" fill="#BD0911"/>
<path opacity="0.45" d="M6.05734 4.03986C6.04344 4.02807 6.02953 4.01666 6.01562 4.00586C6.0294 4.01666 6.04331 4.02807 6.05734 4.03986Z" fill="#BD0911"/>
<path opacity="0.45" d="M6.14742 4.1237C6.13376 4.10992 6.1201 4.09677 6.10645 4.08398C6.1201 4.09665 6.13376 4.10992 6.14742 4.1237Z" fill="#BD0911"/>
<path d="M4.2626 5.71216C4.2626 5.71216 4.67928 5.56842 4.6835 5.41364C4.68772 5.25886 4.31225 4.66431 5.15741 4.25098C5.15741 4.25098 4.85555 4.47502 4.9896 5.07404C5.12366 5.67307 5.16895 5.824 4.75785 6.01975C4.62194 6.08454 4.54772 6.16299 4.5152 6.24913C4.38524 6.59296 4.96018 7.0547 4.83804 7.24473C4.72881 7.41478 4.03608 7.33695 3.75866 6.90091C3.72353 6.84579 3.60549 6.64396 3.64608 6.38082C3.69275 6.07709 3.93094 5.81916 4.2626 5.71216Z" fill="#FFB392"/>
<path opacity="0.83" d="M4.00081 7.03941C3.96532 7.00341 3.67238 6.69757 3.74698 6.32234C3.84019 5.85266 4.48627 5.62824 4.59425 5.72704C4.67456 5.80052 4.24509 6.05188 4.23044 6.48979C4.21455 6.9658 4.66574 7.16478 4.57315 7.24323C4.52747 7.28183 4.3604 7.30962 4.00081 7.03941Z" fill="#FF829A"/>
<path opacity="0.58" d="M3.83569 6.81217C3.80354 6.75904 3.68326 6.54692 3.75066 6.30587C3.83568 6.00189 4.16462 5.84673 4.19826 5.87925C4.22296 5.90321 4.0853 6.02572 3.99444 6.31431C3.96018 6.42329 3.93189 6.51626 3.94169 6.63765C3.95758 6.83401 4.06147 6.96012 4.03739 6.97775C4.02423 6.98731 3.97868 6.96261 3.83569 6.81217Z" fill="#FFCAF4"/>
<path opacity="0.58" d="M4.68374 5.13836C4.6676 5.08846 4.60528 4.8777 4.7088 4.6925C4.77719 4.57012 4.9043 4.48373 4.93421 4.50942C4.96388 4.53499 4.86682 4.64348 4.83578 4.85275C4.79954 5.09802 4.87972 5.30779 4.83591 5.32641C4.83268 5.32778 4.82722 5.32877 4.80848 5.31797C4.73065 5.27292 4.69664 5.18143 4.68374 5.13836Z" fill="#FFCAF4"/>
<path opacity="0.32" d="M6.96149 7.024C6.92115 7.09488 6.87982 7.15234 6.83936 7.19988C6.95169 7.16178 7.0675 7.12106 7.18715 7.07712C7.10113 6.45352 6.9924 5.94437 6.86927 5.5293C6.86927 5.5293 7.15774 6.67894 6.96149 7.024Z" fill="#FF9FFF"/>
</svg>
