<svg width="50" height="50" viewBox="0 0 50 50" fill="none" xmlns="http://www.w3.org/2000/svg">
<path d="M46.7094 17.7633L39.2158 9.59952C39.0856 9.45752 39.0951 9.23484 39.2371 9.10459L40.7267 7.73731C40.8687 7.60705 41.0914 7.61655 41.2217 7.75855L48.7152 15.9224C48.8455 16.0644 48.836 16.287 48.694 16.4174L47.2043 17.7847C47.0624 17.9148 46.8396 17.9053 46.7094 17.7633Z" fill="#BD0911"/>
<path d="M48.4366 16.0654C47.6963 16.4207 45.5383 16.0589 39.4906 9.38672C39.4831 9.69419 39.5875 10.0049 39.8107 10.2479L46.1144 17.1155C46.5719 17.614 47.3541 17.6475 47.8525 17.19L48.0458 17.0125C48.3197 16.7611 48.4477 16.4119 48.4366 16.0654Z" fill="#D66F36"/>
<path opacity="0.54" d="M48.0513 15.1995L41.8861 8.48297C41.3905 7.94308 40.6086 7.84679 40.1485 8.26903L39.8156 8.57451C39.8027 8.58638 39.7915 8.59961 39.7793 8.61209C40.2436 8.23006 40.9947 8.33422 41.4764 8.859L47.6415 15.5755C48.511 16.5268 48.1628 16.8576 47.7424 17.2876C47.7559 17.2765 47.7699 17.2665 47.7829 17.2546L48.1157 16.9491C48.576 16.5268 48.5469 15.7395 48.0513 15.1995Z" fill="#F6609A"/>
<path d="M42.4955 21.6316L35.002 13.4678C34.8717 13.3258 34.8812 13.1031 35.0232 12.9728L36.5129 11.6055C36.6548 11.4752 36.8775 11.4847 37.0078 11.6267L44.5013 19.7905C44.6316 19.9325 44.6221 20.1552 44.4801 20.2856L42.9904 21.6529C42.8485 21.7831 42.6258 21.7735 42.4955 21.6316Z" fill="#BD0911"/>
<path opacity="0.54" d="M43.8374 19.0667L37.6723 12.3502C37.1766 11.8102 36.3947 11.714 35.9346 12.1363L35.6017 12.4417C35.5888 12.4536 35.5777 12.4668 35.5654 12.4793C36.0298 12.0973 36.7808 12.2014 37.2625 12.7262L43.4276 19.4427C43.9093 19.9675 43.9489 20.7248 43.5285 21.1548C43.542 21.1437 43.556 21.1337 43.569 21.1218L43.9018 20.8164C44.3622 20.394 44.3331 19.6066 43.8374 19.0667Z" fill="#F6609A"/>
<path d="M44.2345 19.9228C43.4941 20.2781 41.3362 19.9163 35.2885 13.2441C35.281 13.5516 35.3854 13.8622 35.6085 14.1054L41.9123 20.973C42.3698 21.4714 43.1519 21.5049 43.6504 21.0474L43.8437 20.8699C44.1174 20.6185 44.2456 20.2692 44.2345 19.9228Z" fill="#D66F36"/>
<path d="M43.23 21.3021C42.9799 21.2317 42.4051 20.9717 41.517 20.0041C40.2914 18.6691 35.8515 13.832 35.8515 13.832L35.5933 14.0954C35.5973 14.0999 35.5998 14.1052 35.6038 14.1095L41.9075 20.9772C42.2513 21.3514 42.7779 21.4633 43.23 21.3021Z" fill="#D66F36"/>
<path d="M43.4132 5.78656L45.0279 7.54574C45.1737 7.70448 45.1629 7.95363 45.0042 8.09937L24.0987 27.2886C23.9399 27.4343 23.6908 27.4237 23.545 27.2648L21.9304 25.5057C21.7846 25.3469 21.7952 25.0978 21.9541 24.952L42.8596 5.76284C43.0185 5.6171 43.2676 5.62783 43.4132 5.78656Z" fill="#BD0911"/>
<path d="M44.7091 7.85742L24.4337 26.4681C24.0191 26.8487 23.4842 26.9669 23.1455 26.7815C23.1715 26.8403 23.2053 26.895 23.2493 26.943C23.5578 27.279 24.2059 27.1907 24.6896 26.7467L44.4136 8.64209C44.7212 8.35997 44.7054 8.16914 44.7091 7.85742Z" fill="#D66F36"/>
<g opacity="0.68">
<path d="M23.0571 24.9681L42.7811 6.86341C43.1523 6.52272 43.5242 6.29542 43.854 6.26695C43.8134 6.14456 43.9443 6.36536 43.854 6.26695C43.466 5.8442 42.7529 5.86168 42.2692 6.30565L22.5452 24.4103C22.0615 24.8543 21.9832 25.5634 22.3712 25.9861C22.4615 26.0845 22.5699 26.1579 22.6885 26.2088C22.5546 25.8052 22.686 25.3088 23.0571 24.9681Z" fill="#E8AED8"/>
</g>
<path d="M24.7168 24.8393C24.6997 24.6188 24.5707 24.4292 24.3848 24.3278C24.3192 24.2922 24.2455 24.2672 24.168 24.2577C12.7523 22.6666 5.44036 23.7383 2.43767 27.4455C0.200425 30.2078 1.29383 33.331 1.34129 33.4609C1.34403 33.4704 1.3469 33.4766 1.35115 33.4846C2.12421 35.3856 3.33313 36.794 4.94219 37.6704C6.66252 38.6064 8.42031 38.7034 9.43878 38.6597C9.26293 40.436 9.39008 44.497 13.6337 46.8069C13.783 46.8882 13.937 46.968 14.0929 47.0433C14.1021 47.0468 14.1081 47.0502 14.1173 47.0537C14.246 47.1091 17.2939 48.3934 20.1888 46.3313C24.0744 43.5632 25.5986 36.3328 24.7168 24.8393ZM18.6439 41.3708C16.7976 42.6857 14.8524 41.8664 14.7698 41.8317C14.7651 41.83 14.7621 41.8267 14.7575 41.825C14.6566 41.777 14.5591 41.7261 14.4645 41.6753C11.7568 40.2013 11.6759 37.611 11.7883 36.4792C11.1385 36.5075 10.0169 36.4454 8.92137 35.8481C7.89441 35.2896 7.1236 34.3913 6.63117 33.1805C6.6283 33.1741 6.62693 33.1694 6.62568 33.1646C6.59333 33.0806 5.89745 31.0909 7.32467 29.3292C9.23933 26.9647 13.901 26.2802 21.1798 27.2965C21.2295 27.3017 21.2771 27.3179 21.3198 27.3415C21.4387 27.4058 21.5192 27.5262 21.5303 27.6685C22.093 34.9961 21.1207 39.6057 18.6439 41.3708Z" fill="#BD0911"/>
<path opacity="0.54" d="M23.5105 25.9657C23.518 25.9591 23.5265 25.9546 23.5339 25.9477L44.3662 6.82587C44.3648 6.82437 44.3639 6.82262 44.3627 6.82112L44.0788 6.51191C43.5672 5.95441 42.9345 6.09677 42.377 6.60856L22.9212 24.4669C22.7659 24.6094 22.4132 24.6017 22.3393 24.7858C14.9866 23.5906 9.50639 23.6469 5.96781 24.9525C4.45641 25.5766 3.27771 26.4075 2.43722 27.4452C2.28323 27.6354 2.1481 27.8273 2.02421 28.0198C0.685659 30.3839 1.60097 32.851 1.64493 32.9637C1.64767 32.9729 1.65068 32.979 1.65493 32.9866C2.4381 34.8116 3.61866 36.1813 5.16178 37.0582C6.81143 37.9945 8.47294 38.1362 9.43271 38.1235C9.42172 38.2836 9.41386 38.4637 9.41224 38.66C9.42035 38.6596 9.43034 38.6599 9.43833 38.6595C9.42947 38.7492 9.42173 38.8461 9.41486 38.947C9.45819 40.8527 10.1207 43.9817 13.6212 45.9693C13.7645 46.0506 13.9121 46.1307 14.0612 46.2065C14.0699 46.2101 14.0758 46.2135 14.0846 46.217C14.2074 46.2732 17.1198 47.5774 19.7932 45.7033C23.3239 43.228 24.5734 36.5872 23.5105 25.9657ZM18.6433 41.3706C16.797 42.6855 14.8519 41.8662 14.7692 41.8315C14.7646 41.8298 14.7616 41.8265 14.7569 41.8248C14.656 41.7768 14.5585 41.7259 14.464 41.6751C12.9005 40.8239 12.2153 39.6014 11.935 38.5017C11.643 37.7438 11.5728 37.0202 11.5759 36.4833C10.9106 36.4886 9.90679 36.3854 8.92079 35.8479C7.89384 35.2894 7.12302 34.3909 6.63071 33.1802C6.62784 33.1738 6.62648 33.1691 6.6251 33.1643C6.60987 33.1247 6.44888 32.6585 6.43077 31.995C6.3421 31.2717 6.39419 30.1943 7.17399 29.214C7.91158 28.2862 9.12873 27.6621 10.8059 27.3361C13.2694 26.6926 16.7333 26.6754 21.1792 27.2962C21.2289 27.3014 21.2765 27.3175 21.3192 27.3411C21.4381 27.4055 21.5186 27.5258 21.5298 27.6682C22.0924 34.9959 21.1201 39.6055 18.6433 41.3706Z" fill="#F6609A"/>
<path opacity="0.29" d="M18.1452 41.8279C18.383 41.6585 18.6027 41.4547 18.8126 41.2327C18.7558 41.2776 18.7022 41.3288 18.6437 41.3705C16.7973 42.6854 14.8522 41.8662 14.7695 41.8314C14.7649 41.8297 14.7619 41.8264 14.7573 41.8247C14.6564 41.7767 14.5588 41.7258 14.4643 41.675C11.7566 40.2009 11.6758 37.6107 11.7881 36.4789C11.1381 36.5072 10.0166 36.4451 8.92112 35.8478C7.89416 35.2893 7.12335 34.3909 6.63104 33.1801C6.62817 33.1737 6.6268 33.1689 6.62543 33.1642C6.59308 33.0802 5.89707 31.0904 7.32442 29.3287C7.39061 29.2471 7.46792 29.1723 7.54061 29.0947C7.27435 29.308 7.02981 29.5347 6.82599 29.7862C5.39877 31.5479 6.09477 33.5376 6.12699 33.6216C6.12836 33.6264 6.12974 33.6312 6.13249 33.6375C6.6248 34.8483 7.39561 35.7466 8.42269 36.3051C9.51821 36.9023 10.6397 36.9645 11.2896 36.9362C11.1772 38.068 11.2582 40.6582 13.9659 42.1323C14.0604 42.1831 14.1579 42.2341 14.2588 42.282C14.2635 42.2838 14.2665 42.287 14.2711 42.2888C14.3538 42.3236 16.299 43.1429 18.1452 41.8279Z" fill="#F6CEE2"/>
<path opacity="0.54" d="M20.4326 46.1446C23.3268 43.0424 25.3681 35.9713 24.8334 26.6055C25.4168 36.8388 23.9366 43.4038 20.4326 46.1446Z" fill="#F6CEE2"/>
<g opacity="0.7">
<path d="M22.8337 24.9527C22.9004 24.9602 22.9649 24.9817 23.023 25.0091L23.8703 24.2315C23.8435 24.2189 23.8122 24.2149 23.7832 24.2055C13.1607 22.7695 6.15262 23.677 2.92801 26.9053C2.86394 26.97 2.79862 27.0338 2.7373 27.1003C6.25103 24.3148 12.6704 23.5368 22.8337 24.9527Z" fill="#E8AED8"/>
</g>
<path d="M21.1358 45.4618C18.2409 47.524 15.193 46.2396 15.0644 46.1842C15.0551 46.1807 15.0491 46.1773 15.0399 46.1738C14.884 46.0985 14.7301 46.0187 14.5807 45.9374C10.3371 43.6273 10.21 39.5664 10.3858 37.7901C9.36734 37.8338 7.60954 37.7367 5.8892 36.8008C4.28014 35.9242 3.07124 34.516 2.29818 32.615C2.29381 32.607 2.29094 32.6006 2.28832 32.5911C2.24086 32.4612 1.14745 29.338 3.3847 26.5757C3.46875 26.4721 3.5573 26.3711 3.64797 26.2715C3.18863 26.6283 2.78324 27.0183 2.43767 27.4449C0.200425 30.2072 1.29383 33.3304 1.34129 33.4603C1.34403 33.4698 1.3469 33.4762 1.35115 33.4842C2.12421 35.3852 3.33313 36.7936 4.94219 37.67C6.66252 38.6059 8.42031 38.703 9.43877 38.6593C9.26293 40.4356 9.39008 44.4966 13.6337 46.8066C13.783 46.8879 13.937 46.9677 14.0929 47.043C14.1021 47.0465 14.1081 47.0499 14.1173 47.0534C14.246 47.1088 17.2939 48.3931 20.1888 46.331C20.5938 46.0424 20.9717 45.7025 21.3254 45.3172C21.2623 45.3655 21.2002 45.4159 21.1358 45.4618Z" fill="#D62C6D"/>
<path d="M22.4777 26.7987C22.4665 26.6563 22.386 26.5359 22.2671 26.4716C22.2244 26.448 22.1768 26.4319 22.1271 26.4267C14.8738 25.4138 10.22 26.0906 8.29297 28.4351C10.599 26.8069 14.921 26.4219 21.1801 27.2959C21.2298 27.3011 21.2774 27.3172 21.3201 27.3408C21.439 27.4052 21.5195 27.5255 21.5306 27.6679C22.0203 34.0455 21.3467 38.3631 19.531 40.5394C19.5512 40.5257 19.5713 40.5151 19.5912 40.5008C22.0679 38.7359 23.0402 34.1263 22.4777 26.7987Z" fill="#D66F36"/>
<path d="M17.742 38.4804C16.5071 39.3599 15.206 38.812 15.1507 38.7888C15.1476 38.7877 15.1456 38.7854 15.1426 38.7843C15.0752 38.7522 15.0098 38.7181 14.9466 38.6841C13.1356 37.6982 13.0814 35.9657 13.1566 35.2086C12.722 35.2276 11.9718 35.186 11.2391 34.7865C10.5522 34.4129 10.0365 33.812 9.70734 33.0022C9.70547 32.998 9.70459 32.9947 9.70359 32.9916C9.68199 32.9354 9.21653 31.6046 10.1712 30.4263C11.4518 28.8448 14.5699 28.387 19.4383 29.0667C19.4715 29.0702 19.5033 29.081 19.5319 29.0968C19.6115 29.1398 19.6653 29.2203 19.6728 29.3156C20.049 34.2166 19.3987 37.2999 17.742 38.4804Z" fill="#E7244A"/>
<g opacity="0.22">
<path d="M17.8016 35.5993C17.0315 36.1477 16.2202 35.806 16.1858 35.7915C16.1839 35.7908 16.1826 35.7894 16.1807 35.7888C16.1386 35.7688 16.0978 35.7476 16.0585 35.7263C15.4682 35.405 15.1772 34.9563 15.0405 34.5339C14.8709 34.0092 14.4781 33.6043 13.9663 33.3993C13.8933 33.3701 13.8198 33.3358 13.7466 33.296C13.3182 33.0631 12.9967 32.6884 12.7914 32.1834C12.7903 32.1807 12.7897 32.1787 12.7891 32.1767C12.7756 32.1416 12.4853 31.3118 13.0806 30.577C13.8791 29.5909 15.8235 29.3053 18.8593 29.7293C18.88 29.7316 18.8998 29.7382 18.9177 29.748C18.9673 29.7749 19.0009 29.8251 19.0055 29.8845C19.24 32.9407 18.8345 34.8632 17.8016 35.5993Z" fill="#E7AEE5"/>
</g>
<g opacity="0.22">
<path d="M17.5851 33.574C17.1808 33.862 16.7548 33.6825 16.7367 33.6749C16.7357 33.6745 16.735 33.6738 16.734 33.6734C16.7119 33.6629 16.6906 33.6517 16.6698 33.6406C16.3599 33.4718 16.207 33.2362 16.1353 33.0144C16.0463 32.7389 15.84 32.5263 15.5712 32.4187C15.5329 32.4033 15.4943 32.3853 15.4558 32.3643C15.2309 32.2421 15.062 32.0452 14.9542 31.7801C14.9536 31.7787 14.9534 31.7776 14.953 31.7766C14.9459 31.7583 14.7935 31.3225 15.1061 30.9366C15.5254 30.4188 16.5463 30.2688 18.1404 30.4915C18.1513 30.4926 18.1618 30.4961 18.171 30.5014C18.197 30.5155 18.2147 30.5418 18.2171 30.5729C18.3405 32.1779 18.1275 33.1875 17.5851 33.574Z" fill="#E7AEE5"/>
</g>
<path opacity="0.5" d="M16.2792 37.753C16.2761 37.7518 16.2741 37.7496 16.2711 37.7485C16.2037 37.7164 16.1383 37.6823 16.0751 37.6483C14.2641 36.6625 14.2099 34.9299 14.2851 34.1728C13.8505 34.1918 13.1003 34.1502 12.3676 33.7507C11.6807 33.3772 11.165 32.7763 10.8358 31.9664C10.834 31.9622 10.8331 31.9591 10.8321 31.9558C10.812 31.9035 10.4081 30.7455 11.1238 29.6348C10.7383 29.8567 10.4193 30.1199 10.1712 30.4262C9.21653 31.6045 9.68199 32.9353 9.70359 32.9915C9.70447 32.9947 9.70547 32.9979 9.70734 33.0021C10.0367 33.812 10.5522 34.4129 11.2391 34.7864C11.9718 35.1859 12.722 35.2274 13.1566 35.2085C13.0814 35.9656 13.1355 37.698 14.9466 38.684C15.0098 38.718 15.0752 38.7521 15.1426 38.7842C15.1457 38.7853 15.1477 38.7876 15.1507 38.7887C15.206 38.8119 16.507 39.3598 17.742 38.4804C18.046 38.2638 18.3154 37.9818 18.5514 37.6376C17.4212 38.2303 16.3297 37.7742 16.2792 37.753Z" fill="#E06F74"/>
<path d="M26.0464 25.7156C25.6847 25.5541 25.1345 25.2512 24.6259 24.6983C24.1138 24.1418 23.8573 23.5642 23.7271 23.189C24.0024 22.9362 24.2778 22.6834 24.5532 22.4307C24.6183 22.758 24.799 23.4228 25.3561 24.028C25.9096 24.6292 26.552 24.8646 26.8724 24.9574C26.5971 25.2101 26.3217 25.4629 26.0464 25.7156Z" fill="#FFBAB0"/>
<path d="M23.7277 23.1889C23.5612 21.8734 22.9188 20.3082 22.0167 19.2819C21.1131 18.2472 19.9638 17.4233 18.751 16.7098C18.4478 16.5316 18.1362 16.358 17.8276 16.1921C17.521 16.029 17.2176 15.8873 16.9108 15.8141C16.6078 15.7392 16.2966 15.7426 16.0218 15.8392C15.7486 15.9355 15.5416 16.1242 15.445 16.3928C15.3439 16.6587 15.3475 16.9827 15.4332 17.2773C15.5223 17.5748 15.6934 17.8616 15.9021 18.1284C16.11 18.3928 16.356 18.6618 16.5954 18.9028C16.836 19.14 17.1016 19.3427 17.3915 19.4321C17.6821 19.5228 18.0088 19.5064 18.2292 19.3397C18.4544 19.1783 18.5803 18.8662 18.5878 18.5562C18.6014 17.9203 18.189 17.2831 17.8734 16.6631C17.1768 15.4338 16.2781 14.3188 15.2436 13.3477C14.1988 12.3867 13.0105 11.5796 11.7312 10.9527C10.4449 10.3401 9.06517 9.91749 7.64844 9.7168C9.06954 9.8809 10.4659 10.2689 11.7776 10.8529C13.0826 11.4512 14.3056 12.2358 15.3913 13.1842C16.4665 14.1428 17.4127 15.2555 18.1592 16.4972C18.3316 16.8167 18.5237 17.1208 18.6796 17.4544C18.8358 17.7867 18.9729 18.1556 18.9733 18.5623C18.9714 18.9588 18.8321 19.392 18.479 19.6687C18.3054 19.8053 18.0925 19.8827 17.8833 19.9067C17.673 19.9328 17.4648 19.9094 17.2676 19.8551C16.8664 19.7407 16.5456 19.4955 16.2722 19.2416C16.0013 18.9821 15.7569 18.7286 15.5145 18.4376C15.2769 18.148 15.0606 17.8183 14.9334 17.4319C14.8119 17.0451 14.7865 16.618 14.9265 16.2071C14.9956 16.0029 15.113 15.8072 15.2712 15.649C15.4286 15.4908 15.6203 15.3736 15.8194 15.2976C16.2175 15.1444 16.6514 15.1374 17.0433 15.223C17.4359 15.3067 17.7891 15.4656 18.1172 15.6289C18.4429 15.7932 18.7605 15.9598 19.0786 16.1358C20.3437 16.838 21.5778 17.6673 22.5907 18.7669C23.5973 19.8567 24.3949 21.1929 24.6309 22.7233L23.7277 23.1889Z" fill="#FFBAB0"/>
<path d="M13.9678 12.2172L13.9877 12.183L13.6605 7.29583L5.71691 2.66797L1.61133 9.71504L9.5531 14.3418L13.9678 12.2172ZM12.4073 11.2851C12.5781 10.992 12.9536 10.8946 13.2467 11.0653C13.5398 11.2362 13.6383 11.6097 13.4676 11.9028C13.2969 12.1959 12.9232 12.2945 12.6301 12.1238C12.3369 11.9529 12.2365 11.5782 12.4073 11.2851Z" fill="#FFABB0"/>
<g opacity="0.68">
<path d="M13.3758 7.64351L13.6911 12.3506L13.968 12.2173L13.9879 12.1829L13.6607 7.29583L5.71696 2.66797L5.49365 3.05137L13.3758 7.64351Z" fill="#F6B3CE"/>
<path d="M12.5843 12.2235C12.8626 12.4079 13.1853 12.3561 13.3079 12.1071C13.3134 12.0958 13.3154 12.0832 13.3198 12.0715C13.1279 12.2253 12.8554 12.2548 12.6298 12.1233C12.3503 11.9605 12.2489 11.6131 12.3876 11.3271C12.3535 11.3584 12.3237 11.395 12.3016 11.4398C12.179 11.6888 12.3062 12.039 12.5843 12.2235Z" fill="#F6B3CE"/>
</g>
<path d="M6.23181 16.9071L6.21533 16.8893L6.22669 16.8789L6.23181 16.9071Z" fill="#FFBABF"/>
<g opacity="0.57">
<path d="M3.44488 31.114C3.3381 30.9774 3.27527 30.8048 3.2774 30.6183C3.31336 27.3906 6.0739 26.4307 6.19117 26.3915C6.60492 26.2533 7.05202 26.4765 7.19227 26.891C7.33027 27.3039 7.10885 27.7501 6.69734 27.8905C6.61017 27.9213 4.88259 28.5612 4.85923 30.6359C4.85474 31.0729 4.49644 31.4231 4.05958 31.4181C3.80943 31.4153 3.58763 31.2966 3.44488 31.114Z" fill="#FFB8EA"/>
</g>
<path d="M8.80184 11.5847C8.80334 11.5836 8.80484 11.5825 8.80634 11.5814C9.16926 11.2982 9.39918 10.9513 9.48997 10.5503C9.58689 10.122 9.50072 9.73638 9.42878 9.5197C9.82268 9.44864 10.6914 9.17289 10.9307 8.11584C10.9391 8.07875 10.9467 8.04053 10.9534 8.00218C10.9538 8.00031 10.954 7.99844 10.9543 7.9967C10.9584 7.9656 11.0493 7.22901 10.4273 6.73033C9.59238 6.06105 7.93874 6.17432 5.51229 7.06702C5.46571 7.08413 5.43248 7.1236 5.42199 7.16994C5.41824 7.1863 5.41737 7.20365 5.41987 7.22113C5.77443 9.78209 6.45282 11.2945 7.43644 11.716C8.16928 12.0298 8.77636 11.603 8.80184 11.5847Z" fill="#FF819A"/>
<path opacity="0.6" d="M1.61133 9.7148L9.5531 14.3415L10.7668 13.7574C8.10526 12.2646 3.06041 8.62953 5.40206 3.20801L1.61133 9.7148Z" fill="#FFBABF"/>
<path opacity="0.6" d="M22.0164 19.2818C22.903 20.2904 23.5361 21.8187 23.7157 23.1196L24.5701 22.425C24.4069 21.6287 24.096 20.8874 23.6834 20.2096C21.4958 18.2065 17.7222 15.1078 16.0215 15.8389C16.2961 15.7424 16.6075 15.7389 16.9104 15.8138C17.0989 15.8587 17.2861 15.9342 17.4734 16.0199C17.6104 16.2319 17.7486 16.4434 17.8731 16.6629C18.1888 17.283 18.6012 17.9202 18.5874 18.5561C18.5799 18.8661 18.4541 19.1781 18.2289 19.3395C18.0085 19.5061 17.6818 19.5225 17.3911 19.4319C17.3055 19.4056 17.2225 19.3667 17.1411 19.3225C17.3542 19.5172 17.6017 19.7122 17.8863 19.9058C18.0944 19.8813 18.3061 19.8042 18.4788 19.6685C18.8317 19.3917 18.9712 18.9585 18.9731 18.562C18.9727 18.1552 18.8356 17.7863 18.6794 17.4541C18.5235 17.1205 18.3314 16.8164 18.1589 16.4969C18.1201 16.4322 18.0748 16.372 18.0348 16.3081C18.2747 16.4394 18.5157 16.5714 18.7509 16.7096C19.9635 17.4234 21.1127 18.2471 22.0164 19.2818Z" fill="#FFBABF"/>
<path opacity="0.57" d="M4.18155 33.5545C4.62429 33.5545 4.9832 33.1956 4.9832 32.7529C4.9832 32.3101 4.62429 31.9512 4.18155 31.9512C3.73881 31.9512 3.37988 32.3101 3.37988 32.7529C3.37988 33.1956 3.73881 33.5545 4.18155 33.5545Z" fill="#FFB8EA"/>
</svg>
