<svg width="50" height="50" viewBox="0 0 50 50" fill="none" xmlns="http://www.w3.org/2000/svg">
<path d="M24.5508 6.41113L3.44727 20.9552H45.6542L24.5508 6.41113Z" fill="#FFA7CC"/>
<path d="M24.7712 6.85216L45.2349 20.9552H45.6543L24.5508 6.41113L3.44727 20.9552H4.30757L24.7712 6.85216Z" fill="#FFC9ED"/>
<path d="M45.6123 20.9648L24.5524 35.5698L3.48926 20.9648H45.6123Z" fill="#FF79B3"/>
<path d="M45.6647 20.9648V48.8278H3.4375V20.9648H3.48962L24.5528 35.5698L45.6126 20.9648H45.6647Z" fill="#FFA7CC"/>
<path opacity="0.33" d="M35.0763 13.6645C34.9296 13.7129 34.7759 13.7539 34.6349 13.8078C34.5902 13.8249 34.5476 13.8437 34.5036 13.8613C34.3971 13.9038 34.291 13.9466 34.1879 13.992C34.1332 14.016 34.0807 14.0415 34.027 14.0662C33.9371 14.1076 33.8473 14.1491 33.7601 14.1923C33.7046 14.2198 33.6509 14.2484 33.5965 14.2766C33.5144 14.3191 33.4327 14.3616 33.3532 14.4055C33.2987 14.4355 33.2458 14.4661 33.1925 14.4967C33.1164 14.5404 33.0411 14.5842 32.9676 14.6287C32.9151 14.6605 32.8638 14.6926 32.8126 14.7247C32.7415 14.7694 32.6715 14.8142 32.6029 14.8595C32.5535 14.8921 32.5048 14.9247 32.4566 14.9576C32.3895 15.0034 32.3238 15.0492 32.2592 15.0954C32.2134 15.1281 32.1678 15.1606 32.1233 15.1934C32.0598 15.2401 31.9982 15.2867 31.9373 15.3334C31.8951 15.3656 31.8529 15.3979 31.812 15.43C31.7516 15.4775 31.6937 15.5247 31.6361 15.5718C31.5988 15.6024 31.5609 15.6329 31.5247 15.6633C31.4652 15.7133 31.4087 15.7622 31.3525 15.8113C31.3219 15.838 31.2902 15.8651 31.2604 15.8915C31.2 15.9453 31.1431 15.9977 31.0867 16.0499C31.0641 16.0708 31.0402 16.0922 31.0182 16.1129C30.8642 16.2577 30.7261 16.3954 30.6038 16.5227C30.5863 16.5409 30.5712 16.5574 30.5544 16.5751C30.5122 16.6197 30.4705 16.6637 30.4325 16.7052C30.4131 16.7264 30.3961 16.7453 30.3778 16.7657C30.3461 16.8008 30.3148 16.8356 30.2864 16.8678C30.2672 16.8897 30.2506 16.909 30.2329 16.9295C30.2094 16.9568 30.1861 16.9837 30.1652 17.0084C30.1483 17.0285 30.1337 17.0462 30.1184 17.0644C30.1003 17.0864 30.083 17.1072 30.0674 17.1265C30.0542 17.1427 30.0431 17.1566 30.0317 17.1708C30.0254 17.1787 30.0172 17.1887 30.0115 17.196L30.0116 17.1962C29.9575 17.2648 29.9265 17.3069 29.9259 17.3077C29.924 17.3043 29.6482 16.8161 29.1009 16.1449C29.1025 16.1465 29.1043 16.1482 29.1059 16.1498C29.0788 16.1165 29.0495 16.0819 29.0211 16.0477C28.9997 16.0221 28.9797 15.9974 28.9576 15.9713C28.8981 15.9013 28.8354 15.8294 28.7705 15.7565C28.7464 15.7293 28.7211 15.7017 28.6962 15.6742C28.6478 15.6209 28.5982 15.5672 28.547 15.5126C28.5198 15.4837 28.4927 15.4549 28.4647 15.4257C28.4 15.3583 28.3331 15.2902 28.264 15.2216C28.2494 15.2071 28.2359 15.1929 28.2211 15.1784C28.1389 15.0975 28.0528 15.0162 27.9645 14.9344C27.936 14.908 27.9065 14.8816 27.8773 14.8551C27.8103 14.7944 27.7417 14.7337 27.6715 14.673C27.6409 14.6467 27.6108 14.6204 27.5795 14.5941C27.4806 14.5104 27.3795 14.4269 27.2743 14.344C27.2684 14.3394 27.2621 14.3349 27.2561 14.3303C27.1559 14.2516 27.0521 14.1739 26.9461 14.0968C26.9129 14.0726 26.8791 14.0487 26.8452 14.0248C26.7587 13.9633 26.6704 13.9027 26.5802 13.8426C26.5474 13.8209 26.5153 13.799 26.4822 13.7775C26.361 13.6987 26.2374 13.6212 26.1097 13.5458C26.0947 13.537 26.0791 13.5286 26.064 13.5198C25.9503 13.4534 25.8338 13.3889 25.715 13.3257C25.6764 13.3053 25.6375 13.2852 25.5985 13.2651C25.4925 13.2105 25.3843 13.1575 25.2743 13.106C25.2398 13.0898 25.206 13.0732 25.171 13.0573C25.0283 12.9924 24.8826 12.9301 24.7333 12.8711C24.7076 12.861 24.681 12.8517 24.6551 12.8418C24.5298 12.7935 24.4022 12.7476 24.2725 12.704C24.2271 12.6887 24.1816 12.674 24.1358 12.6593C24.009 12.6188 23.8802 12.5809 23.7492 12.5453C23.7147 12.5359 23.681 12.5256 23.6461 12.5165C23.4822 12.474 23.3151 12.4355 23.1446 12.4013C23.1073 12.3939 23.069 12.3878 23.0314 12.3807C22.895 12.3551 22.7566 12.3322 22.6162 12.3123C22.5636 12.3049 22.5109 12.2978 22.4578 12.2911C22.3078 12.2725 22.1554 12.2573 22.0008 12.2456C21.9692 12.2432 21.9385 12.2396 21.9068 12.2374C21.7218 12.2254 21.5333 12.2192 21.342 12.2178C21.2934 12.2175 21.2439 12.219 21.1949 12.2193C21.0462 12.2204 20.8955 12.2249 20.7429 12.2329C20.6842 12.236 20.6255 12.239 20.5663 12.2432C20.3869 12.2557 20.2052 12.2725 20.0205 12.295C19.9976 12.2978 19.9753 12.2993 19.9524 12.3022C19.7463 12.3286 19.5362 12.363 19.3236 12.4025C19.2647 12.4134 19.205 12.4264 19.1457 12.4383C18.9831 12.4712 18.8188 12.508 18.6524 12.5489C18.5881 12.5647 18.5239 12.58 18.4591 12.597C18.2366 12.6555 18.0122 12.7186 17.7832 12.7921C17.7832 12.7921 17.7742 12.7955 17.7612 12.8005C17.7553 12.8028 17.7497 12.805 17.7414 12.8083C17.7362 12.8103 17.7299 12.8129 17.7237 12.8154C17.714 12.8194 17.7041 12.8233 17.6921 12.8284C17.6829 12.8322 17.6729 12.8365 17.6624 12.8409C17.6497 12.8463 17.6367 12.8518 17.6221 12.8582C17.6105 12.8632 17.5986 12.8684 17.5858 12.8741C17.57 12.8811 17.5537 12.8884 17.5361 12.8964C17.5217 12.9029 17.5075 12.9094 17.4922 12.9166C17.4728 12.9256 17.4523 12.9353 17.4311 12.9455C17.4154 12.9529 17.4 12.9602 17.3835 12.9683C17.3614 12.979 17.3379 12.9907 17.3143 13.0025C17.2957 13.0118 17.2778 13.0207 17.2584 13.0306C17.2332 13.0435 17.2065 13.0576 17.1799 13.0715C17.1607 13.0815 17.1423 13.091 17.1225 13.1016C17.0862 13.121 17.0482 13.142 17.0099 13.1633C16.9849 13.1773 16.9592 13.1917 16.9333 13.2065C16.896 13.2278 16.8585 13.2491 16.8195 13.2722C16.7986 13.2845 16.7767 13.2981 16.7554 13.3109C16.7211 13.3316 16.687 13.3522 16.6516 13.3742C16.6271 13.3895 16.6019 13.4058 16.5769 13.4217C16.5436 13.4429 16.5104 13.4641 16.4764 13.4864C16.4493 13.5041 16.4219 13.5228 16.3943 13.5413C16.3608 13.5638 16.3271 13.5866 16.293 13.6103C16.2641 13.6303 16.2351 13.6508 16.2059 13.6716C16.1723 13.6956 16.1385 13.72 16.1045 13.7451C16.0745 13.7672 16.0443 13.7894 16.014 13.8123C15.9794 13.8385 15.9444 13.8654 15.9094 13.8927C15.879 13.9164 15.8488 13.94 15.8181 13.9645C15.7822 13.9931 15.7461 14.023 15.71 14.0529C15.6796 14.0781 15.6493 14.1028 15.6188 14.1287C15.5802 14.1615 15.5414 14.1959 15.5027 14.2301C15.4746 14.2548 15.4468 14.2787 15.4187 14.3042C15.3586 14.3587 15.2984 14.4151 15.2383 14.4729C15.2118 14.4984 15.1854 14.5251 15.159 14.5512C15.1138 14.596 15.0684 14.6408 15.0233 14.6875C14.9942 14.7176 14.9655 14.7493 14.9366 14.7802C14.8992 14.82 14.862 14.8597 14.825 14.9009C14.7947 14.9347 14.7647 14.9698 14.7346 15.0046C14.6995 15.045 14.6645 15.0855 14.6297 15.1273C14.5991 15.164 14.5689 15.2017 14.5386 15.2395C14.505 15.2815 14.4715 15.3238 14.4384 15.3671C14.408 15.4066 14.378 15.4467 14.3481 15.4873C14.3158 15.5313 14.2837 15.5759 14.2519 15.6211C14.2225 15.6629 14.1932 15.705 14.1643 15.7479C14.133 15.7942 14.1023 15.8416 14.0718 15.8892C14.0435 15.9333 14.0151 15.9773 13.9873 16.0225C13.9568 16.0721 13.9274 16.123 13.8977 16.1739C13.8713 16.2191 13.8447 16.2639 13.8191 16.3103C13.7881 16.3662 13.7584 16.424 13.7285 16.4815C13.7058 16.5253 13.6822 16.568 13.6601 16.6128C13.6136 16.7066 13.5687 16.8027 13.5253 16.9007C13.5044 16.9477 13.4849 16.9964 13.4648 17.0444C13.4361 17.1128 13.4072 17.1811 13.3801 17.2514C13.3604 17.3028 13.3423 17.3559 13.3234 17.4083C13.3009 17.4709 13.2781 17.5333 13.2569 17.5975C13.2383 17.6539 13.2211 17.712 13.2036 17.7696C13.1843 17.8328 13.1652 17.896 13.1473 17.9606C13.1308 18.0199 13.1156 18.0804 13.1004 18.141C13.0839 18.2065 13.0679 18.2725 13.0529 18.3394C13.0389 18.4015 13.0258 18.4645 13.0132 18.5278C12.9995 18.596 12.987 18.6649 12.975 18.7346C12.9638 18.7993 12.953 18.8643 12.9431 18.9304C12.9325 19.0018 12.9234 19.0745 12.9145 19.1473C12.9064 19.2141 12.8979 19.2808 12.8913 19.3489C12.8838 19.4248 12.8784 19.5024 12.8728 19.5799C12.8679 19.6476 12.8622 19.7146 12.8588 19.7835C12.8546 19.8679 12.8531 19.9545 12.8512 20.0408C12.8498 20.1055 12.8468 20.169 12.8467 20.2349C12.8464 20.3832 12.8493 20.534 12.8561 20.6878C12.8588 20.7503 12.8646 20.8151 12.8685 20.8785C12.8701 20.9039 12.8722 20.9297 12.8738 20.955H45.6549L35.0763 13.6645Z" fill="#D48DC7"/>
<path d="M37.784 13.8086C29.1416 10.4785 24.381 17.9216 24.3724 17.935C24.3638 17.9215 19.6032 10.4785 10.9607 13.8086C10.9607 13.8086 -6.43034 21.3064 24.3723 46.1079V46.1082L24.3725 46.1081L24.3727 46.1082V46.1079C55.175 21.3064 37.784 13.8086 37.784 13.8086Z" fill="#BD0917"/>
<path opacity="0.57" d="M39.8175 26.2311C41.6944 22.6836 41.5666 18.7979 40.2896 15.6345C39.0472 14.3537 37.7843 13.8086 37.7843 13.8086C29.1419 10.4786 24.3813 17.9215 24.3727 17.935C24.3698 17.9304 23.8032 17.0449 22.709 16.0216C22.4107 15.9107 22.1311 15.6832 21.9201 15.3421C19.6899 13.5744 15.9804 11.8745 10.9609 13.8086C10.9609 13.8086 -2.07148 19.4282 14.4123 37.0285C15.0691 37.1822 15.7369 37.2767 16.4118 37.3014C25.6363 37.64 35.9223 33.5932 39.8175 26.2311Z" fill="#FF7483"/>
<path opacity="0.32" d="M38.0358 16.8017C37.7971 16.3965 37.4942 16.0292 37.1386 15.7213C36.5088 15.1762 35.6153 14.8922 34.8214 14.6844C33.6812 14.386 31.5598 14.5003 30.6546 14.7319C28.9162 15.1766 27.1055 16.0258 25.6081 17.0107C25.2071 17.2745 24.8235 17.565 24.461 17.8796C23.783 18.4679 22.7755 18.4536 22.0964 17.8665C22.0877 17.859 22.079 17.8515 22.0702 17.8439C21.9584 17.7479 21.8388 17.6567 21.7043 17.5967C21.5351 17.5211 21.3763 17.4065 21.2408 17.2536C21.1262 17.1241 20.9846 17.0227 20.8388 16.9296C18.876 15.6771 15.7672 14.5921 11.6371 15.9488C11.5835 15.9664 11.5314 15.9858 11.4793 16.0078C10.5399 16.4041 2.85791 20.0368 11.0136 29.8308C12.221 31.0154 16.6998 34.55 25.621 32.5746L25.6011 32.6409C30.4348 31.3054 35.6125 28.9715 37.7162 25.5253C38.3375 24.5077 39.0166 23.0754 39.1784 21.8952C39.3296 20.7914 38.7716 18.6441 38.3993 17.5837C38.304 17.3123 38.1819 17.05 38.0358 16.8017Z" fill="#FF9FFF"/>
<g opacity="0.65">
<path d="M25.1736 18.7362C25.1822 18.7226 29.9428 11.2797 38.5852 14.6097C38.5852 14.6097 39.5236 15.0146 40.5782 15.9465C39.2511 14.4413 37.784 13.8087 37.784 13.8087C29.804 10.7337 25.1338 16.8436 24.458 17.8089C24.9293 18.355 25.1716 18.7331 25.1736 18.7362Z" fill="#FFC7D6"/>
<path d="M11.7619 14.6097C17.3429 12.4593 21.3044 14.8012 23.4136 16.734C21.6204 14.7752 17.3526 11.3458 10.9608 13.8087C10.9608 13.8087 -3.09713 19.87 16.4535 39.1193C-1.90341 20.5029 11.7619 14.6097 11.7619 14.6097Z" fill="#FFC7D6"/>
</g>
<path opacity="0.21" d="M25.709 45.0184C26.0849 44.7078 26.4517 44.4003 26.8123 44.0952C26.867 44.0488 26.9224 44.0024 26.9768 43.9561C27.3271 43.6586 27.6698 43.3639 28.0058 43.0717C28.0631 43.0218 28.1204 42.972 28.1773 42.9223C28.5102 42.6316 28.8366 42.3433 29.1554 42.0578C29.2066 42.012 29.2572 41.9663 29.308 41.9206C29.6304 41.6308 29.9468 41.3434 30.255 41.0591C30.2917 41.0251 30.3277 40.9915 30.3643 40.9576C30.6839 40.6617 30.9976 40.3681 31.3022 40.078C31.3125 40.0681 31.3226 40.0582 31.3331 40.0483C31.6382 39.7574 31.9352 39.4697 32.2254 39.1845C32.2483 39.162 32.2719 39.1393 32.2948 39.1167C32.5766 38.8391 32.8504 38.5647 33.1185 38.2925C33.1553 38.2552 33.1926 38.2176 33.2292 38.1804C33.4877 37.9168 33.7392 37.656 33.9851 37.3975C34.0257 37.3549 34.0662 37.3122 34.1065 37.2697C34.3485 37.0138 34.5845 36.7603 34.8143 36.5095C34.8512 36.4692 34.8876 36.429 34.9241 36.3889C35.1549 36.1355 35.3802 35.8846 35.5987 35.6363C35.6271 35.604 35.6548 35.572 35.683 35.5398C35.9076 35.2834 36.127 35.0292 36.3387 34.7783C36.3503 34.7645 36.3615 34.751 36.373 34.7372C36.5887 34.4811 36.7978 34.2277 37.0004 33.9771C37.0096 33.9656 37.0193 33.954 37.0286 33.9426C37.2275 33.696 37.4191 33.4526 37.6057 33.2114C37.628 33.1828 37.6506 33.1538 37.6726 33.1252C37.8513 32.8931 38.0237 32.6637 38.1911 32.4365C38.2164 32.4021 38.2419 32.3676 38.2671 32.3332C38.431 32.1093 38.5894 31.8878 38.7427 31.6687C38.7664 31.6349 38.7898 31.6012 38.8132 31.5674C38.9663 31.3469 39.1146 31.1286 39.2571 30.913C39.2752 30.8856 39.2928 30.8584 39.3108 30.831C39.4565 30.6091 39.5976 30.3894 39.7324 30.1726C39.7407 30.1591 39.7488 30.1457 39.7571 30.1323C39.8976 29.9056 40.0329 29.6813 40.1618 29.4601C40.1623 29.4592 40.1628 29.4584 40.1634 29.4575C40.2907 29.2389 40.4117 29.0233 40.5279 28.8101C40.5379 28.7919 40.5483 28.7735 40.5581 28.7553C40.6686 28.5514 40.7736 28.3503 40.8743 28.1513C40.8872 28.1258 40.9003 28.1003 40.913 28.0748C41.0109 27.8798 41.104 27.6871 41.1927 27.4967C41.2048 27.4707 41.2168 27.4447 41.2287 27.4188C41.3166 27.2282 41.4003 27.0397 41.4793 26.8537C41.4885 26.8319 41.4974 26.8104 41.5066 26.7886C41.5866 26.5981 41.6628 26.4096 41.7337 26.2241C41.7379 26.213 41.7419 26.2022 41.746 26.1911C41.8341 25.9592 41.9135 25.7321 41.988 25.5078C39.0025 32.8789 29.8627 43.1696 16.6348 39.297C17.1685 39.8192 17.7272 40.3512 18.311 40.8928C18.3218 40.9029 18.3327 40.913 18.3436 40.923C18.9145 41.4522 19.5105 41.9909 20.131 42.5387C20.1565 42.5613 20.1816 42.5836 20.2072 42.6062C20.5059 42.8693 20.8106 43.1349 21.121 43.4024C21.1615 43.4373 21.2026 43.4725 21.2434 43.5074C21.5316 43.7551 21.8246 44.0046 22.123 44.256C22.1548 44.2829 22.1859 44.3094 22.2178 44.3362C22.5282 44.5973 22.8453 44.8607 23.1669 45.1258C23.236 45.1828 23.3056 45.24 23.3753 45.2972C23.7024 45.5657 24.0334 45.8356 24.3721 46.1084V46.1087L24.3723 46.1086L24.3726 46.1087V46.1084C24.7872 45.7745 25.1913 45.4445 25.5886 45.1169C25.6288 45.0843 25.6694 45.0511 25.709 45.0184Z" fill="#880000"/>
<path opacity="0.45" d="M42.6738 21.7529C42.6633 21.8032 42.6606 21.8555 42.6707 21.9105C42.6611 22.2206 42.6366 22.541 42.5967 22.8719C42.6434 22.4846 42.6683 22.1118 42.6738 21.7529Z" fill="#BD0911"/>
<path opacity="0.45" d="M42.1326 25.0547C42.0881 25.2035 42.0388 25.3551 41.9883 25.5073C41.9905 25.5018 41.9928 25.4962 41.9951 25.4906C42.0437 25.3438 42.0897 25.1983 42.1326 25.0547Z" fill="#BD0911"/>
<path opacity="0.45" d="M42.5244 23.3738C42.551 23.212 42.5744 23.0524 42.5937 22.8955C42.5743 23.0524 42.551 23.212 42.5244 23.3738Z" fill="#BD0911"/>
<path opacity="0.45" d="M42.4258 23.903C42.4598 23.7397 42.4904 23.5786 42.5172 23.4199C42.4904 23.5786 42.46 23.7397 42.4258 23.903Z" fill="#BD0911"/>
<path d="M19.9059 16.8049C19.9059 16.8049 24.6326 20.3701 25.7808 19.5872C26.9291 18.8043 28.4923 12.8121 35.9423 16.7889C35.9423 16.7889 32.6936 15.4478 29.04 19.5712C25.3863 23.6946 23.856 23.9864 20.2712 22.0244C19.0857 21.3756 18.1243 21.2485 17.3273 21.4639C14.1424 22.3251 13.8042 28.9355 11.7805 29.0457C9.96845 29.1443 6.89476 23.6948 8.60937 19.3843C8.82628 18.8389 9.67372 16.9195 11.8016 15.8315C14.2559 14.5765 17.3839 14.9541 19.9059 16.8049Z" fill="#FFB392"/>
<path opacity="0.83" d="M8.87197 21.8801C8.94698 21.433 9.633 17.6944 12.7556 16.2638C16.6634 14.4735 21.6914 17.9951 21.5396 19.2998C21.4267 20.2701 17.3402 18.4664 14.0777 20.6611C10.5309 23.0471 11.4549 27.3761 10.3972 27.1146C9.87676 26.9861 8.79595 25.9172 8.87197 21.8801Z" fill="#FF829A"/>
<path opacity="0.8" d="M9.66172 19.4823C9.87908 18.9692 10.7906 16.9796 12.8985 16.203C15.5575 15.2233 18.4152 16.8016 18.355 17.2176C18.3108 17.5234 16.6951 17.1655 14.1179 18.0211C13.1444 18.3444 12.3193 18.6272 11.488 19.3361C10.1424 20.4837 9.77159 21.9028 9.51554 21.8199C9.37838 21.7755 9.31916 21.3139 9.66172 19.4823Z" fill="#FFCAF4"/>
<path opacity="0.58" d="M27.2247 18.3366C27.4633 17.9307 28.505 16.2553 30.3649 15.8448C31.5944 15.5735 32.9316 15.9101 32.9376 16.2649C32.9436 16.6163 31.6362 16.6123 30.0476 17.653C28.1858 18.8728 27.2582 20.6623 26.8715 20.4793C26.8432 20.4658 26.8038 20.4353 26.7647 20.2448C26.6021 19.4536 27.0132 18.6803 27.2247 18.3366Z" fill="#FFCAF4"/>
<path opacity="0.32" d="M23.7374 44.1258C23.006 44.1431 22.3725 44.0904 21.8198 43.9991C22.6318 44.6879 23.481 45.3903 24.3721 46.1078V46.1082L24.3723 46.108L24.3725 46.1082V46.1078C28.7735 42.5642 32.1892 39.3745 34.8138 36.5088C34.8138 36.5088 27.2987 44.0411 23.7374 44.1258Z" fill="#FF9FFF"/>
<path d="M46.4971 9.66611C45.4513 8.27285 43.9496 8.98471 43.9469 8.98606C43.9469 8.98302 43.9305 7.32131 42.2201 6.99003C42.2201 6.99003 38.6991 6.45053 41.1362 13.4782C48.522 12.5967 46.4971 9.66611 46.4971 9.66611Z" fill="#BD0917"/>
<path opacity="0.57" d="M45.5818 11.8496C46.235 11.4712 46.6023 10.8389 46.7143 10.2071C46.6441 9.87883 46.497 9.66598 46.497 9.66598C45.4511 8.27273 43.9495 8.98458 43.9468 8.98594C43.9468 8.98492 43.9447 8.78719 43.8724 8.5149C43.8359 8.46742 43.814 8.40335 43.8144 8.32789C43.6352 7.82358 43.2134 7.18244 42.22 6.99001C42.22 6.99001 39.5813 6.58587 40.4537 11.0368C40.5432 11.1268 40.6402 11.2085 40.7453 11.2798C42.1824 12.254 44.2263 12.6349 45.5818 11.8496Z" fill="#FF7483"/>
<path opacity="0.32" d="M46.2387 10.1686C46.2411 10.0802 46.2295 9.99141 46.2034 9.90682C46.1574 9.75702 46.0433 9.62268 45.9375 9.51034C45.7854 9.34893 45.4357 9.1556 45.2684 9.10224C44.9468 8.99971 44.5734 8.95448 44.2364 8.96215C44.1461 8.96418 44.056 8.9723 43.9668 8.98629C43.8 9.01246 43.6408 8.9097 43.5911 8.74829C43.5904 8.74626 43.5899 8.74412 43.5892 8.74209C43.5809 8.71558 43.571 8.68919 43.5554 8.66618C43.536 8.6373 43.5221 8.60312 43.5157 8.56522C43.5104 8.53319 43.4979 8.50285 43.4839 8.47352C43.2959 8.07795 42.9085 7.59484 42.1146 7.39914C42.1042 7.39655 42.0941 7.39452 42.0836 7.39282C41.8943 7.36226 40.3069 7.17513 40.6302 9.55038C40.7045 9.85978 41.066 10.8702 42.6856 11.4452L42.6758 11.4538C43.5797 11.7231 44.6382 11.8675 45.3174 11.5279C45.518 11.4276 45.7692 11.267 45.9128 11.095C46.047 10.934 46.1723 10.536 46.2187 10.3298C46.2306 10.2768 46.2373 10.2228 46.2387 10.1686Z" fill="#FF9FFF"/>
<g opacity="0.65">
<path d="M43.9952 9.19353C43.9979 9.19229 45.4995 8.48044 46.5454 9.87358C46.5454 9.87358 46.6546 10.0317 46.7298 10.2855C46.6683 9.91306 46.4975 9.66581 46.4975 9.66581C45.5319 8.37937 44.1777 8.88763 43.9736 8.97415C43.9943 9.10837 43.9952 9.19286 43.9952 9.19353Z" fill="#FFC7D6"/>
<path d="M42.2684 7.19768C43.3728 7.41154 43.7708 8.18024 43.9143 8.69888C43.8238 8.20765 43.4854 7.23502 42.2205 6.99002C42.2205 6.99002 39.3742 6.55395 40.5712 11.5738C39.5015 6.77402 42.2684 7.19768 42.2684 7.19768Z" fill="#FFC7D6"/>
</g>
<path opacity="0.21" d="M41.4577 13.4377C41.5486 13.4256 41.6379 13.4132 41.7257 13.4006C41.739 13.3987 41.7526 13.3968 41.7659 13.3948C41.8514 13.3823 41.9354 13.3696 42.0182 13.3565C42.0323 13.3542 42.0464 13.352 42.0605 13.3497C42.1426 13.3365 42.2234 13.3232 42.3027 13.3095C42.3154 13.3072 42.3281 13.3051 42.3407 13.3028C42.421 13.2888 42.5001 13.2745 42.5777 13.2599C42.5869 13.2583 42.5961 13.2564 42.6052 13.2546C42.6857 13.2393 42.765 13.2238 42.8425 13.2079C42.8452 13.2074 42.8477 13.2068 42.8504 13.2063C42.9281 13.1903 43.0042 13.1741 43.0788 13.1575C43.0847 13.1562 43.0908 13.1549 43.0967 13.1537C43.1693 13.1376 43.2404 13.1211 43.3102 13.1045C43.3198 13.1023 43.3295 13.1 43.3391 13.0976C43.4066 13.0814 43.4727 13.0649 43.5377 13.0482C43.5484 13.0455 43.5591 13.0427 43.5698 13.04C43.6339 13.0233 43.6969 13.0065 43.7586 12.9893C43.7685 12.9866 43.7783 12.9838 43.7881 12.9811C43.8501 12.9637 43.9112 12.9461 43.9707 12.9284C43.9785 12.9261 43.9861 12.9238 43.9938 12.9214C44.0552 12.9029 44.1155 12.8843 44.1743 12.8655C44.1776 12.8645 44.1806 12.8634 44.1839 12.8623C44.2438 12.843 44.3024 12.8234 44.3597 12.8037C44.3623 12.8028 44.365 12.8019 44.3676 12.801C44.4239 12.7815 44.4787 12.7618 44.5327 12.742C44.5391 12.7396 44.5455 12.7372 44.5519 12.7349C44.6036 12.7157 44.6539 12.6963 44.7033 12.6768C44.7108 12.6739 44.7183 12.6709 44.7258 12.6679C44.7743 12.6485 44.8216 12.6291 44.8679 12.6093C44.875 12.6063 44.8821 12.6032 44.8892 12.6002C44.9356 12.5803 44.981 12.5603 45.0252 12.5402C45.0309 12.5376 45.0364 12.535 45.0419 12.5325C45.0873 12.5117 45.1317 12.4907 45.1748 12.4696C45.1775 12.4682 45.1801 12.467 45.1828 12.4656C45.2278 12.4435 45.2718 12.4212 45.3144 12.3989L45.3149 12.3986C45.357 12.3765 45.3978 12.3542 45.4376 12.3317C45.441 12.3298 45.4445 12.3279 45.4479 12.326C45.4859 12.3046 45.5227 12.2829 45.5585 12.2612C45.5632 12.2584 45.5678 12.2557 45.5723 12.2529C45.6074 12.2316 45.6414 12.2102 45.6746 12.1886C45.6791 12.1857 45.6836 12.1827 45.6881 12.1798C45.7212 12.1582 45.7533 12.1365 45.7845 12.1147C45.7881 12.1121 45.7917 12.1097 45.7953 12.1071C45.8271 12.0847 45.858 12.0622 45.8878 12.0397C45.8896 12.0384 45.8913 12.037 45.8931 12.0357C45.9303 12.0075 45.9656 11.9791 45.9998 11.9508C44.7884 12.8283 42.3044 13.5573 40.5815 11.6201C40.6146 11.7566 40.6506 11.8971 40.6896 12.0417C40.6903 12.0445 40.6911 12.0472 40.6917 12.0499C40.73 12.1912 40.7713 12.3366 40.8156 12.4858C40.8174 12.4919 40.8192 12.498 40.821 12.5042C40.8423 12.5759 40.8644 12.6487 40.8873 12.7224C40.8903 12.7319 40.8933 12.7416 40.8964 12.7513C40.9176 12.8196 40.9394 12.8886 40.9619 12.9584C40.9643 12.9659 40.9666 12.9732 40.969 12.9807C40.9925 13.0533 41.0167 13.127 41.0415 13.2013C41.0468 13.2173 41.0522 13.2333 41.0576 13.2495C41.083 13.3249 41.1089 13.4009 41.1357 13.4783C41.2351 13.4665 41.3325 13.4542 41.4285 13.4415C41.4385 13.4402 41.4481 13.4389 41.4577 13.4377Z" fill="#880000"/>
<path opacity="0.45" d="M46.4843 11.4209C46.4777 11.4279 46.472 11.4359 46.4681 11.4457C46.4356 11.4942 46.3997 11.5428 46.3604 11.5916C46.4065 11.5345 46.4475 11.4776 46.4843 11.4209Z" fill="#BD0911"/>
<path opacity="0.45" d="M46.0681 11.8936C46.0462 11.9128 46.0232 11.9321 46 11.9513C46.0009 11.9506 46.0018 11.95 46.0027 11.9493C46.0252 11.9308 46.047 11.9122 46.0681 11.8936Z" fill="#BD0911"/>
<path opacity="0.45" d="M46.0723 11.8897C46.0984 11.8666 46.1235 11.8435 46.1478 11.8203C46.1236 11.8435 46.0984 11.8667 46.0723 11.8897Z" fill="#BD0911"/>
<path opacity="0.45" d="M46.2295 11.7388C46.2513 11.7161 46.2721 11.6936 46.2923 11.6709C46.2722 11.6936 46.2513 11.7161 46.2295 11.7388Z" fill="#BD0911"/>
<path opacity="0.45" d="M46.1543 11.814C46.1779 11.7913 46.2007 11.7688 46.2225 11.7461C46.2007 11.7687 46.1779 11.7913 46.1543 11.814Z" fill="#BD0911"/>
<path d="M43.3479 8.35974C43.3479 8.35974 43.7458 9.39983 44.0071 9.38957C44.2683 9.3793 45.1154 8.57981 45.9064 9.95716C45.9064 9.95716 45.5222 9.41923 44.5283 9.71217C43.5343 10.0051 43.2612 9.89896 42.8854 9.2285C42.7611 9.00674 42.6205 8.89056 42.4719 8.84544C41.8781 8.66497 41.1647 9.68532 40.8311 9.50101C40.5323 9.33599 40.5858 8.16032 41.2894 7.64417C41.3783 7.57886 41.705 7.35733 42.1528 7.39613C42.6693 7.44068 43.1303 7.81302 43.3479 8.35974Z" fill="#FFB392"/>
<path opacity="0.83" d="M41.0819 8.06872C41.1385 8.00488 41.6208 7.47722 42.2615 7.56069C43.0633 7.66513 43.5135 8.72824 43.3592 8.92112C43.2444 9.06459 42.7728 8.36921 42.0337 8.39368C41.2301 8.4203 40.9455 9.20265 40.8029 9.05546C40.7328 8.98315 40.667 8.70489 41.0819 8.06872Z" fill="#FF829A"/>
<path opacity="0.8" d="M41.4468 7.76531C41.5327 7.70519 41.8765 7.47892 42.2901 7.56533C42.8118 7.6744 43.11 8.21119 43.0589 8.27154C43.0213 8.31587 42.7995 8.09761 42.3032 7.97692C42.1157 7.93135 41.9559 7.89413 41.7526 7.92424C41.4236 7.97297 41.2228 8.16224 41.1903 8.12355C41.1727 8.10269 41.2094 8.02316 41.4468 7.76531Z" fill="#FFCAF4"/>
<path opacity="0.58" d="M44.3619 9.33443C44.4405 9.29349 44.7737 9.13027 45.1112 9.2504C45.3343 9.32981 45.514 9.51693 45.4794 9.57401C45.4454 9.63063 45.2373 9.49956 44.8802 9.50701C44.4616 9.51569 44.1351 9.70858 44.0917 9.64079C44.0886 9.63582 44.0853 9.62702 44.0981 9.59273C44.1512 9.45039 44.2939 9.36804 44.3619 9.33443Z" fill="#FFCAF4"/>
<path opacity="0.32" d="M41.2326 13.0992C41.1143 13.029 41.0185 12.9574 40.9395 12.8877C41.0003 13.0785 41.0655 13.2753 41.136 13.4785C42.1914 13.3525 43.0541 13.1848 43.7585 12.9897C43.7585 12.9897 41.8089 13.441 41.2326 13.0992Z" fill="#FF9FFF"/>
<path d="M36.027 4.10354C36.9176 3.35491 37.7872 4.04477 37.7887 4.04601C37.7892 4.0441 38.0508 2.96543 39.2135 3.00807C39.2135 3.00807 41.5857 3.18843 38.9395 7.39278C34.2672 5.70456 36.027 4.10354 36.027 4.10354Z" fill="#BD0917"/>
<path opacity="0.57" d="M36.2929 5.66227C35.9251 5.31756 35.7815 4.8507 35.804 4.42276C35.8993 4.21984 36.027 4.10354 36.027 4.10354C36.9177 3.35492 37.7872 4.04478 37.7888 4.04602C37.7889 4.04534 37.82 3.91698 37.9082 3.75072C37.9391 3.72534 37.9631 3.68688 37.9742 3.63781C38.167 3.33676 38.5382 2.98326 39.2135 3.00807C39.2135 3.00807 40.9912 3.14331 39.7519 5.90737C39.6802 5.95249 39.6047 5.99096 39.5255 6.02141C38.4434 6.43842 37.0563 6.37773 36.2929 5.66227Z" fill="#FF7483"/>
<path opacity="0.32" d="M36.1196 4.46957C36.1314 4.41171 36.1524 4.35565 36.1821 4.30455C36.2347 4.21409 36.3292 4.14382 36.415 4.08674C36.5383 4.00474 36.7949 3.93165 36.912 3.92217C37.1367 3.90401 37.3864 3.93097 37.6046 3.98681C37.663 4.00181 37.7204 4.02065 37.7763 4.0432C37.8809 4.08539 38 4.04253 38.0566 3.94507C38.0573 3.94383 38.0581 3.94259 38.0588 3.94135C38.0681 3.92533 38.0786 3.90965 38.0922 3.89702C38.1092 3.88112 38.1234 3.86104 38.1332 3.83735C38.1416 3.81727 38.1542 3.79945 38.1677 3.78242C38.3498 3.55345 38.6748 3.29763 39.2208 3.29007C39.2279 3.28996 39.2349 3.29018 39.242 3.29063C39.3698 3.29932 40.4308 3.41708 39.8619 4.91365C39.7669 5.10371 39.3792 5.70649 38.2387 5.83621L38.2438 5.84331C37.615 5.88211 36.9047 5.81624 36.5139 5.49286C36.3985 5.39732 36.2594 5.25497 36.192 5.12131C36.129 4.99633 36.1075 4.71851 36.1084 4.57729C36.1085 4.5412 36.1124 4.50499 36.1196 4.46957Z" fill="#FF9FFF"/>
<g opacity="0.65">
<path d="M37.7261 4.17389C37.7246 4.17264 36.855 3.4829 35.9644 4.23141C35.9644 4.23141 35.8694 4.31781 35.7822 4.47155C35.8784 4.23852 36.0269 4.1035 36.0269 4.1035C36.8493 3.41229 37.6536 3.94739 37.7733 4.03447C37.7397 4.11873 37.7263 4.17355 37.7261 4.17389Z" fill="#FFC7D6"/>
<path d="M39.1509 3.13597C38.4001 3.10845 38.0251 3.54847 37.8535 3.86418C37.9865 3.55828 38.3534 2.97659 39.2134 3.00806C39.2134 3.00806 41.1309 3.15391 39.5946 6.2391C41.015 3.27798 39.1509 3.13597 39.1509 3.13597Z" fill="#FFC7D6"/>
</g>
<path opacity="0.21" d="M38.736 7.31784C38.6787 7.29629 38.6226 7.27475 38.5673 7.2532C38.5589 7.24993 38.5504 7.24666 38.542 7.24339C38.4882 7.22241 38.4356 7.20132 38.3837 7.18034C38.3749 7.17673 38.366 7.17312 38.3572 7.16962C38.3057 7.14864 38.2552 7.12778 38.2057 7.10691C38.1977 7.10352 38.1899 7.10025 38.182 7.09687C38.1319 7.07566 38.0825 7.05435 38.0343 7.03314C38.0286 7.03066 38.0229 7.02806 38.0172 7.02558C37.9671 7.00347 37.9179 6.98137 37.8699 6.95937C37.8682 6.95858 37.8666 6.9579 37.865 6.95711C37.8169 6.93501 37.7698 6.91301 37.7238 6.8909C37.7202 6.88921 37.7165 6.88741 37.7128 6.88572C37.668 6.86428 37.6242 6.84285 37.5812 6.82142C37.5754 6.81849 37.5694 6.81556 37.5635 6.81262C37.522 6.79187 37.4815 6.77111 37.4417 6.75047C37.4352 6.74709 37.4286 6.74371 37.4221 6.74021C37.3828 6.71968 37.3445 6.69926 37.3069 6.67885C37.3009 6.67558 37.295 6.67231 37.289 6.66903C37.2512 6.64839 37.2142 6.62775 37.1781 6.60722C37.1734 6.60452 37.1689 6.60192 37.1641 6.59922C37.127 6.5779 37.0906 6.55669 37.0551 6.53549C37.0532 6.53436 37.0513 6.53312 37.0494 6.53199C37.0133 6.51033 36.9781 6.48879 36.9438 6.46736C36.9422 6.46634 36.9407 6.46544 36.9391 6.46442C36.9054 6.44322 36.8726 6.42212 36.8406 6.40114C36.8368 6.39866 36.833 6.39618 36.8291 6.39359C36.7984 6.37328 36.7685 6.35309 36.7394 6.3329C36.735 6.32986 36.7305 6.32681 36.7262 6.32377C36.6976 6.30392 36.6697 6.28406 36.6425 6.26421C36.6384 6.26117 36.6342 6.25812 36.63 6.25507C36.6028 6.23511 36.5763 6.21526 36.5506 6.19552C36.5474 6.19304 36.5442 6.19044 36.5409 6.18796C36.5145 6.16754 36.4888 6.14724 36.464 6.12694C36.4624 6.1257 36.4609 6.12446 36.4594 6.12322C36.4334 6.10201 36.4082 6.08092 36.3838 6.05994L36.3835 6.05971C36.3594 6.03896 36.3362 6.01832 36.3137 5.99767C36.3118 5.99587 36.3098 5.99418 36.3079 5.99237C36.2864 5.97263 36.2657 5.95301 36.2456 5.93349C36.243 5.93101 36.2404 5.92853 36.2379 5.92605C36.2183 5.90687 36.1995 5.88781 36.1811 5.86875C36.1786 5.86615 36.1761 5.86356 36.1737 5.86097C36.1554 5.8419 36.1378 5.82295 36.1208 5.80412C36.1187 5.80186 36.1168 5.79972 36.1149 5.79746C36.0976 5.77806 36.0808 5.75877 36.0648 5.73971C36.0639 5.73858 36.063 5.73745 36.062 5.73633C36.042 5.71241 36.0233 5.68861 36.0054 5.66504C36.6611 6.41874 38.1671 7.26798 39.5803 6.2676C39.5382 6.3514 39.4936 6.43747 39.4463 6.52567C39.4454 6.52736 39.4445 6.52894 39.4437 6.53064C39.3975 6.61681 39.3487 6.70513 39.2974 6.79559C39.2953 6.79931 39.2932 6.80304 39.2911 6.80676C39.2664 6.85019 39.241 6.89417 39.2151 6.93862C39.2117 6.94437 39.2082 6.95023 39.2048 6.9561C39.1807 6.99727 39.1561 7.03889 39.1309 7.08097C39.1282 7.08548 39.1256 7.08988 39.1229 7.09439C39.0968 7.13804 39.0698 7.18237 39.0424 7.22692C39.0365 7.23651 39.0305 7.2461 39.0247 7.2558C38.9968 7.30103 38.9685 7.3466 38.9394 7.39285C38.8765 7.37017 38.815 7.34739 38.7544 7.32472C38.7482 7.32246 38.7421 7.32009 38.736 7.31784Z" fill="#880000"/>
<path opacity="0.45" d="M35.7705 5.24707C35.7738 5.2526 35.7763 5.25869 35.7773 5.26568C35.791 5.30211 35.807 5.33922 35.8253 5.3769C35.804 5.3328 35.7858 5.28948 35.7705 5.24707Z" fill="#BD0911"/>
<path opacity="0.45" d="M35.9697 5.61719C35.9811 5.63309 35.9932 5.649 36.0054 5.66501C36.0049 5.66445 36.0044 5.66388 36.0039 5.66332C35.9921 5.64798 35.9807 5.63253 35.9697 5.61719Z" fill="#BD0911"/>
<path opacity="0.45" d="M35.9674 5.61413C35.9539 5.59518 35.941 5.57634 35.9287 5.55762C35.9411 5.57634 35.954 5.59518 35.9674 5.61413Z" fill="#BD0911"/>
<path opacity="0.45" d="M35.888 5.49217C35.8773 5.47412 35.867 5.4563 35.8574 5.43848C35.8671 5.45619 35.8773 5.47412 35.888 5.49217Z" fill="#BD0911"/>
<path opacity="0.45" d="M35.9258 5.55253C35.9138 5.53425 35.9024 5.51609 35.8916 5.49805C35.9024 5.51598 35.9138 5.53414 35.9258 5.55253Z" fill="#BD0911"/>
<path d="M38.2734 3.7291C38.2734 3.7291 37.8575 4.34564 37.6891 4.29962C37.5207 4.25349 37.0902 3.60559 36.3677 4.38219C36.3677 4.38219 36.6988 4.09016 37.3013 4.4308C37.9037 4.77145 38.0974 4.74359 38.4431 4.36414C38.5575 4.2386 38.6665 4.18423 38.77 4.17735C39.1835 4.1496 39.4937 4.92102 39.7386 4.85153C39.9579 4.78927 40.1004 4.01628 39.7207 3.57435C39.6727 3.5184 39.4937 3.32507 39.1965 3.28266C38.8535 3.23359 38.4974 3.40628 38.2734 3.7291Z" fill="#FFB392"/>
<path opacity="0.83" d="M39.7915 3.88191C39.7643 3.83183 39.5302 3.41573 39.1007 3.37332C38.5634 3.32019 38.1099 3.94395 38.1812 4.09273C38.2343 4.20338 38.6461 3.82225 39.1233 3.9497C39.642 4.08833 39.7092 4.64024 39.8241 4.56602C39.8806 4.52947 39.9654 4.35836 39.7915 3.88191Z" fill="#FF829A"/>
<path opacity="0.8" d="M39.5993 3.62962C39.5525 3.57751 39.363 3.37842 39.0809 3.37222C38.725 3.36443 38.45 3.66864 38.4741 3.71557C38.4918 3.75008 38.6692 3.64157 39.0103 3.63796C39.1391 3.63661 39.2487 3.6365 39.3764 3.6868C39.5831 3.76813 39.6851 3.92165 39.7122 3.90134C39.7266 3.8904 39.7148 3.83321 39.5993 3.62962Z" fill="#FFCAF4"/>
<path opacity="0.58" d="M37.4662 4.21092C37.4214 4.17246 37.2291 4.01601 36.9915 4.04319C36.8344 4.06113 36.6892 4.15576 36.7031 4.19817C36.7167 4.24013 36.8718 4.18633 37.103 4.24498C37.374 4.31379 37.5573 4.48851 37.5957 4.45095C37.5986 4.44824 37.6019 4.44294 37.5989 4.41869C37.5858 4.31819 37.5054 4.24318 37.4662 4.21092Z" fill="#FFCAF4"/>
<path opacity="0.32" d="M38.9339 7.13125C39.0214 7.1035 39.0946 7.07135 39.1565 7.03785C39.0882 7.15279 39.016 7.271 38.9395 7.39259C38.272 7.15144 37.736 6.91197 37.3071 6.67871C37.3071 6.67871 38.5074 7.2666 38.9339 7.13125Z" fill="#FF9FFF"/>
<path d="M45.8622 2.797C45.4576 2.12823 44.7552 2.37887 44.754 2.37932C44.7541 2.37796 44.821 1.63532 44.0723 1.41097C44.0723 1.41097 42.5243 1.01268 43.2983 4.2594C46.6353 4.19601 45.8622 2.797 45.8622 2.797Z" fill="#BD0917"/>
<path opacity="0.57" d="M45.3564 3.73106C45.6649 3.5913 45.8572 3.32544 45.9355 3.04831C45.9188 2.89863 45.8626 2.797 45.8626 2.797C45.458 2.12823 44.7557 2.37886 44.7544 2.37931C44.7544 2.37886 44.7624 2.29043 44.7422 2.16568C44.728 2.14289 44.7211 2.11323 44.7247 2.07962C44.6672 1.84647 44.5075 1.54124 44.0727 1.41096C44.0727 1.41096 42.9126 1.1125 43.1032 3.13877C43.1391 3.18298 43.1788 3.22382 43.2225 3.26025C43.8206 3.7596 44.7161 4.02106 45.3564 3.73106Z" fill="#FF7483"/>
<path opacity="0.32" d="M45.7241 3.00979C45.7291 2.97043 45.728 2.93027 45.7201 2.89136C45.7062 2.82244 45.6613 2.75736 45.619 2.70242C45.5583 2.62358 45.4109 2.52161 45.3385 2.49026C45.1995 2.43013 45.0348 2.39325 44.8839 2.38152C44.8435 2.37836 44.8029 2.37791 44.7624 2.38028C44.6868 2.38445 44.6203 2.33144 44.6053 2.25722C44.6051 2.25632 44.605 2.2553 44.6048 2.2544C44.6023 2.24222 44.599 2.22992 44.5931 2.21898C44.5857 2.20522 44.5811 2.18932 44.5799 2.17217C44.5789 2.15762 44.5748 2.14352 44.5699 2.12976C44.5037 1.94477 44.3522 1.71174 44.0065 1.58879C44.002 1.58721 43.9976 1.58575 43.993 1.58462C43.9098 1.56251 43.2095 1.40798 43.2476 2.48304C43.267 2.62448 43.3832 3.09179 44.0806 3.42093L44.0759 3.42432C44.4674 3.58494 44.9336 3.69672 45.252 3.57546C45.346 3.53971 45.4654 3.47914 45.5371 3.40875C45.6042 3.34288 45.678 3.17075 45.7079 3.08074C45.7157 3.05773 45.7211 3.03393 45.7241 3.00979Z" fill="#FF9FFF"/>
<g opacity="0.65">
<path d="M44.7666 2.47426C44.7678 2.4738 45.4701 2.22306 45.8748 2.89194C45.8748 2.89194 45.9166 2.9674 45.9388 3.08414C45.928 2.91517 45.8628 2.79708 45.8628 2.79708C45.4891 2.17952 44.8618 2.34589 44.7668 2.37545C44.77 2.43624 44.7666 2.47392 44.7666 2.47426Z" fill="#FFC7D6"/>
<path d="M44.0848 1.50582C44.5683 1.65065 44.7117 2.01171 44.7525 2.2496C44.7341 2.02626 44.6265 1.57688 44.0727 1.41096C44.0727 1.41096 42.8213 1.08904 43.1314 3.38376C42.8683 1.19293 44.0848 1.50582 44.0848 1.50582Z" fill="#FFC7D6"/>
</g>
<path opacity="0.21" d="M43.4435 4.25587C43.4847 4.25451 43.525 4.25305 43.5648 4.25124C43.5709 4.25102 43.577 4.25068 43.583 4.25045C43.6218 4.24865 43.6598 4.24673 43.6974 4.24459C43.7038 4.24425 43.7102 4.2438 43.7166 4.24346C43.7538 4.24132 43.7904 4.23883 43.8265 4.23635C43.8323 4.2359 43.838 4.23556 43.8438 4.23511C43.8802 4.23241 43.9162 4.22958 43.9515 4.22654C43.9557 4.2262 43.9599 4.22575 43.964 4.22541C44.0007 4.22214 44.0368 4.21876 44.0721 4.21515C44.0733 4.21503 44.0745 4.21492 44.0757 4.21481C44.1111 4.2112 44.1457 4.20725 44.1799 4.2033C44.1826 4.20297 44.1853 4.20274 44.188 4.2024C44.2212 4.19845 44.2537 4.19428 44.2856 4.18999C44.29 4.18943 44.2944 4.18887 44.2988 4.18819C44.3297 4.18402 44.3599 4.1795 44.3897 4.17499C44.3947 4.1742 44.3995 4.17353 44.4044 4.17274C44.4337 4.16822 44.4626 4.16349 44.4909 4.15864C44.4954 4.15785 44.4999 4.15706 44.5044 4.15627C44.533 4.15131 44.5609 4.14623 44.5884 4.14093C44.592 4.14025 44.5955 4.13957 44.599 4.1389C44.6272 4.13337 44.655 4.12773 44.6821 4.12198C44.6836 4.12164 44.685 4.1213 44.6865 4.12096C44.7141 4.11498 44.7412 4.10889 44.7676 4.10269C44.7688 4.10235 44.7701 4.10213 44.7712 4.10179C44.7973 4.09558 44.8226 4.08927 44.8474 4.08284C44.8504 4.08205 44.8534 4.08126 44.8564 4.08058C44.8803 4.07438 44.9036 4.06795 44.9265 4.06141C44.93 4.06039 44.9335 4.05949 44.9369 4.05847C44.9595 4.05204 44.9815 4.04539 45.003 4.03873C45.0064 4.03772 45.0097 4.0367 45.0129 4.03558C45.0346 4.02881 45.0557 4.02182 45.0763 4.01482C45.0789 4.01392 45.0815 4.01302 45.0841 4.01211C45.1053 4.00478 45.1261 3.99745 45.1462 3.99001C45.1475 3.98956 45.1487 3.9891 45.15 3.98854C45.1711 3.98064 45.1917 3.97275 45.2117 3.96463L45.2119 3.96451C45.2318 3.95651 45.2509 3.94839 45.2696 3.94015C45.2712 3.93947 45.2729 3.9388 45.2745 3.93801C45.2924 3.93011 45.3098 3.9221 45.3268 3.9141C45.329 3.91308 45.3312 3.91206 45.3334 3.91105C45.35 3.90304 45.3662 3.89503 45.3819 3.88691C45.384 3.88578 45.3862 3.88466 45.3883 3.88353C45.404 3.87529 45.4193 3.86706 45.4342 3.85871C45.4359 3.8577 45.4377 3.8568 45.4394 3.85578C45.4546 3.84721 45.4694 3.83852 45.4837 3.82984C45.4846 3.82927 45.4854 3.82882 45.4862 3.82826C45.504 3.81732 45.5211 3.80626 45.5376 3.79521C44.9575 4.13281 43.8158 4.34723 43.1333 3.40527C43.142 3.46765 43.1517 3.53206 43.1627 3.59838C43.163 3.59962 43.1632 3.60086 43.1633 3.6021C43.174 3.66696 43.186 3.73362 43.1991 3.80232C43.1996 3.80513 43.2001 3.80795 43.2006 3.81077C43.2069 3.84382 43.2136 3.87721 43.2205 3.91116C43.2214 3.91556 43.2223 3.92007 43.2232 3.92447C43.2296 3.95594 43.2363 3.98764 43.2432 4.0199C43.244 4.02328 43.2446 4.02667 43.2453 4.03016C43.2525 4.06366 43.2601 4.09761 43.2679 4.1319C43.2696 4.13924 43.2712 4.14668 43.2729 4.15412C43.2809 4.18898 43.2891 4.22406 43.2975 4.25981C43.3424 4.25891 43.3864 4.25778 43.43 4.25643C43.4347 4.25609 43.4391 4.25598 43.4435 4.25587Z" fill="#880000"/>
<path opacity="0.45" d="M45.7778 3.58008C45.7745 3.5829 45.7716 3.58628 45.7694 3.59045C45.7527 3.61065 45.7346 3.63072 45.7148 3.6508C45.738 3.62734 45.7589 3.60365 45.7778 3.58008Z" fill="#BD0911"/>
<path opacity="0.45" d="M45.5711 3.77246C45.5605 3.78013 45.5494 3.78769 45.5381 3.79525C45.5385 3.79502 45.539 3.79468 45.5394 3.79446C45.5502 3.78712 45.5608 3.77991 45.5711 3.77246Z" fill="#BD0911"/>
<path opacity="0.45" d="M45.6499 3.71112C45.6606 3.70198 45.671 3.69284 45.681 3.68359C45.671 3.69284 45.6607 3.70198 45.6499 3.71112Z" fill="#BD0911"/>
<path opacity="0.45" d="M45.6133 3.74116C45.6248 3.73214 45.636 3.723 45.6468 3.71387C45.636 3.723 45.6248 3.73203 45.6133 3.74116Z" fill="#BD0911"/>
<path d="M44.5142 2.07336C44.5142 2.07336 44.6453 2.55556 44.7624 2.56267C44.8795 2.56978 45.2935 2.25068 45.5852 2.90094C45.5852 2.90094 45.4376 2.64354 44.9808 2.72995C44.5239 2.81635 44.4068 2.75668 44.2688 2.44051C44.2232 2.33595 44.1656 2.27775 44.1013 2.25101C43.8443 2.14386 43.4802 2.56752 43.3394 2.47029C43.2134 2.38321 43.2899 1.86074 43.627 1.66166C43.6697 1.6365 43.8254 1.55213 44.0236 1.58947C44.2524 1.63278 44.4415 1.81957 44.5142 2.07336Z" fill="#FFB392"/>
<path opacity="0.83" d="M43.5156 1.84196C43.5437 1.81602 43.7827 1.60193 44.0651 1.6678C44.4183 1.75026 44.5719 2.24509 44.4944 2.32427C44.4367 2.38315 44.2572 2.05165 43.9261 2.02954C43.5662 2.00551 43.4041 2.34209 43.347 2.27002C43.3188 2.2346 43.3019 2.10748 43.5156 1.84196Z" fill="#FF829A"/>
<path opacity="0.8" d="M43.6923 1.72317C43.7334 1.70016 43.897 1.61455 44.0778 1.67162C44.3058 1.7437 44.415 1.99658 44.3894 2.02129C44.3707 2.03945 44.2814 1.93207 44.0651 1.85593C43.9835 1.82717 43.9138 1.80348 43.8217 1.80777C43.6726 1.81476 43.5746 1.89033 43.5617 1.87161C43.5549 1.86157 43.5749 1.82762 43.6923 1.72317Z" fill="#FFCAF4"/>
<path opacity="0.58" d="M44.9233 2.55353C44.9602 2.53875 45.1163 2.48078 45.2616 2.54947C45.3577 2.59493 45.4295 2.68652 45.4116 2.71043C45.3939 2.73423 45.3068 2.66632 45.147 2.65369C44.9597 2.63892 44.8053 2.71032 44.789 2.67817C44.7877 2.6758 44.7867 2.67174 44.7939 2.65696C44.824 2.59594 44.8914 2.5656 44.9233 2.55353Z" fill="#FFCAF4"/>
<path opacity="0.32" d="M43.3587 4.0948C43.3089 4.05814 43.2695 4.02193 43.2373 3.9873C43.2559 4.07529 43.2762 4.16597 43.2987 4.25993C43.7755 4.25091 44.1682 4.21448 44.4915 4.15887C44.4915 4.15887 43.6007 4.27313 43.3587 4.0948Z" fill="#FF9FFF"/>
<path d="M45.6647 20.9648V48.8278H3.4375V20.9648H3.48962L24.5528 35.5698L45.6126 20.9648H45.6647Z" fill="#FFA7CC"/>
<path d="M45.6647 48.368V20.9648H45.6126L24.5528 35.5698L3.48962 20.9648H3.4375V48.368H3.82868V22.6955H3.87943L24.4104 36.1522L44.9381 22.6955H44.9888V48.368H45.6647Z" fill="#FFC0D4"/>
<path opacity="0.33" d="M24.5528 35.5708L23.238 34.6592L3.4375 48.3782V48.7642H45.6647V48.3777L25.8662 34.66L24.5528 35.5708Z" fill="#D40077"/>
<path d="M24.2839 34.405L3.56055 48.7634H45.5429L24.8195 34.405C24.6584 34.2934 24.445 34.2934 24.2839 34.405Z" fill="#FFB8E5"/>
<path d="M23.4338 36.4603C24.1063 35.9943 24.9972 35.9943 25.6696 36.4603L43.4265 48.7633H45.5429L25.6696 34.9939C24.9972 34.5281 24.1063 34.5281 23.4338 34.9939L3.56055 48.7633H5.67694L23.4338 36.4603Z" fill="#FFC9ED"/>
<path opacity="0.33" d="M8.21387 48.8171V48.828H45.6644V35.3496C43.6061 40.7509 35.9 48.8171 8.21387 48.8171Z" fill="#D48DC7"/>
<path opacity="0.54" d="M45.6646 26.5205V20.9648H45.6125L24.5526 35.5699L3.48951 20.9648H3.4375V39.6497C29.0984 39.0948 40.5704 32.6088 45.6646 26.5205Z" fill="#FFC9ED"/>
</svg>
