<svg width="50" height="50" viewBox="0 0 50 50" fill="none" xmlns="http://www.w3.org/2000/svg">
<path d="M24.1223 16.6779C24.1223 16.6779 33.3199 17.1774 33.9794 11.4072C34.6388 5.63691 19.6361 6.29635 23.2631 0.773438C23.2631 0.773438 4.25603 15.7712 24.1223 16.6779Z" fill="#FACAAE"/>
<path d="M24.1223 16.678C24.1223 16.678 28.0923 16.8934 31.0028 15.4048C29.5939 14.8307 28.0488 14.146 26.3619 13.3278C17.1589 8.86332 21.5677 2.71843 23.1952 0.883822C23.2181 0.846993 23.2385 0.8109 23.2631 0.773438C23.2631 0.773438 4.25603 15.7713 24.1223 16.678Z" fill="#FA7E9F"/>
<path d="M24.7016 16.0984C10.6769 15.4583 16.0257 7.79579 20.3839 3.34473C15.9659 7.67253 9.46763 16.0088 24.1223 16.6778C24.1223 16.6778 28.0923 16.8931 31.0028 15.4046C30.876 15.3529 30.7467 15.2993 30.6175 15.2457C27.8674 16.2692 24.7016 16.0984 24.7016 16.0984Z" fill="#FFB4BA"/>
<path opacity="0.71" d="M27.7639 9.7C30.934 9.51712 32.7966 10.5662 33.8061 12.2497C33.8836 11.9835 33.9458 11.7053 33.9799 11.4065C34.628 5.73563 20.1501 6.27446 23.0939 1.0523L22.9625 1.01758C22.3684 1.50839 20.9734 2.70023 19.5172 4.2212C19.1617 6.96408 20.3091 10.1301 27.7639 9.7Z" fill="#FAAE97"/>
<path d="M19.4528 10.5137C19.5207 10.5137 19.5209 10.4082 19.4528 10.4082C19.385 10.4082 19.3848 10.5137 19.4528 10.5137Z" fill="#FA8D9F"/>
<path d="M32.8727 19.3476C33.5232 16.2496 29.9254 12.872 24.8369 11.8036C19.7483 10.7351 15.0959 12.3804 14.4454 15.4784C13.7949 18.5764 17.3927 21.954 22.4812 23.0225C27.5697 24.091 32.2222 22.4457 32.8727 19.3476Z" fill="#FA7E9F"/>
<path opacity="0.64" d="M15.5575 9.75098C14.1622 13.1371 14.4755 18.2944 24.1225 16.6776C24.1225 16.6776 24.5649 16.7016 25.2623 16.6783L29.9637 14.9902C18.5284 17.1338 14.9511 12.3527 15.5575 9.75098Z" fill="#FA7E9F"/>
<path d="M34.468 6.4959C31.4431 4.05145 28.5815 6.41264 28.5763 6.41697C28.5747 6.41043 27.6311 2.82248 23.7481 3.03976C23.7481 3.03976 15.8317 3.79545 24.9463 17.6762L24.9464 17.6763C24.9464 17.6763 24.9464 17.6764 24.9465 17.6764C40.4521 11.7333 34.468 6.4959 34.468 6.4959Z" fill="#BD0911"/>
<path opacity="0.57" d="M33.6797 11.7224C34.8868 10.5465 35.3365 8.97719 35.2337 7.54834C34.9022 6.87634 34.4676 6.49591 34.4676 6.49591C31.4428 4.05146 28.5812 6.41265 28.576 6.41697C28.5754 6.41476 28.4631 5.98789 28.1577 5.43788C28.0528 5.35515 27.9704 5.2282 27.93 5.06463C27.2664 4.07077 26.0029 2.91355 23.7478 3.03976C23.7478 3.03976 17.8153 3.60645 22.1352 12.7643C22.3779 12.9103 22.6327 13.0341 22.8991 13.131C26.5422 14.4548 31.1743 14.1628 33.6797 11.7224Z" fill="#FF7483"/>
<path opacity="0.32" d="M34.183 7.72474C34.1398 7.53205 34.0662 7.34622 33.9637 7.17737C33.7823 6.87841 33.4617 6.64973 33.1713 6.46442C32.754 6.19817 31.8916 5.97056 31.4999 5.9465C30.7478 5.90027 29.9148 6.00632 29.1895 6.20693C28.9952 6.26065 28.8045 6.32734 28.6191 6.40638C28.2724 6.55412 27.8716 6.41862 27.6758 6.09645C27.6733 6.09233 27.6708 6.08821 27.6682 6.0841C27.6359 6.03133 27.5998 5.97952 27.5538 5.93815C27.4959 5.88613 27.4472 5.81986 27.4128 5.74135C27.3837 5.67486 27.3402 5.61608 27.2939 5.56005C26.6709 4.80658 25.5682 3.97249 23.7428 3.98251C23.7191 3.98262 23.6958 3.98367 23.6721 3.98578C23.2455 4.02303 19.7074 4.48504 21.7048 9.45013C22.0347 10.0792 23.3692 12.0688 27.1891 12.4288L27.1727 12.4527C29.2765 12.5418 31.6464 12.2762 32.9313 11.17C33.3107 10.8434 33.7667 10.3584 33.9834 9.90759C34.1862 9.4859 34.2398 8.55588 34.2276 8.08417C34.2244 7.96334 34.2094 7.84272 34.183 7.72474Z" fill="#FF9FFF"/>
<g opacity="0.48">
<path d="M28.7934 6.84041C28.7985 6.83608 31.6601 4.47489 34.685 6.91934C34.685 6.91934 35.0078 7.20205 35.3093 7.71037C34.9728 6.9378 34.4681 6.49596 34.4681 6.49596C31.6751 4.23893 29.0214 6.07891 28.627 6.37756C28.7448 6.65657 28.7929 6.83893 28.7934 6.84041Z" fill="#FFCAF4"/>
<path d="M23.9648 3.46314C26.4723 3.32279 27.7538 4.76916 28.3477 5.81336C27.8835 4.79944 26.6197 2.87904 23.7479 3.03976C23.7479 3.03976 17.3487 3.65077 22.6819 13.8628C17.7441 4.05758 23.9648 3.46314 23.9648 3.46314Z" fill="#FFCAF4"/>
</g>
<path opacity="0.21" d="M25.6205 17.4127C25.8108 17.3369 25.997 17.2613 26.1804 17.1859C26.2083 17.1744 26.2363 17.163 26.2641 17.1515C26.4424 17.0777 26.6174 17.0041 26.7893 16.9306C26.8186 16.9181 26.848 16.9055 26.8771 16.893C27.0476 16.8197 27.2152 16.7466 27.3794 16.6735C27.4058 16.6618 27.4319 16.6501 27.458 16.6384C27.6242 16.5641 27.7877 16.49 27.9475 16.4161C27.9666 16.4072 27.9853 16.3984 28.0043 16.3896C28.1701 16.3125 28.3333 16.2356 28.4924 16.1589C28.4979 16.1562 28.5032 16.1536 28.5086 16.151C28.668 16.074 28.8238 15.9973 28.9765 15.9207C28.9885 15.9147 29.0009 15.9086 29.0129 15.9026C29.1614 15.828 29.3061 15.7536 29.4483 15.6794C29.4678 15.6692 29.4876 15.659 29.507 15.6488C29.6443 15.5767 29.7784 15.5049 29.91 15.4333C29.9317 15.4215 29.9534 15.4096 29.975 15.3978C30.1047 15.3267 30.2316 15.2559 30.3558 15.1852C30.3758 15.1738 30.3955 15.1625 30.4153 15.1512C30.5401 15.0798 30.6625 15.0084 30.7818 14.9374C30.7973 14.9281 30.8125 14.9189 30.8279 14.9097C30.9507 14.8361 31.0711 14.7629 31.188 14.6898C31.1945 14.6858 31.2006 14.6818 31.207 14.6778C31.3262 14.6032 31.4425 14.5289 31.5557 14.4549C31.5609 14.4516 31.5662 14.4482 31.5714 14.4448C31.6828 14.3719 31.7906 14.2993 31.8962 14.227C31.9088 14.2184 31.9216 14.2098 31.9341 14.2011C32.0354 14.1314 32.1339 14.0619 32.23 13.9927C32.2446 13.9823 32.2592 13.9717 32.2737 13.9613C32.368 13.8929 32.46 13.8248 32.5495 13.757C32.5633 13.7465 32.577 13.7361 32.5907 13.7255C32.6803 13.6571 32.7677 13.589 32.8524 13.5212C32.8632 13.5126 32.8737 13.504 32.8844 13.4954C32.9712 13.4255 33.056 13.3559 33.1378 13.2865C33.1428 13.2822 33.1478 13.2779 33.1529 13.2737C33.2382 13.2012 33.3212 13.129 33.4013 13.0571C33.4016 13.0568 33.4019 13.0566 33.4022 13.0563C33.4813 12.9852 33.5573 12.9148 33.6313 12.8445C33.6377 12.8385 33.6441 12.8324 33.6504 12.8264C33.7209 12.7592 33.7888 12.6923 33.8546 12.6258C33.8631 12.6173 33.8716 12.6087 33.8799 12.6003C33.9442 12.535 34.0062 12.47 34.0662 12.4053C34.0744 12.3964 34.0826 12.3876 34.0907 12.3788C34.1504 12.3139 34.2081 12.2494 34.2636 12.1852C34.2702 12.1777 34.2765 12.1702 34.283 12.1628C34.3395 12.0969 34.3942 12.0315 34.4465 11.9664C34.4496 11.9625 34.4526 11.9587 34.4557 11.9548C34.5208 11.8734 34.5818 11.7929 34.6405 11.7129C32.4976 14.2741 27.5189 17.2091 22.7314 13.957C22.8775 14.2345 23.0322 14.5191 23.1958 14.8108C23.1988 14.8163 23.2018 14.8216 23.2048 14.827C23.3648 15.1121 23.5336 15.4042 23.711 15.703C23.7182 15.7153 23.7254 15.7275 23.7327 15.7398C23.8182 15.8835 23.9058 16.0289 23.9954 16.1758C24.0071 16.195 24.019 16.2143 24.0307 16.2335C24.114 16.3696 24.1989 16.5071 24.2858 16.646C24.2951 16.6608 24.304 16.6754 24.3133 16.6903C24.4037 16.8347 24.4965 16.9808 24.5908 17.1282C24.6111 17.1598 24.6316 17.1917 24.6521 17.2235C24.7482 17.373 24.8457 17.5235 24.9458 17.6761V17.6762H24.946C24.946 17.6762 24.946 17.6763 24.9461 17.6763C25.1548 17.5963 25.3588 17.5163 25.5598 17.4366C25.58 17.4287 25.6004 17.4207 25.6205 17.4127Z" fill="#880000"/>
<path opacity="0.45" d="M35.3982 10.3008C35.3876 10.3196 35.3797 10.34 35.3766 10.3634C35.3328 10.486 35.2817 10.6109 35.2231 10.738C35.2917 10.5893 35.3498 10.4436 35.3982 10.3008Z" fill="#BD0911"/>
<path opacity="0.45" d="M34.7566 11.5508C34.7197 11.6045 34.6804 11.6587 34.6406 11.7131C34.6422 11.7112 34.6439 11.7092 34.6455 11.7073C34.6839 11.6548 34.721 11.6026 34.7566 11.5508Z" fill="#BD0911"/>
<path opacity="0.45" d="M34.7627 11.5419C34.8067 11.4776 34.8484 11.4139 34.8884 11.3506C34.8484 11.4139 34.8067 11.4778 34.7627 11.5419Z" fill="#BD0911"/>
<path d="M26.9368 5.39038C26.9368 5.39038 28.3665 7.42423 28.9262 7.25929C29.4861 7.09435 30.8828 4.90105 33.3477 7.45019C33.3477 7.45019 32.2222 6.49569 30.2308 7.67285C28.2394 8.85002 27.5901 8.76939 26.4102 7.52342C26.0201 7.11134 25.6522 6.93669 25.3059 6.92012C23.9221 6.85395 22.9352 9.45226 22.1123 9.23551C21.3754 9.04144 20.8492 6.46751 22.0898 4.96574C22.2467 4.77579 22.8327 4.11782 23.8233 3.95721C24.9659 3.7718 26.1673 4.32582 26.9368 5.39038Z" fill="#FFB392"/>
<path opacity="0.83" d="M21.8736 5.99676C21.9612 5.8277 22.7171 4.42196 24.1493 4.25259C25.9417 4.04058 27.4974 6.09585 27.2686 6.59774C27.0985 6.97099 25.6977 5.72354 24.1111 6.18037C22.3861 6.67688 22.1977 8.52605 21.8087 8.28524C21.6173 8.16684 21.323 7.60036 21.8736 5.99676Z" fill="#FF829A"/>
<path opacity="0.8" d="M22.4982 5.14035C22.6512 4.96328 23.2718 4.28558 24.2143 4.24685C25.4031 4.19799 26.3419 5.19692 26.2642 5.35542C26.2071 5.47193 25.6075 5.12073 24.4673 5.13065C24.0366 5.13434 23.6704 5.14109 23.2469 5.31732C22.5613 5.60257 22.2302 6.12198 22.1385 6.05581C22.0893 6.02036 22.1252 5.82819 22.4982 5.14035Z" fill="#FFE0F4"/>
<path opacity="0.58" d="M29.6643 6.94514C29.8121 6.81365 30.4442 6.27831 31.2404 6.35397C31.7667 6.40399 32.2578 6.71076 32.2144 6.85333C32.1715 6.99452 31.6495 6.82451 30.8806 7.03568C29.9793 7.28324 29.378 7.87895 29.2471 7.75591C29.2375 7.74694 29.2257 7.72963 29.2346 7.64837C29.2717 7.31142 29.5356 7.05531 29.6643 6.94514Z" fill="#FFCAF4"/>
<path opacity="0.32" d="M24.9482 16.8024C24.6537 16.7152 24.4073 16.6125 24.1982 16.5047C24.434 16.8847 24.6828 17.2748 24.9465 17.6763V17.6764H24.9466C24.9466 17.6764 24.9466 17.6765 24.9468 17.6765C27.1622 16.8273 28.9382 15.9926 30.3564 15.1855C30.3563 15.1855 26.3825 17.2275 24.9482 16.8024Z" fill="#FF9FFF"/>
<path d="M32.869 19.3503C33.1646 17.943 32.5766 16.4801 31.3771 15.2C32.682 14.4378 33.7045 13.2851 33.9529 11.5586C32.0467 10.8311 29.5337 10.6516 26.898 11.2051C23.651 11.8869 21.0134 13.5095 19.697 15.3992C17.6805 15.4954 15.8576 15.9369 14.3945 16.6616C14.7244 19.3942 18.0316 22.091 22.4779 23.0247C27.5662 24.0934 32.2184 22.4482 32.869 19.3503Z" fill="#FA959A"/>
<path d="M16.8404 12.0497C15.2384 11.7777 14.6787 13.2233 14.6776 13.2259C14.6756 13.2239 13.5981 12.1096 12.2277 12.983C12.2277 12.983 9.49787 14.8774 15.6577 18.0707C20.0919 12.734 16.8404 12.0497 16.8404 12.0497Z" fill="#BD0911"/>
<path opacity="0.57" d="M17.622 14.1151C17.8213 13.4397 17.6642 12.776 17.3345 12.2765C17.0763 12.0994 16.8403 12.0497 16.8403 12.0497C15.2382 11.7777 14.6785 13.2233 14.6775 13.2259C14.6768 13.2252 14.5486 13.0926 14.3248 12.9548C14.2696 12.9462 14.2137 12.9167 14.1654 12.8654C13.7204 12.6391 13.0234 12.4758 12.2275 12.983C12.2275 12.983 10.182 14.4028 13.6289 16.8559C13.7472 16.8594 13.8653 16.8525 13.9822 16.8332C15.5804 16.5704 17.2083 15.5166 17.622 14.1151Z" fill="#FF7483"/>
<path opacity="0.32" d="M16.9882 12.556C16.9331 12.4946 16.8682 12.4421 16.7963 12.4014C16.6691 12.3296 16.5055 12.3118 16.3618 12.3037C16.1553 12.2921 15.7945 12.3855 15.6469 12.4568C15.3635 12.5938 15.0816 12.8029 14.8584 13.0243C14.7986 13.0836 14.7428 13.1469 14.6914 13.2136C14.5952 13.3383 14.4215 13.3709 14.2843 13.2936C14.2825 13.2926 14.2808 13.2916 14.279 13.2906C14.2564 13.278 14.2327 13.2664 14.2074 13.2609C14.1757 13.2538 14.1444 13.2395 14.1158 13.218C14.0917 13.1998 14.0637 13.1872 14.0354 13.1763C13.6544 13.0292 13.082 12.9508 12.4189 13.3279C12.4103 13.3328 12.4021 13.3379 12.3938 13.3435C12.2461 13.4443 11.0514 14.3363 12.7947 15.7368C13.0436 15.8984 13.9368 16.3504 15.4021 15.7003L15.401 15.7125C16.1857 15.3146 16.9948 14.7332 17.2367 14.0673C17.3082 13.8707 17.3751 13.6008 17.3619 13.3921C17.3495 13.197 17.1788 12.8472 17.0779 12.6778C17.052 12.6345 17.022 12.5937 16.9882 12.556Z" fill="#FF9FFF"/>
<g opacity="0.48">
<path d="M14.8428 13.3359C14.8439 13.3332 15.4035 11.8877 17.0056 12.1597C17.0056 12.1597 17.1811 12.1966 17.3948 12.3202C17.1142 12.1075 16.84 12.0497 16.84 12.0497C15.3607 11.7985 14.7701 13.0117 14.6875 13.2012C14.7875 13.2788 14.8424 13.3355 14.8428 13.3359Z" fill="#FFCAF4"/>
<path d="M12.3933 13.0925C13.2782 12.5286 14.0409 12.7934 14.4708 13.0524C14.0943 12.7779 13.2411 12.3367 12.2276 12.9827C12.2276 12.9827 10.021 14.5141 14.0528 17.144C10.2483 14.5813 12.3933 13.0925 12.3933 13.0925Z" fill="#FFCAF4"/>
</g>
<path opacity="0.21" d="M15.85 17.8374C15.9038 17.7709 15.9562 17.7053 16.0076 17.6403C16.0154 17.6304 16.0234 17.6205 16.0311 17.6107C16.081 17.5473 16.1296 17.4847 16.1772 17.4227C16.1853 17.4122 16.1935 17.4016 16.2015 17.3911C16.2487 17.3294 16.2947 17.2685 16.3396 17.2084C16.3468 17.1987 16.354 17.1891 16.3611 17.1795C16.4065 17.1185 16.451 17.058 16.494 16.9984C16.4992 16.9912 16.5041 16.9842 16.5093 16.9772C16.5539 16.9151 16.5977 16.8538 16.64 16.7932C16.6414 16.7911 16.6428 16.7891 16.6443 16.7871C16.6866 16.7264 16.7276 16.6667 16.7676 16.6075C16.7708 16.6029 16.7741 16.5981 16.7772 16.5935C16.8161 16.536 16.8535 16.4792 16.8903 16.423C16.8953 16.4153 16.9004 16.4076 16.9054 16.3999C16.9406 16.3456 16.9748 16.292 17.0081 16.239C17.0136 16.2302 17.0191 16.2215 17.0246 16.2128C17.0573 16.1604 17.0891 16.1086 17.1199 16.0575C17.1249 16.0493 17.1297 16.0411 17.1346 16.0329C17.1655 15.9813 17.1955 15.9303 17.2244 15.88C17.2282 15.8734 17.2318 15.867 17.2356 15.8605C17.2652 15.8086 17.2941 15.7573 17.3218 15.7067C17.3232 15.704 17.3247 15.7012 17.3262 15.6985C17.3544 15.6469 17.3815 15.5961 17.4077 15.546C17.4088 15.5437 17.4101 15.5414 17.4114 15.539C17.437 15.4897 17.4615 15.4412 17.4851 15.3932C17.488 15.3875 17.4908 15.3817 17.4937 15.3761C17.5164 15.33 17.538 15.2845 17.5589 15.2396C17.5621 15.2328 17.5652 15.226 17.5684 15.2193C17.5888 15.1751 17.6084 15.1315 17.6271 15.0884C17.6299 15.0818 17.6328 15.0751 17.6357 15.0686C17.6544 15.0253 17.6722 14.9827 17.6893 14.9406C17.6915 14.9352 17.6935 14.9299 17.6957 14.9247C17.713 14.8814 17.7296 14.8387 17.7453 14.7967C17.7462 14.7941 17.7472 14.7916 17.7481 14.7889C17.7644 14.745 17.7799 14.7018 17.7943 14.6592C17.7944 14.659 17.7944 14.6589 17.7945 14.6587C17.8088 14.6167 17.8221 14.5755 17.8347 14.5347C17.8358 14.5312 17.837 14.5278 17.838 14.5243C17.8499 14.4853 17.861 14.4471 17.8714 14.4094C17.8727 14.4045 17.8741 14.3996 17.8754 14.3949C17.8854 14.358 17.8947 14.3216 17.9033 14.2858C17.9045 14.2809 17.9057 14.276 17.9068 14.2711C17.9153 14.2352 17.9232 14.2 17.9302 14.1652C17.9311 14.161 17.9318 14.157 17.9327 14.153C17.9398 14.1175 17.9464 14.0824 17.9521 14.048C17.9524 14.046 17.9527 14.044 17.953 14.0419C17.9601 13.999 17.9659 13.9572 17.9709 13.916C17.7139 15.2875 16.5002 17.3751 14.0908 17.1693C14.2008 17.2406 14.3154 17.3126 14.4346 17.3855C14.4368 17.3868 14.4391 17.3882 14.4413 17.3896C14.5579 17.4607 14.6791 17.5326 14.8048 17.6053C14.81 17.6082 14.8151 17.6112 14.8202 17.6142C14.8807 17.6491 14.9424 17.6842 15.0051 17.7193C15.0132 17.724 15.0216 17.7285 15.0298 17.7332C15.088 17.7658 15.147 17.7985 15.2071 17.8313C15.2135 17.8348 15.2198 17.8383 15.2262 17.8418C15.2887 17.8758 15.3523 17.9101 15.4169 17.9445C15.4307 17.9519 15.4447 17.9593 15.4587 17.9667C15.5243 18.0015 15.5906 18.0365 15.6583 18.0715C15.7181 17.9996 15.776 17.9288 15.833 17.8586C15.8386 17.8516 15.8444 17.8444 15.85 17.8374Z" fill="#880000"/>
<path opacity="0.45" d="M17.958 13.2461C17.958 13.2551 17.9593 13.2641 17.963 13.2733C17.9721 13.3269 17.979 13.383 17.9837 13.4412C17.9783 13.3729 17.9695 13.3079 17.958 13.2461Z" fill="#BD0911"/>
<path opacity="0.45" d="M17.9798 13.833C17.9774 13.8601 17.9741 13.8879 17.9707 13.9158C17.9709 13.9148 17.9711 13.9137 17.9713 13.9128C17.9745 13.8858 17.9774 13.8592 17.9798 13.833Z" fill="#BD0911"/>
<path opacity="0.45" d="M17.9886 13.5299C17.9876 13.5012 17.986 13.473 17.9839 13.4453C17.9861 13.473 17.9876 13.5012 17.9886 13.5299Z" fill="#BD0911"/>
<path d="M13.8699 13.1878C13.8699 13.1878 14.8068 13.6364 14.977 13.4618C15.1472 13.2873 15.2075 12.2025 16.627 12.6271C16.627 12.6271 16.0217 12.5096 15.5369 13.3458C15.0521 14.182 14.799 14.2854 14.1144 14.0727C13.8879 14.0025 13.7182 14.014 13.5886 14.0788C13.0709 14.3376 13.2427 15.4862 12.8986 15.5756C12.5905 15.6556 11.8722 14.8254 12.0171 14.0245C12.0355 13.9232 12.1144 13.5637 12.4424 13.3025C12.8208 13.0011 13.3719 12.9572 13.8699 13.1878Z" fill="#FFB392"/>
<path opacity="0.83" d="M12.1495 14.4431C12.1469 14.3637 12.1347 13.6968 12.6219 13.3422C13.2317 12.8983 14.2188 13.329 14.2381 13.5586C14.2525 13.7293 13.487 13.5613 13.0023 14.0524C12.4754 14.5861 12.7849 15.2983 12.5939 15.2902C12.4999 15.2862 12.2769 15.14 12.1495 14.4431Z" fill="#FF829A"/>
<path opacity="0.8" d="M12.2021 14.0044C12.2217 13.9085 12.3092 13.5348 12.6446 13.3278C13.0678 13.0669 13.6141 13.2389 13.6182 13.3124C13.6213 13.3666 13.331 13.3612 12.9175 13.598C12.7613 13.6875 12.6293 13.7648 12.511 13.9156C12.3196 14.1598 12.3051 14.4167 12.2583 14.4114C12.2333 14.4086 12.207 14.3313 12.2021 14.0044Z" fill="#FFE0F4"/>
<path opacity="0.58" d="M15.1821 13.1955C15.209 13.1174 15.3299 12.793 15.6355 12.6578C15.8375 12.5684 16.0791 12.5797 16.0925 12.6405C16.1058 12.7007 15.8808 12.7455 15.6438 12.9797C15.3661 13.2543 15.2689 13.5942 15.1959 13.5763C15.1906 13.5749 15.1828 13.5711 15.1695 13.5397C15.114 13.4093 15.1577 13.262 15.1821 13.1955Z" fill="#FFCAF4"/>
<path opacity="0.32" d="M15.4797 17.7518C15.3546 17.7802 15.2438 17.7932 15.1455 17.7968C15.3091 17.887 15.4796 17.9782 15.6577 18.0706C16.2912 17.3081 16.7677 16.6407 17.1193 16.0566C17.1195 16.0566 16.0892 17.6134 15.4797 17.7518Z" fill="#FF9FFF"/>
<path d="M40.8075 21.2353C40.4429 19.499 39.1193 18.1119 37.2047 17.1989C37.3545 16.6275 37.3795 16.0494 37.26 15.4808C36.6094 12.383 31.9572 10.7379 26.8689 11.8064C23.6219 12.4882 20.9842 14.1108 19.6678 16.0005C15.1104 16.218 11.5336 18.193 10.8948 21.2353C10.0401 25.3051 14.7664 29.7423 21.4511 31.146C22.9656 31.4641 24.4498 31.5974 25.851 31.5687C27.2522 31.5974 28.7365 31.4641 30.251 31.146C36.9359 29.7423 41.6622 25.3052 40.8075 21.2353Z" fill="#FABAAE"/>
<path d="M37.0967 18.2817C39.0112 19.1946 40.3348 20.5818 40.6995 22.318C40.7632 22.6219 40.7923 22.9278 40.7954 23.2342C40.9358 22.5679 40.9467 21.8969 40.8078 21.2354C40.4446 19.5058 39.1293 18.123 37.2265 17.21C37.2348 17.5672 37.19 17.9258 37.0967 18.2817Z" fill="#FAABD8"/>
<path d="M19.5602 17.0831C20.8765 15.1934 23.5142 13.5708 26.7612 12.889C31.8495 11.8205 36.5018 13.4656 37.1523 16.5635C37.1915 16.75 37.2137 16.9377 37.2224 17.1257C37.3556 16.5781 37.3749 16.0253 37.2606 15.4808C36.61 12.383 31.9578 10.7379 26.8695 11.8064C23.6225 12.4882 20.9848 14.1108 19.6685 16.0005C15.111 16.218 11.5343 18.193 10.8954 21.2353C10.8235 21.5774 10.7944 21.9223 10.7994 22.2677C11.467 19.2542 15.0281 17.2994 19.5602 17.0831Z" fill="#FAABD8"/>
<path d="M15.4552 27.467C15.4552 27.467 13.3929 17.6139 25.0792 17.0029C36.7655 16.3919 34.4741 13.1074 34.4741 13.1074C34.4741 13.1074 33.5575 15.628 18.5104 16.0099C3.46342 16.3918 13.6221 28.0016 13.6221 28.0016L15.4552 27.467Z" fill="#FA8D9F"/>
<path d="M34.5018 13.1527C34.4853 13.1235 34.4742 13.1074 34.4742 13.1074C34.4742 13.1074 33.5577 15.628 18.5106 16.0099C4.00997 16.3778 12.9161 27.1715 13.5823 27.9551C12.7958 24.748 12.0624 17.1959 22.3393 16.5285C32.1781 15.8897 34.1357 14.0335 34.5018 13.1527Z" fill="#FFB4BA"/>
<path d="M26.2218 31.1014C26.2218 31.1014 19.6953 23.1422 28.611 22.9771C41.3311 22.7415 40.5495 20.374 40.5495 20.374C40.5495 20.374 40.0158 22.08 28.55 22.371C17.0841 22.6621 24.825 31.5088 24.825 31.5088L26.2218 31.1014Z" fill="#FA8D9F"/>
<g opacity="0.34">
<path d="M35.1897 13.751C35.1897 13.751 36.3071 15.7563 23.8868 17.0393C5.89355 18.898 20.9576 44.7076 20.9576 44.7076C20.9576 44.7076 13.2899 22.5206 23.6128 19.7799C33.9357 17.0393 35.0983 18.5013 35.1897 13.751Z" fill="#FFD3FF"/>
</g>
<path d="M37.2046 17.1987C37.2691 16.953 37.3089 16.7059 37.3255 16.459C33.242 19.6339 23.6096 25.1859 10.2794 20.5286C10.0589 23.929 13.622 28.0016 13.622 28.0016L14.1189 27.8567C15.9892 29.3425 18.5334 30.5333 21.4512 31.1459C22.9657 31.464 24.45 31.5973 25.8512 31.5686C27.2524 31.5973 28.7366 31.464 30.2512 31.1459C36.9359 29.7422 41.6621 25.305 40.8075 21.2352C40.4427 19.4988 39.1192 18.1117 37.2046 17.1987Z" fill="#FFB4BA"/>
<g opacity="0.34">
<path d="M40.549 20.374C40.549 20.374 42.0865 23.0177 28.511 24.2883L27.4411 31.9119C27.4411 31.9119 20.2855 24.957 24.7662 23.5526C29.2468 22.1483 40.3972 23.1925 40.549 20.374Z" fill="#FFB8FF"/>
</g>
<path d="M25.3662 48.8283C30.6679 48.8283 34.9657 48.1156 34.9657 47.2364C34.9657 46.3572 30.6679 45.6445 25.3662 45.6445C20.0645 45.6445 15.7666 46.3572 15.7666 47.2364C15.7666 48.1156 20.0645 48.8283 25.3662 48.8283Z" fill="#C72900"/>
<path d="M18.7792 48.395L19.632 48.2159L15.9341 24.8949C15.5634 25.217 14.3705 24.6764 13.2324 24.1934L18.7792 48.395Z" fill="#FF6300"/>
<path opacity="0.8" d="M15.6318 25.0105L18.779 48.3947L19.577 48.2277L15.934 24.8945C15.9313 24.9711 15.7446 25.0968 15.6318 25.0105Z" fill="#EF9A00"/>
<path d="M22.1779 48.7676L23.1096 48.397L21.8258 24.0597C21.5274 24.6777 20.638 24.1505 19.7061 23.541L22.1779 48.7676Z" fill="#FF6300"/>
<path d="M22.1779 48.7676C21.3552 48.8206 20.5086 48.7232 19.6447 48.5195L15.9136 24.7406C16.5262 25.1465 17.9903 25.1497 19.706 23.541L22.1779 48.7676Z" fill="#FF9700"/>
<path opacity="0.8" d="M19.085 44.9503L19.645 48.5191C20.5087 48.7229 21.3555 48.8203 22.1782 48.7672L21.729 44.1826C21.541 47.1294 19.9309 46.4993 19.085 44.9503Z" fill="#FFC500"/>
<path opacity="0.76" d="M20.5848 41.51L19.7055 23.541C18.1263 25.1203 16.4497 25.0961 15.9131 24.7406L19.2561 41.6749C19.3296 42.0349 19.6787 42.269 20.0395 42.2003C20.3678 42.1377 20.6001 41.8436 20.5848 41.51Z" fill="#FAC740"/>
<path d="M33.0469 48.1994C33.9636 48.0443 34.7947 47.8389 34.9962 47.2631L41 25.2378C40.5549 25.7524 39.7669 25.6828 38.5819 24.9375L33.0469 48.1994Z" fill="#FF9700"/>
<path opacity="0.76" d="M35.8782 41.2229L36.0081 41.1458C36.1245 41.0766 36.2122 40.9681 36.2553 40.8398L40.9999 25.2378C40.5547 25.7524 39.7668 25.6828 38.5819 24.9375L35.0388 40.6095C34.9267 41.0943 35.4504 41.4769 35.8782 41.2229Z" fill="#FAC740"/>
<path d="M23.1564 48.8641C24.3202 49.172 25.5652 49.3046 26.8388 48.8573L27.7413 23.6982C25.7277 24.8397 23.754 24.9682 21.8257 23.8818L23.1564 48.8641Z" fill="#FF9700"/>
<path d="M23.1564 48.8641C24.3202 49.172 25.5652 49.3046 26.8388 48.8573L27.7413 23.6982C25.7277 24.8397 23.754 24.9682 21.8257 23.8818L23.1564 48.8641Z" fill="#FF9700"/>
<path opacity="0.8" d="M22.9502 44.9944L23.1563 48.8639C24.3201 49.1719 25.5651 49.3044 26.8387 48.8571L26.9864 44.7393C25.9205 46.5636 23.9392 47.2529 22.9502 44.9944Z" fill="#FFC500"/>
<path opacity="0.76" d="M25.0407 43.066C25.8173 43.0601 26.4581 42.4565 26.5103 41.6816L27.7214 23.709C25.7213 24.8364 23.7606 24.9633 21.8447 23.8922L23.552 41.7232C23.6253 42.4891 24.2714 43.0719 25.0407 43.066Z" fill="#FAC740"/>
<path d="M29.5403 48.7311L28.2598 47.5337L33.265 24.692C33.4745 25.3663 34.0527 24.7499 34.6229 24.1611L29.5403 48.7311Z" fill="#FF6300"/>
<path d="M33.0465 48.1993L31.665 47.9845L37.4173 25.6361C37.6306 26.0411 38.0809 25.5812 38.5817 24.9375L33.0465 48.1993Z" fill="#FF6300"/>
<path opacity="0.8" d="M29.4501 48.6465L33.2816 24.734C33.2793 24.7277 33.2768 24.7223 33.2745 24.7158L28.9893 48.2156L29.4501 48.6465Z" fill="#EF9A00"/>
<path opacity="0.8" d="M32.8507 48.1687L37.5479 25.7627C37.5399 25.759 37.5309 25.7587 37.5232 25.7539L31.8521 48.0134L32.8507 48.1687Z" fill="#EF9A00"/>
<path opacity="0.8" d="M32.7806 45.4883L32.168 48.0628L33.0467 48.1996C33.9634 48.0445 34.7946 47.839 34.996 47.2633L35.3808 45.8518C33.8357 47.1326 33.0099 46.927 32.7806 45.4883Z" fill="#FFC500"/>
<path d="M29.5405 48.7311C30.594 48.7618 31.5029 48.6845 32.1148 48.245L37.4175 25.636C36.8682 25.999 35.8946 25.4131 34.6231 24.1611L29.5405 48.7311Z" fill="#FF9700"/>
<path opacity="0.8" d="M29.7199 44.5615L29.0391 48.2626L29.5403 48.7314C30.5938 48.7621 31.5027 48.6847 32.1147 48.2453L32.4878 46.654L32.6269 45.9984C32.0734 46.3698 31.0587 45.797 29.7199 44.5615Z" fill="#FFC500"/>
<path opacity="0.76" d="M31.7464 41.9306L32.3906 41.8426C32.7187 41.7854 32.9858 41.5466 33.0794 41.227L37.4174 25.636C36.8681 25.999 35.8945 25.4131 34.6229 24.1611L31.2018 41.386C31.154 41.6342 31.4968 41.9986 31.7464 41.9306Z" fill="#FAC740"/>
<path d="M27.3829 48.8842L26.8672 48.1806L27.7412 23.9038C28.0702 24.6532 29.0489 24.0658 30.0503 23.4316L27.3829 48.8842Z" fill="#FF6300"/>
<path d="M27.3828 48.8844C28.101 48.9497 28.5085 48.9649 29.0364 48.4252L33.2519 24.7426C32.655 25.0736 31.7082 24.8332 30.0502 23.4316L27.3828 48.8844Z" fill="#FF9700"/>
<path opacity="0.8" d="M26.9908 44.748L26.8672 48.1812L27.3829 48.8849C28.1011 48.9503 28.5086 48.9655 29.0365 48.4258L29.488 45.8896C28.9412 46.5203 28.1892 47.0055 26.9908 44.748Z" fill="#FFC500"/>
<path opacity="0.76" d="M29.2504 41.9897L29.7982 41.4419C29.8709 41.3692 29.9212 41.2771 29.943 41.1766L33.2365 24.8306L33.2521 24.7426C32.6552 25.0737 31.7084 24.8332 30.0505 23.4316L28.3371 41.5597C28.2895 42.0602 28.8948 42.3452 29.2504 41.9897Z" fill="#FAC740"/>
<path d="M18.779 48.395L16.9334 48.0616C16.4145 47.8935 15.7606 47.7297 15.4826 46.6491L10.0386 25.6668C10.5242 25.9945 11.9192 25.5827 13.2322 24.1934L18.779 48.395Z" fill="#FF9700"/>
<path opacity="0.8" d="M14.1113 41.3623L15.4829 46.6486C15.7609 47.7292 16.4148 47.893 16.9337 48.0611L18.7794 48.3946L17.9198 44.6441C17.1731 48.3146 14.9931 43.4132 14.1113 41.3623Z" fill="#FFC500"/>
<path opacity="0.76" d="M16.1843 40.6602L13.2327 24.1934C12.1268 25.5293 10.4631 25.9499 10.041 25.6676L14.6733 41.0426C14.7375 41.2664 14.9205 41.4413 15.1621 41.5097C15.7295 41.6704 16.3021 41.1944 16.1843 40.6602Z" fill="#FAC740"/>
<g opacity="0.64">
<path d="M21.8337 24.2206C21.833 24.1648 21.8324 24.1103 21.8317 24.0596L21.8252 24.0598L21.8337 24.2206Z" fill="#FF9700"/>
</g>
<path opacity="0.8" d="M27.2469 48.6993L27.9314 24.1517C27.8555 24.0951 27.7903 24.0162 27.7412 23.9043L26.8672 48.1811L27.2469 48.6993Z" fill="#EF9A00"/>
<path d="M31.3508 17.1747C31.6396 18.0453 26.7292 20.6129 21.1765 21.1235C16.905 21.5161 11.9218 20.7219 11.7327 19.4796C11.5986 18.5988 13.8951 17.6247 15.0858 17.2407C17.4512 16.4778 19.274 16.8111 21.9464 17.0102C28.4069 17.4915 31.1407 16.5414 31.3508 17.1747Z" fill="#FAABD8"/>
<path d="M9.64622 21.326C9.6841 21.8236 10.0795 22.2191 10.5771 22.2569L13.2703 22.4618L10.608 22.6644C10.097 22.7032 9.69613 23.1184 9.67503 23.6304L9.44128 29.3063L9.20754 23.6304C9.18643 23.1185 8.78553 22.7033 8.27456 22.6644L5.6123 22.4618L8.30548 22.2569C8.80305 22.219 9.19857 21.8236 9.23635 21.326L9.44128 18.6328L9.64622 21.326Z" fill="#FFE0F4"/>
<path d="M14.9557 2.88034C14.9859 3.27723 15.3013 3.59255 15.6981 3.62273L17.846 3.7862L15.7227 3.94776C15.3153 3.97878 14.9954 4.30982 14.9786 4.71822L14.7922 9.24516L14.6057 4.71822C14.5889 4.30993 14.2691 3.97878 13.8616 3.94776L11.7383 3.7862L13.8862 3.62273C14.2831 3.59255 14.5984 3.27712 14.6286 2.88034L14.792 0.732422L14.9557 2.88034Z" fill="#FFE0F4"/>
<path d="M36.3441 5.36076C36.3606 5.57899 36.5341 5.75238 36.7522 5.76895L37.9333 5.85885L36.7659 5.94771C36.5418 5.9648 36.366 6.14684 36.3567 6.37129L36.2542 8.86039L36.1518 6.37129C36.1425 6.14673 35.9667 5.9647 35.7427 5.94771L34.5752 5.85885L35.7563 5.76895C35.9745 5.75238 36.1479 5.57888 36.1644 5.36076L36.2544 4.17969L36.3441 5.36076Z" fill="#FFCEF2"/>
<path opacity="0.39" d="M19.9302 16.0273C19.9302 16.0273 28.8175 12.4733 32.8505 13.3007C36.83 14.1169 26.0256 15.8858 19.9302 16.0273Z" fill="#FABAAE"/>
<path opacity="0.8" d="M23.11 48.3977L21.8262 24.0605L22.2953 48.7138L23.11 48.3977Z" fill="#EF9A00"/>
<path d="M40.4021 16.6686C39.7778 14.8428 37.9521 15.0782 37.9488 15.0787C37.9498 15.0755 38.5017 13.3194 36.8137 12.3845C36.8137 12.3845 33.2895 10.61 33.4491 18.8477V18.8478H33.4492C41.5313 20.4494 40.4021 16.6686 40.4021 16.6686Z" fill="#BD0911"/>
<path opacity="0.57" d="M38.6898 18.6551C39.5075 18.4803 40.111 17.9401 40.4454 17.3129C40.4838 16.9432 40.4018 16.6686 40.4018 16.6686C39.7775 14.8427 37.9517 15.0782 37.9485 15.0786C37.9488 15.0775 38.0144 14.8686 38.0315 14.5568C38.0093 14.4944 38.0083 14.4192 38.0345 14.34C38.0184 13.7473 37.7936 12.9274 36.8133 12.3844C36.8133 12.3844 34.1722 11.0548 33.5664 16.0422C33.6297 16.1676 33.704 16.2869 33.7903 16.398C34.9703 17.9164 36.9928 19.0179 38.6898 18.6551Z" fill="#FF7483"/>
<path opacity="0.32" d="M39.9578 17.1087C39.9907 17.0163 40.0088 16.9188 40.0104 16.8209C40.0132 16.6474 39.9391 16.4666 39.866 16.312C39.7611 16.09 39.4591 15.7664 39.301 15.6529C38.9974 15.4348 38.6195 15.2592 38.2619 15.1517C38.1661 15.1229 38.0684 15.1006 37.9697 15.0847C37.785 15.0552 37.6525 14.8924 37.6554 14.7054C37.6554 14.7029 37.6555 14.7006 37.6555 14.6982C37.656 14.6675 37.6545 14.6362 37.646 14.6067C37.6355 14.5696 37.6325 14.5288 37.6389 14.4868C37.6442 14.4511 37.6415 14.4149 37.6369 14.3793C37.5743 13.8983 37.3317 13.2566 36.5625 12.7784C36.5524 12.7722 36.5424 12.7665 36.532 12.7611C36.343 12.664 34.735 11.9231 34.2619 14.536C34.2342 14.8873 34.2688 16.0755 35.7779 17.2361L35.7646 17.2418C36.6245 17.8352 37.69 18.3499 38.5218 18.2248C38.7675 18.1879 39.0871 18.1047 39.2972 17.9727C39.4937 17.8493 39.7621 17.4728 39.8816 17.2715C39.9121 17.2198 39.9377 17.1652 39.9578 17.1087Z" fill="#FF9FFF"/>
<g opacity="0.48">
<path d="M37.9277 15.3127C37.931 15.3123 39.7567 15.0768 40.3811 16.9027C40.3811 16.9027 40.4419 17.1067 40.4341 17.3998C40.4969 16.9865 40.4017 16.6675 40.4017 16.6675C39.8252 14.9816 38.2246 15.0531 37.9801 15.0743C37.956 15.2227 37.9279 15.3119 37.9277 15.3127Z" fill="#FFCAF4"/>
<path d="M36.7923 12.6186C37.8824 13.2224 38.0383 14.1683 38.0117 14.7638C38.0847 14.2154 38.0614 13.0749 36.813 12.3835C36.813 12.3835 33.9642 10.9491 33.5054 16.647C34.0228 11.2244 36.7923 12.6186 36.7923 12.6186Z" fill="#FFCAF4"/>
</g>
<path opacity="0.21" d="M33.8016 18.9148C33.9015 18.9333 33.9997 18.9508 34.0966 18.9676C34.1114 18.9701 34.1262 18.9727 34.1408 18.9753C34.2353 18.9914 34.3282 19.0067 34.4198 19.0213C34.4354 19.0237 34.451 19.0262 34.4665 19.0287C34.5575 19.0429 34.6472 19.0565 34.7355 19.0692C34.7496 19.0712 34.7637 19.0732 34.7778 19.0752C34.8672 19.088 34.9554 19.1 35.0421 19.1112C35.0524 19.1126 35.0625 19.1137 35.0729 19.1151C35.1629 19.1266 35.2517 19.1374 35.3388 19.1472C35.3418 19.1475 35.3447 19.1478 35.3477 19.1481C35.4349 19.1579 35.5206 19.1669 35.6051 19.175C35.6117 19.1757 35.6184 19.1764 35.6251 19.177C35.7072 19.185 35.7876 19.1919 35.867 19.1984C35.8778 19.1992 35.8888 19.2002 35.8997 19.201C35.9764 19.207 36.0516 19.2123 36.1258 19.217C36.1381 19.2178 36.1503 19.2186 36.1624 19.2194C36.2357 19.2238 36.3078 19.2276 36.3786 19.2308C36.39 19.2313 36.4013 19.2317 36.4125 19.2322C36.4839 19.2352 36.5542 19.2376 36.623 19.2393C36.6319 19.2395 36.6407 19.2396 36.6497 19.2398C36.7207 19.2414 36.7907 19.2425 36.859 19.2427C36.8628 19.2427 36.8664 19.2427 36.8702 19.2427C36.94 19.2429 37.0085 19.2424 37.0756 19.2412C37.0786 19.2412 37.0818 19.2411 37.0849 19.2411C37.1508 19.2399 37.2154 19.2379 37.2788 19.2355C37.2864 19.2352 37.294 19.235 37.3015 19.2347C37.3625 19.2321 37.4222 19.229 37.4809 19.2254C37.4898 19.2248 37.4987 19.2243 37.5076 19.2237C37.5653 19.2199 37.6219 19.2156 37.6774 19.2108C37.686 19.2101 37.6945 19.2093 37.703 19.2085C37.7588 19.2034 37.8134 19.1979 37.8669 19.1918C37.8738 19.1911 37.8804 19.1902 37.8872 19.1894C37.9422 19.183 37.9961 19.1761 38.0488 19.1686C38.052 19.1682 38.0552 19.1677 38.0585 19.1671C38.1134 19.1592 38.1674 19.1509 38.22 19.1418C38.2202 19.1418 38.2205 19.1417 38.2207 19.1417C38.2726 19.1328 38.3232 19.1232 38.3728 19.1133C38.3771 19.1125 38.3814 19.1116 38.3856 19.1108C38.433 19.1012 38.4791 19.091 38.5244 19.0805C38.5302 19.0791 38.536 19.0778 38.5418 19.0765C38.586 19.066 38.6293 19.0551 38.6715 19.0438C38.6773 19.0422 38.683 19.0407 38.6888 19.0391C38.731 19.0276 38.7723 19.0158 38.8126 19.0036C38.8173 19.0021 38.822 19.0007 38.8266 18.9992C38.8678 18.9866 38.9081 18.9735 38.9471 18.96C38.9494 18.9591 38.9517 18.9583 38.954 18.9575C39.0028 18.9406 39.0497 18.9229 39.0955 18.9048C37.5188 19.4141 34.6524 19.331 33.5012 16.7002C33.4892 16.8553 33.479 17.0157 33.4706 17.1814C33.4705 17.1845 33.4703 17.1875 33.4702 17.1907C33.4621 17.3527 33.4558 17.5199 33.4513 17.6924C33.4511 17.6994 33.4509 17.7065 33.4508 17.7136C33.4487 17.7965 33.4471 17.8806 33.4458 17.966C33.4457 17.9772 33.4456 17.9884 33.4454 17.9996C33.4444 18.0787 33.4437 18.1589 33.4435 18.2402C33.4435 18.2488 33.4434 18.2574 33.4434 18.266C33.4432 18.3505 33.4436 18.4364 33.4443 18.5232C33.4444 18.5419 33.4446 18.5607 33.4448 18.5794C33.4456 18.6677 33.4468 18.7566 33.4486 18.8472C33.5574 18.8687 33.6642 18.8893 33.7696 18.9089C33.7804 18.9108 33.7911 18.9129 33.8016 18.9148Z" fill="#880000"/>
<path opacity="0.45" d="M39.7868 18.5117C39.7774 18.5168 39.7686 18.5233 39.7611 18.5323C39.7104 18.5722 39.6558 18.6112 39.5977 18.6491C39.6658 18.6048 39.7287 18.5589 39.7868 18.5117Z" fill="#BD0911"/>
<path opacity="0.45" d="M39.1873 18.8672C39.1575 18.88 39.1267 18.8924 39.0957 18.9046C39.0969 18.9042 39.0981 18.9039 39.0993 18.9035C39.1293 18.8917 39.1586 18.8795 39.1873 18.8672Z" fill="#BD0911"/>
<path opacity="0.45" d="M39.5078 18.7053C39.5373 18.6879 39.5659 18.6703 39.5935 18.6523C39.5657 18.6704 39.5371 18.688 39.5078 18.7053Z" fill="#BD0911"/>
<path opacity="0.45" d="M39.4102 18.76C39.4408 18.7436 39.4706 18.727 39.4995 18.71C39.4706 18.727 39.4409 18.7436 39.4102 18.76Z" fill="#BD0911"/>
<path d="M37.5313 14.2135C37.5313 14.2135 37.5942 15.4455 37.8729 15.5241C38.1516 15.6027 39.3178 15.0508 39.6793 16.7727C39.6793 16.7727 39.4588 16.0744 38.3114 16.0425C37.164 16.0107 36.9128 15.8052 36.7466 14.9702C36.6916 14.694 36.5833 14.5235 36.4422 14.425C35.8786 14.0315 34.7775 14.8619 34.4892 14.5534C34.2311 14.2773 34.6903 13.0573 35.608 12.7544C35.7241 12.7161 36.1441 12.5946 36.6025 12.7889C37.1313 13.0129 37.4895 13.563 37.5313 14.2135Z" fill="#FFB392"/>
<path opacity="0.83" d="M35.2446 13.1308C35.3261 13.083 36.015 12.6923 36.6612 12.9997C37.47 13.3844 37.5802 14.6585 37.3515 14.8089C37.1814 14.9206 36.9228 14.0267 36.1358 13.7992C35.2802 13.5519 34.7124 14.2786 34.6127 14.0747C34.5636 13.9744 34.5897 13.6587 35.2446 13.1308Z" fill="#FF829A"/>
<path opacity="0.8" d="M35.7334 12.9355C35.8444 12.9015 36.2842 12.781 36.6902 13.0138C37.2024 13.3074 37.3327 13.9751 37.2582 14.0211C37.2034 14.055 37.0445 13.749 36.563 13.4519C36.3811 13.3396 36.2256 13.2457 36.0011 13.2078C35.6378 13.1464 35.3615 13.277 35.3405 13.2251C35.3292 13.1971 35.3951 13.1258 35.7334 12.9355Z" fill="#FFE0F4"/>
<path opacity="0.58" d="M38.2661 15.5871C38.3629 15.5709 38.7698 15.5131 39.0842 15.7553C39.292 15.9154 39.4171 16.174 39.3613 16.2224C39.306 16.2704 39.1317 16.061 38.7529 15.9465C38.3091 15.8123 37.8991 15.9035 37.8766 15.8173C37.8749 15.811 37.8746 15.8007 37.8999 15.7689C38.0044 15.6371 38.183 15.5993 38.2661 15.5871Z" fill="#FFCAF4"/>
<path opacity="0.32" d="M33.6806 18.4805C33.5801 18.366 33.5037 18.2578 33.4444 18.1572C33.443 18.379 33.4444 18.6087 33.449 18.847C33.449 18.847 33.449 18.847 33.4491 18.847C34.6039 19.0758 35.5703 19.1947 36.3791 19.2306C36.3791 19.2306 34.1707 19.038 33.6806 18.4805Z" fill="#FF9FFF"/>
</svg>
