<svg width="342" height="64" viewBox="0 0 342 64" fill="none" xmlns="http://www.w3.org/2000/svg">
<rect x="0.5" y="0.5" width="341" height="63" rx="7.5" fill="#022424"/>
<rect x="0.5" y="0.5" width="341" height="63" rx="7.5" stroke="#233636"/>
<rect x="71" y="13.5" width="2" height="37" rx="1" fill="#085252"/>
<rect x="75" y="26" width="2" height="12" rx="1" fill="#085252"/>
<rect x="79" y="17" width="2" height="30" rx="1" fill="#085252"/>
<rect x="83" y="15.5" width="2" height="33" rx="1" fill="#085252"/>
<rect x="87" y="21.5" width="2" height="21" rx="1" fill="#085252"/>
<rect x="91" y="20.5" width="2" height="23" rx="1" fill="#085252"/>
<rect x="95" y="17.5" width="2" height="29" rx="1" fill="#085252"/>
<rect x="99" y="20" width="2" height="24" rx="1" fill="#085252"/>
<rect x="103" y="15" width="2" height="34" rx="1" fill="#085252"/>
<rect x="107" y="12.5" width="2" height="39" rx="1" fill="#085252"/>
<rect x="111" y="26.5" width="2" height="11" rx="1" fill="#085252"/>
<rect x="115" y="15.5" width="2" height="33" rx="1" fill="#085252"/>
<rect x="119" y="25.5" width="2" height="13" rx="1" fill="#085252"/>
<rect x="123" y="25.5" width="2" height="13" rx="1" fill="#085252"/>
<rect x="127" y="26" width="2" height="12" rx="1" fill="#085252"/>
<rect x="131" y="26.5" width="2" height="11" rx="1" fill="#085252"/>
<rect x="135" y="26.5" width="2" height="11" rx="1" fill="#085252"/>
<rect x="139" y="25.5" width="2" height="13" rx="1" fill="#085252"/>
<rect x="143" y="12.5" width="2" height="39" rx="1" fill="#085252"/>
<rect x="147" y="26" width="2" height="12" rx="1" fill="#085252"/>
<rect x="151" y="16.5" width="2" height="31" rx="1" fill="#085252"/>
<rect x="155" y="21.5" width="2" height="21" rx="1" fill="#085252"/>
<rect x="159" y="23.5" width="2" height="17" rx="1" fill="#085252"/>
<rect x="163" y="26" width="2" height="12" rx="1" fill="#085252"/>
<rect x="167" y="25" width="2" height="14" rx="1" fill="#085252"/>
<rect x="171" y="26.5" width="2" height="11" rx="1" fill="#085252"/>
<rect x="175" y="20" width="2" height="24" rx="1" fill="#085252"/>
<rect x="179" y="24.5" width="2" height="15" rx="1" fill="#085252"/>
<rect x="183" y="23" width="2" height="18" rx="1" fill="#085252"/>
<rect x="187" y="24" width="2" height="16" rx="1" fill="#085252"/>
<rect x="191" y="22.5" width="2" height="19" rx="1" fill="#085252"/>
<rect x="195" y="21" width="2" height="22" rx="1" fill="#085252"/>
<rect x="199" y="23.5" width="2" height="17" rx="1" fill="#085252"/>
<rect x="203" y="18" width="2" height="28" rx="1" fill="#085252"/>
<rect x="207" y="13.5" width="2" height="37" rx="1" fill="#085252"/>
<rect x="211" y="12" width="2" height="40" rx="1" fill="#085252"/>
<rect x="215" y="12" width="2" height="40" rx="1" fill="#085252"/>
<rect x="219" y="26.5" width="2" height="11" rx="1" fill="#085252"/>
<rect x="223" y="26.5" width="2" height="11" rx="1" fill="#085252"/>
<rect x="227" y="22.5" width="2" height="19" rx="1" fill="#085252"/>
<rect x="231" y="22.5" width="2" height="19" rx="1" fill="#085252"/>
<rect x="235" y="25" width="2" height="14" rx="1" fill="#085252"/>
<rect x="239" y="25" width="2" height="14" rx="1" fill="#085252"/>
<rect x="243" y="26" width="2" height="12" rx="1" fill="#085252"/>
<rect x="247" y="26" width="2" height="12" rx="1" fill="#085252"/>
<rect x="251" y="25.5" width="2" height="13" rx="1" fill="#085252"/>
<rect x="255" y="25.5" width="2" height="13" rx="1" fill="#085252"/>
<rect x="259" y="19" width="2" height="26" rx="1" fill="#085252"/>
<rect x="263" y="19" width="2" height="26" rx="1" fill="#085252"/>
<rect x="267" y="15" width="2" height="34" rx="1" fill="#085252"/>
<rect x="271" y="15" width="2" height="34" rx="1" fill="#085252"/>
<rect x="275" y="27" width="2" height="10" rx="1" fill="#085252"/>
</svg>
