<svg width="20" height="20" viewBox="0 0 20 20" fill="none" xmlns="http://www.w3.org/2000/svg">
<g clip-path="url(#clip0_230_2941)">
<path fill-rule="evenodd" clip-rule="evenodd" d="M3.57144 0C3.00313 0 2.45807 0.225764 2.05621 0.627629C1.65436 1.02949 1.42859 1.57454 1.42859 2.14286V14.8841L0.0366696 19.0599C-0.0457713 19.3071 0.01308 19.5797 0.190213 19.771C0.367346 19.9623 0.634623 20.0419 0.88754 19.9787L6.51651 18.5714H17.8571C18.4254 18.5714 18.9706 18.3457 19.3724 17.9439C19.7743 17.542 20 16.9969 20 16.4286V2.14286C20 1.57453 19.7743 1.02949 19.3724 0.627629C18.9706 0.225764 18.4254 0 17.8571 0H3.57144ZM7.61876 7.34261C7.27427 7.9096 7.07589 8.57516 7.07589 9.28707C7.07589 11.3581 8.75483 13.0371 10.8259 13.0371C11.5378 13.0371 12.2034 12.8387 12.7703 12.4942L7.61876 7.34261ZM6.84786 5.43747C5.88359 6.43371 5.29017 7.79109 5.29017 9.28707C5.29017 12.3444 7.7686 14.8227 10.8259 14.8227C12.3217 14.8227 13.6789 14.2295 14.6751 13.2655C14.6984 13.2464 14.7211 13.226 14.743 13.2041C14.7647 13.1823 14.7853 13.1597 14.8043 13.1363C15.7683 12.1401 16.3616 10.7828 16.3616 9.28707C16.3616 6.22977 13.8832 3.75136 10.8259 3.75136C9.32992 3.75136 7.97253 4.34476 6.9763 5.30903C6.95304 5.32801 6.93053 5.34834 6.90884 5.37003C6.88717 5.3917 6.86684 5.41421 6.84786 5.43747ZM8.88144 6.07993L14.033 11.2315C14.3776 10.6645 14.5759 9.99897 14.5759 9.28707C14.5759 7.216 12.897 5.53707 10.8259 5.53707C10.114 5.53707 9.44841 5.73544 8.88144 6.07993Z" fill="white"/>
</g>
<defs>
<clipPath id="clip0_230_2941">
<rect width="20" height="20" fill="white"/>
</clipPath>
</defs>
</svg>
