<svg width="25" height="24" viewBox="0 0 25 24" fill="none" xmlns="http://www.w3.org/2000/svg">
<g clip-path="url(#clip0_2093_2132)">
<path fill-rule="evenodd" clip-rule="evenodd" d="M12.4964 0.08008C14.2903 0.0790609 16.0614 0.482939 17.6775 1.26161C19.2937 2.04032 20.7133 3.17379 21.8303 4.5775C22.9475 5.9812 23.7333 7.61896 24.1295 9.36868C24.5255 11.1184 24.5216 12.935 24.1179 14.683C23.7141 16.4309 22.9211 18.0653 21.7979 19.4641C20.6747 20.863 19.2501 21.9901 17.6306 22.7619C16.011 23.5335 14.2382 23.9297 12.4442 23.9207C10.7455 23.9123 9.06934 23.541 7.52765 22.8329L1.58597 23.9072C1.28239 23.9621 0.972736 23.8496 0.775161 23.6127C0.577585 23.3758 0.52257 23.0509 0.631108 22.7622L2.3355 18.2276C1.28919 16.5196 0.688813 14.5733 0.593258 12.5678C0.490636 10.414 0.974131 8.27272 1.99225 6.37199C3.01037 4.47126 4.52497 2.88227 6.37475 1.77428C8.22445 0.666313 10.3403 0.0807985 12.4964 0.08008ZM9.07139 12.0005C9.07139 12.9472 8.30387 13.7147 7.35711 13.7147C6.41034 13.7147 5.64282 12.9472 5.64282 12.0005C5.64282 11.0537 6.41034 10.2862 7.35711 10.2862C8.30387 10.2862 9.07139 11.0537 9.07139 12.0005ZM12.5 13.7147C13.4467 13.7147 14.2143 12.9472 14.2143 12.0005C14.2143 11.0537 13.4467 10.2862 12.5 10.2862C11.5532 10.2862 10.7857 11.0537 10.7857 12.0005C10.7857 12.9472 11.5532 13.7147 12.5 13.7147ZM17.6428 13.7147C18.5896 13.7147 19.3571 12.9472 19.3571 12.0005C19.3571 11.0537 18.5896 10.2862 17.6428 10.2862C16.6961 10.2862 15.9285 11.0537 15.9285 12.0005C15.9285 12.9472 16.6961 13.7147 17.6428 13.7147Z" fill="white"/>
</g>
<defs>
<clipPath id="clip0_2093_2132">
<rect width="24" height="24" fill="white" transform="translate(0.5)"/>
</clipPath>
</defs>
</svg>
