<svg width="25" height="24" viewBox="0 0 25 24" fill="none" xmlns="http://www.w3.org/2000/svg">
<g clip-path="url(#clip0_2093_2128)">
<path fill-rule="evenodd" clip-rule="evenodd" d="M14.3686 0.144553C13.6671 0.0347625 13.0094 0.514472 12.8996 1.21601C12.7898 1.91756 13.2695 2.57526 13.971 2.68507C18.4793 3.3906 21.9286 7.29354 21.9286 11.9997C21.9286 17.2069 17.7071 21.4284 12.4999 21.4284C8.52046 21.4284 5.11376 18.9625 3.73042 15.4706C3.46889 14.8105 2.7217 14.4873 2.06154 14.7489C1.40137 15.0104 1.07822 15.7576 1.33976 16.4177C3.09834 20.8566 7.43053 23.9998 12.4999 23.9998C19.1274 23.9998 24.5 18.6272 24.5 11.9997C24.5 6.00732 20.1089 1.04289 14.3686 0.144553ZM11.0665 1.13367C11.2435 1.82134 10.8295 2.52229 10.1419 2.69928C9.70883 2.81074 9.28784 2.95222 8.88118 3.1214C8.22558 3.39416 7.47299 3.08381 7.20023 2.4282C6.92747 1.77258 7.23783 1.02001 7.89344 0.747248C8.41186 0.531566 8.9487 0.351146 9.50093 0.209014C10.1886 0.0320203 10.8895 0.446004 11.0665 1.13367ZM5.96033 3.24691C6.45491 3.75641 6.44285 4.57038 5.93334 5.06499C5.29702 5.68272 4.74773 6.38909 4.30546 7.16372C3.95338 7.78039 3.16808 7.99486 2.55143 7.6428C1.93477 7.29072 1.72029 6.50542 2.07236 5.88876C2.63533 4.90272 3.33382 4.00472 4.14226 3.21992C4.65174 2.72533 5.46572 2.73742 5.96033 3.24691ZM2.07057 9.04887C2.77371 9.14797 3.26336 9.7983 3.16426 10.5014C3.10313 10.9351 3.07143 11.3789 3.07143 11.8308C3.07143 12.5409 2.49579 13.1166 1.78571 13.1166C1.07563 13.1166 0.5 12.5409 0.5 11.8308C0.5 11.2585 0.540162 10.6948 0.617998 10.1426C0.717101 9.43942 1.36744 8.94977 2.07057 9.04887ZM8.21429 15.2259V8.77345C8.21429 7.49909 9.55539 6.67025 10.6952 7.24016L17.1477 10.4664C18.4112 11.0981 18.4112 12.9012 17.1477 13.533L10.6952 16.7592C9.55539 17.3292 8.21429 16.5003 8.21429 15.2259Z" fill="white"/>
</g>
<defs>
<clipPath id="clip0_2093_2128">
<rect width="24" height="24" fill="white" transform="translate(0.5)"/>
</clipPath>
</defs>
</svg>
