<svg width="25" height="24" viewBox="0 0 25 24" fill="none" xmlns="http://www.w3.org/2000/svg">
<g clip-path="url(#clip0_2093_2124)">
<path fill-rule="evenodd" clip-rule="evenodd" d="M0.5 4.28571C0.5 1.91878 2.41878 0 4.78571 0H20.2143C22.5812 0 24.5 1.91878 24.5 4.28571V19.7143C24.5 22.0812 22.5812 24 20.2143 24H4.78571C2.41878 24 0.5 22.0812 0.5 19.7143V4.28571ZM17.2759 9.27765C18.4121 9.27765 19.333 8.35663 19.333 7.2205C19.333 6.08438 18.4121 5.16336 17.2759 5.16336C16.1398 5.16336 15.2188 6.08438 15.2188 7.2205C15.2188 8.35663 16.1398 9.27765 17.2759 9.27765ZM19.333 16.7797C19.333 17.9158 18.4121 18.8367 17.2759 18.8367C16.1398 18.8367 15.2188 17.9158 15.2188 16.7797C15.2188 15.6435 16.1398 14.7225 17.2759 14.7225C18.4121 14.7225 19.333 15.6435 19.333 16.7797ZM12.5 14.0608C13.6361 14.0608 14.5571 13.1398 14.5571 12.0036C14.5571 10.8675 13.6361 9.94649 12.5 9.94649C11.3639 9.94649 10.4428 10.8675 10.4428 12.0036C10.4428 13.1398 11.3639 14.0608 12.5 14.0608ZM9.78131 7.2205C9.78131 8.35663 8.8603 9.27765 7.72417 9.27765C6.58805 9.27765 5.66703 8.35663 5.66703 7.2205C5.66703 6.08438 6.58805 5.16336 7.72417 5.16336C8.8603 5.16336 9.78131 6.08438 9.78131 7.2205ZM7.72417 18.8367C8.8603 18.8367 9.78131 17.9158 9.78131 16.7797C9.78131 15.6435 8.8603 14.7225 7.72417 14.7225C6.58805 14.7225 5.66703 15.6435 5.66703 16.7797C5.66703 17.9158 6.58805 18.8367 7.72417 18.8367Z" fill="white"/>
</g>
<defs>
<clipPath id="clip0_2093_2124">
<rect width="24" height="24" fill="white" transform="translate(0.5)"/>
</clipPath>
</defs>
</svg>
