<svg width="24" height="24" viewBox="0 0 24 24" fill="none" xmlns="http://www.w3.org/2000/svg">
<g clip-path="url(#clip0_2093_2118)">
<path fill-rule="evenodd" clip-rule="evenodd" d="M6.89792 1.85972C8.57882 1.98152 10.3303 2.80091 12.007 4.45926C13.6832 2.80138 15.4331 1.98354 17.1125 1.86445C19.0078 1.73003 20.6833 2.49606 21.8957 3.70465C24.2791 6.08089 25.0275 10.3807 22.07 13.3383C22.0601 13.3482 22.0498 13.358 22.0393 13.3674L12.5824 21.9336C12.2558 22.2293 11.7581 22.2293 11.4315 21.9336L1.97454 13.3674C1.96408 13.358 1.95386 13.3482 1.94389 13.3383C-1.02908 10.3653 -0.284612 6.06498 2.10664 3.69059C3.32188 2.48391 5.00084 1.72227 6.89792 1.85972Z" fill="#A1F69E"/>
</g>
<defs>
<clipPath id="clip0_2093_2118">
<rect width="24" height="24" fill="white"/>
</clipPath>
</defs>
</svg>
