<svg width="44" height="44" viewBox="0 0 44 44" fill="none" xmlns="http://www.w3.org/2000/svg">
<rect width="44" height="44" rx="22" fill="white" fill-opacity="0.1"/>
<g clip-path="url(#clip0_660_5903)">
<path fill-rule="evenodd" clip-rule="evenodd" d="M32 22C32 27.5229 27.5229 32 22 32C16.4772 32 12 27.5229 12 22C12 16.4772 16.4772 12 22 12C27.5229 12 32 16.4772 32 22ZM20.2143 19.5C20.2143 18.5138 21.0138 17.7143 22 17.7143C22.9862 17.7143 23.7857 18.5138 23.7857 19.5C23.7857 20.4862 22.9862 21.2857 22 21.2857C21.4083 21.2857 20.9286 21.7654 20.9286 22.3571V23.2807C20.9286 23.8724 21.4083 24.3521 22 24.3521C22.5917 24.3521 23.0714 23.8724 23.0714 23.2807C24.7204 22.8143 25.9286 21.2983 25.9286 19.5C25.9286 17.3303 24.1697 15.5714 22 15.5714C19.8303 15.5714 18.0714 17.3303 18.0714 19.5C18.0714 20.0917 18.5511 20.5714 19.1429 20.5714C19.7346 20.5714 20.2143 20.0917 20.2143 19.5ZM23.4286 27C23.4286 27.789 22.789 28.4286 22 28.4286C21.211 28.4286 20.5714 27.789 20.5714 27C20.5714 26.211 21.211 25.5714 22 25.5714C22.789 25.5714 23.4286 26.211 23.4286 27Z" fill="white"/>
</g>
<defs>
<clipPath id="clip0_660_5903">
<rect width="20" height="20" fill="white" transform="translate(12 12)"/>
</clipPath>
</defs>
</svg>
