<svg width="119" height="44" viewBox="0 0 119 44" fill="none" xmlns="http://www.w3.org/2000/svg">
<rect width="119" height="44" rx="22" fill="white" fill-opacity="0.1"/>
<g clip-path="url(#clip0_383_3299)">
<path d="M16 13H34V15.5613H16V13Z" fill="white"/>
<path d="M23.1046 23.5154V30.9996L26.8954 28.5956V23.5154L33.6921 16.6143H16.3079L23.1046 23.5154Z" fill="white"/>
</g>
<path d="M47.11 26.5V25.59C46.4847 25.562 45.8967 25.4407 45.346 25.226C44.7953 25.0113 44.31 24.7127 43.89 24.33C43.47 23.9473 43.1387 23.4947 42.896 22.972C42.6627 22.44 42.546 21.8567 42.546 21.222C42.546 20.55 42.672 19.9527 42.924 19.43C43.176 18.898 43.512 18.4453 43.932 18.072C44.3613 17.6893 44.8467 17.3953 45.388 17.19C45.9387 16.9847 46.5127 16.868 47.11 16.84V16.098H48.314V16.84C48.9207 16.868 49.4993 16.9893 50.05 17.204C50.6007 17.4187 51.086 17.7173 51.506 18.1C51.9353 18.4733 52.2713 18.926 52.514 19.458C52.7567 19.9807 52.878 20.5687 52.878 21.222C52.878 21.8753 52.752 22.468 52.5 23C52.2573 23.5227 51.9213 23.9753 51.492 24.358C51.0627 24.7313 50.5727 25.0253 50.022 25.24C49.4807 25.4453 48.9113 25.562 48.314 25.59V26.5H47.11ZM47.138 24.554V17.876C46.5313 17.904 45.9713 18.058 45.458 18.338C44.954 18.6087 44.5527 18.9867 44.254 19.472C43.9553 19.9573 43.806 20.5407 43.806 21.222C43.806 21.7353 43.8947 22.1973 44.072 22.608C44.2587 23.0093 44.506 23.35 44.814 23.63C45.1313 23.91 45.4907 24.1293 45.892 24.288C46.2933 24.4467 46.7087 24.5353 47.138 24.554ZM48.286 24.554C48.8927 24.526 49.448 24.3767 49.952 24.106C50.456 23.826 50.8573 23.4433 51.156 22.958C51.464 22.4633 51.618 21.8847 51.618 21.222C51.618 20.7087 51.5293 20.2513 51.352 19.85C51.1747 19.4487 50.9273 19.1033 50.61 18.814C50.302 18.5247 49.9473 18.3007 49.546 18.142C49.1447 17.9833 48.7247 17.8947 48.286 17.876V24.554ZM54.355 26.5V19.206H55.587V24.848L59.675 19.192H60.795V26.5H59.563V20.97L55.531 26.5H54.355ZM62.1195 26.556V25.45C62.3622 25.45 62.5769 25.3893 62.7635 25.268C62.9595 25.1373 63.1322 24.9227 63.2815 24.624C63.4309 24.316 63.5475 23.896 63.6315 23.364C63.7249 22.8227 63.7855 22.1367 63.8135 21.306L63.8975 19.192H68.8675V26.5H67.6355V20.284H64.9895L64.9615 21.418C64.9242 22.4167 64.8402 23.2473 64.7095 23.91C64.5789 24.5727 64.3969 25.0953 64.1635 25.478C63.9302 25.8607 63.6409 26.136 63.2955 26.304C62.9595 26.472 62.5675 26.556 62.1195 26.556ZM70.8433 26.5V19.192H72.0753V21.684H73.8953C74.7539 21.684 75.4026 21.9033 75.8413 22.342C76.2893 22.7713 76.5133 23.336 76.5133 24.036C76.5133 24.5027 76.4153 24.9227 76.2193 25.296C76.0326 25.6693 75.7526 25.9633 75.3793 26.178C75.0059 26.3927 74.5393 26.5 73.9793 26.5H70.8433ZM72.0753 25.534H73.8113C74.1566 25.534 74.4319 25.4687 74.6373 25.338C74.8519 25.198 75.0106 25.016 75.1133 24.792C75.2159 24.568 75.2673 24.3253 75.2673 24.064C75.2673 23.812 75.2206 23.5787 75.1273 23.364C75.0339 23.1493 74.8799 22.9767 74.6653 22.846C74.4506 22.7153 74.1566 22.65 73.7833 22.65H72.0753V25.534ZM79.6353 26.5V20.284H77.1153V19.192H83.3873V20.284H80.8673V26.5H79.6353ZM88.5589 26.64C87.9615 26.64 87.4295 26.4907 86.9629 26.192C86.4962 25.8933 86.1275 25.5153 85.8569 25.058V29.482H84.6249V19.192H85.7169V20.564C86.0062 20.116 86.3842 19.7567 86.8509 19.486C87.3175 19.206 87.8262 19.066 88.3769 19.066C88.8809 19.066 89.3429 19.1687 89.7629 19.374C90.1829 19.5793 90.5469 19.8593 90.8549 20.214C91.1629 20.5687 91.4009 20.9747 91.5689 21.432C91.7462 21.88 91.8349 22.3513 91.8349 22.846C91.8349 23.5367 91.6949 24.1713 91.4149 24.75C91.1442 25.3287 90.7615 25.7907 90.2669 26.136C89.7722 26.472 89.2029 26.64 88.5589 26.64ZM88.1809 25.576C88.5449 25.576 88.8715 25.5013 89.1609 25.352C89.4595 25.1933 89.7115 24.988 89.9169 24.736C90.1315 24.4747 90.2949 24.1807 90.4069 23.854C90.5189 23.5273 90.5749 23.1913 90.5749 22.846C90.5749 22.482 90.5095 22.1367 90.3789 21.81C90.2575 21.4833 90.0802 21.194 89.8469 20.942C89.6229 20.69 89.3569 20.494 89.0489 20.354C88.7502 20.2047 88.4235 20.13 88.0689 20.13C87.8449 20.13 87.6115 20.172 87.3689 20.256C87.1355 20.34 86.9115 20.4613 86.6969 20.62C86.4822 20.7693 86.3002 20.942 86.1509 21.138C86.0015 21.334 85.9035 21.544 85.8569 21.768V23.854C85.9969 24.1713 86.1835 24.4607 86.4169 24.722C86.6502 24.9833 86.9209 25.1933 87.2289 25.352C87.5369 25.5013 87.8542 25.576 88.1809 25.576ZM93.3335 26.5V19.192H94.5655V21.684H96.0495C96.9082 21.684 97.5568 21.9033 97.9955 22.342C98.4435 22.7713 98.6675 23.336 98.6675 24.036C98.6675 24.5027 98.5695 24.9227 98.3735 25.296C98.1868 25.6693 97.9068 25.9633 97.5335 26.178C97.1602 26.3927 96.6935 26.5 96.1335 26.5H93.3335ZM94.5655 25.534H95.9655C96.3108 25.534 96.5862 25.4687 96.7915 25.338C97.0062 25.198 97.1648 25.016 97.2675 24.792C97.3702 24.568 97.4215 24.3253 97.4215 24.064C97.4215 23.812 97.3748 23.5787 97.2815 23.364C97.1882 23.1493 97.0342 22.9767 96.8195 22.846C96.6048 22.7153 96.3108 22.65 95.9375 22.65H94.5655V25.534ZM99.9275 26.5V19.206H101.16V26.5H99.9275Z" fill="white"/>
<defs>
<clipPath id="clip0_383_3299">
<rect width="18" height="18" fill="white" transform="translate(16 13)"/>
</clipPath>
</defs>
</svg>
