<svg width="44" height="44" viewBox="0 0 44 44" fill="none" xmlns="http://www.w3.org/2000/svg">
<rect width="44" height="44" rx="22" fill="white" fill-opacity="0.1"/>
<path d="M22 15.92C22.2546 15.92 22.4988 15.8189 22.6789 15.6388C22.8589 15.4588 22.96 15.2146 22.96 14.96C22.96 14.7054 22.8589 14.4612 22.6789 14.2812C22.4988 14.1011 22.2546 14 22 14C21.7454 14 21.5013 14.1011 21.3212 14.2812C21.1412 14.4612 21.04 14.7054 21.04 14.96C21.04 15.2146 21.1412 15.4588 21.3212 15.6388C21.5013 15.8189 21.7454 15.92 22 15.92ZM22 22.96C22.2546 22.96 22.4988 22.8589 22.6789 22.6788C22.8589 22.4988 22.96 22.2546 22.96 22C22.96 21.7454 22.8589 21.5012 22.6789 21.3212C22.4988 21.1411 22.2546 21.04 22 21.04C21.7454 21.04 21.5013 21.1411 21.3212 21.3212C21.1412 21.5012 21.04 21.7454 21.04 22C21.04 22.2546 21.1412 22.4988 21.3212 22.6788C21.5013 22.8589 21.7454 22.96 22 22.96ZM22 30C22.2546 30 22.4988 29.8989 22.6789 29.7188C22.8589 29.5388 22.96 29.2946 22.96 29.04C22.96 28.7854 22.8589 28.5412 22.6789 28.3612C22.4988 28.1811 22.2546 28.08 22 28.08C21.7454 28.08 21.5013 28.1811 21.3212 28.3612C21.1412 28.5412 21.04 28.7854 21.04 29.04C21.04 29.2946 21.1412 29.5388 21.3212 29.7188C21.5013 29.8989 21.7454 30 22 30Z" stroke="white" stroke-width="1.5" stroke-linecap="round" stroke-linejoin="round"/>
</svg>
