<svg width="44" height="44" viewBox="0 0 44 44" fill="none" xmlns="http://www.w3.org/2000/svg">
<rect width="44" height="44" rx="22" fill="white" fill-opacity="0.1"/>
<g clip-path="url(#clip0_421_21232)">
<path fill-rule="evenodd" clip-rule="evenodd" d="M14.0345 12.3849C14.2381 12.141 14.5394 12 14.8571 12H22C22.3177 12 22.619 12.141 22.8226 12.3849C23.0261 12.6288 23.111 12.9505 23.0541 13.2631L23.0201 13.4502C24.0587 13.5986 24.8571 14.4918 24.8571 15.5714V16.6429H22.3571C19.9902 16.6429 18.0714 18.5616 18.0714 20.9286V27.7143H14.1429C12.9594 27.7143 12 26.7549 12 25.5714V15.5714C12 14.4918 12.7984 13.5987 13.837 13.4502L13.803 13.2631C13.7461 12.9505 13.831 12.6288 14.0345 12.3849ZM16.1409 14.1429L16.3056 15.0488C16.3983 15.5583 16.842 15.9286 17.3598 15.9286H19.4973C20.0151 15.9286 20.4588 15.5583 20.5515 15.0488L20.7162 14.1429H16.1409Z" fill="white"/>
<path fill-rule="evenodd" clip-rule="evenodd" d="M22.3574 18.4287C20.9767 18.4287 19.8574 19.548 19.8574 20.9287V29.5001C19.8574 30.8809 20.9767 32.0001 22.3574 32.0001H29.5003C30.881 32.0001 32.0003 30.8809 32.0003 29.5001V20.9287C32.0003 19.548 30.881 18.4287 29.5003 18.4287H22.3574ZM23.2503 23.4287C23.2503 22.9356 23.65 22.5359 24.1431 22.5359H27.7146C28.2077 22.5359 28.6074 22.9356 28.6074 23.4287C28.6074 23.9218 28.2077 24.3216 27.7146 24.3216H24.1431C23.65 24.3216 23.2503 23.9218 23.2503 23.4287ZM24.1431 26.1073C23.65 26.1073 23.2503 26.507 23.2503 27.0001C23.2503 27.4933 23.65 27.893 24.1431 27.893H27.7146C28.2077 27.893 28.6074 27.4933 28.6074 27.0001C28.6074 26.507 28.2077 26.1073 27.7146 26.1073H24.1431Z" fill="white"/>
</g>
<defs>
<clipPath id="clip0_421_21232">
<rect width="20" height="20" fill="white" transform="translate(12 12)"/>
</clipPath>
</defs>
</svg>
