<svg width="163" height="64" viewBox="0 0 163 64" fill="none" xmlns="http://www.w3.org/2000/svg">
<rect x="0.75" y="0.75" width="161.5" height="62.5" rx="31.25" fill="#022424"/>
<rect x="0.75" y="0.75" width="161.5" height="62.5" rx="31.25" stroke="#CE5D49" stroke-width="1.5"/>
<path fill-rule="evenodd" clip-rule="evenodd" d="M34.451 24.3347C34.0047 23.8884 33.281 23.8884 32.8347 24.3347C32.3884 24.781 32.3884 25.5047 32.8347 25.951L38.8838 32L32.8347 38.0491C32.3884 38.4953 32.3884 39.219 32.8347 39.6653C33.281 40.1116 34.0047 40.1116 34.451 39.6653L40.5 33.6163L46.5491 39.6653C46.9953 40.1116 47.719 40.1116 48.1653 39.6653C48.6116 39.219 48.6116 38.4953 48.1653 38.0491L42.1163 32L48.1653 25.951C48.6116 25.5047 48.6116 24.781 48.1653 24.3347C47.719 23.8884 46.9953 23.8884 46.5491 24.3347L40.5 30.3838L34.451 24.3347Z" fill="#CE5D49"/>
<path d="M57.4445 40.948V37.06H58.0205C58.3565 37.06 58.6505 36.928 58.9025 36.664C59.1545 36.388 59.3705 35.956 59.5505 35.368C59.7305 34.768 59.8745 33.97 59.9825 32.974C60.0905 31.978 60.1685 30.748 60.2165 29.284L60.3065 25.72H68.2265V37.06H69.8105V40.948H68.3705V38.5H58.8845V40.948H57.4445ZM60.1805 37.06H66.6065V27.16H61.8005L61.7465 29.482C61.7105 30.994 61.6325 32.26 61.5125 33.28C61.3925 34.3 61.2245 35.116 61.0085 35.728C60.7925 36.34 60.5165 36.784 60.1805 37.06ZM71.6975 38.5V29.122H73.2815V36.376L78.5375 29.104H79.9775V38.5H78.3935V31.39L73.2095 38.5H71.6975ZM85.4425 38.626C84.5305 38.626 83.7565 38.458 83.1205 38.122C82.4965 37.774 82.0165 37.294 81.6805 36.682L82.9765 36.106C83.1925 36.49 83.4985 36.79 83.8945 37.006C84.3025 37.222 84.7945 37.33 85.3705 37.33C86.0545 37.33 86.5945 37.18 86.9905 36.88C87.3865 36.58 87.5845 36.178 87.5845 35.674C87.5845 35.218 87.4225 34.852 87.0985 34.576C86.7865 34.288 86.3425 34.138 85.7665 34.126H84.8125V33.082H85.8205C86.0725 33.082 86.2945 33.022 86.4865 32.902C86.6905 32.77 86.8465 32.596 86.9545 32.38C87.0745 32.164 87.1345 31.924 87.1345 31.66C87.1345 31.24 86.9845 30.904 86.6845 30.652C86.3845 30.388 85.9345 30.256 85.3345 30.256C84.8425 30.256 84.4285 30.352 84.0925 30.544C83.7685 30.736 83.5045 31.024 83.3005 31.408L82.0945 30.76C82.3945 30.196 82.8265 29.758 83.3905 29.446C83.9665 29.122 84.6385 28.96 85.4065 28.96C86.0185 28.96 86.5585 29.062 87.0265 29.266C87.5065 29.458 87.8785 29.74 88.1425 30.112C88.4185 30.484 88.5565 30.934 88.5565 31.462C88.5565 31.906 88.4485 32.32 88.2325 32.704C88.0285 33.076 87.7225 33.358 87.3145 33.55C87.8785 33.718 88.3105 34.012 88.6105 34.432C88.9105 34.84 89.0605 35.326 89.0605 35.89C89.0605 36.466 88.9045 36.958 88.5925 37.366C88.2805 37.774 87.8545 38.086 87.3145 38.302C86.7745 38.518 86.1505 38.626 85.4425 38.626ZM90.1355 38.572V37.15C90.4475 37.15 90.7235 37.072 90.9635 36.916C91.2155 36.748 91.4375 36.472 91.6295 36.088C91.8215 35.692 91.9715 35.152 92.0795 34.468C92.1995 33.772 92.2775 32.89 92.3135 31.822L92.4215 29.104H98.8115V38.5H97.2275V30.508H93.8255L93.7895 31.966C93.7415 33.25 93.6335 34.318 93.4655 35.17C93.2975 36.022 93.0635 36.694 92.7635 37.186C92.4635 37.678 92.0915 38.032 91.6475 38.248C91.2155 38.464 90.7115 38.572 90.1355 38.572ZM100.632 35.782C100.632 35.182 100.8 34.666 101.136 34.234C101.484 33.79 101.958 33.448 102.558 33.208C103.158 32.968 103.854 32.848 104.646 32.848C105.066 32.848 105.51 32.884 105.978 32.956C106.446 33.016 106.86 33.112 107.22 33.244V32.56C107.22 31.84 107.004 31.276 106.572 30.868C106.14 30.448 105.528 30.238 104.736 30.238C104.22 30.238 103.722 30.334 103.242 30.526C102.774 30.706 102.276 30.97 101.748 31.318L101.172 30.202C101.784 29.782 102.396 29.47 103.008 29.266C103.62 29.05 104.256 28.942 104.916 28.942C106.116 28.942 107.064 29.278 107.76 29.95C108.456 30.61 108.804 31.534 108.804 32.722V36.7C108.804 36.892 108.84 37.036 108.912 37.132C108.996 37.216 109.128 37.264 109.308 37.276V38.5C109.152 38.524 109.014 38.542 108.894 38.554C108.786 38.566 108.696 38.572 108.624 38.572C108.252 38.572 107.97 38.47 107.778 38.266C107.598 38.062 107.496 37.846 107.472 37.618L107.436 37.024C107.028 37.552 106.494 37.96 105.834 38.248C105.174 38.536 104.52 38.68 103.872 38.68C103.248 38.68 102.69 38.554 102.198 38.302C101.706 38.038 101.322 37.69 101.046 37.258C100.77 36.814 100.632 36.322 100.632 35.782ZM106.752 36.448C106.896 36.28 107.01 36.112 107.094 35.944C107.178 35.764 107.22 35.614 107.22 35.494V34.324C106.848 34.18 106.458 34.072 106.05 34C105.642 33.916 105.24 33.874 104.844 33.874C104.04 33.874 103.386 34.036 102.882 34.36C102.39 34.672 102.144 35.104 102.144 35.656C102.144 35.956 102.222 36.25 102.378 36.538C102.546 36.814 102.786 37.042 103.098 37.222C103.422 37.402 103.818 37.492 104.286 37.492C104.778 37.492 105.246 37.396 105.69 37.204C106.134 37 106.488 36.748 106.752 36.448ZM111.319 38.5V29.122H112.903V36.376L118.159 29.104H119.599V38.5H118.015V31.39L112.831 38.5H111.319ZM115.477 28.042C114.613 28.042 113.959 27.838 113.515 27.43C113.071 27.01 112.849 26.494 112.849 25.882H113.965C113.965 26.218 114.079 26.5 114.307 26.728C114.547 26.944 114.937 27.052 115.477 27.052C116.005 27.052 116.377 26.95 116.593 26.746C116.809 26.53 116.941 26.242 116.989 25.882H118.105C118.105 26.494 117.883 27.01 117.439 27.43C116.995 27.838 116.341 28.042 115.477 28.042ZM122.112 38.5V29.104H123.696V32.974H124.74L127.692 29.104H129.492L125.982 33.658L129.906 38.5H128.07L124.74 34.432H123.696V38.5H122.112Z" fill="white"/>
</svg>
