<svg width="163" height="64" viewBox="0 0 163 64" fill="none" xmlns="http://www.w3.org/2000/svg">
<rect width="163" height="64" rx="32" fill="#A1F69E"/>
<g clip-path="url(#clip0_383_4356)">
<path fill-rule="evenodd" clip-rule="evenodd" d="M51.2477 23.5504C52.6485 23.6519 54.1081 24.3347 55.5053 25.7167C56.9021 24.3351 58.3604 23.6536 59.7599 23.5544C61.3393 23.4423 62.7356 24.0807 63.7459 25.0879C65.732 27.0681 66.3557 30.6512 63.8912 33.1159C63.8829 33.1242 63.8743 33.1323 63.8656 33.1402L55.9848 40.2787C55.7126 40.5251 55.2979 40.5251 55.0258 40.2787L47.1449 33.1402C47.1362 33.1323 47.1277 33.1242 47.1194 33.1159C44.6419 30.6384 45.2623 27.0548 47.255 25.0761C48.2677 24.0706 49.6668 23.4359 51.2477 23.5504Z" fill="#010D0D"/>
</g>
<path d="M83.8689 38.5V27.16H79.0989L79.0269 29.698C78.9669 31.438 78.8349 32.884 78.6309 34.036C78.4389 35.176 78.1569 36.076 77.7849 36.736C77.4249 37.384 76.9749 37.846 76.4349 38.122C75.8949 38.398 75.2529 38.536 74.5089 38.536V37.114C74.9649 37.114 75.3669 37 75.7149 36.772C76.0629 36.544 76.3569 36.148 76.5969 35.584C76.8489 35.008 77.0469 34.21 77.1909 33.19C77.3349 32.17 77.4309 30.868 77.4789 29.284L77.5869 25.72H85.4889V38.5H83.8689ZM87.5673 35.782C87.5673 35.182 87.7353 34.666 88.0713 34.234C88.4193 33.79 88.8933 33.448 89.4933 33.208C90.0933 32.968 90.7893 32.848 91.5813 32.848C92.0013 32.848 92.4453 32.884 92.9133 32.956C93.3813 33.016 93.7953 33.112 94.1553 33.244V32.56C94.1553 31.84 93.9393 31.276 93.5073 30.868C93.0753 30.448 92.4633 30.238 91.6713 30.238C91.1553 30.238 90.6573 30.334 90.1773 30.526C89.7093 30.706 89.2113 30.97 88.6833 31.318L88.1073 30.202C88.7193 29.782 89.3313 29.47 89.9433 29.266C90.5553 29.05 91.1913 28.942 91.8513 28.942C93.0513 28.942 93.9993 29.278 94.6953 29.95C95.3913 30.61 95.7393 31.534 95.7393 32.722V36.7C95.7393 36.892 95.7753 37.036 95.8473 37.132C95.9313 37.216 96.0633 37.264 96.2433 37.276V38.5C96.0873 38.524 95.9493 38.542 95.8293 38.554C95.7213 38.566 95.6313 38.572 95.5593 38.572C95.1873 38.572 94.9053 38.47 94.7133 38.266C94.5333 38.062 94.4313 37.846 94.4073 37.618L94.3713 37.024C93.9633 37.552 93.4293 37.96 92.7693 38.248C92.1093 38.536 91.4553 38.68 90.8073 38.68C90.1833 38.68 89.6253 38.554 89.1333 38.302C88.6413 38.038 88.2573 37.69 87.9813 37.258C87.7053 36.814 87.5673 36.322 87.5673 35.782ZM93.6873 36.448C93.8313 36.28 93.9453 36.112 94.0293 35.944C94.1133 35.764 94.1553 35.614 94.1553 35.494V34.324C93.7833 34.18 93.3933 34.072 92.9853 34C92.5773 33.916 92.1753 33.874 91.7793 33.874C90.9753 33.874 90.3213 34.036 89.8173 34.36C89.3253 34.672 89.0793 35.104 89.0793 35.656C89.0793 35.956 89.1573 36.25 89.3133 36.538C89.4813 36.814 89.7213 37.042 90.0333 37.222C90.3573 37.402 90.7533 37.492 91.2213 37.492C91.7133 37.492 92.1813 37.396 92.6253 37.204C93.0693 37 93.4233 36.748 93.6873 36.448ZM98.2541 38.5V29.122H99.8381V36.376L105.094 29.104H106.534V38.5H104.95V31.39L99.7661 38.5H98.2541ZM102.412 28.042C101.548 28.042 100.894 27.838 100.45 27.43C100.006 27.01 99.7841 26.494 99.7841 25.882H100.9C100.9 26.218 101.014 26.5 101.242 26.728C101.482 26.944 101.872 27.052 102.412 27.052C102.94 27.052 103.312 26.95 103.528 26.746C103.744 26.53 103.876 26.242 103.924 25.882H105.04C105.04 26.494 104.818 27.01 104.374 27.43C103.93 27.838 103.276 28.042 102.412 28.042ZM109.047 38.5V29.104H110.631V32.974H111.675L114.627 29.104H116.427L112.917 33.658L116.841 38.5H115.005L111.675 34.432H110.631V38.5H109.047Z" fill="#010D0D"/>
<defs>
<clipPath id="clip0_383_4356">
<rect width="20" height="20" fill="white" transform="translate(45.5 22)"/>
</clipPath>
</defs>
</svg>
