<svg width="44" height="44" viewBox="0 0 44 44" fill="none" xmlns="http://www.w3.org/2000/svg">
<rect width="44" height="44" rx="22" fill="white" fill-opacity="0.1"/>
<g clip-path="url(#clip0_202_621)">
<path fill-rule="evenodd" clip-rule="evenodd" d="M17.3757 12.4465C17.7209 12.9271 17.6111 13.5966 17.1305 13.9418C16.2066 14.6053 15.4538 15.4792 14.9343 16.4911C14.4148 17.5031 14.1435 18.6242 14.1429 19.7617C14.1425 20.3534 13.6626 20.8328 13.0708 20.8325C12.4791 20.8322 11.9997 20.3522 12 19.7605C12.0008 18.283 12.3532 16.8269 13.0279 15.5125C13.7027 14.1981 14.6804 13.0631 15.8805 12.2013C16.3611 11.8561 17.0306 11.9659 17.3757 12.4465ZM17.4543 15.6687C18.6599 14.4631 20.295 13.7858 22 13.7858C23.705 13.7858 25.3401 14.4631 26.5457 15.6687C27.7513 16.8743 28.4286 18.5094 28.4286 20.2144V25.2144C28.4286 25.5933 28.5791 25.9566 28.847 26.2245C29.1149 26.4924 29.4783 26.6429 29.8571 26.6429C30.2516 26.6429 30.5714 26.9628 30.5714 27.3572C30.5714 27.7517 30.2516 28.0715 29.8571 28.0715H14.1429C13.7484 28.0715 13.4286 27.7517 13.4286 27.3572C13.4286 26.9628 13.7484 26.6429 14.1429 26.6429C14.5217 26.6429 14.8851 26.4924 15.153 26.2245C15.4209 25.9566 15.5714 25.5933 15.5714 25.2144V20.2144C15.5714 18.5094 16.2487 16.8743 17.4543 15.6687ZM19.5 30.9287C19.5 30.3369 19.9797 29.8572 20.5714 29.8572H23.4286C24.0203 29.8572 24.5 30.3369 24.5 30.9287C24.5 31.5204 24.0203 32.0001 23.4286 32.0001H20.5714C19.9797 32.0001 19.5 31.5204 19.5 30.9287ZM28.1196 12.2013C27.6389 11.8561 26.9694 11.9659 26.6243 12.4465C26.2791 12.9271 26.3889 13.5966 26.8696 13.9418C27.7934 14.6053 28.5463 15.4792 29.0657 16.4911C29.5853 17.5031 29.8566 18.6242 29.8571 19.7617C29.8574 20.3534 30.3374 20.8328 30.9291 20.8325C31.5209 20.8322 32.0003 20.3522 32 19.7605C31.9991 18.283 31.6469 16.8269 30.9721 15.5125C30.2973 14.1981 29.3196 13.0631 28.1196 12.2013Z" fill="white"/>
</g>
<defs>
<clipPath id="clip0_202_621">
<rect width="20" height="20" fill="white" transform="translate(12 12)"/>
</clipPath>
</defs>
</svg>
