<svg width="44" height="44" viewBox="0 0 44 44" fill="none" xmlns="http://www.w3.org/2000/svg">
<rect width="44" height="44" rx="22" fill="white" fill-opacity="0.1"/>
<g clip-path="url(#clip0_208_2270)">
<path fill-rule="evenodd" clip-rule="evenodd" d="M16.7071 15.2929C16.3166 14.9024 15.6834 14.9024 15.2929 15.2929C14.9024 15.6834 14.9024 16.3166 15.2929 16.7071L20.5858 22L15.2929 27.2929C14.9024 27.6834 14.9024 28.3166 15.2929 28.7071C15.6834 29.0976 16.3166 29.0976 16.7071 28.7071L22 23.4142L27.2929 28.7071C27.6834 29.0976 28.3166 29.0976 28.7071 28.7071C29.0976 28.3166 29.0976 27.6834 28.7071 27.2929L23.4142 22L28.7071 16.7071C29.0976 16.3166 29.0976 15.6834 28.7071 15.2929C28.3166 14.9024 27.6834 14.9024 27.2929 15.2929L22 20.5858L16.7071 15.2929Z" fill="white"/>
</g>
<defs>
<clipPath id="clip0_208_2270">
<rect width="14" height="14" fill="white" transform="translate(15 15)"/>
</clipPath>
</defs>
</svg>
