<svg width="32" height="32" viewBox="0 0 32 32" fill="none" xmlns="http://www.w3.org/2000/svg">
<g opacity="0.4">
<path fill-rule="evenodd" clip-rule="evenodd" d="M10.5143 3.88585C10.7301 3.59808 11.0688 3.42871 11.4286 3.42871H20.5714C20.9312 3.42871 21.2699 3.59808 21.4857 3.88585L24.5714 8.00014H28.5714C29.4807 8.00014 30.3529 8.36137 30.9959 9.00435C31.6389 9.64732 32 10.5194 32 11.4287V25.143C32 26.0523 31.6389 26.9245 30.9959 27.5675C30.3529 28.2104 29.4807 28.5716 28.5714 28.5716H3.42857C2.51925 28.5716 1.64719 28.2104 1.00421 27.5675C0.361223 26.9245 0 26.0523 0 25.143V11.4287C0 10.5194 0.361223 9.64732 1.00421 9.00435C1.64719 8.36137 2.51925 8.00014 3.42857 8.00014H7.42857L10.5143 3.88585ZM21.6259 17.626C21.6259 20.7331 19.1071 23.2518 16 23.2518C12.8929 23.2518 10.3741 20.7331 10.3741 17.626C10.3741 14.5189 12.8929 12.0001 16 12.0001C19.1071 12.0001 21.6259 14.5189 21.6259 17.626Z" fill="#A1F69E"/>
</g>
</svg>
