<svg width="19" height="18" viewBox="0 0 19 18" fill="none" xmlns="http://www.w3.org/2000/svg">
<g clip-path="url(#clip0_761_5218)">
<path fill-rule="evenodd" clip-rule="evenodd" d="M9.49723 0.0595718C10.8427 0.0588074 12.1709 0.361716 13.383 0.945722C14.5952 1.52975 15.6599 2.37985 16.4976 3.43263C17.3355 4.48541 17.9249 5.71373 18.222 7.02602C18.519 8.33833 18.5161 9.70075 18.2133 11.0117C17.9105 12.3227 17.3157 13.5485 16.4733 14.5976C15.6309 15.6467 14.5625 16.4921 13.3478 17.0709C12.1332 17.6496 10.8035 17.9468 9.45806 17.9401C8.18403 17.9338 6.92691 17.6553 5.77064 17.1242L1.31438 17.9299C1.0867 17.9711 0.85446 17.8867 0.706279 17.709C0.558097 17.5313 0.516836 17.2877 0.59824 17.0712L1.87654 13.6702C1.0918 12.3892 0.641518 10.9295 0.569852 9.42537C0.492885 7.81003 0.855507 6.20405 1.61909 4.77851C2.38268 3.35296 3.51864 2.16122 4.90597 1.33022C6.29325 0.499246 7.88013 0.0601106 9.49723 0.0595718ZM6.92845 8.99985C6.92845 9.70993 6.35281 10.2856 5.64274 10.2856C4.93267 10.2856 4.35703 9.70993 4.35703 8.99985C4.35703 8.28978 4.93267 7.71414 5.64274 7.71414C6.35281 7.71414 6.92845 8.28978 6.92845 8.99985ZM9.49988 10.2856C10.21 10.2856 10.7856 9.70993 10.7856 8.99985C10.7856 8.28978 10.21 7.71414 9.49988 7.71414C8.78981 7.71414 8.21417 8.28978 8.21417 8.99985C8.21417 9.70993 8.78981 10.2856 9.49988 10.2856ZM13.357 10.2856C14.0671 10.2856 14.6427 9.70993 14.6427 8.99985C14.6427 8.28978 14.0671 7.71414 13.357 7.71414C12.647 7.71414 12.0713 8.28978 12.0713 8.99985C12.0713 9.70993 12.647 10.2856 13.357 10.2856Z" fill="#010D0D"/>
</g>
<defs>
<clipPath id="clip0_761_5218">
<rect width="18" height="18" fill="white" transform="translate(0.5)"/>
</clipPath>
</defs>
</svg>
