<svg width="20" height="20" viewBox="0 0 20 20" fill="none" xmlns="http://www.w3.org/2000/svg">
<g clip-path="url(#clip0_661_33624)">
<path d="M10 20C15.5228 20 20 15.5228 20 10C20 4.47715 15.5228 0 10 0C4.47715 0 0 4.47715 0 10C0 15.5228 4.47715 20 10 20Z" fill="#FFCE33"/>
<path d="M20 10C20 10.068 19.9992 10.1363 19.998 10.2039C19.8895 4.77539 15.4547 0.407812 10 0.407812C4.54531 0.407812 0.110547 4.77539 0.00195312 10.2039C0.00078125 10.1363 0 10.068 0 10C0 4.47695 4.47695 0 10 0C15.523 0 20 4.47695 20 10Z" fill="#FFF0B3"/>
<path d="M17.8626 10.547C17.8626 14.8896 14.3427 18.4095 10.0001 18.4095C5.65752 18.4095 2.13721 14.8896 2.13721 10.547C2.13721 10.4794 2.13799 10.4114 2.13955 10.3442C2.24854 14.5919 5.72627 18.0013 10.0001 18.0013C14.2739 18.0013 17.7513 14.5919 17.8603 10.3442C17.8618 10.4114 17.8626 10.4794 17.8626 10.547Z" fill="#FFF0B3"/>
<g opacity="0.6">
<path d="M17.8797 3.84238L0.983594 14.3307C0.353125 13.0205 0 11.5518 0 10.0002C0 9.52871 0.0328125 9.06465 0.0960938 8.61035L13.1504 0.506836C15.0398 1.13301 16.6789 2.30801 17.8797 3.84238ZM19.909 8.64824L4.3918 18.2807C5.36836 18.9436 6.46836 19.4381 7.65039 19.7225L19.7547 12.208C19.9152 11.4979 19.9996 10.7592 19.9996 10.0002C19.9996 9.5416 19.9688 9.09043 19.9086 8.64785L19.909 8.64824ZM18.9469 5.52871L2.025 16.0338C2.29922 16.3963 2.59805 16.7396 2.91836 17.0607L19.4719 6.78418C19.325 6.35137 19.1488 5.93223 18.9469 5.52832V5.52871Z" fill="#FFF0B3"/>
</g>
<path d="M10.0002 18.0014C14.3425 18.0014 17.8627 14.4812 17.8627 10.1389C17.8627 5.79653 14.3425 2.27637 10.0002 2.27637C5.65786 2.27637 2.1377 5.79653 2.1377 10.1389C2.1377 14.4812 5.65786 18.0014 10.0002 18.0014Z" fill="#F28A00"/>
<path d="M17.8626 10.1389C17.8626 10.2775 17.8587 10.4158 17.8517 10.5525C17.6364 6.40293 14.2032 3.10371 9.99971 3.10371C5.79619 3.10371 2.36338 6.40293 2.14814 10.5525C2.14111 10.4154 2.13721 10.2775 2.13721 10.1389C2.13721 5.79668 5.65752 2.27637 9.99971 2.27637C14.3419 2.27637 17.8622 5.79668 17.8622 10.1389H17.8626Z" fill="#DB5800"/>
<rect x="7.39746" y="12.5518" width="0.546875" height="2.50672" transform="rotate(45 7.39746 12.5518)" fill="#BC4C00"/>
<g filter="url(#filter0_d_661_33624)">
<path d="M10.32 12.268C10.218 12.37 10.218 12.5302 10.32 12.6322L11.4598 13.772L11.1175 13.9249C9.79563 14.4966 8.3973 14.2126 7.23566 13.1675C7.17012 13.1092 7.10455 13.0582 7.04265 12.9963C6.98075 12.9344 6.92976 12.8689 6.8715 12.8033C5.82637 11.6417 5.54236 10.2434 6.11408 8.92152L6.26701 8.57923L7.40679 9.71901C7.50876 9.82097 7.66899 9.82096 7.77094 9.71901C7.8729 9.61704 7.8729 9.45683 7.77094 9.35486L6.55466 8.13859C6.65299 8.01844 6.8715 7.70525 7.22471 7.35204C7.26114 7.31561 7.57794 7.04979 7.618 7.01702L8.86339 8.26241C8.96536 8.36438 9.12559 8.36436 9.22754 8.26241C9.3295 8.16044 9.3295 8.00023 9.22754 7.89826L8.05135 6.72207C8.25162 6.63101 8.68131 6.37611 9.46786 6.14306L9.61353 6.09937L10.32 6.80583C10.422 6.90779 10.5822 6.90778 10.6841 6.80583C10.7861 6.70386 10.7861 6.54365 10.6841 6.44168L10.1889 5.94644L10.6769 5.85903C12.2026 5.59321 13.6337 5.6187 14.0416 5.63326L14.4057 5.99741C14.4203 6.40527 14.4458 7.83638 14.18 9.36214L14.0926 9.8501L13.5973 9.35486C13.4953 9.25289 13.3351 9.25289 13.2332 9.35486C13.1312 9.45681 13.1312 9.61704 13.2332 9.71901L13.9396 10.4255L13.8959 10.5711C13.6629 11.3504 13.4152 11.7728 13.3169 11.9876L12.1407 10.8115C12.0388 10.7095 11.8786 10.7095 11.7766 10.8115C11.6746 10.9134 11.6746 11.0736 11.7766 11.1756L13.022 12.421C12.9892 12.461 12.7234 12.7779 12.687 12.8143C12.3301 13.1712 12.0169 13.3896 11.9004 13.4843L10.6841 12.2681C10.5822 12.1661 10.422 12.1661 10.32 12.268Z" fill="#FFE27F"/>
</g>
<path d="M10.3201 12.2681C10.2181 12.3701 10.2181 12.5303 10.3201 12.6323L11.4598 13.7721L11.1176 13.925C9.79571 14.4967 8.39737 14.2127 7.23574 13.1676C7.1702 13.1093 7.10463 13.0583 7.04272 12.9964L14.2237 5.81543L14.4058 5.99751C14.4204 6.40538 14.4459 7.83649 14.1801 9.36225L14.0927 9.85021L13.5974 9.35497C13.4954 9.253 13.3352 9.253 13.2333 9.35497C13.1313 9.45692 13.1313 9.61715 13.2333 9.71911L13.9397 10.4256L13.896 10.5712C13.663 11.3505 13.4153 11.7729 13.317 11.9878L12.1408 10.8116C12.0389 10.7096 11.8786 10.7096 11.7767 10.8116C11.6747 10.9135 11.6747 11.0737 11.7767 11.1757L13.0221 12.4211C12.9893 12.4611 12.7235 12.778 12.6871 12.8144C12.3302 13.1713 12.017 13.3897 11.9005 13.4844L10.6842 12.2682C10.5822 12.1662 10.422 12.1662 10.3201 12.2681Z" fill="#FFCE33"/>
<path d="M14.4058 5.99745L5.98915 14.4141L5.625 14.05L14.0417 5.6333C14.1036 5.63697 14.1472 5.63697 14.1582 5.6406L14.3876 5.65151L14.3985 5.88096C14.4021 5.89186 14.4021 5.93556 14.4058 5.99745Z" fill="#FFCE33"/>
<path d="M14.4059 5.9973L5.98921 14.414L5.80713 14.2319L14.3877 5.65137L14.3986 5.88081C14.4022 5.89171 14.4022 5.93542 14.4059 5.9973Z" fill="#FFE27F"/>
</g>
<defs>
<filter id="filter0_d_661_33624" x="5.82397" y="5.625" width="8.59009" height="8.98047" filterUnits="userSpaceOnUse" color-interpolation-filters="sRGB">
<feFlood flood-opacity="0" result="BackgroundImageFix"/>
<feColorMatrix in="SourceAlpha" type="matrix" values="0 0 0 0 0 0 0 0 0 0 0 0 0 0 0 0 0 0 127 0" result="hardAlpha"/>
<feOffset dy="0.390625"/>
<feComposite in2="hardAlpha" operator="out"/>
<feColorMatrix type="matrix" values="0 0 0 0 0.737255 0 0 0 0 0.298039 0 0 0 0 0 0 0 0 1 0"/>
<feBlend mode="normal" in2="BackgroundImageFix" result="effect1_dropShadow_661_33624"/>
<feBlend mode="normal" in="SourceGraphic" in2="effect1_dropShadow_661_33624" result="shape"/>
</filter>
<clipPath id="clip0_661_33624">
<rect width="20" height="20" fill="white"/>
</clipPath>
</defs>
</svg>
