<svg width="16" height="16" viewBox="0 0 16 16" fill="none" xmlns="http://www.w3.org/2000/svg">
<rect width="16" height="16" rx="8" fill="black" fill-opacity="0.4"/>
<g clip-path="url(#clip0_883_5042)">
<path fill-rule="evenodd" clip-rule="evenodd" d="M6.07536 5.5611C5.93335 5.41909 5.70311 5.41909 5.5611 5.5611C5.41909 5.70311 5.41909 5.93335 5.5611 6.07536L7.48579 8.00004L5.5611 9.92474C5.41909 10.0667 5.41909 10.297 5.5611 10.439C5.70311 10.581 5.93335 10.581 6.07536 10.439L8.00004 8.5143L9.92474 10.439C10.0667 10.581 10.297 10.581 10.439 10.439C10.581 10.297 10.581 10.0667 10.439 9.92474L8.5143 8.00004L10.439 6.07536C10.581 5.93335 10.581 5.70311 10.439 5.5611C10.297 5.41909 10.0667 5.41909 9.92474 5.5611L8.00004 7.48579L6.07536 5.5611Z" fill="white"/>
</g>
<defs>
<clipPath id="clip0_883_5042">
<rect width="5.09091" height="5.09091" fill="white" transform="translate(5.45459 5.45459)"/>
</clipPath>
</defs>
</svg>
