<svg width="84" height="84" viewBox="0 0 84 84" fill="none" xmlns="http://www.w3.org/2000/svg">
<rect width="84" height="84" fill="#CE5D49"/>
<g clip-path="url(#clip0_230_1693)">
<path fill-rule="evenodd" clip-rule="evenodd" d="M39.8788 33.4501C40.4414 32.8875 41.2045 32.5714 42.0001 32.5714C42.7958 32.5714 43.5589 32.8875 44.1215 33.4501C44.4769 33.8056 44.734 34.2411 44.8751 34.7143H39.1252C39.2663 34.2411 39.5233 33.8056 39.8788 33.4501ZM36.495 34.7143C36.6757 33.5541 37.2199 32.4725 38.0605 31.6318C39.1054 30.587 40.5225 30 42.0001 30C43.4778 30 44.8949 30.587 45.9397 31.6318C46.7804 32.4725 47.3247 33.5541 47.5052 34.7143H52.2859C52.9959 34.7143 53.5716 35.2899 53.5716 36C53.5716 36.7101 52.9959 37.2857 52.2859 37.2857H50.5716V51.4286C50.5716 52.1105 50.3007 52.7647 49.8185 53.2469C49.3363 53.7291 48.6821 54 48.0001 54H36.0001C35.3181 54 34.6641 53.7291 34.1819 53.2469C33.6996 52.7647 33.4287 52.1105 33.4287 51.4286V37.2857H31.7144C31.0043 37.2857 30.4287 36.7101 30.4287 36C30.4287 35.2899 31.0043 34.7143 31.7144 34.7143H36.495ZM38.5716 40.0739C39.1633 40.0739 39.643 40.5536 39.643 41.1454V48.0051C39.643 48.5967 39.1633 49.0766 38.5716 49.0766C37.9798 49.0766 37.5001 48.5967 37.5001 48.0051V41.1454C37.5001 40.5536 37.9798 40.0739 38.5716 40.0739ZM46.5001 41.1454C46.5001 40.5536 46.0204 40.0739 45.4287 40.0739C44.837 40.0739 44.3573 40.5536 44.3573 41.1454V48.0051C44.3573 48.5967 44.837 49.0766 45.4287 49.0766C46.0204 49.0766 46.5001 48.5967 46.5001 48.0051V41.1454Z" fill="white"/>
</g>
<defs>
<clipPath id="clip0_230_1693">
<rect width="24" height="24" fill="white" transform="translate(30 30)"/>
</clipPath>
</defs>
</svg>
