<svg width="48" height="48" viewBox="0 0 48 48" fill="none" xmlns="http://www.w3.org/2000/svg">
<g opacity="0.5" clip-path="url(#clip0_229_2634)">
<path fill-rule="evenodd" clip-rule="evenodd" d="M23.9926 0.159184C27.5805 0.157145 31.1225 0.964902 34.3547 2.52225C37.5871 4.07966 40.4263 6.3466 42.6604 9.15401C44.8948 11.9614 46.4664 15.2369 47.2588 18.7364C48.0508 22.2359 48.0429 25.869 47.2355 29.3649C46.428 32.8609 44.842 36.1295 42.5956 38.9272C40.3492 41.725 37.5 43.9792 34.2609 45.5228C31.0218 47.066 27.4761 47.8583 23.8882 47.8405C20.4908 47.8237 17.1384 47.0811 14.055 45.6647L2.17169 47.8134C1.56454 47.9231 0.945228 47.6982 0.550078 47.2244C0.154925 46.7506 0.0448952 46.1008 0.261973 45.5235L3.67076 36.4542C1.57814 33.0382 0.377381 29.1455 0.186272 25.1347C-0.0189723 20.8271 0.948019 16.5445 2.98425 12.743C5.02049 8.94155 8.0497 5.76357 11.7493 3.54758C15.4487 1.33165 19.6803 0.16062 23.9926 0.159184ZM17.1425 23.9999C17.1425 25.8935 15.6075 27.4285 13.714 27.4285C11.8204 27.4285 10.2854 25.8935 10.2854 23.9999C10.2854 22.1064 11.8204 20.5714 13.714 20.5714C15.6075 20.5714 17.1425 22.1064 17.1425 23.9999ZM23.9997 27.4285C25.8932 27.4285 27.4283 25.8935 27.4283 23.9999C27.4283 22.1064 25.8932 20.5714 23.9997 20.5714C22.1062 20.5714 20.5711 22.1064 20.5711 23.9999C20.5711 25.8935 22.1062 27.4285 23.9997 27.4285ZM34.2854 27.4285C36.179 27.4285 37.714 25.8935 37.714 23.9999C37.714 22.1064 36.179 20.5714 34.2854 20.5714C32.3919 20.5714 30.8568 22.1064 30.8568 23.9999C30.8568 25.8935 32.3919 27.4285 34.2854 27.4285Z" fill="white"/>
</g>
<defs>
<clipPath id="clip0_229_2634">
<rect width="48" height="48" fill="white"/>
</clipPath>
</defs>
</svg>
