<svg width="66" height="48" viewBox="0 0 66 48" fill="none" xmlns="http://www.w3.org/2000/svg">
<path d="M58.2087 25.9401C62.5048 25.9401 66 22.6946 66 18.7054V15.2498H61.0623C59.5468 15.2498 58.0812 15.6606 56.8252 16.4202C56.6856 15.7045 56.5094 14.9961 56.2953 14.2963L57.7828 13.5015C59.5851 12.5353 60.8742 10.9752 61.4129 9.10845C61.9515 7.24182 61.675 5.29225 60.6345 3.61869L58.7739 0.625977L54.4976 2.91848C52.8102 3.82312 51.5579 5.27573 50.9717 7.00866C50.3943 8.71454 50.5094 10.5456 51.2955 12.1679L52.1724 14.1069C52.9522 16.1392 53.3481 18.2759 53.3481 20.4588C53.3481 30.8772 44.2202 39.3531 33.0005 39.3531C21.7807 39.3531 12.6528 30.8772 12.6528 20.4588C12.6528 18.2698 13.0483 16.1332 13.8275 14.1074L14.7045 12.1679C15.4906 10.5456 15.6057 8.71466 15.0285 7.00866C14.4421 5.27573 13.1898 3.82312 11.5024 2.91848L7.22607 0.625977L5.36551 3.61869C4.32489 5.29225 4.04853 7.24194 4.58708 9.10857C5.12563 10.9752 6.4149 12.5353 8.21951 13.5027L9.7042 14.2961C9.49009 14.9952 9.31389 15.7038 9.17442 16.42C7.91853 15.6605 6.45305 15.2498 4.93769 15.2498H0V18.7054C0 22.6947 3.49516 25.9401 7.79118 25.9401H7.79388L9.5142 25.9378C9.70639 26.6479 9.93519 27.3447 10.1984 28.0263C10.0548 28.0187 9.91044 28.0139 9.7644 28.0139C8.40642 28.0139 7.06765 28.3467 5.89259 28.9767L1.61642 31.2692L3.47711 34.2618C4.86473 36.4936 7.45229 37.88 10.23 37.88C11.5911 37.88 12.9363 37.5445 14.1224 36.9086L15.6236 36.1011C16.1703 36.6245 16.744 37.1233 17.3428 37.5957C16.0137 38.2202 14.8815 39.1915 14.1174 40.4205L11.6485 44.3911L14.8713 46.1189C16.0553 46.7536 17.4005 47.0891 18.7616 47.0891C21.5393 47.0891 24.1268 45.7027 25.5157 43.4686L26.3718 42.0874C28.4792 42.645 30.7029 42.9438 33.0004 42.9438C35.2975 42.9438 37.5211 42.6451 39.6282 42.0876L40.4855 43.4709C41.8732 45.7027 44.4606 47.0891 47.2384 47.0891H47.2387C48.5996 47.0891 49.9448 46.7536 51.1287 46.1189L54.3515 44.3911L51.8826 40.4205C51.1186 39.1916 49.9867 38.2204 48.6578 37.596C49.2565 37.1235 49.8304 36.6247 50.377 36.1012L51.8799 36.9099C53.0637 37.5445 54.4088 37.88 55.77 37.88H55.7704C58.5478 37.88 61.1353 36.4936 62.523 34.2618L64.3837 31.2692L60.1075 28.9768C58.9326 28.3469 57.5937 28.014 56.2359 28.014C56.0907 28.014 55.9464 28.0188 55.8026 28.0263C56.0658 27.3447 56.2945 26.6479 56.4867 25.9379L58.2087 25.9401Z" fill="#A1F69E"/>
<path d="M38.7777 15.8462L32.9995 11.5537L27.2213 15.8462L19.1641 12.6622V28.0978H46.8349V12.6622L38.7777 15.8462Z" fill="#FFDA2D"/>
<path d="M30.2598 5.59668L32.9938 3.05797L35.7279 5.59685L32.9939 8.13556L30.2598 5.59668Z" fill="#F9F900"/>
<path d="M37.9941 7.99023L40.7281 5.45152L43.4623 7.9904L40.7283 10.5291L37.9941 7.99023Z" fill="#F9F900"/>
<path d="M22.5254 7.98975L25.2594 5.45104L27.9936 7.98992L25.2596 10.5286L22.5254 7.98975Z" fill="#F9F900"/>
<path d="M37.9941 7.99023L40.7281 5.45152L43.4623 7.9904L40.7283 10.5291L37.9941 7.99023Z" fill="#FFDA2D"/>
<path d="M58.2086 25.9401C62.5047 25.9401 65.9999 22.6946 65.9999 18.7054V15.2498H61.0622C59.5467 15.2498 58.0811 15.6606 56.8251 16.4202C56.6855 15.7045 56.5093 14.9961 56.2952 14.2963L57.7827 13.5015C59.585 12.5353 60.8741 10.9752 61.4128 9.10845C61.9513 7.24182 61.6749 5.29225 60.6344 3.61869L58.7738 0.625977L54.4975 2.91848C52.8101 3.82312 51.5578 5.27573 50.9715 7.00866C50.3942 8.71454 50.5093 10.5456 51.2953 12.1679L52.1723 14.1069C52.9521 16.1392 53.348 18.2759 53.348 20.4588C53.348 30.8772 44.2201 39.3531 33.0004 39.3531H33V42.9439H33.0004C35.2975 42.9439 37.5211 42.6453 39.6282 42.0877L40.4856 43.471C41.8732 45.7028 44.4606 47.0893 47.2384 47.0893H47.2387C48.5996 47.0893 49.9448 46.7538 51.1287 46.119L54.3515 44.3912L51.8826 40.4206C51.1186 39.1917 49.9867 38.2205 48.6578 37.5961C49.2565 37.1237 49.8304 36.6248 50.377 36.1014L51.8799 36.91C53.0637 37.5446 54.4088 37.8801 55.77 37.8801H55.7704C58.5478 37.8801 61.1353 36.4937 62.523 34.2619L64.3837 31.2693L60.1075 28.9769C58.9326 28.347 57.5937 28.0141 56.2359 28.0141C56.0907 28.0141 55.9464 28.0189 55.8026 28.0264C56.0658 27.3448 56.2945 26.648 56.4867 25.938L58.2086 25.9401Z" fill="#019A5A"/>
<path d="M46.8354 12.6622L38.7781 15.8462L33 11.5537V28.0978H46.8354V12.6622Z" fill="#FEBF01"/>
<path d="M35.7344 5.59473L33 3.05566V8.1338L35.7344 5.59473Z" fill="#FFDA2D"/>
</svg>
