<svg width="40" height="41" viewBox="0 0 40 41" fill="none" xmlns="http://www.w3.org/2000/svg">
<rect x="0.625" y="1.125" width="38.75" height="38.75" rx="19.375" fill="black" fill-opacity="0.3"/>
<rect x="0.625" y="1.125" width="38.75" height="38.75" rx="19.375" stroke="white" stroke-width="1.25"/>
<g clip-path="url(#clip0_234_3761)">
<path fill-rule="evenodd" clip-rule="evenodd" d="M18.4295 14.788C18.4295 14.4991 18.2554 14.2387 17.9885 14.1281C17.7216 14.0176 17.4144 14.0787 17.2101 14.283L14.9253 16.5677C14.6464 16.8467 14.6464 17.299 14.9253 17.5779L17.2101 19.8627C17.4144 20.067 17.7216 20.1281 17.9885 20.0175C18.2554 19.907 18.4295 19.6465 18.4295 19.3576V18.0251H20C21.9977 18.0251 23.6172 19.6446 23.6172 21.6423C23.6172 23.64 21.9977 25.2595 20 25.2595C18.0023 25.2595 16.3828 23.64 16.3828 21.6423C16.3828 21.1163 15.9564 20.6899 15.4304 20.6899C14.9044 20.6899 14.478 21.1163 14.478 21.6423C14.478 24.692 16.9503 27.1643 20 27.1643C23.0497 27.1643 25.522 24.692 25.522 21.6423C25.522 18.5926 23.0497 16.1203 20 16.1203H18.4295V14.788Z" fill="white"/>
</g>
<defs>
<clipPath id="clip0_234_3761">
<rect width="13.3333" height="13.3333" fill="white" transform="translate(13.3333 13.833)"/>
</clipPath>
</defs>
</svg>
