<svg width="40" height="41" viewBox="0 0 40 41" fill="none" xmlns="http://www.w3.org/2000/svg">
<rect x="0.46875" y="0.96875" width="39.0625" height="39.0625" rx="19.5312" fill="black" fill-opacity="0.3"/>
<rect x="0.46875" y="0.96875" width="39.0625" height="39.0625" rx="19.5312" stroke="white" stroke-width="0.9375"/>
<g clip-path="url(#clip0_234_3734)">
<path fill-rule="evenodd" clip-rule="evenodd" d="M16.8112 14.1623C17.8617 14.2384 18.9564 14.7506 20.0043 15.787C21.052 14.7509 22.1457 14.2397 23.1953 14.1653C24.3799 14.0813 25.4271 14.56 26.1848 15.3154C27.6744 16.8006 28.1422 19.4879 26.2937 21.3364C26.2875 21.3426 26.2811 21.3487 26.2746 21.3546L20.364 26.7085C20.1598 26.8933 19.8488 26.8933 19.6447 26.7085L13.7341 21.3546C13.7275 21.3487 13.7211 21.3426 13.7149 21.3364C11.8568 19.4783 12.3221 16.7906 13.8166 15.3066C14.5762 14.5524 15.6255 14.0764 16.8112 14.1623Z" fill="white"/>
</g>
<defs>
<clipPath id="clip0_234_3734">
<rect width="15" height="15" fill="white" transform="translate(12.5 12.9995)"/>
</clipPath>
</defs>
</svg>
