<svg width="40" height="41" viewBox="0 0 40 41" fill="none" xmlns="http://www.w3.org/2000/svg">
<rect y="0.5" width="40" height="40" rx="20" fill="black" fill-opacity="0.3"/>
<path fill-rule="evenodd" clip-rule="evenodd" d="M16.5714 13.4288C16.7063 13.2489 16.918 13.1431 17.1429 13.1431H22.8571C23.082 13.1431 23.2937 13.2489 23.4286 13.4288L25.3571 16.0002H27.8571C28.4254 16.0002 28.9706 16.226 29.3724 16.6278C29.7743 17.0297 30 17.5747 30 18.1431V26.7145C30 27.2828 29.7743 27.8279 29.3724 28.2298C28.9706 28.6316 28.4254 28.8574 27.8571 28.8574H12.1429C11.5745 28.8574 11.0295 28.6316 10.6276 28.2298C10.2258 27.8279 10 27.2828 10 26.7145V18.1431C10 17.5748 10.2258 17.0297 10.6276 16.6278C11.0295 16.226 11.5745 16.0002 12.1429 16.0002H14.6429L16.5714 13.4288ZM23.5162 22.0164C23.5162 23.9583 21.9419 25.5325 20 25.5325C18.0581 25.5325 16.4838 23.9583 16.4838 22.0164C16.4838 20.0745 18.0581 18.5002 20 18.5002C21.9419 18.5002 23.5162 20.0745 23.5162 22.0164Z" fill="white"/>
</svg>
