<svg width="40" height="40" viewBox="0 0 40 40" fill="none" xmlns="http://www.w3.org/2000/svg">
<rect x="0.46875" y="0.46875" width="39.0625" height="39.0625" rx="19.5312" fill="black" fill-opacity="0.3"/>
<rect x="0.46875" y="0.46875" width="39.0625" height="39.0625" rx="19.5312" stroke="white" stroke-width="0.9375"/>
<g clip-path="url(#clip0_383_4907)">
<path fill-rule="evenodd" clip-rule="evenodd" d="M16.8112 8.03732C17.8618 8.11345 18.9565 8.62557 20.0044 9.66204C21.052 8.62586 22.1458 8.11471 23.1953 8.04028C24.3799 7.95627 25.4271 8.43504 26.1848 9.19041C27.6744 10.6756 28.1422 13.3629 26.2938 15.2114C26.2876 15.2176 26.2812 15.2237 26.2746 15.2296L20.364 20.5835C20.1599 20.7683 19.8489 20.7683 19.6447 20.5835L13.7341 15.2296C13.7276 15.2237 13.7212 15.2176 13.715 15.2114C11.8569 13.3533 12.3222 10.6656 13.8167 9.18162C14.5762 8.42744 15.6256 7.95142 16.8112 8.03732Z" fill="white"/>
</g>
<path d="M6.78438 28.2C6.78438 27.8479 6.84667 27.504 6.97125 27.1681C7.09583 26.8269 7.27729 26.5181 7.51562 26.2419C7.75938 25.9602 8.05458 25.7381 8.40125 25.5756C8.74792 25.4077 9.14063 25.3237 9.57938 25.3237C10.0994 25.3237 10.549 25.4429 10.9281 25.6812C11.3073 25.9142 11.589 26.2148 11.7731 26.5831L11.0581 27.0625C10.9498 26.8296 10.8117 26.6454 10.6438 26.51C10.4813 26.3746 10.3025 26.2798 10.1075 26.2256C9.91792 26.1715 9.73104 26.1444 9.54688 26.1444C9.24354 26.1444 8.97813 26.2067 8.75063 26.3312C8.52313 26.4504 8.33083 26.6102 8.17375 26.8106C8.02208 27.011 7.90563 27.2358 7.82438 27.485C7.74854 27.7342 7.71063 27.9833 7.71063 28.2325C7.71063 28.5087 7.75667 28.7769 7.84875 29.0369C7.94083 29.2915 8.06813 29.519 8.23063 29.7194C8.39854 29.9144 8.59625 30.0687 8.82375 30.1825C9.05125 30.2962 9.30042 30.3531 9.57125 30.3531C9.75542 30.3531 9.94771 30.3206 10.1481 30.2556C10.3485 30.1906 10.5327 30.0904 10.7006 29.955C10.874 29.8142 11.0094 29.63 11.1069 29.4025L11.8625 29.8331C11.7433 30.1202 11.5565 30.364 11.3019 30.5644C11.0527 30.7648 10.771 30.9165 10.4569 31.0194C10.1481 31.1223 9.84208 31.1738 9.53875 31.1738C9.1325 31.1738 8.76146 31.0898 8.42563 30.9219C8.08979 30.7485 7.8 30.521 7.55625 30.2394C7.3125 29.9523 7.12292 29.6327 6.9875 29.2806C6.85208 28.9231 6.78438 28.5629 6.78438 28.2ZM13.2892 31.1575V30.3937H13.7036C13.839 30.3937 13.9419 30.3612 14.0123 30.2962C14.0827 30.2312 14.1504 30.1337 14.2154 30.0037L14.3861 29.63L12.0379 25.3562H13.0454L14.8004 28.6956L16.2873 25.3562H17.2542L14.9142 30.4344C14.7842 30.6998 14.6407 30.8867 14.4836 30.995C14.3319 31.1033 14.1234 31.1575 13.8579 31.1575H13.2892ZM17.8301 31.125V25.3562H22.3882V31.125H21.4701V26.1606H18.7401V31.125H17.8301ZM27.6505 30.3206V31.125H23.6936V25.3562H27.5773V26.1606H24.6036V27.8019H27.1792V28.5575H24.6036V30.3206H27.6505ZM28.5892 31.125V25.3562H31.0105C31.2705 25.3562 31.5088 25.4104 31.7255 25.5187C31.9421 25.6271 32.1317 25.7706 32.2942 25.9494C32.4567 26.1281 32.5813 26.3285 32.668 26.5506C32.7546 26.7727 32.798 27.0002 32.798 27.2331C32.798 27.5527 32.7248 27.8587 32.5786 28.1512C32.4378 28.4383 32.2346 28.6712 31.9692 28.85C31.7092 29.0287 31.4059 29.1181 31.0592 29.1181H29.4992V31.125H28.5892ZM29.4992 28.3137H31.0023C31.1757 28.3137 31.3273 28.2677 31.4573 28.1756C31.5873 28.0781 31.6875 27.9481 31.758 27.7856C31.8338 27.6231 31.8717 27.439 31.8717 27.2331C31.8717 27.0219 31.8284 26.835 31.7417 26.6725C31.655 26.51 31.5413 26.3854 31.4005 26.2987C31.265 26.2067 31.1161 26.1606 30.9536 26.1606H29.4992V28.3137Z" fill="white"/>
<defs>
<clipPath id="clip0_383_4907">
<rect width="15" height="15" fill="white" transform="translate(12.5 6.875)"/>
</clipPath>
</defs>
</svg>
