<svg width="40" height="41" viewBox="0 0 40 41" fill="none" xmlns="http://www.w3.org/2000/svg">
<rect x="0.46875" y="0.96875" width="39.0625" height="39.0625" rx="19.5312" fill="black" fill-opacity="0.3"/>
<rect x="0.46875" y="0.96875" width="39.0625" height="39.0625" rx="19.5312" stroke="white" stroke-width="0.9375"/>
<g clip-path="url(#clip0_234_3743)">
<path fill-rule="evenodd" clip-rule="evenodd" d="M15.2742 14.5115C14.9255 14.1628 14.3602 14.1628 14.0115 14.5115C13.6628 14.8602 13.6628 15.4255 14.0115 15.7742L18.7373 20.5L14.0115 25.2258C13.6628 25.5745 13.6628 26.1398 14.0115 26.4885C14.3602 26.8371 14.9255 26.8371 15.2742 26.4885L20 21.7627L24.7258 26.4885C25.0745 26.8371 25.6398 26.8371 25.9885 26.4885C26.3371 26.1398 26.3371 25.5745 25.9885 25.2258L21.2627 20.5L25.9885 15.7742C26.3371 15.4255 26.3371 14.8602 25.9885 14.5115C25.6398 14.1628 25.0745 14.1628 24.7258 14.5115L20 19.2373L15.2742 14.5115Z" fill="white"/>
</g>
<defs>
<clipPath id="clip0_234_3743">
<rect width="12.5" height="12.5" fill="white" transform="translate(13.75 14.25)"/>
</clipPath>
</defs>
</svg>
