<svg width="40" height="41" viewBox="0 0 40 41" fill="none" xmlns="http://www.w3.org/2000/svg">
<rect y="0.5" width="40" height="40" rx="20" fill="black" fill-opacity="0.3"/>
<path d="M21 10C21 9.44772 20.5523 9 20 9C19.4477 9 19 9.44772 19 10H21ZM19.2929 32.7071C19.6834 33.0976 20.3166 33.0976 20.7071 32.7071L27.0711 26.3431C27.4616 25.9526 27.4616 25.3195 27.0711 24.9289C26.6805 24.5384 26.0474 24.5384 25.6569 24.9289L20 30.5858L14.3431 24.9289C13.9526 24.5384 13.3195 24.5384 12.9289 24.9289C12.5384 25.3195 12.5384 25.9526 12.9289 26.3431L19.2929 32.7071ZM19 10V32H21V10H19Z" fill="white"/>
</svg>
