<svg width="40" height="41" viewBox="0 0 40 41" fill="none" xmlns="http://www.w3.org/2000/svg">
<rect y="0.5" width="40" height="40" rx="20" fill="black" fill-opacity="0.3"/>
<g clip-path="url(#clip0_234_7102)">
<path fill-rule="evenodd" clip-rule="evenodd" d="M16.1173 14.6138C16.5351 14.3912 16.6934 13.8721 16.4708 13.4543C16.2482 13.0365 15.7291 12.8782 15.3113 13.1008C14.1319 13.7291 13.0794 14.5711 12.2076 15.5838C11.8987 15.9426 11.9392 16.4838 12.2979 16.7926C12.6567 17.1015 13.1979 17.061 13.5067 16.7023C14.2401 15.8504 15.1253 15.1423 16.1173 14.6138ZM20 29.0001C23.7871 29.0001 26.8571 25.9302 26.8571 22.143C26.8571 18.3559 23.7871 15.2859 20 15.2859C16.2129 15.2859 13.1429 18.3559 13.1429 22.143C13.1429 25.9302 16.2129 29.0001 20 29.0001ZM23.5293 13.4543C23.7518 13.0365 24.271 12.8782 24.6887 13.1008C25.8681 13.7291 26.9206 14.5711 27.7925 15.5838C28.1013 15.9426 28.0608 16.4838 27.7021 16.7926C27.3433 17.1015 26.8022 17.061 26.4933 16.7023C25.76 15.8504 24.8747 15.1423 23.8827 14.6138C23.4649 14.3912 23.3067 13.8721 23.5293 13.4543ZM20.7143 18.7143C20.7143 18.3198 20.3945 18 20 18C19.6055 18 19.2857 18.3198 19.2857 18.7143V22.1429C19.2857 22.5373 19.6055 22.8571 20 22.8571H22.8571C23.2516 22.8571 23.5714 22.5373 23.5714 22.1429C23.5714 21.7484 23.2516 21.4286 22.8571 21.4286H20.7143V18.7143Z" fill="white"/>
</g>
<defs>
<clipPath id="clip0_234_7102">
<rect width="16" height="16" fill="white" transform="translate(12 13)"/>
</clipPath>
</defs>
</svg>
