<svg width="40" height="41" viewBox="0 0 40 41" fill="none" xmlns="http://www.w3.org/2000/svg">
<rect x="0.625" y="1.125" width="38.75" height="38.75" rx="19.375" fill="black" fill-opacity="0.3"/>
<rect x="0.625" y="1.125" width="38.75" height="38.75" rx="19.375" stroke="white" stroke-width="1.25"/>
<g clip-path="url(#clip0_234_3752)">
<path fill-rule="evenodd" clip-rule="evenodd" d="M19.998 13.8774C20.9947 13.8769 21.9785 14.1013 22.8764 14.5339C23.7743 14.9665 24.5629 15.5962 25.1835 16.376C25.8042 17.1558 26.2408 18.0657 26.4609 19.0378C26.6809 20.0099 26.6787 21.0191 26.4544 21.9901C26.2301 22.9613 25.7895 23.8692 25.1655 24.6463C24.5415 25.4235 23.7501 26.0497 22.8503 26.4784C21.9506 26.9071 20.9657 27.1272 19.969 27.1223C19.0253 27.1176 18.0941 26.9113 17.2376 26.5179L13.9367 27.1147C13.768 27.1452 13.596 27.0827 13.4862 26.9511C13.3764 26.8195 13.3459 26.639 13.4062 26.4786L14.3531 23.9594C13.7718 23.0105 13.4382 21.9292 13.3852 20.8151C13.3281 19.6185 13.5968 18.4289 14.1624 17.3729C14.728 16.317 15.5694 15.4342 16.5971 14.8187C17.6247 14.2031 18.8002 13.8778 19.998 13.8774ZM18.0952 20.4999C18.0952 21.0259 17.6688 21.4523 17.1429 21.4523C16.6169 21.4523 16.1905 21.0259 16.1905 20.4999C16.1905 19.9739 16.6169 19.5475 17.1429 19.5475C17.6688 19.5475 18.0952 19.9739 18.0952 20.4999ZM20 21.4523C20.526 21.4523 20.9524 21.0259 20.9524 20.4999C20.9524 19.9739 20.526 19.5475 20 19.5475C19.474 19.5475 19.0476 19.9739 19.0476 20.4999C19.0476 21.0259 19.474 21.4523 20 21.4523ZM22.8571 21.4523C23.3831 21.4523 23.8095 21.0259 23.8095 20.4999C23.8095 19.9739 23.3831 19.5475 22.8571 19.5475C22.3312 19.5475 21.9048 19.9739 21.9048 20.4999C21.9048 21.0259 22.3312 21.4523 22.8571 21.4523Z" fill="white"/>
</g>
<defs>
<clipPath id="clip0_234_3752">
<rect width="13.3333" height="13.3333" fill="white" transform="translate(13.3333 13.8335)"/>
</clipPath>
</defs>
</svg>
