<svg width="343" height="334" viewBox="0 0 343 334" fill="none" xmlns="http://www.w3.org/2000/svg">
<rect x="0.5" y="0.5" width="342" height="333" rx="23.5" fill="#022424"/>
<rect x="0.5" y="0.5" width="342" height="333" rx="23.5" stroke="#233636"/>
<path d="M71.8535 44.1C70.8268 44.1 69.9002 43.9 69.0735 43.5C68.2468 43.1 67.5335 42.56 66.9335 41.88C66.3335 41.1867 65.8668 40.4133 65.5335 39.56C65.2135 38.6933 65.0535 37.8067 65.0535 36.9C65.0535 35.9533 65.2268 35.0533 65.5735 34.2C65.9202 33.3333 66.4002 32.5667 67.0135 31.9C67.6268 31.22 68.3468 30.6867 69.1735 30.3C70.0135 29.9 70.9202 29.7 71.8935 29.7C72.9068 29.7 73.8268 29.9067 74.6535 30.32C75.4935 30.7333 76.2068 31.2867 76.7935 31.98C77.3935 32.6733 77.8535 33.4467 78.1735 34.3C78.5068 35.1533 78.6735 36.0267 78.6735 36.92C78.6735 37.8667 78.5002 38.7733 78.1535 39.64C77.8202 40.4933 77.3468 41.26 76.7335 41.94C76.1202 42.6067 75.3935 43.1333 74.5535 43.52C73.7268 43.9067 72.8268 44.1 71.8535 44.1ZM67.3335 36.9C67.3335 37.5667 67.4402 38.2133 67.6535 38.84C67.8668 39.4667 68.1668 40.0267 68.5535 40.52C68.9535 41 69.4335 41.38 69.9935 41.66C70.5535 41.94 71.1802 42.08 71.8735 42.08C72.5935 42.08 73.2335 41.9333 73.7935 41.64C74.3535 41.3467 74.8202 40.9533 75.1935 40.46C75.5802 39.9533 75.8735 39.3933 76.0735 38.78C76.2735 38.1533 76.3735 37.5267 76.3735 36.9C76.3735 36.2333 76.2668 35.5933 76.0535 34.98C75.8535 34.3533 75.5535 33.8 75.1535 33.32C74.7535 32.8267 74.2735 32.44 73.7135 32.16C73.1668 31.88 72.5535 31.74 71.8735 31.74C71.1535 31.74 70.5135 31.8867 69.9535 32.18C69.3935 32.4733 68.9202 32.8667 68.5335 33.36C68.1468 33.8533 67.8468 34.4067 67.6335 35.02C67.4335 35.6333 67.3335 36.26 67.3335 36.9ZM83.1926 44V35.48H79.7326V33.54H88.8726V35.48H85.3926V44H83.1926ZM95.2573 44.2C94.4439 44.2 93.7039 44.06 93.0373 43.78C92.3839 43.4867 91.8173 43.0867 91.3373 42.58C90.8573 42.0733 90.4839 41.4933 90.2173 40.84C89.9639 40.1867 89.8373 39.4933 89.8373 38.76C89.8373 37.7733 90.0573 36.8733 90.4973 36.06C90.9506 35.2467 91.5773 34.5933 92.3773 34.1C93.1906 33.6067 94.1506 33.36 95.2573 33.36C96.3239 33.36 97.2506 33.6 98.0373 34.08C98.8373 34.5467 99.4239 35.1733 99.7973 35.96L97.6573 36.64C97.4173 36.2 97.0773 35.86 96.6373 35.62C96.2106 35.3667 95.7373 35.24 95.2173 35.24C94.6306 35.24 94.0973 35.3933 93.6173 35.7C93.1506 35.9933 92.7773 36.4067 92.4973 36.94C92.2306 37.46 92.0973 38.0667 92.0973 38.76C92.0973 39.4267 92.2373 40.0333 92.5173 40.58C92.7973 41.1133 93.1706 41.54 93.6373 41.86C94.1173 42.1667 94.6506 42.32 95.2373 42.32C95.5973 42.32 95.9439 42.26 96.2773 42.14C96.6239 42.0067 96.9239 41.8333 97.1773 41.62C97.4306 41.3933 97.6106 41.1467 97.7173 40.88L99.8773 41.52C99.6506 42.04 99.3106 42.5 98.8573 42.9C98.4173 43.3 97.8906 43.62 97.2773 43.86C96.6773 44.0867 96.0039 44.2 95.2573 44.2ZM101.689 44V33.54H103.869V37.68H104.909L107.989 33.54H110.429L106.609 38.6L110.869 44H108.329L104.889 39.66H103.869V44H101.689ZM111.749 40.94C111.749 40.2733 111.936 39.6933 112.309 39.2C112.696 38.6933 113.223 38.3067 113.889 38.04C114.556 37.76 115.329 37.62 116.209 37.62C116.676 37.62 117.149 37.6533 117.629 37.72C118.123 37.7867 118.556 37.8933 118.929 38.04V37.38C118.929 36.6467 118.709 36.0733 118.269 35.66C117.829 35.2467 117.196 35.04 116.369 35.04C115.783 35.04 115.229 35.1467 114.709 35.36C114.189 35.56 113.636 35.8467 113.049 36.22L112.309 34.74C113.003 34.2733 113.696 33.9267 114.389 33.7C115.096 33.4733 115.836 33.36 116.609 33.36C118.009 33.36 119.109 33.7333 119.909 34.48C120.723 35.2133 121.129 36.26 121.129 37.62V41.52C121.129 41.7733 121.169 41.9533 121.249 42.06C121.343 42.1667 121.496 42.2267 121.709 42.24V44C121.509 44.04 121.329 44.0667 121.169 44.08C121.009 44.0933 120.876 44.1 120.769 44.1C120.303 44.1 119.949 43.9867 119.709 43.76C119.469 43.5333 119.329 43.2667 119.289 42.96L119.229 42.36C118.776 42.9467 118.196 43.4 117.489 43.72C116.783 44.04 116.069 44.2 115.349 44.2C114.656 44.2 114.036 44.06 113.489 43.78C112.943 43.4867 112.516 43.0933 112.209 42.6C111.903 42.1067 111.749 41.5533 111.749 40.94ZM118.409 41.58C118.569 41.4067 118.696 41.2333 118.789 41.06C118.883 40.8867 118.929 40.7333 118.929 40.6V39.4C118.556 39.2533 118.163 39.1467 117.749 39.08C117.336 39 116.929 38.96 116.529 38.96C115.729 38.96 115.076 39.12 114.569 39.44C114.076 39.76 113.829 40.2 113.829 40.76C113.829 41.0667 113.909 41.36 114.069 41.64C114.243 41.92 114.483 42.1467 114.789 42.32C115.109 42.4933 115.503 42.58 115.969 42.58C116.449 42.58 116.909 42.4867 117.349 42.3C117.789 42.1133 118.143 41.8733 118.409 41.58ZM123.799 44V33.54H125.999V37.7H130.859V33.54H133.059V44H130.859V39.6H125.999V44H123.799ZM135.713 44V33.56H137.913V41.06L143.213 33.54H145.213V44H143.013V36.66L137.773 44H135.713ZM153.781 44.2C152.941 44.2 152.201 44 151.561 43.6C150.921 43.2 150.415 42.68 150.041 42.04V48.26H147.841V33.54H149.781V35.42C150.181 34.7933 150.701 34.2933 151.341 33.92C151.981 33.5467 152.695 33.36 153.481 33.36C154.201 33.36 154.861 33.5067 155.461 33.8C156.061 34.08 156.581 34.4733 157.021 34.98C157.461 35.4867 157.801 36.0667 158.041 36.72C158.295 37.36 158.421 38.04 158.421 38.76C158.421 39.76 158.221 40.6733 157.821 41.5C157.435 42.3267 156.888 42.9867 156.181 43.48C155.488 43.96 154.688 44.2 153.781 44.2ZM153.061 42.32C153.528 42.32 153.948 42.22 154.321 42.02C154.708 41.82 155.035 41.5533 155.301 41.22C155.581 40.8867 155.795 40.5067 155.941 40.08C156.088 39.6533 156.161 39.2133 156.161 38.76C156.161 38.28 156.081 37.8267 155.921 37.4C155.761 36.9733 155.528 36.6 155.221 36.28C154.928 35.96 154.581 35.7067 154.181 35.52C153.795 35.3333 153.368 35.24 152.901 35.24C152.621 35.24 152.328 35.2933 152.021 35.4C151.715 35.5067 151.428 35.6533 151.161 35.84C150.895 36.0267 150.661 36.2467 150.461 36.5C150.261 36.7533 150.121 37.02 150.041 37.3V40.04C150.228 40.4667 150.475 40.8533 150.781 41.2C151.088 41.5333 151.441 41.8067 151.841 42.02C152.241 42.22 152.648 42.32 153.061 42.32ZM161.469 48.44C161.229 48.44 160.975 48.4067 160.709 48.34C160.442 48.2733 160.162 48.1733 159.869 48.04L160.429 46.4C160.589 46.48 160.742 46.54 160.889 46.58C161.035 46.62 161.169 46.64 161.289 46.64C161.622 46.64 161.922 46.5 162.189 46.22C162.469 45.9533 162.715 45.5467 162.929 45L163.329 43.92L158.909 33.54H161.209L164.409 41.76L167.249 33.54H169.369L164.769 45.6C164.542 46.2267 164.255 46.7467 163.909 47.16C163.575 47.5733 163.202 47.8867 162.789 48.1C162.375 48.3267 161.935 48.44 161.469 48.44ZM170.986 44V33.56H173.186V41.06L178.486 33.54H180.486V44H178.286V36.66L173.046 44H170.986ZM175.746 32.46C174.759 32.46 173.993 32.2133 173.446 31.72C172.913 31.2267 172.646 30.6067 172.646 29.86H174.086C174.086 30.2467 174.213 30.5667 174.466 30.82C174.733 31.0733 175.159 31.2 175.746 31.2C176.319 31.2 176.726 31.08 176.966 30.84C177.219 30.6 177.373 30.2733 177.426 29.86H178.866C178.866 30.6067 178.593 31.2267 178.046 31.72C177.513 32.2133 176.746 32.46 175.746 32.46ZM185.595 44V35.48H182.135V33.54H191.275V35.48H187.795V44H185.595ZM197.66 44.2C196.846 44.2 196.106 44.06 195.44 43.78C194.786 43.4867 194.22 43.0933 193.74 42.6C193.26 42.0933 192.886 41.52 192.62 40.88C192.366 40.2267 192.24 39.5333 192.24 38.8C192.24 37.8133 192.466 36.9133 192.92 36.1C193.373 35.2733 194.006 34.6133 194.82 34.12C195.633 33.6133 196.586 33.36 197.68 33.36C198.773 33.36 199.713 33.6133 200.5 34.12C201.3 34.6133 201.92 35.2667 202.36 36.08C202.8 36.8933 203.02 37.7667 203.02 38.7C203.02 38.86 203.013 39.0133 203 39.16C202.986 39.2933 202.973 39.4067 202.96 39.5H194.58C194.62 40.1133 194.786 40.6533 195.08 41.12C195.386 41.5733 195.773 41.9333 196.24 42.2C196.706 42.4533 197.206 42.58 197.74 42.58C198.326 42.58 198.88 42.4333 199.4 42.14C199.933 41.8467 200.293 41.46 200.48 40.98L202.36 41.52C202.133 42.0267 201.786 42.4867 201.32 42.9C200.866 43.3 200.326 43.62 199.7 43.86C199.073 44.0867 198.393 44.2 197.66 44.2ZM194.52 38.04H200.84C200.8 37.44 200.626 36.9133 200.32 36.46C200.026 35.9933 199.646 35.6333 199.18 35.38C198.726 35.1133 198.22 34.98 197.66 34.98C197.113 34.98 196.606 35.1133 196.14 35.38C195.686 35.6333 195.313 35.9933 195.02 36.46C194.726 36.9133 194.56 37.44 194.52 38.04ZM215.936 44.1C214.909 44.1 213.982 43.9 213.156 43.5C212.329 43.0867 211.616 42.54 211.016 41.86C210.416 41.18 209.949 40.4133 209.616 39.56C209.296 38.6933 209.136 37.8067 209.136 36.9C209.136 35.9533 209.309 35.0533 209.656 34.2C210.002 33.3333 210.482 32.5667 211.096 31.9C211.709 31.22 212.429 30.6867 213.256 30.3C214.096 29.9 215.002 29.7 215.976 29.7C216.989 29.7 217.909 29.9067 218.736 30.32C219.576 30.7333 220.289 31.2867 220.876 31.98C221.476 32.6733 221.936 33.4467 222.256 34.3C222.589 35.1533 222.756 36.0267 222.756 36.92C222.756 37.8667 222.582 38.7733 222.236 39.64C221.902 40.4933 221.429 41.26 220.816 41.94C220.202 42.6067 219.476 43.1333 218.636 43.52C217.809 43.9067 216.909 44.1 215.936 44.1ZM215.956 42.08C216.676 42.08 217.316 41.9333 217.876 41.64C218.436 41.3467 218.902 40.9533 219.276 40.46C219.662 39.9533 219.956 39.3933 220.156 38.78C220.356 38.1533 220.456 37.5267 220.456 36.9C220.456 36.2333 220.349 35.5867 220.136 34.96C219.936 34.3333 219.636 33.78 219.236 33.3C218.836 32.82 218.356 32.44 217.796 32.16C217.249 31.8667 216.636 31.72 215.956 31.72C215.236 31.72 214.596 31.8667 214.036 32.16C213.476 32.4533 213.002 32.8533 212.616 33.36C212.229 33.8533 211.929 34.4067 211.716 35.02C211.516 35.6333 211.416 36.26 211.416 36.9C211.416 37.5667 211.522 38.2133 211.736 38.84C211.949 39.4667 212.249 40.02 212.636 40.5C213.036 40.98 213.516 41.3667 214.076 41.66C214.636 41.94 215.262 42.08 215.956 42.08ZM216.236 39.06H218.396L222.716 44H220.556L216.236 39.06ZM225.036 44V29.8H231.216C231.856 29.8 232.442 29.9333 232.976 30.2C233.509 30.4667 233.969 30.82 234.356 31.26C234.756 31.7 235.062 32.1933 235.276 32.74C235.502 33.2867 235.616 33.8467 235.616 34.42C235.616 35.0467 235.502 35.6467 235.276 36.22C235.049 36.7933 234.722 37.2867 234.296 37.7C233.882 38.1133 233.396 38.4133 232.836 38.6L236.176 44H233.656L230.576 39.06H227.276V44H225.036ZM227.276 37.08H231.196C231.609 37.08 231.976 36.96 232.296 36.72C232.616 36.48 232.869 36.16 233.056 35.76C233.242 35.3467 233.336 34.9 233.336 34.42C233.336 33.9267 233.229 33.4867 233.016 33.1C232.802 32.7 232.522 32.38 232.176 32.14C231.842 31.9 231.476 31.78 231.076 31.78H227.276V37.08ZM237.878 39.52V37.54H243.858V39.52H237.878ZM246.396 44V33.54H248.576V37.68H249.616L252.696 33.54H255.136L251.316 38.6L255.576 44H253.036L249.596 39.66H248.576V44H246.396ZM261.409 44.2C260.582 44.2 259.842 44.06 259.189 43.78C258.535 43.4867 257.969 43.0867 257.489 42.58C257.022 42.0733 256.662 41.5 256.409 40.86C256.155 40.2067 256.029 39.5133 256.029 38.78C256.029 38.0467 256.155 37.3533 256.409 36.7C256.662 36.0467 257.022 35.4733 257.489 34.98C257.969 34.4733 258.535 34.08 259.189 33.8C259.855 33.5067 260.595 33.36 261.409 33.36C262.222 33.36 262.955 33.5067 263.609 33.8C264.275 34.08 264.842 34.4733 265.309 34.98C265.789 35.4733 266.155 36.0467 266.409 36.7C266.662 37.3533 266.789 38.0467 266.789 38.78C266.789 39.5133 266.662 40.2067 266.409 40.86C266.155 41.5 265.789 42.0733 265.309 42.58C264.842 43.0867 264.275 43.4867 263.609 43.78C262.955 44.06 262.222 44.2 261.409 44.2ZM258.289 38.8C258.289 39.4667 258.429 40.0667 258.709 40.6C258.989 41.1333 259.362 41.5533 259.829 41.86C260.295 42.1667 260.822 42.32 261.409 42.32C261.982 42.32 262.502 42.1667 262.969 41.86C263.449 41.54 263.829 41.1133 264.109 40.58C264.389 40.0333 264.529 39.4333 264.529 38.78C264.529 38.1133 264.389 37.5133 264.109 36.98C263.829 36.4467 263.449 36.0267 262.969 35.72C262.502 35.4 261.982 35.24 261.409 35.24C260.822 35.24 260.295 35.4 259.829 35.72C259.362 36.04 258.989 36.4667 258.709 37C258.429 37.52 258.289 38.12 258.289 38.8ZM267.74 46.5V42.06H267.98C268.26 42.06 268.52 41.98 268.76 41.82C269 41.66 269.213 41.3867 269.4 41C269.587 40.6 269.74 40.0533 269.86 39.36C269.98 38.6533 270.053 37.7667 270.08 36.7L270.2 33.54H277.66V42.06H279.1V46.5H277.16V44H269.66V46.5H267.74ZM270.88 42.06H275.46V35.44H272.14L272.08 36.9C272.04 37.9133 271.967 38.7667 271.86 39.46C271.767 40.1533 271.633 40.7067 271.46 41.12C271.3 41.5333 271.107 41.8467 270.88 42.06Z" fill="white"/>
<path d="M266.52 228.921V240.041V251.159V262.279V273.399H277.64V262.279V251.159V240.041V228.921V217.801H266.52V228.921Z" fill="white"/>
<path d="M266.519 84.3638H255.4H244.28H233.16H222.042H210.922V95.4838V106.604V117.724V128.844V139.961V151.081H222.042H233.16H244.28H255.4H266.519H277.639V139.961V128.844V117.724V106.604V95.4838V84.3638H266.519ZM266.519 106.604V117.724V128.844V139.961H255.4H244.28H233.16H222.042V128.844V117.724V106.604V95.4836H233.16H244.28H255.4H266.519V106.604Z" fill="white"/>
<path d="M255.399 284.519H244.279V295.639H255.399H266.519H277.639V284.519H266.519H255.399Z" fill="white"/>
<path d="M255.399 162.202H244.279H233.159V173.322H244.279H255.399H266.519V184.442V195.562V206.682H277.639V195.562V184.442V173.322V162.202H266.519H255.399Z" fill="white"/>
<path d="M255.399 273.399V262.279V251.159V240.041V228.921V217.801H244.279H233.159H222.042H210.922H199.802V228.921V240.041V251.159V262.279V273.399H210.922H222.042H233.159H244.279H255.399ZM233.159 262.279H222.042H210.922V251.159V240.041V228.921H222.042H233.159H244.279V240.041V251.159V262.279H233.159Z" fill="white"/>
<path d="M233.159 106.604V117.724V128.844H244.279H255.399V117.724V106.604H244.279H233.159Z" fill="white"/>
<path d="M233.16 240.041H222.042V251.159H233.16V240.041Z" fill="white"/>
<path d="M210.922 284.519V295.639H222.042H233.16V284.519H222.042H210.922Z" fill="white"/>
<path d="M222.042 206.681H233.16H244.28H255.4V195.561H244.28V184.441H233.16V195.561H222.042H210.922V206.681H222.042Z" fill="white"/>
<path d="M188.684 184.442V195.562V206.682V217.802H199.803V206.682V195.562H210.923V184.442H222.043V173.322V162.202H210.923V173.322H199.803V184.442H188.684Z" fill="white"/>
<path d="M188.681 262.279V251.159H177.561V262.279H166.441V251.159H155.321V262.279H144.201V273.399V284.519V295.639H155.321H166.441V284.519H155.321V273.399H166.441V284.519H177.561H188.681V295.639H199.801V284.519V273.399H188.681V262.279Z" fill="white"/>
<path d="M177.562 184.441H188.682V173.321H199.802V162.201V151.081V139.961H188.682V128.844H199.802V117.724V106.604V95.4838V84.3638H188.682H177.562H166.442H155.322V95.4838H144.202V106.604V117.724V128.844V139.961H155.322V128.844V117.724V106.604H166.442V95.4838H177.562V106.604V117.724H166.442V128.844V139.961H177.562V151.081H188.682V162.201H177.562V151.081H166.442H155.322H144.202H133.082V162.201H144.202H155.322H166.442V173.321H155.322H144.202H133.082H121.962V184.441V195.561V206.681H110.844H99.7242H88.6042H77.4844H66.3643V217.801H77.4844H88.6042H99.7242H110.844H121.962H133.082V206.681V195.561H144.202H155.322H166.442V184.441H177.562Z" fill="white"/>
<path d="M166.441 240.04H177.561H188.681V228.921V217.801H177.561V206.681V195.561H166.441V206.681V217.801V228.921H155.321V217.801V206.681H144.201V217.801V228.921V240.04V251.158H155.321V240.04H166.441Z" fill="white"/>
<path d="M133.082 128.844V117.724V106.604V95.4838V84.3638H121.962H110.844H99.7241H88.6041H77.4843H66.3643V95.4838V106.604V117.724V128.844V139.961V151.081H77.4843H88.6041H99.7241H110.844H121.962H133.082V139.961V128.844ZM110.844 139.961H99.7242H88.6042H77.4844V128.844V117.724V106.604V95.4838H88.6042H99.7242H110.844H121.962V106.604V117.724V128.844V139.961H110.844Z" fill="white"/>
<path d="M110.844 228.921H99.7241H88.6041H77.4843H66.3643V240.041V251.159V262.279V273.399V284.519V295.639H77.4843H88.6041H99.7241H110.844H121.962H133.082V284.519V273.399V262.279V251.159V240.041V228.921H121.962H110.844ZM121.962 251.159V262.279V273.399V284.519H110.844H99.7239H88.6039H77.4841V273.399V262.279V251.159V240.041H88.6039H99.7239H110.844H121.962V251.159Z" fill="white"/>
<path d="M121.962 162.202H110.845V173.322H121.962V162.202Z" fill="white"/>
<path d="M88.6035 251.159V262.279V273.399H99.7235H110.844V262.279V251.159H99.7235H88.6035Z" fill="white"/>
<path d="M88.6035 106.604V117.724V128.844H99.7235H110.844V117.724V106.604H99.7235H88.6035Z" fill="white"/>
<path d="M88.6042 195.562H99.7242V184.442V173.322V162.202H88.6042H77.4844V173.322H66.3643V184.442V195.562H77.4844H88.6042Z" fill="white"/>
<path d="M271.441 310H72.5581C68.0437 310 63.7592 308.564 60.168 305.848C54.9772 301.923 52 295.943 52 289.442V90.5583C52 85.6631 53.7495 80.9209 56.9262 77.2053C60.8409 72.6262 66.5383 70 72.5581 70H271.441C276.843 70 281.946 72.0788 285.808 75.8531C289.801 79.7545 292 84.9769 292 90.5581V289.442C292 295.222 289.545 300.769 285.265 304.659C281.476 308.103 276.566 310 271.441 310ZM72.5581 74.3483C67.8116 74.3483 63.3187 76.4194 60.2317 80.0308C57.7277 82.9597 56.3484 86.6983 56.3484 90.5583V289.442C56.3484 294.568 58.6967 299.283 62.7906 302.38C65.6208 304.52 68.9984 305.652 72.5581 305.652H271.441C275.482 305.652 279.353 304.156 282.34 301.441C285.716 298.373 287.652 294 287.652 289.442V90.5583C287.652 86.1575 285.918 82.0395 282.77 78.9633C279.724 75.9872 275.701 74.3483 271.441 74.3483H72.5581Z" fill="white"/>
</svg>
