<svg width="88" height="21" viewBox="0 0 88 21" fill="none" xmlns="http://www.w3.org/2000/svg">
<g clip-path="url(#clip0_366_3151)">
<path d="M12.5813 5.0998L15.4 7.91855C15.5187 8.0373 15.5187 8.23105 15.4 8.3498L8.575 15.1748L5.675 15.4967C5.2875 15.5404 4.95938 15.2123 5.00313 14.8248L5.325 11.9248L12.15 5.0998C12.2687 4.98105 12.4625 4.98105 12.5813 5.0998ZM17.6437 4.38418L16.1187 2.85918C15.6437 2.38418 14.8719 2.38418 14.3938 2.85918L13.2875 3.96543C13.1688 4.08418 13.1688 4.27793 13.2875 4.39668L16.1063 7.21543C16.225 7.33418 16.4188 7.33418 16.5375 7.21543L17.6437 6.10918C18.1187 5.63105 18.1187 4.85918 17.6437 4.38418ZM12 13.3186V16.4998H2V6.4998H9.18125C9.28125 6.4998 9.375 6.45918 9.44687 6.39043L10.6969 5.14043C10.9344 4.90293 10.7656 4.4998 10.4312 4.4998H1.5C0.671875 4.4998 0 5.17168 0 5.9998V16.9998C0 17.8279 0.671875 18.4998 1.5 18.4998H12.5C13.3281 18.4998 14 17.8279 14 16.9998V12.0686C14 11.7342 13.5969 11.5686 13.3594 11.8029L12.1094 13.0529C12.0406 13.1248 12 13.2186 12 13.3186Z" fill="#A1F69E"/>
</g>
<path d="M23.26 15V5.06H24.52V13.25L30.274 5.06H31.45V15H30.19V6.964L24.506 15H23.26ZM35.9811 15.098C35.2717 15.098 34.6697 14.9673 34.1751 14.706C33.6897 14.4353 33.3164 14.062 33.0551 13.586L34.0631 13.138C34.2311 13.4367 34.4691 13.67 34.7771 13.838C35.0944 14.006 35.4771 14.09 35.9251 14.09C36.4571 14.09 36.8771 13.9733 37.1851 13.74C37.4931 13.5067 37.6471 13.194 37.6471 12.802C37.6471 12.4473 37.5211 12.1627 37.2691 11.948C37.0264 11.724 36.6811 11.6073 36.2331 11.598H35.4911V10.786H36.2751C36.4711 10.786 36.6437 10.7393 36.7931 10.646C36.9517 10.5433 37.0731 10.408 37.1571 10.24C37.2504 10.072 37.2971 9.88533 37.2971 9.68C37.2971 9.35333 37.1804 9.092 36.9471 8.896C36.7137 8.69067 36.3637 8.588 35.8971 8.588C35.5144 8.588 35.1924 8.66267 34.9311 8.812C34.6791 8.96133 34.4737 9.18533 34.3151 9.484L33.3771 8.98C33.6104 8.54133 33.9464 8.20067 34.3851 7.958C34.8331 7.706 35.3557 7.58 35.9531 7.58C36.4291 7.58 36.8491 7.65933 37.2131 7.818C37.5864 7.96733 37.8757 8.18667 38.0811 8.476C38.2957 8.76533 38.4031 9.11533 38.4031 9.526C38.4031 9.87133 38.3191 10.1933 38.1511 10.492C37.9924 10.7813 37.7544 11.0007 37.4371 11.15C37.8757 11.2807 38.2117 11.5093 38.4451 11.836C38.6784 12.1533 38.7951 12.5313 38.7951 12.97C38.7951 13.418 38.6737 13.8007 38.4311 14.118C38.1884 14.4353 37.8571 14.678 37.4371 14.846C37.0171 15.014 36.5317 15.098 35.9811 15.098ZM40.2613 15V7.692H41.5353L44.2513 12.48L46.9813 7.692H48.2273V15H47.0513V9.47L44.6433 13.698H43.8593L41.4373 9.47V15H40.2613ZM53.4487 15.14C52.898 15.14 52.394 15.042 51.9367 14.846C51.4887 14.6407 51.0967 14.3653 50.7607 14.02C50.434 13.6653 50.1774 13.2593 49.9907 12.802C49.8134 12.3447 49.7247 11.8593 49.7247 11.346C49.7247 10.6553 49.8834 10.0253 50.2007 9.456C50.518 8.88667 50.9567 8.42933 51.5167 8.084C52.086 7.73867 52.7347 7.566 53.4627 7.566C54.2 7.566 54.8394 7.74333 55.3807 8.098C55.9314 8.44333 56.356 8.90067 56.6547 9.47C56.9627 10.03 57.1167 10.6367 57.1167 11.29C57.1167 11.3833 57.112 11.4767 57.1027 11.57C57.1027 11.654 57.098 11.7193 57.0887 11.766H51.0267C51.064 12.242 51.1947 12.6667 51.4187 13.04C51.652 13.404 51.9507 13.6933 52.3147 13.908C52.6787 14.1133 53.0707 14.216 53.4907 14.216C53.9387 14.216 54.3587 14.104 54.7507 13.88C55.152 13.656 55.4274 13.362 55.5767 12.998L56.6407 13.292C56.482 13.6467 56.244 13.964 55.9267 14.244C55.6187 14.524 55.25 14.7433 54.8207 14.902C54.4007 15.0607 53.9434 15.14 53.4487 15.14ZM50.9847 10.912H55.9687C55.9314 10.436 55.796 10.016 55.5627 9.652C55.3294 9.288 55.0307 9.00333 54.6667 8.798C54.3027 8.59267 53.9014 8.49 53.4627 8.49C53.0334 8.49 52.6367 8.59267 52.2727 8.798C51.9087 9.00333 51.61 9.288 51.3767 9.652C51.1527 10.016 51.022 10.436 50.9847 10.912ZM58.4722 15V7.692H59.7042V10.716H63.5122V7.692H64.7442V15H63.5122V11.808H59.7042V15H58.4722ZM66.7163 15V7.706H67.9483V13.348L72.0363 7.692H73.1563V15H71.9243V9.47L67.8923 15H66.7163ZM76.9029 15V8.784H74.3829V7.692H80.6549V8.784H78.1349V15H76.9029ZM81.8784 15V7.692H83.1104V10.184H84.9304C85.7891 10.184 86.4378 10.4033 86.8764 10.842C87.3244 11.2713 87.5484 11.836 87.5484 12.536C87.5484 13.0027 87.4504 13.4227 87.2544 13.796C87.0678 14.1693 86.7878 14.4633 86.4144 14.678C86.0411 14.8927 85.5744 15 85.0144 15H81.8784ZM83.1104 14.034H84.8464C85.1918 14.034 85.4671 13.9687 85.6724 13.838C85.8871 13.698 86.0458 13.516 86.1484 13.292C86.2511 13.068 86.3024 12.8253 86.3024 12.564C86.3024 12.312 86.2558 12.0787 86.1624 11.864C86.0691 11.6493 85.9151 11.4767 85.7004 11.346C85.4858 11.2153 85.1918 11.15 84.8184 11.15H83.1104V14.034Z" fill="#A1F69E"/>
<defs>
<clipPath id="clip0_366_3151">
<rect width="18" height="16" fill="white" transform="translate(0 2.5)"/>
</clipPath>
</defs>
</svg>
