<svg width="66" height="62" viewBox="0 0 66 62" fill="none" xmlns="http://www.w3.org/2000/svg">
<g clip-path="url(#clip0_430_4081)">
<path d="M58.2087 32.9401C62.5048 32.9401 66 29.6946 66 25.7054V22.2498H61.0623C59.5468 22.2498 58.0812 22.6606 56.8252 23.4202C56.6856 22.7045 56.5094 21.9961 56.2953 21.2963L57.7828 20.5015C59.5851 19.5353 60.8742 17.9752 61.4129 16.1084C61.9515 14.2418 61.675 12.2922 60.6345 10.6187L58.7739 7.62598L54.4976 9.91848C52.8102 10.8231 51.5579 12.2757 50.9717 14.0087C50.3943 15.7145 50.5094 17.5456 51.2955 19.1679L52.1724 21.1069C52.9522 23.1392 53.3481 25.2759 53.3481 27.4588C53.3481 37.8772 44.2202 46.3531 33.0005 46.3531C21.7807 46.3531 12.6528 37.8772 12.6528 27.4588C12.6528 25.2698 13.0483 23.1332 13.8275 21.1074L14.7045 19.1679C15.4906 17.5456 15.6057 15.7147 15.0285 14.0087C14.4421 12.2757 13.1898 10.8231 11.5024 9.91848L7.22607 7.62598L5.36551 10.6187C4.32489 12.2922 4.04853 14.2419 4.58708 16.1086C5.12563 17.9752 6.4149 19.5353 8.21951 20.5027L9.7042 21.2961C9.49009 21.9952 9.31389 22.7038 9.17442 23.42C7.91853 22.6605 6.45305 22.2498 4.93769 22.2498H0V25.7054C0 29.6947 3.49516 32.9401 7.79118 32.9401H7.79388L9.5142 32.9378C9.70639 33.6479 9.93519 34.3447 10.1984 35.0263C10.0548 35.0187 9.91044 35.0139 9.7644 35.0139C8.40642 35.0139 7.06765 35.3467 5.89259 35.9767L1.61642 38.2692L3.47711 41.2618C4.86473 43.4936 7.45229 44.88 10.23 44.88C11.5911 44.88 12.9363 44.5445 14.1224 43.9086L15.6236 43.1011C16.1703 43.6245 16.744 44.1233 17.3428 44.5957C16.0137 45.2202 14.8815 46.1915 14.1174 47.4205L11.6485 51.3911L14.8713 53.1189C16.0553 53.7536 17.4005 54.0891 18.7616 54.0891C21.5393 54.0891 24.1268 52.7027 25.5157 50.4686L26.3718 49.0874C28.4792 49.645 30.7029 49.9438 33.0004 49.9438C35.2975 49.9438 37.5211 49.6451 39.6282 49.0876L40.4855 50.4709C41.8732 52.7027 44.4606 54.0891 47.2384 54.0891H47.2387C48.5996 54.0891 49.9448 53.7536 51.1287 53.1189L54.3515 51.3911L51.8826 47.4205C51.1186 46.1916 49.9867 45.2204 48.6578 44.596C49.2565 44.1235 49.8304 43.6247 50.377 43.1012L51.8799 43.9099C53.0637 44.5445 54.4088 44.88 55.77 44.88H55.7704C58.5478 44.88 61.1353 43.4936 62.523 41.2618L64.3837 38.2692L60.1075 35.9768C58.9326 35.3469 57.5937 35.014 56.2359 35.014C56.0907 35.014 55.9464 35.0188 55.8026 35.0263C56.0658 34.3447 56.2945 33.6479 56.4867 32.9379L58.2087 32.9401Z" fill="#A1F69E"/>
<path d="M38.7777 22.8462L32.9995 18.5537L27.2213 22.8462L19.1641 19.6622V35.0978H46.8349V19.6622L38.7777 22.8462Z" fill="#FFDA2D"/>
<path d="M30.2598 12.5967L32.9938 10.058L35.7279 12.5968L32.9939 15.1356L30.2598 12.5967Z" fill="#F9F900"/>
<path d="M37.9941 14.9902L40.7281 12.4515L43.4623 14.9904L40.7283 17.5291L37.9941 14.9902Z" fill="#F9F900"/>
<path d="M22.5254 14.9897L25.2594 12.451L27.9936 14.9899L25.2596 17.5286L22.5254 14.9897Z" fill="#F9F900"/>
<path d="M37.9941 14.9902L40.7281 12.4515L43.4623 14.9904L40.7283 17.5291L37.9941 14.9902Z" fill="#FFDA2D"/>
<path d="M58.2086 32.9401C62.5047 32.9401 65.9999 29.6946 65.9999 25.7054V22.2498H61.0622C59.5467 22.2498 58.0811 22.6606 56.8251 23.4202C56.6855 22.7045 56.5093 21.9961 56.2952 21.2963L57.7827 20.5015C59.585 19.5353 60.8741 17.9752 61.4128 16.1084C61.9513 14.2418 61.6749 12.2922 60.6344 10.6187L58.7738 7.62598L54.4975 9.91848C52.8101 10.8231 51.5578 12.2757 50.9715 14.0087C50.3942 15.7145 50.5093 17.5456 51.2953 19.1679L52.1723 21.1069C52.9521 23.1392 53.348 25.2759 53.348 27.4588C53.348 37.8772 44.2201 46.3531 33.0004 46.3531H33V49.9439H33.0004C35.2975 49.9439 37.5211 49.6453 39.6282 49.0877L40.4856 50.471C41.8732 52.7028 44.4606 54.0893 47.2384 54.0893H47.2387C48.5996 54.0893 49.9448 53.7538 51.1287 53.119L54.3515 51.3912L51.8826 47.4206C51.1186 46.1917 49.9867 45.2205 48.6578 44.5961C49.2565 44.1237 49.8304 43.6248 50.377 43.1014L51.8799 43.91C53.0637 44.5446 54.4088 44.8801 55.77 44.8801H55.7704C58.5478 44.8801 61.1353 43.4937 62.523 41.2619L64.3837 38.2693L60.1075 35.9769C58.9326 35.347 57.5937 35.0141 56.2359 35.0141C56.0907 35.0141 55.9464 35.0189 55.8026 35.0264C56.0658 34.3448 56.2945 33.648 56.4867 32.938L58.2086 32.9401Z" fill="#019A5A"/>
<path d="M46.8354 19.6622L38.7781 22.8462L33 18.5537V35.0978H46.8354V19.6622Z" fill="#FEBF01"/>
<path d="M35.7344 12.5947L33 10.0557V15.1338L35.7344 12.5947Z" fill="#FFDA2D"/>
</g>
<defs>
<clipPath id="clip0_430_4081">
<rect width="66" height="61.2857" fill="white" transform="translate(0 0.214355)"/>
</clipPath>
</defs>
</svg>
