<svg width="80" height="80" viewBox="0 0 80 80" fill="none" xmlns="http://www.w3.org/2000/svg">
<g clip-path="url(#clip0_418_4063)">
<path d="M25.3198 19.7061C25.4361 19.8225 25.5742 19.9147 25.7262 19.9777C25.8781 20.0406 26.041 20.073 26.2055 20.073C26.37 20.073 26.5329 20.0406 26.6848 19.9777C26.8368 19.9147 26.9749 19.8225 27.0912 19.7061L28.7787 18.0186L30.4662 19.7061C30.5825 19.8225 30.7206 19.9147 30.8725 19.9777C31.0245 20.0406 31.1874 20.073 31.3519 20.073C31.5163 20.073 31.6792 20.0407 31.8312 19.9777C31.9831 19.9148 32.1212 19.8225 32.2375 19.7062C32.3538 19.5899 32.4461 19.4518 32.5091 19.2999C32.572 19.1479 32.6044 18.9851 32.6044 18.8206C32.6044 18.6561 32.572 18.4932 32.5091 18.3413C32.4462 18.1893 32.3539 18.0512 32.2376 17.9349L30.5501 16.2474L32.2376 14.5599C32.3539 14.4435 32.4461 14.3054 32.509 14.1534C32.5719 14.0014 32.6042 13.8385 32.6041 13.674C32.6041 13.5095 32.5716 13.3466 32.5086 13.1947C32.4456 13.0427 32.3533 12.9047 32.2369 12.7884C32.1205 12.6721 31.9824 12.5799 31.8304 12.517C31.6784 12.4541 31.5155 12.4218 31.351 12.4219C31.1865 12.4219 31.0237 12.4544 30.8717 12.5174C30.7197 12.5804 30.5817 12.6727 30.4654 12.7891L28.7779 14.4766L27.0904 12.7891C26.9741 12.6728 26.836 12.5805 26.6841 12.5176C26.5321 12.4546 26.3692 12.4222 26.2047 12.4222C26.0402 12.4222 25.8774 12.4546 25.7254 12.5176C25.5734 12.5805 25.4353 12.6728 25.319 12.7891C25.2027 12.9054 25.1104 13.0435 25.0475 13.1955C24.9845 13.3474 24.9521 13.5103 24.9521 13.6748C24.9521 13.8393 24.9845 14.0022 25.0475 14.1542C25.1104 14.3061 25.2027 14.4442 25.319 14.5605L27.0065 16.248L25.319 17.9355C25.0844 18.1705 24.9528 18.489 24.9529 18.821C24.953 19.153 25.085 19.4714 25.3198 19.7061Z" fill="#A1F69E"/>
<path d="M47.7632 19.7061C47.8795 19.8225 48.0175 19.9147 48.1695 19.9777C48.3215 20.0406 48.4844 20.073 48.6489 20.073C48.8134 20.073 48.9762 20.0406 49.1282 19.9777C49.2802 19.9147 49.4183 19.8225 49.5346 19.7061L51.2221 18.0186L52.9096 19.7061C53.1444 19.941 53.463 20.073 53.7952 20.073C54.1274 20.0731 54.446 19.9411 54.6809 19.7062C54.9158 19.4713 55.0478 19.1528 55.0478 18.8206C55.0478 18.4884 54.9159 18.1698 54.681 17.9349L52.9935 16.2474L54.681 14.5599C54.7972 14.4435 54.8895 14.3054 54.9523 14.1534C55.0152 14.0014 55.0476 13.8385 55.0475 13.674C55.0474 13.5095 55.015 13.3466 54.952 13.1947C54.889 13.0427 54.7966 12.9047 54.6803 12.7884C54.5639 12.6721 54.4258 12.5799 54.2738 12.517C54.1218 12.4541 53.9589 12.4218 53.7944 12.4219C53.6299 12.4219 53.467 12.4544 53.3151 12.5174C53.1631 12.5804 53.0251 12.6727 52.9088 12.7891L51.2213 14.4766L49.5338 12.7891C49.4175 12.6728 49.2794 12.5805 49.1274 12.5176C48.9754 12.4546 48.8126 12.4222 48.6481 12.4222C48.4836 12.4222 48.3207 12.4546 48.1687 12.5176C48.0168 12.5805 47.8787 12.6728 47.7624 12.7891C47.6461 12.9054 47.5538 13.0435 47.4909 13.1955C47.4279 13.3474 47.3955 13.5103 47.3955 13.6748C47.3955 13.8393 47.4279 14.0022 47.4909 14.1542C47.5538 14.3061 47.6461 14.4442 47.7624 14.5605L49.4499 16.248L47.7624 17.9355C47.5278 18.1705 47.3961 18.489 47.3963 18.821C47.3964 19.153 47.5284 19.4714 47.7632 19.7061Z" fill="#A1F69E"/>
<path d="M23.4234 31.4949L26.4847 29.3624C26.7261 29.1953 27.0128 29.1057 27.3065 29.1057C27.6001 29.1057 27.8868 29.1953 28.1283 29.3624L31.1878 31.495C31.8499 31.9536 32.636 32.1992 33.4414 32.1992C34.2467 32.1992 35.0329 31.9536 35.695 31.495L38.7556 29.3625C38.997 29.1953 39.2837 29.1057 39.5773 29.1057C39.871 29.1057 40.1576 29.1953 40.399 29.3625L43.46 31.495C44.122 31.9535 44.9082 32.1991 45.7135 32.1991C46.5188 32.1991 47.3049 31.9535 47.967 31.495L51.0278 29.3624C51.2692 29.1951 51.5558 29.1055 51.8495 29.1055C52.1432 29.1055 52.4298 29.1951 52.6712 29.3624L56.5765 32.0832C56.7115 32.1772 56.8636 32.2437 57.0243 32.2789C57.1849 32.3141 57.3509 32.3174 57.5128 32.2884C57.6747 32.2595 57.8294 32.1989 57.9679 32.1103C58.1064 32.0216 58.226 31.9065 58.3201 31.7715C58.4141 31.6366 58.4806 31.4844 58.5158 31.3238C58.551 31.1631 58.5543 30.9971 58.5253 30.8352C58.4964 30.6733 58.4358 30.5187 58.3472 30.3802C58.2585 30.2417 58.1434 30.122 58.0084 30.028L54.1031 27.3071C53.4411 26.8484 52.6549 26.6026 51.8495 26.6026C51.0441 26.6026 50.2579 26.8484 49.5959 27.3071L46.5353 29.4396C46.2939 29.6068 46.0072 29.6964 45.7135 29.6964C45.4198 29.6964 45.1331 29.6068 44.8917 29.4396L41.8315 27.3072C41.1695 26.8485 40.3833 26.6028 39.5779 26.6028C38.7726 26.6028 37.9863 26.8485 37.3243 27.3072L34.2639 29.4396C34.0224 29.6067 33.7357 29.6963 33.442 29.6963C33.1483 29.6963 32.8616 29.6067 32.6201 29.4396L29.5595 27.3071C28.8975 26.8483 28.1113 26.6025 27.3058 26.6025C26.5004 26.6025 25.7142 26.8483 25.0522 27.3071L21.9915 29.4396C21.719 29.6294 21.5331 29.9198 21.4746 30.2468C21.4162 30.5737 21.49 30.9105 21.6799 31.1831C21.8698 31.4556 22.1601 31.6415 22.4871 31.7C22.8141 31.7584 23.1509 31.6846 23.4234 31.4947V31.4949Z" fill="#A1F69E"/>
<path d="M80 30.2316V30.2188C80 30.205 79.9984 30.1916 79.998 30.178C80.0068 29.9667 79.9619 29.7567 79.8674 29.5676C79.773 29.3784 79.6321 29.2163 79.458 29.0964L71.7031 23.7556V4.39922C71.7016 3.23258 71.2374 2.11418 70.4123 1.28943C69.5871 0.464679 68.4685 0.000950869 67.3019 0L12.6981 0C11.5315 0.000950869 10.4129 0.464679 9.58774 1.28943C8.76261 2.11418 8.29836 3.23258 8.29688 4.39922V23.7556L0.542031 29.0969C0.367903 29.2168 0.22703 29.3789 0.132591 29.568C0.0381517 29.7572 -0.00676878 29.9672 0.00203125 30.1784C0.00203125 30.192 0 30.2055 0 30.2192V74.2011C0.00206815 75.7388 0.613987 77.2129 1.70152 78.3C2.78905 79.3871 4.26338 79.9985 5.80109 80H74.1989C75.7366 79.9985 77.211 79.3871 78.2985 78.3C79.386 77.2129 79.9979 75.7388 80 74.2011V30.2316ZM76.625 30.187L71.7031 33.5769V26.7969L76.625 30.187ZM12.6981 2.50484H67.3019C67.8043 2.50522 68.2861 2.70488 68.6415 3.06002C68.9969 3.41516 69.1969 3.89678 69.1977 4.39922V34.8619C69.1978 34.9964 69.2196 35.13 69.2623 35.2575L45.2119 51.8216C43.6762 52.8706 41.8598 53.4318 40 53.4318C38.1402 53.4318 36.3238 52.8706 34.7881 51.8216L10.8023 35.302V4.39922C10.8031 3.89678 11.0031 3.41516 11.3585 3.06002C11.7139 2.70488 12.1957 2.50522 12.6981 2.50484ZM8.29688 33.5769L3.375 30.1875L8.29688 26.7969V33.5769ZM5.80109 77.4952C5.57069 77.4949 5.34094 77.4705 5.11563 77.4223L24.1977 55.9027C24.418 55.6541 24.5307 55.3283 24.5108 54.9967C24.4909 54.6651 24.3401 54.3551 24.0916 54.1347C23.9685 54.0256 23.8252 53.9418 23.6697 53.888C23.5143 53.8343 23.3498 53.8117 23.1856 53.8216C22.854 53.8415 22.544 53.9923 22.3236 54.2408L3.03766 75.9906C2.68995 75.4585 2.5048 74.8367 2.50484 74.2011V32.6291L33.3672 53.8845C35.3215 55.2196 37.6332 55.9339 40 55.9339C42.3668 55.9339 44.6785 55.2196 46.6328 53.8845L77.4952 32.6291V74.2011C77.4952 74.8367 77.31 75.4585 76.9623 75.9906L57.6764 54.2406C57.5673 54.1176 57.435 54.0172 57.2871 53.9453C57.1392 53.8734 56.9786 53.8313 56.8144 53.8214C56.6502 53.8116 56.4857 53.8341 56.3303 53.8879C56.1748 53.9416 56.0315 54.0254 55.9084 54.1345C55.7854 54.2437 55.685 54.3759 55.6131 54.5238C55.5412 54.6717 55.4991 54.8324 55.4892 54.9965C55.4794 55.1607 55.502 55.3252 55.5557 55.4807C55.6094 55.6361 55.6932 55.7794 55.8023 55.9025L74.8844 77.4219C74.6591 77.47 74.4293 77.4945 74.1989 77.4947L5.80109 77.4952Z" fill="#A1F69E"/>
</g>
<defs>
<clipPath id="clip0_418_4063">
<rect width="80" height="80" fill="white"/>
</clipPath>
</defs>
</svg>
