<svg width="115" height="67" viewBox="0 0 115 67" fill="none" xmlns="http://www.w3.org/2000/svg">
<g clip-path="url(#clip0_181_1899)">
<rect width="161" height="24" transform="translate(-33 58.5) rotate(-30)" fill="#233636"/>
<path d="M10.7721 51.7032L6.51213 44.3246L10.9081 41.7866L11.5021 42.8155L8.27007 44.6815L11.9361 51.0312L10.7721 51.7032ZM15.7104 48.9214L15.1224 47.9029C15.2956 47.8029 15.4275 47.6713 15.518 47.5082C15.6046 47.3381 15.6418 47.1226 15.6298 46.8617C15.6137 46.5939 15.5308 46.2584 15.3812 45.8552C15.2315 45.452 15.0031 44.9603 14.6959 44.3802L13.8206 42.6962L17.697 40.4582L20.835 45.8934L19.6918 46.5534L17.1358 42.1263L15.4107 43.1223L15.8159 43.8721C16.2082 44.6156 16.4924 45.2598 16.6685 45.8048C16.8405 46.3428 16.915 46.8079 16.892 47.1999C16.8718 47.5811 16.7592 47.914 16.5541 48.1987C16.3519 48.4725 16.0706 48.7134 15.7104 48.9214ZM20.8932 43.7398C20.6932 43.3933 20.6162 43.036 20.6622 42.6676C20.7111 42.2883 20.8688 41.9294 21.1352 41.5909C21.3976 41.2454 21.7574 40.9406 22.2147 40.6766C22.4572 40.5366 22.7131 40.4119 22.9825 40.3026C23.2589 40.1892 23.516 40.1147 23.754 40.0789L23.556 39.7359C23.336 39.3549 23.0497 39.123 22.6971 39.0402C22.3445 38.9574 21.9534 39.04 21.5238 39.288C21.219 39.464 20.9635 39.6854 20.7573 39.9523C20.5471 40.2122 20.3455 40.5272 20.1527 40.8972L19.3242 40.3501C19.5444 39.8996 19.8007 39.5115 20.093 39.1857C20.3922 38.856 20.7427 38.5751 21.1445 38.3431C21.872 37.9231 22.5556 37.7871 23.1953 37.935C23.8379 38.0721 24.3632 38.494 24.7712 39.2006L25.9412 41.2271C26.0172 41.3588 26.092 41.4403 26.1655 41.4717C26.246 41.4991 26.3437 41.4843 26.4586 41.4273L26.9866 42.3418C26.8946 42.4226 26.8091 42.4904 26.73 42.5453C26.6508 42.6003 26.5835 42.6437 26.5281 42.6757C26.2856 42.8157 26.068 42.8628 25.8753 42.8171C25.6826 42.7713 25.5299 42.6747 25.4171 42.5274L25.2059 42.2336C25.1464 42.6744 24.981 43.084 24.7098 43.4623C24.4386 43.8406 24.1159 44.1377 23.7418 44.3537C23.3815 44.5617 23.0174 44.675 22.6493 44.6935C22.2773 44.705 21.9376 44.6287 21.6302 44.4643C21.3229 44.3 21.0772 44.0584 20.8932 43.7398ZM24.5458 42.0743C24.577 41.9362 24.5908 41.8082 24.5873 41.6901C24.5838 41.572 24.562 41.4784 24.522 41.4091L24.162 40.7855C23.924 40.8213 23.6877 40.8839 23.4529 40.9733C23.2141 41.0557 22.9908 41.1569 22.783 41.2769C22.3673 41.5169 22.0758 41.7961 21.9085 42.1143C21.7482 42.4286 21.752 42.7312 21.92 43.0222C22.012 43.1816 22.1416 43.31 22.3087 43.4075C22.4828 43.501 22.6755 43.5468 22.8868 43.5448C23.1051 43.5389 23.3355 43.4659 23.578 43.3259C23.8274 43.1819 24.0384 42.9954 24.211 42.7664C24.3837 42.5374 24.4953 42.3067 24.5458 42.0743ZM28.0721 41.7151L24.9341 36.2799L27.8439 34.5999C28.1903 34.3999 28.5124 34.3017 28.8101 34.3053C29.1107 34.298 29.3745 34.3629 29.6013 34.4998C29.8242 34.6298 30.0036 34.8125 30.1396 35.0481C30.3116 35.346 30.3943 35.6493 30.3877 35.9579C30.3812 36.2665 30.2768 36.5577 30.0746 36.8315C30.4384 36.7416 30.7832 36.7549 31.1092 36.8716C31.4381 36.9773 31.7046 37.2068 31.9086 37.5601C32.0926 37.8788 32.1724 38.193 32.148 38.5027C32.1196 38.8055 31.9953 39.0943 31.7753 39.3692C31.5581 39.6331 31.2625 39.8731 30.8884 40.0891L28.0721 41.7151ZM28.6969 40.3012L30.4012 39.3172C30.5467 39.2332 30.6583 39.1226 30.7361 38.9853C30.8168 38.8371 30.8578 38.6841 30.8591 38.5263C30.8564 38.3616 30.815 38.21 30.735 38.0714C30.647 37.919 30.5344 37.8039 30.3971 37.7261C30.2667 37.6443 30.1227 37.6028 29.9649 37.6015C29.814 37.5963 29.6624 37.6376 29.51 37.7256L27.7849 38.7216L28.6969 40.3012ZM27.3589 37.9838L28.8969 37.0958C29.0424 37.0118 29.1506 36.9031 29.2214 36.7698C29.2883 36.6296 29.3169 36.4792 29.3073 36.3185C29.2976 36.1577 29.2528 36.0081 29.1728 35.8695C29.0568 35.6686 28.891 35.5334 28.6753 35.4639C28.4597 35.3944 28.2445 35.4217 28.0297 35.5457L26.4709 36.4457L27.3589 37.9838ZM33.8366 38.3869L30.6986 32.9518L31.8417 32.2918L33.0897 34.4534L35.615 32.9954L34.367 30.8338L35.5102 30.1738L38.6482 35.6089L37.505 36.2689L36.185 33.9826L33.6597 35.4406L34.9797 37.7269L33.8366 38.3869ZM42.5295 33.5066C42.0999 33.7546 41.6734 33.9039 41.2499 33.9544C40.8224 33.998 40.408 33.9601 40.0066 33.8409C39.6121 33.7176 39.253 33.5277 38.9294 33.2711C38.6018 33.0076 38.3279 32.6854 38.1079 32.3043C37.8879 31.9233 37.7458 31.525 37.6814 31.1095C37.617 30.694 37.6321 30.2881 37.7266 29.8918C37.824 29.4845 38.0004 29.1101 38.2559 28.7686C38.5143 28.4162 38.8548 28.118 39.2775 27.874C39.7001 27.63 40.1251 27.4862 40.5526 27.4426C40.983 27.3881 41.3955 27.4225 41.79 27.5458C42.1874 27.6581 42.5499 27.846 42.8775 28.1095C43.2052 28.373 43.479 28.6953 43.699 29.0763C43.919 29.4574 44.0612 29.8556 44.1255 30.2711C44.1859 30.6797 44.1674 31.0876 44.07 31.4949C43.9795 31.8981 43.805 32.276 43.5466 32.6284C43.2911 32.9699 42.9521 33.2626 42.5295 33.5066ZM39.2883 31.6367C39.4883 31.9831 39.741 32.2529 40.0465 32.446C40.352 32.6391 40.672 32.7454 41.0065 32.7647C41.341 32.7841 41.6606 32.7058 41.9655 32.5298C42.2634 32.3578 42.4876 32.1221 42.6381 31.8227C42.7915 31.5125 42.8609 31.1768 42.8464 30.8156C42.8279 30.4476 42.7207 30.0938 42.5247 29.7543C42.3247 29.4079 42.0719 29.1381 41.7664 28.945C41.4609 28.7519 41.1375 28.6476 40.7961 28.6323C40.4576 28.606 40.1394 28.6789 39.8415 28.8509C39.5366 29.0269 39.311 29.268 39.1645 29.5743C39.018 29.8806 38.952 30.2143 38.9665 30.5754C38.977 30.9296 39.0843 31.2834 39.2883 31.6367ZM48.8019 29.8853C48.3793 30.1293 47.9527 30.2785 47.5223 30.333C47.0948 30.3766 46.6824 30.3422 46.285 30.2299C45.8836 30.1106 45.5176 29.9247 45.187 29.6721C44.8594 29.4087 44.5856 29.0864 44.3656 28.7053C44.0696 28.1926 43.9173 27.657 43.9089 27.0984C43.8965 26.5328 44.0275 25.9999 44.3022 25.4995C44.5728 24.9923 44.9922 24.5746 45.5603 24.2466C46.1284 23.9186 46.6928 23.7683 47.2536 23.7955C47.8173 23.8119 48.3354 23.9654 48.8081 24.256C49.2807 24.5466 49.657 24.9344 49.937 25.4194C49.985 25.5025 50.0275 25.5842 50.0646 25.6644C50.0977 25.7377 50.1248 25.8006 50.1458 25.8531L45.7915 28.3671C45.9962 28.6738 46.2448 28.9044 46.5373 29.0588C46.8326 29.2024 47.1415 29.2735 47.464 29.272C47.7825 29.2637 48.0803 29.1795 48.3574 29.0195C48.6623 28.8435 48.9058 28.6013 49.088 28.2929C49.2771 27.9804 49.3482 27.6715 49.3012 27.3661L50.4401 27.0827C50.4743 27.414 50.4322 27.757 50.3137 28.1118C50.1981 28.4556 50.0135 28.7839 49.7599 29.0966C49.5023 29.4024 49.1829 29.6653 48.8019 29.8853ZM45.3223 27.6264L48.6063 25.7304C48.4055 25.4307 48.1574 25.209 47.8621 25.0654C47.5696 24.9109 47.2642 24.8379 46.9457 24.8463C46.6301 24.8437 46.3269 24.9264 46.0359 25.0944C45.7518 25.2584 45.5285 25.4797 45.3661 25.7583C45.2065 26.0259 45.1205 26.3249 45.1081 26.6554C45.0917 26.979 45.1631 27.3027 45.3223 27.6264ZM58.8304 26.9081L57.5524 24.6946L57.3654 24.8026C56.8042 25.1266 56.2507 25.2798 55.7048 25.2624C55.159 25.245 54.6607 25.0939 54.2099 24.8092C53.7552 24.5175 53.3878 24.1291 53.1078 23.6442C52.8278 23.1592 52.6772 22.6503 52.6559 22.1176C52.6376 21.5739 52.7574 21.0613 53.0152 20.5799C53.2731 20.0985 53.6791 19.6978 54.2334 19.3778L54.4204 19.2698L53.1724 17.1082L54.3156 16.4482L55.5636 18.6098L55.7507 18.5018C56.3049 18.1818 56.855 18.0305 57.4008 18.0479C57.9466 18.0653 58.4469 18.2199 58.9017 18.5116C59.3594 18.7923 59.7283 19.1752 60.0083 19.6602C60.2883 20.1451 60.4409 20.6575 60.4661 21.1972C60.4873 21.7299 60.369 22.237 60.1112 22.7184C59.8533 23.1998 59.4438 23.6026 58.8827 23.9266L58.6956 24.0346L59.9736 26.2481L58.8304 26.9081ZM56.8314 23.8776L57.0704 23.7396L55.0064 20.1647L54.7674 20.3027C54.4625 20.4787 54.2383 20.7144 54.0948 21.0097C53.9512 21.3051 53.8882 21.6278 53.9056 21.978C53.93 22.3242 54.0401 22.6671 54.2361 23.0066C54.4321 23.346 54.674 23.6129 54.9616 23.8071C55.2492 24.0013 55.5548 24.1066 55.8784 24.123C56.2019 24.1394 56.5196 24.0576 56.8314 23.8776ZM58.0992 23.1456L58.3487 23.0016C58.6604 22.8216 58.8901 22.5874 59.0376 22.299C59.1852 22.0106 59.2468 21.6933 59.2224 21.3471C59.205 20.9969 59.0983 20.652 58.9023 20.3126C58.7063 19.9731 58.461 19.7082 58.1664 19.518C57.8788 19.3238 57.5712 19.2151 57.2436 19.1917C56.9161 19.1684 56.5964 19.2467 56.2847 19.4267L56.0352 19.5707L58.0992 23.1456ZM65.0901 20.4812C64.6606 20.7292 64.234 20.8785 63.8106 20.929C63.3831 20.9726 62.9686 20.9347 62.5672 20.8155C62.1727 20.6922 61.8137 20.5023 61.49 20.2457C61.1624 19.9822 60.8886 19.66 60.6686 19.2789C60.4486 18.8979 60.3064 18.4996 60.242 18.0841C60.1777 17.6686 60.1927 17.2627 60.2872 16.8664C60.3846 16.4591 60.5611 16.0847 60.8166 15.7432C61.075 15.3908 61.4155 15.0926 61.8381 14.8486C62.2607 14.6046 62.6858 14.4608 63.1133 14.4172C63.5437 14.3627 63.9561 14.3971 64.3506 14.5204C64.748 14.6327 65.1105 14.8206 65.4382 15.0841C65.7658 15.3476 66.0396 15.6699 66.2596 16.0509C66.4796 16.432 66.6218 16.8302 66.6862 17.2457C66.7465 17.6543 66.728 18.0622 66.6306 18.4695C66.5401 18.8727 66.3657 19.2506 66.1073 19.603C65.8518 19.9445 65.5127 20.2372 65.0901 20.4812ZM61.8489 18.6113C62.0489 18.9577 62.3017 19.2275 62.6071 19.4206C62.9126 19.6138 63.2326 19.72 63.5671 19.7393C63.9016 19.7587 64.2213 19.6804 64.5261 19.5044C64.824 19.3324 65.0482 19.0967 65.1987 18.7973C65.3521 18.4871 65.4216 18.1514 65.4071 17.7902C65.3886 17.4222 65.2813 17.0684 65.0853 16.7289C64.8853 16.3825 64.6326 16.1127 64.3271 15.9196C64.0216 15.7265 63.6981 15.6223 63.3567 15.6069C63.0182 15.5806 62.7 15.6535 62.4021 15.8255C62.0973 16.0015 61.8716 16.2426 61.7251 16.5489C61.5786 16.8552 61.5126 17.1889 61.5271 17.55C61.5377 17.9042 61.6449 18.258 61.8489 18.6113ZM70.1282 17.4339L67.5722 13.0068L65.7743 14.0448L65.1923 13.0368L69.9416 10.2948L70.5236 11.3028L68.7153 12.3468L71.2713 16.7739L70.1282 17.4339ZM76.4364 13.9305C76.0068 14.1785 75.5803 14.3277 75.1568 14.3782C74.7294 14.4218 74.3149 14.384 73.9135 14.2647C73.519 14.1414 73.16 13.9515 72.8363 13.6949C72.5087 13.4315 72.2349 13.1092 72.0149 12.7281C71.7949 12.3471 71.6527 11.9488 71.5883 11.5333C71.524 11.1179 71.539 10.712 71.6335 10.3156C71.7309 9.90834 71.9074 9.53396 72.1628 9.19246C72.4213 8.84004 72.7618 8.54183 73.1844 8.29783C73.607 8.05383 74.0321 7.91004 74.4595 7.86646C74.89 7.81196 75.3024 7.84634 75.6969 7.96961C76.0943 8.08195 76.4568 8.26987 76.7845 8.53335C77.1121 8.79683 77.3859 9.1191 77.6059 9.50015C77.8259 9.8812 77.9681 10.2795 78.0325 10.6949C78.0928 11.1035 78.0743 11.5114 77.9769 11.9187C77.8864 12.322 77.712 12.6998 77.4535 13.0522C77.1981 13.3937 76.859 13.6865 76.4364 13.9305ZM73.1952 12.0605C73.3952 12.4069 73.6479 12.6767 73.9534 12.8698C74.2589 13.063 74.5789 13.1692 74.9134 13.1886C75.2479 13.2079 75.5676 13.1296 75.8724 12.9536C76.1703 12.7816 76.3945 12.5459 76.545 12.2466C76.6984 11.9363 76.7679 11.6006 76.7534 11.2395C76.7348 10.8714 76.6276 10.5176 76.4316 10.1781C76.2316 9.83174 75.9788 9.56197 75.6734 9.36884C75.3679 9.17571 75.0444 9.07147 74.703 9.05612C74.3645 9.02985 74.0463 9.10271 73.7484 9.27471C73.4436 9.45071 73.2179 9.69185 73.0714 9.99812C72.9249 10.3044 72.8589 10.6381 72.8734 10.9992C72.8839 11.3534 72.9912 11.7072 73.1952 12.0605Z" fill="white"/>
</g>
<defs>
<clipPath id="clip0_181_1899">
<rect width="115" height="67" fill="white"/>
</clipPath>
</defs>
</svg>
