<svg width="51" height="50" viewBox="0 0 51 50" fill="none" xmlns="http://www.w3.org/2000/svg">
<rect x="1.08887" y="0.5" width="49" height="49" rx="24.5" fill="#032A2A"/>
<rect x="1.08887" y="0.5" width="49" height="49" rx="24.5" stroke="#A1F69E"/>
<g clip-path="url(#clip0_761_5212)">
<path fill-rule="evenodd" clip-rule="evenodd" d="M20.4868 15.8597C22.1678 15.9815 23.9193 16.8009 25.5959 18.4593C27.2721 16.8014 29.0221 15.9835 30.7014 15.8645C32.5967 15.73 34.2723 16.4961 35.4846 17.7047C37.868 20.0809 38.6164 24.3807 35.659 27.3383C35.649 27.3482 35.6387 27.358 35.6283 27.3674L26.1713 35.9336C25.8447 36.2293 25.347 36.2293 25.0205 35.9336L15.5635 27.3674C15.553 27.358 15.5428 27.3482 15.5328 27.3383C12.5598 24.3653 13.3043 20.065 15.6956 17.6906C16.9108 16.4839 18.5898 15.7223 20.4868 15.8597Z" fill="#A1F69E"/>
</g>
<defs>
<clipPath id="clip0_761_5212">
<rect width="24" height="24" fill="white" transform="translate(13.5889 14)"/>
</clipPath>
</defs>
</svg>
