<svg width="80" height="80" viewBox="0 0 80 80" fill="none" xmlns="http://www.w3.org/2000/svg">
<g clip-path="url(#clip0_761_4977)">
<path d="M79.8712 30.0825C79.7985 29.9349 79.6974 29.8032 79.5738 29.6947C79.4501 29.5862 79.3063 29.5032 79.1506 29.4503C78.9949 29.3974 78.8302 29.3757 78.6661 29.3865C78.502 29.3972 78.3415 29.4402 78.194 29.5129L30.7012 52.9218C30.3734 53.0834 30.1042 53.3433 29.9313 53.6653C29.7584 53.9873 29.6904 54.3552 29.7369 54.7178C29.7834 55.0803 29.942 55.4192 30.1905 55.6872C30.439 55.9551 30.7651 56.1387 31.1231 56.2123L41.544 58.3529L44.9786 72.747C45.1661 73.7278 47.0448 74.5106 48.1828 73.2259L55.2784 65.3076C55.5001 65.0602 55.6145 64.7349 55.5963 64.4032C55.5781 64.0715 55.4289 63.7606 55.1815 63.5389C54.9341 63.3172 54.6088 63.2028 54.2771 63.221C53.9454 63.2392 53.6345 63.3884 53.4128 63.6357L49.6404 67.8468L51.5267 60.5117L66.9664 65.5072C67.1415 65.564 67.3245 65.593 67.5086 65.5932C67.8823 65.592 68.2459 65.4717 68.5465 65.2497C68.8472 65.0277 69.0692 64.7157 69.1804 64.3589L79.8992 31.1437C79.9061 31.1223 79.9112 31.1009 79.917 31.0793C79.9784 30.919 80.006 30.7477 79.9981 30.5761C79.9902 30.4046 79.947 30.2365 79.8712 30.0825ZM43.9842 57.7848L54.1145 49.9687C54.2447 49.8682 54.3539 49.7431 54.4357 49.6005C54.5176 49.4578 54.5705 49.3004 54.5916 49.1373C54.6126 48.9742 54.6013 48.8085 54.5583 48.6498C54.5153 48.491 54.4415 48.3423 54.341 48.2121C54.2405 48.0819 54.1154 47.9727 53.9727 47.8909C53.8301 47.809 53.6727 47.7561 53.5096 47.735C53.3465 47.714 53.1808 47.7253 53.022 47.7683C52.8633 47.8113 52.7146 47.8851 52.5843 47.9856L42.2672 55.9462L33.7742 54.2011L72.3923 35.1651L50.0193 57.3125C49.7349 57.5851 49.5517 57.9464 49.4998 58.337L46.7068 69.1981L43.9842 57.7848ZM67.0229 62.8923L52.6434 58.2401L75.9782 35.1406L67.0229 62.8923Z" fill="#A1F69E"/>
<path d="M39.382 61.3276C39.276 61.2018 39.1464 61.098 39.0003 61.0223C38.8543 60.9466 38.6948 60.9005 38.5309 60.8864C38.3671 60.8724 38.202 60.8907 38.0453 60.9405C37.8885 60.9902 37.7431 61.0704 37.6173 61.1763L17.888 77.7903C17.7605 77.8957 17.6552 78.0253 17.578 78.1717C17.5009 78.318 17.4535 78.4782 17.4387 78.643C17.4238 78.8078 17.4417 78.9739 17.4914 79.1317C17.5411 79.2895 17.6215 79.4359 17.7281 79.5624C17.8347 79.689 17.9652 79.7931 18.1123 79.8689C18.2594 79.9447 18.42 79.9906 18.5849 80.004C18.7498 80.0174 18.9157 79.9979 19.0731 79.9468C19.2304 79.8957 19.3761 79.8139 19.5016 79.7062L39.2309 63.0923C39.4849 62.8783 39.6435 62.5722 39.6718 62.2412C39.7002 61.9103 39.5959 61.5817 39.382 61.3276Z" fill="#A1F69E"/>
<path d="M39.4445 68.697L32.4064 74.8626C32.2806 74.9704 32.1774 75.1021 32.1028 75.25C32.0283 75.3979 31.9838 75.5591 31.9719 75.7244C31.9601 75.8896 31.9812 76.0555 32.0339 76.2125C32.0866 76.3696 32.17 76.5146 32.2792 76.6392C32.3883 76.7638 32.5211 76.8655 32.6698 76.9384C32.8186 77.0113 32.9803 77.054 33.1456 77.064C33.311 77.074 33.4767 77.0511 33.6331 76.9967C33.7895 76.9422 33.9336 76.8572 34.057 76.7467L41.095 70.5812C41.2207 70.4735 41.3238 70.3418 41.3983 70.1939C41.4728 70.046 41.5172 69.8848 41.529 69.7197C41.5408 69.5545 41.5197 69.3886 41.467 69.2316C41.4143 69.0747 41.3309 68.9297 41.2218 68.8051C41.1127 68.6806 40.98 68.5789 40.8313 68.506C40.6827 68.433 40.521 68.3903 40.3557 68.3802C40.1904 68.3702 40.0248 68.393 39.8684 68.4474C39.712 68.5018 39.5679 68.5866 39.4445 68.697Z" fill="#A1F69E"/>
<path d="M49.1835 26.1639C49.0604 26.273 48.96 26.4052 48.888 26.5531C48.8161 26.701 48.7739 26.8616 48.764 27.0258C48.7541 27.19 48.7766 27.3545 48.8303 27.5099C48.884 27.6654 48.9677 27.8088 49.0768 27.9319L56.0976 35.8537C56.2067 35.9769 56.339 36.0773 56.4869 36.1493C56.6348 36.2213 56.7954 36.2634 56.9596 36.2733C57.1238 36.2833 57.2883 36.2607 57.4438 36.2071C57.5993 36.1534 57.7427 36.0696 57.8658 35.9605C57.9889 35.8515 58.0893 35.7192 58.1613 35.5713C58.2333 35.4234 58.2755 35.2627 58.2854 35.0986C58.2953 34.9344 58.2728 34.7698 58.2191 34.6143C58.1655 34.4588 58.0817 34.3154 57.9726 34.1923L50.9518 26.2705C50.8427 26.1473 50.7104 26.0469 50.5625 25.9749C50.4146 25.9029 50.254 25.8608 50.0898 25.8509C49.9256 25.841 49.761 25.8636 49.6055 25.9173C49.45 25.971 49.3066 26.0548 49.1835 26.1639Z" fill="#A1F69E"/>
<path d="M30.3612 49.1698C30.5269 49.1717 30.6913 49.1407 30.8448 49.0786C30.9984 49.0164 31.1381 48.9245 31.2559 48.808C31.3737 48.6915 31.4672 48.5528 31.5311 48.4C31.5949 48.2471 31.6277 48.0831 31.6277 47.9174C31.6277 47.7518 31.5949 47.5878 31.5311 47.4349C31.4672 47.282 31.3737 47.1433 31.2559 47.0268C31.1381 46.9104 30.9984 46.8184 30.8448 46.7563C30.6913 46.6942 30.5269 46.6632 30.3612 46.665H5.79953C5.53485 46.664 5.27126 46.631 5.01453 46.5666L21.5302 27.9316C21.7505 27.6829 21.863 27.3569 21.843 27.0253C21.8229 26.6937 21.672 26.3837 21.4234 26.1634C21.1747 25.943 20.8487 25.8305 20.5171 25.8506C20.1855 25.8706 19.8755 26.0215 19.6552 26.2702L2.98703 45.0781C2.67212 44.5643 2.50525 43.9736 2.50484 43.3709V9.17031L29.3881 27.6948C31.1308 28.886 33.1924 29.5233 35.3033 29.5233C37.4141 29.5233 39.4758 28.886 41.2184 27.6948L68.1017 9.17031V29.2942C68.0999 29.4599 68.1309 29.6242 68.193 29.7778C68.2551 29.9314 68.3471 30.0711 68.4636 30.1889C68.58 30.3067 68.7187 30.4002 68.8716 30.464C69.0245 30.5278 69.1885 30.5607 69.3541 30.5607C69.5198 30.5607 69.6838 30.5278 69.8367 30.464C69.9896 30.4002 70.1282 30.3067 70.2447 30.1889C70.3612 30.0711 70.4532 29.9314 70.5153 29.7778C70.5774 29.6242 70.6084 29.4599 70.6066 29.2942V5.79953C70.6048 4.26193 69.9932 2.78781 68.906 1.70056C67.8188 0.613315 66.3446 0.00173693 64.807 0L5.79953 0C4.26193 0.00173693 2.78781 0.613315 1.70056 1.70056C0.613316 2.78781 0.00173759 4.26193 6.57168e-07 5.79953V43.3705C-0.000365108 44.1376 0.151955 44.8972 0.448085 45.6049C0.744215 46.3126 1.17823 46.9542 1.72484 47.4925C1.8045 47.7108 1.94343 47.9026 2.12603 48.0463C2.30864 48.19 2.52769 48.28 2.75859 48.3061C3.67194 48.8718 4.7252 49.1709 5.79953 49.1698H30.3612ZM5.79953 2.50484H64.807C65.6805 2.50584 66.518 2.85327 67.1356 3.47093C67.7533 4.08859 68.1007 4.92603 68.1017 5.79953V6.12844L39.7969 25.6322C38.473 26.5372 36.9066 27.0214 35.303 27.0214C33.6993 27.0214 32.133 26.5372 30.8091 25.6322L2.50484 6.12844V5.79953C2.50584 4.92603 2.85327 4.08859 3.47093 3.47093C4.08859 2.85327 4.92603 2.50584 5.79953 2.50484Z" fill="#A1F69E"/>
</g>
<defs>
<clipPath id="clip0_761_4977">
<rect width="80" height="80" fill="white"/>
</clipPath>
</defs>
</svg>
