<svg width="25" height="24" viewBox="0 0 25 24" fill="none" xmlns="http://www.w3.org/2000/svg">
<path fill-rule="evenodd" clip-rule="evenodd" d="M12.0714 0C10.7319 0 9.44727 0.532116 8.50009 1.47929C7.55291 2.42647 7.0208 3.7111 7.0208 5.05061V10.9215C7.0208 12.261 7.55291 13.5456 8.50009 14.4928C9.44727 15.4399 10.7319 15.9721 12.0714 15.9721C13.4109 15.9721 14.6956 15.4399 15.6427 14.4928C16.5899 13.5456 17.122 12.261 17.122 10.9215V5.05061C17.122 3.7111 16.5899 2.42647 15.6427 1.47929C14.6956 0.532116 13.4109 0 12.0714 0ZM10.7857 20.5843V22.663C10.7857 23.3731 11.3613 23.9487 12.0714 23.9487C12.7815 23.9487 13.3571 23.3731 13.3571 22.663V20.5843C18.1286 20.3606 21.9285 16.4211 21.9285 11.5942C21.9285 10.8842 21.3529 10.3085 20.6428 10.3085C19.9327 10.3085 19.3571 10.8842 19.3571 11.5942C19.3571 15.1446 16.4789 18.0228 12.9285 18.0228H12.0948C12.087 18.0226 12.0792 18.0226 12.0714 18.0226C12.0635 18.0226 12.0557 18.0226 12.0479 18.0228H11.2142C7.66383 18.0228 4.78566 15.1446 4.78566 11.5942C4.78566 10.8842 4.21002 10.3085 3.49995 10.3085C2.78987 10.3085 2.21423 10.8842 2.21423 11.5942C2.21423 16.4211 6.0141 20.3606 10.7857 20.5843Z" fill="#A1F69E"/>
</svg>
