<svg width="20" height="20" viewBox="0 0 20 20" fill="none" xmlns="http://www.w3.org/2000/svg">
<g clip-path="url(#clip0_661_33753)">
<path d="M10 20C15.5228 20 20 15.5228 20 10C20 4.47715 15.5228 0 10 0C4.47715 0 0 4.47715 0 10C0 15.5228 4.47715 20 10 20Z" fill="#00B7A2"/>
<path d="M20 10C20 10.068 19.9992 10.1363 19.998 10.2039C19.8895 4.77539 15.4547 0.407812 10 0.407812C4.54531 0.407812 0.110547 4.77539 0.00195312 10.2039C0.00078125 10.1363 0 10.068 0 10C0 4.47695 4.47695 0 10 0C15.523 0 20 4.47695 20 10Z" fill="#B7FFF7"/>
<path d="M17.8626 10.547C17.8626 14.8896 14.3427 18.4095 10.0001 18.4095C5.65752 18.4095 2.13721 14.8896 2.13721 10.547C2.13721 10.4794 2.13799 10.4114 2.13955 10.3442C2.24854 14.5919 5.72627 18.0013 10.0001 18.0013C14.2739 18.0013 17.7513 14.5919 17.8603 10.3442C17.8618 10.4114 17.8626 10.4794 17.8626 10.547Z" fill="#B7FFF7"/>
<g opacity="0.6">
<path d="M17.8797 3.84238L0.983594 14.3307C0.353125 13.0205 0 11.5518 0 10.0002C0 9.52871 0.0328125 9.06465 0.0960938 8.61035L13.1504 0.506836C15.0398 1.13301 16.6789 2.30801 17.8797 3.84238ZM19.909 8.64824L4.3918 18.2807C5.36836 18.9436 6.46836 19.4381 7.65039 19.7225L19.7547 12.208C19.9152 11.4979 19.9996 10.7592 19.9996 10.0002C19.9996 9.5416 19.9688 9.09043 19.9086 8.64785L19.909 8.64824ZM18.9469 5.52871L2.025 16.0338C2.29922 16.3963 2.59805 16.7396 2.91836 17.0607L19.4719 6.78418C19.325 6.35137 19.1488 5.93223 18.9469 5.52832V5.52871Z" fill="#4EEAD8"/>
</g>
<path d="M10.0007 18.0009C14.343 18.0009 17.8632 14.4807 17.8632 10.1384C17.8632 5.79604 14.343 2.27588 10.0007 2.27588C5.65834 2.27588 2.13818 5.79604 2.13818 10.1384C2.13818 14.4807 5.65834 18.0009 10.0007 18.0009Z" fill="#7EF4E7"/>
<path d="M17.8631 10.1384C17.8631 10.2771 17.8592 10.4153 17.8521 10.5521C17.6369 6.40244 14.2037 3.10322 10.0002 3.10322C5.79668 3.10322 2.36387 6.40244 2.14863 10.5521C2.1416 10.4149 2.1377 10.2771 2.1377 10.1384C2.1377 5.79619 5.65801 2.27588 10.0002 2.27588C14.3424 2.27588 17.8627 5.79619 17.8627 10.1384H17.8631Z" fill="#059686"/>
<mask id="mask0_661_33753" style="mask-type:alpha" maskUnits="userSpaceOnUse" x="3" y="3" width="14" height="14">
<circle cx="10.0195" cy="10.1758" r="6.30859" fill="#D9D9D9"/>
</mask>
<g mask="url(#mask0_661_33753)">
<g clip-path="url(#clip1_661_33753)">
<path fill-rule="evenodd" clip-rule="evenodd" d="M8.57054 12.1013C8.50477 11.9553 8.40408 11.801 8.24991 11.6419C7.46146 10.8285 6.62351 10.0425 6.62351 10.0425C6.62351 10.0425 3.81402 7.23309 5.249 6.31374C6.47567 5.75434 7.7579 5.9229 9.19812 7.14647C9.50488 7.40709 9.75652 7.76111 9.95676 8.16615C10.157 7.76111 10.4087 7.40709 10.7154 7.14647C12.1556 5.9229 13.4379 5.75431 14.6645 6.31371C16.0995 7.23309 13.29 10.0425 13.29 10.0425C13.29 10.0425 12.4521 10.8285 11.6636 11.6419C11.4667 11.845 11.357 12.0404 11.296 12.2207V14.5446C11.296 14.9736 11.1887 15.2954 10.9743 15.5099C10.7724 15.7118 10.438 15.8127 9.97113 15.8127C9.03739 15.8127 8.57054 15.39 8.57054 14.5446V12.1013Z" fill="#2FD5C2"/>
<path d="M20.8404 15.8128C19.667 15.8128 18.7964 15.5352 18.2286 14.98C17.6734 14.4249 17.3958 13.5732 17.3958 12.4249V8.48813H16.9037C16.2767 8.48813 15.981 8.1033 15.981 7.3336C15.981 6.57652 16.2767 6.19796 16.9037 6.19799H17.3958V4.15389C17.3958 3.7375 17.522 3.39681 17.7743 3.13184C18.0393 2.86686 18.38 2.73438 18.7964 2.73438C19.2002 2.73438 19.5219 2.86055 19.7617 3.11291C20.0014 3.35265 20.1212 3.68703 20.1212 4.11603V5.04345C20.1212 5.51031 20.1212 5.75436 20.1212 6.19796L21.6921 6.19799C22.5503 6.19799 22.9791 6.57652 22.9791 7.3336C22.9791 8.1033 22.5503 8.48813 21.6921 8.48813H20.1212V12.4817C20.1212 12.8602 20.1655 13.1315 20.2537 13.2956C20.3421 13.447 20.4873 13.5227 20.689 13.5227C20.954 13.5227 21.1497 13.5037 21.2757 13.4659C21.4147 13.4154 21.585 13.3902 21.7867 13.3902C22.1274 13.3902 22.3989 13.4533 22.6006 13.5795C22.8026 13.693 22.9034 13.9328 22.9034 14.2987C22.9034 14.816 22.7396 15.2009 22.4113 15.4532C22.0834 15.693 21.5596 15.8128 20.8404 15.8128Z" fill="#2FD5C2"/>
</g>
<mask id="mask1_661_33753" style="mask-type:alpha" maskUnits="userSpaceOnUse" x="-10" y="2" width="43" height="15">
<path fill-rule="evenodd" clip-rule="evenodd" d="M8.56859 12.1018C8.50282 11.9558 8.40213 11.8014 8.24796 11.6424C7.45951 10.829 6.62155 10.043 6.62155 10.043C6.62155 10.043 3.84223 7.26374 5.22425 6.32924C5.46326 6.4965 5.85589 6.78078 6.29622 7.13785C5.8656 7.33389 5.57788 7.0739 5.57788 7.0739L5.57214 7.08515C5.57214 7.08515 5.88162 7.45041 6.36919 7.19795L6.36885 7.19706C6.65489 7.43149 6.95824 7.69498 7.25081 7.97578C6.58671 8.26326 5.78201 7.97976 5.77928 7.97703L5.77347 8.00025L5.77806 8.0021C5.84584 8.03007 6.65025 8.3621 7.32796 8.05049C7.41088 8.1315 7.49271 8.21384 7.57281 8.29723C7.73722 8.46839 7.91131 8.65733 8.08862 8.85505C7.09467 9.34887 6.14611 8.86244 6.14325 8.85958L6.13744 8.87119C6.13754 8.87119 6.13895 8.87199 6.14161 8.87351C6.21145 8.91341 7.14751 9.44814 8.15673 8.93126C8.39776 9.20179 8.64316 9.48628 8.87689 9.76237C7.91919 10.4197 7.02905 9.98738 6.97169 9.95952L6.96876 9.95813L6.96368 9.97049C6.96622 9.97357 7.90692 10.5686 8.9422 9.83965C9.22344 10.173 9.48521 10.4909 9.69868 10.7531C9.12566 11.1732 8.44386 10.9425 8.44105 10.9397L8.43524 10.9629L8.43873 10.9643C8.48959 10.9852 9.08572 11.2292 9.64814 10.9074C9.49281 11.0854 9.40121 11.1923 9.40121 11.1923L9.51743 11.3084L9.63365 11.4216C9.63365 11.4216 9.74722 11.2777 9.93491 11.0447C10.1226 11.2777 10.2362 11.4216 10.2362 11.4216L10.3524 11.3084L10.4686 11.1923C10.4686 11.1923 10.3765 11.0848 10.2203 10.9058C10.7835 11.2299 11.3815 10.9852 11.4324 10.9643L11.4359 10.9629L11.4301 10.9397C11.4273 10.9425 10.7448 11.1735 10.1716 10.7525C10.3851 10.4903 10.6469 10.1724 10.9281 9.83906C11.9637 10.5689 12.9049 9.97358 12.9075 9.97049L12.9024 9.95813L12.8995 9.95951C12.8421 9.98738 11.9514 10.42 10.9934 9.76178C11.2271 9.48572 11.4725 9.20126 11.7135 8.93079C12.7231 9.44846 13.6597 8.91342 13.7295 8.87351L13.7337 8.87119L13.7279 8.85958C13.725 8.86244 12.7759 9.34918 11.7816 8.85459C11.9588 8.65704 12.1327 8.46825 12.297 8.29723C12.3772 8.21369 12.4592 8.13121 12.5423 8.05007C13.2202 8.3624 14.0253 8.03009 14.0931 8.0021L14.0977 8.00025L14.0919 7.97703C14.0891 7.97977 13.2837 8.26353 12.6194 7.97538C12.9125 7.69408 13.2164 7.43017 13.5029 7.19545L13.502 7.19795C13.9895 7.45041 14.299 7.08515 14.299 7.08515L14.2933 7.0739C14.2933 7.0739 14.0052 7.33424 13.5741 7.13746C14.0263 6.77075 14.4282 6.48086 14.6649 6.31571C16.0945 7.23664 13.2881 10.043 13.2881 10.043C13.2881 10.043 12.4501 10.829 11.6617 11.6424C11.4648 11.8455 11.3551 12.0409 11.2941 12.2212V14.5451C11.2941 14.9741 11.1868 15.2959 10.9723 15.5104C10.7704 15.7123 10.436 15.8132 9.96918 15.8132C9.03543 15.8132 8.56859 15.3905 8.56859 14.5451V12.1018ZM9.93491 10.5806C10.204 10.2757 10.5515 9.88696 10.9217 9.48575C10.2839 8.41089 10.8599 7.461 10.8628 7.45847C10.8599 7.46097 10.4037 8.38511 10.9935 9.4081C11.34 9.03409 11.703 8.65328 12.0378 8.32294C11.561 7.4766 12.0985 6.69865 12.1011 6.69643L12.1167 6.70322L12.1151 6.70633C12.0859 6.75952 11.6858 7.48761 12.1017 8.26021C12.1419 8.22092 12.1816 8.18242 12.2208 8.14482C12.474 7.90193 12.7438 7.67061 13.011 7.45739C12.7741 6.92297 13.0179 6.24125 13.0195 6.2392L13.0228 6.24125L13.022 6.24423C13.0094 6.29316 12.8445 6.93326 13.0583 7.41979C13.7009 6.91136 14.3212 6.51026 14.6486 6.30783C13.4261 5.7561 12.1482 5.92806 10.7135 7.14695C10.4067 7.40758 10.1551 7.7616 9.95481 8.16664C9.75457 7.7616 9.50293 7.40758 9.19617 7.14695C7.75595 5.92339 6.47372 5.75483 5.24705 6.31423L5.23949 6.31912C5.57143 6.52506 6.18126 6.92107 6.8125 7.42058C7.02687 6.93395 6.86175 6.29319 6.84913 6.24423L6.84838 6.24125L6.85162 6.2392C6.85323 6.24125 7.09725 6.92364 6.85982 7.45819C7.12664 7.67118 7.39614 7.90223 7.64902 8.14482C7.6885 8.18269 7.72852 8.22148 7.76901 8.26107C8.18566 7.48815 7.78531 6.75954 7.75607 6.70633L7.75441 6.70322L7.77008 6.69643C7.77263 6.69865 8.3105 7.47712 7.83285 8.32379C8.16767 8.65419 8.53065 9.03502 8.8771 9.409C9.46768 8.38565 9.01122 7.46097 9.00834 7.45847C9.01125 7.461 9.58762 8.41142 8.94888 9.48664C9.31879 9.88753 9.666 10.2759 9.93491 10.5806Z" fill="#3BB44B"/>
</mask>
<g mask="url(#mask1_661_33753)">
<path d="M-12.9246 -5.16162C-12.9246 -5.16162 -0.633443 10.0277 10.1572 10.0277C20.9479 10.0277 33.239 -5.16162 33.239 -5.16162L-12.9246 -5.16162Z" fill="#00B7A2"/>
<g filter="url(#filter0_d_661_33753)">
<path d="M-26.0291 26.8584C-26.0291 26.8584 -13.7379 11.6691 -2.94728 11.6691C7.84336 11.6691 20.1345 26.8584 20.1345 26.8584L-26.0291 26.8584Z" fill="#00B7A2"/>
</g>
<g filter="url(#filter1_d_661_33753)">
<path d="M0.775635 26.8584C0.775635 26.8584 13.0668 11.6691 23.8574 11.6691C34.6481 11.6691 46.9392 26.8584 46.9392 26.8584L0.775635 26.8584Z" fill="#00B7A2"/>
</g>
</g>
</g>
</g>
<defs>
<filter id="filter0_d_661_33753" x="-26.0291" y="11.5127" width="46.1636" height="15.3457" filterUnits="userSpaceOnUse" color-interpolation-filters="sRGB">
<feFlood flood-opacity="0" result="BackgroundImageFix"/>
<feColorMatrix in="SourceAlpha" type="matrix" values="0 0 0 0 0 0 0 0 0 0 0 0 0 0 0 0 0 0 127 0" result="hardAlpha"/>
<feOffset dy="-0.15625"/>
<feComposite in2="hardAlpha" operator="out"/>
<feColorMatrix type="matrix" values="0 0 0 0 0.282353 0 0 0 0 0.776471 0 0 0 0 0.00784314 0 0 0 1 0"/>
<feBlend mode="normal" in2="BackgroundImageFix" result="effect1_dropShadow_661_33753"/>
<feBlend mode="normal" in="SourceGraphic" in2="effect1_dropShadow_661_33753" result="shape"/>
</filter>
<filter id="filter1_d_661_33753" x="0.775635" y="11.5127" width="46.1636" height="15.3457" filterUnits="userSpaceOnUse" color-interpolation-filters="sRGB">
<feFlood flood-opacity="0" result="BackgroundImageFix"/>
<feColorMatrix in="SourceAlpha" type="matrix" values="0 0 0 0 0 0 0 0 0 0 0 0 0 0 0 0 0 0 127 0" result="hardAlpha"/>
<feOffset dy="-0.15625"/>
<feComposite in2="hardAlpha" operator="out"/>
<feColorMatrix type="matrix" values="0 0 0 0 0.283637 0 0 0 0 0.775 0 0 0 0 0.00645833 0 0 0 1 0"/>
<feBlend mode="normal" in2="BackgroundImageFix" result="effect1_dropShadow_661_33753"/>
<feBlend mode="normal" in="SourceGraphic" in2="effect1_dropShadow_661_33753" result="shape"/>
</filter>
<clipPath id="clip0_661_33753">
<rect width="20" height="20" fill="white"/>
</clipPath>
<clipPath id="clip1_661_33753">
<rect width="41.9939" height="13.3079" fill="white" transform="translate(-9.64844 2.73438)"/>
</clipPath>
</defs>
</svg>
