<svg width="48" height="48" viewBox="0 0 48 48" fill="none" xmlns="http://www.w3.org/2000/svg">
<g opacity="0.5" clip-path="url(#clip0_231_3146)">
<path fill-rule="evenodd" clip-rule="evenodd" d="M12.9018 1.07162C13.7302 2.22512 13.4667 3.83179 12.3132 4.66021C10.0957 6.25274 8.28902 8.35 7.04225 10.7787C5.79545 13.2075 5.1444 15.898 5.14286 18.628C5.14207 20.0482 3.99014 21.1988 2.56997 21.198C1.14981 21.1972 -0.000803322 20.0453 4.20824e-07 18.6251C0.00200886 15.0792 0.847629 11.5846 2.46701 8.43006C4.08638 5.2755 6.43306 2.55148 9.3132 0.483023C10.4667 -0.345403 12.0734 -0.0818784 12.9018 1.07162ZM13.0904 8.80483C15.9838 5.91143 19.9081 4.28591 24 4.28591C28.0919 4.28591 32.0162 5.91143 34.9097 8.80483C37.8031 11.6982 39.4286 15.6226 39.4286 19.7145V31.7145C39.4286 32.6238 39.7899 33.4959 40.4328 34.1389C41.0757 34.7817 41.9479 35.143 42.8571 35.143C43.8038 35.143 44.5714 35.9107 44.5714 36.8573C44.5714 37.804 43.8038 38.5716 42.8571 38.5716H5.14286C4.19609 38.5716 3.42857 37.804 3.42857 36.8573C3.42857 35.9107 4.19609 35.143 5.14286 35.143C6.05218 35.143 6.92424 34.7817 7.56723 34.1389C8.21019 33.4959 8.57143 32.6238 8.57143 31.7145V19.7145C8.57143 15.6226 10.1969 11.6982 13.0904 8.80483ZM18 45.4288C18 44.0086 19.1513 42.8573 20.5714 42.8573H27.4286C28.8487 42.8573 30 44.0086 30 45.4288C30 46.8489 28.8487 48.0002 27.4286 48.0002H20.5714C19.1513 48.0002 18 46.8489 18 45.4288ZM38.687 0.483023C37.5333 -0.345403 35.9266 -0.0818784 35.0983 1.07162C34.2698 2.22512 34.5333 3.83179 35.687 4.66021C37.9042 6.25274 39.7111 8.35 40.9577 10.7787C42.2047 13.2075 42.8558 15.898 42.8571 18.628C42.8578 20.0482 44.0098 21.1988 45.4299 21.198C46.8501 21.1972 48.0007 20.0453 48 18.6251C47.9979 15.0792 47.1525 11.5846 45.5331 8.43006C43.9135 5.2755 41.567 2.55148 38.687 0.483023Z" fill="white"/>
</g>
<defs>
<clipPath id="clip0_231_3146">
<rect width="48" height="48" fill="white"/>
</clipPath>
</defs>
</svg>
