<svg width="48" height="48" viewBox="0 0 48 48" fill="none" xmlns="http://www.w3.org/2000/svg">
<rect x="0.75" y="0.75" width="46.5" height="46.5" rx="23.25" fill="black" fill-opacity="0.3"/>
<rect x="0.75" y="0.75" width="46.5" height="46.5" rx="23.25" stroke="white" stroke-width="1.5"/>
<g clip-path="url(#clip0_383_4553)">
<path fill-rule="evenodd" clip-rule="evenodd" d="M23.9977 16.0527C25.1936 16.0521 26.3743 16.3213 27.4517 16.8404C28.5292 17.3596 29.4756 18.1152 30.2202 19.051C30.965 19.9868 31.4889 21.0787 31.753 22.2451C32.017 23.4116 32.0144 24.6227 31.7453 25.788C31.4761 26.9533 30.9474 28.0429 30.1986 28.9754C29.4498 29.908 28.5001 30.6594 27.4204 31.1739C26.3407 31.6883 25.1588 31.9525 23.9628 31.9465C22.8304 31.9409 21.7129 31.6934 20.6851 31.2213L16.724 31.9375C16.5216 31.9741 16.3152 31.8991 16.1835 31.7411C16.0518 31.5832 16.0151 31.3666 16.0874 31.1742L17.2237 28.1511C16.5262 27.0124 16.1259 25.7149 16.0622 24.3779C15.9938 22.942 16.3161 21.5145 16.9949 20.2473C17.6736 18.9802 18.6834 17.9209 19.9165 17.1822C21.1497 16.4436 22.5602 16.0532 23.9977 16.0527ZM21.7143 23.9997C21.7143 24.6308 21.2026 25.1425 20.5714 25.1425C19.9403 25.1425 19.4286 24.6308 19.4286 23.9997C19.4286 23.3685 19.9403 22.8568 20.5714 22.8568C21.2026 22.8568 21.7143 23.3685 21.7143 23.9997ZM24 25.1425C24.6312 25.1425 25.1429 24.6308 25.1429 23.9997C25.1429 23.3685 24.6312 22.8568 24 22.8568C23.3688 22.8568 22.8572 23.3685 22.8572 23.9997C22.8572 24.6308 23.3688 25.1425 24 25.1425ZM27.4286 25.1425C28.0598 25.1425 28.5714 24.6308 28.5714 23.9997C28.5714 23.3685 28.0598 22.8568 27.4286 22.8568C26.7974 22.8568 26.2857 23.3685 26.2857 23.9997C26.2857 24.6308 26.7974 25.1425 27.4286 25.1425Z" fill="white"/>
</g>
<defs>
<clipPath id="clip0_383_4553">
<rect width="16" height="16" fill="white" transform="translate(16 16)"/>
</clipPath>
</defs>
</svg>
