<svg width="58" height="58" viewBox="0 0 58 58" fill="none" xmlns="http://www.w3.org/2000/svg">
<rect x="0.679688" y="0.679688" width="56.6406" height="56.6406" rx="28.3203" fill="black" fill-opacity="0.3"/>
<rect x="0.679688" y="0.679688" width="56.6406" height="56.6406" rx="28.3203" stroke="white" stroke-width="1.35938"/>
<g clip-path="url(#clip0_383_4549)">
<path fill-rule="evenodd" clip-rule="evenodd" d="M24.3762 19.8104C25.8996 19.9208 27.4869 20.6633 29.0063 22.1662C30.5254 20.6637 32.1113 19.9226 33.6332 19.8147C35.3508 19.6928 36.8693 20.3871 37.968 21.4823C40.1279 23.6358 40.8062 27.5325 38.126 30.2128C38.117 30.2218 38.1076 30.2307 38.0982 30.2392L29.5278 38.0023C29.2318 38.2703 28.7808 38.2703 28.4848 38.0023L19.9144 30.2392C19.905 30.2307 19.8957 30.2218 19.8867 30.2128C17.1924 27.5185 17.8671 23.6214 20.0342 21.4696C21.1355 20.376 22.657 19.6858 24.3762 19.8104Z" fill="white"/>
</g>
<defs>
<clipPath id="clip0_383_4549">
<rect width="21.75" height="21.75" fill="white" transform="translate(18.125 18.125)"/>
</clipPath>
</defs>
</svg>
