<svg width="58" height="58" viewBox="0 0 58 58" fill="none" xmlns="http://www.w3.org/2000/svg">
<rect x="0.679688" y="0.679688" width="56.6406" height="56.6406" rx="28.3203" fill="black" fill-opacity="0.3"/>
<rect x="0.679688" y="0.679688" width="56.6406" height="56.6406" rx="28.3203" stroke="white" stroke-width="1.35938"/>
<g clip-path="url(#clip0_383_4539)">
<path fill-rule="evenodd" clip-rule="evenodd" d="M22.1476 20.3167C21.642 19.8111 20.8223 19.8111 20.3167 20.3167C19.8111 20.8223 19.8111 21.642 20.3167 22.1476L27.1691 29L20.3167 35.8524C19.8111 36.358 19.8111 37.1777 20.3167 37.6833C20.8223 38.1889 21.642 38.1889 22.1476 37.6833L29 30.8309L35.8524 37.6833C36.358 38.1889 37.1777 38.1889 37.6833 37.6833C38.1889 37.1777 38.1889 36.358 37.6833 35.8524L30.8309 29L37.6833 22.1476C38.1889 21.642 38.1889 20.8223 37.6833 20.3167C37.1777 19.8111 36.358 19.8111 35.8524 20.3167L29 27.1691L22.1476 20.3167Z" fill="white"/>
</g>
<defs>
<clipPath id="clip0_383_4539">
<rect width="18.125" height="18.125" fill="white" transform="translate(19.9375 19.9375)"/>
</clipPath>
</defs>
</svg>
