<svg width="64" height="64" viewBox="0 0 64 64" fill="none" xmlns="http://www.w3.org/2000/svg">
<rect x="0.75" y="0.75" width="62.5" height="62.5" rx="31.25" fill="black" fill-opacity="0.3"/>
<rect x="0.75" y="0.75" width="62.5" height="62.5" rx="31.25" stroke="white" stroke-width="1.5"/>
<g clip-path="url(#clip0_383_4543)">
<path fill-rule="evenodd" clip-rule="evenodd" d="M26.898 13.3597C28.5789 13.4815 30.3304 14.3009 32.007 15.9593C33.6832 14.3014 35.4332 13.4835 37.1125 13.3645C39.0079 13.23 40.6834 13.9961 41.8958 15.2047C44.2791 17.5809 45.0276 21.8807 42.0701 24.8383C42.0601 24.8482 42.0499 24.858 42.0394 24.8674L32.5824 33.4336C32.2559 33.7293 31.7582 33.7293 31.4316 33.4336L21.9746 24.8674C21.9641 24.858 21.9539 24.8482 21.9439 24.8383C18.971 21.8653 19.7154 17.565 22.1067 15.1906C23.3219 13.9839 25.0009 13.2223 26.898 13.3597Z" fill="white"/>
</g>
<path d="M10.955 44.82C10.955 44.2567 11.0547 43.7063 11.254 43.169C11.4533 42.623 11.7437 42.129 12.125 41.687C12.515 41.2363 12.9873 40.881 13.542 40.621C14.0967 40.3523 14.725 40.218 15.427 40.218C16.259 40.218 16.9783 40.4087 17.585 40.79C18.1917 41.1627 18.6423 41.6437 18.937 42.233L17.793 43C17.6197 42.6273 17.3987 42.3327 17.13 42.116C16.87 41.8993 16.584 41.7477 16.272 41.661C15.9687 41.5743 15.6697 41.531 15.375 41.531C14.8897 41.531 14.465 41.6307 14.101 41.83C13.737 42.0207 13.4293 42.2763 13.178 42.597C12.9353 42.9177 12.749 43.2773 12.619 43.676C12.4977 44.0747 12.437 44.4733 12.437 44.872C12.437 45.314 12.5107 45.743 12.658 46.159C12.8053 46.5663 13.009 46.9303 13.269 47.251C13.5377 47.563 13.854 47.81 14.218 47.992C14.582 48.174 14.9807 48.265 15.414 48.265C15.7087 48.265 16.0163 48.213 16.337 48.109C16.6577 48.005 16.9523 47.8447 17.221 47.628C17.4983 47.4027 17.715 47.108 17.871 46.744L19.08 47.433C18.8893 47.8923 18.5903 48.2823 18.183 48.603C17.7843 48.9237 17.3337 49.1663 16.831 49.331C16.337 49.4957 15.8473 49.578 15.362 49.578C14.712 49.578 14.1183 49.4437 13.581 49.175C13.0437 48.8977 12.58 48.5337 12.19 48.083C11.8 47.6237 11.4967 47.1123 11.28 46.549C11.0633 45.977 10.955 45.4007 10.955 44.82ZM21.3627 49.552V48.33H22.0257C22.2424 48.33 22.4071 48.278 22.5197 48.174C22.6324 48.07 22.7407 47.914 22.8447 47.706L23.1177 47.108L19.3607 40.27H20.9727L23.7807 45.613L26.1597 40.27H27.7067L23.9627 48.395C23.7547 48.8197 23.5251 49.1187 23.2737 49.292C23.0311 49.4653 22.6974 49.552 22.2727 49.552H21.3627ZM28.6282 49.5V40.27H35.9212V49.5H34.4522V41.557H30.0842V49.5H28.6282ZM44.3407 48.213V49.5H38.0097V40.27H44.2237V41.557H39.4657V44.183H43.5867V45.392H39.4657V48.213H44.3407ZM45.8427 49.5V40.27H49.7167C50.1327 40.27 50.5141 40.3567 50.8607 40.53C51.2074 40.7033 51.5107 40.933 51.7707 41.219C52.0307 41.505 52.2301 41.8257 52.3687 42.181C52.5074 42.5363 52.5767 42.9003 52.5767 43.273C52.5767 43.7843 52.4597 44.274 52.2257 44.742C52.0004 45.2013 51.6754 45.574 51.2507 45.86C50.8347 46.146 50.3494 46.289 49.7947 46.289H47.2987V49.5H45.8427ZM47.2987 45.002H49.7037C49.9811 45.002 50.2237 44.9283 50.4317 44.781C50.6397 44.625 50.8001 44.417 50.9127 44.157C51.0341 43.897 51.0947 43.6023 51.0947 43.273C51.0947 42.935 51.0254 42.636 50.8867 42.376C50.7481 42.116 50.5661 41.9167 50.3407 41.778C50.1241 41.6307 49.8857 41.557 49.6257 41.557H47.2987V45.002Z" fill="white"/>
<defs>
<clipPath id="clip0_383_4543">
<rect width="24" height="24" fill="white" transform="translate(20 11.5)"/>
</clipPath>
</defs>
</svg>
