<svg width="48" height="48" viewBox="0 0 48 48" fill="none" xmlns="http://www.w3.org/2000/svg">
<rect x="0.75" y="0.75" width="46.5" height="46.5" rx="23.25" fill="black" fill-opacity="0.3"/>
<rect x="0.75" y="0.75" width="46.5" height="46.5" rx="23.25" stroke="white" stroke-width="1.5"/>
<path fill-rule="evenodd" clip-rule="evenodd" d="M22.1154 17.1453C22.1154 16.7986 21.9066 16.486 21.5863 16.3534C21.266 16.2207 20.8973 16.294 20.6522 16.5392L17.9104 19.2809C17.5757 19.6156 17.5757 20.1584 17.9104 20.4931L20.6522 23.2348C20.8973 23.48 21.266 23.5533 21.5863 23.4206C21.9066 23.288 22.1154 22.9754 22.1154 22.6287V21.0297H24C26.3972 21.0297 28.3407 22.9731 28.3407 25.3704C28.3407 27.7676 26.3972 29.711 24 29.711C21.6027 29.711 19.6594 27.7676 19.6594 25.3704C19.6594 24.7392 19.1477 24.2275 18.5165 24.2275C17.8853 24.2275 17.3737 24.7392 17.3737 25.3704C17.3737 29.03 20.3404 31.9967 24 31.9967C27.6596 31.9967 30.6264 29.03 30.6264 25.3704C30.6264 21.7107 27.6596 18.744 24 18.744H22.1154V17.1453Z" fill="white"/>
</svg>
