<svg width="118" height="24" viewBox="0 0 118 24" fill="none" xmlns="http://www.w3.org/2000/svg">
<rect x="0.5" width="117" height="24" rx="12" fill="#A1F69E"/>
<path d="M8.68395 17L10.7839 7.06H18.8339L16.7339 17H14.8159L16.5659 8.754H12.3519L10.6019 17H8.68395ZM23.4355 17.07C22.7075 17.07 22.0635 16.93 21.5035 16.65C20.9435 16.37 20.4815 15.992 20.1175 15.516C19.7628 15.0307 19.5108 14.4893 19.3615 13.892C19.2121 13.2853 19.1795 12.6647 19.2635 12.03C19.3568 11.3673 19.5668 10.7373 19.8935 10.14C20.2295 9.53333 20.6495 8.99667 21.1535 8.53C21.6668 8.054 22.2408 7.68067 22.8755 7.41C23.5195 7.13 24.1961 6.99 24.9055 6.99C25.6428 6.99 26.2868 7.13467 26.8375 7.424C27.3975 7.704 27.8595 8.08667 28.2235 8.572C28.5875 9.048 28.8395 9.58933 28.9795 10.196C29.1288 10.7933 29.1615 11.414 29.0775 12.058C28.9841 12.73 28.7741 13.3693 28.4475 13.976C28.1208 14.5733 27.7008 15.1053 27.1875 15.572C26.6835 16.0387 26.1095 16.4073 25.4655 16.678C24.8308 16.9393 24.1541 17.07 23.4355 17.07ZM23.7155 15.362C24.1915 15.362 24.6255 15.2687 25.0175 15.082C25.4095 14.886 25.7548 14.6293 26.0535 14.312C26.3521 13.9853 26.5901 13.626 26.7675 13.234C26.9541 12.8327 27.0755 12.4313 27.1315 12.03C27.1875 11.582 27.1781 11.162 27.1035 10.77C27.0288 10.3687 26.8841 10.014 26.6695 9.706C26.4548 9.398 26.1748 9.15533 25.8295 8.978C25.4935 8.80067 25.0968 8.712 24.6395 8.712C24.1635 8.712 23.7248 8.81 23.3235 9.006C22.9315 9.19267 22.5861 9.44467 22.2875 9.762C21.9981 10.0793 21.7601 10.434 21.5735 10.826C21.3961 11.218 21.2748 11.6193 21.2095 12.03C21.1535 12.4593 21.1628 12.8747 21.2375 13.276C21.3121 13.6773 21.4568 14.0367 21.6715 14.354C21.8861 14.662 22.1615 14.9093 22.4975 15.096C22.8428 15.2733 23.2488 15.362 23.7155 15.362ZM29.5062 17L31.6062 7.06H39.6562L37.5562 17H35.6382L37.3882 8.754H33.1742L31.4242 17H29.5062ZM40.8837 17.042L41.2337 15.446H42.0597C42.3304 15.446 42.5684 15.3853 42.7737 15.264C42.9791 15.1333 43.1564 14.942 43.3057 14.69L43.3897 14.564L40.5897 7.06H42.6197L44.3977 12.702L47.3797 7.06H49.3257L44.6777 15.264C44.4351 15.6933 44.1737 16.0387 43.8937 16.3C43.6231 16.5613 43.3151 16.7527 42.9697 16.874C42.6337 16.986 42.2324 17.042 41.7657 17.042H40.8837ZM48.4062 17.056L48.7422 15.39C49.0689 15.39 49.3582 15.3107 49.6102 15.152C49.8715 14.9933 50.1189 14.718 50.3522 14.326C50.5855 13.9247 50.8142 13.3787 51.0382 12.688C51.2715 11.988 51.5189 11.106 51.7802 10.042L52.5082 7.06H59.1862L57.0862 17H55.1542L56.9042 8.754H53.9502L53.5022 10.588C53.1849 11.8667 52.8675 12.9307 52.5502 13.78C52.2329 14.62 51.8829 15.278 51.5002 15.754C51.1175 16.23 50.6742 16.566 50.1702 16.762C49.6755 16.958 49.0875 17.056 48.4062 17.056ZM58.7828 17L62.1708 12.66C61.5455 12.4453 61.0928 12.0767 60.8128 11.554C60.5422 11.0313 60.4675 10.4293 60.5888 9.748C60.6915 9.216 60.9062 8.74933 61.2328 8.348C61.5688 7.93733 61.9888 7.62 62.4928 7.396C63.0062 7.172 63.5755 7.06 64.2008 7.06H68.5408L66.4408 17H64.5228L65.3068 13.248H64.1448C64.0982 13.248 64.0468 13.248 63.9908 13.248C63.9442 13.248 63.8928 13.248 63.8368 13.248L60.9948 17H58.7828ZM63.8088 11.596H65.6708L66.2728 8.712H64.3128C63.8742 8.712 63.4775 8.824 63.1228 9.048C62.7682 9.272 62.5488 9.63133 62.4648 10.126C62.4182 10.406 62.4368 10.658 62.5208 10.882C62.6048 11.106 62.7542 11.2833 62.9688 11.414C63.1835 11.5353 63.4635 11.596 63.8088 11.596ZM70.6124 7.06H74.6164C75.1204 7.06 75.5497 7.19067 75.9044 7.452C76.2684 7.71333 76.5437 8.054 76.7304 8.474C76.9171 8.894 77.0104 9.33733 77.0104 9.804C77.0104 10.2613 76.9124 10.7233 76.7164 11.19C76.5204 11.6473 76.2497 12.0627 75.9044 12.436C75.5684 12.8093 75.1717 13.108 74.7144 13.332C74.2664 13.556 73.7904 13.668 73.2864 13.668H71.1164L70.4164 17H68.4984L70.6124 7.06ZM73.5104 11.974C73.7064 11.974 73.8931 11.9227 74.0704 11.82C74.2571 11.7173 74.4204 11.5773 74.5604 11.4C74.7097 11.2133 74.8264 10.9987 74.9104 10.756C74.9944 10.5133 75.0364 10.2473 75.0364 9.958C75.0364 9.706 74.9944 9.49133 74.9104 9.314C74.8357 9.12733 74.7284 8.98733 74.5884 8.894C74.4484 8.80067 74.2944 8.754 74.1264 8.754H72.1664L71.4804 11.974H73.5104ZM79.0206 7.06H80.9386L80.0846 11.078H84.2286L85.0826 7.06H87.0006L84.8866 17H82.9686L83.8646 12.758H79.7206L78.8246 17H76.9066L79.0206 7.06ZM86.9554 17L89.0554 7.06H90.9734L90.2314 10.616H91.6594C92.3968 10.616 92.9988 10.7467 93.4654 11.008C93.9414 11.2693 94.2774 11.638 94.4734 12.114C94.6694 12.5807 94.7208 13.136 94.6274 13.78C94.5341 14.4147 94.3194 14.9747 93.9834 15.46C93.6474 15.9453 93.2088 16.3233 92.6674 16.594C92.1354 16.8647 91.5148 17 90.8054 17H86.9554ZM89.2234 15.39H90.7634C91.1461 15.39 91.4681 15.32 91.7294 15.18C91.9908 15.0307 92.2008 14.8347 92.3594 14.592C92.5181 14.3493 92.6161 14.0787 92.6534 13.78C92.7094 13.5093 92.7001 13.2573 92.6254 13.024C92.5508 12.7813 92.4061 12.5853 92.1914 12.436C91.9768 12.2867 91.6688 12.212 91.2674 12.212H89.8814L89.2234 15.39ZM97.4554 7.074H99.3734L97.2594 17H95.3414L97.4554 7.074ZM99.3285 17L101.428 7.06H103.346L101.82 14.312L107.826 7.06H109.618L107.518 17H105.6L107.112 9.972L101.176 17H99.3285ZM105.6 6.15C104.807 6.15 104.205 5.97267 103.794 5.618C103.384 5.254 103.22 4.77333 103.304 4.176H104.774C104.737 4.41867 104.807 4.61933 104.984 4.778C105.162 4.92733 105.409 5.002 105.726 5.002C106.072 5.002 106.361 4.92733 106.594 4.778C106.837 4.62867 106.977 4.428 107.014 4.176H108.47C108.414 4.568 108.26 4.91333 108.008 5.212C107.756 5.51067 107.425 5.744 107.014 5.912C106.604 6.07067 106.132 6.15 105.6 6.15Z" fill="#010D0D"/>
</svg>
