<svg width="121" height="31" viewBox="0 0 121 31" fill="none" xmlns="http://www.w3.org/2000/svg">
<rect x="0.5" y="0.5" width="120" height="30" rx="15" fill="white" fill-opacity="0.1"/>
<rect x="0.5" y="0.5" width="120" height="30" rx="15" stroke="#A1F69E"/>
<g clip-path="url(#clip0_383_3818)">
<path fill-rule="evenodd" clip-rule="evenodd" d="M19 10.501C17.8954 10.501 17 11.3964 17 12.501V13.501H21V12.501C21 11.3964 20.1045 10.501 19 10.501ZM15 12.501V13.501C14.1716 13.501 13.5 14.1726 13.5 15.001V21.001C13.5 21.8294 14.1716 22.501 15 22.501H23C23.8285 22.501 24.5 21.8294 24.5 21.001V15.001C24.5 14.1725 23.8285 13.501 23 13.501V12.501C23 10.2918 21.2091 8.50098 19 8.50098C16.7908 8.50098 15 10.2918 15 12.501ZM19 19.251C19.6904 19.251 20.25 18.6914 20.25 18.001C20.25 17.3106 19.6904 16.751 19 16.751C18.3096 16.751 17.75 17.3106 17.75 18.001C17.75 18.6914 18.3096 19.251 19 19.251Z" fill="white"/>
</g>
<path d="M35.28 21V9.64H40.048C40.56 9.64 41.0293 9.74667 41.456 9.96C41.8827 10.1733 42.256 10.456 42.576 10.808C42.896 11.16 43.1413 11.5547 43.312 11.992C43.4827 12.4293 43.568 12.8773 43.568 13.336C43.568 13.9653 43.424 14.568 43.136 15.144C42.8587 15.7093 42.4587 16.168 41.936 16.52C41.424 16.872 40.8267 17.048 40.144 17.048H37.072V21H35.28ZM37.072 15.464H40.032C40.3733 15.464 40.672 15.3733 40.928 15.192C41.184 15 41.3813 14.744 41.52 14.424C41.6693 14.104 41.744 13.7413 41.744 13.336C41.744 12.92 41.6587 12.552 41.488 12.232C41.3173 11.912 41.0933 11.6667 40.816 11.496C40.5493 11.3147 40.256 11.224 39.936 11.224H37.072V15.464ZM45.2488 21V9.64H50.1928C50.7048 9.64 51.1741 9.74667 51.6008 9.96C52.0274 10.1733 52.3954 10.456 52.7048 10.808C53.0248 11.16 53.2701 11.5547 53.4408 11.992C53.6221 12.4293 53.7128 12.8773 53.7128 13.336C53.7128 13.8373 53.6221 14.3173 53.4408 14.776C53.2594 15.2347 52.9981 15.6293 52.6568 15.96C52.3261 16.2907 51.9368 16.5307 51.4888 16.68L54.1608 21H52.1448L49.6808 17.048H47.0408V21H45.2488ZM47.0408 15.464H50.1768C50.5074 15.464 50.8008 15.368 51.0568 15.176C51.3128 14.984 51.5154 14.728 51.6648 14.408C51.8141 14.0773 51.8888 13.72 51.8888 13.336C51.8888 12.9413 51.8034 12.5893 51.6328 12.28C51.4621 11.96 51.2381 11.704 50.9608 11.512C50.6941 11.32 50.4008 11.224 50.0808 11.224H47.0408V15.464ZM63.6189 19.416V21H55.8269V9.64H63.4749V11.224H57.6189V14.456H62.6909V15.944H57.6189V19.416H63.6189ZM75.0195 21V12.904L71.6755 19.048H70.6195L67.2595 12.904V21H65.4675V9.64H67.3875L71.1475 16.584L74.9075 9.64H76.8275V21H75.0195ZM79.3894 21V9.64H81.1814V21H79.3894ZM88.4848 21.08C87.5781 21.08 86.8101 20.9253 86.1808 20.616C85.5621 20.3067 85.0608 19.8853 84.6768 19.352C84.3034 18.8187 84.0261 18.2107 83.8448 17.528C83.6741 16.8453 83.5888 16.136 83.5888 15.4V9.64H85.3808V15.4C85.3808 15.9227 85.4341 16.4293 85.5408 16.92C85.6474 17.4 85.8181 17.832 86.0528 18.216C86.2874 18.6 86.6021 18.904 86.9968 19.128C87.4021 19.352 87.8981 19.464 88.4848 19.464C89.0821 19.464 89.5781 19.352 89.9728 19.128C90.3781 18.8933 90.6928 18.584 90.9167 18.2C91.1514 17.8053 91.3221 17.368 91.4288 16.888C91.5354 16.408 91.5888 15.912 91.5888 15.4V9.64H93.3968V15.4C93.3968 16.1787 93.3008 16.9147 93.1088 17.608C92.9274 18.2907 92.6394 18.8933 92.2448 19.416C91.8608 19.928 91.3594 20.3333 90.7408 20.632C90.1221 20.9307 89.3701 21.08 88.4848 21.08ZM105.332 21V12.904L101.988 19.048H100.932L97.572 12.904V21H95.78V9.64H97.7L101.46 16.584L105.22 9.64H107.14V21H105.332Z" fill="white"/>
<defs>
<clipPath id="clip0_383_3818">
<rect width="14" height="14" fill="white" transform="translate(12 8.5)"/>
</clipPath>
</defs>
</svg>
