<svg width="343" height="64" viewBox="0 0 343 64" fill="none" xmlns="http://www.w3.org/2000/svg">
<rect width="343" height="64" rx="32" fill="#A1F69E"/>
<path d="M34.2683 38.5V25.72H44.1323V38.5H42.5123V27.16H35.8883V38.5H34.2683ZM51.0402 38.68C50.3322 38.68 49.6902 38.554 49.1142 38.302C48.5382 38.038 48.0402 37.684 47.6202 37.24C47.2002 36.784 46.8762 36.262 46.6482 35.674C46.4202 35.086 46.3062 34.468 46.3062 33.82C46.3062 33.16 46.4202 32.536 46.6482 31.948C46.8762 31.36 47.2002 30.844 47.6202 30.4C48.0402 29.944 48.5382 29.59 49.1142 29.338C49.7022 29.074 50.3442 28.942 51.0402 28.942C51.7482 28.942 52.3902 29.074 52.9662 29.338C53.5422 29.59 54.0402 29.944 54.4602 30.4C54.8922 30.844 55.2222 31.36 55.4502 31.948C55.6782 32.536 55.7922 33.16 55.7922 33.82C55.7922 34.468 55.6782 35.086 55.4502 35.674C55.2222 36.262 54.8982 36.784 54.4782 37.24C54.0582 37.684 53.5542 38.038 52.9662 38.302C52.3902 38.554 51.7482 38.68 51.0402 38.68ZM47.9262 33.838C47.9262 34.486 48.0642 35.074 48.3402 35.602C48.6282 36.13 49.0062 36.55 49.4742 36.862C49.9422 37.162 50.4642 37.312 51.0402 37.312C51.6162 37.312 52.1382 37.156 52.6062 36.844C53.0862 36.532 53.4642 36.112 53.7402 35.584C54.0282 35.044 54.1722 34.45 54.1722 33.802C54.1722 33.154 54.0282 32.566 53.7402 32.038C53.4642 31.51 53.0862 31.09 52.6062 30.778C52.1382 30.466 51.6162 30.31 51.0402 30.31C50.4642 30.31 49.9422 30.472 49.4742 30.796C49.0062 31.108 48.6282 31.528 48.3402 32.056C48.0642 32.584 47.9262 33.178 47.9262 33.838ZM56.6676 40.714V37.096H56.8656C57.1296 37.096 57.3696 37.018 57.5856 36.862C57.8136 36.706 58.0116 36.436 58.1796 36.052C58.3596 35.656 58.5036 35.116 58.6116 34.432C58.7196 33.748 58.7916 32.878 58.8276 31.822L58.9176 29.104H65.3076V37.096H66.5856V40.714H65.1816V38.5H58.0716V40.714H56.6676ZM59.0796 37.096H63.7236V30.508H60.3216L60.2676 31.966C60.2316 32.986 60.1596 33.844 60.0516 34.54C59.9556 35.224 59.8236 35.77 59.6556 36.178C59.4996 36.586 59.3076 36.892 59.0796 37.096ZM68.3284 38.5V29.104H76.1224V38.5H74.5384V30.508H69.9124V38.5H68.3284ZM78.6643 38.5V29.122H80.2483V36.376L85.5043 29.104H86.9443V38.5H85.3603V31.39L80.1763 38.5H78.6643ZM93.6333 38.68C92.9253 38.68 92.2773 38.554 91.6893 38.302C91.1133 38.038 90.6093 37.678 90.1773 37.222C89.7573 36.766 89.4273 36.244 89.1873 35.656C88.9593 35.068 88.8453 34.444 88.8453 33.784C88.8453 32.896 89.0433 32.086 89.4393 31.354C89.8353 30.622 90.3933 30.04 91.1133 29.608C91.8333 29.164 92.6673 28.942 93.6153 28.942C94.5393 28.942 95.3433 29.152 96.0273 29.572C96.7233 29.98 97.2393 30.532 97.5753 31.228L96.0273 31.714C95.7873 31.27 95.4513 30.928 95.0193 30.688C94.5873 30.436 94.1073 30.31 93.5793 30.31C93.0033 30.31 92.4753 30.46 91.9953 30.76C91.5273 31.06 91.1553 31.474 90.8793 32.002C90.6033 32.518 90.4653 33.112 90.4653 33.784C90.4653 34.444 90.6033 35.044 90.8793 35.584C91.1673 36.112 91.5453 36.532 92.0133 36.844C92.4933 37.156 93.0213 37.312 93.5973 37.312C93.9693 37.312 94.3233 37.246 94.6593 37.114C95.0073 36.982 95.3073 36.808 95.5593 36.592C95.8233 36.364 96.0033 36.118 96.0993 35.854L97.6473 36.322C97.4553 36.778 97.1613 37.186 96.7653 37.546C96.3813 37.894 95.9193 38.17 95.3793 38.374C94.8513 38.578 94.2693 38.68 93.6333 38.68ZM98.7041 35.782C98.7041 35.182 98.8721 34.666 99.2081 34.234C99.5561 33.79 100.03 33.448 100.63 33.208C101.23 32.968 101.926 32.848 102.718 32.848C103.138 32.848 103.582 32.884 104.05 32.956C104.518 33.016 104.932 33.112 105.292 33.244V32.56C105.292 31.84 105.076 31.276 104.644 30.868C104.212 30.448 103.6 30.238 102.808 30.238C102.292 30.238 101.794 30.334 101.314 30.526C100.846 30.706 100.348 30.97 99.8201 31.318L99.2441 30.202C99.8561 29.782 100.468 29.47 101.08 29.266C101.692 29.05 102.328 28.942 102.988 28.942C104.188 28.942 105.136 29.278 105.832 29.95C106.528 30.61 106.876 31.534 106.876 32.722V36.7C106.876 36.892 106.912 37.036 106.984 37.132C107.068 37.216 107.2 37.264 107.38 37.276V38.5C107.224 38.524 107.086 38.542 106.966 38.554C106.858 38.566 106.768 38.572 106.696 38.572C106.324 38.572 106.042 38.47 105.85 38.266C105.67 38.062 105.568 37.846 105.544 37.618L105.508 37.024C105.1 37.552 104.566 37.96 103.906 38.248C103.246 38.536 102.592 38.68 101.944 38.68C101.32 38.68 100.762 38.554 100.27 38.302C99.7781 38.038 99.3941 37.69 99.1181 37.258C98.8421 36.814 98.7041 36.322 98.7041 35.782ZM104.824 36.448C104.968 36.28 105.082 36.112 105.166 35.944C105.25 35.764 105.292 35.614 105.292 35.494V34.324C104.92 34.18 104.53 34.072 104.122 34C103.714 33.916 103.312 33.874 102.916 33.874C102.112 33.874 101.458 34.036 100.954 34.36C100.462 34.672 100.216 35.104 100.216 35.656C100.216 35.956 100.294 36.25 100.45 36.538C100.618 36.814 100.858 37.042 101.17 37.222C101.494 37.402 101.89 37.492 102.358 37.492C102.85 37.492 103.318 37.396 103.762 37.204C104.206 37 104.56 36.748 104.824 36.448ZM111.589 38.5V30.508H108.349V29.104H116.413V30.508H113.173V38.5H111.589ZM117.987 38.5V29.104H119.571V32.308H121.911C123.015 32.308 123.849 32.59 124.413 33.154C124.989 33.706 125.277 34.432 125.277 35.332C125.277 35.932 125.151 36.472 124.899 36.952C124.659 37.432 124.299 37.81 123.819 38.086C123.339 38.362 122.739 38.5 122.019 38.5H117.987ZM119.571 37.258H121.803C122.247 37.258 122.601 37.174 122.865 37.006C123.141 36.826 123.345 36.592 123.477 36.304C123.609 36.016 123.675 35.704 123.675 35.368C123.675 35.044 123.615 34.744 123.495 34.468C123.375 34.192 123.177 33.97 122.901 33.802C122.625 33.634 122.247 33.55 121.767 33.55H119.571V37.258ZM131.163 38.68C130.455 38.68 129.807 38.554 129.219 38.302C128.643 38.038 128.139 37.678 127.707 37.222C127.287 36.766 126.957 36.244 126.717 35.656C126.489 35.068 126.375 34.444 126.375 33.784C126.375 32.896 126.573 32.086 126.969 31.354C127.365 30.622 127.923 30.04 128.643 29.608C129.363 29.164 130.197 28.942 131.145 28.942C132.069 28.942 132.873 29.152 133.557 29.572C134.253 29.98 134.769 30.532 135.105 31.228L133.557 31.714C133.317 31.27 132.981 30.928 132.549 30.688C132.117 30.436 131.637 30.31 131.109 30.31C130.533 30.31 130.005 30.46 129.525 30.76C129.057 31.06 128.685 31.474 128.409 32.002C128.133 32.518 127.995 33.112 127.995 33.784C127.995 34.444 128.133 35.044 128.409 35.584C128.697 36.112 129.075 36.532 129.543 36.844C130.023 37.156 130.551 37.312 131.127 37.312C131.499 37.312 131.853 37.246 132.189 37.114C132.537 36.982 132.837 36.808 133.089 36.592C133.353 36.364 133.533 36.118 133.629 35.854L135.177 36.322C134.985 36.778 134.691 37.186 134.295 37.546C133.911 37.894 133.449 38.17 132.909 38.374C132.381 38.578 131.799 38.68 131.163 38.68ZM136.181 38.5L138.845 34.72C138.233 34.6 137.741 34.312 137.369 33.856C136.997 33.388 136.811 32.764 136.811 31.984C136.811 31.42 136.943 30.922 137.207 30.49C137.471 30.058 137.837 29.716 138.305 29.464C138.785 29.212 139.343 29.086 139.979 29.086H143.831V38.5H142.247V34.972H140.411L137.927 38.5H136.181ZM140.087 33.802H142.247V30.328H140.267C139.703 30.328 139.253 30.49 138.917 30.814C138.581 31.126 138.413 31.528 138.413 32.02C138.413 32.512 138.551 32.932 138.827 33.28C139.115 33.628 139.535 33.802 140.087 33.802ZM153.88 38.626C152.968 38.626 152.194 38.458 151.558 38.122C150.934 37.774 150.454 37.294 150.118 36.682L151.414 36.106C151.63 36.49 151.936 36.79 152.332 37.006C152.74 37.222 153.232 37.33 153.808 37.33C154.492 37.33 155.032 37.18 155.428 36.88C155.824 36.58 156.022 36.178 156.022 35.674C156.022 35.218 155.86 34.852 155.536 34.576C155.224 34.288 154.78 34.138 154.204 34.126H153.25V33.082H154.258C154.51 33.082 154.732 33.022 154.924 32.902C155.128 32.77 155.284 32.596 155.392 32.38C155.512 32.164 155.572 31.924 155.572 31.66C155.572 31.24 155.422 30.904 155.122 30.652C154.822 30.388 154.372 30.256 153.772 30.256C153.28 30.256 152.866 30.352 152.53 30.544C152.206 30.736 151.942 31.024 151.738 31.408L150.532 30.76C150.832 30.196 151.264 29.758 151.828 29.446C152.404 29.122 153.076 28.96 153.844 28.96C154.456 28.96 154.996 29.062 155.464 29.266C155.944 29.458 156.316 29.74 156.58 30.112C156.856 30.484 156.994 30.934 156.994 31.462C156.994 31.906 156.886 32.32 156.67 32.704C156.466 33.076 156.16 33.358 155.752 33.55C156.316 33.718 156.748 34.012 157.048 34.432C157.348 34.84 157.498 35.326 157.498 35.89C157.498 36.466 157.342 36.958 157.03 37.366C156.718 37.774 156.292 38.086 155.752 38.302C155.212 38.518 154.588 38.626 153.88 38.626ZM158.663 35.782C158.663 35.182 158.831 34.666 159.167 34.234C159.515 33.79 159.989 33.448 160.589 33.208C161.189 32.968 161.885 32.848 162.677 32.848C163.097 32.848 163.541 32.884 164.009 32.956C164.477 33.016 164.891 33.112 165.251 33.244V32.56C165.251 31.84 165.035 31.276 164.603 30.868C164.171 30.448 163.559 30.238 162.767 30.238C162.251 30.238 161.753 30.334 161.273 30.526C160.805 30.706 160.307 30.97 159.779 31.318L159.203 30.202C159.815 29.782 160.427 29.47 161.039 29.266C161.651 29.05 162.287 28.942 162.947 28.942C164.147 28.942 165.095 29.278 165.791 29.95C166.487 30.61 166.835 31.534 166.835 32.722V36.7C166.835 36.892 166.871 37.036 166.943 37.132C167.027 37.216 167.159 37.264 167.339 37.276V38.5C167.183 38.524 167.045 38.542 166.925 38.554C166.817 38.566 166.727 38.572 166.655 38.572C166.283 38.572 166.001 38.47 165.809 38.266C165.629 38.062 165.527 37.846 165.503 37.618L165.467 37.024C165.059 37.552 164.525 37.96 163.865 38.248C163.205 38.536 162.551 38.68 161.903 38.68C161.279 38.68 160.721 38.554 160.229 38.302C159.737 38.038 159.353 37.69 159.077 37.258C158.801 36.814 158.663 36.322 158.663 35.782ZM164.783 36.448C164.927 36.28 165.041 36.112 165.125 35.944C165.209 35.764 165.251 35.614 165.251 35.494V34.324C164.879 34.18 164.489 34.072 164.081 34C163.673 33.916 163.271 33.874 162.875 33.874C162.071 33.874 161.417 34.036 160.913 34.36C160.421 34.672 160.175 35.104 160.175 35.656C160.175 35.956 160.253 36.25 160.409 36.538C160.577 36.814 160.817 37.042 161.129 37.222C161.453 37.402 161.849 37.492 162.317 37.492C162.809 37.492 163.277 37.396 163.721 37.204C164.165 37 164.519 36.748 164.783 36.448ZM173.471 38.5C173.471 37.78 173.531 37.144 173.651 36.592C173.783 36.028 173.969 35.524 174.209 35.08C174.461 34.636 174.761 34.246 175.109 33.91C175.457 33.574 175.853 33.274 176.297 33.01C176.765 32.734 177.245 32.482 177.737 32.254C178.229 32.026 178.685 31.786 179.105 31.534C179.525 31.282 179.861 30.982 180.113 30.634C180.377 30.274 180.509 29.83 180.509 29.302C180.509 28.882 180.419 28.504 180.239 28.168C180.059 27.82 179.789 27.544 179.429 27.34C179.069 27.136 178.607 27.034 178.043 27.034C177.479 27.034 176.969 27.13 176.513 27.322C176.069 27.514 175.685 27.742 175.361 28.006C175.037 28.27 174.779 28.522 174.587 28.762L173.561 27.736C173.657 27.616 173.825 27.436 174.065 27.196C174.317 26.956 174.635 26.71 175.019 26.458C175.415 26.206 175.877 25.996 176.405 25.828C176.933 25.648 177.533 25.558 178.205 25.558C179.105 25.558 179.855 25.726 180.455 26.062C181.055 26.398 181.505 26.848 181.805 27.412C182.117 27.976 182.273 28.6 182.273 29.284C182.273 29.896 182.159 30.424 181.931 30.868C181.703 31.3 181.409 31.666 181.049 31.966C180.689 32.266 180.293 32.53 179.861 32.758C179.441 32.986 179.033 33.202 178.637 33.406C177.881 33.766 177.281 34.096 176.837 34.396C176.393 34.696 176.051 34.99 175.811 35.278C175.583 35.554 175.427 35.836 175.343 36.124C175.271 36.412 175.229 36.724 175.217 37.06H182.291V38.5H173.471ZM184.412 38.5V36.484H185.744V38.5H184.412ZM187.726 38.5C187.726 37.78 187.786 37.144 187.906 36.592C188.038 36.028 188.224 35.524 188.464 35.08C188.716 34.636 189.016 34.246 189.364 33.91C189.712 33.574 190.108 33.274 190.552 33.01C191.02 32.734 191.5 32.482 191.992 32.254C192.484 32.026 192.94 31.786 193.36 31.534C193.78 31.282 194.116 30.982 194.368 30.634C194.632 30.274 194.764 29.83 194.764 29.302C194.764 28.882 194.674 28.504 194.494 28.168C194.314 27.82 194.044 27.544 193.684 27.34C193.324 27.136 192.862 27.034 192.298 27.034C191.734 27.034 191.224 27.13 190.768 27.322C190.324 27.514 189.94 27.742 189.616 28.006C189.292 28.27 189.034 28.522 188.842 28.762L187.816 27.736C187.912 27.616 188.08 27.436 188.32 27.196C188.572 26.956 188.89 26.71 189.274 26.458C189.67 26.206 190.132 25.996 190.66 25.828C191.188 25.648 191.788 25.558 192.46 25.558C193.36 25.558 194.11 25.726 194.71 26.062C195.31 26.398 195.76 26.848 196.06 27.412C196.372 27.976 196.528 28.6 196.528 29.284C196.528 29.896 196.414 30.424 196.186 30.868C195.958 31.3 195.664 31.666 195.304 31.966C194.944 32.266 194.548 32.53 194.116 32.758C193.696 32.986 193.288 33.202 192.892 33.406C192.136 33.766 191.536 34.096 191.092 34.396C190.648 34.696 190.306 34.99 190.066 35.278C189.838 35.554 189.682 35.836 189.598 36.124C189.526 36.412 189.484 36.724 189.472 37.06H196.546V38.5H187.726ZM207.632 34.27C207.632 35.086 207.428 35.83 207.02 36.502C206.624 37.162 206.078 37.69 205.382 38.086C204.698 38.482 203.924 38.68 203.06 38.68C202.148 38.68 201.344 38.464 200.648 38.032C199.952 37.588 199.406 36.952 199.01 36.124C198.626 35.296 198.434 34.312 198.434 33.172C198.434 31.492 198.632 30.094 199.028 28.978C199.424 27.862 199.982 27.028 200.702 26.476C201.422 25.912 202.262 25.63 203.222 25.63C204.05 25.63 204.8 25.834 205.472 26.242C206.156 26.638 206.69 27.19 207.074 27.898L206.102 28.852C205.838 28.288 205.448 27.844 204.932 27.52C204.416 27.184 203.84 27.016 203.204 27.016C202.556 27.016 201.986 27.214 201.494 27.61C201.002 28.006 200.618 28.576 200.342 29.32C200.078 30.064 199.94 30.964 199.928 32.02C200.108 31.6 200.36 31.24 200.684 30.94C201.008 30.628 201.386 30.388 201.818 30.22C202.262 30.052 202.73 29.968 203.222 29.968C204.05 29.968 204.794 30.16 205.454 30.544C206.126 30.928 206.654 31.444 207.038 32.092C207.434 32.74 207.632 33.466 207.632 34.27ZM203.078 37.312C203.63 37.312 204.134 37.174 204.59 36.898C205.058 36.622 205.43 36.256 205.706 35.8C205.982 35.332 206.12 34.822 206.12 34.27C206.12 33.718 205.982 33.214 205.706 32.758C205.43 32.302 205.058 31.936 204.59 31.66C204.134 31.384 203.63 31.246 203.078 31.246C202.526 31.246 202.016 31.384 201.548 31.66C201.092 31.936 200.726 32.302 200.45 32.758C200.174 33.214 200.036 33.718 200.036 34.27C200.036 34.822 200.174 35.332 200.45 35.8C200.726 36.256 201.092 36.622 201.548 36.898C202.016 37.174 202.526 37.312 203.078 37.312ZM218.114 37.798L219.122 37.816V40.426H218.114V37.798ZM218.204 37.6V26.638L219.014 26.512V37.636L218.204 37.6ZM218.114 23.83H219.122V26.404L218.114 26.53V23.83ZM222.128 28.402C221.984 28.234 221.792 28.072 221.552 27.916C221.312 27.76 221.042 27.622 220.742 27.502C220.442 27.37 220.112 27.268 219.752 27.196C219.404 27.112 219.038 27.07 218.654 27.07C217.67 27.07 216.944 27.256 216.476 27.628C216.008 28 215.774 28.51 215.774 29.158C215.774 29.614 215.894 29.974 216.134 30.238C216.374 30.502 216.74 30.718 217.232 30.886C217.736 31.054 218.372 31.228 219.14 31.408C220.028 31.6 220.796 31.834 221.444 32.11C222.092 32.386 222.59 32.758 222.938 33.226C223.286 33.682 223.46 34.294 223.46 35.062C223.46 35.674 223.34 36.208 223.1 36.664C222.872 37.108 222.548 37.48 222.128 37.78C221.708 38.068 221.216 38.284 220.652 38.428C220.088 38.56 219.476 38.626 218.816 38.626C218.168 38.626 217.532 38.56 216.908 38.428C216.296 38.284 215.714 38.08 215.162 37.816C214.61 37.552 214.094 37.222 213.614 36.826L214.388 35.458C214.58 35.662 214.826 35.866 215.126 36.07C215.438 36.262 215.786 36.442 216.17 36.61C216.566 36.778 216.992 36.916 217.448 37.024C217.904 37.12 218.372 37.168 218.852 37.168C219.764 37.168 220.472 37.006 220.976 36.682C221.48 36.346 221.732 35.86 221.732 35.224C221.732 34.744 221.588 34.36 221.3 34.072C221.024 33.784 220.61 33.544 220.058 33.352C219.506 33.16 218.834 32.968 218.042 32.776C217.178 32.56 216.452 32.326 215.864 32.074C215.276 31.81 214.832 31.468 214.532 31.048C214.244 30.628 214.1 30.082 214.1 29.41C214.1 28.594 214.298 27.904 214.694 27.34C215.09 26.776 215.636 26.35 216.332 26.062C217.028 25.774 217.814 25.63 218.69 25.63C219.266 25.63 219.8 25.69 220.292 25.81C220.796 25.93 221.264 26.098 221.696 26.314C222.128 26.53 222.524 26.788 222.884 27.088L222.128 28.402ZM229.994 38.5V29.104H234.854C235.418 29.104 235.886 29.218 236.258 29.446C236.63 29.662 236.906 29.944 237.086 30.292C237.278 30.64 237.374 31.012 237.374 31.408C237.374 31.912 237.254 32.368 237.014 32.776C236.774 33.172 236.426 33.472 235.97 33.676C236.51 33.832 236.948 34.114 237.284 34.522C237.62 34.918 237.788 35.41 237.788 35.998C237.788 36.526 237.662 36.976 237.41 37.348C237.158 37.72 236.804 38.008 236.348 38.212C235.892 38.404 235.364 38.5 234.764 38.5H229.994ZM231.506 37.384H234.728C235.016 37.384 235.274 37.312 235.502 37.168C235.742 37.024 235.928 36.832 236.06 36.592C236.192 36.352 236.258 36.1 236.258 35.836C236.258 35.548 236.192 35.29 236.06 35.062C235.94 34.822 235.766 34.636 235.538 34.504C235.322 34.36 235.07 34.288 234.782 34.288H231.506V37.384ZM231.506 33.244H234.44C234.728 33.244 234.98 33.172 235.196 33.028C235.412 32.872 235.58 32.674 235.7 32.434C235.82 32.194 235.88 31.942 235.88 31.678C235.88 31.282 235.748 30.94 235.484 30.652C235.232 30.364 234.902 30.22 234.494 30.22H231.506V33.244ZM244.338 38.5V29.104H245.922V32.992H250.818V29.104H252.402V38.5H250.818V34.396H245.922V38.5H244.338ZM259.114 38.68C258.406 38.68 257.758 38.554 257.17 38.302C256.594 38.038 256.09 37.684 255.658 37.24C255.238 36.784 254.908 36.262 254.668 35.674C254.44 35.086 254.326 34.462 254.326 33.802C254.326 32.914 254.53 32.104 254.938 31.372C255.346 30.64 255.91 30.052 256.63 29.608C257.362 29.164 258.196 28.942 259.132 28.942C260.08 28.942 260.902 29.17 261.598 29.626C262.306 30.07 262.852 30.658 263.236 31.39C263.632 32.11 263.83 32.89 263.83 33.73C263.83 33.85 263.824 33.97 263.812 34.09C263.812 34.198 263.806 34.282 263.794 34.342H256C256.048 34.954 256.216 35.5 256.504 35.98C256.804 36.448 257.188 36.82 257.656 37.096C258.124 37.36 258.628 37.492 259.168 37.492C259.744 37.492 260.284 37.348 260.788 37.06C261.304 36.772 261.658 36.394 261.85 35.926L263.218 36.304C263.014 36.76 262.708 37.168 262.3 37.528C261.904 37.888 261.43 38.17 260.878 38.374C260.338 38.578 259.75 38.68 259.114 38.68ZM255.946 33.244H262.354C262.306 32.632 262.132 32.092 261.832 31.624C261.532 31.156 261.148 30.79 260.68 30.526C260.212 30.262 259.696 30.13 259.132 30.13C258.58 30.13 258.07 30.262 257.602 30.526C257.134 30.79 256.75 31.156 256.45 31.624C256.162 32.092 255.994 32.632 255.946 33.244ZM264.547 40.714V37.096H264.745C265.009 37.096 265.249 37.018 265.465 36.862C265.693 36.706 265.891 36.436 266.059 36.052C266.239 35.656 266.383 35.116 266.491 34.432C266.599 33.748 266.671 32.878 266.707 31.822L266.797 29.104H273.187V37.096H274.465V40.714H273.061V38.5H265.951V40.714H264.547ZM266.958 37.096H271.603V30.508H268.201L268.147 31.966C268.111 32.986 268.039 33.844 267.931 34.54C267.835 35.224 267.703 35.77 267.535 36.178C267.379 36.586 267.187 36.892 266.958 37.096ZM280.383 38.68C279.675 38.68 279.027 38.554 278.439 38.302C277.863 38.038 277.359 37.684 276.927 37.24C276.507 36.784 276.177 36.262 275.937 35.674C275.709 35.086 275.595 34.462 275.595 33.802C275.595 32.914 275.799 32.104 276.207 31.372C276.615 30.64 277.179 30.052 277.899 29.608C278.631 29.164 279.465 28.942 280.401 28.942C281.349 28.942 282.171 29.17 282.867 29.626C283.575 30.07 284.121 30.658 284.505 31.39C284.901 32.11 285.099 32.89 285.099 33.73C285.099 33.85 285.093 33.97 285.081 34.09C285.081 34.198 285.075 34.282 285.063 34.342H277.269C277.317 34.954 277.485 35.5 277.773 35.98C278.073 36.448 278.457 36.82 278.925 37.096C279.393 37.36 279.897 37.492 280.437 37.492C281.013 37.492 281.553 37.348 282.057 37.06C282.573 36.772 282.927 36.394 283.119 35.926L284.487 36.304C284.283 36.76 283.977 37.168 283.569 37.528C283.173 37.888 282.699 38.17 282.147 38.374C281.607 38.578 281.019 38.68 280.383 38.68ZM277.215 33.244H283.623C283.575 32.632 283.401 32.092 283.101 31.624C282.801 31.156 282.417 30.79 281.949 30.526C281.481 30.262 280.965 30.13 280.401 30.13C279.849 30.13 279.339 30.262 278.871 30.526C278.403 30.79 278.019 31.156 277.719 31.624C277.431 32.092 277.263 32.632 277.215 33.244ZM286.032 38.572V37.15C286.344 37.15 286.62 37.072 286.86 36.916C287.112 36.748 287.334 36.472 287.526 36.088C287.718 35.692 287.868 35.152 287.976 34.468C288.096 33.772 288.174 32.89 288.21 31.822L288.318 29.104H294.708V38.5H293.124V30.508H289.722L289.686 31.966C289.638 33.25 289.53 34.318 289.362 35.17C289.194 36.022 288.96 36.694 288.66 37.186C288.36 37.678 287.988 38.032 287.544 38.248C287.112 38.464 286.608 38.572 286.032 38.572ZM305.024 38.68C304.196 38.68 303.464 38.5 302.828 38.14C302.192 37.78 301.682 37.288 301.298 36.664C300.914 36.028 300.68 35.308 300.596 34.504H298.85V38.5H297.266V29.104H298.85V33.118H300.596C300.692 32.29 300.932 31.564 301.316 30.94C301.712 30.304 302.228 29.812 302.864 29.464C303.5 29.116 304.22 28.942 305.024 28.942C305.972 28.942 306.788 29.164 307.472 29.608C308.156 30.04 308.684 30.622 309.056 31.354C309.428 32.086 309.614 32.908 309.614 33.82C309.614 34.756 309.422 35.59 309.038 36.322C308.666 37.054 308.132 37.63 307.436 38.05C306.752 38.47 305.948 38.68 305.024 38.68ZM305.024 37.312C305.612 37.312 306.128 37.162 306.572 36.862C307.016 36.562 307.364 36.154 307.616 35.638C307.868 35.11 307.994 34.504 307.994 33.82C307.994 33.1 307.862 32.482 307.598 31.966C307.346 31.438 306.992 31.03 306.536 30.742C306.092 30.454 305.588 30.31 305.024 30.31C304.46 30.31 303.956 30.46 303.512 30.76C303.08 31.048 302.744 31.456 302.504 31.984C302.264 32.512 302.144 33.124 302.144 33.82C302.144 34.528 302.264 35.146 302.504 35.674C302.756 36.202 303.098 36.61 303.53 36.898C303.974 37.174 304.472 37.312 305.024 37.312Z" fill="#010D0D"/>
</svg>
