<svg width="343" height="135" viewBox="0 0 343 135" fill="none" xmlns="http://www.w3.org/2000/svg">
<rect x="0.5" y="0.5" width="342" height="134" rx="19.5" fill="#1A2727"/>
<rect x="0.5" y="0.5" width="342" height="134" rx="19.5" stroke="#A1F69E"/>
<g clip-path="url(#clip0_233_3290)">
<circle cx="354.5" cy="67.5" r="140.5" fill="#273434"/>
<path d="M314.084 56.6505C319.552 56.6505 324 52.5199 324 47.4428V43.0448H317.716C315.787 43.0448 313.922 43.5676 312.323 44.5344C312.145 43.6235 311.921 42.7218 311.649 41.8313L313.542 40.8196C315.836 39.5899 317.476 37.6044 318.162 35.2285C318.847 32.8528 318.495 30.3715 317.171 28.2415L314.803 24.4326L309.361 27.3503C307.213 28.5017 305.619 30.3505 304.873 32.556C304.138 34.7271 304.285 37.0576 305.285 39.1224L306.401 41.5901C307.394 44.1767 307.898 46.8962 307.898 49.6744C307.898 62.9342 296.28 73.7217 282.001 73.7217C267.721 73.7217 256.104 62.9342 256.104 49.6744C256.104 46.8884 256.607 44.169 257.599 41.5907L258.715 39.1224C259.715 37.0576 259.862 34.7273 259.127 32.556C258.381 30.3505 256.787 28.5017 254.639 27.3503L249.197 24.4326L246.829 28.2415C245.504 30.3715 245.153 32.8529 245.838 35.2286C246.524 37.6044 248.164 39.5899 250.461 40.8211L252.351 41.831C252.078 42.7208 251.854 43.6226 251.677 44.534C250.078 43.5675 248.213 43.0448 246.284 43.0448H240V47.4428C240 52.52 244.448 56.6505 249.916 56.6505H249.919L252.109 56.6476C252.354 57.5515 252.645 58.4382 252.98 59.3058C252.797 59.296 252.613 59.2899 252.427 59.2899C250.699 59.2899 248.995 59.7136 247.5 60.5153L242.057 63.4331L244.425 67.2418C246.191 70.0823 249.485 71.8468 253.02 71.8468C254.752 71.8468 256.464 71.4198 257.974 70.6105L259.885 69.5828C260.58 70.249 261.311 70.8838 262.073 71.485C260.381 72.2798 258.94 73.516 257.968 75.0802L254.825 80.1337L258.927 82.3327C260.434 83.1406 262.146 83.5676 263.878 83.5676C267.414 83.5676 270.707 81.803 272.475 78.9596L273.564 77.2017C276.246 77.9114 279.076 78.2916 282 78.2916C284.924 78.2916 287.754 77.9116 290.436 77.202L291.527 78.9625C293.293 81.803 296.586 83.5676 300.122 83.5676H300.122C301.854 83.5676 303.566 83.1406 305.073 82.3327L309.175 80.1337L306.032 75.0802C305.06 73.5162 303.619 72.2801 301.928 71.4853C302.69 70.8841 303.42 70.2491 304.116 69.5829L306.029 70.6121C307.536 71.4198 309.248 71.8468 310.98 71.8468H310.981C314.515 71.8468 317.809 70.0823 319.575 67.2418L321.943 63.4331L316.501 60.5155C315.005 59.7137 313.301 59.2901 311.573 59.2901C311.388 59.2901 311.204 59.2962 311.022 59.3058C311.357 58.4382 311.648 57.5515 311.892 56.6478L314.084 56.6505Z" fill="#A1F69E"/>
<path d="M289.354 43.8044L282 38.3413L274.646 43.8044L264.392 39.7521V59.3974H299.609V39.7521L289.354 43.8044Z" fill="#FFDA2D"/>
<path d="M278.514 30.7593L281.993 27.5282L285.473 30.7595L281.994 33.9906L278.514 30.7593Z" fill="#F9F900"/>
<path d="M288.356 33.8057L291.836 30.5746L295.316 33.8059L291.836 37.037L288.356 33.8057Z" fill="#F9F900"/>
<path d="M268.671 33.8047L272.151 30.5736L275.63 33.8049L272.151 37.036L268.671 33.8047Z" fill="#F9F900"/>
<path d="M288.356 33.8057L291.836 30.5746L295.316 33.8059L291.836 37.037L288.356 33.8057Z" fill="#FFDA2D"/>
<path d="M314.084 56.6505C319.551 56.6505 324 52.5199 324 47.4428V43.0448H317.716C315.787 43.0448 313.921 43.5676 312.323 44.5344C312.145 43.6235 311.921 42.7218 311.648 41.8313L313.542 40.8196C315.835 39.5899 317.476 37.6044 318.162 35.2285C318.847 32.8528 318.495 30.3715 317.171 28.2415L314.803 24.4326L309.36 27.3503C307.213 28.5017 305.619 30.3505 304.873 32.556C304.138 34.7271 304.285 37.0576 305.285 39.1224L306.401 41.5901C307.394 44.1767 307.897 46.8962 307.897 49.6744C307.897 62.9342 296.28 73.7217 282 73.7217H282V78.2918H282C284.924 78.2918 287.754 77.9117 290.436 77.2021L291.527 78.9627C293.293 81.8032 296.586 83.5677 300.122 83.5677H300.122C301.854 83.5677 303.566 83.1407 305.073 82.3329L309.175 80.1339L306.032 75.0804C305.06 73.5163 303.619 72.2802 301.928 71.4855C302.69 70.8842 303.42 70.2493 304.116 69.5831L306.029 70.6123C307.536 71.42 309.248 71.847 310.98 71.847H310.981C314.515 71.847 317.809 70.0825 319.575 67.242L321.943 63.4332L316.501 60.5157C315.005 59.7139 313.301 59.2902 311.573 59.2902C311.388 59.2902 311.204 59.2963 311.022 59.3059C311.357 58.4384 311.648 57.5516 311.892 56.6479L314.084 56.6505Z" fill="#019A5A"/>
<path d="M299.609 39.7521L289.354 43.8044L282 38.3413V59.3974H299.609V39.7521Z" fill="#FEBF01"/>
<path d="M285.48 30.7569L282 27.5254V33.9885L285.48 30.7569Z" fill="#FFDA2D"/>
<path d="M241.332 113V100.22H246.75C247.338 100.22 247.878 100.34 248.37 100.58C248.862 100.82 249.288 101.144 249.648 101.552C250.02 101.96 250.308 102.416 250.512 102.92C250.716 103.424 250.818 103.94 250.818 104.468C250.818 105.188 250.65 105.872 250.314 106.52C249.978 107.168 249.516 107.696 248.928 108.104C248.34 108.512 247.644 108.716 246.84 108.716H243.816V113H241.332ZM243.816 106.538H246.696C246.996 106.538 247.266 106.454 247.506 106.286C247.746 106.118 247.938 105.878 248.082 105.566C248.226 105.242 248.298 104.876 248.298 104.468C248.298 104.024 248.214 103.646 248.046 103.334C247.89 103.022 247.68 102.788 247.416 102.632C247.164 102.476 246.888 102.398 246.588 102.398H243.816V106.538ZM252.547 113V100.22H258.199C258.787 100.22 259.327 100.34 259.819 100.58C260.323 100.82 260.755 101.144 261.115 101.552C261.487 101.96 261.769 102.416 261.961 102.92C262.165 103.424 262.267 103.94 262.267 104.468C262.267 105.008 262.171 105.53 261.979 106.034C261.799 106.526 261.535 106.958 261.187 107.33C260.839 107.702 260.431 107.99 259.963 108.194L262.879 113H260.143L257.515 108.716H255.031V113H252.547ZM255.031 106.538H258.145C258.457 106.538 258.733 106.448 258.973 106.268C259.213 106.076 259.405 105.824 259.549 105.512C259.693 105.2 259.765 104.852 259.765 104.468C259.765 104.06 259.681 103.706 259.513 103.406C259.345 103.094 259.129 102.848 258.865 102.668C258.613 102.488 258.337 102.398 258.037 102.398H255.031V106.538ZM273.392 110.822V113H264.518V100.22H273.23V102.398H267.002V105.476H272.384V107.492H267.002V110.822H273.392ZM285.75 113V104.612L282.474 110.858H281.088L277.812 104.612V113H275.328V100.22H277.992L281.772 107.492L285.588 100.22H288.234V113H285.75ZM290.902 113V100.22H293.386V113H290.902ZM301.471 113.09C300.451 113.09 299.581 112.922 298.861 112.586C298.153 112.238 297.577 111.764 297.133 111.164C296.701 110.564 296.383 109.886 296.179 109.13C295.975 108.362 295.873 107.564 295.873 106.736V100.22H298.357V106.736C298.357 107.264 298.405 107.78 298.501 108.284C298.609 108.776 298.783 109.22 299.023 109.616C299.263 110.012 299.581 110.324 299.977 110.552C300.373 110.78 300.865 110.894 301.453 110.894C302.053 110.894 302.551 110.78 302.947 110.552C303.355 110.312 303.673 109.994 303.901 109.598C304.141 109.202 304.315 108.758 304.423 108.266C304.531 107.762 304.585 107.252 304.585 106.736V100.22H307.051V106.736C307.051 107.612 306.943 108.434 306.727 109.202C306.523 109.97 306.193 110.648 305.737 111.236C305.293 111.812 304.717 112.268 304.009 112.604C303.301 112.928 302.455 113.09 301.471 113.09ZM319.975 113V104.612L316.699 110.858H315.313L312.037 104.612V113H309.553V100.22H312.217L315.997 107.492L319.813 100.22H322.459V113H319.975Z" fill="#A1F69E"/>
</g>
<path d="M29.84 21.35V32H28.49V27.155H22.625V32H21.275V21.35H22.625V25.955H28.49V21.35H29.84ZM31.4949 29.735C31.4949 29.235 31.6349 28.805 31.9149 28.445C32.2049 28.075 32.5999 27.79 33.0999 27.59C33.5999 27.39 34.1799 27.29 34.8399 27.29C35.1899 27.29 35.5599 27.32 35.9499 27.38C36.3399 27.43 36.6849 27.51 36.9849 27.62V27.05C36.9849 26.45 36.8049 25.98 36.4449 25.64C36.0849 25.29 35.5749 25.115 34.9149 25.115C34.4849 25.115 34.0699 25.195 33.6699 25.355C33.2799 25.505 32.8649 25.725 32.4249 26.015L31.9449 25.085C32.4549 24.735 32.9649 24.475 33.4749 24.305C33.9849 24.125 34.5149 24.035 35.0649 24.035C36.0649 24.035 36.8549 24.315 37.4349 24.875C38.0149 25.425 38.3049 26.195 38.3049 27.185V30.5C38.3049 30.66 38.3349 30.78 38.3949 30.86C38.4649 30.93 38.5749 30.97 38.7249 30.98V32C38.5949 32.02 38.4799 32.035 38.3799 32.045C38.2899 32.055 38.2149 32.06 38.1549 32.06C37.8449 32.06 37.6099 31.975 37.4499 31.805C37.2999 31.635 37.2149 31.455 37.1949 31.265L37.1649 30.77C36.8249 31.21 36.3799 31.55 35.8299 31.79C35.2799 32.03 34.7349 32.15 34.1949 32.15C33.6749 32.15 33.2099 32.045 32.7999 31.835C32.3899 31.615 32.0699 31.325 31.8399 30.965C31.6099 30.595 31.4949 30.185 31.4949 29.735ZM36.5949 30.29C36.7149 30.15 36.8099 30.01 36.8799 29.87C36.9499 29.72 36.9849 29.595 36.9849 29.495V28.52C36.6749 28.4 36.3499 28.31 36.0099 28.25C35.6699 28.18 35.3349 28.145 35.0049 28.145C34.3349 28.145 33.7899 28.28 33.3699 28.55C32.9599 28.81 32.7549 29.17 32.7549 29.63C32.7549 29.88 32.8199 30.125 32.9499 30.365C33.0899 30.595 33.2899 30.785 33.5499 30.935C33.8199 31.085 34.1499 31.16 34.5399 31.16C34.9499 31.16 35.3399 31.08 35.7099 30.92C36.0799 30.75 36.3749 30.54 36.5949 30.29ZM40.4006 32V24.185H41.7206V30.23L46.1006 24.17H47.3006V32H45.9806V26.075L41.6606 32H40.4006ZM43.8656 23.285C43.1456 23.285 42.6006 23.115 42.2306 22.775C41.8606 22.425 41.6756 21.995 41.6756 21.485H42.6056C42.6056 21.765 42.7006 22 42.8906 22.19C43.0906 22.37 43.4156 22.46 43.8656 22.46C44.3056 22.46 44.6156 22.375 44.7956 22.205C44.9756 22.025 45.0856 21.785 45.1256 21.485H46.0556C46.0556 21.995 45.8706 22.425 45.5006 22.775C45.1306 23.115 44.5856 23.285 43.8656 23.285ZM48.5397 33.845V30.83H48.7047C48.9247 30.83 49.1247 30.765 49.3047 30.635C49.4947 30.505 49.6597 30.28 49.7997 29.96C49.9497 29.63 50.0697 29.18 50.1597 28.61C50.2497 28.04 50.3097 27.315 50.3397 26.435L50.4147 24.17H55.7397V30.83H56.8047V33.845H55.6347V32H49.7097V33.845H48.5397ZM50.5497 30.83H54.4197V25.34H51.5847L51.5397 26.555C51.5097 27.405 51.4497 28.12 51.3597 28.7C51.2797 29.27 51.1697 29.725 51.0297 30.065C50.8997 30.405 50.7397 30.66 50.5497 30.83ZM58.257 32V24.185H59.577V30.23L63.957 24.17H65.157V32H63.837V26.075L59.517 32H58.257ZM71.0451 32V24.17H77.5401V32H76.2201V25.34H72.3651V32H71.0451ZM79.0584 29.735C79.0584 29.235 79.1984 28.805 79.4784 28.445C79.7684 28.075 80.1634 27.79 80.6634 27.59C81.1634 27.39 81.7434 27.29 82.4034 27.29C82.7534 27.29 83.1234 27.32 83.5134 27.38C83.9034 27.43 84.2484 27.51 84.5484 27.62V27.05C84.5484 26.45 84.3684 25.98 84.0084 25.64C83.6484 25.29 83.1384 25.115 82.4784 25.115C82.0484 25.115 81.6334 25.195 81.2334 25.355C80.8434 25.505 80.4284 25.725 79.9884 26.015L79.5084 25.085C80.0184 24.735 80.5284 24.475 81.0384 24.305C81.5484 24.125 82.0784 24.035 82.6284 24.035C83.6284 24.035 84.4184 24.315 84.9984 24.875C85.5784 25.425 85.8684 26.195 85.8684 27.185V30.5C85.8684 30.66 85.8984 30.78 85.9584 30.86C86.0284 30.93 86.1384 30.97 86.2884 30.98V32C86.1584 32.02 86.0434 32.035 85.9434 32.045C85.8534 32.055 85.7784 32.06 85.7184 32.06C85.4084 32.06 85.1734 31.975 85.0134 31.805C84.8634 31.635 84.7784 31.455 84.7584 31.265L84.7284 30.77C84.3884 31.21 83.9434 31.55 83.3934 31.79C82.8434 32.03 82.2984 32.15 81.7584 32.15C81.2384 32.15 80.7734 32.045 80.3634 31.835C79.9534 31.615 79.6334 31.325 79.4034 30.965C79.1734 30.595 79.0584 30.185 79.0584 29.735ZM84.1584 30.29C84.2784 30.15 84.3734 30.01 84.4434 29.87C84.5134 29.72 84.5484 29.595 84.5484 29.495V28.52C84.2384 28.4 83.9134 28.31 83.5734 28.25C83.2334 28.18 82.8984 28.145 82.5684 28.145C81.8984 28.145 81.3534 28.28 80.9334 28.55C80.5234 28.81 80.3184 29.17 80.3184 29.63C80.3184 29.88 80.3834 30.125 80.5134 30.365C80.6534 30.595 80.8534 30.785 81.1134 30.935C81.3834 31.085 81.7134 31.16 82.1034 31.16C82.5134 31.16 82.9034 31.08 83.2734 30.92C83.6434 30.75 83.9384 30.54 84.1584 30.29ZM92.1941 32.15C91.5541 32.15 90.9841 31.99 90.4841 31.67C89.9841 31.35 89.5891 30.945 89.2991 30.455V35.195H87.9791V24.17H89.1491V25.64C89.4591 25.16 89.8641 24.775 90.3641 24.485C90.8641 24.185 91.4091 24.035 91.9991 24.035C92.5391 24.035 93.0341 24.145 93.4841 24.365C93.9341 24.585 94.3241 24.885 94.6541 25.265C94.9841 25.645 95.2391 26.08 95.4191 26.57C95.6091 27.05 95.7041 27.555 95.7041 28.085C95.7041 28.825 95.5541 29.505 95.2541 30.125C94.9641 30.745 94.5541 31.24 94.0241 31.61C93.4941 31.97 92.8841 32.15 92.1941 32.15ZM91.7891 31.01C92.1791 31.01 92.5291 30.93 92.8391 30.77C93.1591 30.6 93.4291 30.38 93.6491 30.11C93.8791 29.83 94.0541 29.515 94.1741 29.165C94.2941 28.815 94.3541 28.455 94.3541 28.085C94.3541 27.695 94.2841 27.325 94.1441 26.975C94.0141 26.625 93.8241 26.315 93.5741 26.045C93.3341 25.775 93.0491 25.565 92.7191 25.415C92.3991 25.255 92.0491 25.175 91.6691 25.175C91.4291 25.175 91.1791 25.22 90.9191 25.31C90.6691 25.4 90.4291 25.53 90.1991 25.7C89.9691 25.86 89.7741 26.045 89.6141 26.255C89.4541 26.465 89.3491 26.69 89.2991 26.93V29.165C89.4491 29.505 89.6491 29.815 89.8991 30.095C90.1491 30.375 90.4391 30.6 90.7691 30.77C91.0991 30.93 91.4391 31.01 91.7891 31.01ZM99.2298 32V25.34H96.5298V24.17H103.25V25.34H100.55V32H99.2298ZM104.561 32V24.17H105.881V27.41H109.961V24.17H111.281V32H109.961V28.58H105.881V32H104.561ZM116.874 32.15C116.284 32.15 115.744 32.045 115.254 31.835C114.774 31.615 114.354 31.32 113.994 30.95C113.644 30.57 113.369 30.135 113.169 29.645C112.979 29.155 112.884 28.635 112.884 28.085C112.884 27.345 113.054 26.67 113.394 26.06C113.734 25.45 114.204 24.96 114.804 24.59C115.414 24.22 116.109 24.035 116.889 24.035C117.679 24.035 118.364 24.225 118.944 24.605C119.534 24.975 119.989 25.465 120.309 26.075C120.639 26.675 120.804 27.325 120.804 28.025C120.804 28.125 120.799 28.225 120.789 28.325C120.789 28.415 120.784 28.485 120.774 28.535H114.279C114.319 29.045 114.459 29.5 114.699 29.9C114.949 30.29 115.269 30.6 115.659 30.83C116.049 31.05 116.469 31.16 116.919 31.16C117.399 31.16 117.849 31.04 118.269 30.8C118.699 30.56 118.994 30.245 119.154 29.855L120.294 30.17C120.124 30.55 119.869 30.89 119.529 31.19C119.199 31.49 118.804 31.725 118.344 31.895C117.894 32.065 117.404 32.15 116.874 32.15ZM114.234 27.62H119.574C119.534 27.11 119.389 26.66 119.139 26.27C118.889 25.88 118.569 25.575 118.179 25.355C117.789 25.135 117.359 25.025 116.889 25.025C116.429 25.025 116.004 25.135 115.614 25.355C115.224 25.575 114.904 25.88 114.654 26.27C114.414 26.66 114.274 27.11 114.234 27.62ZM115.059 22.625V21.095H116.169V22.625H115.059ZM117.489 22.625V21.095H118.599V22.625H117.489ZM126.486 32.15C125.846 32.15 125.276 31.99 124.776 31.67C124.276 31.35 123.881 30.945 123.591 30.455V35.195H122.271V24.17H123.441V25.64C123.751 25.16 124.156 24.775 124.656 24.485C125.156 24.185 125.701 24.035 126.291 24.035C126.831 24.035 127.326 24.145 127.776 24.365C128.226 24.585 128.616 24.885 128.946 25.265C129.276 25.645 129.531 26.08 129.711 26.57C129.901 27.05 129.996 27.555 129.996 28.085C129.996 28.825 129.846 29.505 129.546 30.125C129.256 30.745 128.846 31.24 128.316 31.61C127.786 31.97 127.176 32.15 126.486 32.15ZM126.081 31.01C126.471 31.01 126.821 30.93 127.131 30.77C127.451 30.6 127.721 30.38 127.941 30.11C128.171 29.83 128.346 29.515 128.466 29.165C128.586 28.815 128.646 28.455 128.646 28.085C128.646 27.695 128.576 27.325 128.436 26.975C128.306 26.625 128.116 26.315 127.866 26.045C127.626 25.775 127.341 25.565 127.011 25.415C126.691 25.255 126.341 25.175 125.961 25.175C125.721 25.175 125.471 25.22 125.211 25.31C124.961 25.4 124.721 25.53 124.491 25.7C124.261 25.86 124.066 26.045 123.906 26.255C123.746 26.465 123.641 26.69 123.591 26.93V29.165C123.741 29.505 123.941 29.815 124.191 30.095C124.441 30.375 124.731 30.6 125.061 30.77C125.391 30.93 125.731 31.01 126.081 31.01ZM131.002 29.735C131.002 29.235 131.142 28.805 131.422 28.445C131.712 28.075 132.107 27.79 132.607 27.59C133.107 27.39 133.687 27.29 134.347 27.29C134.697 27.29 135.067 27.32 135.457 27.38C135.847 27.43 136.192 27.51 136.492 27.62V27.05C136.492 26.45 136.312 25.98 135.952 25.64C135.592 25.29 135.082 25.115 134.422 25.115C133.992 25.115 133.577 25.195 133.177 25.355C132.787 25.505 132.372 25.725 131.932 26.015L131.452 25.085C131.962 24.735 132.472 24.475 132.982 24.305C133.492 24.125 134.022 24.035 134.572 24.035C135.572 24.035 136.362 24.315 136.942 24.875C137.522 25.425 137.812 26.195 137.812 27.185V30.5C137.812 30.66 137.842 30.78 137.902 30.86C137.972 30.93 138.082 30.97 138.232 30.98V32C138.102 32.02 137.987 32.035 137.887 32.045C137.797 32.055 137.722 32.06 137.662 32.06C137.352 32.06 137.117 31.975 136.957 31.805C136.807 31.635 136.722 31.455 136.702 31.265L136.672 30.77C136.332 31.21 135.887 31.55 135.337 31.79C134.787 32.03 134.242 32.15 133.702 32.15C133.182 32.15 132.717 32.045 132.307 31.835C131.897 31.615 131.577 31.325 131.347 30.965C131.117 30.595 131.002 30.185 131.002 29.735ZM136.102 30.29C136.222 30.15 136.317 30.01 136.387 29.87C136.457 29.72 136.492 29.595 136.492 29.495V28.52C136.182 28.4 135.857 28.31 135.517 28.25C135.177 28.18 134.842 28.145 134.512 28.145C133.842 28.145 133.297 28.28 132.877 28.55C132.467 28.81 132.262 29.17 132.262 29.63C132.262 29.88 132.327 30.125 132.457 30.365C132.597 30.595 132.797 30.785 133.057 30.935C133.327 31.085 133.657 31.16 134.047 31.16C134.457 31.16 134.847 31.08 135.217 30.92C135.587 30.75 135.882 30.54 136.102 30.29ZM147.406 32.15C146.116 32.15 145.141 31.76 144.481 30.98C143.821 30.2 143.491 29.1 143.491 27.68C143.491 26.71 143.571 25.895 143.731 25.235C143.891 24.565 144.131 24.015 144.451 23.585C144.771 23.145 145.166 22.79 145.636 22.52C146.106 22.24 146.646 22.01 147.256 21.83L150.571 20.825L150.646 21.965L147.421 22.94C146.871 23.12 146.411 23.35 146.041 23.63C145.671 23.91 145.381 24.27 145.171 24.71C144.961 25.15 144.821 25.715 144.751 26.405C145.011 25.875 145.401 25.465 145.921 25.175C146.441 24.875 147.046 24.725 147.736 24.725C148.476 24.725 149.111 24.88 149.641 25.19C150.181 25.49 150.591 25.915 150.871 26.465C151.161 27.005 151.306 27.63 151.306 28.34C151.306 29.1 151.156 29.765 150.856 30.335C150.556 30.905 150.116 31.35 149.536 31.67C148.956 31.99 148.246 32.15 147.406 32.15ZM147.406 31.01C148.216 31.01 148.841 30.775 149.281 30.305C149.731 29.825 149.956 29.19 149.956 28.4C149.956 27.63 149.736 27.005 149.296 26.525C148.856 26.045 148.226 25.805 147.406 25.805C146.926 25.805 146.491 25.905 146.101 26.105C145.721 26.305 145.416 26.6 145.186 26.99C144.966 27.37 144.856 27.84 144.856 28.4C144.856 28.9 144.951 29.35 145.141 29.75C145.341 30.14 145.631 30.45 146.011 30.68C146.391 30.9 146.856 31.01 147.406 31.01ZM152.901 32V24.17H154.221V26.84H155.811C156.731 26.84 157.426 27.075 157.896 27.545C158.376 28.005 158.616 28.61 158.616 29.36C158.616 29.86 158.511 30.31 158.301 30.71C158.101 31.11 157.801 31.425 157.401 31.655C157.001 31.885 156.501 32 155.901 32H152.901ZM154.221 30.965H155.721C156.091 30.965 156.386 30.895 156.606 30.755C156.836 30.605 157.006 30.41 157.116 30.17C157.226 29.93 157.281 29.67 157.281 29.39C157.281 29.12 157.231 28.87 157.131 28.64C157.031 28.41 156.866 28.225 156.636 28.085C156.406 27.945 156.091 27.875 155.691 27.875H154.221V30.965ZM159.966 32V24.185H161.286V32H159.966ZM166.884 32.15C166.294 32.15 165.754 32.045 165.264 31.835C164.784 31.615 164.364 31.315 164.004 30.935C163.654 30.555 163.379 30.12 163.179 29.63C162.989 29.14 162.894 28.62 162.894 28.07C162.894 27.33 163.059 26.655 163.389 26.045C163.719 25.435 164.184 24.95 164.784 24.59C165.384 24.22 166.079 24.035 166.869 24.035C167.639 24.035 168.309 24.21 168.879 24.56C169.459 24.9 169.889 25.36 170.169 25.94L168.879 26.345C168.679 25.975 168.399 25.69 168.039 25.49C167.679 25.28 167.279 25.175 166.839 25.175C166.359 25.175 165.919 25.3 165.519 25.55C165.129 25.8 164.819 26.145 164.589 26.585C164.359 27.015 164.244 27.51 164.244 28.07C164.244 28.62 164.359 29.12 164.589 29.57C164.829 30.01 165.144 30.36 165.534 30.62C165.934 30.88 166.374 31.01 166.854 31.01C167.164 31.01 167.459 30.955 167.739 30.845C168.029 30.735 168.279 30.59 168.489 30.41C168.709 30.22 168.859 30.015 168.939 29.795L170.229 30.185C170.069 30.565 169.824 30.905 169.494 31.205C169.174 31.495 168.789 31.725 168.339 31.895C167.899 32.065 167.414 32.15 166.884 32.15ZM173.629 32V25.34H170.929V24.17H177.649V25.34H174.949V32H173.629ZM183.19 32.15C182.55 32.15 181.98 31.99 181.48 31.67C180.98 31.35 180.585 30.945 180.295 30.455V35.195H178.975V24.17H180.145V25.64C180.455 25.16 180.86 24.775 181.36 24.485C181.86 24.185 182.405 24.035 182.995 24.035C183.535 24.035 184.03 24.145 184.48 24.365C184.93 24.585 185.32 24.885 185.65 25.265C185.98 25.645 186.235 26.08 186.415 26.57C186.605 27.05 186.7 27.555 186.7 28.085C186.7 28.825 186.55 29.505 186.25 30.125C185.96 30.745 185.55 31.24 185.02 31.61C184.49 31.97 183.88 32.15 183.19 32.15ZM182.785 31.01C183.175 31.01 183.525 30.93 183.835 30.77C184.155 30.6 184.425 30.38 184.645 30.11C184.875 29.83 185.05 29.515 185.17 29.165C185.29 28.815 185.35 28.455 185.35 28.085C185.35 27.695 185.28 27.325 185.14 26.975C185.01 26.625 184.82 26.315 184.57 26.045C184.33 25.775 184.045 25.565 183.715 25.415C183.395 25.255 183.045 25.175 182.665 25.175C182.425 25.175 182.175 25.22 181.915 25.31C181.665 25.4 181.425 25.53 181.195 25.7C180.965 25.86 180.77 26.045 180.61 26.255C180.45 26.465 180.345 26.69 180.295 26.93V29.165C180.445 29.505 180.645 29.815 180.895 30.095C181.145 30.375 181.435 30.6 181.765 30.77C182.095 30.93 182.435 31.01 182.785 31.01ZM191.786 32.15C191.196 32.15 190.656 32.045 190.166 31.835C189.686 31.615 189.266 31.32 188.906 30.95C188.556 30.57 188.281 30.135 188.081 29.645C187.891 29.155 187.796 28.635 187.796 28.085C187.796 27.345 187.966 26.67 188.306 26.06C188.646 25.45 189.116 24.96 189.716 24.59C190.326 24.22 191.021 24.035 191.801 24.035C192.591 24.035 193.276 24.225 193.856 24.605C194.446 24.975 194.901 25.465 195.221 26.075C195.551 26.675 195.716 27.325 195.716 28.025C195.716 28.125 195.711 28.225 195.701 28.325C195.701 28.415 195.696 28.485 195.686 28.535H189.191C189.231 29.045 189.371 29.5 189.611 29.9C189.861 30.29 190.181 30.6 190.571 30.83C190.961 31.05 191.381 31.16 191.831 31.16C192.311 31.16 192.761 31.04 193.181 30.8C193.611 30.56 193.906 30.245 194.066 29.855L195.206 30.17C195.036 30.55 194.781 30.89 194.441 31.19C194.111 31.49 193.716 31.725 193.256 31.895C192.806 32.065 192.316 32.15 191.786 32.15ZM189.146 27.62H194.486C194.446 27.11 194.301 26.66 194.051 26.27C193.801 25.88 193.481 25.575 193.091 25.355C192.701 25.135 192.271 25.025 191.801 25.025C191.341 25.025 190.916 25.135 190.526 25.355C190.136 25.575 189.816 25.88 189.566 26.27C189.326 26.66 189.186 27.11 189.146 27.62ZM200.648 32.15C200.058 32.15 199.518 32.045 199.028 31.835C198.548 31.615 198.128 31.32 197.768 30.95C197.418 30.57 197.143 30.135 196.943 29.645C196.753 29.155 196.658 28.635 196.658 28.085C196.658 27.345 196.828 26.67 197.168 26.06C197.508 25.45 197.978 24.96 198.578 24.59C199.188 24.22 199.883 24.035 200.663 24.035C201.453 24.035 202.138 24.225 202.718 24.605C203.308 24.975 203.763 25.465 204.083 26.075C204.413 26.675 204.578 27.325 204.578 28.025C204.578 28.125 204.573 28.225 204.563 28.325C204.563 28.415 204.558 28.485 204.548 28.535H198.053C198.093 29.045 198.233 29.5 198.473 29.9C198.723 30.29 199.043 30.6 199.433 30.83C199.823 31.05 200.243 31.16 200.693 31.16C201.173 31.16 201.623 31.04 202.043 30.8C202.473 30.56 202.768 30.245 202.928 29.855L204.068 30.17C203.898 30.55 203.643 30.89 203.303 31.19C202.973 31.49 202.578 31.725 202.118 31.895C201.668 32.065 201.178 32.15 200.648 32.15ZM198.008 27.62H203.348C203.308 27.11 203.163 26.66 202.913 26.27C202.663 25.88 202.343 25.575 201.953 25.355C201.563 25.135 201.133 25.025 200.663 25.025C200.203 25.025 199.778 25.135 199.388 25.355C198.998 25.575 198.678 25.88 198.428 26.27C198.188 26.66 198.048 27.11 198.008 27.62ZM213.304 32.15C212.714 32.15 212.174 32.045 211.684 31.835C211.204 31.615 210.784 31.315 210.424 30.935C210.074 30.555 209.799 30.12 209.599 29.63C209.409 29.14 209.314 28.62 209.314 28.07C209.314 27.33 209.479 26.655 209.809 26.045C210.139 25.435 210.604 24.95 211.204 24.59C211.804 24.22 212.499 24.035 213.289 24.035C214.059 24.035 214.729 24.21 215.299 24.56C215.879 24.9 216.309 25.36 216.589 25.94L215.299 26.345C215.099 25.975 214.819 25.69 214.459 25.49C214.099 25.28 213.699 25.175 213.259 25.175C212.779 25.175 212.339 25.3 211.939 25.55C211.549 25.8 211.239 26.145 211.009 26.585C210.779 27.015 210.664 27.51 210.664 28.07C210.664 28.62 210.779 29.12 211.009 29.57C211.249 30.01 211.564 30.36 211.954 30.62C212.354 30.88 212.794 31.01 213.274 31.01C213.584 31.01 213.879 30.955 214.159 30.845C214.449 30.735 214.699 30.59 214.909 30.41C215.129 30.22 215.279 30.015 215.359 29.795L216.649 30.185C216.489 30.565 216.244 30.905 215.914 31.205C215.594 31.495 215.209 31.725 214.759 31.895C214.319 32.065 213.834 32.15 213.304 32.15Z" fill="white"/>
<rect x="20" y="80" width="143" height="40" rx="20" fill="#A1F69E"/>
<path d="M45.36 106V94.64H54.128V106H52.688V95.92H46.8V106H45.36ZM60.2684 106.16C59.639 106.16 59.0684 106.048 58.5564 105.824C58.0444 105.589 57.6017 105.275 57.2284 104.88C56.855 104.475 56.567 104.011 56.3644 103.488C56.1617 102.965 56.0604 102.416 56.0604 101.84C56.0604 101.253 56.1617 100.699 56.3644 100.176C56.567 99.6533 56.855 99.1947 57.2284 98.8C57.6017 98.3947 58.0444 98.08 58.5564 97.856C59.079 97.6213 59.6497 97.504 60.2684 97.504C60.8977 97.504 61.4684 97.6213 61.9804 97.856C62.4924 98.08 62.935 98.3947 63.3084 98.8C63.6924 99.1947 63.9857 99.6533 64.1884 100.176C64.391 100.699 64.4924 101.253 64.4924 101.84C64.4924 102.416 64.391 102.965 64.1884 103.488C63.9857 104.011 63.6977 104.475 63.3244 104.88C62.951 105.275 62.503 105.589 61.9804 105.824C61.4684 106.048 60.8977 106.16 60.2684 106.16ZM57.5004 101.856C57.5004 102.432 57.623 102.955 57.8684 103.424C58.1244 103.893 58.4604 104.267 58.8764 104.544C59.2924 104.811 59.7564 104.944 60.2684 104.944C60.7804 104.944 61.2444 104.805 61.6604 104.528C62.087 104.251 62.423 103.877 62.6684 103.408C62.9244 102.928 63.0524 102.4 63.0524 101.824C63.0524 101.248 62.9244 100.725 62.6684 100.256C62.423 99.7867 62.087 99.4133 61.6604 99.136C61.2444 98.8587 60.7804 98.72 60.2684 98.72C59.7564 98.72 59.2924 98.864 58.8764 99.152C58.4604 99.4293 58.1244 99.8027 57.8684 100.272C57.623 100.741 57.5004 101.269 57.5004 101.856ZM65.2705 107.968V104.752H65.4465C65.6812 104.752 65.8945 104.683 66.0865 104.544C66.2892 104.405 66.4652 104.165 66.6145 103.824C66.7745 103.472 66.9025 102.992 66.9985 102.384C67.0945 101.776 67.1585 101.003 67.1905 100.064L67.2705 97.648H72.9505V104.752H74.0865V107.968H72.8385V106H66.5185V107.968H65.2705ZM67.4145 104.752H71.5425V98.896H68.5185L68.4705 100.192C68.4385 101.099 68.3745 101.861 68.2785 102.48C68.1932 103.088 68.0758 103.573 67.9265 103.936C67.7878 104.299 67.6172 104.571 67.4145 104.752ZM75.6356 106V97.648H77.0436V101.088H77.9716L80.5956 97.648H82.1956L79.0756 101.696L82.5636 106H80.9316L77.9716 102.384H77.0436V106H75.6356ZM83.2125 106.064V104.8C83.4898 104.8 83.7352 104.731 83.9485 104.592C84.1725 104.443 84.3698 104.197 84.5405 103.856C84.7112 103.504 84.8445 103.024 84.9405 102.416C85.0472 101.797 85.1165 101.013 85.1485 100.064L85.2445 97.648H90.9245V106H89.5165V98.896H86.4925L86.4605 100.192C86.4178 101.333 86.3218 102.283 86.1725 103.04C86.0232 103.797 85.8152 104.395 85.5485 104.832C85.2818 105.269 84.9512 105.584 84.5565 105.776C84.1725 105.968 83.7245 106.064 83.2125 106.064ZM100.095 106.16C99.3585 106.16 98.7078 106 98.1425 105.68C97.5772 105.36 97.1238 104.923 96.7825 104.368C96.4412 103.803 96.2332 103.163 96.1585 102.448H94.6065V106H93.1985V97.648H94.6065V101.216H96.1585C96.2438 100.48 96.4572 99.8347 96.7985 99.28C97.1505 98.7147 97.6092 98.2773 98.1745 97.968C98.7398 97.6587 99.3798 97.504 100.095 97.504C100.937 97.504 101.663 97.7013 102.271 98.096C102.879 98.48 103.348 98.9973 103.679 99.648C104.009 100.299 104.175 101.029 104.175 101.84C104.175 102.672 104.004 103.413 103.663 104.064C103.332 104.715 102.857 105.227 102.239 105.6C101.631 105.973 100.916 106.16 100.095 106.16ZM100.095 104.944C100.617 104.944 101.076 104.811 101.47 104.544C101.865 104.277 102.175 103.915 102.399 103.456C102.623 102.987 102.735 102.448 102.735 101.84C102.735 101.2 102.617 100.651 102.383 100.192C102.159 99.7227 101.844 99.36 101.439 99.104C101.044 98.848 100.596 98.72 100.095 98.72C99.5932 98.72 99.1452 98.8533 98.7505 99.12C98.3665 99.376 98.0678 99.7387 97.8545 100.208C97.6412 100.677 97.5345 101.221 97.5345 101.84C97.5345 102.469 97.6412 103.019 97.8545 103.488C98.0785 103.957 98.3825 104.32 98.7665 104.576C99.1612 104.821 99.6038 104.944 100.095 104.944ZM110.622 106V102.656C110.291 102.816 109.945 102.933 109.582 103.008C109.23 103.083 108.841 103.12 108.414 103.12C107.507 103.12 106.814 102.885 106.334 102.416C105.865 101.936 105.63 101.221 105.63 100.272V97.648H107.038V100.08C107.038 100.752 107.177 101.243 107.454 101.552C107.731 101.861 108.174 102.016 108.782 102.016C109.123 102.016 109.459 101.979 109.79 101.904C110.131 101.829 110.409 101.728 110.622 101.6V97.648H112.046V106H110.622ZM114.308 106V97.664H115.716V104.112L120.388 97.648H121.668V106H120.26V99.68L115.652 106H114.308ZM125.949 106V98.896H123.069V97.648H130.237V98.896H127.357V106H125.949ZM131.636 106V97.648H133.044V100.496H135.124C136.105 100.496 136.846 100.747 137.348 101.248C137.86 101.739 138.116 102.384 138.116 103.184C138.116 103.717 138.004 104.197 137.78 104.624C137.566 105.051 137.246 105.387 136.82 105.632C136.393 105.877 135.86 106 135.22 106H131.636ZM133.044 104.896H135.028C135.422 104.896 135.737 104.821 135.972 104.672C136.217 104.512 136.398 104.304 136.516 104.048C136.633 103.792 136.692 103.515 136.692 103.216C136.692 102.928 136.638 102.661 136.532 102.416C136.425 102.171 136.249 101.973 136.004 101.824C135.758 101.675 135.422 101.6 134.996 101.6H133.044V104.896Z" fill="#010D0D"/>
<path d="M31.754 61V52.612L28.478 58.858H27.092L23.816 52.612V61H21.332V48.22H23.996L27.776 55.492L31.592 48.22H34.238V61H31.754ZM38.3462 48.22L41.4962 54.232L44.7002 48.22H47.3822L42.7382 56.536V61H40.2722V56.5L35.6462 48.22H38.3462ZM58.347 50.398H54.261V61H51.795V50.398H47.709V48.22H58.347V50.398ZM62.2123 48.22H64.7323L69.4303 61H66.8743L65.6863 57.814H61.2223L60.0522 61H57.4963L62.2123 48.22ZM65.2363 56.068L63.4723 50.794L61.6363 56.068H65.2363ZM74.5937 61V48.22H80.0117C80.5997 48.22 81.1397 48.34 81.6317 48.58C82.1237 48.82 82.5497 49.144 82.9097 49.552C83.2817 49.96 83.5697 50.416 83.7737 50.92C83.9777 51.424 84.0797 51.94 84.0797 52.468C84.0797 53.188 83.9117 53.872 83.5757 54.52C83.2397 55.168 82.7777 55.696 82.1897 56.104C81.6017 56.512 80.9057 56.716 80.1017 56.716H77.0777V61H74.5937ZM77.0777 54.538H79.9577C80.2577 54.538 80.5277 54.454 80.7677 54.286C81.0077 54.118 81.1997 53.878 81.3437 53.566C81.4877 53.242 81.5597 52.876 81.5597 52.468C81.5597 52.024 81.4757 51.646 81.3077 51.334C81.1517 51.022 80.9417 50.788 80.6777 50.632C80.4257 50.476 80.1497 50.398 79.8497 50.398H77.0777V54.538ZM85.8086 61V48.22H91.4606C92.0486 48.22 92.5886 48.34 93.0806 48.58C93.5846 48.82 94.0166 49.144 94.3766 49.552C94.7486 49.96 95.0306 50.416 95.2226 50.92C95.4266 51.424 95.5286 51.94 95.5286 52.468C95.5286 53.008 95.4326 53.53 95.2406 54.034C95.0606 54.526 94.7966 54.958 94.4486 55.33C94.1006 55.702 93.6926 55.99 93.2246 56.194L96.1406 61H93.4046L90.7766 56.716H88.2926V61H85.8086ZM88.2926 54.538H91.4066C91.7186 54.538 91.9946 54.448 92.2346 54.268C92.4746 54.076 92.6666 53.824 92.8106 53.512C92.9546 53.2 93.0266 52.852 93.0266 52.468C93.0266 52.06 92.9426 51.706 92.7746 51.406C92.6066 51.094 92.3906 50.848 92.1266 50.668C91.8746 50.488 91.5986 50.398 91.2986 50.398H88.2926V54.538ZM106.653 58.822V61H97.7793V48.22H106.491V50.398H100.263V53.476H105.645V55.492H100.263V58.822H106.653ZM119.012 61V52.612L115.736 58.858H114.35L111.074 52.612V61H108.59V48.22H111.254L115.034 55.492L118.85 48.22H121.496V61H119.012ZM124.164 61V48.22H126.648V61H124.164ZM134.732 61.09C133.712 61.09 132.842 60.922 132.122 60.586C131.414 60.238 130.838 59.764 130.394 59.164C129.962 58.564 129.644 57.886 129.44 57.13C129.236 56.362 129.134 55.564 129.134 54.736V48.22H131.618V54.736C131.618 55.264 131.666 55.78 131.762 56.284C131.87 56.776 132.044 57.22 132.284 57.616C132.524 58.012 132.842 58.324 133.238 58.552C133.634 58.78 134.126 58.894 134.714 58.894C135.314 58.894 135.812 58.78 136.208 58.552C136.616 58.312 136.934 57.994 137.162 57.598C137.402 57.202 137.576 56.758 137.684 56.266C137.792 55.762 137.846 55.252 137.846 54.736V48.22H140.312V54.736C140.312 55.612 140.204 56.434 139.988 57.202C139.784 57.97 139.454 58.648 138.998 59.236C138.554 59.812 137.978 60.268 137.27 60.604C136.562 60.928 135.716 61.09 134.732 61.09ZM153.236 61V52.612L149.96 58.858H148.574L145.298 52.612V61H142.814V48.22H145.478L149.258 55.492L153.074 48.22H155.72V61H153.236Z" fill="white"/>
<defs>
<clipPath id="clip0_233_3290">
<rect width="129" height="135" fill="white" transform="translate(214)"/>
</clipPath>
</defs>
</svg>
