<svg width="24" height="24" viewBox="0 0 24 24" fill="none" xmlns="http://www.w3.org/2000/svg">
<g clip-path="url(#clip0_702_6173)">
<path fill-rule="evenodd" clip-rule="evenodd" d="M10.2098 5.8136H5.91295C5.66074 5.48904 5.47606 5.03408 5.43698 4.59219C5.39817 4.15368 5.50733 3.84855 5.67562 3.66197C5.83275 3.48773 6.21811 3.22085 7.15198 3.22085C8.00482 3.22085 8.8805 3.8023 9.62379 4.83382C9.85843 5.15945 10.0531 5.4936 10.2098 5.8136ZM2.87554 4.81882C2.9053 5.15515 2.97214 5.48981 3.07125 5.8136H2.05413C1.10736 5.8136 0.339844 6.58112 0.339844 7.52789V9.04004C0.339844 9.98681 1.10736 10.7543 2.05413 10.7543H21.9459C22.8926 10.7543 23.6602 9.98681 23.6602 9.04004V7.52789C23.6602 6.58112 22.8926 5.8136 21.9459 5.8136H20.9287C21.0279 5.48981 21.0946 5.15515 21.1245 4.81882C21.2083 3.87214 21.0026 2.79207 20.2339 1.93978C19.4541 1.07511 18.2803 0.649414 16.848 0.649414C14.792 0.649414 13.2435 2.0072 12.29 3.33051C12.1896 3.46982 12.0928 3.61279 12 3.75852C11.9072 3.61279 11.8104 3.46982 11.71 3.33051C10.7565 2.0072 9.20803 0.649414 7.15198 0.649414C5.7197 0.649414 4.54591 1.07511 3.76608 1.93978C2.99741 2.79207 2.79178 3.87214 2.87554 4.81882ZM13.7902 5.8136H18.0871C18.3393 5.48904 18.5239 5.03408 18.563 4.59219C18.6019 4.15368 18.4927 3.84855 18.3243 3.66197C18.1673 3.48773 17.7819 3.22085 16.848 3.22085C15.9952 3.22085 15.1195 3.8023 14.3762 4.83382C14.1416 5.15945 13.9469 5.4936 13.7902 5.8136ZM2.05413 12.8971H10.9286V23.7516H3.69182C2.74505 23.7516 1.97753 22.9841 1.97753 22.0373V12.8963C2.00301 12.8968 2.02855 12.8971 2.05413 12.8971ZM20.3078 23.7516H13.0714V12.8971H21.9459C21.9713 12.8971 21.9967 12.8968 22.0221 12.8963V22.0373C22.0221 22.9841 21.2546 23.7516 20.3078 23.7516Z" fill="white"/>
</g>
<defs>
<clipPath id="clip0_702_6173">
<rect width="24" height="24" fill="white"/>
</clipPath>
</defs>
</svg>
