<svg width="32" height="32" viewBox="0 0 32 32" fill="none" xmlns="http://www.w3.org/2000/svg">
<rect width="32" height="32" rx="16" fill="#1A2727"/>
<g clip-path="url(#clip0_660_5432)">
<path d="M19.715 8.99902C19.5152 8.99902 19.3174 9.03895 19.1332 9.11645C18.9502 9.19347 18.7843 9.30606 18.6451 9.44768L10.4073 17.6455C10.3462 17.7063 10.3018 17.782 10.2785 17.8651L9.01853 22.3651C8.96982 22.539 9.01873 22.7257 9.14646 22.8535C9.27419 22.9812 9.46088 23.0301 9.63483 22.9814L14.1348 21.7214C14.2179 21.6981 14.2936 21.6537 14.3544 21.5926L22.5521 13.3549L22.5535 13.3535C22.6934 13.2144 22.8045 13.049 22.8804 12.8668C22.9566 12.684 22.9958 12.4879 22.9958 12.2899C22.9958 12.0919 22.9566 11.8958 22.8804 11.713C22.8045 11.5308 22.6934 11.3654 22.5535 11.2262L22.5521 11.2249L20.7859 9.44872C20.6466 9.30661 20.4803 9.19366 20.2968 9.11645C20.1126 9.03895 19.9148 8.99902 19.715 8.99902Z" fill="white"/>
</g>
<defs>
<clipPath id="clip0_660_5432">
<rect width="14" height="14" fill="white" transform="translate(9 9)"/>
</clipPath>
</defs>
</svg>
