<svg width="32" height="32" viewBox="0 0 32 32" fill="none" xmlns="http://www.w3.org/2000/svg">
<rect width="32" height="32" rx="16" fill="#1A2727"/>
<g clip-path="url(#clip0_233_3372)">
<path fill-rule="evenodd" clip-rule="evenodd" d="M20.25 14.5C21.7688 14.5 23 13.2688 23 11.75C23 10.2312 21.7688 9 20.25 9C18.7312 9 17.5 10.2312 17.5 11.75C17.5 11.7937 17.501 11.8372 17.503 11.8805L13.5026 13.8807C13.0267 13.4868 12.416 13.25 11.75 13.25C10.2312 13.25 9 14.4812 9 16C9 17.5188 10.2312 18.75 11.75 18.75C12.416 18.75 13.0267 18.5133 13.5026 18.1193L17.503 20.1196C17.501 20.1628 17.5 20.2063 17.5 20.25C17.5 21.7688 18.7312 23 20.25 23C21.7688 23 23 21.7688 23 20.25C23 18.7312 21.7688 17.5 20.25 17.5C19.4977 17.5 18.8159 17.8021 18.3194 18.2916L14.4754 16.3696C14.4916 16.2487 14.5 16.1253 14.5 16C14.5 15.8747 14.4916 15.7513 14.4754 15.6304L18.3194 13.7084C18.8159 14.1979 19.4977 14.5 20.25 14.5Z" fill="white"/>
</g>
<defs>
<clipPath id="clip0_233_3372">
<rect width="14" height="14" fill="white" transform="translate(9 9)"/>
</clipPath>
</defs>
</svg>
