<svg width="32" height="32" viewBox="0 0 32 32" fill="none" xmlns="http://www.w3.org/2000/svg">
<rect width="32" height="32" rx="16" fill="#1A2727"/>
<g clip-path="url(#clip0_233_3359)">
<path fill-rule="evenodd" clip-rule="evenodd" d="M14.9557 12.3914H12.4492C12.3021 12.202 12.1944 11.9366 12.1716 11.6789C12.1489 11.4231 12.2126 11.2451 12.3108 11.1362C12.4024 11.0346 12.6272 10.8789 13.172 10.8789C13.6695 10.8789 14.1803 11.2181 14.6139 11.8198C14.7508 12.0098 14.8643 12.2047 14.9557 12.3914ZM10.6774 11.8111C10.6948 12.0073 10.7338 12.2025 10.7916 12.3914H10.1982C9.64596 12.3914 9.19824 12.8391 9.19824 13.3913V14.2734C9.19824 14.8257 9.64596 15.2734 10.1982 15.2734H21.8018C22.354 15.2734 22.8018 14.8257 22.8018 14.2734V13.3913C22.8018 12.8391 22.354 12.3914 21.8018 12.3914H21.2084C21.2663 12.2025 21.3052 12.0073 21.3226 11.8111C21.3715 11.2588 21.2515 10.6288 20.8031 10.1316C20.3482 9.62723 19.6635 9.37891 18.828 9.37891C17.6286 9.37891 16.7254 10.171 16.1692 10.9429C16.1106 11.0241 16.0542 11.1075 16 11.1926C15.9458 11.1075 15.8894 11.0241 15.8308 10.9429C15.2746 10.171 14.3714 9.37891 13.172 9.37891C12.3365 9.37891 11.6518 9.62723 11.1969 10.1316C10.7485 10.6288 10.6285 11.2588 10.6774 11.8111ZM17.0443 12.3914H19.5508C19.6979 12.202 19.8056 11.9366 19.8284 11.6789C19.8511 11.4231 19.7874 11.2451 19.6892 11.1362C19.5976 11.0346 19.3728 10.8789 18.828 10.8789C18.3305 10.8789 17.8197 11.2181 17.3861 11.8198C17.2492 12.0098 17.1357 12.2047 17.0443 12.3914ZM10.1982 16.5234H15.375V22.8552H11.1536C10.6013 22.8552 10.1536 22.4075 10.1536 21.8552V16.523C10.1684 16.5232 10.1833 16.5234 10.1982 16.5234ZM20.8462 22.8552H16.625V16.5234H21.8018C21.8166 16.5234 21.8314 16.5232 21.8462 16.523V21.8552C21.8462 22.4075 21.3985 22.8552 20.8462 22.8552Z" fill="white"/>
</g>
<defs>
<clipPath id="clip0_233_3359">
<rect width="14" height="14" fill="white" transform="translate(9 9)"/>
</clipPath>
</defs>
</svg>
