<svg width="165" height="21" viewBox="0 0 165 21" fill="none" xmlns="http://www.w3.org/2000/svg">
<g clip-path="url(#clip0_332_2940)">
<path fill-rule="evenodd" clip-rule="evenodd" d="M5.91429 3.68683C6.0357 3.52496 6.22623 3.42969 6.42857 3.42969H11.5714C11.7738 3.42969 11.9643 3.52496 12.0857 3.68683L13.8214 6.00112H16.0714C16.5829 6.00112 17.0735 6.20431 17.4352 6.56598C17.7969 6.92765 18 7.41819 18 7.92969V15.644C18 16.1554 17.7969 16.6461 17.4352 17.0077C17.0735 17.3694 16.5829 17.5725 16.0714 17.5725H1.92857C1.41708 17.5725 0.926542 17.3694 0.564866 17.0077C0.203188 16.6461 0 16.1554 0 15.644V7.92969C0 7.4182 0.203188 6.92765 0.564866 6.56598C0.926542 6.20431 1.41708 6.00112 1.92857 6.00112H4.17857L5.91429 3.68683ZM12.1646 11.4157C12.1646 13.1634 10.7477 14.5802 8.99999 14.5802C7.25225 14.5802 5.83543 13.1634 5.83543 11.4157C5.83543 9.66793 7.25225 8.25112 8.99999 8.25112C10.7477 8.25112 12.1646 9.66793 12.1646 11.4157Z" fill="#A1F69E"/>
</g>
<path d="M27.19 15V5.06H31.334C31.7727 5.06 32.174 5.15333 32.538 5.34C32.902 5.51733 33.2193 5.76 33.49 6.068C33.7607 6.36667 33.9707 6.70733 34.12 7.09C34.2693 7.46333 34.344 7.846 34.344 8.238C34.344 8.77933 34.2227 9.29733 33.98 9.792C33.7373 10.2773 33.3967 10.674 32.958 10.982C32.5193 11.2807 32.006 11.43 31.418 11.43H28.45V15H27.19ZM28.45 10.31H31.348C31.6933 10.31 31.992 10.2167 32.244 10.03C32.5053 9.84333 32.706 9.59133 32.846 9.274C32.9953 8.95667 33.07 8.61133 33.07 8.238C33.07 7.846 32.986 7.496 32.818 7.188C32.65 6.87067 32.4307 6.62333 32.16 6.446C31.8893 6.26867 31.5907 6.18 31.264 6.18H28.45V10.31ZM38.9507 15.14C38.4 15.14 37.896 15.042 37.4387 14.846C36.9907 14.6407 36.5987 14.3653 36.2627 14.02C35.936 13.6653 35.6793 13.2593 35.4927 12.802C35.3153 12.3447 35.2267 11.8593 35.2267 11.346C35.2267 10.6553 35.3853 10.0253 35.7027 9.456C36.02 8.88667 36.4587 8.42933 37.0187 8.084C37.588 7.73867 38.2367 7.566 38.9647 7.566C39.702 7.566 40.3413 7.74333 40.8827 8.098C41.4333 8.44333 41.858 8.90067 42.1567 9.47C42.4647 10.03 42.6187 10.6367 42.6187 11.29C42.6187 11.3833 42.614 11.4767 42.6047 11.57C42.6047 11.654 42.6 11.7193 42.5907 11.766H36.5287C36.566 12.242 36.6967 12.6667 36.9207 13.04C37.154 13.404 37.4527 13.6933 37.8167 13.908C38.1807 14.1133 38.5727 14.216 38.9927 14.216C39.4407 14.216 39.8607 14.104 40.2527 13.88C40.654 13.656 40.9293 13.362 41.0787 12.998L42.1427 13.292C41.984 13.6467 41.746 13.964 41.4287 14.244C41.1207 14.524 40.752 14.7433 40.3227 14.902C39.9027 15.0607 39.4453 15.14 38.9507 15.14ZM36.4867 10.912H41.4707C41.4333 10.436 41.298 10.016 41.0647 9.652C40.8313 9.288 40.5327 9.00333 40.1687 8.798C39.8047 8.59267 39.4033 8.49 38.9647 8.49C38.5353 8.49 38.1387 8.59267 37.7747 8.798C37.4107 9.00333 37.112 9.288 36.8787 9.652C36.6547 10.016 36.524 10.436 36.4867 10.912ZM43.1761 16.722V13.908H43.3301C43.5355 13.908 43.7221 13.8473 43.8901 13.726C44.0675 13.6047 44.2215 13.3947 44.3521 13.096C44.4921 12.788 44.6041 12.368 44.6881 11.836C44.7721 11.304 44.8281 10.6273 44.8561 9.806L44.9261 7.692H49.8961V13.908H50.8901V16.722H49.7981V15H44.2681V16.722H43.1761ZM45.0521 13.908H48.6641V8.784H46.0181L45.9761 9.918C45.9481 10.7113 45.8921 11.3787 45.8081 11.92C45.7335 12.452 45.6308 12.8767 45.5001 13.194C45.3788 13.5113 45.2295 13.7493 45.0521 13.908ZM51.6856 12.886C51.6856 12.4193 51.8163 12.018 52.0776 11.682C52.3483 11.3367 52.717 11.0707 53.1836 10.884C53.6503 10.6973 54.1916 10.604 54.8076 10.604C55.1343 10.604 55.4796 10.632 55.8436 10.688C56.2076 10.7347 56.5296 10.8093 56.8096 10.912V10.38C56.8096 9.82 56.6416 9.38133 56.3056 9.064C55.9696 8.73733 55.4936 8.574 54.8776 8.574C54.4763 8.574 54.089 8.64867 53.7156 8.798C53.3516 8.938 52.9643 9.14333 52.5536 9.414L52.1056 8.546C52.5816 8.21933 53.0576 7.97667 53.5336 7.818C54.0096 7.65 54.5043 7.566 55.0176 7.566C55.951 7.566 56.6883 7.82733 57.2296 8.35C57.771 8.86333 58.0416 9.582 58.0416 10.506V13.6C58.0416 13.7493 58.0696 13.8613 58.1256 13.936C58.191 14.0013 58.2936 14.0387 58.4336 14.048V15C58.3123 15.0187 58.205 15.0327 58.1116 15.042C58.0276 15.0513 57.9576 15.056 57.9016 15.056C57.6123 15.056 57.393 14.9767 57.2436 14.818C57.1036 14.6593 57.0243 14.4913 57.0056 14.314L56.9776 13.852C56.6603 14.2627 56.245 14.58 55.7316 14.804C55.2183 15.028 54.7096 15.14 54.2056 15.14C53.7203 15.14 53.2863 15.042 52.9036 14.846C52.521 14.6407 52.2223 14.37 52.0076 14.034C51.793 13.6887 51.6856 13.306 51.6856 12.886ZM56.4456 13.404C56.5576 13.2733 56.6463 13.1427 56.7116 13.012C56.777 12.872 56.8096 12.7553 56.8096 12.662V11.752C56.5203 11.64 56.217 11.556 55.8996 11.5C55.5823 11.4347 55.2696 11.402 54.9616 11.402C54.3363 11.402 53.8276 11.528 53.4356 11.78C53.053 12.0227 52.8616 12.3587 52.8616 12.788C52.8616 13.0213 52.9223 13.25 53.0436 13.474C53.1743 13.6887 53.361 13.866 53.6036 14.006C53.8556 14.146 54.1636 14.216 54.5276 14.216C54.9103 14.216 55.2743 14.1413 55.6196 13.992C55.965 13.8333 56.2403 13.6373 56.4456 13.404ZM59.9976 15V7.692H61.2296V10.702H62.0416L64.3376 7.692H65.7376L63.0076 11.234L66.0596 15H64.6316L62.0416 11.836H61.2296V15H59.9976ZM69.0493 15V8.784H66.5293V7.692H72.8013V8.784H70.2813V15H69.0493ZM74.0249 15V7.706H75.2569V13.348L79.3449 7.692H80.4649V15H79.2329V9.47L75.2009 15H74.0249ZM86.3675 15.14C85.7701 15.14 85.2381 14.9907 84.7715 14.692C84.3048 14.3933 83.9361 14.0153 83.6655 13.558V17.982H82.4335V7.692H83.5255V9.064C83.8148 8.616 84.1928 8.25667 84.6595 7.986C85.1261 7.706 85.6348 7.566 86.1855 7.566C86.6895 7.566 87.1515 7.66867 87.5715 7.874C87.9915 8.07933 88.3555 8.35933 88.6635 8.714C88.9715 9.06867 89.2095 9.47467 89.3775 9.932C89.5548 10.38 89.6435 10.8513 89.6435 11.346C89.6435 12.0367 89.5035 12.6713 89.2235 13.25C88.9528 13.8287 88.5701 14.2907 88.0755 14.636C87.5808 14.972 87.0115 15.14 86.3675 15.14ZM85.9895 14.076C86.3535 14.076 86.6801 14.0013 86.9695 13.852C87.2681 13.6933 87.5201 13.488 87.7255 13.236C87.9401 12.9747 88.1035 12.6807 88.2155 12.354C88.3275 12.0273 88.3835 11.6913 88.3835 11.346C88.3835 10.982 88.3181 10.6367 88.1875 10.31C88.0661 9.98333 87.8888 9.694 87.6555 9.442C87.4315 9.19 87.1655 8.994 86.8575 8.854C86.5588 8.70467 86.2321 8.63 85.8775 8.63C85.6535 8.63 85.4201 8.672 85.1775 8.756C84.9441 8.84 84.7201 8.96133 84.5055 9.12C84.2908 9.26933 84.1088 9.442 83.9595 9.638C83.8101 9.834 83.7121 10.044 83.6655 10.268V12.354C83.8055 12.6713 83.9921 12.9607 84.2255 13.222C84.4588 13.4833 84.7295 13.6933 85.0375 13.852C85.3455 14.0013 85.6628 14.076 85.9895 14.076ZM94.3481 15.14C93.7974 15.14 93.2981 15.042 92.8501 14.846C92.4021 14.6407 92.0148 14.3653 91.6881 14.02C91.3614 13.6653 91.1094 13.2593 90.9321 12.802C90.7548 12.3447 90.6661 11.864 90.6661 11.36C90.6661 10.8467 90.7548 10.3613 90.9321 9.904C91.1094 9.44667 91.3614 9.04533 91.6881 8.7C92.0148 8.34533 92.4021 8.07 92.8501 7.874C93.3074 7.66867 93.8068 7.566 94.3481 7.566C94.8988 7.566 95.3981 7.66867 95.8461 7.874C96.2941 8.07 96.6814 8.34533 97.0081 8.7C97.3441 9.04533 97.6008 9.44667 97.7781 9.904C97.9554 10.3613 98.0441 10.8467 98.0441 11.36C98.0441 11.864 97.9554 12.3447 97.7781 12.802C97.6008 13.2593 97.3488 13.6653 97.0221 14.02C96.6954 14.3653 96.3034 14.6407 95.8461 14.846C95.3981 15.042 94.8988 15.14 94.3481 15.14ZM91.9261 11.374C91.9261 11.878 92.0334 12.3353 92.2481 12.746C92.4721 13.1567 92.7661 13.4833 93.1301 13.726C93.4941 13.9593 93.9001 14.076 94.3481 14.076C94.7961 14.076 95.2021 13.9547 95.5661 13.712C95.9394 13.4693 96.2334 13.1427 96.4481 12.732C96.6721 12.312 96.7841 11.85 96.7841 11.346C96.7841 10.842 96.6721 10.3847 96.4481 9.974C96.2334 9.56333 95.9394 9.23667 95.5661 8.994C95.2021 8.75133 94.7961 8.63 94.3481 8.63C93.9001 8.63 93.4941 8.756 93.1301 9.008C92.7661 9.25067 92.4721 9.57733 92.2481 9.988C92.0334 10.3987 91.9261 10.8607 91.9261 11.374ZM99.523 15V7.692H103.303C103.742 7.692 104.106 7.78067 104.395 7.958C104.684 8.126 104.899 8.34533 105.039 8.616C105.188 8.88667 105.263 9.176 105.263 9.484C105.263 9.876 105.17 10.2307 104.983 10.548C104.796 10.856 104.526 11.0893 104.171 11.248C104.591 11.3693 104.932 11.5887 105.193 11.906C105.454 12.214 105.585 12.5967 105.585 13.054C105.585 13.4647 105.487 13.8147 105.291 14.104C105.095 14.3933 104.82 14.6173 104.465 14.776C104.11 14.9253 103.7 15 103.233 15H99.523ZM100.699 14.132H103.205C103.429 14.132 103.63 14.076 103.807 13.964C103.994 13.852 104.138 13.7027 104.241 13.516C104.344 13.3293 104.395 13.1333 104.395 12.928C104.395 12.704 104.344 12.5033 104.241 12.326C104.148 12.1393 104.012 11.9947 103.835 11.892C103.667 11.78 103.471 11.724 103.247 11.724H100.699V14.132ZM100.699 10.912H102.981C103.205 10.912 103.401 10.856 103.569 10.744C103.737 10.6227 103.868 10.4687 103.961 10.282C104.054 10.0953 104.101 9.89933 104.101 9.694C104.101 9.386 103.998 9.12 103.793 8.896C103.597 8.672 103.34 8.56 103.023 8.56H100.699V10.912ZM106.578 12.886C106.578 12.4193 106.709 12.018 106.97 11.682C107.241 11.3367 107.61 11.0707 108.076 10.884C108.543 10.6973 109.084 10.604 109.7 10.604C110.027 10.604 110.372 10.632 110.736 10.688C111.1 10.7347 111.422 10.8093 111.702 10.912V10.38C111.702 9.82 111.534 9.38133 111.198 9.064C110.862 8.73733 110.386 8.574 109.77 8.574C109.369 8.574 108.982 8.64867 108.608 8.798C108.244 8.938 107.857 9.14333 107.446 9.414L106.998 8.546C107.474 8.21933 107.95 7.97667 108.426 7.818C108.902 7.65 109.397 7.566 109.91 7.566C110.844 7.566 111.581 7.82733 112.122 8.35C112.664 8.86333 112.934 9.582 112.934 10.506V13.6C112.934 13.7493 112.962 13.8613 113.018 13.936C113.084 14.0013 113.186 14.0387 113.326 14.048V15C113.205 15.0187 113.098 15.0327 113.004 15.042C112.92 15.0513 112.85 15.056 112.794 15.056C112.505 15.056 112.286 14.9767 112.136 14.818C111.996 14.6593 111.917 14.4913 111.898 14.314L111.87 13.852C111.553 14.2627 111.138 14.58 110.624 14.804C110.111 15.028 109.602 15.14 109.098 15.14C108.613 15.14 108.179 15.042 107.796 14.846C107.414 14.6407 107.115 14.37 106.9 14.034C106.686 13.6887 106.578 13.306 106.578 12.886ZM111.338 13.404C111.45 13.2733 111.539 13.1427 111.604 13.012C111.67 12.872 111.702 12.7553 111.702 12.662V11.752C111.413 11.64 111.11 11.556 110.792 11.5C110.475 11.4347 110.162 11.402 109.854 11.402C109.229 11.402 108.72 11.528 108.328 11.78C107.946 12.0227 107.754 12.3587 107.754 12.788C107.754 13.0213 107.815 13.25 107.936 13.474C108.067 13.6887 108.254 13.866 108.496 14.006C108.748 14.146 109.056 14.216 109.42 14.216C109.803 14.216 110.167 14.1413 110.512 13.992C110.858 13.8333 111.133 13.6373 111.338 13.404ZM116.6 15V8.784H114.08V7.692H120.352V8.784H117.832V15H116.6ZM121.576 15V7.692H122.808V10.184H124.628C125.486 10.184 126.135 10.4033 126.574 10.842C127.022 11.2713 127.246 11.836 127.246 12.536C127.246 13.0027 127.148 13.4227 126.952 13.796C126.765 14.1693 126.485 14.4633 126.112 14.678C125.738 14.8927 125.272 15 124.712 15H121.576ZM122.808 14.034H124.544C124.889 14.034 125.164 13.9687 125.37 13.838C125.584 13.698 125.743 13.516 125.846 13.292C125.948 13.068 126 12.8253 126 12.564C126 12.312 125.953 12.0787 125.86 11.864C125.766 11.6493 125.612 11.4767 125.398 11.346C125.183 11.2153 124.889 11.15 124.516 11.15H122.808V14.034ZM135.505 17.982V15H135.225C134.487 15 133.848 14.832 133.307 14.496C132.775 14.16 132.364 13.7167 132.075 13.166C131.785 12.6153 131.641 12.0133 131.641 11.36C131.641 10.6973 131.785 10.0907 132.075 9.54C132.373 8.98933 132.789 8.546 133.321 8.21C133.862 7.874 134.497 7.706 135.225 7.706H135.505V4.78H136.737V7.706H137.031C137.759 7.706 138.389 7.874 138.921 8.21C139.462 8.546 139.877 8.98933 140.167 9.54C140.465 10.0907 140.615 10.6973 140.615 11.36C140.615 12.0133 140.47 12.6153 140.181 13.166C139.891 13.7167 139.476 14.16 138.935 14.496C138.403 14.832 137.768 15 137.031 15H136.737V17.982H135.505ZM135.225 13.992H135.561V8.714H135.225C134.767 8.714 134.357 8.83533 133.993 9.078C133.638 9.31133 133.358 9.62867 133.153 10.03C132.947 10.4313 132.845 10.8793 132.845 11.374C132.845 11.8687 132.943 12.3167 133.139 12.718C133.344 13.11 133.624 13.4227 133.979 13.656C134.333 13.88 134.749 13.992 135.225 13.992ZM136.681 13.992H137.031C137.497 13.992 137.908 13.88 138.263 13.656C138.627 13.4227 138.907 13.11 139.103 12.718C139.308 12.3167 139.411 11.8687 139.411 11.374C139.411 10.8793 139.308 10.4313 139.103 10.03C138.897 9.62867 138.617 9.31133 138.263 9.078C137.908 8.83533 137.497 8.714 137.031 8.714H136.681V13.992ZM145.303 15.14C144.753 15.14 144.253 15.042 143.805 14.846C143.357 14.6407 142.97 14.3653 142.643 14.02C142.317 13.6653 142.065 13.2593 141.887 12.802C141.71 12.3447 141.621 11.864 141.621 11.36C141.621 10.8467 141.71 10.3613 141.887 9.904C142.065 9.44667 142.317 9.04533 142.643 8.7C142.97 8.34533 143.357 8.07 143.805 7.874C144.263 7.66867 144.762 7.566 145.303 7.566C145.854 7.566 146.353 7.66867 146.801 7.874C147.249 8.07 147.637 8.34533 147.963 8.7C148.299 9.04533 148.556 9.44667 148.733 9.904C148.911 10.3613 148.999 10.8467 148.999 11.36C148.999 11.864 148.911 12.3447 148.733 12.802C148.556 13.2593 148.304 13.6653 147.977 14.02C147.651 14.3653 147.259 14.6407 146.801 14.846C146.353 15.042 145.854 15.14 145.303 15.14ZM142.881 11.374C142.881 11.878 142.989 12.3353 143.203 12.746C143.427 13.1567 143.721 13.4833 144.085 13.726C144.449 13.9593 144.855 14.076 145.303 14.076C145.751 14.076 146.157 13.9547 146.521 13.712C146.895 13.4693 147.189 13.1427 147.403 12.732C147.627 12.312 147.739 11.85 147.739 11.346C147.739 10.842 147.627 10.3847 147.403 9.974C147.189 9.56333 146.895 9.23667 146.521 8.994C146.157 8.75133 145.751 8.63 145.303 8.63C144.855 8.63 144.449 8.756 144.085 9.008C143.721 9.25067 143.427 9.57733 143.203 9.988C142.989 10.3987 142.881 10.8607 142.881 11.374ZM152.27 15V8.784H149.75V7.692H156.022V8.784H153.502V15H152.27ZM160.452 15.14C159.901 15.14 159.402 15.042 158.954 14.846C158.506 14.6407 158.118 14.3653 157.792 14.02C157.465 13.6653 157.213 13.2593 157.036 12.802C156.858 12.3447 156.77 11.864 156.77 11.36C156.77 10.8467 156.858 10.3613 157.036 9.904C157.213 9.44667 157.465 9.04533 157.792 8.7C158.118 8.34533 158.506 8.07 158.954 7.874C159.411 7.66867 159.91 7.566 160.452 7.566C161.002 7.566 161.502 7.66867 161.95 7.874C162.398 8.07 162.785 8.34533 163.112 8.7C163.448 9.04533 163.704 9.44667 163.882 9.904C164.059 10.3613 164.148 10.8467 164.148 11.36C164.148 11.864 164.059 12.3447 163.882 12.802C163.704 13.2593 163.452 13.6653 163.126 14.02C162.799 14.3653 162.407 14.6407 161.95 14.846C161.502 15.042 161.002 15.14 160.452 15.14ZM158.03 11.374C158.03 11.878 158.137 12.3353 158.352 12.746C158.576 13.1567 158.87 13.4833 159.234 13.726C159.598 13.9593 160.004 14.076 160.452 14.076C160.9 14.076 161.306 13.9547 161.67 13.712C162.043 13.4693 162.337 13.1427 162.552 12.732C162.776 12.312 162.888 11.85 162.888 11.346C162.888 10.842 162.776 10.3847 162.552 9.974C162.337 9.56333 162.043 9.23667 161.67 8.994C161.306 8.75133 160.9 8.63 160.452 8.63C160.004 8.63 159.598 8.756 159.234 9.008C158.87 9.25067 158.576 9.57733 158.352 9.988C158.137 10.3987 158.03 10.8607 158.03 11.374Z" fill="#A1F69E"/>
<defs>
<clipPath id="clip0_332_2940">
<rect width="18" height="18" fill="white" transform="translate(0 1.5)"/>
</clipPath>
</defs>
</svg>
