<svg width="20" height="20" viewBox="0 0 20 20" fill="none" xmlns="http://www.w3.org/2000/svg">
<g clip-path="url(#clip0_230_2937)">
<path fill-rule="evenodd" clip-rule="evenodd" d="M2.05621 0.627629C2.45807 0.225764 3.00313 0 3.57144 0H17.8571C18.4254 0 18.9706 0.225764 19.3724 0.627629C19.7743 1.02949 20 1.57453 20 2.14286V16.4286C20 16.9969 19.7743 17.542 19.3724 17.9439C18.9706 18.3457 18.4254 18.5714 17.8571 18.5714H6.51651L0.88754 19.9787C0.634623 20.0419 0.367346 19.9623 0.190213 19.771C0.01308 19.5797 -0.0457713 19.3071 0.0366696 19.0599L1.42859 14.8841V2.14286C1.42859 1.57454 1.65436 1.02949 2.05621 0.627629ZM11.7046 3.99319C11.7046 3.50007 11.3049 3.10033 10.8118 3.10033C10.3187 3.10033 9.91891 3.50007 9.91891 3.99319V9.2198C9.91891 9.71291 10.3187 10.1127 10.8118 10.1127C11.3049 10.1127 11.7046 9.71291 11.7046 9.2198V3.99319ZM9.38651 13.6874C9.38651 12.9002 10.0246 12.2621 10.8118 12.2621C11.5989 12.2621 12.2371 12.9002 12.2371 13.6874C12.2371 14.4746 11.5989 15.1126 10.8118 15.1126C10.0246 15.1126 9.38651 14.4746 9.38651 13.6874Z" fill="white"/>
</g>
<defs>
<clipPath id="clip0_230_2937">
<rect width="20" height="20" fill="white"/>
</clipPath>
</defs>
</svg>
