<svg width="20" height="20" viewBox="0 0 20 20" fill="none" xmlns="http://www.w3.org/2000/svg">
<g clip-path="url(#clip0_230_2933)">
<path fill-rule="evenodd" clip-rule="evenodd" d="M16.0714 7.85714C18.2411 7.85714 20 6.09826 20 3.92857C20 1.75889 18.2411 0 16.0714 0C13.9017 0 12.1429 1.75889 12.1429 3.92857C12.1429 3.99104 12.1443 4.05317 12.1472 4.11493L6.43221 6.97241C5.75244 6.40964 4.88 6.07143 3.92857 6.07143C1.75889 6.07143 0 7.83031 0 10C0 12.1697 1.75889 13.9286 3.92857 13.9286C4.88 13.9286 5.75244 13.5904 6.43221 13.0276L12.1472 15.8851C12.1443 15.9469 12.1429 16.009 12.1429 16.0714C12.1429 18.2411 13.9017 20 16.0714 20C18.2411 20 20 18.2411 20 16.0714C20 13.9017 18.2411 12.1429 16.0714 12.1429C14.9967 12.1429 14.0227 12.5745 13.3134 13.2738L7.82196 10.5281C7.84516 10.3554 7.85714 10.1791 7.85714 10C7.85714 9.82093 7.84516 9.64464 7.82196 9.47193L13.3134 6.72621C14.0227 7.42554 14.9967 7.85714 16.0714 7.85714Z" fill="white"/>
</g>
<defs>
<clipPath id="clip0_230_2933">
<rect width="20" height="20" fill="white"/>
</clipPath>
</defs>
</svg>
