<svg width="132" height="78" viewBox="0 0 132 78" fill="none" xmlns="http://www.w3.org/2000/svg">
<rect x="6" y="6" width="120" height="66" rx="33" fill="#A1F69E"/>
<rect x="3" y="3" width="126" height="72" rx="36" stroke="#A1F69E" stroke-opacity="0.2" stroke-width="6"/>
<g clip-path="url(#clip0_208_1569)">
<path fill-rule="evenodd" clip-rule="evenodd" d="M67.8686 15.1446C67.1671 15.0348 66.5094 15.5145 66.3996 16.216C66.2898 16.9176 66.7695 17.5753 67.471 17.6851C71.9793 18.3906 75.4286 22.2935 75.4286 26.9997C75.4286 32.2069 71.2071 36.4284 65.9999 36.4284C62.0205 36.4284 58.6138 33.9625 57.2304 30.4706C56.9689 29.8105 56.2217 29.4873 55.5615 29.7489C54.9014 30.0104 54.5782 30.7576 54.8398 31.4177C56.5983 35.8566 60.9305 38.9998 65.9999 38.9998C72.6274 38.9998 78 33.6272 78 26.9997C78 21.0073 73.6089 16.0429 67.8686 15.1446ZM64.5665 16.1337C64.7435 16.8213 64.3295 17.5223 63.6419 17.6993C63.2088 17.8107 62.7878 17.9522 62.3812 18.1214C61.7256 18.3942 60.973 18.0838 60.7002 17.4282C60.4275 16.7726 60.7378 16.02 61.3934 15.7472C61.9119 15.5316 62.4487 15.3511 63.0009 15.209C63.6886 15.032 64.3895 15.446 64.5665 16.1337ZM59.4603 18.2469C59.9549 18.7564 59.9428 19.5704 59.4333 20.065C58.797 20.6827 58.2477 21.3891 57.8055 22.1637C57.4534 22.7804 56.6681 22.9949 56.0514 22.6428C55.4348 22.2907 55.2203 21.5054 55.5724 20.8888C56.1353 19.9027 56.8338 19.0047 57.6423 18.2199C58.1517 17.7253 58.9657 17.7374 59.4603 18.2469ZM55.5706 24.0489C56.2737 24.148 56.7634 24.7983 56.6643 25.5014C56.6031 25.9351 56.5714 26.3789 56.5714 26.8308C56.5714 27.5409 55.9958 28.1166 55.2857 28.1166C54.5756 28.1166 54 27.5409 54 26.8308C54 26.2585 54.0402 25.6948 54.118 25.1426C54.2171 24.4394 54.8674 23.9498 55.5706 24.0489ZM61.7143 30.2259V23.7735C61.7143 22.4991 63.0554 21.6702 64.1952 22.2402L70.6477 25.4664C71.9112 26.0981 71.9112 27.9012 70.6477 28.533L64.1952 31.7592C63.0554 32.3292 61.7143 31.5003 61.7143 30.2259Z" fill="#010D0D"/>
</g>
<path d="M24.8608 55V46.2727H26.4418V49.9673H30.4858V46.2727H32.071V55H30.4858V51.2926H26.4418V55H24.8608ZM35.6058 55.1321C35.1911 55.1321 34.8175 55.0582 34.4851 54.9105C34.1555 54.7599 33.8942 54.5384 33.701 54.2457C33.5107 53.9531 33.4155 53.5923 33.4155 53.1634C33.4155 52.794 33.4837 52.4886 33.62 52.2472C33.7564 52.0057 33.9425 51.8125 34.1783 51.6676C34.4141 51.5227 34.6797 51.4134 34.9751 51.3395C35.2734 51.2628 35.5817 51.2074 35.8999 51.1733C36.2834 51.1335 36.5945 51.098 36.8331 51.0668C37.0717 51.0327 37.245 50.9815 37.353 50.9134C37.4638 50.8423 37.5192 50.733 37.5192 50.5852V50.5597C37.5192 50.2386 37.424 49.9901 37.2337 49.8139C37.0433 49.6378 36.7692 49.5497 36.4112 49.5497C36.0334 49.5497 35.7337 49.6321 35.5121 49.7969C35.2933 49.9616 35.1456 50.1562 35.0689 50.3807L33.6286 50.1761C33.7422 49.7784 33.9297 49.446 34.1911 49.179C34.4524 48.9091 34.772 48.7074 35.1499 48.5739C35.5277 48.4375 35.9453 48.3693 36.4027 48.3693C36.718 48.3693 37.032 48.4062 37.3445 48.4801C37.657 48.554 37.9425 48.6761 38.201 48.8466C38.4595 49.0142 38.6669 49.2429 38.8232 49.5327C38.9822 49.8224 39.0618 50.1847 39.0618 50.6193V55H37.5788V54.1009H37.5277C37.4339 54.2827 37.3018 54.4531 37.1314 54.6122C36.9638 54.7685 36.7521 54.8949 36.4964 54.9915C36.2436 55.0852 35.9467 55.1321 35.6058 55.1321ZM36.0064 53.9986C36.3161 53.9986 36.5845 53.9375 36.8118 53.8153C37.0391 53.6903 37.2138 53.5256 37.3359 53.321C37.4609 53.1165 37.5234 52.8935 37.5234 52.652V51.8807C37.4751 51.9205 37.3928 51.9574 37.2763 51.9915C37.1626 52.0256 37.0348 52.0554 36.8928 52.081C36.7507 52.1065 36.6101 52.1293 36.4709 52.1491C36.3317 52.169 36.2109 52.1861 36.1087 52.2003C35.8786 52.2315 35.6726 52.2827 35.4908 52.3537C35.3089 52.4247 35.1655 52.5241 35.0604 52.652C34.9553 52.777 34.9027 52.9389 34.9027 53.1378C34.9027 53.4219 35.0064 53.6364 35.2138 53.7812C35.4212 53.9261 35.6854 53.9986 36.0064 53.9986ZM46.0803 48.4545V55H44.5973V48.4545H46.0803ZM45.3857 51.4119V52.6733C45.218 52.7472 45.0277 52.8139 44.8146 52.8736C44.6044 52.9304 44.3814 52.9759 44.1456 53.0099C43.9126 53.044 43.6797 53.0611 43.4467 53.0611C42.5717 53.0611 41.88 52.8651 41.3714 52.473C40.8658 52.0781 40.6129 51.4631 40.6129 50.6278V48.446H42.0874V50.6278C42.0874 50.9091 42.1371 51.1349 42.2365 51.3054C42.3359 51.4759 42.4865 51.6009 42.6882 51.6804C42.8899 51.7571 43.1428 51.7955 43.4467 51.7955C43.7876 51.7955 44.1115 51.7614 44.4183 51.6932C44.7251 51.625 45.0476 51.5312 45.3857 51.4119ZM49.516 55.1321C49.1012 55.1321 48.7276 55.0582 48.3952 54.9105C48.0657 54.7599 47.8043 54.5384 47.6112 54.2457C47.4208 53.9531 47.3256 53.5923 47.3256 53.1634C47.3256 52.794 47.3938 52.4886 47.5302 52.2472C47.6665 52.0057 47.8526 51.8125 48.0884 51.6676C48.3242 51.5227 48.5898 51.4134 48.8853 51.3395C49.1836 51.2628 49.4918 51.2074 49.81 51.1733C50.1935 51.1335 50.5046 51.098 50.7433 51.0668C50.9819 51.0327 51.1552 50.9815 51.2631 50.9134C51.3739 50.8423 51.4293 50.733 51.4293 50.5852V50.5597C51.4293 50.2386 51.3342 49.9901 51.1438 49.8139C50.9535 49.6378 50.6793 49.5497 50.3214 49.5497C49.9435 49.5497 49.6438 49.6321 49.4222 49.7969C49.2035 49.9616 49.0558 50.1562 48.979 50.3807L47.5387 50.1761C47.6523 49.7784 47.8398 49.446 48.1012 49.179C48.3626 48.9091 48.6822 48.7074 49.06 48.5739C49.4379 48.4375 49.8555 48.3693 50.3129 48.3693C50.6282 48.3693 50.9421 48.4062 51.2546 48.4801C51.5671 48.554 51.8526 48.6761 52.1112 48.8466C52.3697 49.0142 52.5771 49.2429 52.7333 49.5327C52.8924 49.8224 52.9719 50.1847 52.9719 50.6193V55H51.489V54.1009H51.4379C51.3441 54.2827 51.212 54.4531 51.0415 54.6122C50.8739 54.7685 50.6623 54.8949 50.4066 54.9915C50.1538 55.0852 49.8569 55.1321 49.516 55.1321ZM49.9165 53.9986C50.2262 53.9986 50.4947 53.9375 50.7219 53.8153C50.9492 53.6903 51.1239 53.5256 51.2461 53.321C51.3711 53.1165 51.4336 52.8935 51.4336 52.652V51.8807C51.3853 51.9205 51.3029 51.9574 51.1864 51.9915C51.0728 52.0256 50.945 52.0554 50.8029 52.081C50.6609 52.1065 50.5202 52.1293 50.381 52.1491C50.2418 52.169 50.1211 52.1861 50.0188 52.2003C49.7887 52.2315 49.5827 52.2827 49.4009 52.3537C49.2191 52.4247 49.0756 52.5241 48.9705 52.652C48.8654 52.777 48.8129 52.9389 48.8129 53.1378C48.8129 53.4219 48.9165 53.6364 49.1239 53.7812C49.3313 53.9261 49.5955 53.9986 49.9165 53.9986ZM53.7901 49.7202V48.4545H59.5174V49.7202H57.3995V55H55.908V49.7202H53.7901ZM61.7898 50.5852H63.7202C64.5554 50.5852 65.2017 50.7884 65.6591 51.1946C66.1165 51.6009 66.3466 52.1335 66.3494 52.7926C66.3466 53.2216 66.2415 53.6023 66.0341 53.9347C65.8295 54.267 65.5313 54.5284 65.1392 54.7188C64.75 54.9062 64.277 55 63.7202 55H60.7457V48.4545H62.233V53.7344H63.7202C64.0554 53.7344 64.331 53.6491 64.5469 53.4787C64.7628 53.3054 64.8707 53.0838 64.8707 52.8139C64.8707 52.5298 64.7628 52.2983 64.5469 52.1193C64.331 51.9403 64.0554 51.8509 63.7202 51.8509H61.7898V50.5852ZM73.5032 55.1278C72.8498 55.1278 72.2887 54.9844 71.82 54.6974C71.354 54.4105 70.9947 54.0142 70.7418 53.5085C70.4918 53 70.3668 52.4148 70.3668 51.7528C70.3668 51.0881 70.4947 50.5014 70.7504 49.9929C71.006 49.4815 71.3668 49.0838 71.8327 48.7997C72.3015 48.5128 72.8555 48.3693 73.4947 48.3693C74.0259 48.3693 74.4961 48.4673 74.9052 48.6634C75.3171 48.8565 75.6452 49.1307 75.8896 49.4858C76.1339 49.8381 76.2731 50.25 76.3072 50.7216H74.8327C74.7731 50.4062 74.631 50.1435 74.4066 49.9332C74.185 49.7202 73.8881 49.6136 73.516 49.6136C73.2006 49.6136 72.9237 49.6989 72.685 49.8693C72.4464 50.0369 72.2603 50.2784 72.1268 50.5938C71.9961 50.9091 71.9308 51.2869 71.9308 51.7273C71.9308 52.1733 71.9961 52.5568 72.1268 52.8778C72.2575 53.196 72.4407 53.4418 72.6765 53.6151C72.9151 53.7855 73.195 53.8707 73.516 53.8707C73.7433 53.8707 73.9464 53.8281 74.1254 53.7429C74.3072 53.6548 74.4592 53.5284 74.5813 53.3636C74.7035 53.1989 74.7873 52.9986 74.8327 52.7628H76.3072C76.2702 53.2259 76.1339 53.6364 75.8981 53.9943C75.6623 54.3494 75.3413 54.6278 74.935 54.8295C74.5288 55.0284 74.0515 55.1278 73.5032 55.1278ZM77.0987 49.7202V48.4545H82.826V49.7202H80.7081V55H79.2166V49.7202H77.0987ZM84.0543 57.4545V48.4545H85.5714V49.5369H85.6609C85.7404 49.3778 85.8526 49.2088 85.9975 49.0298C86.1424 48.848 86.3384 48.6932 86.5856 48.5653C86.8327 48.4347 87.1481 48.3693 87.5316 48.3693C88.0373 48.3693 88.4933 48.4986 88.8995 48.7571C89.3086 49.0128 89.6325 49.392 89.8711 49.8949C90.1126 50.3949 90.2333 51.0085 90.2333 51.7358C90.2333 52.4545 90.1154 53.0653 89.8796 53.5682C89.6438 54.071 89.3228 54.4545 88.9165 54.7188C88.5103 54.983 88.0501 55.1151 87.5359 55.1151C87.1609 55.1151 86.8498 55.0526 86.6026 54.9276C86.3555 54.8026 86.1566 54.652 86.006 54.4759C85.8583 54.2969 85.7433 54.1278 85.6609 53.9688H85.5969V57.4545H84.0543ZM85.5671 51.7273C85.5671 52.1506 85.6268 52.5213 85.7461 52.8395C85.8683 53.1577 86.043 53.4062 86.2702 53.5852C86.5004 53.7614 86.7788 53.8494 87.1055 53.8494C87.4464 53.8494 87.7319 53.7585 87.962 53.5767C88.1921 53.392 88.3654 53.1406 88.4819 52.8224C88.6012 52.5014 88.6609 52.1364 88.6609 51.7273C88.6609 51.321 88.6026 50.9602 88.4862 50.6449C88.3697 50.3295 88.1964 50.0824 87.9663 49.9034C87.7362 49.7244 87.4492 49.6349 87.1055 49.6349C86.7759 49.6349 86.4961 49.7216 86.266 49.8949C86.0359 50.0682 85.8612 50.3111 85.7418 50.6236C85.6254 50.9361 85.5671 51.304 85.5671 51.7273ZM93.0415 52.9119L95.6623 48.4545H97.2475V55H95.756V50.5384L93.1438 55H91.5543V48.4545H93.0415V52.9119ZM102.599 53.206L104.542 48.4545H105.786L103.14 55H102.062L99.4751 48.4545H100.707L102.599 53.206ZM100.319 48.4545V55H98.8317V48.4545H100.319ZM104.942 55V48.4545H106.417V55H104.942Z" fill="#010D0D"/>
<defs>
<clipPath id="clip0_208_1569">
<rect width="24" height="24" fill="white" transform="translate(54 15)"/>
</clipPath>
</defs>
</svg>
