<svg width="32" height="32" viewBox="0 0 32 32" fill="none" xmlns="http://www.w3.org/2000/svg">
<rect width="32" height="32" rx="16" fill="#1A2727"/>
<g clip-path="url(#clip0_233_3378)">
<path fill-rule="evenodd" clip-rule="evenodd" d="M15.9866 10.5005C15.5683 10.493 15.1526 10.5681 14.7634 10.7215C14.3742 10.875 14.0191 11.1037 13.7184 11.3946C13.4177 11.6855 13.1774 12.0328 13.0112 12.4168C12.8457 12.7991 12.757 13.2101 12.75 13.6266V14V16.2506V18C12.75 18.5523 12.3023 19 11.75 19H10.5C9.67157 19 9 18.3284 9 17.5V15.5C9 14.6716 9.67157 14 10.5 14H11.25V13.6206V13.6093C11.2593 12.9937 11.3901 12.3859 11.6346 11.8209C11.8792 11.2559 12.2329 10.7447 12.6754 10.3165C13.1179 9.88842 13.6405 9.55183 14.2133 9.32604C14.7819 9.1019 15.3889 8.99133 16 9.00053C16.6111 8.99133 17.2181 9.1019 17.7867 9.32604C18.3595 9.55183 18.8821 9.88842 19.3246 10.3165C19.7671 10.7447 20.1208 11.2559 20.3653 11.8209C20.6099 12.3859 20.7406 12.9937 20.7499 13.6093L20.7501 13.6206L20.75 14H21.5C22.3284 14 23 14.6716 23 15.5V17.5C23 18.3284 22.3284 19 21.5 19H20.75V19.5C20.75 20.2293 20.4603 20.9288 19.9445 21.4445C19.5022 21.8868 18.9248 22.1629 18.3093 22.2326C18.0525 22.6905 17.5624 23 17 23H15.5C14.6716 23 14 22.3284 14 21.5C14 20.6716 14.6716 20 15.5 20H17C17.542 20 18.0168 20.2874 18.2804 20.7182C18.5071 20.666 18.7167 20.551 18.8839 20.3839C19.1183 20.1495 19.25 19.8315 19.25 19.5V13.6266C19.243 13.2101 19.1543 12.7991 18.9888 12.4168C18.8226 12.0328 18.5823 11.6855 18.2816 11.3946C17.9809 11.1037 17.6258 10.875 17.2366 10.7215C16.8474 10.5681 16.4317 10.493 16.0134 10.5005C16.0045 10.5007 15.9955 10.5007 15.9866 10.5005Z" fill="white"/>
</g>
<defs>
<clipPath id="clip0_233_3378">
<rect width="14" height="14" fill="white" transform="translate(9 9)"/>
</clipPath>
</defs>
</svg>
