<svg width="338" height="46" viewBox="0 0 338 46" fill="none" xmlns="http://www.w3.org/2000/svg">
<path opacity="0.7" d="M0.232063 9V0.48H6.66406V9H5.82406V1.224H1.07206V9H0.232063ZM11.2945 9.12C10.8465 9.12 10.4305 9.036 10.0465 8.868C9.67047 8.692 9.34247 8.456 9.06247 8.16C8.79047 7.856 8.57847 7.512 8.42647 7.128C8.27447 6.736 8.19847 6.324 8.19847 5.892C8.19847 5.444 8.27447 5.028 8.42647 4.644C8.57847 4.252 8.79447 3.908 9.07447 3.612C9.35447 3.308 9.68247 3.072 10.0585 2.904C10.4425 2.728 10.8585 2.64 11.3065 2.64C11.7545 2.64 12.1665 2.728 12.5425 2.904C12.9185 3.072 13.2465 3.308 13.5265 3.612C13.8065 3.908 14.0225 4.252 14.1745 4.644C14.3265 5.028 14.4025 5.444 14.4025 5.892C14.4025 6.324 14.3265 6.736 14.1745 7.128C14.0225 7.512 13.8065 7.856 13.5265 8.16C13.2545 8.456 12.9265 8.692 12.5425 8.868C12.1665 9.036 11.7505 9.12 11.2945 9.12ZM9.02647 5.904C9.02647 6.368 9.12647 6.792 9.32647 7.176C9.53447 7.552 9.81047 7.852 10.1545 8.076C10.4985 8.292 10.8785 8.4 11.2945 8.4C11.7105 8.4 12.0905 8.288 12.4345 8.064C12.7785 7.84 13.0545 7.536 13.2625 7.152C13.4705 6.76 13.5745 6.336 13.5745 5.88C13.5745 5.416 13.4705 4.992 13.2625 4.608C13.0545 4.224 12.7785 3.92 12.4345 3.696C12.0905 3.472 11.7105 3.36 11.2945 3.36C10.8785 3.36 10.4985 3.476 10.1545 3.708C9.81847 3.94 9.54647 4.248 9.33847 4.632C9.13047 5.008 9.02647 5.432 9.02647 5.904ZM15.0712 10.452V8.268H15.1792C15.3632 8.268 15.5312 8.212 15.6832 8.1C15.8352 7.988 15.9712 7.792 16.0912 7.512C16.2112 7.232 16.3072 6.848 16.3792 6.36C16.4512 5.864 16.4992 5.24 16.5232 4.488L16.5832 2.748H20.6512V8.268H21.4912V10.452H20.7592V9H15.7912V10.452H15.0712ZM16.4152 8.268H19.8352V3.48H17.3152L17.2792 4.56C17.2552 5.304 17.2032 5.928 17.1232 6.432C17.0512 6.928 16.9552 7.324 16.8352 7.62C16.7232 7.908 16.5832 8.124 16.4152 8.268ZM22.7161 9V2.748H27.7441V9H26.9281V3.48H23.5321V9H22.7161ZM29.5364 9V2.76H30.3524V7.896L34.1564 2.748H34.8884V9H34.0724V3.948L30.3284 9H29.5364ZM39.3854 9.12C38.9294 9.12 38.5094 9.036 38.1254 8.868C37.7494 8.692 37.4174 8.452 37.1294 8.148C36.8494 7.844 36.6294 7.496 36.4694 7.104C36.3174 6.712 36.2414 6.296 36.2414 5.856C36.2414 5.264 36.3734 4.724 36.6374 4.236C36.9014 3.748 37.2694 3.36 37.7414 3.072C38.2134 2.784 38.7574 2.64 39.3734 2.64C39.9574 2.64 40.4734 2.776 40.9214 3.048C41.3694 3.312 41.7014 3.672 41.9174 4.128L41.1254 4.38C40.9494 4.06 40.7014 3.812 40.3814 3.636C40.0694 3.452 39.7214 3.36 39.3374 3.36C38.9214 3.36 38.5414 3.468 38.1974 3.684C37.8534 3.9 37.5774 4.196 37.3694 4.572C37.1694 4.948 37.0694 5.376 37.0694 5.856C37.0694 6.328 37.1734 6.756 37.3814 7.14C37.5894 7.524 37.8654 7.832 38.2094 8.064C38.5534 8.288 38.9334 8.4 39.3494 8.4C39.6214 8.4 39.8814 8.352 40.1294 8.256C40.3854 8.16 40.6054 8.032 40.7894 7.872C40.9814 7.704 41.1094 7.524 41.1734 7.332L41.9774 7.572C41.8654 7.868 41.6774 8.136 41.4134 8.376C41.1574 8.608 40.8534 8.792 40.5014 8.928C40.1574 9.056 39.7854 9.12 39.3854 9.12ZM43.2474 9V2.748H44.0634V5.424H44.9994L47.0994 2.748H48.0354L45.6474 5.784L48.3354 9H47.3754L44.9994 6.18H44.0634V9H43.2474ZM48.9663 7.2C48.9663 6.808 49.0783 6.472 49.3023 6.192C49.5263 5.904 49.8343 5.684 50.2263 5.532C50.6263 5.372 51.0863 5.292 51.6063 5.292C51.9103 5.292 52.2263 5.316 52.5543 5.364C52.8823 5.412 53.1743 5.484 53.4303 5.58V5.052C53.4303 4.524 53.2743 4.104 52.9623 3.792C52.6503 3.48 52.2183 3.324 51.6663 3.324C51.3303 3.324 50.9983 3.388 50.6703 3.516C50.3503 3.636 50.0143 3.816 49.6623 4.056L49.3503 3.48C49.7583 3.2 50.1583 2.992 50.5503 2.856C50.9423 2.712 51.3423 2.64 51.7503 2.64C52.5183 2.64 53.1263 2.86 53.5743 3.3C54.0223 3.74 54.2463 4.348 54.2463 5.124V8.016C54.2463 8.128 54.2703 8.212 54.3183 8.268C54.3663 8.316 54.4423 8.344 54.5463 8.352V9C54.4583 9.008 54.3823 9.016 54.3183 9.024C54.2543 9.032 54.2063 9.032 54.1743 9.024C53.9743 9.016 53.8223 8.952 53.7183 8.832C53.6143 8.712 53.5583 8.584 53.5503 8.448L53.5383 7.992C53.2583 8.352 52.8943 8.632 52.4463 8.832C51.9983 9.024 51.5423 9.12 51.0783 9.12C50.6783 9.12 50.3143 9.036 49.9863 8.868C49.6663 8.692 49.4143 8.46 49.2303 8.172C49.0543 7.876 48.9663 7.552 48.9663 7.2ZM53.1543 7.68C53.2423 7.568 53.3103 7.46 53.3583 7.356C53.4063 7.252 53.4303 7.16 53.4303 7.08V6.168C53.1583 6.064 52.8743 5.984 52.5783 5.928C52.2903 5.872 51.9983 5.844 51.7023 5.844C51.1183 5.844 50.6463 5.96 50.2863 6.192C49.9263 6.424 49.7463 6.74 49.7463 7.14C49.7463 7.372 49.8063 7.592 49.9263 7.8C50.0463 8 50.2223 8.168 50.4543 8.304C50.6863 8.432 50.9583 8.496 51.2703 8.496C51.6623 8.496 52.0263 8.42 52.3623 8.268C52.7063 8.116 52.9703 7.92 53.1543 7.68ZM61.936 9.12C60.928 9.12 60.164 8.812 59.644 8.196C59.132 7.572 58.876 6.712 58.876 5.616C58.876 4.84 58.94 4.184 59.068 3.648C59.196 3.112 59.384 2.672 59.632 2.328C59.88 1.976 60.184 1.688 60.544 1.464C60.912 1.24 61.332 1.056 61.804 0.912L64.432 0.0479994L64.504 0.756L61.972 1.584C61.492 1.744 61.092 1.948 60.772 2.196C60.452 2.444 60.2 2.76 60.016 3.144C59.84 3.52 59.724 4.012 59.668 4.62C59.876 4.156 60.196 3.8 60.628 3.552C61.06 3.296 61.56 3.168 62.128 3.168C62.736 3.168 63.252 3.292 63.676 3.54C64.108 3.788 64.436 4.132 64.66 4.572C64.884 5.012 64.996 5.52 64.996 6.096C64.996 6.704 64.876 7.236 64.636 7.692C64.404 8.14 64.06 8.492 63.604 8.748C63.156 8.996 62.6 9.12 61.936 9.12ZM61.936 8.4C62.648 8.4 63.196 8.196 63.58 7.788C63.972 7.372 64.168 6.82 64.168 6.132C64.168 5.46 63.976 4.912 63.592 4.488C63.216 4.064 62.664 3.852 61.936 3.852C61.52 3.852 61.144 3.94 60.808 4.116C60.472 4.292 60.204 4.548 60.004 4.884C59.812 5.22 59.716 5.636 59.716 6.132C59.716 6.564 59.8 6.952 59.968 7.296C60.144 7.64 60.396 7.912 60.724 8.112C61.052 8.304 61.456 8.4 61.936 8.4ZM66.8301 11.616C66.6941 11.616 66.5541 11.592 66.4101 11.544C66.2741 11.504 66.1341 11.444 65.9901 11.364L66.2901 10.788C66.3781 10.836 66.4581 10.876 66.5301 10.908C66.6101 10.94 66.6941 10.956 66.7821 10.956C66.9901 10.956 67.1861 10.852 67.3701 10.644C67.5541 10.436 67.7301 10.132 67.8981 9.732L68.2101 8.952L65.4261 2.748H66.2901L68.5821 8.16L70.6941 2.748H71.5101L68.5341 9.984C68.3741 10.36 68.2061 10.668 68.0301 10.908C67.8541 11.148 67.6661 11.324 67.4661 11.436C67.2661 11.556 67.0541 11.616 66.8301 11.616ZM71.954 10.452V8.268H72.062C72.246 8.268 72.414 8.212 72.566 8.1C72.718 7.988 72.854 7.792 72.974 7.512C73.094 7.232 73.19 6.848 73.262 6.36C73.334 5.864 73.382 5.24 73.406 4.488L73.466 2.748H77.534V8.268H78.374V10.452H77.642V9H72.674V10.452H71.954ZM73.298 8.268H76.718V3.48H74.198L74.162 4.56C74.138 5.304 74.086 5.928 74.006 6.432C73.934 6.928 73.838 7.324 73.718 7.62C73.606 7.908 73.466 8.124 73.298 8.268ZM82.3109 9.12C81.8629 9.12 81.4469 9.036 81.0629 8.868C80.6789 8.692 80.3469 8.456 80.0669 8.16C79.7869 7.856 79.5669 7.508 79.4069 7.116C79.2549 6.724 79.1789 6.304 79.1789 5.856C79.1789 5.272 79.3109 4.736 79.5749 4.248C79.8469 3.76 80.2189 3.372 80.6909 3.084C81.1629 2.788 81.6989 2.64 82.2989 2.64C82.9149 2.64 83.4509 2.788 83.9069 3.084C84.3709 3.38 84.7349 3.772 84.9989 4.26C85.2629 4.74 85.3949 5.268 85.3949 5.844C85.3949 5.908 85.3949 5.972 85.3949 6.036C85.3949 6.092 85.3909 6.136 85.3829 6.168H80.0309C80.0709 6.616 80.1949 7.016 80.4029 7.368C80.6189 7.712 80.8949 7.988 81.2309 8.196C81.5749 8.396 81.9469 8.496 82.3469 8.496C82.7549 8.496 83.1389 8.392 83.4989 8.184C83.8669 7.976 84.1229 7.704 84.2669 7.368L84.9749 7.56C84.8469 7.856 84.6509 8.124 84.3869 8.364C84.1229 8.604 83.8109 8.792 83.4509 8.928C83.0989 9.056 82.7189 9.12 82.3109 9.12ZM80.0069 5.58H84.6269C84.5949 5.124 84.4709 4.724 84.2549 4.38C84.0469 4.036 83.7709 3.768 83.4269 3.576C83.0909 3.376 82.7189 3.276 82.3109 3.276C81.9029 3.276 81.5309 3.376 81.1949 3.576C80.8589 3.768 80.5829 4.04 80.3669 4.392C80.1589 4.736 80.0389 5.132 80.0069 5.58ZM88.2139 9V3.48H85.9819V2.748H91.2619V3.48H89.0299V9H88.2139ZM95.4193 9V2.748H100.447V9H99.6313V3.48H96.2353V9H95.4193ZM105.444 9.12C104.924 9.12 104.456 8.984 104.04 8.712C103.632 8.44 103.308 8.104 103.068 7.704V11.556H102.252V2.748H102.984V3.96C103.232 3.568 103.564 3.252 103.98 3.012C104.396 2.764 104.84 2.64 105.312 2.64C105.744 2.64 106.14 2.732 106.5 2.916C106.86 3.092 107.172 3.332 107.436 3.636C107.7 3.94 107.904 4.288 108.048 4.68C108.2 5.064 108.276 5.464 108.276 5.88C108.276 6.464 108.156 7.004 107.916 7.5C107.684 7.988 107.356 8.38 106.932 8.676C106.508 8.972 106.012 9.12 105.444 9.12ZM105.216 8.4C105.56 8.4 105.868 8.332 106.14 8.196C106.412 8.052 106.644 7.86 106.836 7.62C107.036 7.38 107.188 7.112 107.292 6.816C107.396 6.512 107.448 6.2 107.448 5.88C107.448 5.544 107.388 5.224 107.268 4.92C107.156 4.616 106.992 4.348 106.776 4.116C106.56 3.884 106.312 3.7 106.032 3.564C105.752 3.428 105.448 3.36 105.12 3.36C104.912 3.36 104.696 3.4 104.472 3.48C104.248 3.56 104.032 3.676 103.824 3.828C103.624 3.972 103.456 4.136 103.32 4.32C103.184 4.504 103.1 4.7 103.068 4.908V6.828C103.196 7.124 103.368 7.392 103.584 7.632C103.8 7.864 104.048 8.052 104.328 8.196C104.616 8.332 104.912 8.4 105.216 8.4ZM112.322 9.12C111.874 9.12 111.458 9.036 111.074 8.868C110.698 8.692 110.37 8.456 110.09 8.16C109.818 7.856 109.606 7.512 109.454 7.128C109.302 6.736 109.226 6.324 109.226 5.892C109.226 5.444 109.302 5.028 109.454 4.644C109.606 4.252 109.822 3.908 110.102 3.612C110.382 3.308 110.71 3.072 111.086 2.904C111.47 2.728 111.886 2.64 112.334 2.64C112.782 2.64 113.194 2.728 113.57 2.904C113.946 3.072 114.274 3.308 114.554 3.612C114.834 3.908 115.05 4.252 115.202 4.644C115.354 5.028 115.43 5.444 115.43 5.892C115.43 6.324 115.354 6.736 115.202 7.128C115.05 7.512 114.834 7.856 114.554 8.16C114.282 8.456 113.954 8.692 113.57 8.868C113.194 9.036 112.778 9.12 112.322 9.12ZM110.054 5.904C110.054 6.368 110.154 6.792 110.354 7.176C110.562 7.552 110.838 7.852 111.182 8.076C111.526 8.292 111.906 8.4 112.322 8.4C112.738 8.4 113.118 8.288 113.462 8.064C113.806 7.84 114.082 7.536 114.29 7.152C114.498 6.76 114.602 6.336 114.602 5.88C114.602 5.416 114.498 4.992 114.29 4.608C114.082 4.224 113.806 3.92 113.462 3.696C113.118 3.472 112.738 3.36 112.322 3.36C111.906 3.36 111.526 3.476 111.182 3.708C110.846 3.94 110.574 4.248 110.366 4.632C110.158 5.008 110.054 5.432 110.054 5.904ZM116.099 10.452V8.268H116.207C116.391 8.268 116.559 8.212 116.711 8.1C116.863 7.988 116.999 7.792 117.119 7.512C117.239 7.232 117.335 6.848 117.407 6.36C117.479 5.864 117.527 5.24 117.551 4.488L117.611 2.748H121.679V8.268H122.519V10.452H121.787V9H116.819V10.452H116.099ZM117.443 8.268H120.863V3.48H118.343L118.307 4.56C118.283 5.304 118.231 5.928 118.151 6.432C118.079 6.928 117.983 7.324 117.863 7.62C117.751 7.908 117.611 8.124 117.443 8.268ZM123.155 9.036V8.292C123.371 8.292 123.563 8.236 123.731 8.124C123.899 8.004 124.047 7.804 124.175 7.524C124.311 7.244 124.419 6.86 124.499 6.372C124.579 5.876 124.631 5.248 124.655 4.488L124.727 2.748H128.783V9H127.967V3.48H125.447L125.423 4.56C125.391 5.424 125.323 6.148 125.219 6.732C125.115 7.308 124.967 7.764 124.775 8.1C124.591 8.436 124.363 8.676 124.091 8.82C123.819 8.964 123.507 9.036 123.155 9.036ZM133.288 9.12C132.84 9.12 132.424 9.036 132.04 8.868C131.656 8.692 131.324 8.456 131.044 8.16C130.764 7.856 130.544 7.508 130.384 7.116C130.232 6.724 130.156 6.304 130.156 5.856C130.156 5.272 130.288 4.736 130.552 4.248C130.824 3.76 131.196 3.372 131.668 3.084C132.14 2.788 132.676 2.64 133.276 2.64C133.892 2.64 134.428 2.788 134.884 3.084C135.348 3.38 135.712 3.772 135.976 4.26C136.24 4.74 136.372 5.268 136.372 5.844C136.372 5.908 136.372 5.972 136.372 6.036C136.372 6.092 136.368 6.136 136.36 6.168H131.008C131.048 6.616 131.172 7.016 131.38 7.368C131.596 7.712 131.872 7.988 132.208 8.196C132.552 8.396 132.924 8.496 133.324 8.496C133.732 8.496 134.116 8.392 134.476 8.184C134.844 7.976 135.1 7.704 135.244 7.368L135.952 7.56C135.824 7.856 135.628 8.124 135.364 8.364C135.1 8.604 134.788 8.792 134.428 8.928C134.076 9.056 133.696 9.12 133.288 9.12ZM130.984 5.58H135.604C135.572 5.124 135.448 4.724 135.232 4.38C135.024 4.036 134.748 3.768 134.404 3.576C134.068 3.376 133.696 3.276 133.288 3.276C132.88 3.276 132.508 3.376 132.172 3.576C131.836 3.768 131.56 4.04 131.344 4.392C131.136 4.736 131.016 5.132 130.984 5.58ZM137.618 9V2.748H140.738C141.09 2.748 141.386 2.824 141.626 2.976C141.866 3.12 142.046 3.308 142.166 3.54C142.294 3.772 142.358 4.02 142.358 4.284C142.358 4.62 142.278 4.924 142.118 5.196C141.958 5.46 141.726 5.66 141.422 5.796C141.782 5.9 142.074 6.088 142.298 6.36C142.522 6.632 142.634 6.96 142.634 7.344C142.634 7.68 142.55 7.972 142.382 8.22C142.222 8.468 141.998 8.66 141.71 8.796C141.43 8.932 141.106 9 140.738 9H137.618ZM138.398 8.412H140.714C140.922 8.412 141.11 8.36 141.278 8.256C141.454 8.144 141.59 8 141.686 7.824C141.79 7.648 141.842 7.464 141.842 7.272C141.842 7.064 141.794 6.876 141.698 6.708C141.602 6.532 141.474 6.392 141.314 6.288C141.154 6.184 140.97 6.132 140.762 6.132H138.398V8.412ZM138.398 5.568H140.522C140.73 5.568 140.914 5.512 141.074 5.4C141.234 5.288 141.358 5.144 141.446 4.968C141.534 4.792 141.578 4.608 141.578 4.416C141.578 4.128 141.482 3.876 141.29 3.66C141.106 3.444 140.866 3.336 140.57 3.336H138.398V5.568ZM143.548 7.2C143.548 6.808 143.66 6.472 143.884 6.192C144.108 5.904 144.416 5.684 144.808 5.532C145.208 5.372 145.668 5.292 146.188 5.292C146.492 5.292 146.808 5.316 147.136 5.364C147.464 5.412 147.756 5.484 148.012 5.58V5.052C148.012 4.524 147.856 4.104 147.544 3.792C147.232 3.48 146.8 3.324 146.248 3.324C145.912 3.324 145.58 3.388 145.252 3.516C144.932 3.636 144.596 3.816 144.244 4.056L143.932 3.48C144.34 3.2 144.74 2.992 145.132 2.856C145.524 2.712 145.924 2.64 146.332 2.64C147.1 2.64 147.708 2.86 148.156 3.3C148.604 3.74 148.828 4.348 148.828 5.124V8.016C148.828 8.128 148.852 8.212 148.9 8.268C148.948 8.316 149.024 8.344 149.128 8.352V9C149.04 9.008 148.964 9.016 148.9 9.024C148.836 9.032 148.788 9.032 148.756 9.024C148.556 9.016 148.404 8.952 148.3 8.832C148.196 8.712 148.14 8.584 148.132 8.448L148.12 7.992C147.84 8.352 147.476 8.632 147.028 8.832C146.58 9.024 146.124 9.12 145.66 9.12C145.26 9.12 144.896 9.036 144.568 8.868C144.248 8.692 143.996 8.46 143.812 8.172C143.636 7.876 143.548 7.552 143.548 7.2ZM147.736 7.68C147.824 7.568 147.892 7.46 147.94 7.356C147.988 7.252 148.012 7.16 148.012 7.08V6.168C147.74 6.064 147.456 5.984 147.16 5.928C146.872 5.872 146.58 5.844 146.284 5.844C145.7 5.844 145.228 5.96 144.868 6.192C144.508 6.424 144.328 6.74 144.328 7.14C144.328 7.372 144.388 7.592 144.508 7.8C144.628 8 144.804 8.168 145.036 8.304C145.268 8.432 145.54 8.496 145.852 8.496C146.244 8.496 146.608 8.42 146.944 8.268C147.288 8.116 147.552 7.92 147.736 7.68ZM152.058 9V3.48H149.826V2.748H155.106V3.48H152.874V9H152.058ZM156.204 9V2.748H157.02V4.956H158.64C159.352 4.956 159.888 5.14 160.248 5.508C160.616 5.868 160.8 6.344 160.8 6.936C160.8 7.32 160.72 7.668 160.56 7.98C160.4 8.292 160.164 8.54 159.852 8.724C159.548 8.908 159.164 9 158.7 9H156.204ZM157.02 8.352H158.592C158.92 8.352 159.184 8.288 159.384 8.16C159.584 8.024 159.732 7.852 159.828 7.644C159.924 7.428 159.972 7.196 159.972 6.948C159.972 6.708 159.928 6.488 159.84 6.288C159.76 6.08 159.616 5.916 159.408 5.796C159.208 5.668 158.928 5.604 158.568 5.604H157.02V8.352ZM164.788 9.12C164.332 9.12 163.912 9.036 163.528 8.868C163.152 8.692 162.82 8.452 162.532 8.148C162.252 7.844 162.032 7.496 161.872 7.104C161.72 6.712 161.644 6.296 161.644 5.856C161.644 5.264 161.776 4.724 162.04 4.236C162.304 3.748 162.672 3.36 163.144 3.072C163.616 2.784 164.16 2.64 164.776 2.64C165.36 2.64 165.876 2.776 166.324 3.048C166.772 3.312 167.104 3.672 167.32 4.128L166.528 4.38C166.352 4.06 166.104 3.812 165.784 3.636C165.472 3.452 165.124 3.36 164.74 3.36C164.324 3.36 163.944 3.468 163.6 3.684C163.256 3.9 162.98 4.196 162.772 4.572C162.572 4.948 162.472 5.376 162.472 5.856C162.472 6.328 162.576 6.756 162.784 7.14C162.992 7.524 163.268 7.832 163.612 8.064C163.956 8.288 164.336 8.4 164.752 8.4C165.024 8.4 165.284 8.352 165.532 8.256C165.788 8.16 166.008 8.032 166.192 7.872C166.384 7.704 166.512 7.524 166.576 7.332L167.38 7.572C167.268 7.868 167.08 8.136 166.816 8.376C166.56 8.608 166.256 8.792 165.904 8.928C165.56 9.056 165.188 9.12 164.788 9.12ZM168.147 9L170.007 6.444C169.583 6.38 169.239 6.196 168.975 5.892C168.719 5.58 168.591 5.156 168.591 4.62C168.591 4.26 168.675 3.94 168.843 3.66C169.011 3.38 169.247 3.156 169.551 2.988C169.863 2.82 170.227 2.736 170.643 2.736H173.031V9H172.215V6.576H170.823L169.059 9H168.147ZM170.631 5.952H172.215V3.384H170.775C170.359 3.384 170.027 3.504 169.779 3.744C169.531 3.976 169.407 4.272 169.407 4.632C169.407 5 169.507 5.312 169.707 5.568C169.915 5.824 170.223 5.952 170.631 5.952ZM177.38 7.2C177.38 6.808 177.492 6.472 177.716 6.192C177.94 5.904 178.248 5.684 178.64 5.532C179.04 5.372 179.5 5.292 180.02 5.292C180.324 5.292 180.64 5.316 180.968 5.364C181.296 5.412 181.588 5.484 181.844 5.58V5.052C181.844 4.524 181.688 4.104 181.376 3.792C181.064 3.48 180.632 3.324 180.08 3.324C179.744 3.324 179.412 3.388 179.084 3.516C178.764 3.636 178.428 3.816 178.076 4.056L177.764 3.48C178.172 3.2 178.572 2.992 178.964 2.856C179.356 2.712 179.756 2.64 180.164 2.64C180.932 2.64 181.54 2.86 181.988 3.3C182.436 3.74 182.66 4.348 182.66 5.124V8.016C182.66 8.128 182.684 8.212 182.732 8.268C182.78 8.316 182.856 8.344 182.96 8.352V9C182.872 9.008 182.796 9.016 182.732 9.024C182.668 9.032 182.62 9.032 182.588 9.024C182.388 9.016 182.236 8.952 182.132 8.832C182.028 8.712 181.972 8.584 181.964 8.448L181.952 7.992C181.672 8.352 181.308 8.632 180.86 8.832C180.412 9.024 179.956 9.12 179.492 9.12C179.092 9.12 178.728 9.036 178.4 8.868C178.08 8.692 177.828 8.46 177.644 8.172C177.468 7.876 177.38 7.552 177.38 7.2ZM181.568 7.68C181.656 7.568 181.724 7.46 181.772 7.356C181.82 7.252 181.844 7.16 181.844 7.08V6.168C181.572 6.064 181.288 5.984 180.992 5.928C180.704 5.872 180.412 5.844 180.116 5.844C179.532 5.844 179.06 5.96 178.7 6.192C178.34 6.424 178.16 6.74 178.16 7.14C178.16 7.372 178.22 7.592 178.34 7.8C178.46 8 178.636 8.168 178.868 8.304C179.1 8.432 179.372 8.496 179.684 8.496C180.076 8.496 180.44 8.42 180.776 8.268C181.12 8.116 181.384 7.92 181.568 7.68ZM184.411 9V2.748H187.531C187.883 2.748 188.179 2.824 188.419 2.976C188.659 3.12 188.839 3.308 188.959 3.54C189.087 3.772 189.151 4.02 189.151 4.284C189.151 4.62 189.071 4.924 188.911 5.196C188.751 5.46 188.519 5.66 188.215 5.796C188.575 5.9 188.867 6.088 189.091 6.36C189.315 6.632 189.427 6.96 189.427 7.344C189.427 7.68 189.343 7.972 189.175 8.22C189.015 8.468 188.791 8.66 188.503 8.796C188.223 8.932 187.899 9 187.531 9H184.411ZM185.191 8.412H187.507C187.715 8.412 187.903 8.36 188.071 8.256C188.247 8.144 188.383 8 188.479 7.824C188.583 7.648 188.635 7.464 188.635 7.272C188.635 7.064 188.587 6.876 188.491 6.708C188.395 6.532 188.267 6.392 188.107 6.288C187.947 6.184 187.763 6.132 187.555 6.132H185.191V8.412ZM185.191 5.568H187.315C187.523 5.568 187.707 5.512 187.867 5.4C188.027 5.288 188.151 5.144 188.239 4.968C188.327 4.792 188.371 4.608 188.371 4.416C188.371 4.128 188.275 3.876 188.083 3.66C187.899 3.444 187.659 3.336 187.363 3.336H185.191V5.568ZM192.394 9V3.48H190.162V2.748H195.442V3.48H193.21V9H192.394ZM199.216 9.12C198.768 9.12 198.352 9.036 197.968 8.868C197.592 8.692 197.264 8.456 196.984 8.16C196.712 7.856 196.5 7.512 196.348 7.128C196.196 6.736 196.12 6.324 196.12 5.892C196.12 5.444 196.196 5.028 196.348 4.644C196.5 4.252 196.716 3.908 196.996 3.612C197.276 3.308 197.604 3.072 197.98 2.904C198.364 2.728 198.78 2.64 199.228 2.64C199.676 2.64 200.088 2.728 200.464 2.904C200.84 3.072 201.168 3.308 201.448 3.612C201.728 3.908 201.944 4.252 202.096 4.644C202.248 5.028 202.324 5.444 202.324 5.892C202.324 6.324 202.248 6.736 202.096 7.128C201.944 7.512 201.728 7.856 201.448 8.16C201.176 8.456 200.848 8.692 200.464 8.868C200.088 9.036 199.672 9.12 199.216 9.12ZM196.948 5.904C196.948 6.368 197.048 6.792 197.248 7.176C197.456 7.552 197.732 7.852 198.076 8.076C198.42 8.292 198.8 8.4 199.216 8.4C199.632 8.4 200.012 8.288 200.356 8.064C200.7 7.84 200.976 7.536 201.184 7.152C201.392 6.76 201.496 6.336 201.496 5.88C201.496 5.416 201.392 4.992 201.184 4.608C200.976 4.224 200.7 3.92 200.356 3.696C200.012 3.472 199.632 3.36 199.216 3.36C198.8 3.36 198.42 3.476 198.076 3.708C197.74 3.94 197.468 4.248 197.26 4.632C197.052 5.008 196.948 5.432 196.948 5.904ZM203.677 9V2.748H204.517L207.001 7.056L209.497 2.748H210.301V9H209.521V3.972L207.265 7.884H206.737L204.457 3.972V9H203.677ZM211.599 7.2C211.599 6.808 211.711 6.472 211.935 6.192C212.159 5.904 212.467 5.684 212.859 5.532C213.259 5.372 213.719 5.292 214.239 5.292C214.543 5.292 214.859 5.316 215.187 5.364C215.515 5.412 215.807 5.484 216.063 5.58V5.052C216.063 4.524 215.907 4.104 215.595 3.792C215.283 3.48 214.851 3.324 214.299 3.324C213.963 3.324 213.631 3.388 213.303 3.516C212.983 3.636 212.647 3.816 212.295 4.056L211.983 3.48C212.391 3.2 212.791 2.992 213.183 2.856C213.575 2.712 213.975 2.64 214.383 2.64C215.151 2.64 215.759 2.86 216.207 3.3C216.655 3.74 216.879 4.348 216.879 5.124V8.016C216.879 8.128 216.903 8.212 216.951 8.268C216.999 8.316 217.075 8.344 217.179 8.352V9C217.091 9.008 217.015 9.016 216.951 9.024C216.887 9.032 216.839 9.032 216.807 9.024C216.607 9.016 216.455 8.952 216.351 8.832C216.247 8.712 216.191 8.584 216.183 8.448L216.171 7.992C215.891 8.352 215.527 8.632 215.079 8.832C214.631 9.024 214.175 9.12 213.711 9.12C213.311 9.12 212.947 9.036 212.619 8.868C212.299 8.692 212.047 8.46 211.863 8.172C211.687 7.876 211.599 7.552 211.599 7.2ZM215.787 7.68C215.875 7.568 215.943 7.46 215.991 7.356C216.039 7.252 216.063 7.16 216.063 7.08V6.168C215.791 6.064 215.507 5.984 215.211 5.928C214.923 5.872 214.631 5.844 214.335 5.844C213.751 5.844 213.279 5.96 212.919 6.192C212.559 6.424 212.379 6.74 212.379 7.14C212.379 7.372 212.439 7.592 212.559 7.8C212.679 8 212.855 8.168 213.087 8.304C213.319 8.432 213.591 8.496 213.903 8.496C214.295 8.496 214.659 8.42 214.995 8.268C215.339 8.116 215.603 7.92 215.787 7.68ZM220.108 9V3.48H217.876V2.748H223.156V3.48H220.924V9H220.108ZM224.255 9V2.76H225.071V7.896L228.875 2.748H229.607V9H228.791V3.948L225.047 9H224.255ZM234.968 9V6.384C234.712 6.504 234.444 6.596 234.164 6.66C233.884 6.716 233.584 6.744 233.264 6.744C232.576 6.744 232.056 6.568 231.704 6.216C231.36 5.864 231.188 5.324 231.188 4.596V2.748H232.004V4.488C232.004 5.048 232.116 5.456 232.34 5.712C232.572 5.968 232.94 6.096 233.444 6.096C233.724 6.096 234.004 6.064 234.284 6C234.564 5.936 234.792 5.852 234.968 5.748V2.748H235.784V9H234.968ZM240.28 9.12C239.832 9.12 239.416 9.036 239.032 8.868C238.648 8.692 238.316 8.456 238.036 8.16C237.756 7.856 237.536 7.508 237.376 7.116C237.224 6.724 237.148 6.304 237.148 5.856C237.148 5.272 237.28 4.736 237.544 4.248C237.816 3.76 238.188 3.372 238.66 3.084C239.132 2.788 239.668 2.64 240.268 2.64C240.884 2.64 241.42 2.788 241.876 3.084C242.34 3.38 242.704 3.772 242.968 4.26C243.232 4.74 243.364 5.268 243.364 5.844C243.364 5.908 243.364 5.972 243.364 6.036C243.364 6.092 243.36 6.136 243.352 6.168H238C238.04 6.616 238.164 7.016 238.372 7.368C238.588 7.712 238.864 7.988 239.2 8.196C239.544 8.396 239.916 8.496 240.316 8.496C240.724 8.496 241.108 8.392 241.468 8.184C241.836 7.976 242.092 7.704 242.236 7.368L242.944 7.56C242.816 7.856 242.62 8.124 242.356 8.364C242.092 8.604 241.78 8.792 241.42 8.928C241.068 9.056 240.688 9.12 240.28 9.12ZM237.976 5.58H242.596C242.564 5.124 242.44 4.724 242.224 4.38C242.016 4.036 241.74 3.768 241.396 3.576C241.06 3.376 240.688 3.276 240.28 3.276C239.872 3.276 239.5 3.376 239.164 3.576C238.828 3.768 238.552 4.04 238.336 4.392C238.128 4.736 238.008 5.132 237.976 5.58ZM247.335 9.12C246.879 9.12 246.459 9.036 246.075 8.868C245.699 8.692 245.367 8.452 245.079 8.148C244.799 7.844 244.579 7.496 244.419 7.104C244.267 6.712 244.191 6.296 244.191 5.856C244.191 5.264 244.323 4.724 244.587 4.236C244.851 3.748 245.219 3.36 245.691 3.072C246.163 2.784 246.707 2.64 247.323 2.64C247.907 2.64 248.423 2.776 248.871 3.048C249.319 3.312 249.651 3.672 249.867 4.128L249.075 4.38C248.899 4.06 248.651 3.812 248.331 3.636C248.019 3.452 247.671 3.36 247.287 3.36C246.871 3.36 246.491 3.468 246.147 3.684C245.803 3.9 245.527 4.196 245.319 4.572C245.119 4.948 245.019 5.376 245.019 5.856C245.019 6.328 245.123 6.756 245.331 7.14C245.539 7.524 245.815 7.832 246.159 8.064C246.503 8.288 246.883 8.4 247.299 8.4C247.571 8.4 247.831 8.352 248.079 8.256C248.335 8.16 248.555 8.032 248.739 7.872C248.931 7.704 249.059 7.524 249.123 7.332L249.927 7.572C249.815 7.868 249.627 8.136 249.363 8.376C249.107 8.608 248.803 8.792 248.451 8.928C248.107 9.056 247.735 9.12 247.335 9.12ZM251.197 9V2.748H252.013V5.424H252.949L255.049 2.748H255.985L253.597 5.784L256.285 9H255.325L252.949 6.18H252.013V9H251.197ZM257.431 9V2.76H258.247V7.896L262.051 2.748H262.783V9H261.967V3.948L258.223 9H257.431ZM264.7 9.972L264.904 8.964H264.628V7.824H265.42V8.964L265.12 9.972H264.7ZM273.022 9.12C272.574 9.12 272.158 9.036 271.774 8.868C271.39 8.692 271.058 8.456 270.778 8.16C270.498 7.856 270.278 7.508 270.118 7.116C269.966 6.724 269.89 6.304 269.89 5.856C269.89 5.272 270.022 4.736 270.286 4.248C270.558 3.76 270.93 3.372 271.402 3.084C271.874 2.788 272.41 2.64 273.01 2.64C273.626 2.64 274.162 2.788 274.618 3.084C275.082 3.38 275.446 3.772 275.71 4.26C275.974 4.74 276.106 5.268 276.106 5.844C276.106 5.908 276.106 5.972 276.106 6.036C276.106 6.092 276.102 6.136 276.094 6.168H270.742C270.782 6.616 270.906 7.016 271.114 7.368C271.33 7.712 271.606 7.988 271.942 8.196C272.286 8.396 272.658 8.496 273.058 8.496C273.466 8.496 273.85 8.392 274.21 8.184C274.578 7.976 274.834 7.704 274.978 7.368L275.686 7.56C275.558 7.856 275.362 8.124 275.098 8.364C274.834 8.604 274.522 8.792 274.162 8.928C273.81 9.056 273.43 9.12 273.022 9.12ZM270.718 5.58H275.338C275.306 5.124 275.182 4.724 274.966 4.38C274.758 4.036 274.482 3.768 274.138 3.576C273.802 3.376 273.43 3.276 273.022 3.276C272.614 3.276 272.242 3.376 271.906 3.576C271.57 3.768 271.294 4.04 271.078 4.392C270.87 4.736 270.75 5.132 270.718 5.58ZM280.077 9.12C279.621 9.12 279.201 9.036 278.817 8.868C278.441 8.692 278.109 8.452 277.821 8.148C277.541 7.844 277.321 7.496 277.161 7.104C277.009 6.712 276.933 6.296 276.933 5.856C276.933 5.264 277.065 4.724 277.329 4.236C277.593 3.748 277.961 3.36 278.433 3.072C278.905 2.784 279.449 2.64 280.065 2.64C280.649 2.64 281.165 2.776 281.613 3.048C282.061 3.312 282.393 3.672 282.609 4.128L281.817 4.38C281.641 4.06 281.393 3.812 281.073 3.636C280.761 3.452 280.413 3.36 280.029 3.36C279.613 3.36 279.233 3.468 278.889 3.684C278.545 3.9 278.269 4.196 278.061 4.572C277.861 4.948 277.761 5.376 277.761 5.856C277.761 6.328 277.865 6.756 278.073 7.14C278.281 7.524 278.557 7.832 278.901 8.064C279.245 8.288 279.625 8.4 280.041 8.4C280.313 8.4 280.573 8.352 280.821 8.256C281.077 8.16 281.297 8.032 281.481 7.872C281.673 7.704 281.801 7.524 281.865 7.332L282.669 7.572C282.557 7.868 282.369 8.136 282.105 8.376C281.849 8.608 281.545 8.792 281.193 8.928C280.849 9.056 280.477 9.12 280.077 9.12ZM283.351 9.036V8.292C283.567 8.292 283.759 8.236 283.927 8.124C284.095 8.004 284.243 7.804 284.371 7.524C284.507 7.244 284.615 6.86 284.695 6.372C284.775 5.876 284.827 5.248 284.851 4.488L284.923 2.748H288.979V9H288.163V3.48H285.643L285.619 4.56C285.587 5.424 285.519 6.148 285.415 6.732C285.311 7.308 285.163 7.764 284.971 8.1C284.787 8.436 284.559 8.676 284.287 8.82C284.015 8.964 283.703 9.036 283.351 9.036ZM290.771 9V2.76H291.587V7.896L295.391 2.748H296.123V9H295.307V3.948L291.563 9H290.771ZM303.63 9.12C303.182 9.12 302.766 9.036 302.382 8.868C302.006 8.692 301.678 8.456 301.398 8.16C301.126 7.856 300.914 7.512 300.762 7.128C300.61 6.736 300.534 6.324 300.534 5.892C300.534 5.444 300.61 5.028 300.762 4.644C300.914 4.252 301.13 3.908 301.41 3.612C301.69 3.308 302.018 3.072 302.394 2.904C302.778 2.728 303.194 2.64 303.642 2.64C304.09 2.64 304.502 2.728 304.878 2.904C305.254 3.072 305.582 3.308 305.862 3.612C306.142 3.908 306.358 4.252 306.51 4.644C306.662 5.028 306.738 5.444 306.738 5.892C306.738 6.324 306.662 6.736 306.51 7.128C306.358 7.512 306.142 7.856 305.862 8.16C305.59 8.456 305.262 8.692 304.878 8.868C304.502 9.036 304.086 9.12 303.63 9.12ZM301.362 5.904C301.362 6.368 301.462 6.792 301.662 7.176C301.87 7.552 302.146 7.852 302.49 8.076C302.834 8.292 303.214 8.4 303.63 8.4C304.046 8.4 304.426 8.288 304.77 8.064C305.114 7.84 305.39 7.536 305.598 7.152C305.806 6.76 305.91 6.336 305.91 5.88C305.91 5.416 305.806 4.992 305.598 4.608C305.39 4.224 305.114 3.92 304.77 3.696C304.426 3.472 304.046 3.36 303.63 3.36C303.214 3.36 302.834 3.476 302.49 3.708C302.154 3.94 301.882 4.248 301.674 4.632C301.466 5.008 301.362 5.432 301.362 5.904ZM308.091 9V2.748H308.907V5.436H312.483V2.748H313.299V9H312.483V6.168H308.907V9H308.091ZM314.595 7.2C314.595 6.808 314.707 6.472 314.931 6.192C315.155 5.904 315.463 5.684 315.855 5.532C316.255 5.372 316.715 5.292 317.235 5.292C317.539 5.292 317.855 5.316 318.183 5.364C318.511 5.412 318.803 5.484 319.059 5.58V5.052C319.059 4.524 318.903 4.104 318.591 3.792C318.279 3.48 317.847 3.324 317.295 3.324C316.959 3.324 316.627 3.388 316.299 3.516C315.979 3.636 315.643 3.816 315.291 4.056L314.979 3.48C315.387 3.2 315.787 2.992 316.179 2.856C316.571 2.712 316.971 2.64 317.379 2.64C318.147 2.64 318.755 2.86 319.203 3.3C319.651 3.74 319.875 4.348 319.875 5.124V8.016C319.875 8.128 319.899 8.212 319.947 8.268C319.995 8.316 320.071 8.344 320.175 8.352V9C320.087 9.008 320.011 9.016 319.947 9.024C319.883 9.032 319.835 9.032 319.803 9.024C319.603 9.016 319.451 8.952 319.347 8.832C319.243 8.712 319.187 8.584 319.179 8.448L319.167 7.992C318.887 8.352 318.523 8.632 318.075 8.832C317.627 9.024 317.171 9.12 316.707 9.12C316.307 9.12 315.943 9.036 315.615 8.868C315.295 8.692 315.043 8.46 314.859 8.172C314.683 7.876 314.595 7.552 314.595 7.2ZM318.783 7.68C318.871 7.568 318.939 7.46 318.987 7.356C319.035 7.252 319.059 7.16 319.059 7.08V6.168C318.787 6.064 318.503 5.984 318.207 5.928C317.919 5.872 317.627 5.844 317.331 5.844C316.747 5.844 316.275 5.96 315.915 6.192C315.555 6.424 315.375 6.74 315.375 7.14C315.375 7.372 315.435 7.592 315.555 7.8C315.675 8 315.851 8.168 316.083 8.304C316.315 8.432 316.587 8.496 316.899 8.496C317.291 8.496 317.655 8.42 317.991 8.268C318.335 8.116 318.599 7.92 318.783 7.68ZM324.685 9V2.748H325.501V5.436H329.077V2.748H329.893V9H329.077V6.168H325.501V9H324.685ZM334.393 9.12C333.945 9.12 333.529 9.036 333.145 8.868C332.761 8.692 332.429 8.456 332.149 8.16C331.869 7.856 331.649 7.508 331.489 7.116C331.337 6.724 331.261 6.304 331.261 5.856C331.261 5.272 331.393 4.736 331.657 4.248C331.929 3.76 332.301 3.372 332.773 3.084C333.245 2.788 333.781 2.64 334.381 2.64C334.997 2.64 335.533 2.788 335.989 3.084C336.453 3.38 336.817 3.772 337.081 4.26C337.345 4.74 337.477 5.268 337.477 5.844C337.477 5.908 337.477 5.972 337.477 6.036C337.477 6.092 337.473 6.136 337.465 6.168H332.113C332.153 6.616 332.277 7.016 332.485 7.368C332.701 7.712 332.977 7.988 333.313 8.196C333.657 8.396 334.029 8.496 334.429 8.496C334.837 8.496 335.221 8.392 335.581 8.184C335.949 7.976 336.205 7.704 336.349 7.368L337.057 7.56C336.929 7.856 336.733 8.124 336.469 8.364C336.205 8.604 335.893 8.792 335.533 8.928C335.181 9.056 334.801 9.12 334.393 9.12ZM332.089 5.58H336.709C336.677 5.124 336.553 4.724 336.337 4.38C336.129 4.036 335.853 3.768 335.509 3.576C335.173 3.376 334.801 3.276 334.393 3.276C333.985 3.276 333.613 3.376 333.277 3.576C332.941 3.768 332.665 4.04 332.449 4.392C332.241 4.736 332.121 5.132 332.089 5.58ZM5.75736 26.12C5.30936 26.12 4.89336 26.036 4.50936 25.868C4.13336 25.692 3.80536 25.456 3.52536 25.16C3.25336 24.856 3.04136 24.512 2.88936 24.128C2.73736 23.736 2.66136 23.324 2.66136 22.892C2.66136 22.444 2.73736 22.028 2.88936 21.644C3.04136 21.252 3.25736 20.908 3.53736 20.612C3.81736 20.308 4.14536 20.072 4.52136 19.904C4.90536 19.728 5.32136 19.64 5.76936 19.64C6.21736 19.64 6.62936 19.728 7.00536 19.904C7.38136 20.072 7.70936 20.308 7.98936 20.612C8.26936 20.908 8.48536 21.252 8.63736 21.644C8.78936 22.028 8.86536 22.444 8.86536 22.892C8.86536 23.324 8.78936 23.736 8.63736 24.128C8.48536 24.512 8.26936 24.856 7.98936 25.16C7.71736 25.456 7.38936 25.692 7.00536 25.868C6.62936 26.036 6.21336 26.12 5.75736 26.12ZM3.48936 22.904C3.48936 23.368 3.58936 23.792 3.78936 24.176C3.99736 24.552 4.27336 24.852 4.61736 25.076C4.96136 25.292 5.34136 25.4 5.75736 25.4C6.17336 25.4 6.55336 25.288 6.89736 25.064C7.24136 24.84 7.51736 24.536 7.72536 24.152C7.93336 23.76 8.03736 23.336 8.03736 22.88C8.03736 22.416 7.93336 21.992 7.72536 21.608C7.51736 21.224 7.24136 20.92 6.89736 20.696C6.55336 20.472 6.17336 20.36 5.75736 20.36C5.34136 20.36 4.96136 20.476 4.61736 20.708C4.28136 20.94 4.00936 21.248 3.80136 21.632C3.59336 22.008 3.48936 22.432 3.48936 22.904ZM11.7901 26V20.48H9.55808V19.748H14.8381V20.48H12.6061V26H11.7901ZM15.9368 26V19.748H16.7768L19.2608 24.056L21.7568 19.748H22.5608V26H21.7808V20.972L19.5248 24.884H18.9968L16.7168 20.972V26H15.9368ZM27.0629 26.12C26.6149 26.12 26.1989 26.036 25.8149 25.868C25.4309 25.692 25.0989 25.456 24.8189 25.16C24.5389 24.856 24.3189 24.508 24.1589 24.116C24.0069 23.724 23.9309 23.304 23.9309 22.856C23.9309 22.272 24.0629 21.736 24.3269 21.248C24.5989 20.76 24.9709 20.372 25.4429 20.084C25.9149 19.788 26.4509 19.64 27.0509 19.64C27.6669 19.64 28.2029 19.788 28.6589 20.084C29.1229 20.38 29.4869 20.772 29.7509 21.26C30.0149 21.74 30.1469 22.268 30.1469 22.844C30.1469 22.908 30.1469 22.972 30.1469 23.036C30.1469 23.092 30.1429 23.136 30.1349 23.168H24.7829C24.8229 23.616 24.9469 24.016 25.1549 24.368C25.3709 24.712 25.6469 24.988 25.9829 25.196C26.3269 25.396 26.6989 25.496 27.0989 25.496C27.5069 25.496 27.8909 25.392 28.2509 25.184C28.6189 24.976 28.8749 24.704 29.0189 24.368L29.7269 24.56C29.5989 24.856 29.4029 25.124 29.1389 25.364C28.8749 25.604 28.5629 25.792 28.2029 25.928C27.8509 26.056 27.4709 26.12 27.0629 26.12ZM24.7589 22.58H29.3789C29.3469 22.124 29.2229 21.724 29.0069 21.38C28.7989 21.036 28.5229 20.768 28.1789 20.576C27.8429 20.376 27.4709 20.276 27.0629 20.276C26.6549 20.276 26.2829 20.376 25.9469 20.576C25.6109 20.768 25.3349 21.04 25.1189 21.392C24.9109 21.736 24.7909 22.132 24.7589 22.58ZM31.3939 26V19.748H32.2099V22.436H35.7859V19.748H36.6019V26H35.7859V23.168H32.2099V26H31.3939ZM41.102 26.12C40.654 26.12 40.238 26.036 39.854 25.868C39.47 25.692 39.138 25.456 38.858 25.16C38.578 24.856 38.358 24.508 38.198 24.116C38.046 23.724 37.97 23.304 37.97 22.856C37.97 22.272 38.102 21.736 38.366 21.248C38.638 20.76 39.01 20.372 39.482 20.084C39.954 19.788 40.49 19.64 41.09 19.64C41.706 19.64 42.242 19.788 42.698 20.084C43.162 20.38 43.526 20.772 43.79 21.26C44.054 21.74 44.186 22.268 44.186 22.844C44.186 22.908 44.186 22.972 44.186 23.036C44.186 23.092 44.182 23.136 44.174 23.168H38.822C38.862 23.616 38.986 24.016 39.194 24.368C39.41 24.712 39.686 24.988 40.022 25.196C40.366 25.396 40.738 25.496 41.138 25.496C41.546 25.496 41.93 25.392 42.29 25.184C42.658 24.976 42.914 24.704 43.058 24.368L43.766 24.56C43.638 24.856 43.442 25.124 43.178 25.364C42.914 25.604 42.602 25.792 42.242 25.928C41.89 26.056 41.51 26.12 41.102 26.12ZM38.798 22.58H43.418C43.386 22.124 43.262 21.724 43.046 21.38C42.838 21.036 42.562 20.768 42.218 20.576C41.882 20.376 41.51 20.276 41.102 20.276C40.694 20.276 40.322 20.376 39.986 20.576C39.65 20.768 39.374 21.04 39.158 21.392C38.95 21.736 38.83 22.132 38.798 22.58ZM45.4329 26V19.748H46.2489V22.436H49.8249V19.748H50.6409V26H49.8249V23.168H46.2489V26H45.4329ZM51.937 24.2C51.937 23.808 52.049 23.472 52.273 23.192C52.497 22.904 52.805 22.684 53.197 22.532C53.597 22.372 54.057 22.292 54.577 22.292C54.881 22.292 55.197 22.316 55.525 22.364C55.853 22.412 56.145 22.484 56.401 22.58V22.052C56.401 21.524 56.245 21.104 55.933 20.792C55.621 20.48 55.189 20.324 54.637 20.324C54.301 20.324 53.969 20.388 53.641 20.516C53.321 20.636 52.985 20.816 52.633 21.056L52.321 20.48C52.729 20.2 53.129 19.992 53.521 19.856C53.913 19.712 54.313 19.64 54.721 19.64C55.489 19.64 56.097 19.86 56.545 20.3C56.993 20.74 57.217 21.348 57.217 22.124V25.016C57.217 25.128 57.241 25.212 57.289 25.268C57.337 25.316 57.413 25.344 57.517 25.352V26C57.429 26.008 57.353 26.016 57.289 26.024C57.225 26.032 57.177 26.032 57.145 26.024C56.945 26.016 56.793 25.952 56.689 25.832C56.585 25.712 56.529 25.584 56.521 25.448L56.509 24.992C56.229 25.352 55.865 25.632 55.417 25.832C54.969 26.024 54.513 26.12 54.049 26.12C53.649 26.12 53.285 26.036 52.957 25.868C52.637 25.692 52.385 25.46 52.201 25.172C52.025 24.876 51.937 24.552 51.937 24.2ZM56.125 24.68C56.213 24.568 56.281 24.46 56.329 24.356C56.377 24.252 56.401 24.16 56.401 24.08V23.168C56.129 23.064 55.845 22.984 55.549 22.928C55.261 22.872 54.969 22.844 54.673 22.844C54.089 22.844 53.617 22.96 53.257 23.192C52.897 23.424 52.717 23.74 52.717 24.14C52.717 24.372 52.777 24.592 52.897 24.8C53.017 25 53.193 25.168 53.425 25.304C53.657 25.432 53.929 25.496 54.241 25.496C54.633 25.496 54.997 25.42 55.333 25.268C55.677 25.116 55.941 24.92 56.125 24.68ZM62.0267 26V19.748H62.8427V22.424H63.7787L65.8787 19.748H66.8147L64.4267 22.784L67.1147 26H66.1547L63.7787 23.18H62.8427V26H62.0267ZM67.7456 24.2C67.7456 23.808 67.8576 23.472 68.0816 23.192C68.3056 22.904 68.6136 22.684 69.0056 22.532C69.4056 22.372 69.8656 22.292 70.3856 22.292C70.6896 22.292 71.0056 22.316 71.3336 22.364C71.6616 22.412 71.9536 22.484 72.2096 22.58V22.052C72.2096 21.524 72.0536 21.104 71.7416 20.792C71.4296 20.48 70.9976 20.324 70.4456 20.324C70.1096 20.324 69.7776 20.388 69.4496 20.516C69.1296 20.636 68.7936 20.816 68.4416 21.056L68.1296 20.48C68.5376 20.2 68.9376 19.992 69.3296 19.856C69.7216 19.712 70.1216 19.64 70.5296 19.64C71.2976 19.64 71.9056 19.86 72.3536 20.3C72.8016 20.74 73.0256 21.348 73.0256 22.124V25.016C73.0256 25.128 73.0496 25.212 73.0976 25.268C73.1456 25.316 73.2216 25.344 73.3256 25.352V26C73.2376 26.008 73.1616 26.016 73.0976 26.024C73.0336 26.032 72.9856 26.032 72.9536 26.024C72.7536 26.016 72.6016 25.952 72.4976 25.832C72.3936 25.712 72.3376 25.584 72.3296 25.448L72.3176 24.992C72.0376 25.352 71.6736 25.632 71.2256 25.832C70.7776 26.024 70.3216 26.12 69.8576 26.12C69.4576 26.12 69.0936 26.036 68.7656 25.868C68.4456 25.692 68.1936 25.46 68.0096 25.172C67.8336 24.876 67.7456 24.552 67.7456 24.2ZM71.9336 24.68C72.0216 24.568 72.0896 24.46 72.1376 24.356C72.1856 24.252 72.2096 24.16 72.2096 24.08V23.168C71.9376 23.064 71.6536 22.984 71.3576 22.928C71.0696 22.872 70.7776 22.844 70.4816 22.844C69.8976 22.844 69.4256 22.96 69.0656 23.192C68.7056 23.424 68.5256 23.74 68.5256 24.14C68.5256 24.372 68.5856 24.592 68.7056 24.8C68.8256 25 69.0016 25.168 69.2336 25.304C69.4656 25.432 69.7376 25.496 70.0496 25.496C70.4416 25.496 70.8056 25.42 71.1416 25.268C71.4856 25.116 71.7496 24.92 71.9336 24.68ZM74.7767 26V19.748H75.5927V22.424H76.5287L78.6287 19.748H79.5647L77.1767 22.784L79.8647 26H78.9047L76.5287 23.18H75.5927V26H74.7767ZM84.0696 26V19.748H84.9096L87.3936 24.056L89.8896 19.748H90.6936V26H89.9136V20.972L87.6576 24.884H87.1296L84.8496 20.972V26H84.0696ZM92.4837 26V19.76H93.2997V24.896L97.1037 19.748H97.8357V26H97.0197V20.948L93.2757 26H92.4837ZM99.6087 26V19.748H100.425V22.436H104.001V19.748H104.817V26H104.001V23.168H100.425V26H99.6087ZM106.605 26V19.76H107.421V24.896L111.225 19.748H111.957V26H111.141V20.948L107.397 26H106.605ZM113.73 26V19.748H114.57L117.054 24.056L119.55 19.748H120.354V26H119.574V20.972L117.318 24.884H116.79L114.51 20.972V26H113.73ZM122.84 28.616C122.704 28.616 122.564 28.592 122.42 28.544C122.284 28.504 122.144 28.444 122 28.364L122.3 27.788C122.388 27.836 122.468 27.876 122.54 27.908C122.62 27.94 122.704 27.956 122.792 27.956C123 27.956 123.196 27.852 123.38 27.644C123.564 27.436 123.74 27.132 123.908 26.732L124.22 25.952L121.436 19.748H122.3L124.592 25.16L126.704 19.748H127.52L124.544 26.984C124.384 27.36 124.216 27.668 124.04 27.908C123.864 28.148 123.676 28.324 123.476 28.436C123.276 28.556 123.064 28.616 122.84 28.616ZM128.648 26V19.748H129.488L131.972 24.056L134.468 19.748H135.272V26H134.492V20.972L132.236 24.884H131.708L129.428 20.972V26H128.648ZM141.944 26.072C141.368 26.072 140.876 25.964 140.468 25.748C140.06 25.524 139.748 25.212 139.532 24.812L140.204 24.512C140.356 24.792 140.576 25.012 140.864 25.172C141.152 25.324 141.5 25.4 141.908 25.4C142.396 25.4 142.784 25.288 143.072 25.064C143.368 24.84 143.516 24.54 143.516 24.164C143.516 23.82 143.4 23.544 143.168 23.336C142.936 23.128 142.616 23.02 142.208 23.012H141.572V22.448H142.256C142.432 22.448 142.592 22.4 142.736 22.304C142.88 22.208 142.992 22.08 143.072 21.92C143.152 21.76 143.192 21.58 143.192 21.38C143.192 21.068 143.08 20.816 142.856 20.624C142.64 20.432 142.32 20.336 141.896 20.336C141.544 20.336 141.248 20.408 141.008 20.552C140.776 20.688 140.588 20.892 140.444 21.164L139.82 20.828C140.004 20.46 140.276 20.172 140.636 19.964C141.004 19.756 141.432 19.652 141.92 19.652C142.32 19.652 142.668 19.72 142.964 19.856C143.268 19.984 143.504 20.172 143.672 20.42C143.848 20.66 143.936 20.952 143.936 21.296C143.936 21.592 143.864 21.868 143.72 22.124C143.576 22.372 143.376 22.56 143.12 22.688C143.488 22.8 143.772 22.996 143.972 23.276C144.18 23.556 144.284 23.884 144.284 24.26C144.284 24.636 144.184 24.96 143.984 25.232C143.784 25.504 143.508 25.712 143.156 25.856C142.804 26 142.4 26.072 141.944 26.072ZM145.148 24.2C145.148 23.808 145.26 23.472 145.484 23.192C145.708 22.904 146.016 22.684 146.408 22.532C146.808 22.372 147.268 22.292 147.788 22.292C148.092 22.292 148.408 22.316 148.736 22.364C149.064 22.412 149.356 22.484 149.612 22.58V22.052C149.612 21.524 149.456 21.104 149.144 20.792C148.832 20.48 148.4 20.324 147.848 20.324C147.512 20.324 147.18 20.388 146.852 20.516C146.532 20.636 146.196 20.816 145.844 21.056L145.532 20.48C145.94 20.2 146.34 19.992 146.732 19.856C147.124 19.712 147.524 19.64 147.932 19.64C148.7 19.64 149.308 19.86 149.756 20.3C150.204 20.74 150.428 21.348 150.428 22.124V25.016C150.428 25.128 150.452 25.212 150.5 25.268C150.548 25.316 150.624 25.344 150.728 25.352V26C150.64 26.008 150.564 26.016 150.5 26.024C150.436 26.032 150.388 26.032 150.356 26.024C150.156 26.016 150.004 25.952 149.9 25.832C149.796 25.712 149.74 25.584 149.732 25.448L149.72 24.992C149.44 25.352 149.076 25.632 148.628 25.832C148.18 26.024 147.724 26.12 147.26 26.12C146.86 26.12 146.496 26.036 146.168 25.868C145.848 25.692 145.596 25.46 145.412 25.172C145.236 24.876 145.148 24.552 145.148 24.2ZM149.336 24.68C149.424 24.568 149.492 24.46 149.54 24.356C149.588 24.252 149.612 24.16 149.612 24.08V23.168C149.34 23.064 149.056 22.984 148.76 22.928C148.472 22.872 148.18 22.844 147.884 22.844C147.3 22.844 146.828 22.96 146.468 23.192C146.108 23.424 145.928 23.74 145.928 24.14C145.928 24.372 145.988 24.592 146.108 24.8C146.228 25 146.404 25.168 146.636 25.304C146.868 25.432 147.14 25.496 147.452 25.496C147.844 25.496 148.208 25.42 148.544 25.268C148.888 25.116 149.152 24.92 149.336 24.68ZM154.926 26C154.918 25.496 154.958 25.052 155.046 24.668C155.134 24.284 155.266 23.944 155.442 23.648C155.626 23.352 155.846 23.096 156.102 22.88C156.358 22.656 156.646 22.46 156.966 22.292C157.27 22.124 157.586 21.972 157.914 21.836C158.242 21.692 158.546 21.536 158.826 21.368C159.106 21.2 159.33 20.996 159.498 20.756C159.674 20.508 159.762 20.2 159.762 19.832C159.762 19.528 159.694 19.248 159.558 18.992C159.43 18.736 159.23 18.532 158.958 18.38C158.686 18.22 158.342 18.14 157.926 18.14C157.518 18.14 157.154 18.208 156.834 18.344C156.522 18.48 156.258 18.644 156.042 18.836C155.834 19.028 155.666 19.204 155.538 19.364L154.998 18.836C155.046 18.78 155.142 18.672 155.286 18.512C155.438 18.352 155.638 18.184 155.886 18.008C156.142 17.832 156.442 17.684 156.786 17.564C157.138 17.436 157.546 17.372 158.01 17.372C158.602 17.372 159.094 17.488 159.486 17.72C159.878 17.944 160.17 18.24 160.362 18.608C160.562 18.976 160.662 19.38 160.662 19.82C160.662 20.244 160.578 20.604 160.41 20.9C160.25 21.188 160.038 21.432 159.774 21.632C159.518 21.824 159.238 21.992 158.934 22.136C158.638 22.28 158.358 22.416 158.094 22.544C157.582 22.776 157.174 23.004 156.87 23.228C156.566 23.452 156.338 23.676 156.186 23.9C156.042 24.124 155.946 24.348 155.898 24.572C155.85 24.796 155.822 25.024 155.814 25.256H160.674V26H154.926ZM165.635 26V23.72H161.447V22.988L165.887 17.48H166.451V22.976H167.507V23.72H166.451V26H165.635ZM162.323 22.976H165.707V18.752L162.323 22.976ZM175.501 26V23.384C175.245 23.504 174.977 23.596 174.697 23.66C174.417 23.716 174.117 23.744 173.797 23.744C173.109 23.744 172.589 23.568 172.237 23.216C171.893 22.864 171.721 22.324 171.721 21.596V19.748H172.537V21.488C172.537 22.048 172.649 22.456 172.873 22.712C173.105 22.968 173.473 23.096 173.977 23.096C174.257 23.096 174.537 23.064 174.817 23C175.097 22.936 175.325 22.852 175.501 22.748V19.748H176.317V26H175.501ZM177.609 24.2C177.609 23.808 177.721 23.472 177.945 23.192C178.169 22.904 178.477 22.684 178.869 22.532C179.269 22.372 179.729 22.292 180.249 22.292C180.553 22.292 180.869 22.316 181.197 22.364C181.525 22.412 181.817 22.484 182.073 22.58V22.052C182.073 21.524 181.917 21.104 181.605 20.792C181.293 20.48 180.861 20.324 180.309 20.324C179.973 20.324 179.641 20.388 179.313 20.516C178.993 20.636 178.657 20.816 178.305 21.056L177.993 20.48C178.401 20.2 178.801 19.992 179.193 19.856C179.585 19.712 179.985 19.64 180.393 19.64C181.161 19.64 181.769 19.86 182.217 20.3C182.665 20.74 182.889 21.348 182.889 22.124V25.016C182.889 25.128 182.913 25.212 182.961 25.268C183.009 25.316 183.085 25.344 183.189 25.352V26C183.101 26.008 183.025 26.016 182.961 26.024C182.897 26.032 182.849 26.032 182.817 26.024C182.617 26.016 182.465 25.952 182.361 25.832C182.257 25.712 182.201 25.584 182.193 25.448L182.181 24.992C181.901 25.352 181.537 25.632 181.089 25.832C180.641 26.024 180.185 26.12 179.721 26.12C179.321 26.12 178.957 26.036 178.629 25.868C178.309 25.692 178.057 25.46 177.873 25.172C177.697 24.876 177.609 24.552 177.609 24.2ZM181.797 24.68C181.885 24.568 181.953 24.46 182.001 24.356C182.049 24.252 182.073 24.16 182.073 24.08V23.168C181.801 23.064 181.517 22.984 181.221 22.928C180.933 22.872 180.641 22.844 180.345 22.844C179.761 22.844 179.289 22.96 178.929 23.192C178.569 23.424 178.389 23.74 178.389 24.14C178.389 24.372 178.449 24.592 178.569 24.8C178.689 25 178.865 25.168 179.097 25.304C179.329 25.432 179.601 25.496 179.913 25.496C180.305 25.496 180.669 25.42 181.005 25.268C181.349 25.116 181.613 24.92 181.797 24.68ZM187.364 26.12C186.908 26.12 186.488 26.036 186.104 25.868C185.728 25.692 185.396 25.452 185.108 25.148C184.828 24.844 184.608 24.496 184.448 24.104C184.296 23.712 184.22 23.296 184.22 22.856C184.22 22.264 184.352 21.724 184.616 21.236C184.88 20.748 185.248 20.36 185.72 20.072C186.192 19.784 186.736 19.64 187.352 19.64C187.936 19.64 188.452 19.776 188.9 20.048C189.348 20.312 189.68 20.672 189.896 21.128L189.104 21.38C188.928 21.06 188.68 20.812 188.36 20.636C188.048 20.452 187.7 20.36 187.316 20.36C186.9 20.36 186.52 20.468 186.176 20.684C185.832 20.9 185.556 21.196 185.348 21.572C185.148 21.948 185.048 22.376 185.048 22.856C185.048 23.328 185.152 23.756 185.36 24.14C185.568 24.524 185.844 24.832 186.188 25.064C186.532 25.288 186.912 25.4 187.328 25.4C187.6 25.4 187.86 25.352 188.108 25.256C188.364 25.16 188.584 25.032 188.768 24.872C188.96 24.704 189.088 24.524 189.152 24.332L189.956 24.572C189.844 24.868 189.656 25.136 189.392 25.376C189.136 25.608 188.832 25.792 188.48 25.928C188.136 26.056 187.764 26.12 187.364 26.12ZM190.734 24.2C190.734 23.808 190.846 23.472 191.07 23.192C191.294 22.904 191.602 22.684 191.994 22.532C192.394 22.372 192.854 22.292 193.374 22.292C193.678 22.292 193.994 22.316 194.322 22.364C194.65 22.412 194.942 22.484 195.198 22.58V22.052C195.198 21.524 195.042 21.104 194.73 20.792C194.418 20.48 193.986 20.324 193.434 20.324C193.098 20.324 192.766 20.388 192.438 20.516C192.118 20.636 191.782 20.816 191.43 21.056L191.118 20.48C191.526 20.2 191.926 19.992 192.318 19.856C192.71 19.712 193.11 19.64 193.518 19.64C194.286 19.64 194.894 19.86 195.342 20.3C195.79 20.74 196.014 21.348 196.014 22.124V25.016C196.014 25.128 196.038 25.212 196.086 25.268C196.134 25.316 196.21 25.344 196.314 25.352V26C196.226 26.008 196.15 26.016 196.086 26.024C196.022 26.032 195.974 26.032 195.942 26.024C195.742 26.016 195.59 25.952 195.486 25.832C195.382 25.712 195.326 25.584 195.318 25.448L195.306 24.992C195.026 25.352 194.662 25.632 194.214 25.832C193.766 26.024 193.31 26.12 192.846 26.12C192.446 26.12 192.082 26.036 191.754 25.868C191.434 25.692 191.182 25.46 190.998 25.172C190.822 24.876 190.734 24.552 190.734 24.2ZM194.922 24.68C195.01 24.568 195.078 24.46 195.126 24.356C195.174 24.252 195.198 24.16 195.198 24.08V23.168C194.926 23.064 194.642 22.984 194.346 22.928C194.058 22.872 193.766 22.844 193.47 22.844C192.886 22.844 192.414 22.96 192.054 23.192C191.694 23.424 191.514 23.74 191.514 24.14C191.514 24.372 191.574 24.592 191.694 24.8C191.814 25 191.99 25.168 192.222 25.304C192.454 25.432 192.726 25.496 193.038 25.496C193.43 25.496 193.794 25.42 194.13 25.268C194.474 25.116 194.738 24.92 194.922 24.68ZM200.14 27.452V25.268H200.248C200.432 25.268 200.6 25.212 200.752 25.1C200.904 24.988 201.04 24.792 201.16 24.512C201.28 24.232 201.376 23.848 201.448 23.36C201.52 22.864 201.568 22.24 201.592 21.488L201.652 19.748H205.72V25.268H206.56V27.452H205.828V26H200.86V27.452H200.14ZM201.484 25.268H204.904V20.48H202.384L202.348 21.56C202.324 22.304 202.272 22.928 202.192 23.432C202.12 23.928 202.024 24.324 201.904 24.62C201.792 24.908 201.652 25.124 201.484 25.268ZM210.46 26.12C210.012 26.12 209.596 26.036 209.212 25.868C208.836 25.692 208.508 25.456 208.228 25.16C207.956 24.856 207.744 24.512 207.592 24.128C207.44 23.736 207.364 23.324 207.364 22.892C207.364 22.444 207.44 22.028 207.592 21.644C207.744 21.252 207.96 20.908 208.24 20.612C208.52 20.308 208.848 20.072 209.224 19.904C209.608 19.728 210.024 19.64 210.472 19.64C210.92 19.64 211.332 19.728 211.708 19.904C212.084 20.072 212.412 20.308 212.692 20.612C212.972 20.908 213.188 21.252 213.34 21.644C213.492 22.028 213.568 22.444 213.568 22.892C213.568 23.324 213.492 23.736 213.34 24.128C213.188 24.512 212.972 24.856 212.692 25.16C212.42 25.456 212.092 25.692 211.708 25.868C211.332 26.036 210.916 26.12 210.46 26.12ZM208.192 22.904C208.192 23.368 208.292 23.792 208.492 24.176C208.7 24.552 208.976 24.852 209.32 25.076C209.664 25.292 210.044 25.4 210.46 25.4C210.876 25.4 211.256 25.288 211.6 25.064C211.944 24.84 212.22 24.536 212.428 24.152C212.636 23.76 212.74 23.336 212.74 22.88C212.74 22.416 212.636 21.992 212.428 21.608C212.22 21.224 211.944 20.92 211.6 20.696C211.256 20.472 210.876 20.36 210.46 20.36C210.044 20.36 209.664 20.476 209.32 20.708C208.984 20.94 208.712 21.248 208.504 21.632C208.296 22.008 208.192 22.432 208.192 22.904ZM220.656 26.12C220.208 26.12 219.792 26.036 219.408 25.868C219.032 25.692 218.704 25.456 218.424 25.16C218.152 24.856 217.94 24.512 217.788 24.128C217.636 23.736 217.56 23.324 217.56 22.892C217.56 22.444 217.636 22.028 217.788 21.644C217.94 21.252 218.156 20.908 218.436 20.612C218.716 20.308 219.044 20.072 219.42 19.904C219.804 19.728 220.22 19.64 220.668 19.64C221.116 19.64 221.528 19.728 221.904 19.904C222.28 20.072 222.608 20.308 222.888 20.612C223.168 20.908 223.384 21.252 223.536 21.644C223.688 22.028 223.764 22.444 223.764 22.892C223.764 23.324 223.688 23.736 223.536 24.128C223.384 24.512 223.168 24.856 222.888 25.16C222.616 25.456 222.288 25.692 221.904 25.868C221.528 26.036 221.112 26.12 220.656 26.12ZM218.388 22.904C218.388 23.368 218.488 23.792 218.688 24.176C218.896 24.552 219.172 24.852 219.516 25.076C219.86 25.292 220.24 25.4 220.656 25.4C221.072 25.4 221.452 25.288 221.796 25.064C222.14 24.84 222.416 24.536 222.624 24.152C222.832 23.76 222.936 23.336 222.936 22.88C222.936 22.416 222.832 21.992 222.624 21.608C222.416 21.224 222.14 20.92 221.796 20.696C221.452 20.472 221.072 20.36 220.656 20.36C220.24 20.36 219.86 20.476 219.516 20.708C219.18 20.94 218.908 21.248 218.7 21.632C218.492 22.008 218.388 22.432 218.388 22.904ZM225.117 26V19.748H225.933V22.424H226.869L228.969 19.748H229.905L227.517 22.784L230.205 26H229.245L226.869 23.18H225.933V26H225.117ZM233.699 26.12C233.251 26.12 232.835 26.036 232.451 25.868C232.075 25.692 231.747 25.456 231.467 25.16C231.195 24.856 230.983 24.512 230.831 24.128C230.679 23.736 230.603 23.324 230.603 22.892C230.603 22.444 230.679 22.028 230.831 21.644C230.983 21.252 231.199 20.908 231.479 20.612C231.759 20.308 232.087 20.072 232.463 19.904C232.847 19.728 233.263 19.64 233.711 19.64C234.159 19.64 234.571 19.728 234.947 19.904C235.323 20.072 235.651 20.308 235.931 20.612C236.211 20.908 236.427 21.252 236.579 21.644C236.731 22.028 236.807 22.444 236.807 22.892C236.807 23.324 236.731 23.736 236.579 24.128C236.427 24.512 236.211 24.856 235.931 25.16C235.659 25.456 235.331 25.692 234.947 25.868C234.571 26.036 234.155 26.12 233.699 26.12ZM231.431 22.904C231.431 23.368 231.531 23.792 231.731 24.176C231.939 24.552 232.215 24.852 232.559 25.076C232.903 25.292 233.283 25.4 233.699 25.4C234.115 25.4 234.495 25.288 234.839 25.064C235.183 24.84 235.459 24.536 235.667 24.152C235.875 23.76 235.979 23.336 235.979 22.88C235.979 22.416 235.875 21.992 235.667 21.608C235.459 21.224 235.183 20.92 234.839 20.696C234.495 20.472 234.115 20.36 233.699 20.36C233.283 20.36 232.903 20.476 232.559 20.708C232.223 20.94 231.951 21.248 231.743 21.632C231.535 22.008 231.431 22.432 231.431 22.904ZM238.159 26V19.748H238.975V22.436H242.551V19.748H243.367V26H242.551V23.168H238.975V26H238.159ZM248.744 26V23.384C248.488 23.504 248.22 23.596 247.94 23.66C247.66 23.716 247.36 23.744 247.04 23.744C246.352 23.744 245.832 23.568 245.48 23.216C245.136 22.864 244.964 22.324 244.964 21.596V19.748H245.78V21.488C245.78 22.048 245.892 22.456 246.116 22.712C246.348 22.968 246.716 23.096 247.22 23.096C247.5 23.096 247.78 23.064 248.06 23C248.34 22.936 248.568 22.852 248.744 22.748V19.748H249.56V26H248.744ZM250.851 24.2C250.851 23.808 250.963 23.472 251.187 23.192C251.411 22.904 251.719 22.684 252.111 22.532C252.511 22.372 252.971 22.292 253.491 22.292C253.795 22.292 254.111 22.316 254.439 22.364C254.767 22.412 255.059 22.484 255.315 22.58V22.052C255.315 21.524 255.159 21.104 254.847 20.792C254.535 20.48 254.103 20.324 253.551 20.324C253.215 20.324 252.883 20.388 252.555 20.516C252.235 20.636 251.899 20.816 251.547 21.056L251.235 20.48C251.643 20.2 252.043 19.992 252.435 19.856C252.827 19.712 253.227 19.64 253.635 19.64C254.403 19.64 255.011 19.86 255.459 20.3C255.907 20.74 256.131 21.348 256.131 22.124V25.016C256.131 25.128 256.155 25.212 256.203 25.268C256.251 25.316 256.327 25.344 256.431 25.352V26C256.343 26.008 256.267 26.016 256.203 26.024C256.139 26.032 256.091 26.032 256.059 26.024C255.859 26.016 255.707 25.952 255.603 25.832C255.499 25.712 255.443 25.584 255.435 25.448L255.423 24.992C255.143 25.352 254.779 25.632 254.331 25.832C253.883 26.024 253.427 26.12 252.963 26.12C252.563 26.12 252.199 26.036 251.871 25.868C251.551 25.692 251.299 25.46 251.115 25.172C250.939 24.876 250.851 24.552 250.851 24.2ZM255.039 24.68C255.127 24.568 255.195 24.46 255.243 24.356C255.291 24.252 255.315 24.16 255.315 24.08V23.168C255.043 23.064 254.759 22.984 254.463 22.928C254.175 22.872 253.883 22.844 253.587 22.844C253.003 22.844 252.531 22.96 252.171 23.192C251.811 23.424 251.631 23.74 251.631 24.14C251.631 24.372 251.691 24.592 251.811 24.8C251.931 25 252.107 25.168 252.339 25.304C252.571 25.432 252.843 25.496 253.155 25.496C253.547 25.496 253.911 25.42 254.247 25.268C254.591 25.116 254.855 24.92 255.039 24.68ZM257.882 26V19.748H258.698V22.436H262.274V19.748H263.09V26H262.274V23.168H258.698V26H257.882ZM264.878 26V19.76H265.694V24.896L269.498 19.748H270.23V26H269.414V20.948L265.67 26H264.878ZM271.547 26L273.407 23.444C272.983 23.38 272.639 23.196 272.375 22.892C272.119 22.58 271.991 22.156 271.991 21.62C271.991 21.26 272.075 20.94 272.243 20.66C272.411 20.38 272.647 20.156 272.951 19.988C273.263 19.82 273.627 19.736 274.043 19.736H276.431V26H275.615V23.576H274.223L272.459 26H271.547ZM274.031 22.952H275.615V20.384H274.175C273.759 20.384 273.427 20.504 273.179 20.744C272.931 20.976 272.807 21.272 272.807 21.632C272.807 22 272.907 22.312 273.107 22.568C273.315 22.824 273.623 22.952 274.031 22.952ZM282.845 26V20.48H280.613V19.748H285.893V20.48H283.661V26H282.845ZM289.704 26.12C289.256 26.12 288.84 26.036 288.456 25.868C288.072 25.692 287.74 25.456 287.46 25.16C287.18 24.856 286.96 24.508 286.8 24.116C286.648 23.724 286.572 23.304 286.572 22.856C286.572 22.272 286.704 21.736 286.968 21.248C287.24 20.76 287.612 20.372 288.084 20.084C288.556 19.788 289.092 19.64 289.692 19.64C290.308 19.64 290.844 19.788 291.3 20.084C291.764 20.38 292.128 20.772 292.392 21.26C292.656 21.74 292.788 22.268 292.788 22.844C292.788 22.908 292.788 22.972 292.788 23.036C292.788 23.092 292.784 23.136 292.776 23.168H287.424C287.464 23.616 287.588 24.016 287.796 24.368C288.012 24.712 288.288 24.988 288.624 25.196C288.968 25.396 289.34 25.496 289.74 25.496C290.148 25.496 290.532 25.392 290.892 25.184C291.26 24.976 291.516 24.704 291.66 24.368L292.368 24.56C292.24 24.856 292.044 25.124 291.78 25.364C291.516 25.604 291.204 25.792 290.844 25.928C290.492 26.056 290.112 26.12 289.704 26.12ZM287.4 22.58H292.02C291.988 22.124 291.864 21.724 291.648 21.38C291.44 21.036 291.164 20.768 290.82 20.576C290.484 20.376 290.112 20.276 289.704 20.276C289.296 20.276 288.924 20.376 288.588 20.576C288.252 20.768 287.976 21.04 287.76 21.392C287.552 21.736 287.432 22.132 287.4 22.58ZM294.034 26V19.748H294.85V22.424H295.786L297.886 19.748H298.822L296.434 22.784L299.122 26H298.162L295.786 23.18H294.85V26H294.034ZM300.965 28.616C300.829 28.616 300.689 28.592 300.545 28.544C300.409 28.504 300.269 28.444 300.125 28.364L300.425 27.788C300.513 27.836 300.593 27.876 300.665 27.908C300.745 27.94 300.829 27.956 300.917 27.956C301.125 27.956 301.321 27.852 301.505 27.644C301.689 27.436 301.865 27.132 302.033 26.732L302.345 25.952L299.561 19.748H300.425L302.717 25.16L304.829 19.748H305.645L302.669 26.984C302.509 27.36 302.341 27.668 302.165 27.908C301.989 28.148 301.801 28.324 301.601 28.436C301.401 28.556 301.189 28.616 300.965 28.616ZM314.693 27.452V26H306.773V19.748H307.589V25.268H310.265V19.748H311.093V25.268H313.757V19.748H314.573V25.268H315.425V27.452H314.693ZM319.364 26.12C318.916 26.12 318.5 26.036 318.116 25.868C317.732 25.692 317.4 25.456 317.12 25.16C316.84 24.856 316.62 24.508 316.46 24.116C316.308 23.724 316.232 23.304 316.232 22.856C316.232 22.272 316.364 21.736 316.628 21.248C316.9 20.76 317.272 20.372 317.744 20.084C318.216 19.788 318.752 19.64 319.352 19.64C319.968 19.64 320.504 19.788 320.96 20.084C321.424 20.38 321.788 20.772 322.052 21.26C322.316 21.74 322.448 22.268 322.448 22.844C322.448 22.908 322.448 22.972 322.448 23.036C322.448 23.092 322.444 23.136 322.436 23.168H317.084C317.124 23.616 317.248 24.016 317.456 24.368C317.672 24.712 317.948 24.988 318.284 25.196C318.628 25.396 319 25.496 319.4 25.496C319.808 25.496 320.192 25.392 320.552 25.184C320.92 24.976 321.176 24.704 321.32 24.368L322.028 24.56C321.9 24.856 321.704 25.124 321.44 25.364C321.176 25.604 320.864 25.792 320.504 25.928C320.152 26.056 319.772 26.12 319.364 26.12ZM317.06 22.58H321.68C321.648 22.124 321.524 21.724 321.308 21.38C321.1 21.036 320.824 20.768 320.48 20.576C320.144 20.376 319.772 20.276 319.364 20.276C318.956 20.276 318.584 20.376 318.248 20.576C317.912 20.768 317.636 21.04 317.42 21.392C317.212 21.736 317.092 22.132 317.06 22.58ZM323.695 26V19.748H327.427V20.48H324.511V26H323.695ZM331.234 26.12C330.786 26.12 330.37 26.036 329.986 25.868C329.61 25.692 329.282 25.456 329.002 25.16C328.73 24.856 328.518 24.512 328.366 24.128C328.214 23.736 328.138 23.324 328.138 22.892C328.138 22.444 328.214 22.028 328.366 21.644C328.518 21.252 328.734 20.908 329.014 20.612C329.294 20.308 329.622 20.072 329.998 19.904C330.382 19.728 330.798 19.64 331.246 19.64C331.694 19.64 332.106 19.728 332.482 19.904C332.858 20.072 333.186 20.308 333.466 20.612C333.746 20.908 333.962 21.252 334.114 21.644C334.266 22.028 334.342 22.444 334.342 22.892C334.342 23.324 334.266 23.736 334.114 24.128C333.962 24.512 333.746 24.856 333.466 25.16C333.194 25.456 332.866 25.692 332.482 25.868C332.106 26.036 331.69 26.12 331.234 26.12ZM328.966 22.904C328.966 23.368 329.066 23.792 329.266 24.176C329.474 24.552 329.75 24.852 330.094 25.076C330.438 25.292 330.818 25.4 331.234 25.4C331.65 25.4 332.03 25.288 332.374 25.064C332.718 24.84 332.994 24.536 333.202 24.152C333.41 23.76 333.514 23.336 333.514 22.88C333.514 22.416 333.41 21.992 333.202 21.608C332.994 21.224 332.718 20.92 332.374 20.696C332.03 20.472 331.65 20.36 331.234 20.36C330.818 20.36 330.438 20.476 330.094 20.708C329.758 20.94 329.486 21.248 329.278 21.632C329.07 22.008 328.966 22.432 328.966 22.904ZM16.2357 43V36.748H21.2637V43H20.4477V37.48H17.0517V43H16.2357ZM25.768 43.12C25.32 43.12 24.904 43.036 24.52 42.868C24.136 42.692 23.804 42.456 23.524 42.16C23.244 41.856 23.024 41.508 22.864 41.116C22.712 40.724 22.636 40.304 22.636 39.856C22.636 39.272 22.768 38.736 23.032 38.248C23.304 37.76 23.676 37.372 24.148 37.084C24.62 36.788 25.156 36.64 25.756 36.64C26.372 36.64 26.908 36.788 27.364 37.084C27.828 37.38 28.192 37.772 28.456 38.26C28.72 38.74 28.852 39.268 28.852 39.844C28.852 39.908 28.852 39.972 28.852 40.036C28.852 40.092 28.848 40.136 28.84 40.168H23.488C23.528 40.616 23.652 41.016 23.86 41.368C24.076 41.712 24.352 41.988 24.688 42.196C25.032 42.396 25.404 42.496 25.804 42.496C26.212 42.496 26.596 42.392 26.956 42.184C27.324 41.976 27.58 41.704 27.724 41.368L28.432 41.56C28.304 41.856 28.108 42.124 27.844 42.364C27.58 42.604 27.268 42.792 26.908 42.928C26.556 43.056 26.176 43.12 25.768 43.12ZM23.464 39.58H28.084C28.052 39.124 27.928 38.724 27.712 38.38C27.504 38.036 27.228 37.768 26.884 37.576C26.548 37.376 26.176 37.276 25.768 37.276C25.36 37.276 24.988 37.376 24.652 37.576C24.316 37.768 24.04 38.04 23.824 38.392C23.616 38.736 23.496 39.132 23.464 39.58ZM33.3029 43.12C32.7829 43.12 32.3149 42.984 31.8989 42.712C31.4909 42.44 31.1669 42.104 30.9269 41.704V45.556H30.1109V36.748H30.8429V37.96C31.0909 37.568 31.4229 37.252 31.8389 37.012C32.2549 36.764 32.6989 36.64 33.1709 36.64C33.6029 36.64 33.9989 36.732 34.3589 36.916C34.7189 37.092 35.0309 37.332 35.2949 37.636C35.5589 37.94 35.7629 38.288 35.9069 38.68C36.0589 39.064 36.1349 39.464 36.1349 39.88C36.1349 40.464 36.0149 41.004 35.7749 41.5C35.5429 41.988 35.2149 42.38 34.7909 42.676C34.3669 42.972 33.8709 43.12 33.3029 43.12ZM33.0749 42.4C33.4189 42.4 33.7269 42.332 33.9989 42.196C34.2709 42.052 34.5029 41.86 34.6949 41.62C34.8949 41.38 35.0469 41.112 35.1509 40.816C35.2549 40.512 35.3069 40.2 35.3069 39.88C35.3069 39.544 35.2469 39.224 35.1269 38.92C35.0149 38.616 34.8509 38.348 34.6349 38.116C34.4189 37.884 34.1709 37.7 33.8909 37.564C33.6109 37.428 33.3069 37.36 32.9789 37.36C32.7709 37.36 32.5549 37.4 32.3309 37.48C32.1069 37.56 31.8909 37.676 31.6829 37.828C31.4829 37.972 31.3149 38.136 31.1789 38.32C31.0429 38.504 30.9589 38.7 30.9269 38.908V40.828C31.0549 41.124 31.2269 41.392 31.4429 41.632C31.6589 41.864 31.9069 42.052 32.1869 42.196C32.4749 42.332 32.7709 42.4 33.0749 42.4ZM37.5052 43V36.76H38.3212V41.896L42.1252 36.748H42.8572V43H42.0412V37.948L38.2972 43H37.5052ZM47.3062 43.12C46.8582 43.12 46.4422 43.036 46.0582 42.868C45.6822 42.692 45.3542 42.456 45.0742 42.16C44.8022 41.856 44.5902 41.512 44.4382 41.128C44.2862 40.736 44.2102 40.324 44.2102 39.892C44.2102 39.444 44.2862 39.028 44.4382 38.644C44.5902 38.252 44.8062 37.908 45.0862 37.612C45.3662 37.308 45.6942 37.072 46.0702 36.904C46.4542 36.728 46.8702 36.64 47.3182 36.64C47.7662 36.64 48.1782 36.728 48.5542 36.904C48.9302 37.072 49.2582 37.308 49.5382 37.612C49.8182 37.908 50.0342 38.252 50.1862 38.644C50.3382 39.028 50.4142 39.444 50.4142 39.892C50.4142 40.324 50.3382 40.736 50.1862 41.128C50.0342 41.512 49.8182 41.856 49.5382 42.16C49.2662 42.456 48.9382 42.692 48.5542 42.868C48.1782 43.036 47.7622 43.12 47.3062 43.12ZM45.0382 39.904C45.0382 40.368 45.1382 40.792 45.3382 41.176C45.5462 41.552 45.8222 41.852 46.1662 42.076C46.5102 42.292 46.8902 42.4 47.3062 42.4C47.7222 42.4 48.1022 42.288 48.4462 42.064C48.7902 41.84 49.0662 41.536 49.2742 41.152C49.4822 40.76 49.5862 40.336 49.5862 39.88C49.5862 39.416 49.4822 38.992 49.2742 38.608C49.0662 38.224 48.7902 37.92 48.4462 37.696C48.1022 37.472 47.7222 37.36 47.3062 37.36C46.8902 37.36 46.5102 37.476 46.1662 37.708C45.8302 37.94 45.5582 38.248 45.3502 38.632C45.1422 39.008 45.0382 39.432 45.0382 39.904ZM51.0829 44.452V42.268H51.1909C51.3749 42.268 51.5429 42.212 51.6949 42.1C51.8469 41.988 51.9829 41.792 52.1029 41.512C52.2229 41.232 52.3189 40.848 52.3909 40.36C52.4629 39.864 52.5109 39.24 52.5349 38.488L52.5949 36.748H56.6629V42.268H57.5029V44.452H56.7709V43H51.8029V44.452H51.0829ZM52.4269 42.268H55.8469V37.48H53.3269L53.2909 38.56C53.2669 39.304 53.2149 39.928 53.1349 40.432C53.0629 40.928 52.9669 41.324 52.8469 41.62C52.7349 41.908 52.5949 42.124 52.4269 42.268ZM58.2358 41.2C58.2358 40.808 58.3478 40.472 58.5718 40.192C58.7958 39.904 59.1038 39.684 59.4958 39.532C59.8958 39.372 60.3558 39.292 60.8758 39.292C61.1798 39.292 61.4958 39.316 61.8238 39.364C62.1518 39.412 62.4438 39.484 62.6998 39.58V39.052C62.6998 38.524 62.5438 38.104 62.2318 37.792C61.9198 37.48 61.4878 37.324 60.9358 37.324C60.5998 37.324 60.2678 37.388 59.9398 37.516C59.6198 37.636 59.2838 37.816 58.9318 38.056L58.6198 37.48C59.0278 37.2 59.4278 36.992 59.8198 36.856C60.2118 36.712 60.6118 36.64 61.0198 36.64C61.7878 36.64 62.3958 36.86 62.8438 37.3C63.2918 37.74 63.5158 38.348 63.5158 39.124V42.016C63.5158 42.128 63.5398 42.212 63.5878 42.268C63.6358 42.316 63.7118 42.344 63.8158 42.352V43C63.7278 43.008 63.6518 43.016 63.5878 43.024C63.5238 43.032 63.4758 43.032 63.4438 43.024C63.2438 43.016 63.0918 42.952 62.9878 42.832C62.8838 42.712 62.8278 42.584 62.8198 42.448L62.8078 41.992C62.5278 42.352 62.1638 42.632 61.7158 42.832C61.2678 43.024 60.8118 43.12 60.3478 43.12C59.9478 43.12 59.5838 43.036 59.2558 42.868C58.9358 42.692 58.6838 42.46 58.4998 42.172C58.3238 41.876 58.2358 41.552 58.2358 41.2ZM62.4238 41.68C62.5118 41.568 62.5798 41.46 62.6278 41.356C62.6758 41.252 62.6998 41.16 62.6998 41.08V40.168C62.4278 40.064 62.1438 39.984 61.8478 39.928C61.5598 39.872 61.2678 39.844 60.9718 39.844C60.3878 39.844 59.9158 39.96 59.5558 40.192C59.1958 40.424 59.0158 40.74 59.0158 41.14C59.0158 41.372 59.0758 41.592 59.1958 41.8C59.3158 42 59.4918 42.168 59.7238 42.304C59.9558 42.432 60.2278 42.496 60.5398 42.496C60.9318 42.496 61.2958 42.42 61.6318 42.268C61.9758 42.116 62.2398 41.92 62.4238 41.68ZM65.1589 43V41.824H65.8669V43H65.1589ZM70.7789 43V34.48H77.2109V43H76.3709V35.224H71.6189V43H70.7789ZM81.8413 43.12C81.3933 43.12 80.9773 43.036 80.5933 42.868C80.2173 42.692 79.8893 42.456 79.6093 42.16C79.3373 41.856 79.1253 41.512 78.9733 41.128C78.8213 40.736 78.7453 40.324 78.7453 39.892C78.7453 39.444 78.8213 39.028 78.9733 38.644C79.1253 38.252 79.3413 37.908 79.6213 37.612C79.9013 37.308 80.2293 37.072 80.6053 36.904C80.9893 36.728 81.4053 36.64 81.8533 36.64C82.3013 36.64 82.7133 36.728 83.0893 36.904C83.4653 37.072 83.7933 37.308 84.0733 37.612C84.3533 37.908 84.5693 38.252 84.7213 38.644C84.8733 39.028 84.9493 39.444 84.9493 39.892C84.9493 40.324 84.8733 40.736 84.7213 41.128C84.5693 41.512 84.3533 41.856 84.0733 42.16C83.8013 42.456 83.4733 42.692 83.0893 42.868C82.7133 43.036 82.2973 43.12 81.8413 43.12ZM79.5733 39.904C79.5733 40.368 79.6733 40.792 79.8733 41.176C80.0813 41.552 80.3573 41.852 80.7013 42.076C81.0453 42.292 81.4253 42.4 81.8413 42.4C82.2573 42.4 82.6373 42.288 82.9813 42.064C83.3253 41.84 83.6013 41.536 83.8093 41.152C84.0173 40.76 84.1213 40.336 84.1213 39.88C84.1213 39.416 84.0173 38.992 83.8093 38.608C83.6013 38.224 83.3253 37.92 82.9813 37.696C82.6373 37.472 82.2573 37.36 81.8413 37.36C81.4253 37.36 81.0453 37.476 80.7013 37.708C80.3653 37.94 80.0933 38.248 79.8853 38.632C79.6773 39.008 79.5733 39.432 79.5733 39.904ZM85.6181 44.452V42.268H85.7261C85.9101 42.268 86.0781 42.212 86.2301 42.1C86.3821 41.988 86.5181 41.792 86.6381 41.512C86.7581 41.232 86.8541 40.848 86.9261 40.36C86.9981 39.864 87.0461 39.24 87.0701 38.488L87.1301 36.748H91.1981V42.268H92.0381V44.452H91.3061V43H86.3381V44.452H85.6181ZM86.9621 42.268H90.3821V37.48H87.8621L87.8261 38.56C87.8021 39.304 87.7501 39.928 87.6701 40.432C87.5981 40.928 87.5021 41.324 87.3821 41.62C87.2701 41.908 87.1301 42.124 86.9621 42.268ZM93.263 43V36.748H98.291V43H97.475V37.48H94.079V43H93.263ZM100.083 43V36.76H100.899V41.896L104.703 36.748H105.435V43H104.619V37.948L100.875 43H100.083ZM109.932 43.12C109.476 43.12 109.056 43.036 108.672 42.868C108.296 42.692 107.964 42.452 107.676 42.148C107.396 41.844 107.176 41.496 107.016 41.104C106.864 40.712 106.788 40.296 106.788 39.856C106.788 39.264 106.92 38.724 107.184 38.236C107.448 37.748 107.816 37.36 108.288 37.072C108.76 36.784 109.304 36.64 109.92 36.64C110.504 36.64 111.02 36.776 111.468 37.048C111.916 37.312 112.248 37.672 112.464 38.128L111.672 38.38C111.496 38.06 111.248 37.812 110.928 37.636C110.616 37.452 110.268 37.36 109.884 37.36C109.468 37.36 109.088 37.468 108.744 37.684C108.4 37.9 108.124 38.196 107.916 38.572C107.716 38.948 107.616 39.376 107.616 39.856C107.616 40.328 107.72 40.756 107.928 41.14C108.136 41.524 108.412 41.832 108.756 42.064C109.1 42.288 109.48 42.4 109.896 42.4C110.168 42.4 110.428 42.352 110.676 42.256C110.932 42.16 111.152 42.032 111.336 41.872C111.528 41.704 111.656 41.524 111.72 41.332L112.524 41.572C112.412 41.868 112.224 42.136 111.96 42.376C111.704 42.608 111.4 42.792 111.048 42.928C110.704 43.056 110.332 43.12 109.932 43.12ZM113.794 43V36.748H114.61V39.424H115.546L117.646 36.748H118.582L116.194 39.784L118.882 43H117.922L115.546 40.18H114.61V43H113.794ZM120.725 45.616C120.589 45.616 120.449 45.592 120.305 45.544C120.169 45.504 120.029 45.444 119.885 45.364L120.185 44.788C120.273 44.836 120.353 44.876 120.425 44.908C120.505 44.94 120.589 44.956 120.677 44.956C120.885 44.956 121.081 44.852 121.265 44.644C121.449 44.436 121.625 44.132 121.793 43.732L122.105 42.952L119.321 36.748H120.185L122.477 42.16L124.589 36.748H125.405L122.429 43.984C122.269 44.36 122.101 44.668 121.925 44.908C121.749 45.148 121.561 45.324 121.361 45.436C121.161 45.556 120.949 45.616 120.725 45.616ZM129.263 43V36.748H130.103L132.587 41.056L135.083 36.748H135.887V43H135.107V37.972L132.851 41.884H132.323L130.043 37.972V43H129.263ZM140.353 43.12C139.905 43.12 139.489 43.036 139.105 42.868C138.729 42.692 138.401 42.456 138.121 42.16C137.849 41.856 137.637 41.512 137.485 41.128C137.333 40.736 137.257 40.324 137.257 39.892C137.257 39.444 137.333 39.028 137.485 38.644C137.637 38.252 137.853 37.908 138.133 37.612C138.413 37.308 138.741 37.072 139.117 36.904C139.501 36.728 139.917 36.64 140.365 36.64C140.813 36.64 141.225 36.728 141.601 36.904C141.977 37.072 142.305 37.308 142.585 37.612C142.865 37.908 143.081 38.252 143.233 38.644C143.385 39.028 143.461 39.444 143.461 39.892C143.461 40.324 143.385 40.736 143.233 41.128C143.081 41.512 142.865 41.856 142.585 42.16C142.313 42.456 141.985 42.692 141.601 42.868C141.225 43.036 140.809 43.12 140.353 43.12ZM138.085 39.904C138.085 40.368 138.185 40.792 138.385 41.176C138.593 41.552 138.869 41.852 139.213 42.076C139.557 42.292 139.937 42.4 140.353 42.4C140.769 42.4 141.149 42.288 141.493 42.064C141.837 41.84 142.113 41.536 142.321 41.152C142.529 40.76 142.633 40.336 142.633 39.88C142.633 39.416 142.529 38.992 142.321 38.608C142.113 38.224 141.837 37.92 141.493 37.696C141.149 37.472 140.769 37.36 140.353 37.36C139.937 37.36 139.557 37.476 139.213 37.708C138.877 37.94 138.605 38.248 138.397 38.632C138.189 39.008 138.085 39.432 138.085 39.904ZM144.382 43L146.722 39.784L144.61 36.748H145.534L147.418 39.448H148.234V36.748H149.074V39.448H149.914L151.762 36.748H152.698L150.574 39.784L152.938 43H151.99L149.914 40.168H149.074V43H148.234V40.168H147.418L145.33 43H144.382ZM154.283 43V36.748H155.099V39.436H158.675V36.748H159.491V43H158.675V40.168H155.099V43H154.283ZM163.955 43.12C163.507 43.12 163.091 43.036 162.707 42.868C162.331 42.692 162.003 42.456 161.723 42.16C161.451 41.856 161.239 41.512 161.087 41.128C160.935 40.736 160.859 40.324 160.859 39.892C160.859 39.444 160.935 39.028 161.087 38.644C161.239 38.252 161.455 37.908 161.735 37.612C162.015 37.308 162.343 37.072 162.719 36.904C163.103 36.728 163.519 36.64 163.967 36.64C164.415 36.64 164.827 36.728 165.203 36.904C165.579 37.072 165.907 37.308 166.187 37.612C166.467 37.908 166.683 38.252 166.835 38.644C166.987 39.028 167.063 39.444 167.063 39.892C167.063 40.324 166.987 40.736 166.835 41.128C166.683 41.512 166.467 41.856 166.187 42.16C165.915 42.456 165.587 42.692 165.203 42.868C164.827 43.036 164.411 43.12 163.955 43.12ZM161.687 39.904C161.687 40.368 161.787 40.792 161.987 41.176C162.195 41.552 162.471 41.852 162.815 42.076C163.159 42.292 163.539 42.4 163.955 42.4C164.371 42.4 164.751 42.288 165.095 42.064C165.439 41.84 165.715 41.536 165.923 41.152C166.131 40.76 166.235 40.336 166.235 39.88C166.235 39.416 166.131 38.992 165.923 38.608C165.715 38.224 165.439 37.92 165.095 37.696C164.751 37.472 164.371 37.36 163.955 37.36C163.539 37.36 163.159 37.476 162.815 37.708C162.479 37.94 162.207 38.248 161.999 38.632C161.791 39.008 161.687 39.432 161.687 39.904ZM174.15 43.12C173.702 43.12 173.286 43.036 172.902 42.868C172.526 42.692 172.198 42.456 171.918 42.16C171.646 41.856 171.434 41.512 171.282 41.128C171.13 40.736 171.054 40.324 171.054 39.892C171.054 39.444 171.13 39.028 171.282 38.644C171.434 38.252 171.65 37.908 171.93 37.612C172.21 37.308 172.538 37.072 172.914 36.904C173.298 36.728 173.714 36.64 174.162 36.64C174.61 36.64 175.022 36.728 175.398 36.904C175.774 37.072 176.102 37.308 176.382 37.612C176.662 37.908 176.878 38.252 177.03 38.644C177.182 39.028 177.258 39.444 177.258 39.892C177.258 40.324 177.182 40.736 177.03 41.128C176.878 41.512 176.662 41.856 176.382 42.16C176.11 42.456 175.782 42.692 175.398 42.868C175.022 43.036 174.606 43.12 174.15 43.12ZM171.882 39.904C171.882 40.368 171.982 40.792 172.182 41.176C172.39 41.552 172.666 41.852 173.01 42.076C173.354 42.292 173.734 42.4 174.15 42.4C174.566 42.4 174.946 42.288 175.29 42.064C175.634 41.84 175.91 41.536 176.118 41.152C176.326 40.76 176.43 40.336 176.43 39.88C176.43 39.416 176.326 38.992 176.118 38.608C175.91 38.224 175.634 37.92 175.29 37.696C174.946 37.472 174.566 37.36 174.15 37.36C173.734 37.36 173.354 37.476 173.01 37.708C172.674 37.94 172.402 38.248 172.194 38.632C171.986 39.008 171.882 39.432 171.882 39.904ZM180.183 43V37.48H177.951V36.748H183.231V37.48H180.999V43H180.183ZM184.329 43V36.748H185.169L187.653 41.056L190.149 36.748H190.953V43H190.173V37.972L187.917 41.884H187.389L185.109 37.972V43H184.329ZM195.455 43.12C195.007 43.12 194.591 43.036 194.207 42.868C193.823 42.692 193.491 42.456 193.211 42.16C192.931 41.856 192.711 41.508 192.551 41.116C192.399 40.724 192.323 40.304 192.323 39.856C192.323 39.272 192.455 38.736 192.719 38.248C192.991 37.76 193.363 37.372 193.835 37.084C194.307 36.788 194.843 36.64 195.443 36.64C196.059 36.64 196.595 36.788 197.051 37.084C197.515 37.38 197.879 37.772 198.143 38.26C198.407 38.74 198.539 39.268 198.539 39.844C198.539 39.908 198.539 39.972 198.539 40.036C198.539 40.092 198.535 40.136 198.527 40.168H193.175C193.215 40.616 193.339 41.016 193.547 41.368C193.763 41.712 194.039 41.988 194.375 42.196C194.719 42.396 195.091 42.496 195.491 42.496C195.899 42.496 196.283 42.392 196.643 42.184C197.011 41.976 197.267 41.704 197.411 41.368L198.119 41.56C197.991 41.856 197.795 42.124 197.531 42.364C197.267 42.604 196.955 42.792 196.595 42.928C196.243 43.056 195.863 43.12 195.455 43.12ZM193.151 39.58H197.771C197.739 39.124 197.615 38.724 197.399 38.38C197.191 38.036 196.915 37.768 196.571 37.576C196.235 37.376 195.863 37.276 195.455 37.276C195.047 37.276 194.675 37.376 194.339 37.576C194.003 37.768 193.727 38.04 193.511 38.392C193.303 38.736 193.183 39.132 193.151 39.58ZM199.786 43V36.748H200.602V39.436H204.178V36.748H204.994V43H204.178V40.168H200.602V43H199.786ZM206.783 43V36.76H207.599V41.896L211.403 36.748H212.135V43H211.319V37.948L207.575 43H206.783ZM215.48 43V37.48H213.248V36.748H218.528V37.48H216.296V43H215.48ZM219.626 43V36.748H220.442V38.956H222.062C222.774 38.956 223.31 39.14 223.67 39.508C224.038 39.868 224.222 40.344 224.222 40.936C224.222 41.32 224.142 41.668 223.982 41.98C223.822 42.292 223.586 42.54 223.274 42.724C222.97 42.908 222.586 43 222.122 43H219.626ZM220.442 42.352H222.014C222.342 42.352 222.606 42.288 222.806 42.16C223.006 42.024 223.154 41.852 223.25 41.644C223.346 41.428 223.394 41.196 223.394 40.948C223.394 40.708 223.35 40.488 223.262 40.288C223.182 40.08 223.038 39.916 222.83 39.796C222.63 39.668 222.35 39.604 221.99 39.604H220.442V42.352ZM228.544 43V36.748H231.664C232.016 36.748 232.312 36.824 232.552 36.976C232.792 37.12 232.972 37.308 233.092 37.54C233.22 37.772 233.284 38.02 233.284 38.284C233.284 38.62 233.204 38.924 233.044 39.196C232.884 39.46 232.652 39.66 232.348 39.796C232.708 39.9 233 40.088 233.224 40.36C233.448 40.632 233.56 40.96 233.56 41.344C233.56 41.68 233.476 41.972 233.308 42.22C233.148 42.468 232.924 42.66 232.636 42.796C232.356 42.932 232.032 43 231.664 43H228.544ZM229.324 42.412H231.64C231.848 42.412 232.036 42.36 232.204 42.256C232.38 42.144 232.516 42 232.612 41.824C232.716 41.648 232.768 41.464 232.768 41.272C232.768 41.064 232.72 40.876 232.624 40.708C232.528 40.532 232.4 40.392 232.24 40.288C232.08 40.184 231.896 40.132 231.688 40.132H229.324V42.412ZM229.324 39.568H231.448C231.656 39.568 231.84 39.512 232 39.4C232.16 39.288 232.284 39.144 232.372 38.968C232.46 38.792 232.504 38.608 232.504 38.416C232.504 38.128 232.408 37.876 232.216 37.66C232.032 37.444 231.792 37.336 231.496 37.336H229.324V39.568ZM237.437 43.036V42.292C237.653 42.292 237.845 42.236 238.013 42.124C238.181 42.004 238.329 41.804 238.457 41.524C238.593 41.244 238.701 40.86 238.781 40.372C238.861 39.876 238.913 39.248 238.937 38.488L239.009 36.748H243.065V43H242.249V37.48H239.729L239.705 38.56C239.673 39.424 239.605 40.148 239.501 40.732C239.397 41.308 239.249 41.764 239.057 42.1C238.873 42.436 238.645 42.676 238.373 42.82C238.101 42.964 237.789 43.036 237.437 43.036ZM249.825 43.12C249.281 43.12 248.797 42.996 248.373 42.748C247.957 42.5 247.621 42.16 247.365 41.728C247.117 41.288 246.973 40.792 246.933 40.24H245.685V43H244.869V36.748H245.685V39.52H246.933C246.981 38.944 247.133 38.44 247.389 38.008C247.645 37.576 247.981 37.24 248.397 37C248.821 36.76 249.297 36.64 249.825 36.64C250.441 36.64 250.973 36.784 251.421 37.072C251.869 37.36 252.217 37.748 252.465 38.236C252.713 38.724 252.837 39.276 252.837 39.892C252.837 40.524 252.709 41.084 252.453 41.572C252.205 42.052 251.853 42.432 251.397 42.712C250.949 42.984 250.425 43.12 249.825 43.12ZM249.825 42.4C250.257 42.4 250.637 42.292 250.965 42.076C251.293 41.86 251.545 41.564 251.721 41.188C251.905 40.812 251.997 40.38 251.997 39.892C251.997 39.372 251.901 38.924 251.709 38.548C251.525 38.172 251.269 37.88 250.941 37.672C250.613 37.464 250.241 37.36 249.825 37.36C249.417 37.36 249.053 37.468 248.733 37.684C248.413 37.892 248.165 38.188 247.989 38.572C247.813 38.948 247.725 39.388 247.725 39.892C247.725 40.396 247.813 40.84 247.989 41.224C248.173 41.6 248.425 41.892 248.745 42.1C249.065 42.3 249.425 42.4 249.825 42.4ZM257.077 43.12C256.069 43.12 255.305 42.812 254.785 42.196C254.273 41.572 254.017 40.712 254.017 39.616C254.017 38.84 254.081 38.184 254.209 37.648C254.337 37.112 254.525 36.672 254.773 36.328C255.021 35.976 255.325 35.688 255.685 35.464C256.053 35.24 256.473 35.056 256.945 34.912L259.573 34.048L259.645 34.756L257.113 35.584C256.633 35.744 256.233 35.948 255.913 36.196C255.593 36.444 255.341 36.76 255.157 37.144C254.981 37.52 254.865 38.012 254.809 38.62C255.017 38.156 255.337 37.8 255.769 37.552C256.201 37.296 256.701 37.168 257.269 37.168C257.877 37.168 258.393 37.292 258.817 37.54C259.249 37.788 259.577 38.132 259.801 38.572C260.025 39.012 260.137 39.52 260.137 40.096C260.137 40.704 260.017 41.236 259.777 41.692C259.545 42.14 259.201 42.492 258.745 42.748C258.297 42.996 257.741 43.12 257.077 43.12ZM257.077 42.4C257.789 42.4 258.337 42.196 258.721 41.788C259.113 41.372 259.309 40.82 259.309 40.132C259.309 39.46 259.117 38.912 258.733 38.488C258.357 38.064 257.805 37.852 257.077 37.852C256.661 37.852 256.285 37.94 255.949 38.116C255.613 38.292 255.345 38.548 255.145 38.884C254.953 39.22 254.857 39.636 254.857 40.132C254.857 40.564 254.941 40.952 255.109 41.296C255.285 41.64 255.537 41.912 255.865 42.112C256.193 42.304 256.597 42.4 257.077 42.4ZM264.173 43.12C263.725 43.12 263.309 43.036 262.925 42.868C262.549 42.692 262.221 42.456 261.941 42.16C261.669 41.856 261.457 41.512 261.305 41.128C261.153 40.736 261.077 40.324 261.077 39.892C261.077 39.444 261.153 39.028 261.305 38.644C261.457 38.252 261.673 37.908 261.953 37.612C262.233 37.308 262.561 37.072 262.937 36.904C263.321 36.728 263.737 36.64 264.185 36.64C264.633 36.64 265.045 36.728 265.421 36.904C265.797 37.072 266.125 37.308 266.405 37.612C266.685 37.908 266.901 38.252 267.053 38.644C267.205 39.028 267.281 39.444 267.281 39.892C267.281 40.324 267.205 40.736 267.053 41.128C266.901 41.512 266.685 41.856 266.405 42.16C266.133 42.456 265.805 42.692 265.421 42.868C265.045 43.036 264.629 43.12 264.173 43.12ZM261.905 39.904C261.905 40.368 262.005 40.792 262.205 41.176C262.413 41.552 262.689 41.852 263.033 42.076C263.377 42.292 263.757 42.4 264.173 42.4C264.589 42.4 264.969 42.288 265.313 42.064C265.657 41.84 265.933 41.536 266.141 41.152C266.349 40.76 266.453 40.336 266.453 39.88C266.453 39.416 266.349 38.992 266.141 38.608C265.933 38.224 265.657 37.92 265.313 37.696C264.969 37.472 264.589 37.36 264.173 37.36C263.757 37.36 263.377 37.476 263.033 37.708C262.697 37.94 262.425 38.248 262.217 38.632C262.009 39.008 261.905 39.432 261.905 39.904ZM268.634 43V36.76H269.45V41.896L273.254 36.748H273.986V43H273.17V37.948L269.426 43H268.634ZM271.322 35.956C270.778 35.956 270.358 35.828 270.062 35.572C269.766 35.316 269.618 34.992 269.618 34.6H270.218C270.218 34.84 270.306 35.04 270.482 35.2C270.666 35.36 270.946 35.44 271.322 35.44C271.69 35.44 271.958 35.364 272.126 35.212C272.302 35.06 272.402 34.856 272.426 34.6H273.014C273.014 34.992 272.866 35.316 272.57 35.572C272.274 35.828 271.858 35.956 271.322 35.956ZM278.818 43V36.748H279.658L282.142 41.056L284.638 36.748H285.442V43H284.662V37.972L282.406 41.884H281.878L279.598 37.972V43H278.818ZM289.908 43.12C289.46 43.12 289.044 43.036 288.66 42.868C288.284 42.692 287.956 42.456 287.676 42.16C287.404 41.856 287.192 41.512 287.04 41.128C286.888 40.736 286.812 40.324 286.812 39.892C286.812 39.444 286.888 39.028 287.04 38.644C287.192 38.252 287.408 37.908 287.688 37.612C287.968 37.308 288.296 37.072 288.672 36.904C289.056 36.728 289.472 36.64 289.92 36.64C290.368 36.64 290.78 36.728 291.156 36.904C291.532 37.072 291.86 37.308 292.14 37.612C292.42 37.908 292.636 38.252 292.788 38.644C292.94 39.028 293.016 39.444 293.016 39.892C293.016 40.324 292.94 40.736 292.788 41.128C292.636 41.512 292.42 41.856 292.14 42.16C291.868 42.456 291.54 42.692 291.156 42.868C290.78 43.036 290.364 43.12 289.908 43.12ZM287.64 39.904C287.64 40.368 287.74 40.792 287.94 41.176C288.148 41.552 288.424 41.852 288.768 42.076C289.112 42.292 289.492 42.4 289.908 42.4C290.324 42.4 290.704 42.288 291.048 42.064C291.392 41.84 291.668 41.536 291.876 41.152C292.084 40.76 292.188 40.336 292.188 39.88C292.188 39.416 292.084 38.992 291.876 38.608C291.668 38.224 291.392 37.92 291.048 37.696C290.704 37.472 290.324 37.36 289.908 37.36C289.492 37.36 289.112 37.476 288.768 37.708C288.432 37.94 288.16 38.248 287.952 38.632C287.744 39.008 287.64 39.432 287.64 39.904ZM294.368 43V36.748H295.208L297.692 41.056L300.188 36.748H300.992V43H300.212V37.972L297.956 41.884H297.428L295.148 37.972V43H294.368ZM305.495 43.12C305.047 43.12 304.631 43.036 304.247 42.868C303.863 42.692 303.531 42.456 303.251 42.16C302.971 41.856 302.751 41.508 302.591 41.116C302.439 40.724 302.363 40.304 302.363 39.856C302.363 39.272 302.495 38.736 302.759 38.248C303.031 37.76 303.403 37.372 303.875 37.084C304.347 36.788 304.883 36.64 305.483 36.64C306.099 36.64 306.635 36.788 307.091 37.084C307.555 37.38 307.919 37.772 308.183 38.26C308.447 38.74 308.579 39.268 308.579 39.844C308.579 39.908 308.579 39.972 308.579 40.036C308.579 40.092 308.575 40.136 308.567 40.168H303.215C303.255 40.616 303.379 41.016 303.587 41.368C303.803 41.712 304.079 41.988 304.415 42.196C304.759 42.396 305.131 42.496 305.531 42.496C305.939 42.496 306.323 42.392 306.683 42.184C307.051 41.976 307.307 41.704 307.451 41.368L308.159 41.56C308.031 41.856 307.835 42.124 307.571 42.364C307.307 42.604 306.995 42.792 306.635 42.928C306.283 43.056 305.903 43.12 305.495 43.12ZM303.191 39.58H307.811C307.779 39.124 307.655 38.724 307.439 38.38C307.231 38.036 306.955 37.768 306.611 37.576C306.275 37.376 305.903 37.276 305.495 37.276C305.087 37.276 304.715 37.376 304.379 37.576C304.043 37.768 303.767 38.04 303.551 38.392C303.343 38.736 303.223 39.132 303.191 39.58ZM309.826 43V36.748H310.642V39.436H314.218V36.748H315.034V43H314.218V40.168H310.642V43H309.826ZM318.394 43V37.48H316.162V36.748H321.442V37.48H319.21V43H318.394Z" fill="white"/>
</svg>
