<svg width="295" height="64" viewBox="0 0 295 64" fill="none" xmlns="http://www.w3.org/2000/svg">
<rect x="0.5" y="0.5" width="294" height="63" rx="7.5" fill="#022424"/>
<rect x="0.5" y="0.5" width="294" height="63" rx="7.5" stroke="#233636"/>
<rect x="10" y="10" width="44" height="44" rx="22" fill="#A1F69E"/>
<g clip-path="url(#clip0_208_1039)">
<path fill-rule="evenodd" clip-rule="evenodd" d="M28.6759 25.0195C28.3801 25.0195 28.0893 25.0949 27.8309 25.2385C27.5677 25.3726 27.3456 25.5754 27.1881 25.8254C27.0283 26.079 26.9411 26.3716 26.9359 26.6713L26.9359 26.6799V37.34L26.9359 37.3486C26.9411 37.6483 27.0283 37.9409 27.1881 38.1945C27.3456 38.4446 27.5677 38.6473 27.8309 38.7815C28.0893 38.925 28.3801 39.0004 28.6759 39.0004C28.9758 39.0004 29.2707 38.9229 29.5318 38.7753C29.5376 38.7721 29.5433 38.7687 29.5489 38.7652L38.1786 33.4277C38.4403 33.2958 38.6612 33.0949 38.8174 32.8464C38.9785 32.5898 39.0641 32.293 39.0641 31.9899C39.0641 31.6869 38.9785 31.3901 38.8174 31.1335C38.6611 30.8847 38.4398 30.6836 38.1778 30.5518L29.5474 25.2538C29.5423 25.2507 29.5371 25.2476 29.5318 25.2446C29.2707 25.0971 28.9758 25.0195 28.6759 25.0195Z" fill="#010D0D"/>
</g>
<rect x="70" y="13.5" width="2" height="37" rx="1" fill="#085252"/>
<rect x="74" y="26" width="2" height="12" rx="1" fill="#085252"/>
<rect x="78" y="17" width="2" height="30" rx="1" fill="#085252"/>
<rect x="82" y="15.5" width="2" height="33" rx="1" fill="#085252"/>
<rect x="86" y="21.5" width="2" height="21" rx="1" fill="#085252"/>
<rect x="90" y="20.5" width="2" height="23" rx="1" fill="#085252"/>
<rect x="94" y="17.5" width="2" height="29" rx="1" fill="#085252"/>
<rect x="98" y="20" width="2" height="24" rx="1" fill="#085252"/>
<rect x="102" y="15" width="2" height="34" rx="1" fill="#085252"/>
<rect x="106" y="12.5" width="2" height="39" rx="1" fill="#085252"/>
<rect x="110" y="26.5" width="2" height="11" rx="1" fill="#085252"/>
<rect x="114" y="15.5" width="2" height="33" rx="1" fill="#085252"/>
<rect x="118" y="25.5" width="2" height="13" rx="1" fill="#085252"/>
<rect x="122" y="25.5" width="2" height="13" rx="1" fill="#085252"/>
<rect x="126" y="26" width="2" height="12" rx="1" fill="#085252"/>
<rect x="130" y="26.5" width="2" height="11" rx="1" fill="#085252"/>
<rect x="134" y="26.5" width="2" height="11" rx="1" fill="#085252"/>
<rect x="138" y="25.5" width="2" height="13" rx="1" fill="#085252"/>
<rect x="142" y="12.5" width="2" height="39" rx="1" fill="#085252"/>
<rect x="146" y="26" width="2" height="12" rx="1" fill="#085252"/>
<rect x="150" y="16.5" width="2" height="31" rx="1" fill="#085252"/>
<rect x="154" y="21.5" width="2" height="21" rx="1" fill="#085252"/>
<rect x="158" y="23.5" width="2" height="17" rx="1" fill="#085252"/>
<rect x="162" y="26" width="2" height="12" rx="1" fill="#085252"/>
<rect x="166" y="25" width="2" height="14" rx="1" fill="#085252"/>
<rect x="170" y="26.5" width="2" height="11" rx="1" fill="#085252"/>
<rect x="174" y="20" width="2" height="24" rx="1" fill="#085252"/>
<rect x="178" y="24.5" width="2" height="15" rx="1" fill="#085252"/>
<rect x="182" y="23" width="2" height="18" rx="1" fill="#085252"/>
<rect x="186" y="24" width="2" height="16" rx="1" fill="#085252"/>
<rect x="190" y="22.5" width="2" height="19" rx="1" fill="#085252"/>
<rect x="194" y="25" width="2" height="14" rx="1" fill="#085252"/>
<rect x="198" y="26" width="2" height="12" rx="1" fill="#085252"/>
<rect x="202" y="26" width="2" height="12" rx="1" fill="#085252"/>
<rect x="206" y="25.5" width="2" height="13" rx="1" fill="#085252"/>
<rect x="210" y="25.5" width="2" height="13" rx="1" fill="#085252"/>
<rect x="214" y="19" width="2" height="26" rx="1" fill="#085252"/>
<rect x="218" y="19" width="2" height="26" rx="1" fill="#085252"/>
<rect x="222" y="15" width="2" height="34" rx="1" fill="#085252"/>
<rect x="226" y="15" width="2" height="34" rx="1" fill="#085252"/>
<rect x="230" y="27" width="2" height="10" rx="1" fill="#085252"/>
<path d="M252.472 38.16C251.704 38.1387 251.027 37.952 250.44 37.6C249.853 37.248 249.363 36.7893 248.968 36.224C248.573 35.648 248.275 35.0293 248.072 34.368C247.869 33.696 247.768 33.04 247.768 32.4C247.768 31.7173 247.875 31.0347 248.088 30.352C248.312 29.6693 248.627 29.0507 249.032 28.496C249.448 27.9307 249.944 27.4827 250.52 27.152C251.096 26.8107 251.747 26.64 252.472 26.64C253.251 26.64 253.928 26.8213 254.504 27.184C255.091 27.5467 255.581 28.016 255.976 28.592C256.371 29.168 256.664 29.792 256.856 30.464C257.059 31.136 257.16 31.7813 257.16 32.4C257.16 33.0933 257.048 33.7813 256.824 34.464C256.611 35.136 256.301 35.7493 255.896 36.304C255.491 36.8587 254.995 37.3067 254.408 37.648C253.832 37.9787 253.187 38.1493 252.472 38.16ZM248.904 32.4C248.925 32.9547 249.011 33.5147 249.16 34.08C249.32 34.6347 249.549 35.1467 249.848 35.616C250.147 36.0747 250.509 36.448 250.936 36.736C251.373 37.0133 251.885 37.152 252.472 37.152C253.069 37.152 253.592 37.0027 254.04 36.704C254.488 36.4053 254.856 36.016 255.144 35.536C255.443 35.0453 255.667 34.528 255.816 33.984C255.965 33.4293 256.04 32.9013 256.04 32.4C256.04 31.8453 255.96 31.2907 255.8 30.736C255.64 30.1707 255.405 29.6587 255.096 29.2C254.787 28.7307 254.413 28.3573 253.976 28.08C253.539 27.792 253.037 27.648 252.472 27.648C251.864 27.648 251.336 27.8027 250.888 28.112C250.44 28.4107 250.067 28.8 249.768 29.28C249.48 29.76 249.261 30.2773 249.112 30.832C248.973 31.376 248.904 31.8987 248.904 32.4ZM258.978 31.28V29.712H259.906V31.28H258.978ZM258.978 38V36.432H259.906V38H258.978ZM266.953 38V34.96H261.369V33.984L267.289 26.64H268.041V33.968H269.449V34.96H268.041V38H266.953ZM262.537 33.968H267.049V28.336L262.537 33.968ZM274.351 38.16C273.54 38.16 272.809 37.9627 272.159 37.568C271.519 37.1627 271.033 36.6293 270.703 35.968L271.439 35.424C271.727 35.9467 272.132 36.368 272.655 36.688C273.177 37.008 273.748 37.168 274.367 37.168C274.9 37.168 275.375 37.0507 275.791 36.816C276.217 36.5813 276.553 36.2613 276.799 35.856C277.055 35.44 277.183 34.96 277.183 34.416C277.183 33.8933 277.06 33.4347 276.815 33.04C276.569 32.6347 276.244 32.32 275.839 32.096C275.433 31.8613 274.975 31.744 274.463 31.744C273.972 31.744 273.503 31.856 273.055 32.08C272.607 32.304 272.244 32.6187 271.967 33.024H270.943L272.223 26.64H277.711V27.648H273.039L272.239 31.728C272.516 31.4293 272.857 31.2 273.263 31.04C273.679 30.8693 274.121 30.784 274.591 30.784C275.284 30.784 275.908 30.9387 276.463 31.248C277.028 31.5573 277.471 31.984 277.791 32.528C278.121 33.0613 278.286 33.6853 278.286 34.4C278.286 35.136 278.111 35.792 277.759 36.368C277.407 36.9333 276.932 37.376 276.335 37.696C275.748 38.0053 275.087 38.16 274.351 38.16Z" fill="white"/>
<defs>
<clipPath id="clip0_208_1039">
<rect width="14" height="14" fill="white" transform="translate(26 25)"/>
</clipPath>
</defs>
</svg>
