<svg width="48" height="48" viewBox="0 0 48 48" fill="none" xmlns="http://www.w3.org/2000/svg">
<g opacity="0.4">
<g clip-path="url(#clip0_707_5201)">
<path fill-rule="evenodd" clip-rule="evenodd" d="M0 8.57143C0 3.83757 3.83757 0 8.57143 0L39.4286 0C44.1624 0 48 3.83757 48 8.57143V39.4286C48 44.1624 44.1624 48 39.4286 48H8.57143C3.83757 48 0 44.1624 0 39.4286L0 8.57143ZM33.5518 18.5553C35.8241 18.5553 37.6659 16.7133 37.6659 14.441C37.6659 12.1688 35.8241 10.3267 33.5518 10.3267C31.2795 10.3267 29.4375 12.1688 29.4375 14.441C29.4375 16.7133 31.2795 18.5553 33.5518 18.5553ZM37.6659 33.5593C37.6659 35.8317 35.8241 37.6735 33.5518 37.6735C31.2795 37.6735 29.4375 35.8317 29.4375 33.5593C29.4375 31.2871 31.2795 29.445 33.5518 29.445C35.8241 29.445 37.6659 31.2871 37.6659 33.5593ZM24 28.1216C26.2722 28.1216 28.1143 26.2796 28.1143 24.0073C28.1143 21.735 26.2722 19.893 24 19.893C21.7277 19.893 19.8857 21.735 19.8857 24.0073C19.8857 26.2796 21.7277 28.1216 24 28.1216ZM18.5626 14.441C18.5626 16.7133 16.7206 18.5553 14.4483 18.5553C12.1761 18.5553 10.3341 16.7133 10.3341 14.441C10.3341 12.1688 12.1761 10.3267 14.4483 10.3267C16.7206 10.3267 18.5626 12.1688 18.5626 14.441ZM14.4483 37.6735C16.7206 37.6735 18.5626 35.8317 18.5626 33.5593C18.5626 31.2871 16.7206 29.445 14.4483 29.445C12.1761 29.445 10.3341 31.2871 10.3341 33.5593C10.3341 35.8317 12.1761 37.6735 14.4483 37.6735Z" fill="white"/>
</g>
</g>
<defs>
<clipPath id="clip0_707_5201">
<rect width="48" height="48" fill="white"/>
</clipPath>
</defs>
</svg>
