<svg width="81" height="80" viewBox="0 0 81 80" fill="none" xmlns="http://www.w3.org/2000/svg">
<rect x="1.4375" y="0.9375" width="78.125" height="78.125" rx="39.0625" fill="black" fill-opacity="0.3"/>
<rect x="1.4375" y="0.9375" width="78.125" height="78.125" rx="39.0625" stroke="white" stroke-width="1.875"/>
<g clip-path="url(#clip0_383_8121)">
<path fill-rule="evenodd" clip-rule="evenodd" d="M26.065 27.8383C25.4373 27.2107 25.4373 26.1931 26.065 25.5654C26.6926 24.9378 27.7102 24.9378 28.3378 25.5654L33.9705 31.1982C35.9159 30.1292 38.1276 29.3724 40.5 29.3724C43.7828 29.3724 46.7581 30.8216 49.1456 32.5417C51.5417 34.268 53.4386 36.3337 54.5869 37.7216L54.5966 37.7334C55.1094 38.3715 55.3794 39.1801 55.3794 40.0006C55.3794 40.8212 55.1094 41.6298 54.5966 42.2679L54.5869 42.2797C53.5399 43.5451 51.8704 45.3741 49.7679 46.9956L54.9352 52.1626C55.5628 52.7903 55.5628 53.8079 54.9352 54.4356C54.3075 55.0632 53.2899 55.0632 52.6622 54.4356L26.065 27.8383ZM44.8224 42.0501C45.1175 41.4289 45.2827 40.734 45.2827 40.0005C45.2827 37.3591 43.1414 35.2178 40.5 35.2178C39.7665 35.2178 39.0716 35.3829 38.4504 35.678L44.8224 42.0501ZM26.413 37.7216C27.0976 36.8943 28.0481 35.8261 29.2118 34.7325L44.4347 49.9555C43.1905 50.3757 41.8721 50.629 40.5 50.629C37.2172 50.629 34.242 49.1798 31.8544 47.4597C29.4583 45.7333 27.5614 43.6676 26.413 42.2797L26.4034 42.2679C25.8906 41.6298 25.6206 40.8212 25.6206 40.0006C25.6206 39.1801 25.8906 38.3715 26.4034 37.7334L26.413 37.7216Z" fill="white"/>
</g>
<defs>
<clipPath id="clip0_383_8121">
<rect width="30" height="30" fill="white" transform="translate(25.5 25)"/>
</clipPath>
</defs>
</svg>
