<svg width="44" height="44" viewBox="0 0 44 44" fill="none" xmlns="http://www.w3.org/2000/svg">
<rect width="44" height="44" rx="22" fill="#A1F69E"/>
<g clip-path="url(#clip0_181_2317)">
<path fill-rule="evenodd" clip-rule="evenodd" d="M15 16.5C15 15.6716 15.6716 15 16.5 15H19C19.8284 15 20.5 15.6716 20.5 16.5V27.5C20.5 28.3284 19.8284 29 19 29H16.5C15.6716 29 15 28.3284 15 27.5V16.5ZM25 15C24.1716 15 23.5 15.6716 23.5 16.5V27.5C23.5 28.3284 24.1716 29 25 29H27.5C28.3284 29 29 28.3284 29 27.5V16.5C29 15.6716 28.3284 15 27.5 15H25Z" fill="#010D0D"/>
</g>
<defs>
<clipPath id="clip0_181_2317">
<rect width="14" height="14" fill="white" transform="translate(15 15)"/>
</clipPath>
</defs>
</svg>
