<svg width="44" height="44" viewBox="0 0 44 44" fill="none" xmlns="http://www.w3.org/2000/svg">
<rect width="44" height="44" rx="22" fill="#A1F69E"/>
<g clip-path="url(#clip0_181_2205)">
<path fill-rule="evenodd" clip-rule="evenodd" d="M18.6759 15.019C18.3801 15.019 18.0893 15.0944 17.8309 15.238C17.5677 15.3721 17.3456 15.5749 17.1881 15.8249C17.0283 16.0785 16.9411 16.3711 16.9359 16.6708L16.9359 16.6795V27.3395L16.9359 27.3481C16.9411 27.6478 17.0283 27.9404 17.1881 28.194C17.3456 28.4441 17.5677 28.6468 17.8309 28.781C18.0893 28.9245 18.3801 28.9999 18.6759 28.9999C18.9758 28.9999 19.2707 28.9224 19.5318 28.7748C19.5376 28.7716 19.5433 28.7682 19.5489 28.7647L28.1786 23.4272C28.4403 23.2953 28.6612 23.0944 28.8174 22.8459C28.9785 22.5893 29.0641 22.2925 29.0641 21.9895C29.0641 21.6864 28.9785 21.3896 28.8174 21.133C28.6611 20.8843 28.4398 20.6832 28.1778 20.5513L19.5474 15.2533C19.5423 15.2502 19.5371 15.2471 19.5318 15.2441C19.2707 15.0966 18.9758 15.019 18.6759 15.019Z" fill="#010D0D"/>
</g>
<defs>
<clipPath id="clip0_181_2205">
<rect width="14" height="14" fill="white" transform="translate(16 15)"/>
</clipPath>
</defs>
</svg>
