<svg width="276" height="88" viewBox="0 0 276 88" fill="none" xmlns="http://www.w3.org/2000/svg">
<g clip-path="url(#clip0_531_41913)">
<path d="M9.0111 85.8115C3.0037 85.8115 0 82.9747 0 77.301V47.264C0 38.7535 2.00247 32.2872 6.0074 27.8651C10.0958 23.443 15.9363 21.2319 23.529 21.2319C33.8751 21.2319 40.8837 24.9448 44.5549 32.3707C48.2261 24.9448 55.2347 21.2319 65.5808 21.2319C73.1735 21.2319 78.9723 23.443 82.9773 27.8651C87.0656 32.2872 89.1098 38.7535 89.1098 47.264V77.301C89.1098 82.9747 86.1061 85.8115 80.0987 85.8115C74.0913 85.8115 71.0876 82.9747 71.0876 77.301V48.2652C71.0876 44.01 70.3784 40.9646 68.96 39.129C67.5416 37.21 65.3305 36.2504 62.3268 36.2504C56.3194 36.2504 53.3157 40.2554 53.3157 48.2652V76.8004C53.3157 82.4741 50.3954 85.3109 44.5549 85.3109C38.7144 85.3109 35.7941 82.4741 35.7941 76.8004V48.2652C35.7941 40.2554 32.7904 36.2504 26.783 36.2504C20.9425 36.2504 18.0222 40.2554 18.0222 48.2652V77.301C18.0222 82.9747 15.0185 85.8115 9.0111 85.8115Z" fill="#61E139"/>
<path fill-rule="evenodd" clip-rule="evenodd" d="M119.54 61.4589C119.108 60.5009 118.447 59.4884 117.436 58.4449C112.263 53.1077 106.765 47.9509 106.765 47.9509C106.765 47.9509 88.3308 29.5174 97.7461 23.4853C105.795 19.8149 114.208 20.9209 123.657 28.949C125.67 30.6591 127.321 32.9819 128.635 35.6394C129.949 32.9819 131.6 30.6591 133.613 28.949C143.062 20.9209 151.475 19.8147 159.524 23.4851C168.939 29.5174 150.505 47.9509 150.505 47.9509C150.505 47.9509 145.007 53.1077 139.834 58.4447C138.542 59.7775 137.823 61.0597 137.422 62.2424V77.4904C137.422 80.3051 136.718 82.4163 135.311 83.8238C133.986 85.1483 131.792 85.8108 128.729 85.8108C122.603 85.8108 119.54 83.0372 119.54 77.4904V61.4589Z" fill="#61E139"/>
<path d="M200.045 85.8121C192.346 85.8121 186.634 83.9907 182.908 80.3481C179.265 76.7054 177.444 71.1171 177.444 63.5832V37.7529H174.215C170.101 37.7529 168.161 35.2279 168.161 30.1777C168.161 25.2103 170.101 22.7265 174.215 22.7267H177.444V9.31478C177.444 6.58273 178.272 4.34742 179.928 2.60884C181.666 0.870263 183.902 0.000976562 186.634 0.000976562C189.283 0.000976562 191.394 0.828869 192.967 2.48466C194.54 4.05766 195.326 6.25157 195.326 9.06641V15.1514C195.326 18.2146 195.326 19.8159 195.326 22.7265L205.633 22.7267C211.264 22.7267 214.078 25.2103 214.078 30.1777C214.078 35.2279 211.264 37.7529 205.633 37.7529H195.326V63.9558C195.326 66.4394 195.617 68.2194 196.195 69.2957C196.775 70.2891 197.728 70.7859 199.051 70.7859C200.79 70.7859 202.075 70.6617 202.901 70.4133C203.813 70.0821 204.931 69.9166 206.254 69.9166C208.489 69.9166 210.271 70.3305 211.594 71.1584C212.919 71.9035 213.581 73.4766 213.581 75.8774C213.581 79.2717 212.506 81.7969 210.352 83.4527C208.2 85.0257 204.764 85.8121 200.045 85.8121Z" fill="#61E139"/>
<path d="M248.169 85.8119C239.889 85.8119 233.431 83.9078 228.796 80.0994C224.158 76.2084 221.842 71.1995 221.842 65.0731C221.842 57.8705 224.863 52.6547 230.907 49.4259C237.033 46.1972 245.974 45.0795 257.731 46.073C257.151 42.2646 255.949 39.6983 254.129 38.3736C252.307 36.9662 250.113 36.2624 247.548 36.2624C245.477 36.2624 243.739 36.3866 242.332 36.635C241.007 36.8005 239.765 37.0075 238.606 37.2559C237.446 37.5043 236.039 37.6285 234.384 37.6285C232.149 37.6285 230.368 37.2559 229.044 36.5108C227.719 35.6828 227.057 34.0685 227.057 31.6676C227.057 28.2733 228.505 25.7897 231.404 24.2166C234.384 22.5609 239.06 21.7329 245.437 21.7329C255.536 21.7329 263.028 24.6305 267.914 30.4258C272.798 36.1383 275.241 43.7963 275.241 53.3998C275.241 64.4935 275.78 74.8008 271.725 80.0994C267.751 85.3151 258.185 85.8119 248.169 85.8119ZM239.724 65.0731C239.724 69.7921 242.91 72.1516 249.286 72.1516C251.355 72.1516 252.969 71.7791 254.129 71.034C255.288 70.2889 256.116 68.7987 256.613 66.5633C257.191 64.328 257.607 60.9751 257.855 56.5044C257.44 56.9183 256.902 57.2082 256.241 57.3737C255.577 57.5392 254.915 57.6221 254.254 57.6221C248.789 57.6221 244.981 58.1602 242.829 59.2365C240.758 60.23 239.724 62.1756 239.724 65.0731Z" fill="#61E139"/>
</g>
<mask id="mask0_531_41913" style="mask-type:alpha" maskUnits="userSpaceOnUse" x="0" y="0" width="276" height="88">
<g clip-path="url(#clip1_531_41913)">
<path d="M9.0111 85.8115C3.0037 85.8115 0 82.9747 0 77.301V47.264C0 38.7535 2.00247 32.2872 6.0074 27.8651C10.0958 23.443 15.9363 21.2319 23.529 21.2319C33.8751 21.2319 40.8837 24.9448 44.5549 32.3707C48.2261 24.9448 55.2347 21.2319 65.5808 21.2319C73.1735 21.2319 78.9723 23.443 82.9773 27.8651C87.0656 32.2872 89.1098 38.7535 89.1098 47.264V77.301C89.1098 82.9747 86.1061 85.8115 80.0987 85.8115C74.0913 85.8115 71.0876 82.9747 71.0876 77.301V48.2652C71.0876 44.01 70.3784 40.9646 68.96 39.129C67.5416 37.21 65.3305 36.2504 62.3268 36.2504C56.3194 36.2504 53.3157 40.2554 53.3157 48.2652V76.8004C53.3157 82.4741 50.3954 85.3109 44.5549 85.3109C38.7144 85.3109 35.7941 82.4741 35.7941 76.8004V48.2652C35.7941 40.2554 32.7904 36.2504 26.783 36.2504C20.9425 36.2504 18.0222 40.2554 18.0222 48.2652V77.301C18.0222 82.9747 15.0185 85.8115 9.0111 85.8115Z" fill="#3BB44B"/>
<path fill-rule="evenodd" clip-rule="evenodd" d="M119.54 61.4594C119.108 60.5014 118.447 59.4889 117.436 58.4454C112.263 53.1082 106.765 47.9514 106.765 47.9514C106.765 47.9514 88.5359 29.723 97.591 23.5879C99.1592 24.6853 101.735 26.5502 104.623 28.8925C101.796 30.1812 99.9073 28.4742 99.9073 28.4742L99.8696 28.5479C99.8696 28.5479 101.9 30.9446 105.099 29.2881L105.095 29.277C106.973 30.8162 108.965 32.5464 110.887 34.3905C106.529 36.2787 101.247 34.4178 101.229 34.3999L101.191 34.5522C101.192 34.5522 101.202 34.5564 101.221 34.5643L101.221 34.5643C101.666 34.7479 106.946 36.9273 111.393 34.8806C111.937 35.4123 112.474 35.9527 113 36.5C114.079 37.6229 115.221 38.8624 116.384 40.1595C109.861 43.4016 103.636 40.2091 103.617 40.1904L103.579 40.2666C103.58 40.2666 103.589 40.2718 103.606 40.2818C104.065 40.5436 110.208 44.053 116.831 40.6595C118.412 42.4343 120.022 44.3008 121.556 46.1121C115.271 50.4277 109.429 47.5902 109.053 47.4073L109.036 47.3996L109.033 47.3983L109 47.4794C109.017 47.4996 115.19 51.4048 121.984 46.6192C123.829 48.8067 125.547 50.8923 126.948 52.6127C123.187 55.3716 118.712 53.8573 118.694 53.8389L118.655 53.9913C118.656 53.9913 118.664 53.9944 118.678 54.0003L118.678 54.0004C119.012 54.1371 122.932 55.7413 126.625 53.6197C125.603 54.7918 125 55.4956 125 55.4956L125.763 56.2573L126.525 57C126.525 57 127.27 56.0563 128.5 54.5293C129.73 56.0563 130.475 57 130.475 57L131.237 56.2573L132 55.4956C132 55.4956 131.397 54.7918 130.375 53.6197C134.068 55.7414 137.988 54.1371 138.322 54.0004L138.322 54.0003C138.336 53.9944 138.344 53.9913 138.345 53.9913L138.306 53.8389C138.288 53.8573 133.813 55.3716 130.052 52.6127C131.453 50.8923 133.171 48.8067 135.016 46.6192C141.81 51.4048 147.983 47.4996 148 47.4794L147.967 47.3983C147.966 47.3983 147.96 47.4014 147.947 47.4073C147.571 47.5902 141.729 50.4277 135.444 46.1121C136.978 44.3008 138.588 42.4343 140.169 40.6594C146.792 44.053 152.935 40.5436 153.394 40.2818L153.415 40.2696L153.419 40.2675L153.421 40.2666L153.383 40.1904C153.364 40.2091 147.139 43.4016 140.616 40.1595C141.779 38.8624 142.921 37.6229 144 36.5C144.526 35.9527 145.063 35.4123 145.607 34.8806C150.054 36.9273 155.334 34.7479 155.779 34.5643C155.798 34.5564 155.808 34.5522 155.809 34.5522L155.771 34.3999C155.753 34.4178 150.471 36.2787 146.113 34.3905C148.035 32.5464 150.027 30.8162 151.905 29.277L151.901 29.2881C155.1 30.9446 157.13 28.5479 157.13 28.5479L157.093 28.4742C157.093 28.4742 155.204 30.1812 152.377 28.8925C155.347 26.4836 157.987 24.5796 159.54 23.4962C168.918 29.5393 150.505 47.9514 150.505 47.9514C150.505 47.9514 145.007 53.1082 139.834 58.4452C138.542 59.778 137.823 61.0602 137.422 62.2429V77.4909C137.422 80.3056 136.718 82.4168 135.311 83.8243C133.986 85.1488 131.792 85.8113 128.729 85.8113C122.603 85.8113 119.54 83.0377 119.54 77.4909V61.4594ZM128.5 51.4834C130.265 49.4842 132.544 46.9348 134.972 44.3034C130.785 37.2501 134.565 31.0165 134.584 30.9999C134.565 31.0163 131.571 37.081 135.443 43.7939C137.716 41.34 140.098 38.8413 142.295 36.6735C139.165 31.1198 142.692 26.0145 142.709 25.9999L142.812 26.0445C142.812 26.045 142.808 26.0519 142.801 26.0648C142.609 26.4139 139.983 31.1921 142.714 36.2619C142.979 36.0024 143.241 35.7482 143.5 35.5C145.16 33.908 146.928 32.3917 148.679 30.9939C147.124 27.4873 148.724 23.0134 148.735 22.9999L148.756 23.0134C148.756 23.0139 148.754 23.0205 148.751 23.0329C148.668 23.354 147.586 27.5548 148.99 30.7472C153.211 27.4071 157.286 24.7724 159.433 23.4445C151.412 19.8236 143.027 20.9515 133.613 28.9495C131.6 30.6596 129.949 32.9824 128.635 35.6399C127.321 32.9824 125.67 30.6596 123.657 28.9495C114.208 20.9214 105.795 19.8154 97.7461 23.4858L97.691 23.5215C99.8689 24.8726 103.869 27.4704 108.01 30.7472C109.414 27.5548 108.332 23.354 108.249 23.0329L108.249 23.0328C108.246 23.0204 108.244 23.0139 108.244 23.0134L108.265 22.9999C108.276 23.0134 109.876 27.4873 108.321 30.9939C110.072 32.3917 111.84 33.908 113.5 35.5C113.759 35.7482 114.021 36.0024 114.286 36.2619C117.017 31.1921 114.391 26.4139 114.199 26.0648C114.192 26.0519 114.188 26.045 114.188 26.0445L114.291 25.9999C114.308 26.0145 117.835 31.1198 114.705 36.6735C116.902 38.8413 119.284 41.34 121.557 43.7939C125.429 37.081 122.435 31.0163 122.416 30.9999C122.435 31.0165 126.215 37.2501 122.028 44.3034C124.456 46.9348 126.735 49.4842 128.5 51.4834Z" fill="#3BB44B"/>
<path d="M200.045 85.8121C192.346 85.8121 186.634 83.9907 182.908 80.3481C179.265 76.7054 177.444 71.1171 177.444 63.5832V37.7529H174.215C170.101 37.7529 168.161 35.2279 168.161 30.1777C168.161 25.2103 170.101 22.7265 174.215 22.7267H177.444V9.31478C177.444 6.58273 178.272 4.34742 179.928 2.60884C181.666 0.870263 183.902 0.000976562 186.634 0.000976562C189.283 0.000976562 191.394 0.828869 192.967 2.48466C194.54 4.05766 195.326 6.25157 195.326 9.06641V15.1514C195.326 18.2146 195.326 19.8159 195.326 22.7265L205.633 22.7267C211.264 22.7267 214.078 25.2103 214.078 30.1777C214.078 35.2279 211.264 37.7529 205.633 37.7529H195.326V63.9558C195.326 66.4394 195.617 68.2194 196.195 69.2957C196.775 70.2891 197.728 70.7859 199.051 70.7859C200.79 70.7859 202.075 70.6617 202.901 70.4133C203.813 70.0821 204.931 69.9166 206.254 69.9166C208.489 69.9166 210.271 70.3305 211.594 71.1584C212.919 71.9035 213.581 73.4766 213.581 75.8774C213.581 79.2717 212.506 81.7969 210.352 83.4527C208.2 85.0257 204.764 85.8121 200.045 85.8121Z" fill="#3BB44B"/>
<path d="M248.169 85.8119C239.889 85.8119 233.431 83.9078 228.796 80.0994C224.158 76.2084 221.842 71.1995 221.842 65.0731C221.842 57.8705 224.863 52.6547 230.907 49.4259C237.033 46.1972 245.974 45.0795 257.731 46.073C257.151 42.2646 255.949 39.6983 254.129 38.3736C252.307 36.9662 250.113 36.2624 247.548 36.2624C245.477 36.2624 243.739 36.3866 242.332 36.635C241.007 36.8005 239.765 37.0075 238.606 37.2559C237.446 37.5043 236.039 37.6285 234.384 37.6285C232.149 37.6285 230.368 37.2559 229.044 36.5108C227.719 35.6828 227.057 34.0685 227.057 31.6676C227.057 28.2733 228.505 25.7897 231.404 24.2166C234.384 22.5609 239.06 21.7329 245.437 21.7329C255.536 21.7329 263.028 24.6305 267.914 30.4258C272.798 36.1383 275.241 43.7963 275.241 53.3998C275.241 64.4935 275.78 74.8008 271.725 80.0994C267.751 85.3151 258.185 85.8119 248.169 85.8119ZM239.724 65.0731C239.724 69.7921 242.91 72.1516 249.286 72.1516C251.355 72.1516 252.969 71.7791 254.129 71.034C255.288 70.2889 256.116 68.7987 256.613 66.5633C257.191 64.328 257.607 60.9751 257.855 56.5044C257.44 56.9183 256.902 57.2082 256.241 57.3737C255.577 57.5392 254.915 57.6221 254.254 57.6221C248.789 57.6221 244.981 58.1602 242.829 59.2365C240.758 60.23 239.724 62.1756 239.724 65.0731Z" fill="#3BB44B"/>
</g>
</mask>
<g mask="url(#mask0_531_41913)">
<g filter="url(#filter0_d_531_41913)">
<path d="M-21.4956 -51.8076C-21.4956 -51.8076 59.1497 47.8534 129.95 47.8534C200.75 47.8534 281.396 -51.8076 281.396 -51.8076L-21.4956 -51.8076Z" fill="#43B700"/>
</g>
<g filter="url(#filter1_d_531_41913)">
<path d="M-107.478 158.285C-107.478 158.285 -26.8323 58.6242 43.9681 58.6242C114.768 58.6242 195.414 158.285 195.414 158.285L-107.478 158.285Z" fill="#43B700"/>
</g>
<g filter="url(#filter2_d_531_41913)">
<path d="M68.3948 158.285C68.3948 158.285 149.04 58.6242 219.84 58.6242C290.641 58.6242 371.286 158.285 371.286 158.285L68.3948 158.285Z" fill="#43B700"/>
</g>
</g>
<defs>
<filter id="filter0_d_531_41913" x="-21.4956" y="-51.8076" width="302.891" height="103.661" filterUnits="userSpaceOnUse" color-interpolation-filters="sRGB">
<feFlood flood-opacity="0" result="BackgroundImageFix"/>
<feColorMatrix in="SourceAlpha" type="matrix" values="0 0 0 0 0 0 0 0 0 0 0 0 0 0 0 0 0 0 127 0" result="hardAlpha"/>
<feOffset dy="4"/>
<feComposite in2="hardAlpha" operator="out"/>
<feColorMatrix type="matrix" values="0 0 0 0 0.282353 0 0 0 0 0.776471 0 0 0 0 0.00784314 0 0 0 1 0"/>
<feBlend mode="normal" in2="BackgroundImageFix" result="effect1_dropShadow_531_41913"/>
<feBlend mode="normal" in="SourceGraphic" in2="effect1_dropShadow_531_41913" result="shape"/>
</filter>
<filter id="filter1_d_531_41913" x="-107.478" y="54.624" width="302.891" height="103.661" filterUnits="userSpaceOnUse" color-interpolation-filters="sRGB">
<feFlood flood-opacity="0" result="BackgroundImageFix"/>
<feColorMatrix in="SourceAlpha" type="matrix" values="0 0 0 0 0 0 0 0 0 0 0 0 0 0 0 0 0 0 127 0" result="hardAlpha"/>
<feOffset dy="-4"/>
<feComposite in2="hardAlpha" operator="out"/>
<feColorMatrix type="matrix" values="0 0 0 0 0.282353 0 0 0 0 0.776471 0 0 0 0 0.00784314 0 0 0 1 0"/>
<feBlend mode="normal" in2="BackgroundImageFix" result="effect1_dropShadow_531_41913"/>
<feBlend mode="normal" in="SourceGraphic" in2="effect1_dropShadow_531_41913" result="shape"/>
</filter>
<filter id="filter2_d_531_41913" x="68.3948" y="54.624" width="302.891" height="103.661" filterUnits="userSpaceOnUse" color-interpolation-filters="sRGB">
<feFlood flood-opacity="0" result="BackgroundImageFix"/>
<feColorMatrix in="SourceAlpha" type="matrix" values="0 0 0 0 0 0 0 0 0 0 0 0 0 0 0 0 0 0 127 0" result="hardAlpha"/>
<feOffset dy="-4"/>
<feComposite in2="hardAlpha" operator="out"/>
<feColorMatrix type="matrix" values="0 0 0 0 0.283637 0 0 0 0 0.775 0 0 0 0 0.00645833 0 0 0 1 0"/>
<feBlend mode="normal" in2="BackgroundImageFix" result="effect1_dropShadow_531_41913"/>
<feBlend mode="normal" in="SourceGraphic" in2="effect1_dropShadow_531_41913" result="shape"/>
</filter>
<clipPath id="clip0_531_41913">
<rect width="275.533" height="87.3169" fill="white"/>
</clipPath>
<clipPath id="clip1_531_41913">
<rect width="275.533" height="87.3169" fill="white"/>
</clipPath>
</defs>
</svg>
