<svg width="375" height="812" viewBox="0 0 375 812" fill="none" xmlns="http://www.w3.org/2000/svg">
<g clip-path="url(#clip0_169_1417)">
<mask id="mask0_169_1417" style="mask-type:alpha" maskUnits="userSpaceOnUse" x="-407" y="0" width="1239" height="812">
<path d="M75.1507 0.0916573C68.5042 1.00199 64.7673 6.87477 62.1328 12.5213C58.8444 8.03401 54.7652 3.08433 49.5425 1.13369C46.9375 0.1607 44.2397 0.111964 42.4464 2.50471C38.3991 7.90695 41.2912 16.1464 44.452 21.175C48.6983 27.9308 55.0593 33.1015 61.1361 38.1354C61.566 38.4916 62.1305 38.0634 62.4223 37.7988C66.9088 33.7322 71.3047 29.5687 75.5916 25.2926C79.1069 21.7865 83.6526 18.2241 85.233 13.3515C85.2399 13.3324 85.2457 13.3132 85.2527 13.2935C85.2782 13.214 85.3095 13.1375 85.3333 13.0574C85.4714 12.5909 85.5758 11.9614 85.5938 11.3069C85.9599 5.29431 81.8418 -0.825058 75.1507 0.0916573ZM78.1595 15.2151C76.2426 17.1901 74.3036 19.1437 72.3432 21.0757C68.8123 24.5558 65.2065 27.9563 61.5422 31.2948C56.7099 27.2897 51.7993 23.1471 48.0032 18.1161C46.4728 16.0872 41.5216 9.35745 45.078 7.36678C46.3532 6.65255 48.7691 7.52111 50.1859 8.27595C54.9526 10.8161 58.4731 15.5221 61.552 19.8115C62.192 20.7033 63.234 20.0755 63.5751 19.2893C65.3615 15.1722 67.3091 10.6936 71.2989 8.25101C73.2315 7.06798 75.6085 6.32416 77.8833 6.79703C79.2032 7.07146 82.1099 8.44711 82.2857 10.1181C81.503 12.1366 79.6308 13.6997 78.1595 15.2151Z" fill="white"/>
<path d="M224.304 0.0916573C217.658 1.00199 213.921 6.87477 211.287 12.5213C207.998 8.03401 203.919 3.08433 198.696 1.13311C196.091 0.16012 193.393 0.111384 191.6 2.50413C187.553 7.90637 190.445 16.1458 193.606 21.1744C197.852 27.9302 204.213 33.101 210.29 38.1348C210.72 38.491 211.284 38.0628 211.576 37.7983C216.063 33.7316 220.459 29.5681 224.745 25.2921C228.261 21.7859 232.806 18.2241 234.387 13.3515C234.395 13.3289 234.402 13.3057 234.41 13.2831C234.434 13.2071 234.464 13.1334 234.487 13.0568C234.625 12.5903 234.73 11.9608 234.748 11.3069C235.114 5.29431 230.996 -0.825058 224.304 0.0916573ZM227.314 15.2151C225.397 17.1901 223.458 19.1437 221.498 21.0757C217.967 24.5558 214.361 27.9563 210.697 31.2948C205.864 27.2897 200.954 23.1471 197.158 18.1161C195.627 16.0872 190.676 9.35745 194.232 7.36678C195.508 6.65255 197.923 7.52111 199.34 8.27595C204.107 10.8161 207.627 15.5221 210.706 19.8115C211.346 20.7033 212.388 20.0755 212.729 19.2893C214.516 15.1722 216.463 10.6936 220.453 8.25101C222.385 7.06798 224.763 6.32416 227.038 6.79703C228.358 7.07146 231.264 8.44711 231.44 10.1181C230.657 12.1366 228.785 13.6997 227.314 15.2151Z" fill="white"/>
<path d="M373.458 0.0916573C366.812 1.00199 363.075 6.87477 360.44 12.5213C357.152 8.03401 353.073 3.08433 347.85 1.13369C345.245 0.1607 342.547 0.111964 340.754 2.50471C336.707 7.90695 339.599 16.1464 342.76 21.175C347.006 27.9308 353.366 33.1015 359.444 38.1354C359.874 38.4916 360.438 38.0634 360.73 37.7988C365.216 33.7322 369.613 29.5687 373.9 25.2926C377.415 21.7865 381.961 18.2241 383.541 13.3515C383.548 13.3324 383.554 13.3132 383.561 13.2935C383.586 13.214 383.618 13.1375 383.641 13.0574C383.78 12.5909 383.884 11.9614 383.902 11.3069C384.268 5.29431 380.149 -0.825058 373.458 0.0916573ZM376.467 15.2151C374.55 17.1901 372.611 19.1437 370.651 21.0757C367.12 24.5558 363.514 27.9563 359.85 31.2948C355.018 27.2897 350.107 23.1471 346.311 18.1161C344.78 16.0872 339.829 9.35745 343.386 7.36678C344.661 6.65255 347.077 7.52111 348.494 8.27595C353.26 10.8161 356.781 15.5221 359.86 19.8115C360.5 20.7033 361.542 20.0755 361.883 19.2893C363.669 15.1722 365.617 10.6936 369.607 8.25101C371.539 7.06798 373.916 6.32416 376.191 6.79703C377.511 7.07146 380.418 8.44711 380.593 10.1181C379.811 12.1366 377.938 13.6997 376.467 15.2151Z" fill="white"/>
<path d="M0.574276 110.624C-6.07218 111.535 -9.80907 117.407 -12.4436 123.054C-15.7321 118.567 -19.8112 113.617 -25.034 111.666C-27.6389 110.693 -30.3367 110.645 -32.1301 113.037C-36.1773 118.44 -33.2852 126.679 -30.1244 131.708C-25.8781 138.464 -19.5177 143.634 -13.4404 148.668C-13.0105 149.024 -12.4459 148.596 -12.1541 148.332C-7.66764 144.265 -3.27168 140.101 1.01521 135.825C4.53048 132.319 9.07612 128.757 10.6565 123.884C10.6635 123.865 10.6693 123.846 10.6763 123.826C10.7018 123.747 10.7331 123.67 10.7569 123.59C10.895 123.124 10.9994 122.494 11.0174 121.84C11.3829 115.827 7.26483 109.708 0.574276 110.624ZM3.58307 125.748C1.66618 127.723 -0.27277 129.676 -2.23317 131.608C-5.7641 135.088 -9.36988 138.489 -13.0343 141.828C-17.8665 137.822 -22.7771 133.68 -26.5732 128.649C-28.1037 126.62 -33.0549 119.89 -29.4984 117.899C-28.2226 117.185 -25.8073 118.054 -24.3905 118.809C-19.6238 121.349 -16.1033 126.055 -13.0244 130.344C-12.3844 131.236 -11.3425 130.608 -11.0013 129.822C-9.21496 125.705 -7.26733 121.226 -3.27748 118.784C-1.3455 117.601 1.03204 116.857 3.3069 117.33C4.62679 117.604 7.53347 118.98 7.70926 120.651C6.92661 122.669 5.05381 124.232 3.58307 125.748Z" fill="white"/>
<path d="M149.728 110.624C143.081 111.535 139.344 117.407 136.71 123.054C133.422 118.567 129.342 113.617 124.12 111.666C121.515 110.693 118.817 110.645 117.024 113.037C112.976 118.44 115.868 126.679 119.029 131.708C123.275 138.464 129.636 143.634 135.713 148.668C136.143 149.024 136.708 148.596 136.999 148.332C141.486 144.265 145.882 140.101 150.169 135.825C153.684 132.319 158.229 128.757 159.81 123.885C159.818 123.862 159.825 123.839 159.833 123.816C159.858 123.74 159.888 123.667 159.91 123.59C160.049 123.124 160.153 122.494 160.171 121.84C160.536 115.827 156.418 109.708 149.728 110.624ZM152.737 125.748C150.82 127.723 148.881 129.676 146.92 131.608C143.389 135.088 139.784 138.489 136.119 141.828C131.287 137.822 126.376 133.68 122.58 128.649C121.05 126.62 116.099 119.89 119.655 117.899C120.93 117.185 123.346 118.054 124.763 118.809C129.53 121.349 133.05 126.055 136.129 130.344C136.769 131.236 137.811 130.608 138.152 129.822C139.939 125.705 141.886 121.226 145.876 118.784C147.809 117.601 150.186 116.857 152.46 117.33C153.78 117.604 156.687 118.98 156.863 120.651C156.08 122.669 154.207 124.232 152.737 125.748Z" fill="white"/>
<path d="M298.882 110.624C292.235 111.535 288.498 117.407 285.864 123.054C282.575 118.567 278.496 113.617 273.273 111.666C270.668 110.693 267.971 110.645 266.177 113.037C262.13 118.44 265.022 126.679 268.182 131.708C272.429 138.464 278.79 143.634 284.866 148.668C285.296 149.024 285.861 148.596 286.153 148.332C290.639 144.265 295.035 140.101 299.322 135.825C302.837 132.319 307.383 128.757 308.963 123.884C308.97 123.865 308.976 123.846 308.983 123.826C309.009 123.747 309.04 123.67 309.064 123.59C309.202 123.124 309.306 122.494 309.324 121.84C309.69 115.827 305.572 109.708 298.882 110.624ZM301.89 125.748C299.974 127.723 298.035 129.676 296.074 131.608C292.543 135.088 288.938 138.489 285.273 141.828C280.441 137.822 275.53 133.68 271.734 128.649C270.204 126.62 265.253 119.89 268.809 117.899C270.085 117.185 272.5 118.054 273.917 118.809C278.684 121.349 282.204 126.055 285.283 130.344C285.923 131.236 286.965 130.608 287.306 129.822C289.092 125.705 291.04 121.226 295.03 118.784C296.962 117.601 299.339 116.857 301.614 117.33C302.934 117.604 305.841 118.98 306.017 120.651C305.234 122.669 303.361 124.232 301.89 125.748Z" fill="white"/>
<path d="M75.1507 221.157C68.5042 222.067 64.7673 227.94 62.1328 233.587C58.8444 229.099 54.7652 224.15 49.5425 222.199C46.9375 221.226 44.2397 221.177 42.4464 223.57C38.3991 228.972 41.2912 237.212 44.452 242.24C48.6983 248.996 55.0593 254.167 61.1361 259.201C61.566 259.557 62.1305 259.129 62.4223 258.864C66.9088 254.798 71.3047 250.634 75.5916 246.358C79.1069 242.852 83.6526 239.289 85.233 234.417C85.2399 234.398 85.2457 234.379 85.2527 234.359C85.2782 234.279 85.3095 234.203 85.3333 234.123C85.4714 233.656 85.5758 233.027 85.5938 232.372C85.9599 226.36 81.8418 220.24 75.1507 221.157ZM78.1595 236.281C76.2426 238.256 74.3036 240.209 72.3432 242.141C68.8123 245.621 65.2065 249.022 61.5422 252.36C56.7099 248.355 51.7993 244.212 48.0032 239.182C46.4728 237.153 41.5216 230.423 45.078 228.432C46.3532 227.718 48.7691 228.587 50.1859 229.341C54.9526 231.881 58.4731 236.588 61.552 240.877C62.192 241.769 63.234 241.141 63.5751 240.355C65.3615 236.238 67.3091 231.759 71.2989 229.316C73.2315 228.133 75.6085 227.39 77.8833 227.862C79.2032 228.137 82.1099 229.513 82.2857 231.184C81.503 233.203 79.6308 234.765 78.1595 236.281Z" fill="white"/>
<path d="M224.304 221.157C217.658 222.067 213.921 227.94 211.287 233.587C207.998 229.099 203.919 224.15 198.696 222.199C196.091 221.226 193.393 221.177 191.6 223.57C187.553 228.972 190.445 237.211 193.606 242.24C197.852 248.996 204.213 254.166 210.29 259.2C210.72 259.556 211.284 259.128 211.576 258.864C216.063 254.797 220.459 250.634 224.745 246.357C228.261 242.851 232.806 239.289 234.387 234.417C234.395 234.394 234.402 234.371 234.41 234.349C234.434 234.272 234.464 234.199 234.487 234.122C234.625 233.656 234.73 233.026 234.748 232.372C235.114 226.36 230.996 220.24 224.304 221.157ZM227.314 236.281C225.397 238.256 223.458 240.209 221.498 242.141C217.967 245.621 214.361 249.022 210.697 252.36C205.864 248.355 200.954 244.212 197.158 239.182C195.627 237.153 190.676 230.423 194.232 228.432C195.508 227.718 197.923 228.587 199.34 229.341C204.107 231.881 207.627 236.588 210.706 240.877C211.346 241.769 212.388 241.141 212.729 240.355C214.516 236.238 216.463 231.759 220.453 229.316C222.385 228.133 224.763 227.39 227.038 227.862C228.358 228.137 231.264 229.513 231.44 231.184C230.657 233.203 228.785 234.765 227.314 236.281Z" fill="white"/>
<path d="M373.458 221.157C366.812 222.067 363.075 227.94 360.44 233.587C357.152 229.099 353.073 224.15 347.85 222.199C345.245 221.226 342.547 221.177 340.754 223.57C336.707 228.972 339.599 237.212 342.76 242.24C347.006 248.996 353.366 254.167 359.444 259.201C359.874 259.557 360.438 259.129 360.73 258.864C365.216 254.798 369.613 250.634 373.9 246.358C377.415 242.852 381.961 239.289 383.541 234.417C383.548 234.398 383.554 234.379 383.561 234.359C383.586 234.279 383.618 234.203 383.641 234.123C383.78 233.656 383.884 233.027 383.902 232.372C384.268 226.36 380.149 220.24 373.458 221.157ZM376.467 236.281C374.55 238.256 372.611 240.209 370.651 242.141C367.12 245.621 363.514 249.022 359.85 252.36C355.018 248.355 350.107 244.212 346.311 239.182C344.78 237.153 339.829 230.423 343.386 228.432C344.661 227.718 347.077 228.587 348.494 229.341C353.26 231.881 356.781 236.588 359.86 240.877C360.5 241.769 361.542 241.141 361.883 240.355C363.669 236.238 365.617 231.759 369.607 229.316C371.539 228.133 373.916 227.39 376.191 227.862C377.511 228.137 380.418 229.513 380.593 231.184C379.811 233.203 377.938 234.765 376.467 236.281Z" fill="white"/>
<path d="M0.574276 331.69C-6.07218 332.6 -9.80907 338.473 -12.4436 344.119C-15.7321 339.632 -19.8112 334.682 -25.034 332.732C-27.6389 331.759 -30.3367 331.71 -32.1301 334.103C-36.1773 339.505 -33.2852 347.744 -30.1244 352.773C-25.8781 359.529 -19.5177 364.7 -13.4404 369.733C-13.0105 370.089 -12.4459 369.661 -12.1541 369.396C-7.66764 365.33 -3.27168 361.166 1.01521 356.89C4.53048 353.384 9.07612 349.822 10.6565 344.949C10.6635 344.93 10.6693 344.911 10.6763 344.891C10.7018 344.812 10.7331 344.735 10.7569 344.655C10.895 344.188 10.9994 343.559 11.0174 342.904C11.3829 336.892 7.26483 330.773 0.574276 331.69ZM3.58307 346.813C1.66618 348.788 -0.27277 350.742 -2.23317 352.674C-5.7641 356.154 -9.36988 359.554 -13.0343 362.893C-17.8665 358.888 -22.7771 354.745 -26.5732 349.714C-28.1037 347.685 -33.0549 340.956 -29.4984 338.965C-28.2226 338.251 -25.8073 339.119 -24.3905 339.874C-19.6238 342.414 -16.1033 347.12 -13.0244 351.41C-12.3844 352.301 -11.3425 351.674 -11.0013 350.887C-9.21496 346.77 -7.26733 342.292 -3.27748 339.849C-1.3455 338.666 1.03204 337.922 3.3069 338.395C4.62679 338.67 7.53347 340.045 7.70926 341.716C6.92661 343.735 5.05381 345.298 3.58307 346.813Z" fill="white"/>
<path d="M149.728 331.69C143.081 332.6 139.344 338.473 136.71 344.119C133.422 339.632 129.342 334.682 124.12 332.732C121.515 331.759 118.817 331.71 117.024 334.103C112.976 339.505 115.868 347.744 119.029 352.773C123.275 359.529 129.636 364.7 135.713 369.733C136.143 370.089 136.708 369.661 136.999 369.396C141.486 365.33 145.882 361.166 150.169 356.89C153.684 353.384 158.229 349.822 159.81 344.95C159.818 344.927 159.825 344.904 159.833 344.881C159.858 344.805 159.888 344.732 159.91 344.655C160.049 344.188 160.153 343.559 160.171 342.904C160.536 336.892 156.418 330.773 149.728 331.69ZM152.737 346.813C150.82 348.788 148.881 350.742 146.92 352.674C143.389 356.154 139.784 359.554 136.119 362.893C131.287 358.888 126.376 354.745 122.58 349.714C121.05 347.685 116.099 340.956 119.655 338.965C120.93 338.251 123.346 339.119 124.763 339.874C129.53 342.414 133.05 347.12 136.129 351.41C136.769 352.301 137.811 351.674 138.152 350.887C139.939 346.77 141.886 342.292 145.876 339.849C147.809 338.666 150.186 337.922 152.46 338.395C153.78 338.67 156.687 340.045 156.863 341.716C156.08 343.735 154.207 345.298 152.737 346.813Z" fill="white"/>
<path d="M298.882 331.69C292.235 332.6 288.498 338.473 285.864 344.119C282.575 339.632 278.496 334.682 273.273 332.732C270.668 331.759 267.971 331.71 266.177 334.103C262.13 339.505 265.022 347.744 268.182 352.773C272.429 359.529 278.79 364.7 284.866 369.733C285.296 370.089 285.861 369.661 286.153 369.396C290.639 365.33 295.035 361.166 299.322 356.89C302.837 353.384 307.383 349.822 308.963 344.949C308.97 344.93 308.976 344.911 308.983 344.891C309.009 344.812 309.04 344.735 309.064 344.655C309.202 344.188 309.306 343.559 309.324 342.904C309.69 336.892 305.572 330.773 298.882 331.69ZM301.89 346.813C299.974 348.788 298.035 350.742 296.074 352.674C292.543 356.154 288.938 359.554 285.273 362.893C280.441 358.888 275.53 354.745 271.734 349.714C270.204 347.685 265.253 340.956 268.809 338.965C270.085 338.251 272.5 339.119 273.917 339.874C278.684 342.414 282.204 347.12 285.283 351.41C285.923 352.301 286.965 351.674 287.306 350.887C289.092 346.77 291.04 342.292 295.03 339.849C296.962 338.666 299.339 337.922 301.614 338.395C302.934 338.67 305.841 340.045 306.017 341.716C305.234 343.735 303.361 345.298 301.89 346.813Z" fill="white"/>
<path d="M75.1507 442.223C68.5042 443.133 64.7673 449.006 62.1328 454.652C58.8444 450.165 54.7652 445.215 49.5425 443.265C46.9375 442.292 44.2397 442.243 42.4464 444.636C38.3991 450.038 41.2912 458.277 44.452 463.306C48.6983 470.062 55.0593 475.232 61.1361 480.266C61.566 480.622 62.1305 480.194 62.4223 479.929C66.9088 475.862 71.3047 471.699 75.5916 467.423C79.1069 463.917 83.6526 460.354 85.233 455.482C85.2399 455.463 85.2457 455.444 85.2527 455.424C85.2782 455.344 85.3095 455.268 85.3333 455.188C85.4714 454.721 85.5758 454.092 85.5938 453.437C85.9599 447.425 81.8418 441.306 75.1507 442.223ZM78.1595 457.346C76.2426 459.321 74.3036 461.275 72.3432 463.207C68.8123 466.687 65.2065 470.087 61.5422 473.426C56.7099 469.421 51.7993 465.278 48.0032 460.247C46.4728 458.218 41.5216 451.488 45.078 449.498C46.3532 448.783 48.7691 449.652 50.1859 450.407C54.9526 452.947 58.4731 457.653 61.552 461.942C62.192 462.834 63.234 462.206 63.5751 461.42C65.3615 457.303 67.3091 452.825 71.2989 450.382C73.2315 449.199 75.6085 448.455 77.8833 448.928C79.2032 449.202 82.1099 450.578 82.2857 452.249C81.503 454.268 79.6308 455.831 78.1595 457.346Z" fill="white"/>
<path d="M224.304 442.223C217.658 443.133 213.921 449.006 211.287 454.652C207.998 450.165 203.919 445.215 198.696 443.264C196.091 442.291 193.393 442.242 191.6 444.635C187.553 450.037 190.445 458.277 193.606 463.305C197.852 470.061 204.213 475.232 210.29 480.265C210.72 480.621 211.284 480.193 211.576 479.929C216.063 475.862 220.459 471.698 224.745 467.422C228.261 463.916 232.806 460.354 234.387 455.482C234.395 455.459 234.402 455.436 234.41 455.413C234.434 455.337 234.464 455.264 234.487 455.187C234.625 454.721 234.73 454.091 234.748 453.437C235.114 447.425 230.996 441.306 224.304 442.223ZM227.314 457.346C225.397 459.321 223.458 461.275 221.498 463.207C217.967 466.687 214.361 470.087 210.697 473.426C205.864 469.421 200.954 465.278 197.158 460.247C195.627 458.218 190.676 451.488 194.232 449.498C195.508 448.783 197.923 449.652 199.34 450.407C204.107 452.947 207.627 457.653 210.706 461.942C211.346 462.834 212.388 462.206 212.729 461.42C214.516 457.303 216.463 452.825 220.453 450.382C222.385 449.199 224.763 448.455 227.038 448.928C228.358 449.202 231.264 450.578 231.44 452.249C230.657 454.268 228.785 455.831 227.314 457.346Z" fill="white"/>
<path d="M373.458 442.223C366.812 443.133 363.075 449.006 360.44 454.652C357.152 450.165 353.073 445.215 347.85 443.265C345.245 442.292 342.547 442.243 340.754 444.636C336.707 450.038 339.599 458.277 342.76 463.306C347.006 470.062 353.366 475.232 359.444 480.266C359.874 480.622 360.438 480.194 360.73 479.929C365.216 475.862 369.613 471.699 373.9 467.423C377.415 463.917 381.961 460.354 383.541 455.482C383.548 455.463 383.554 455.444 383.561 455.424C383.586 455.344 383.618 455.268 383.641 455.188C383.78 454.721 383.884 454.092 383.902 453.437C384.268 447.425 380.149 441.306 373.458 442.223ZM376.467 457.346C374.55 459.321 372.611 461.275 370.651 463.207C367.12 466.687 363.514 470.087 359.85 473.426C355.018 469.421 350.107 465.278 346.311 460.247C344.78 458.218 339.829 451.488 343.386 449.498C344.661 448.783 347.077 449.652 348.494 450.407C353.26 452.947 356.781 457.653 359.86 461.942C360.5 462.834 361.542 462.206 361.883 461.42C363.669 457.303 365.617 452.825 369.607 450.382C371.539 449.199 373.916 448.455 376.191 448.928C377.511 449.202 380.418 450.578 380.593 452.249C379.811 454.268 377.938 455.831 376.467 457.346Z" fill="white"/>
<path d="M0.574276 552.755C-6.07218 553.666 -9.80907 559.538 -12.4436 565.185C-15.7321 560.698 -19.8112 555.748 -25.034 553.797C-27.6389 552.824 -30.3367 552.776 -32.1301 555.168C-36.1773 560.571 -33.2852 568.81 -30.1244 573.839C-25.8781 580.594 -19.5177 585.765 -13.4404 590.798C-13.0105 591.155 -12.4459 590.726 -12.1541 590.462C-7.66764 586.395 -3.27168 582.232 1.01521 577.956C4.53048 574.449 9.07612 570.887 10.6565 566.014C10.6629 565.996 10.6687 565.978 10.6751 565.96C10.7006 565.879 10.7325 565.802 10.7569 565.72C10.895 565.254 10.9994 564.624 11.0174 563.97C11.3829 557.958 7.26483 551.839 0.574276 552.755ZM3.58307 567.879C1.66618 569.854 -0.27277 571.807 -2.23317 573.739C-5.7641 577.219 -9.36988 580.62 -13.0343 583.958C-17.8665 579.953 -22.7771 575.811 -26.5732 570.78C-28.1037 568.751 -33.0549 562.021 -29.4984 560.03C-28.2226 559.316 -25.8073 560.185 -24.3905 560.94C-19.6238 563.48 -16.1033 568.186 -13.0244 572.475C-12.3844 573.367 -11.3425 572.739 -11.0013 571.953C-9.21496 567.836 -7.26733 563.357 -3.27748 560.915C-1.3455 559.732 1.03204 558.988 3.3069 559.461C4.62679 559.735 7.53347 561.111 7.70926 562.782C6.92661 564.801 5.05381 566.363 3.58307 567.879Z" fill="white"/>
<path d="M149.728 552.755C143.081 553.666 139.344 559.538 136.71 565.185C133.422 560.698 129.342 555.748 124.12 553.797C121.515 552.824 118.817 552.776 117.024 555.168C112.976 560.571 115.868 568.81 119.029 573.839C123.275 580.594 129.636 585.765 135.713 590.798C136.143 591.155 136.708 590.726 136.999 590.462C141.486 586.395 145.882 582.232 150.169 577.956C153.684 574.449 158.229 570.887 159.81 566.015C159.818 565.993 159.825 565.972 159.832 565.95C159.857 565.872 159.887 565.798 159.91 565.72C160.049 565.253 160.153 564.624 160.171 563.969C160.536 557.958 156.418 551.839 149.728 552.755ZM152.737 567.879C150.82 569.854 148.881 571.807 146.92 573.739C143.389 577.219 139.784 580.62 136.119 583.958C131.287 579.953 126.376 575.811 122.58 570.78C121.05 568.751 116.099 562.021 119.655 560.03C120.93 559.316 123.346 560.185 124.763 560.94C129.53 563.48 133.05 568.186 136.129 572.475C136.769 573.367 137.811 572.739 138.152 571.953C139.939 567.836 141.886 563.357 145.876 560.915C147.809 559.732 150.186 558.988 152.46 559.461C153.78 559.735 156.687 561.111 156.863 562.782C156.08 564.801 154.207 566.363 152.737 567.879Z" fill="white"/>
<path d="M298.882 552.755C292.235 553.666 288.498 559.538 285.864 565.185C282.575 560.698 278.496 555.748 273.273 553.797C270.668 552.824 267.971 552.776 266.177 555.168C262.13 560.571 265.022 568.81 268.182 573.839C272.429 580.594 278.79 585.765 284.866 590.798C285.296 591.155 285.861 590.726 286.153 590.462C290.639 586.395 295.035 582.232 299.322 577.956C302.837 574.449 307.383 570.887 308.963 566.014C308.97 565.996 308.976 565.978 308.982 565.96C309.007 565.879 309.039 565.802 309.064 565.72C309.202 565.254 309.306 564.624 309.324 563.97C309.69 557.958 305.572 551.839 298.882 552.755ZM301.89 567.879C299.974 569.854 298.035 571.807 296.074 573.739C292.543 577.219 288.938 580.62 285.273 583.958C280.441 579.953 275.53 575.811 271.734 570.78C270.204 568.751 265.253 562.021 268.809 560.03C270.085 559.316 272.5 560.185 273.917 560.94C278.684 563.48 282.204 568.186 285.283 572.475C285.923 573.367 286.965 572.739 287.306 571.953C289.092 567.836 291.04 563.357 295.03 560.915C296.962 559.732 299.339 558.988 301.614 559.461C302.934 559.735 305.841 561.111 306.017 562.782C305.234 564.801 303.361 566.363 301.89 567.879Z" fill="white"/>
<path d="M75.1507 663.288C68.5042 664.198 64.7673 670.071 62.1328 675.717C58.8444 671.23 54.7652 666.281 49.5425 664.33C46.9375 663.357 44.2397 663.308 42.4464 665.701C38.3991 671.104 41.2912 679.343 44.452 684.372C48.6983 691.128 55.0593 696.298 61.1361 701.332C61.566 701.688 62.1305 701.26 62.4223 700.995C66.9088 696.928 71.3047 692.765 75.5916 688.489C79.1069 684.983 83.6526 681.42 85.233 676.547C85.2393 676.529 85.2451 676.511 85.2515 676.493C85.277 676.413 85.3089 676.335 85.3333 676.254C85.4714 675.787 85.5758 675.158 85.5938 674.503C85.9599 668.49 81.8418 662.372 75.1507 663.288ZM78.1595 678.411C76.2426 680.386 74.3036 682.34 72.3432 684.272C68.8123 687.752 65.2065 691.153 61.5422 694.491C56.7099 690.486 51.7993 686.343 48.0032 681.312C46.4728 679.283 41.5216 672.554 45.078 670.563C46.3532 669.849 48.7691 670.717 50.1859 671.473C54.9526 674.013 58.4731 678.719 61.552 683.008C62.192 683.9 63.234 683.272 63.5751 682.486C65.3615 678.369 67.3091 673.89 71.2989 671.448C73.2315 670.265 75.6085 669.521 77.8833 669.994C79.2032 670.268 82.1105 671.644 82.2857 673.315C81.503 675.333 79.6308 676.896 78.1595 678.411Z" fill="white"/>
<path d="M224.304 663.288C217.658 664.198 213.921 670.071 211.287 675.717C207.998 671.23 203.919 666.281 198.696 664.329C196.091 663.356 193.393 663.308 191.6 665.701C187.553 671.103 190.445 679.343 193.606 684.371C197.852 691.127 204.213 696.298 210.29 701.331C210.72 701.687 211.284 701.259 211.576 700.994C216.063 696.928 220.459 692.764 224.745 688.488C228.261 684.982 232.806 681.42 234.387 676.547C234.395 676.526 234.401 676.504 234.409 676.482C234.433 676.405 234.464 676.331 234.487 676.252C234.625 675.786 234.73 675.156 234.748 674.503C235.114 668.491 230.996 662.372 224.304 663.288ZM227.314 678.411C225.397 680.386 223.458 682.34 221.498 684.272C217.967 687.752 214.361 691.153 210.697 694.491C205.864 690.486 200.954 686.343 197.158 681.312C195.627 679.283 190.676 672.554 194.232 670.563C195.508 669.849 197.923 670.717 199.34 671.473C204.107 674.013 207.627 678.719 210.706 683.008C211.346 683.9 212.388 683.272 212.729 682.486C214.516 678.369 216.463 673.89 220.453 671.448C222.385 670.265 224.763 669.521 227.038 669.994C228.358 670.268 231.264 671.644 231.44 673.315C230.657 675.333 228.785 676.896 227.314 678.411Z" fill="white"/>
<path d="M373.458 663.288C366.812 664.198 363.075 670.071 360.44 675.717C357.152 671.23 353.073 666.281 347.85 664.33C345.245 663.357 342.547 663.308 340.754 665.701C336.707 671.104 339.599 679.343 342.76 684.372C347.006 691.128 353.366 696.298 359.444 701.332C359.874 701.688 360.438 701.26 360.73 700.995C365.216 696.928 369.613 692.765 373.9 688.489C377.415 684.983 381.961 681.42 383.541 676.547C383.548 676.529 383.553 676.511 383.56 676.493C383.585 676.413 383.617 676.335 383.641 676.254C383.78 675.787 383.884 675.158 383.902 674.503C384.268 668.49 380.149 662.372 373.458 663.288ZM376.467 678.411C374.55 680.386 372.611 682.34 370.651 684.272C367.12 687.752 363.514 691.153 359.85 694.491C355.018 690.486 350.107 686.343 346.311 681.312C344.78 679.283 339.829 672.554 343.386 670.563C344.661 669.849 347.077 670.717 348.494 671.473C353.26 674.013 356.781 678.719 359.86 683.008C360.5 683.9 361.542 683.272 361.883 682.486C363.669 678.369 365.617 673.89 369.607 671.448C371.539 670.265 373.916 669.521 376.191 669.994C377.511 670.268 380.418 671.644 380.593 673.315C379.811 675.333 377.938 676.896 376.467 678.411Z" fill="white"/>
<path d="M0.574276 773.82C-6.07218 774.73 -9.80907 780.603 -12.4436 786.25C-15.7321 781.762 -19.8112 776.813 -25.034 774.862C-27.6389 773.889 -30.3367 773.84 -32.1301 776.234C-36.1773 781.636 -33.2852 789.875 -30.1244 794.904C-25.8781 801.66 -19.5177 806.831 -13.4404 811.864C-13.0105 812.22 -12.4459 811.792 -12.1541 811.527C-7.66764 807.461 -3.27168 803.297 1.01521 799.021C4.53048 795.515 9.07612 791.952 10.6565 787.079C10.6629 787.061 10.6687 787.043 10.6751 787.025C10.7006 786.945 10.7325 786.867 10.7569 786.786C10.895 786.319 10.9994 785.69 11.0174 785.035C11.3829 779.023 7.26483 772.904 0.574276 773.82ZM3.58307 788.944C1.66618 790.919 -0.27277 792.872 -2.23317 794.804C-5.7641 798.284 -9.36988 801.685 -13.0343 805.023C-17.8665 801.018 -22.7771 796.875 -26.5732 791.845C-28.1037 789.816 -33.0549 783.086 -29.4984 781.095C-28.2226 780.381 -25.8073 781.25 -24.3905 782.005C-19.6238 784.545 -16.1033 789.251 -13.0244 793.54C-12.3844 794.432 -11.3425 793.805 -11.0013 793.018C-9.21496 788.901 -7.26733 784.423 -3.27748 781.98C-1.3455 780.797 1.03204 780.053 3.3069 780.526C4.62679 780.801 7.53347 782.176 7.70926 783.847C6.92661 785.866 5.05381 787.428 3.58307 788.944Z" fill="white"/>
<path d="M149.728 773.82C143.081 774.73 139.344 780.603 136.71 786.25C133.422 781.762 129.342 776.813 124.12 774.862C121.515 773.889 118.817 773.84 117.024 776.234C112.976 781.636 115.868 789.875 119.029 794.904C123.275 801.66 129.636 806.831 135.713 811.864C136.143 812.22 136.708 811.792 136.999 811.527C141.486 807.461 145.882 803.297 150.169 799.021C153.684 795.515 158.229 791.952 159.81 787.08C159.818 787.058 159.825 787.037 159.832 787.015C159.857 786.938 159.887 786.864 159.91 786.785C160.049 786.319 160.153 785.689 160.171 785.035C160.536 779.023 156.418 772.904 149.728 773.82ZM152.737 788.944C150.82 790.919 148.881 792.872 146.92 794.804C143.389 798.284 139.784 801.685 136.119 805.023C131.287 801.018 126.376 796.875 122.58 791.845C121.05 789.816 116.099 783.086 119.655 781.095C120.93 780.381 123.346 781.25 124.763 782.005C129.53 784.545 133.05 789.251 136.129 793.54C136.769 794.432 137.811 793.805 138.152 793.018C139.939 788.901 141.886 784.423 145.876 781.98C147.809 780.797 150.186 780.053 152.46 780.526C153.78 780.801 156.687 782.176 156.863 783.847C156.08 785.866 154.207 787.428 152.737 788.944Z" fill="white"/>
<path d="M298.882 773.82C292.235 774.73 288.498 780.603 285.864 786.25C282.575 781.762 278.496 776.813 273.273 774.862C270.668 773.889 267.971 773.84 266.177 776.234C262.13 781.636 265.022 789.875 268.182 794.904C272.429 801.66 278.79 806.831 284.866 811.864C285.296 812.22 285.861 811.792 286.153 811.527C290.639 807.461 295.035 803.297 299.322 799.021C302.837 795.515 307.383 791.952 308.963 787.079C308.97 787.061 308.976 787.043 308.982 787.025C309.007 786.945 309.039 786.867 309.064 786.786C309.202 786.319 309.306 785.69 309.324 785.035C309.69 779.023 305.572 772.904 298.882 773.82ZM301.89 788.944C299.974 790.919 298.035 792.872 296.074 794.804C292.543 798.284 288.938 801.685 285.273 805.023C280.441 801.018 275.53 796.875 271.734 791.845C270.204 789.816 265.253 783.086 268.809 781.095C270.085 780.381 272.5 781.25 273.917 782.005C278.684 784.545 282.204 789.251 285.283 793.54C285.923 794.432 286.965 793.805 287.306 793.018C289.092 788.901 291.04 784.423 295.03 781.98C296.962 780.797 299.339 780.053 301.614 780.526C302.934 780.801 305.841 782.176 306.017 783.847C305.234 785.866 303.361 787.428 301.89 788.944Z" fill="white"/>
</mask>
<g mask="url(#mask0_169_1417)">
<rect opacity="0.7" width="375" height="812" fill="url(#paint0_linear_169_1417)"/>
</g>
</g>
<defs>
<linearGradient id="paint0_linear_169_1417" x1="187.5" y1="0" x2="187.5" y2="812" gradientUnits="userSpaceOnUse">
<stop stop-color="#021818"/>
<stop offset="1" stop-color="#053434"/>
</linearGradient>
<clipPath id="clip0_169_1417">
<rect width="375" height="812" fill="white"/>
</clipPath>
</defs>
</svg>
